G04 (created by PCBNEW (2013-mar-13)-testing) date Wed 10 Jun 2015 12:05:28 AM EDT*
%MOIN*%
G04 Gerber Fmt 3.4, Leading zero omitted, Abs format*
%FSLAX34Y34*%
G01*
G70*
G90*
G04 APERTURE LIST*
%ADD10C,0.005906*%
%ADD11R,0.045000X0.025000*%
%ADD12R,0.031500X0.039400*%
%ADD13R,0.025000X0.045000*%
%ADD14R,0.086614X0.086614*%
%ADD15C,0.086614*%
%ADD16R,0.035000X0.055000*%
%ADD17R,0.055100X0.023600*%
%ADD18C,0.070866*%
%ADD19R,0.055000X0.055000*%
%ADD20C,0.055000*%
%ADD21R,0.023622X0.021654*%
%ADD22R,0.021654X0.023622*%
%ADD23R,0.055118X0.082677*%
%ADD24R,0.086600X0.070900*%
%ADD25C,0.030000*%
%ADD26C,0.012000*%
%ADD27C,0.006000*%
%ADD28C,0.010000*%
%ADD29C,0.039370*%
%ADD30C,0.007992*%
G04 APERTURE END LIST*
G54D10*
G54D11*
X49500Y-45606D03*
X49500Y-46393D03*
G54D12*
X48450Y-43917D03*
X48075Y-44783D03*
X48825Y-44783D03*
G54D13*
X51893Y-47500D03*
X51106Y-47500D03*
G54D14*
X62000Y-44500D03*
G54D15*
X62000Y-45500D03*
X62000Y-46500D03*
X62000Y-47500D03*
G54D16*
X51407Y-44450D03*
X52392Y-44450D03*
G54D17*
X50450Y-45250D03*
X52550Y-45250D03*
X50450Y-45750D03*
X50450Y-46250D03*
X50450Y-46750D03*
X52550Y-45750D03*
X52550Y-46250D03*
X52550Y-46750D03*
G54D18*
X47500Y-45250D03*
X48500Y-45750D03*
X47500Y-46250D03*
X48500Y-46750D03*
G54D19*
X57000Y-43000D03*
G54D20*
X56000Y-43000D03*
X55000Y-43000D03*
X54000Y-43000D03*
G54D19*
X54000Y-49000D03*
G54D20*
X55000Y-49000D03*
X56000Y-49000D03*
X57000Y-49000D03*
G54D21*
X50450Y-44213D03*
X50450Y-44686D03*
G54D22*
X53813Y-44000D03*
X54286Y-44000D03*
G54D21*
X52600Y-47513D03*
X52600Y-47986D03*
X61000Y-46736D03*
X61000Y-46263D03*
X61000Y-45263D03*
X61000Y-45736D03*
G54D23*
X60185Y-47791D03*
X60185Y-44208D03*
X58414Y-47791D03*
X58414Y-44208D03*
G54D10*
G36*
X53487Y-46604D02*
X53336Y-46453D01*
X53573Y-46217D01*
X53723Y-46367D01*
X53487Y-46604D01*
X53487Y-46604D01*
G37*
G36*
X53709Y-46826D02*
X53559Y-46676D01*
X53796Y-46439D01*
X53946Y-46590D01*
X53709Y-46826D01*
X53709Y-46826D01*
G37*
G36*
X53932Y-47049D02*
X53782Y-46899D01*
X54018Y-46662D01*
X54169Y-46812D01*
X53932Y-47049D01*
X53932Y-47049D01*
G37*
G36*
X54155Y-47272D02*
X54005Y-47121D01*
X54241Y-46885D01*
X54392Y-47035D01*
X54155Y-47272D01*
X54155Y-47272D01*
G37*
G36*
X54378Y-47494D02*
X54227Y-47344D01*
X54464Y-47107D01*
X54614Y-47258D01*
X54378Y-47494D01*
X54378Y-47494D01*
G37*
G36*
X54600Y-47717D02*
X54450Y-47567D01*
X54687Y-47330D01*
X54837Y-47481D01*
X54600Y-47717D01*
X54600Y-47717D01*
G37*
G36*
X54823Y-47940D02*
X54673Y-47790D01*
X54909Y-47553D01*
X55060Y-47703D01*
X54823Y-47940D01*
X54823Y-47940D01*
G37*
G36*
X55046Y-48163D02*
X54895Y-48012D01*
X55132Y-47776D01*
X55282Y-47926D01*
X55046Y-48163D01*
X55046Y-48163D01*
G37*
G36*
X55046Y-48163D02*
X54895Y-48012D01*
X55132Y-47776D01*
X55282Y-47926D01*
X55046Y-48163D01*
X55046Y-48163D01*
G37*
G36*
X54823Y-47940D02*
X54673Y-47790D01*
X54909Y-47553D01*
X55060Y-47703D01*
X54823Y-47940D01*
X54823Y-47940D01*
G37*
G36*
X54600Y-47717D02*
X54450Y-47567D01*
X54687Y-47330D01*
X54837Y-47481D01*
X54600Y-47717D01*
X54600Y-47717D01*
G37*
G36*
X54378Y-47494D02*
X54227Y-47344D01*
X54464Y-47107D01*
X54614Y-47258D01*
X54378Y-47494D01*
X54378Y-47494D01*
G37*
G36*
X54155Y-47272D02*
X54005Y-47121D01*
X54241Y-46885D01*
X54392Y-47035D01*
X54155Y-47272D01*
X54155Y-47272D01*
G37*
G36*
X53932Y-47049D02*
X53782Y-46899D01*
X54018Y-46662D01*
X54169Y-46812D01*
X53932Y-47049D01*
X53932Y-47049D01*
G37*
G36*
X53709Y-46826D02*
X53559Y-46676D01*
X53796Y-46439D01*
X53946Y-46590D01*
X53709Y-46826D01*
X53709Y-46826D01*
G37*
G36*
X53487Y-46604D02*
X53336Y-46453D01*
X53573Y-46217D01*
X53723Y-46367D01*
X53487Y-46604D01*
X53487Y-46604D01*
G37*
G36*
X53487Y-46604D02*
X53336Y-46453D01*
X53573Y-46217D01*
X53723Y-46367D01*
X53487Y-46604D01*
X53487Y-46604D01*
G37*
G36*
X53709Y-46826D02*
X53559Y-46676D01*
X53796Y-46439D01*
X53946Y-46590D01*
X53709Y-46826D01*
X53709Y-46826D01*
G37*
G36*
X53932Y-47049D02*
X53782Y-46899D01*
X54018Y-46662D01*
X54169Y-46812D01*
X53932Y-47049D01*
X53932Y-47049D01*
G37*
G36*
X54155Y-47272D02*
X54005Y-47121D01*
X54241Y-46885D01*
X54392Y-47035D01*
X54155Y-47272D01*
X54155Y-47272D01*
G37*
G36*
X54378Y-47494D02*
X54227Y-47344D01*
X54464Y-47107D01*
X54614Y-47258D01*
X54378Y-47494D01*
X54378Y-47494D01*
G37*
G36*
X54600Y-47717D02*
X54450Y-47567D01*
X54687Y-47330D01*
X54837Y-47481D01*
X54600Y-47717D01*
X54600Y-47717D01*
G37*
G36*
X54823Y-47940D02*
X54673Y-47790D01*
X54909Y-47553D01*
X55060Y-47703D01*
X54823Y-47940D01*
X54823Y-47940D01*
G37*
G36*
X55046Y-48163D02*
X54895Y-48012D01*
X55132Y-47776D01*
X55282Y-47926D01*
X55046Y-48163D01*
X55046Y-48163D01*
G37*
G36*
X55046Y-48163D02*
X54895Y-48012D01*
X55132Y-47776D01*
X55282Y-47926D01*
X55046Y-48163D01*
X55046Y-48163D01*
G37*
G36*
X54823Y-47940D02*
X54673Y-47790D01*
X54909Y-47553D01*
X55060Y-47703D01*
X54823Y-47940D01*
X54823Y-47940D01*
G37*
G36*
X54600Y-47717D02*
X54450Y-47567D01*
X54687Y-47330D01*
X54837Y-47481D01*
X54600Y-47717D01*
X54600Y-47717D01*
G37*
G36*
X54378Y-47494D02*
X54227Y-47344D01*
X54464Y-47107D01*
X54614Y-47258D01*
X54378Y-47494D01*
X54378Y-47494D01*
G37*
G36*
X54155Y-47272D02*
X54005Y-47121D01*
X54241Y-46885D01*
X54392Y-47035D01*
X54155Y-47272D01*
X54155Y-47272D01*
G37*
G36*
X53932Y-47049D02*
X53782Y-46899D01*
X54018Y-46662D01*
X54169Y-46812D01*
X53932Y-47049D01*
X53932Y-47049D01*
G37*
G36*
X53709Y-46826D02*
X53559Y-46676D01*
X53796Y-46439D01*
X53946Y-46590D01*
X53709Y-46826D01*
X53709Y-46826D01*
G37*
G36*
X53487Y-46604D02*
X53336Y-46453D01*
X53573Y-46217D01*
X53723Y-46367D01*
X53487Y-46604D01*
X53487Y-46604D01*
G37*
G36*
X53573Y-45782D02*
X53336Y-45546D01*
X53487Y-45395D01*
X53723Y-45632D01*
X53573Y-45782D01*
X53573Y-45782D01*
G37*
G36*
X53796Y-45560D02*
X53559Y-45323D01*
X53709Y-45173D01*
X53946Y-45409D01*
X53796Y-45560D01*
X53796Y-45560D01*
G37*
G36*
X54018Y-45337D02*
X53782Y-45100D01*
X53932Y-44950D01*
X54169Y-45187D01*
X54018Y-45337D01*
X54018Y-45337D01*
G37*
G36*
X54241Y-45114D02*
X54005Y-44878D01*
X54155Y-44727D01*
X54392Y-44964D01*
X54241Y-45114D01*
X54241Y-45114D01*
G37*
G36*
X54464Y-44892D02*
X54227Y-44655D01*
X54378Y-44505D01*
X54614Y-44741D01*
X54464Y-44892D01*
X54464Y-44892D01*
G37*
G36*
X54687Y-44669D02*
X54450Y-44432D01*
X54600Y-44282D01*
X54837Y-44518D01*
X54687Y-44669D01*
X54687Y-44669D01*
G37*
G36*
X54909Y-44446D02*
X54673Y-44209D01*
X54823Y-44059D01*
X55060Y-44296D01*
X54909Y-44446D01*
X54909Y-44446D01*
G37*
G36*
X55132Y-44223D02*
X54895Y-43987D01*
X55046Y-43836D01*
X55282Y-44073D01*
X55132Y-44223D01*
X55132Y-44223D01*
G37*
G36*
X55867Y-44223D02*
X55717Y-44073D01*
X55953Y-43836D01*
X56104Y-43987D01*
X55867Y-44223D01*
X55867Y-44223D01*
G37*
G36*
X56090Y-44446D02*
X55939Y-44296D01*
X56176Y-44059D01*
X56326Y-44209D01*
X56090Y-44446D01*
X56090Y-44446D01*
G37*
G36*
X56312Y-44669D02*
X56162Y-44518D01*
X56399Y-44282D01*
X56549Y-44432D01*
X56312Y-44669D01*
X56312Y-44669D01*
G37*
G36*
X56535Y-44892D02*
X56385Y-44741D01*
X56621Y-44505D01*
X56772Y-44655D01*
X56535Y-44892D01*
X56535Y-44892D01*
G37*
G36*
X56758Y-45114D02*
X56607Y-44964D01*
X56844Y-44727D01*
X56994Y-44878D01*
X56758Y-45114D01*
X56758Y-45114D01*
G37*
G36*
X56981Y-45337D02*
X56830Y-45187D01*
X57067Y-44950D01*
X57217Y-45100D01*
X56981Y-45337D01*
X56981Y-45337D01*
G37*
G36*
X57203Y-45560D02*
X57053Y-45409D01*
X57290Y-45173D01*
X57440Y-45323D01*
X57203Y-45560D01*
X57203Y-45560D01*
G37*
G36*
X57426Y-45782D02*
X57276Y-45632D01*
X57512Y-45395D01*
X57663Y-45546D01*
X57426Y-45782D01*
X57426Y-45782D01*
G37*
G36*
X57512Y-46604D02*
X57276Y-46367D01*
X57426Y-46217D01*
X57663Y-46453D01*
X57512Y-46604D01*
X57512Y-46604D01*
G37*
G36*
X57290Y-46826D02*
X57053Y-46590D01*
X57203Y-46439D01*
X57440Y-46676D01*
X57290Y-46826D01*
X57290Y-46826D01*
G37*
G36*
X57067Y-47049D02*
X56830Y-46812D01*
X56981Y-46662D01*
X57217Y-46899D01*
X57067Y-47049D01*
X57067Y-47049D01*
G37*
G36*
X56844Y-47272D02*
X56607Y-47035D01*
X56758Y-46885D01*
X56994Y-47121D01*
X56844Y-47272D01*
X56844Y-47272D01*
G37*
G36*
X56621Y-47494D02*
X56385Y-47258D01*
X56535Y-47107D01*
X56772Y-47344D01*
X56621Y-47494D01*
X56621Y-47494D01*
G37*
G36*
X56399Y-47717D02*
X56162Y-47481D01*
X56312Y-47330D01*
X56549Y-47567D01*
X56399Y-47717D01*
X56399Y-47717D01*
G37*
G36*
X56176Y-47940D02*
X55939Y-47703D01*
X56090Y-47553D01*
X56326Y-47790D01*
X56176Y-47940D01*
X56176Y-47940D01*
G37*
G36*
X55953Y-48163D02*
X55717Y-47926D01*
X55867Y-47776D01*
X56104Y-48012D01*
X55953Y-48163D01*
X55953Y-48163D01*
G37*
G54D24*
X46000Y-45210D03*
X46000Y-46790D03*
G54D11*
X49500Y-43906D03*
X49500Y-44693D03*
X49500Y-47306D03*
X49500Y-48093D03*
G54D25*
X49000Y-47150D03*
X52900Y-44000D03*
X44500Y-49000D03*
X45500Y-49500D03*
X45000Y-49500D03*
X48500Y-49500D03*
X51500Y-49500D03*
X50500Y-49500D03*
X49500Y-49500D03*
X49000Y-49500D03*
X49050Y-48800D03*
X50000Y-49500D03*
X51000Y-49500D03*
X52000Y-49500D03*
X44500Y-46500D03*
X44500Y-45500D03*
X44500Y-45000D03*
X44500Y-46000D03*
X44500Y-47000D03*
X44500Y-43000D03*
X45000Y-42500D03*
X45500Y-42500D03*
X51500Y-42500D03*
X50500Y-42500D03*
X49500Y-42500D03*
X49000Y-42500D03*
X50000Y-42500D03*
X51000Y-42500D03*
X52000Y-42500D03*
X48500Y-42500D03*
X51250Y-46600D03*
X51250Y-46950D03*
X54000Y-44400D03*
X51900Y-44800D03*
X61500Y-49500D03*
X62500Y-49000D03*
X62000Y-49500D03*
X59000Y-49500D03*
X62500Y-43000D03*
X61500Y-42500D03*
X62000Y-42500D03*
X62500Y-43500D03*
X58500Y-42500D03*
X59300Y-45100D03*
X59750Y-45100D03*
X59300Y-45600D03*
X59750Y-45600D03*
X53650Y-47650D03*
X53200Y-47650D03*
X50500Y-47450D03*
X59300Y-46450D03*
X59750Y-46900D03*
X59750Y-46450D03*
X59300Y-46900D03*
X50500Y-47100D03*
X51250Y-46250D03*
X47700Y-44400D03*
X49750Y-43300D03*
X50800Y-48050D03*
X60700Y-45000D03*
X60700Y-47000D03*
G54D26*
X54000Y-49000D02*
X49750Y-49000D01*
X49000Y-48250D02*
X49000Y-47150D01*
X49750Y-49000D02*
X49000Y-48250D01*
X58350Y-46150D02*
X60250Y-46150D01*
X58350Y-46150D02*
X57700Y-46800D01*
X57700Y-46800D02*
X57413Y-46800D01*
X57246Y-46633D02*
X57413Y-46800D01*
X60363Y-46263D02*
X61000Y-46263D01*
X60250Y-46150D02*
X60363Y-46263D01*
X61000Y-46263D02*
X61213Y-46263D01*
X61450Y-46500D02*
X62000Y-46500D01*
X61213Y-46263D02*
X61450Y-46500D01*
X57350Y-45950D02*
X56600Y-46700D01*
X60200Y-45950D02*
X57350Y-45950D01*
X61000Y-45736D02*
X60413Y-45736D01*
X60413Y-45736D02*
X60200Y-45950D01*
X61000Y-45736D02*
X61213Y-45736D01*
X61450Y-45500D02*
X62000Y-45500D01*
X61213Y-45736D02*
X61450Y-45500D01*
X56600Y-46877D02*
X56801Y-47078D01*
X56600Y-46700D02*
X56600Y-46877D01*
X56000Y-43000D02*
X57700Y-44700D01*
X57700Y-45358D02*
X57469Y-45589D01*
X57700Y-44700D02*
X57700Y-45358D01*
X54000Y-43000D02*
X54450Y-43450D01*
X57400Y-45213D02*
X57246Y-45366D01*
X57400Y-44900D02*
X57400Y-45213D01*
X55950Y-43450D02*
X57400Y-44900D01*
X54450Y-43450D02*
X55950Y-43450D01*
X50450Y-45250D02*
X50600Y-45250D01*
X50256Y-48093D02*
X49500Y-48093D01*
X50800Y-47550D02*
X50256Y-48093D01*
X50800Y-47150D02*
X50800Y-47550D01*
X50950Y-47000D02*
X50800Y-47150D01*
X50950Y-45600D02*
X50950Y-47000D01*
X50600Y-45250D02*
X50950Y-45600D01*
X52900Y-44000D02*
X51800Y-44000D01*
X51800Y-44000D02*
X51407Y-44392D01*
X53500Y-44000D02*
X52900Y-44000D01*
X56400Y-42400D02*
X53950Y-42400D01*
X57000Y-43000D02*
X56400Y-42400D01*
X53500Y-42850D02*
X53500Y-44000D01*
X53950Y-42400D02*
X53500Y-42850D01*
X53813Y-44000D02*
X53500Y-44000D01*
X51407Y-44392D02*
X51407Y-44450D01*
X51407Y-44392D02*
X51407Y-44450D01*
X55530Y-43650D02*
X54163Y-43650D01*
X54163Y-43650D02*
X53813Y-44000D01*
X55910Y-44030D02*
X55530Y-43650D01*
X51000Y-44450D02*
X51407Y-44450D01*
X50763Y-44213D02*
X51000Y-44450D01*
X50450Y-44213D02*
X50763Y-44213D01*
X50450Y-44213D02*
X50100Y-44563D01*
X50300Y-45250D02*
X50450Y-45250D01*
X50100Y-45050D02*
X50300Y-45250D01*
X50100Y-44563D02*
X50100Y-45050D01*
X51407Y-44392D02*
X51407Y-44450D01*
X55089Y-47969D02*
X55089Y-48089D01*
X55089Y-48089D02*
X56000Y-49000D01*
X54650Y-46850D02*
X54650Y-45291D01*
X54650Y-45291D02*
X55910Y-44030D01*
X54198Y-47078D02*
X54427Y-46850D01*
X54427Y-46850D02*
X54650Y-46850D01*
X55350Y-47708D02*
X55089Y-47969D01*
X55350Y-47550D02*
X55350Y-47708D01*
X54650Y-46850D02*
X55350Y-47550D01*
G54D27*
X44500Y-47000D02*
X44200Y-47300D01*
G54D26*
X45000Y-49500D02*
X45500Y-49500D01*
X46000Y-49000D02*
X45500Y-49500D01*
X44500Y-49000D02*
X45000Y-49500D01*
X52000Y-49500D02*
X51500Y-49500D01*
X51000Y-49500D02*
X50500Y-49500D01*
X50000Y-49500D02*
X49500Y-49500D01*
X49000Y-49500D02*
X48500Y-49500D01*
X48000Y-49000D02*
X48500Y-49500D01*
X46000Y-49000D02*
X48000Y-49000D01*
X49500Y-49500D02*
X49000Y-49500D01*
X50500Y-49500D02*
X50000Y-49500D01*
X51500Y-49500D02*
X51000Y-49500D01*
G54D27*
X49000Y-48850D02*
X49000Y-49500D01*
X49050Y-48800D02*
X49000Y-48850D01*
X45700Y-42700D02*
X48300Y-42700D01*
X48300Y-42700D02*
X48500Y-42500D01*
X44500Y-43000D02*
X44200Y-43300D01*
G54D26*
X44500Y-46500D02*
X44500Y-47000D01*
X44500Y-46000D02*
X44500Y-45500D01*
X44500Y-45000D02*
X44500Y-45500D01*
X44500Y-46500D02*
X44500Y-46000D01*
X45000Y-42500D02*
X45500Y-42500D01*
X44500Y-43000D02*
X45000Y-42500D01*
G54D27*
X44200Y-44700D02*
X44500Y-45000D01*
X44200Y-43300D02*
X44200Y-44700D01*
G54D26*
X51500Y-42500D02*
X52000Y-42500D01*
X51000Y-42500D02*
X50500Y-42500D01*
X50000Y-42500D02*
X49500Y-42500D01*
X49000Y-42500D02*
X48500Y-42500D01*
X49500Y-42500D02*
X49000Y-42500D01*
X50500Y-42500D02*
X50000Y-42500D01*
X51500Y-42500D02*
X51000Y-42500D01*
G54D27*
X45500Y-42500D02*
X45700Y-42700D01*
X44200Y-48700D02*
X44500Y-49000D01*
X44200Y-47300D02*
X44200Y-48700D01*
G54D26*
X62000Y-47500D02*
X62500Y-48000D01*
X62500Y-48000D02*
X62500Y-48500D01*
X61500Y-49500D02*
X61000Y-49500D01*
X62000Y-49500D02*
X62500Y-49000D01*
X62500Y-49000D02*
X62500Y-48500D01*
X61500Y-49500D02*
X62000Y-49500D01*
X59500Y-49000D02*
X59000Y-49500D01*
X60500Y-49000D02*
X59500Y-49000D01*
X61000Y-49500D02*
X60500Y-49000D01*
X62500Y-43500D02*
X62500Y-43000D01*
X62000Y-42500D02*
X61500Y-42500D01*
X60185Y-43314D02*
X60500Y-43000D01*
X60500Y-43000D02*
X61000Y-43000D01*
X61000Y-43000D02*
X61500Y-42500D01*
X60185Y-43314D02*
X60185Y-44208D01*
X62500Y-43000D02*
X62000Y-42500D01*
X60185Y-44208D02*
X60185Y-43185D01*
X59000Y-43000D02*
X58500Y-42500D01*
X60000Y-43000D02*
X59000Y-43000D01*
X60185Y-43185D02*
X60000Y-43000D01*
X54900Y-43841D02*
X54708Y-43841D01*
X54908Y-43850D02*
X54900Y-43841D01*
X54900Y-43841D02*
X55089Y-44030D01*
X50500Y-47100D02*
X50555Y-47155D01*
X48075Y-44783D02*
X47700Y-44408D01*
X47700Y-44408D02*
X47700Y-44400D01*
X49500Y-46393D02*
X49500Y-47306D01*
X48500Y-45750D02*
X49143Y-46393D01*
X49143Y-46393D02*
X49500Y-46393D01*
X49500Y-46393D02*
X49643Y-46250D01*
X49643Y-46250D02*
X50450Y-46250D01*
X48825Y-44783D02*
X48914Y-44693D01*
X48914Y-44693D02*
X49500Y-44693D01*
X49500Y-45606D02*
X49500Y-44693D01*
X49500Y-45606D02*
X49643Y-45750D01*
X49643Y-45750D02*
X50450Y-45750D01*
X47500Y-46250D02*
X47500Y-46000D01*
G54D28*
X49406Y-45606D02*
X49500Y-45606D01*
G54D26*
X49000Y-45200D02*
X49406Y-45606D01*
X48300Y-45200D02*
X49000Y-45200D01*
X47500Y-46000D02*
X48300Y-45200D01*
X52600Y-47986D02*
X54181Y-47986D01*
X54181Y-47986D02*
X54643Y-47524D01*
X53950Y-46436D02*
X53753Y-46633D01*
X53950Y-46250D02*
X53950Y-46436D01*
X53750Y-46050D02*
X53950Y-46250D01*
X53350Y-46050D02*
X53750Y-46050D01*
X53150Y-46250D02*
X53350Y-46050D01*
X52550Y-46250D02*
X52550Y-45750D01*
X52550Y-46250D02*
X53150Y-46250D01*
X51795Y-47500D02*
X52586Y-47500D01*
X52586Y-47500D02*
X52600Y-47513D01*
G54D29*
X46000Y-46790D02*
X47090Y-46790D01*
X47090Y-46790D02*
X47200Y-46900D01*
X48500Y-46750D02*
X48350Y-46900D01*
X47900Y-43300D02*
X49750Y-43300D01*
X46800Y-44400D02*
X47900Y-43300D01*
X46800Y-46500D02*
X46800Y-44400D01*
X47200Y-46900D02*
X46800Y-46500D01*
X48350Y-46900D02*
X47200Y-46900D01*
G54D26*
X56356Y-47524D02*
X56623Y-47791D01*
X56623Y-47791D02*
X58414Y-47791D01*
X52550Y-46750D02*
X52700Y-46750D01*
X53441Y-46500D02*
X53530Y-46410D01*
X52950Y-46500D02*
X53441Y-46500D01*
X52700Y-46750D02*
X52950Y-46500D01*
X53191Y-45250D02*
X53530Y-45589D01*
X52550Y-45250D02*
X53191Y-45250D01*
X50800Y-48050D02*
X51150Y-48400D01*
X55000Y-49000D02*
X54400Y-48400D01*
X51150Y-48400D02*
X54400Y-48400D01*
X60700Y-45000D02*
X60963Y-45263D01*
X60963Y-45263D02*
X61000Y-45263D01*
X61000Y-46736D02*
X60736Y-47000D01*
X60736Y-47000D02*
X60700Y-47000D01*
X61256Y-47943D02*
X60550Y-48650D01*
X61256Y-46993D02*
X61256Y-47943D01*
X55450Y-49450D02*
X55000Y-49000D01*
X57250Y-49450D02*
X55450Y-49450D01*
X58050Y-48650D02*
X57250Y-49450D01*
X60550Y-48650D02*
X58050Y-48650D01*
X61263Y-47000D02*
X61256Y-46993D01*
X61256Y-46993D02*
X61000Y-46736D01*
X61000Y-45263D02*
X61236Y-45263D01*
X61236Y-45263D02*
X62000Y-44500D01*
G54D10*
G36*
X50669Y-47028D02*
X50633Y-47081D01*
X50620Y-47150D01*
X50620Y-47475D01*
X50429Y-47665D01*
X50429Y-46988D01*
X50429Y-46770D01*
X50054Y-46770D01*
X50014Y-46810D01*
X50014Y-46899D01*
X50038Y-46958D01*
X50083Y-47003D01*
X50142Y-47028D01*
X50206Y-47028D01*
X50389Y-47028D01*
X50429Y-46988D01*
X50429Y-47665D01*
X50181Y-47913D01*
X49832Y-47913D01*
X49826Y-47900D01*
X49792Y-47867D01*
X49748Y-47848D01*
X49701Y-47848D01*
X49251Y-47848D01*
X49207Y-47867D01*
X49179Y-47894D01*
X49179Y-47505D01*
X49207Y-47532D01*
X49251Y-47551D01*
X49298Y-47551D01*
X49748Y-47551D01*
X49792Y-47532D01*
X49826Y-47499D01*
X49844Y-47455D01*
X49844Y-47407D01*
X49844Y-47157D01*
X49826Y-47113D01*
X49792Y-47079D01*
X49748Y-47061D01*
X49701Y-47061D01*
X49679Y-47061D01*
X49679Y-46638D01*
X49748Y-46638D01*
X49792Y-46620D01*
X49826Y-46586D01*
X49844Y-46542D01*
X49844Y-46494D01*
X49844Y-46429D01*
X50070Y-46429D01*
X50072Y-46435D01*
X50106Y-46469D01*
X50127Y-46478D01*
X50083Y-46496D01*
X50038Y-46541D01*
X50014Y-46600D01*
X50014Y-46689D01*
X50054Y-46729D01*
X50429Y-46729D01*
X50429Y-46722D01*
X50470Y-46722D01*
X50470Y-46729D01*
X50477Y-46729D01*
X50477Y-46770D01*
X50470Y-46770D01*
X50470Y-46988D01*
X50510Y-47028D01*
X50669Y-47028D01*
X50669Y-47028D01*
G37*
G54D30*
X50669Y-47028D02*
X50633Y-47081D01*
X50620Y-47150D01*
X50620Y-47475D01*
X50429Y-47665D01*
X50429Y-46988D01*
X50429Y-46770D01*
X50054Y-46770D01*
X50014Y-46810D01*
X50014Y-46899D01*
X50038Y-46958D01*
X50083Y-47003D01*
X50142Y-47028D01*
X50206Y-47028D01*
X50389Y-47028D01*
X50429Y-46988D01*
X50429Y-47665D01*
X50181Y-47913D01*
X49832Y-47913D01*
X49826Y-47900D01*
X49792Y-47867D01*
X49748Y-47848D01*
X49701Y-47848D01*
X49251Y-47848D01*
X49207Y-47867D01*
X49179Y-47894D01*
X49179Y-47505D01*
X49207Y-47532D01*
X49251Y-47551D01*
X49298Y-47551D01*
X49748Y-47551D01*
X49792Y-47532D01*
X49826Y-47499D01*
X49844Y-47455D01*
X49844Y-47407D01*
X49844Y-47157D01*
X49826Y-47113D01*
X49792Y-47079D01*
X49748Y-47061D01*
X49701Y-47061D01*
X49679Y-47061D01*
X49679Y-46638D01*
X49748Y-46638D01*
X49792Y-46620D01*
X49826Y-46586D01*
X49844Y-46542D01*
X49844Y-46494D01*
X49844Y-46429D01*
X50070Y-46429D01*
X50072Y-46435D01*
X50106Y-46469D01*
X50127Y-46478D01*
X50083Y-46496D01*
X50038Y-46541D01*
X50014Y-46600D01*
X50014Y-46689D01*
X50054Y-46729D01*
X50429Y-46729D01*
X50429Y-46722D01*
X50470Y-46722D01*
X50470Y-46729D01*
X50477Y-46729D01*
X50477Y-46770D01*
X50470Y-46770D01*
X50470Y-46988D01*
X50510Y-47028D01*
X50669Y-47028D01*
G54D10*
G36*
X55623Y-43997D02*
X55615Y-44005D01*
X55597Y-44049D01*
X55597Y-44089D01*
X55442Y-44243D01*
X55442Y-44105D01*
X55442Y-44041D01*
X55418Y-43982D01*
X55373Y-43937D01*
X55320Y-43884D01*
X55263Y-43884D01*
X55117Y-44030D01*
X55306Y-44219D01*
X55363Y-44219D01*
X55418Y-44164D01*
X55442Y-44105D01*
X55442Y-44243D01*
X54522Y-45163D01*
X54483Y-45222D01*
X54470Y-45291D01*
X54470Y-46670D01*
X54427Y-46670D01*
X54358Y-46683D01*
X54300Y-46722D01*
X54272Y-46749D01*
X54270Y-46744D01*
X54237Y-46711D01*
X54086Y-46560D01*
X54080Y-46558D01*
X54116Y-46505D01*
X54116Y-46505D01*
X54129Y-46436D01*
X54129Y-46250D01*
X54116Y-46181D01*
X54116Y-46181D01*
X54077Y-46122D01*
X53877Y-45922D01*
X53818Y-45883D01*
X53750Y-45870D01*
X53655Y-45870D01*
X53675Y-45850D01*
X53825Y-45700D01*
X53836Y-45673D01*
X53864Y-45661D01*
X53897Y-45628D01*
X54048Y-45477D01*
X54059Y-45450D01*
X54086Y-45439D01*
X54120Y-45405D01*
X54270Y-45255D01*
X54282Y-45227D01*
X54309Y-45216D01*
X54343Y-45182D01*
X54493Y-45032D01*
X54504Y-45004D01*
X54532Y-44993D01*
X54566Y-44959D01*
X54716Y-44809D01*
X54727Y-44782D01*
X54755Y-44770D01*
X54788Y-44737D01*
X54939Y-44586D01*
X54950Y-44559D01*
X54977Y-44548D01*
X55011Y-44514D01*
X55142Y-44383D01*
X55164Y-44383D01*
X55223Y-44359D01*
X55278Y-44304D01*
X55278Y-44247D01*
X55089Y-44058D01*
X55083Y-44064D01*
X55055Y-44035D01*
X55060Y-44030D01*
X55055Y-44024D01*
X55083Y-43996D01*
X55089Y-44002D01*
X55235Y-43856D01*
X55235Y-43829D01*
X55455Y-43829D01*
X55623Y-43997D01*
X55623Y-43997D01*
G37*
G54D30*
X55623Y-43997D02*
X55615Y-44005D01*
X55597Y-44049D01*
X55597Y-44089D01*
X55442Y-44243D01*
X55442Y-44105D01*
X55442Y-44041D01*
X55418Y-43982D01*
X55373Y-43937D01*
X55320Y-43884D01*
X55263Y-43884D01*
X55117Y-44030D01*
X55306Y-44219D01*
X55363Y-44219D01*
X55418Y-44164D01*
X55442Y-44105D01*
X55442Y-44243D01*
X54522Y-45163D01*
X54483Y-45222D01*
X54470Y-45291D01*
X54470Y-46670D01*
X54427Y-46670D01*
X54358Y-46683D01*
X54300Y-46722D01*
X54272Y-46749D01*
X54270Y-46744D01*
X54237Y-46711D01*
X54086Y-46560D01*
X54080Y-46558D01*
X54116Y-46505D01*
X54116Y-46505D01*
X54129Y-46436D01*
X54129Y-46250D01*
X54116Y-46181D01*
X54116Y-46181D01*
X54077Y-46122D01*
X53877Y-45922D01*
X53818Y-45883D01*
X53750Y-45870D01*
X53655Y-45870D01*
X53675Y-45850D01*
X53825Y-45700D01*
X53836Y-45673D01*
X53864Y-45661D01*
X53897Y-45628D01*
X54048Y-45477D01*
X54059Y-45450D01*
X54086Y-45439D01*
X54120Y-45405D01*
X54270Y-45255D01*
X54282Y-45227D01*
X54309Y-45216D01*
X54343Y-45182D01*
X54493Y-45032D01*
X54504Y-45004D01*
X54532Y-44993D01*
X54566Y-44959D01*
X54716Y-44809D01*
X54727Y-44782D01*
X54755Y-44770D01*
X54788Y-44737D01*
X54939Y-44586D01*
X54950Y-44559D01*
X54977Y-44548D01*
X55011Y-44514D01*
X55142Y-44383D01*
X55164Y-44383D01*
X55223Y-44359D01*
X55278Y-44304D01*
X55278Y-44247D01*
X55089Y-44058D01*
X55083Y-44064D01*
X55055Y-44035D01*
X55060Y-44030D01*
X55055Y-44024D01*
X55083Y-43996D01*
X55089Y-44002D01*
X55235Y-43856D01*
X55235Y-43829D01*
X55455Y-43829D01*
X55623Y-43997D01*
G54D10*
G36*
X55711Y-49270D02*
X55524Y-49270D01*
X55376Y-49122D01*
X55394Y-49078D01*
X55394Y-48921D01*
X55334Y-48776D01*
X55223Y-48665D01*
X55078Y-48605D01*
X54921Y-48605D01*
X54877Y-48623D01*
X54527Y-48272D01*
X54468Y-48233D01*
X54400Y-48220D01*
X51391Y-48220D01*
X51391Y-47756D01*
X51391Y-47693D01*
X51391Y-47560D01*
X51391Y-47439D01*
X51391Y-47306D01*
X51391Y-47243D01*
X51366Y-47184D01*
X51321Y-47139D01*
X51263Y-47114D01*
X51166Y-47114D01*
X51126Y-47154D01*
X51126Y-47479D01*
X51351Y-47479D01*
X51391Y-47439D01*
X51391Y-47560D01*
X51351Y-47520D01*
X51126Y-47520D01*
X51126Y-47845D01*
X51166Y-47885D01*
X51263Y-47885D01*
X51321Y-47860D01*
X51366Y-47815D01*
X51391Y-47756D01*
X51391Y-48220D01*
X51224Y-48220D01*
X51069Y-48065D01*
X51069Y-47996D01*
X51028Y-47897D01*
X51016Y-47885D01*
X51046Y-47885D01*
X51086Y-47845D01*
X51086Y-47520D01*
X51078Y-47520D01*
X51078Y-47479D01*
X51086Y-47479D01*
X51086Y-47154D01*
X51067Y-47136D01*
X51077Y-47127D01*
X51116Y-47068D01*
X51116Y-47068D01*
X51129Y-47000D01*
X51129Y-45600D01*
X51116Y-45531D01*
X51077Y-45472D01*
X50845Y-45240D01*
X50845Y-45108D01*
X50827Y-45064D01*
X50793Y-45030D01*
X50749Y-45012D01*
X50728Y-45012D01*
X50728Y-44826D01*
X50728Y-44746D01*
X50688Y-44706D01*
X50470Y-44706D01*
X50470Y-44914D01*
X50510Y-44954D01*
X50536Y-44954D01*
X50599Y-44954D01*
X50658Y-44930D01*
X50703Y-44885D01*
X50728Y-44826D01*
X50728Y-45012D01*
X50701Y-45012D01*
X50316Y-45012D01*
X50279Y-44975D01*
X50279Y-44946D01*
X50300Y-44954D01*
X50363Y-44954D01*
X50389Y-44954D01*
X50429Y-44914D01*
X50429Y-44706D01*
X50422Y-44706D01*
X50422Y-44666D01*
X50429Y-44666D01*
X50429Y-44658D01*
X50470Y-44658D01*
X50470Y-44666D01*
X50688Y-44666D01*
X50728Y-44626D01*
X50728Y-44546D01*
X50703Y-44487D01*
X50658Y-44442D01*
X50624Y-44428D01*
X50636Y-44423D01*
X50666Y-44393D01*
X50689Y-44393D01*
X50872Y-44577D01*
X50931Y-44616D01*
X50931Y-44616D01*
X51000Y-44629D01*
X51112Y-44629D01*
X51112Y-44748D01*
X51131Y-44792D01*
X51164Y-44826D01*
X51209Y-44844D01*
X51256Y-44844D01*
X51606Y-44844D01*
X51650Y-44826D01*
X51684Y-44792D01*
X51702Y-44748D01*
X51702Y-44701D01*
X51702Y-44351D01*
X51874Y-44179D01*
X52057Y-44179D01*
X52057Y-44206D01*
X52057Y-44389D01*
X52097Y-44429D01*
X52372Y-44429D01*
X52372Y-44422D01*
X52412Y-44422D01*
X52412Y-44429D01*
X52687Y-44429D01*
X52727Y-44389D01*
X52727Y-44208D01*
X52746Y-44228D01*
X52846Y-44269D01*
X52953Y-44269D01*
X53052Y-44228D01*
X53101Y-44179D01*
X53500Y-44179D01*
X53601Y-44179D01*
X53603Y-44186D01*
X53637Y-44219D01*
X53681Y-44237D01*
X53729Y-44237D01*
X53945Y-44237D01*
X53989Y-44219D01*
X54023Y-44186D01*
X54028Y-44174D01*
X54042Y-44208D01*
X54087Y-44253D01*
X54146Y-44278D01*
X54226Y-44278D01*
X54266Y-44238D01*
X54266Y-44020D01*
X54258Y-44020D01*
X54258Y-43979D01*
X54266Y-43979D01*
X54266Y-43972D01*
X54306Y-43972D01*
X54306Y-43979D01*
X54514Y-43979D01*
X54554Y-43939D01*
X54554Y-43913D01*
X54554Y-43850D01*
X54546Y-43829D01*
X54860Y-43829D01*
X54871Y-43841D01*
X54815Y-43841D01*
X54760Y-43896D01*
X54735Y-43955D01*
X54735Y-43977D01*
X54721Y-43991D01*
X54571Y-44142D01*
X54560Y-44169D01*
X54543Y-44176D01*
X54554Y-44149D01*
X54554Y-44086D01*
X54554Y-44060D01*
X54514Y-44020D01*
X54306Y-44020D01*
X54306Y-44238D01*
X54346Y-44278D01*
X54426Y-44278D01*
X54441Y-44271D01*
X54348Y-44364D01*
X54337Y-44392D01*
X54310Y-44403D01*
X54276Y-44437D01*
X54126Y-44587D01*
X54114Y-44614D01*
X54087Y-44626D01*
X54053Y-44659D01*
X53903Y-44810D01*
X53892Y-44837D01*
X53864Y-44848D01*
X53831Y-44882D01*
X53680Y-45032D01*
X53669Y-45060D01*
X53642Y-45071D01*
X53608Y-45105D01*
X53458Y-45255D01*
X53455Y-45260D01*
X53318Y-45122D01*
X53259Y-45083D01*
X53191Y-45070D01*
X52929Y-45070D01*
X52927Y-45064D01*
X52893Y-45030D01*
X52849Y-45012D01*
X52801Y-45012D01*
X52727Y-45012D01*
X52727Y-44756D01*
X52727Y-44693D01*
X52727Y-44510D01*
X52687Y-44470D01*
X52412Y-44470D01*
X52412Y-44845D01*
X52452Y-44885D01*
X52598Y-44885D01*
X52657Y-44860D01*
X52702Y-44815D01*
X52727Y-44756D01*
X52727Y-45012D01*
X52372Y-45012D01*
X52372Y-44845D01*
X52372Y-44470D01*
X52097Y-44470D01*
X52057Y-44510D01*
X52057Y-44693D01*
X52057Y-44756D01*
X52081Y-44815D01*
X52126Y-44860D01*
X52185Y-44885D01*
X52332Y-44885D01*
X52372Y-44845D01*
X52372Y-45012D01*
X52250Y-45012D01*
X52206Y-45030D01*
X52172Y-45064D01*
X52154Y-45108D01*
X52154Y-45155D01*
X52154Y-45391D01*
X52172Y-45435D01*
X52206Y-45469D01*
X52250Y-45487D01*
X52298Y-45487D01*
X52849Y-45487D01*
X52893Y-45469D01*
X52927Y-45435D01*
X52929Y-45429D01*
X53116Y-45429D01*
X53217Y-45530D01*
X53217Y-45570D01*
X53235Y-45614D01*
X53269Y-45647D01*
X53491Y-45870D01*
X53350Y-45870D01*
X53281Y-45883D01*
X53222Y-45922D01*
X53075Y-46070D01*
X52929Y-46070D01*
X52927Y-46064D01*
X52893Y-46030D01*
X52849Y-46012D01*
X52801Y-46012D01*
X52729Y-46012D01*
X52729Y-45987D01*
X52849Y-45987D01*
X52893Y-45969D01*
X52927Y-45935D01*
X52945Y-45891D01*
X52945Y-45844D01*
X52945Y-45608D01*
X52927Y-45564D01*
X52893Y-45530D01*
X52849Y-45512D01*
X52801Y-45512D01*
X52250Y-45512D01*
X52206Y-45530D01*
X52172Y-45564D01*
X52154Y-45608D01*
X52154Y-45655D01*
X52154Y-45891D01*
X52172Y-45935D01*
X52206Y-45969D01*
X52250Y-45987D01*
X52298Y-45987D01*
X52370Y-45987D01*
X52370Y-46012D01*
X52250Y-46012D01*
X52206Y-46030D01*
X52172Y-46064D01*
X52154Y-46108D01*
X52154Y-46155D01*
X52154Y-46391D01*
X52172Y-46435D01*
X52206Y-46469D01*
X52250Y-46487D01*
X52298Y-46487D01*
X52707Y-46487D01*
X52683Y-46512D01*
X52250Y-46512D01*
X52206Y-46530D01*
X52172Y-46564D01*
X52154Y-46608D01*
X52154Y-46655D01*
X52154Y-46891D01*
X52172Y-46935D01*
X52206Y-46969D01*
X52250Y-46987D01*
X52298Y-46987D01*
X52849Y-46987D01*
X52893Y-46969D01*
X52927Y-46935D01*
X52945Y-46891D01*
X52945Y-46844D01*
X52945Y-46759D01*
X53024Y-46679D01*
X53393Y-46679D01*
X53419Y-46705D01*
X53446Y-46717D01*
X53458Y-46744D01*
X53491Y-46778D01*
X53642Y-46928D01*
X53669Y-46939D01*
X53680Y-46967D01*
X53714Y-47000D01*
X53864Y-47151D01*
X53892Y-47162D01*
X53903Y-47189D01*
X53937Y-47223D01*
X54087Y-47373D01*
X54114Y-47385D01*
X54126Y-47412D01*
X54159Y-47446D01*
X54310Y-47596D01*
X54315Y-47598D01*
X54107Y-47806D01*
X52837Y-47806D01*
X52837Y-47645D01*
X52837Y-47598D01*
X52837Y-47381D01*
X52819Y-47337D01*
X52786Y-47303D01*
X52741Y-47285D01*
X52694Y-47285D01*
X52458Y-47285D01*
X52413Y-47303D01*
X52397Y-47320D01*
X52138Y-47320D01*
X52138Y-47251D01*
X52120Y-47207D01*
X52086Y-47173D01*
X52042Y-47155D01*
X51994Y-47155D01*
X51744Y-47155D01*
X51700Y-47173D01*
X51667Y-47207D01*
X51648Y-47251D01*
X51648Y-47298D01*
X51648Y-47401D01*
X51628Y-47431D01*
X51615Y-47500D01*
X51628Y-47568D01*
X51648Y-47598D01*
X51648Y-47748D01*
X51667Y-47792D01*
X51700Y-47826D01*
X51744Y-47844D01*
X51792Y-47844D01*
X52042Y-47844D01*
X52086Y-47826D01*
X52120Y-47792D01*
X52138Y-47748D01*
X52138Y-47701D01*
X52138Y-47679D01*
X52376Y-47679D01*
X52380Y-47689D01*
X52413Y-47723D01*
X52458Y-47741D01*
X52505Y-47741D01*
X52741Y-47741D01*
X52786Y-47723D01*
X52819Y-47689D01*
X52837Y-47645D01*
X52837Y-47806D01*
X52816Y-47806D01*
X52786Y-47776D01*
X52741Y-47758D01*
X52694Y-47758D01*
X52458Y-47758D01*
X52413Y-47776D01*
X52380Y-47810D01*
X52362Y-47854D01*
X52362Y-47901D01*
X52362Y-48118D01*
X52380Y-48162D01*
X52413Y-48196D01*
X52458Y-48214D01*
X52505Y-48214D01*
X52741Y-48214D01*
X52786Y-48196D01*
X52816Y-48166D01*
X54181Y-48166D01*
X54250Y-48152D01*
X54309Y-48113D01*
X54569Y-47853D01*
X54571Y-47857D01*
X54605Y-47891D01*
X54755Y-48041D01*
X54782Y-48053D01*
X54794Y-48080D01*
X54827Y-48114D01*
X54978Y-48264D01*
X55022Y-48282D01*
X55028Y-48282D01*
X55623Y-48877D01*
X55605Y-48921D01*
X55605Y-49078D01*
X55665Y-49223D01*
X55711Y-49270D01*
X55711Y-49270D01*
G37*
G54D30*
X55711Y-49270D02*
X55524Y-49270D01*
X55376Y-49122D01*
X55394Y-49078D01*
X55394Y-48921D01*
X55334Y-48776D01*
X55223Y-48665D01*
X55078Y-48605D01*
X54921Y-48605D01*
X54877Y-48623D01*
X54527Y-48272D01*
X54468Y-48233D01*
X54400Y-48220D01*
X51391Y-48220D01*
X51391Y-47756D01*
X51391Y-47693D01*
X51391Y-47560D01*
X51391Y-47439D01*
X51391Y-47306D01*
X51391Y-47243D01*
X51366Y-47184D01*
X51321Y-47139D01*
X51263Y-47114D01*
X51166Y-47114D01*
X51126Y-47154D01*
X51126Y-47479D01*
X51351Y-47479D01*
X51391Y-47439D01*
X51391Y-47560D01*
X51351Y-47520D01*
X51126Y-47520D01*
X51126Y-47845D01*
X51166Y-47885D01*
X51263Y-47885D01*
X51321Y-47860D01*
X51366Y-47815D01*
X51391Y-47756D01*
X51391Y-48220D01*
X51224Y-48220D01*
X51069Y-48065D01*
X51069Y-47996D01*
X51028Y-47897D01*
X51016Y-47885D01*
X51046Y-47885D01*
X51086Y-47845D01*
X51086Y-47520D01*
X51078Y-47520D01*
X51078Y-47479D01*
X51086Y-47479D01*
X51086Y-47154D01*
X51067Y-47136D01*
X51077Y-47127D01*
X51116Y-47068D01*
X51116Y-47068D01*
X51129Y-47000D01*
X51129Y-45600D01*
X51116Y-45531D01*
X51077Y-45472D01*
X50845Y-45240D01*
X50845Y-45108D01*
X50827Y-45064D01*
X50793Y-45030D01*
X50749Y-45012D01*
X50728Y-45012D01*
X50728Y-44826D01*
X50728Y-44746D01*
X50688Y-44706D01*
X50470Y-44706D01*
X50470Y-44914D01*
X50510Y-44954D01*
X50536Y-44954D01*
X50599Y-44954D01*
X50658Y-44930D01*
X50703Y-44885D01*
X50728Y-44826D01*
X50728Y-45012D01*
X50701Y-45012D01*
X50316Y-45012D01*
X50279Y-44975D01*
X50279Y-44946D01*
X50300Y-44954D01*
X50363Y-44954D01*
X50389Y-44954D01*
X50429Y-44914D01*
X50429Y-44706D01*
X50422Y-44706D01*
X50422Y-44666D01*
X50429Y-44666D01*
X50429Y-44658D01*
X50470Y-44658D01*
X50470Y-44666D01*
X50688Y-44666D01*
X50728Y-44626D01*
X50728Y-44546D01*
X50703Y-44487D01*
X50658Y-44442D01*
X50624Y-44428D01*
X50636Y-44423D01*
X50666Y-44393D01*
X50689Y-44393D01*
X50872Y-44577D01*
X50931Y-44616D01*
X50931Y-44616D01*
X51000Y-44629D01*
X51112Y-44629D01*
X51112Y-44748D01*
X51131Y-44792D01*
X51164Y-44826D01*
X51209Y-44844D01*
X51256Y-44844D01*
X51606Y-44844D01*
X51650Y-44826D01*
X51684Y-44792D01*
X51702Y-44748D01*
X51702Y-44701D01*
X51702Y-44351D01*
X51874Y-44179D01*
X52057Y-44179D01*
X52057Y-44206D01*
X52057Y-44389D01*
X52097Y-44429D01*
X52372Y-44429D01*
X52372Y-44422D01*
X52412Y-44422D01*
X52412Y-44429D01*
X52687Y-44429D01*
X52727Y-44389D01*
X52727Y-44208D01*
X52746Y-44228D01*
X52846Y-44269D01*
X52953Y-44269D01*
X53052Y-44228D01*
X53101Y-44179D01*
X53500Y-44179D01*
X53601Y-44179D01*
X53603Y-44186D01*
X53637Y-44219D01*
X53681Y-44237D01*
X53729Y-44237D01*
X53945Y-44237D01*
X53989Y-44219D01*
X54023Y-44186D01*
X54028Y-44174D01*
X54042Y-44208D01*
X54087Y-44253D01*
X54146Y-44278D01*
X54226Y-44278D01*
X54266Y-44238D01*
X54266Y-44020D01*
X54258Y-44020D01*
X54258Y-43979D01*
X54266Y-43979D01*
X54266Y-43972D01*
X54306Y-43972D01*
X54306Y-43979D01*
X54514Y-43979D01*
X54554Y-43939D01*
X54554Y-43913D01*
X54554Y-43850D01*
X54546Y-43829D01*
X54860Y-43829D01*
X54871Y-43841D01*
X54815Y-43841D01*
X54760Y-43896D01*
X54735Y-43955D01*
X54735Y-43977D01*
X54721Y-43991D01*
X54571Y-44142D01*
X54560Y-44169D01*
X54543Y-44176D01*
X54554Y-44149D01*
X54554Y-44086D01*
X54554Y-44060D01*
X54514Y-44020D01*
X54306Y-44020D01*
X54306Y-44238D01*
X54346Y-44278D01*
X54426Y-44278D01*
X54441Y-44271D01*
X54348Y-44364D01*
X54337Y-44392D01*
X54310Y-44403D01*
X54276Y-44437D01*
X54126Y-44587D01*
X54114Y-44614D01*
X54087Y-44626D01*
X54053Y-44659D01*
X53903Y-44810D01*
X53892Y-44837D01*
X53864Y-44848D01*
X53831Y-44882D01*
X53680Y-45032D01*
X53669Y-45060D01*
X53642Y-45071D01*
X53608Y-45105D01*
X53458Y-45255D01*
X53455Y-45260D01*
X53318Y-45122D01*
X53259Y-45083D01*
X53191Y-45070D01*
X52929Y-45070D01*
X52927Y-45064D01*
X52893Y-45030D01*
X52849Y-45012D01*
X52801Y-45012D01*
X52727Y-45012D01*
X52727Y-44756D01*
X52727Y-44693D01*
X52727Y-44510D01*
X52687Y-44470D01*
X52412Y-44470D01*
X52412Y-44845D01*
X52452Y-44885D01*
X52598Y-44885D01*
X52657Y-44860D01*
X52702Y-44815D01*
X52727Y-44756D01*
X52727Y-45012D01*
X52372Y-45012D01*
X52372Y-44845D01*
X52372Y-44470D01*
X52097Y-44470D01*
X52057Y-44510D01*
X52057Y-44693D01*
X52057Y-44756D01*
X52081Y-44815D01*
X52126Y-44860D01*
X52185Y-44885D01*
X52332Y-44885D01*
X52372Y-44845D01*
X52372Y-45012D01*
X52250Y-45012D01*
X52206Y-45030D01*
X52172Y-45064D01*
X52154Y-45108D01*
X52154Y-45155D01*
X52154Y-45391D01*
X52172Y-45435D01*
X52206Y-45469D01*
X52250Y-45487D01*
X52298Y-45487D01*
X52849Y-45487D01*
X52893Y-45469D01*
X52927Y-45435D01*
X52929Y-45429D01*
X53116Y-45429D01*
X53217Y-45530D01*
X53217Y-45570D01*
X53235Y-45614D01*
X53269Y-45647D01*
X53491Y-45870D01*
X53350Y-45870D01*
X53281Y-45883D01*
X53222Y-45922D01*
X53075Y-46070D01*
X52929Y-46070D01*
X52927Y-46064D01*
X52893Y-46030D01*
X52849Y-46012D01*
X52801Y-46012D01*
X52729Y-46012D01*
X52729Y-45987D01*
X52849Y-45987D01*
X52893Y-45969D01*
X52927Y-45935D01*
X52945Y-45891D01*
X52945Y-45844D01*
X52945Y-45608D01*
X52927Y-45564D01*
X52893Y-45530D01*
X52849Y-45512D01*
X52801Y-45512D01*
X52250Y-45512D01*
X52206Y-45530D01*
X52172Y-45564D01*
X52154Y-45608D01*
X52154Y-45655D01*
X52154Y-45891D01*
X52172Y-45935D01*
X52206Y-45969D01*
X52250Y-45987D01*
X52298Y-45987D01*
X52370Y-45987D01*
X52370Y-46012D01*
X52250Y-46012D01*
X52206Y-46030D01*
X52172Y-46064D01*
X52154Y-46108D01*
X52154Y-46155D01*
X52154Y-46391D01*
X52172Y-46435D01*
X52206Y-46469D01*
X52250Y-46487D01*
X52298Y-46487D01*
X52707Y-46487D01*
X52683Y-46512D01*
X52250Y-46512D01*
X52206Y-46530D01*
X52172Y-46564D01*
X52154Y-46608D01*
X52154Y-46655D01*
X52154Y-46891D01*
X52172Y-46935D01*
X52206Y-46969D01*
X52250Y-46987D01*
X52298Y-46987D01*
X52849Y-46987D01*
X52893Y-46969D01*
X52927Y-46935D01*
X52945Y-46891D01*
X52945Y-46844D01*
X52945Y-46759D01*
X53024Y-46679D01*
X53393Y-46679D01*
X53419Y-46705D01*
X53446Y-46717D01*
X53458Y-46744D01*
X53491Y-46778D01*
X53642Y-46928D01*
X53669Y-46939D01*
X53680Y-46967D01*
X53714Y-47000D01*
X53864Y-47151D01*
X53892Y-47162D01*
X53903Y-47189D01*
X53937Y-47223D01*
X54087Y-47373D01*
X54114Y-47385D01*
X54126Y-47412D01*
X54159Y-47446D01*
X54310Y-47596D01*
X54315Y-47598D01*
X54107Y-47806D01*
X52837Y-47806D01*
X52837Y-47645D01*
X52837Y-47598D01*
X52837Y-47381D01*
X52819Y-47337D01*
X52786Y-47303D01*
X52741Y-47285D01*
X52694Y-47285D01*
X52458Y-47285D01*
X52413Y-47303D01*
X52397Y-47320D01*
X52138Y-47320D01*
X52138Y-47251D01*
X52120Y-47207D01*
X52086Y-47173D01*
X52042Y-47155D01*
X51994Y-47155D01*
X51744Y-47155D01*
X51700Y-47173D01*
X51667Y-47207D01*
X51648Y-47251D01*
X51648Y-47298D01*
X51648Y-47401D01*
X51628Y-47431D01*
X51615Y-47500D01*
X51628Y-47568D01*
X51648Y-47598D01*
X51648Y-47748D01*
X51667Y-47792D01*
X51700Y-47826D01*
X51744Y-47844D01*
X51792Y-47844D01*
X52042Y-47844D01*
X52086Y-47826D01*
X52120Y-47792D01*
X52138Y-47748D01*
X52138Y-47701D01*
X52138Y-47679D01*
X52376Y-47679D01*
X52380Y-47689D01*
X52413Y-47723D01*
X52458Y-47741D01*
X52505Y-47741D01*
X52741Y-47741D01*
X52786Y-47723D01*
X52819Y-47689D01*
X52837Y-47645D01*
X52837Y-47806D01*
X52816Y-47806D01*
X52786Y-47776D01*
X52741Y-47758D01*
X52694Y-47758D01*
X52458Y-47758D01*
X52413Y-47776D01*
X52380Y-47810D01*
X52362Y-47854D01*
X52362Y-47901D01*
X52362Y-48118D01*
X52380Y-48162D01*
X52413Y-48196D01*
X52458Y-48214D01*
X52505Y-48214D01*
X52741Y-48214D01*
X52786Y-48196D01*
X52816Y-48166D01*
X54181Y-48166D01*
X54250Y-48152D01*
X54309Y-48113D01*
X54569Y-47853D01*
X54571Y-47857D01*
X54605Y-47891D01*
X54755Y-48041D01*
X54782Y-48053D01*
X54794Y-48080D01*
X54827Y-48114D01*
X54978Y-48264D01*
X55022Y-48282D01*
X55028Y-48282D01*
X55623Y-48877D01*
X55605Y-48921D01*
X55605Y-49078D01*
X55665Y-49223D01*
X55711Y-49270D01*
G54D10*
G36*
X62860Y-48986D02*
X62792Y-49328D01*
X62606Y-49606D01*
X62593Y-49614D01*
X62593Y-47385D01*
X62553Y-47285D01*
X62553Y-46390D01*
X62469Y-46187D01*
X62313Y-46031D01*
X62237Y-46000D01*
X62312Y-45969D01*
X62468Y-45813D01*
X62552Y-45610D01*
X62553Y-45390D01*
X62469Y-45187D01*
X62335Y-45052D01*
X62456Y-45052D01*
X62500Y-45034D01*
X62534Y-45000D01*
X62552Y-44956D01*
X62552Y-44909D01*
X62552Y-44043D01*
X62534Y-43999D01*
X62500Y-43965D01*
X62456Y-43947D01*
X62409Y-43947D01*
X61543Y-43947D01*
X61499Y-43965D01*
X61465Y-43999D01*
X61447Y-44043D01*
X61447Y-44090D01*
X61447Y-44798D01*
X61188Y-45056D01*
X61186Y-45053D01*
X61141Y-45035D01*
X61094Y-45035D01*
X60990Y-45035D01*
X60969Y-45015D01*
X60969Y-44946D01*
X60928Y-44847D01*
X60853Y-44771D01*
X60753Y-44730D01*
X60646Y-44730D01*
X60621Y-44740D01*
X60621Y-44653D01*
X60621Y-44590D01*
X60621Y-44268D01*
X60621Y-44148D01*
X60621Y-43827D01*
X60621Y-43763D01*
X60597Y-43704D01*
X60552Y-43659D01*
X60493Y-43635D01*
X60245Y-43635D01*
X60205Y-43675D01*
X60205Y-44188D01*
X60581Y-44188D01*
X60621Y-44148D01*
X60621Y-44268D01*
X60581Y-44228D01*
X60205Y-44228D01*
X60205Y-44742D01*
X60245Y-44782D01*
X60493Y-44782D01*
X60552Y-44757D01*
X60597Y-44712D01*
X60621Y-44653D01*
X60621Y-44740D01*
X60547Y-44771D01*
X60471Y-44846D01*
X60430Y-44946D01*
X60430Y-45053D01*
X60471Y-45152D01*
X60546Y-45228D01*
X60646Y-45269D01*
X60715Y-45269D01*
X60762Y-45316D01*
X60762Y-45395D01*
X60780Y-45439D01*
X60813Y-45473D01*
X60858Y-45491D01*
X60905Y-45491D01*
X61141Y-45491D01*
X61186Y-45473D01*
X61216Y-45443D01*
X61236Y-45443D01*
X61255Y-45439D01*
X61174Y-45521D01*
X61141Y-45508D01*
X61094Y-45508D01*
X60858Y-45508D01*
X60813Y-45526D01*
X60783Y-45556D01*
X60413Y-45556D01*
X60344Y-45570D01*
X60286Y-45609D01*
X60165Y-45729D01*
X60165Y-44742D01*
X60165Y-44228D01*
X60165Y-44188D01*
X60165Y-43675D01*
X60125Y-43635D01*
X59878Y-43635D01*
X59819Y-43659D01*
X59774Y-43704D01*
X59750Y-43763D01*
X59750Y-43827D01*
X59750Y-44148D01*
X59790Y-44188D01*
X60165Y-44188D01*
X60165Y-44228D01*
X59790Y-44228D01*
X59750Y-44268D01*
X59750Y-44590D01*
X59750Y-44653D01*
X59774Y-44712D01*
X59819Y-44757D01*
X59878Y-44782D01*
X60125Y-44782D01*
X60165Y-44742D01*
X60165Y-45729D01*
X60125Y-45770D01*
X58809Y-45770D01*
X58809Y-44645D01*
X58809Y-44598D01*
X58809Y-43771D01*
X58791Y-43727D01*
X58757Y-43693D01*
X58713Y-43675D01*
X58665Y-43675D01*
X58114Y-43675D01*
X58070Y-43693D01*
X58036Y-43727D01*
X58018Y-43771D01*
X58018Y-43819D01*
X58018Y-44645D01*
X58036Y-44689D01*
X58070Y-44723D01*
X58114Y-44741D01*
X58162Y-44741D01*
X58713Y-44741D01*
X58757Y-44723D01*
X58791Y-44689D01*
X58809Y-44645D01*
X58809Y-45770D01*
X57608Y-45770D01*
X57764Y-45614D01*
X57782Y-45570D01*
X57782Y-45530D01*
X57827Y-45486D01*
X57866Y-45427D01*
X57879Y-45358D01*
X57879Y-44700D01*
X57866Y-44631D01*
X57866Y-44631D01*
X57827Y-44572D01*
X56376Y-43122D01*
X56394Y-43078D01*
X56394Y-42921D01*
X56334Y-42776D01*
X56223Y-42665D01*
X56078Y-42605D01*
X55921Y-42605D01*
X55776Y-42665D01*
X55665Y-42776D01*
X55605Y-42921D01*
X55605Y-43078D01*
X55665Y-43223D01*
X55711Y-43270D01*
X55301Y-43270D01*
X55370Y-43244D01*
X55435Y-43083D01*
X55434Y-42910D01*
X55370Y-42755D01*
X55299Y-42729D01*
X55028Y-43000D01*
X55033Y-43005D01*
X55005Y-43033D01*
X55000Y-43028D01*
X54994Y-43033D01*
X54966Y-43005D01*
X54971Y-43000D01*
X54700Y-42729D01*
X54629Y-42755D01*
X54564Y-42916D01*
X54565Y-43089D01*
X54629Y-43244D01*
X54698Y-43270D01*
X54524Y-43270D01*
X54376Y-43122D01*
X54394Y-43078D01*
X54394Y-42921D01*
X54334Y-42776D01*
X54223Y-42665D01*
X54078Y-42605D01*
X53999Y-42605D01*
X54024Y-42579D01*
X54876Y-42579D01*
X54755Y-42629D01*
X54729Y-42700D01*
X55000Y-42971D01*
X55270Y-42700D01*
X55244Y-42629D01*
X55121Y-42579D01*
X56325Y-42579D01*
X56605Y-42859D01*
X56605Y-43298D01*
X56623Y-43342D01*
X56657Y-43376D01*
X56701Y-43394D01*
X56748Y-43394D01*
X57298Y-43394D01*
X57342Y-43376D01*
X57376Y-43342D01*
X57394Y-43298D01*
X57394Y-43251D01*
X57394Y-42701D01*
X57376Y-42657D01*
X57342Y-42623D01*
X57298Y-42605D01*
X57251Y-42605D01*
X56859Y-42605D01*
X56527Y-42272D01*
X56468Y-42233D01*
X56400Y-42220D01*
X53950Y-42220D01*
X53881Y-42233D01*
X53822Y-42272D01*
X53372Y-42722D01*
X53333Y-42781D01*
X53320Y-42850D01*
X53320Y-43820D01*
X53101Y-43820D01*
X53053Y-43771D01*
X52953Y-43730D01*
X52846Y-43730D01*
X52747Y-43771D01*
X52698Y-43820D01*
X51800Y-43820D01*
X51731Y-43833D01*
X51672Y-43872D01*
X51490Y-44055D01*
X51209Y-44055D01*
X51164Y-44073D01*
X51131Y-44107D01*
X51112Y-44151D01*
X51112Y-44198D01*
X51112Y-44270D01*
X51074Y-44270D01*
X50890Y-44086D01*
X50832Y-44047D01*
X50763Y-44033D01*
X50666Y-44033D01*
X50636Y-44003D01*
X50591Y-43985D01*
X50544Y-43985D01*
X50308Y-43985D01*
X50263Y-44003D01*
X50230Y-44037D01*
X50212Y-44081D01*
X50212Y-44129D01*
X50212Y-44197D01*
X49972Y-44436D01*
X49933Y-44494D01*
X49920Y-44563D01*
X49920Y-45050D01*
X49933Y-45118D01*
X49972Y-45177D01*
X50054Y-45259D01*
X50054Y-45391D01*
X50072Y-45435D01*
X50106Y-45469D01*
X50150Y-45487D01*
X50198Y-45487D01*
X50583Y-45487D01*
X50607Y-45512D01*
X50150Y-45512D01*
X50106Y-45530D01*
X50072Y-45564D01*
X50070Y-45570D01*
X49885Y-45570D01*
X49885Y-44063D01*
X49885Y-43966D01*
X49885Y-43846D01*
X49885Y-43749D01*
X49860Y-43690D01*
X49815Y-43645D01*
X49756Y-43621D01*
X49693Y-43621D01*
X49560Y-43621D01*
X49520Y-43661D01*
X49520Y-43886D01*
X49845Y-43886D01*
X49885Y-43846D01*
X49885Y-43966D01*
X49845Y-43926D01*
X49520Y-43926D01*
X49520Y-44151D01*
X49560Y-44191D01*
X49693Y-44191D01*
X49756Y-44191D01*
X49815Y-44166D01*
X49860Y-44121D01*
X49885Y-44063D01*
X49885Y-45570D01*
X49844Y-45570D01*
X49844Y-45457D01*
X49826Y-45413D01*
X49792Y-45379D01*
X49748Y-45361D01*
X49701Y-45361D01*
X49679Y-45361D01*
X49679Y-44938D01*
X49748Y-44938D01*
X49792Y-44920D01*
X49826Y-44886D01*
X49844Y-44842D01*
X49844Y-44794D01*
X49844Y-44544D01*
X49826Y-44500D01*
X49792Y-44467D01*
X49748Y-44448D01*
X49701Y-44448D01*
X49479Y-44448D01*
X49479Y-44151D01*
X49479Y-43926D01*
X49479Y-43886D01*
X49479Y-43661D01*
X49439Y-43621D01*
X49306Y-43621D01*
X49243Y-43621D01*
X49184Y-43645D01*
X49139Y-43690D01*
X49114Y-43749D01*
X49114Y-43846D01*
X49154Y-43886D01*
X49479Y-43886D01*
X49479Y-43926D01*
X49154Y-43926D01*
X49114Y-43966D01*
X49114Y-44063D01*
X49139Y-44121D01*
X49184Y-44166D01*
X49243Y-44191D01*
X49306Y-44191D01*
X49439Y-44191D01*
X49479Y-44151D01*
X49479Y-44448D01*
X49251Y-44448D01*
X49207Y-44467D01*
X49173Y-44500D01*
X49167Y-44513D01*
X49079Y-44513D01*
X49050Y-44484D01*
X49006Y-44466D01*
X48958Y-44466D01*
X48767Y-44466D01*
X48767Y-44145D01*
X48767Y-44082D01*
X48767Y-43977D01*
X48727Y-43937D01*
X48470Y-43937D01*
X48470Y-44234D01*
X48510Y-44274D01*
X48639Y-44274D01*
X48698Y-44249D01*
X48743Y-44204D01*
X48767Y-44145D01*
X48767Y-44466D01*
X48643Y-44466D01*
X48599Y-44484D01*
X48565Y-44518D01*
X48547Y-44562D01*
X48547Y-44609D01*
X48547Y-45003D01*
X48554Y-45020D01*
X48429Y-45020D01*
X48429Y-44234D01*
X48429Y-43937D01*
X48172Y-43937D01*
X48132Y-43977D01*
X48132Y-44082D01*
X48132Y-44145D01*
X48156Y-44204D01*
X48201Y-44249D01*
X48260Y-44274D01*
X48389Y-44274D01*
X48429Y-44234D01*
X48429Y-45020D01*
X48345Y-45020D01*
X48352Y-45003D01*
X48352Y-44956D01*
X48352Y-44562D01*
X48334Y-44518D01*
X48300Y-44484D01*
X48256Y-44466D01*
X48208Y-44466D01*
X48012Y-44466D01*
X47969Y-44423D01*
X47969Y-44346D01*
X47928Y-44247D01*
X47853Y-44171D01*
X47753Y-44130D01*
X47646Y-44130D01*
X47547Y-44171D01*
X47471Y-44246D01*
X47430Y-44346D01*
X47430Y-44453D01*
X47471Y-44552D01*
X47546Y-44628D01*
X47646Y-44669D01*
X47707Y-44669D01*
X47797Y-44760D01*
X47797Y-44826D01*
X47791Y-44814D01*
X47602Y-44735D01*
X47398Y-44735D01*
X47209Y-44813D01*
X47208Y-44814D01*
X47171Y-44893D01*
X47500Y-45221D01*
X47505Y-45216D01*
X47533Y-45244D01*
X47528Y-45250D01*
X47533Y-45255D01*
X47505Y-45283D01*
X47500Y-45278D01*
X47171Y-45606D01*
X47208Y-45685D01*
X47397Y-45764D01*
X47481Y-45764D01*
X47469Y-45775D01*
X47406Y-45775D01*
X47231Y-45847D01*
X47116Y-45962D01*
X47116Y-45565D01*
X47143Y-45578D01*
X47471Y-45250D01*
X47143Y-44921D01*
X47116Y-44934D01*
X47116Y-44531D01*
X48031Y-43616D01*
X48169Y-43616D01*
X48156Y-43629D01*
X48132Y-43688D01*
X48132Y-43751D01*
X48132Y-43856D01*
X48172Y-43896D01*
X48429Y-43896D01*
X48429Y-43889D01*
X48470Y-43889D01*
X48470Y-43896D01*
X48727Y-43896D01*
X48767Y-43856D01*
X48767Y-43751D01*
X48767Y-43688D01*
X48743Y-43629D01*
X48730Y-43616D01*
X49750Y-43616D01*
X49871Y-43592D01*
X49973Y-43523D01*
X50042Y-43421D01*
X50066Y-43300D01*
X50042Y-43178D01*
X49973Y-43076D01*
X49871Y-43007D01*
X49750Y-42983D01*
X47900Y-42983D01*
X47778Y-43007D01*
X47737Y-43034D01*
X47676Y-43076D01*
X46576Y-44176D01*
X46507Y-44278D01*
X46483Y-44400D01*
X46483Y-44703D01*
X46464Y-44695D01*
X46401Y-44695D01*
X46060Y-44695D01*
X46020Y-44735D01*
X46020Y-45189D01*
X46027Y-45189D01*
X46027Y-45230D01*
X46020Y-45230D01*
X46020Y-45684D01*
X46060Y-45724D01*
X46401Y-45724D01*
X46464Y-45724D01*
X46483Y-45716D01*
X46483Y-46326D01*
X46456Y-46315D01*
X46409Y-46315D01*
X45979Y-46315D01*
X45979Y-45684D01*
X45979Y-45230D01*
X45979Y-45189D01*
X45979Y-44735D01*
X45939Y-44695D01*
X45749Y-44695D01*
X45749Y-43851D01*
X45636Y-43575D01*
X45425Y-43364D01*
X45149Y-43250D01*
X44851Y-43250D01*
X44575Y-43363D01*
X44364Y-43574D01*
X44250Y-43850D01*
X44250Y-44148D01*
X44363Y-44424D01*
X44574Y-44635D01*
X44850Y-44749D01*
X45148Y-44749D01*
X45424Y-44636D01*
X45635Y-44425D01*
X45749Y-44149D01*
X45749Y-43851D01*
X45749Y-44695D01*
X45598Y-44695D01*
X45535Y-44695D01*
X45476Y-44719D01*
X45431Y-44764D01*
X45406Y-44823D01*
X45406Y-45149D01*
X45446Y-45189D01*
X45979Y-45189D01*
X45979Y-45230D01*
X45446Y-45230D01*
X45406Y-45270D01*
X45406Y-45596D01*
X45431Y-45655D01*
X45476Y-45700D01*
X45535Y-45724D01*
X45598Y-45724D01*
X45939Y-45724D01*
X45979Y-45684D01*
X45979Y-46315D01*
X45543Y-46315D01*
X45499Y-46333D01*
X45465Y-46367D01*
X45447Y-46411D01*
X45447Y-46459D01*
X45447Y-47168D01*
X45465Y-47212D01*
X45499Y-47246D01*
X45543Y-47264D01*
X45590Y-47264D01*
X46456Y-47264D01*
X46500Y-47246D01*
X46534Y-47212D01*
X46552Y-47168D01*
X46552Y-47120D01*
X46552Y-47106D01*
X46958Y-47106D01*
X46958Y-47106D01*
X46976Y-47123D01*
X46976Y-47123D01*
X47078Y-47192D01*
X47200Y-47216D01*
X48350Y-47216D01*
X48350Y-47216D01*
X48375Y-47211D01*
X48405Y-47224D01*
X48593Y-47224D01*
X48730Y-47168D01*
X48730Y-47203D01*
X48771Y-47302D01*
X48820Y-47351D01*
X48820Y-48250D01*
X48833Y-48318D01*
X48872Y-48377D01*
X49622Y-49127D01*
X49681Y-49166D01*
X49750Y-49179D01*
X53605Y-49179D01*
X53605Y-49298D01*
X53623Y-49342D01*
X53657Y-49376D01*
X53701Y-49394D01*
X53748Y-49394D01*
X54298Y-49394D01*
X54342Y-49376D01*
X54376Y-49342D01*
X54394Y-49298D01*
X54394Y-49251D01*
X54394Y-48701D01*
X54376Y-48657D01*
X54342Y-48623D01*
X54298Y-48605D01*
X54251Y-48605D01*
X53701Y-48605D01*
X53657Y-48623D01*
X53623Y-48657D01*
X53605Y-48701D01*
X53605Y-48748D01*
X53605Y-48820D01*
X49824Y-48820D01*
X49342Y-48338D01*
X49748Y-48338D01*
X49792Y-48320D01*
X49826Y-48286D01*
X49832Y-48273D01*
X50256Y-48273D01*
X50325Y-48259D01*
X50383Y-48220D01*
X50530Y-48074D01*
X50530Y-48103D01*
X50571Y-48202D01*
X50646Y-48278D01*
X50746Y-48319D01*
X50815Y-48319D01*
X51022Y-48527D01*
X51081Y-48566D01*
X51150Y-48579D01*
X54325Y-48579D01*
X54623Y-48877D01*
X54605Y-48921D01*
X54605Y-49078D01*
X54665Y-49223D01*
X54776Y-49334D01*
X54921Y-49394D01*
X55078Y-49394D01*
X55122Y-49376D01*
X55322Y-49577D01*
X55381Y-49616D01*
X55450Y-49629D01*
X57250Y-49629D01*
X57318Y-49616D01*
X57377Y-49577D01*
X58124Y-48829D01*
X60550Y-48829D01*
X60618Y-48816D01*
X60677Y-48777D01*
X61384Y-48070D01*
X61423Y-48011D01*
X61423Y-48011D01*
X61436Y-47943D01*
X61436Y-47689D01*
X61495Y-47832D01*
X61499Y-47839D01*
X61586Y-47884D01*
X61971Y-47500D01*
X61586Y-47115D01*
X61499Y-47160D01*
X61436Y-47309D01*
X61436Y-47034D01*
X61443Y-47000D01*
X61429Y-46931D01*
X61390Y-46872D01*
X61384Y-46865D01*
X61237Y-46719D01*
X61237Y-46604D01*
X61219Y-46560D01*
X61186Y-46526D01*
X61141Y-46508D01*
X61094Y-46508D01*
X60858Y-46508D01*
X60813Y-46526D01*
X60780Y-46560D01*
X60762Y-46604D01*
X60762Y-46651D01*
X60762Y-46719D01*
X60751Y-46730D01*
X60646Y-46730D01*
X60547Y-46771D01*
X60471Y-46846D01*
X60430Y-46946D01*
X60430Y-47053D01*
X60471Y-47152D01*
X60546Y-47228D01*
X60646Y-47269D01*
X60753Y-47269D01*
X60852Y-47228D01*
X60928Y-47153D01*
X60969Y-47053D01*
X60969Y-47020D01*
X61000Y-46990D01*
X61077Y-47067D01*
X61077Y-47868D01*
X60581Y-48364D01*
X60581Y-48228D01*
X60581Y-48180D01*
X60581Y-47354D01*
X60563Y-47310D01*
X60529Y-47276D01*
X60485Y-47258D01*
X60437Y-47258D01*
X59886Y-47258D01*
X59842Y-47276D01*
X59808Y-47310D01*
X59790Y-47354D01*
X59790Y-47401D01*
X59790Y-48228D01*
X59808Y-48272D01*
X59842Y-48306D01*
X59886Y-48324D01*
X59934Y-48324D01*
X60485Y-48324D01*
X60529Y-48306D01*
X60563Y-48272D01*
X60581Y-48228D01*
X60581Y-48364D01*
X60475Y-48470D01*
X58050Y-48470D01*
X57981Y-48483D01*
X57922Y-48522D01*
X57435Y-49010D01*
X57434Y-48910D01*
X57370Y-48755D01*
X57299Y-48729D01*
X57270Y-48757D01*
X57270Y-48700D01*
X57244Y-48629D01*
X57083Y-48564D01*
X56910Y-48565D01*
X56755Y-48629D01*
X56729Y-48700D01*
X57000Y-48971D01*
X57270Y-48700D01*
X57270Y-48757D01*
X57028Y-49000D01*
X57033Y-49005D01*
X57005Y-49033D01*
X57000Y-49028D01*
X56994Y-49033D01*
X56966Y-49005D01*
X56971Y-49000D01*
X56700Y-48729D01*
X56629Y-48755D01*
X56564Y-48916D01*
X56565Y-49089D01*
X56629Y-49244D01*
X56698Y-49270D01*
X56288Y-49270D01*
X56334Y-49223D01*
X56394Y-49078D01*
X56394Y-48921D01*
X56334Y-48776D01*
X56322Y-48763D01*
X56322Y-48020D01*
X56322Y-47964D01*
X56133Y-47775D01*
X56104Y-47803D01*
X56104Y-47746D01*
X55915Y-47557D01*
X55859Y-47557D01*
X55804Y-47613D01*
X55796Y-47632D01*
X55776Y-47640D01*
X55721Y-47695D01*
X55721Y-47752D01*
X55910Y-47941D01*
X55959Y-47892D01*
X55959Y-47892D01*
X56007Y-47844D01*
X56056Y-47795D01*
X56056Y-47795D01*
X56104Y-47746D01*
X56104Y-47803D01*
X56084Y-47823D01*
X56036Y-47872D01*
X55987Y-47921D01*
X55939Y-47969D01*
X56128Y-48158D01*
X56184Y-48158D01*
X56239Y-48103D01*
X56247Y-48084D01*
X56267Y-48076D01*
X56322Y-48020D01*
X56322Y-48763D01*
X56223Y-48665D01*
X56099Y-48613D01*
X56099Y-48243D01*
X56099Y-48186D01*
X55910Y-47997D01*
X55882Y-48026D01*
X55882Y-47969D01*
X55693Y-47780D01*
X55636Y-47780D01*
X55581Y-47835D01*
X55557Y-47894D01*
X55557Y-47958D01*
X55581Y-48017D01*
X55626Y-48062D01*
X55679Y-48115D01*
X55736Y-48115D01*
X55882Y-47969D01*
X55882Y-48026D01*
X55764Y-48143D01*
X55764Y-48200D01*
X55818Y-48253D01*
X55863Y-48298D01*
X55921Y-48323D01*
X55985Y-48323D01*
X56044Y-48298D01*
X56099Y-48243D01*
X56099Y-48613D01*
X56078Y-48605D01*
X55921Y-48605D01*
X55877Y-48623D01*
X55316Y-48062D01*
X55384Y-47994D01*
X55402Y-47950D01*
X55402Y-47910D01*
X55477Y-47836D01*
X55516Y-47777D01*
X55516Y-47777D01*
X55529Y-47708D01*
X55529Y-47550D01*
X55516Y-47481D01*
X55477Y-47422D01*
X54829Y-46775D01*
X54829Y-45365D01*
X55836Y-44359D01*
X55838Y-44364D01*
X55871Y-44397D01*
X56022Y-44548D01*
X56049Y-44559D01*
X56060Y-44586D01*
X56094Y-44620D01*
X56244Y-44770D01*
X56272Y-44782D01*
X56283Y-44809D01*
X56317Y-44843D01*
X56467Y-44993D01*
X56495Y-45004D01*
X56506Y-45032D01*
X56540Y-45066D01*
X56690Y-45216D01*
X56717Y-45227D01*
X56729Y-45255D01*
X56762Y-45288D01*
X56913Y-45439D01*
X56940Y-45450D01*
X56951Y-45477D01*
X56985Y-45511D01*
X57135Y-45661D01*
X57163Y-45673D01*
X57174Y-45700D01*
X57208Y-45734D01*
X57267Y-45793D01*
X57222Y-45822D01*
X56472Y-46572D01*
X56433Y-46631D01*
X56420Y-46700D01*
X56420Y-46877D01*
X56433Y-46946D01*
X56472Y-47004D01*
X56467Y-47006D01*
X56433Y-47040D01*
X56283Y-47190D01*
X56272Y-47217D01*
X56244Y-47229D01*
X56211Y-47262D01*
X56080Y-47393D01*
X56058Y-47393D01*
X55999Y-47417D01*
X55944Y-47472D01*
X55944Y-47529D01*
X56133Y-47718D01*
X56138Y-47712D01*
X56167Y-47741D01*
X56161Y-47746D01*
X56350Y-47935D01*
X56407Y-47935D01*
X56460Y-47882D01*
X56496Y-47918D01*
X56554Y-47957D01*
X56554Y-47957D01*
X56623Y-47971D01*
X58018Y-47971D01*
X58018Y-48228D01*
X58036Y-48272D01*
X58070Y-48306D01*
X58114Y-48324D01*
X58162Y-48324D01*
X58713Y-48324D01*
X58757Y-48306D01*
X58791Y-48272D01*
X58809Y-48228D01*
X58809Y-48180D01*
X58809Y-47354D01*
X58791Y-47310D01*
X58757Y-47276D01*
X58713Y-47258D01*
X58665Y-47258D01*
X58114Y-47258D01*
X58070Y-47276D01*
X58036Y-47310D01*
X58018Y-47354D01*
X58018Y-47401D01*
X58018Y-47611D01*
X56697Y-47611D01*
X56684Y-47598D01*
X56689Y-47596D01*
X56723Y-47562D01*
X56873Y-47412D01*
X56885Y-47385D01*
X56912Y-47373D01*
X56946Y-47340D01*
X57096Y-47189D01*
X57107Y-47162D01*
X57135Y-47151D01*
X57168Y-47117D01*
X57319Y-46967D01*
X57325Y-46953D01*
X57344Y-46966D01*
X57413Y-46979D01*
X57700Y-46979D01*
X57768Y-46966D01*
X57827Y-46927D01*
X58424Y-46329D01*
X60175Y-46329D01*
X60236Y-46390D01*
X60294Y-46429D01*
X60363Y-46443D01*
X60783Y-46443D01*
X60813Y-46473D01*
X60858Y-46491D01*
X60905Y-46491D01*
X61141Y-46491D01*
X61174Y-46478D01*
X61322Y-46627D01*
X61381Y-46666D01*
X61381Y-46666D01*
X61450Y-46679D01*
X61476Y-46679D01*
X61530Y-46812D01*
X61686Y-46968D01*
X61709Y-46977D01*
X61667Y-46995D01*
X61660Y-46999D01*
X61615Y-47086D01*
X62000Y-47471D01*
X62384Y-47086D01*
X62339Y-46999D01*
X62289Y-46978D01*
X62312Y-46969D01*
X62468Y-46813D01*
X62552Y-46610D01*
X62553Y-46390D01*
X62553Y-47285D01*
X62504Y-47167D01*
X62500Y-47160D01*
X62413Y-47115D01*
X62028Y-47500D01*
X62413Y-47884D01*
X62500Y-47839D01*
X62592Y-47621D01*
X62593Y-47385D01*
X62593Y-49614D01*
X62384Y-49754D01*
X62384Y-47913D01*
X62000Y-47528D01*
X61615Y-47913D01*
X61660Y-48000D01*
X61878Y-48092D01*
X62114Y-48093D01*
X62332Y-48004D01*
X62339Y-48000D01*
X62384Y-47913D01*
X62384Y-49754D01*
X62328Y-49792D01*
X61986Y-49860D01*
X60614Y-49860D01*
X60598Y-49781D01*
X60577Y-49731D01*
X60577Y-49731D01*
X60469Y-49568D01*
X60469Y-49568D01*
X60431Y-49530D01*
X60431Y-49530D01*
X60268Y-49422D01*
X60218Y-49401D01*
X60027Y-49363D01*
X60027Y-49363D01*
X59972Y-49363D01*
X59972Y-49363D01*
X59781Y-49401D01*
X59731Y-49422D01*
X59568Y-49530D01*
X59568Y-49530D01*
X59530Y-49568D01*
X59530Y-49568D01*
X59422Y-49731D01*
X59401Y-49781D01*
X59385Y-49860D01*
X47614Y-49860D01*
X47598Y-49781D01*
X47577Y-49731D01*
X47577Y-49731D01*
X47469Y-49568D01*
X47469Y-49568D01*
X47431Y-49530D01*
X47431Y-49530D01*
X47268Y-49422D01*
X47218Y-49401D01*
X47027Y-49363D01*
X47027Y-49363D01*
X46972Y-49363D01*
X46972Y-49363D01*
X46781Y-49401D01*
X46731Y-49422D01*
X46568Y-49530D01*
X46568Y-49530D01*
X46530Y-49568D01*
X46530Y-49568D01*
X46422Y-49731D01*
X46401Y-49781D01*
X46385Y-49860D01*
X45749Y-49860D01*
X45749Y-47851D01*
X45636Y-47575D01*
X45425Y-47364D01*
X45149Y-47250D01*
X44851Y-47250D01*
X44575Y-47363D01*
X44364Y-47574D01*
X44250Y-47850D01*
X44250Y-48148D01*
X44363Y-48424D01*
X44574Y-48635D01*
X44850Y-48749D01*
X45148Y-48749D01*
X45424Y-48636D01*
X45635Y-48425D01*
X45749Y-48149D01*
X45749Y-47851D01*
X45749Y-49860D01*
X45013Y-49860D01*
X44671Y-49792D01*
X44393Y-49606D01*
X44207Y-49328D01*
X44139Y-48986D01*
X44139Y-43013D01*
X44207Y-42671D01*
X44393Y-42393D01*
X44671Y-42207D01*
X45013Y-42139D01*
X46385Y-42139D01*
X46401Y-42218D01*
X46422Y-42268D01*
X46530Y-42431D01*
X46530Y-42431D01*
X46568Y-42469D01*
X46568Y-42469D01*
X46731Y-42577D01*
X46731Y-42577D01*
X46781Y-42598D01*
X46972Y-42636D01*
X46972Y-42636D01*
X47027Y-42636D01*
X47027Y-42636D01*
X47218Y-42598D01*
X47268Y-42577D01*
X47431Y-42469D01*
X47431Y-42469D01*
X47469Y-42431D01*
X47469Y-42431D01*
X47577Y-42268D01*
X47577Y-42268D01*
X47598Y-42218D01*
X47614Y-42139D01*
X59385Y-42139D01*
X59401Y-42218D01*
X59422Y-42268D01*
X59530Y-42431D01*
X59530Y-42431D01*
X59568Y-42469D01*
X59568Y-42469D01*
X59731Y-42577D01*
X59731Y-42577D01*
X59781Y-42598D01*
X59972Y-42636D01*
X59972Y-42636D01*
X60027Y-42636D01*
X60027Y-42636D01*
X60218Y-42598D01*
X60268Y-42577D01*
X60431Y-42469D01*
X60431Y-42469D01*
X60469Y-42431D01*
X60469Y-42431D01*
X60577Y-42268D01*
X60577Y-42268D01*
X60598Y-42218D01*
X60614Y-42139D01*
X61986Y-42139D01*
X62328Y-42207D01*
X62606Y-42393D01*
X62792Y-42671D01*
X62860Y-43013D01*
X62860Y-48986D01*
X62860Y-48986D01*
G37*
G54D30*
X62860Y-48986D02*
X62792Y-49328D01*
X62606Y-49606D01*
X62593Y-49614D01*
X62593Y-47385D01*
X62553Y-47285D01*
X62553Y-46390D01*
X62469Y-46187D01*
X62313Y-46031D01*
X62237Y-46000D01*
X62312Y-45969D01*
X62468Y-45813D01*
X62552Y-45610D01*
X62553Y-45390D01*
X62469Y-45187D01*
X62335Y-45052D01*
X62456Y-45052D01*
X62500Y-45034D01*
X62534Y-45000D01*
X62552Y-44956D01*
X62552Y-44909D01*
X62552Y-44043D01*
X62534Y-43999D01*
X62500Y-43965D01*
X62456Y-43947D01*
X62409Y-43947D01*
X61543Y-43947D01*
X61499Y-43965D01*
X61465Y-43999D01*
X61447Y-44043D01*
X61447Y-44090D01*
X61447Y-44798D01*
X61188Y-45056D01*
X61186Y-45053D01*
X61141Y-45035D01*
X61094Y-45035D01*
X60990Y-45035D01*
X60969Y-45015D01*
X60969Y-44946D01*
X60928Y-44847D01*
X60853Y-44771D01*
X60753Y-44730D01*
X60646Y-44730D01*
X60621Y-44740D01*
X60621Y-44653D01*
X60621Y-44590D01*
X60621Y-44268D01*
X60621Y-44148D01*
X60621Y-43827D01*
X60621Y-43763D01*
X60597Y-43704D01*
X60552Y-43659D01*
X60493Y-43635D01*
X60245Y-43635D01*
X60205Y-43675D01*
X60205Y-44188D01*
X60581Y-44188D01*
X60621Y-44148D01*
X60621Y-44268D01*
X60581Y-44228D01*
X60205Y-44228D01*
X60205Y-44742D01*
X60245Y-44782D01*
X60493Y-44782D01*
X60552Y-44757D01*
X60597Y-44712D01*
X60621Y-44653D01*
X60621Y-44740D01*
X60547Y-44771D01*
X60471Y-44846D01*
X60430Y-44946D01*
X60430Y-45053D01*
X60471Y-45152D01*
X60546Y-45228D01*
X60646Y-45269D01*
X60715Y-45269D01*
X60762Y-45316D01*
X60762Y-45395D01*
X60780Y-45439D01*
X60813Y-45473D01*
X60858Y-45491D01*
X60905Y-45491D01*
X61141Y-45491D01*
X61186Y-45473D01*
X61216Y-45443D01*
X61236Y-45443D01*
X61255Y-45439D01*
X61174Y-45521D01*
X61141Y-45508D01*
X61094Y-45508D01*
X60858Y-45508D01*
X60813Y-45526D01*
X60783Y-45556D01*
X60413Y-45556D01*
X60344Y-45570D01*
X60286Y-45609D01*
X60165Y-45729D01*
X60165Y-44742D01*
X60165Y-44228D01*
X60165Y-44188D01*
X60165Y-43675D01*
X60125Y-43635D01*
X59878Y-43635D01*
X59819Y-43659D01*
X59774Y-43704D01*
X59750Y-43763D01*
X59750Y-43827D01*
X59750Y-44148D01*
X59790Y-44188D01*
X60165Y-44188D01*
X60165Y-44228D01*
X59790Y-44228D01*
X59750Y-44268D01*
X59750Y-44590D01*
X59750Y-44653D01*
X59774Y-44712D01*
X59819Y-44757D01*
X59878Y-44782D01*
X60125Y-44782D01*
X60165Y-44742D01*
X60165Y-45729D01*
X60125Y-45770D01*
X58809Y-45770D01*
X58809Y-44645D01*
X58809Y-44598D01*
X58809Y-43771D01*
X58791Y-43727D01*
X58757Y-43693D01*
X58713Y-43675D01*
X58665Y-43675D01*
X58114Y-43675D01*
X58070Y-43693D01*
X58036Y-43727D01*
X58018Y-43771D01*
X58018Y-43819D01*
X58018Y-44645D01*
X58036Y-44689D01*
X58070Y-44723D01*
X58114Y-44741D01*
X58162Y-44741D01*
X58713Y-44741D01*
X58757Y-44723D01*
X58791Y-44689D01*
X58809Y-44645D01*
X58809Y-45770D01*
X57608Y-45770D01*
X57764Y-45614D01*
X57782Y-45570D01*
X57782Y-45530D01*
X57827Y-45486D01*
X57866Y-45427D01*
X57879Y-45358D01*
X57879Y-44700D01*
X57866Y-44631D01*
X57866Y-44631D01*
X57827Y-44572D01*
X56376Y-43122D01*
X56394Y-43078D01*
X56394Y-42921D01*
X56334Y-42776D01*
X56223Y-42665D01*
X56078Y-42605D01*
X55921Y-42605D01*
X55776Y-42665D01*
X55665Y-42776D01*
X55605Y-42921D01*
X55605Y-43078D01*
X55665Y-43223D01*
X55711Y-43270D01*
X55301Y-43270D01*
X55370Y-43244D01*
X55435Y-43083D01*
X55434Y-42910D01*
X55370Y-42755D01*
X55299Y-42729D01*
X55028Y-43000D01*
X55033Y-43005D01*
X55005Y-43033D01*
X55000Y-43028D01*
X54994Y-43033D01*
X54966Y-43005D01*
X54971Y-43000D01*
X54700Y-42729D01*
X54629Y-42755D01*
X54564Y-42916D01*
X54565Y-43089D01*
X54629Y-43244D01*
X54698Y-43270D01*
X54524Y-43270D01*
X54376Y-43122D01*
X54394Y-43078D01*
X54394Y-42921D01*
X54334Y-42776D01*
X54223Y-42665D01*
X54078Y-42605D01*
X53999Y-42605D01*
X54024Y-42579D01*
X54876Y-42579D01*
X54755Y-42629D01*
X54729Y-42700D01*
X55000Y-42971D01*
X55270Y-42700D01*
X55244Y-42629D01*
X55121Y-42579D01*
X56325Y-42579D01*
X56605Y-42859D01*
X56605Y-43298D01*
X56623Y-43342D01*
X56657Y-43376D01*
X56701Y-43394D01*
X56748Y-43394D01*
X57298Y-43394D01*
X57342Y-43376D01*
X57376Y-43342D01*
X57394Y-43298D01*
X57394Y-43251D01*
X57394Y-42701D01*
X57376Y-42657D01*
X57342Y-42623D01*
X57298Y-42605D01*
X57251Y-42605D01*
X56859Y-42605D01*
X56527Y-42272D01*
X56468Y-42233D01*
X56400Y-42220D01*
X53950Y-42220D01*
X53881Y-42233D01*
X53822Y-42272D01*
X53372Y-42722D01*
X53333Y-42781D01*
X53320Y-42850D01*
X53320Y-43820D01*
X53101Y-43820D01*
X53053Y-43771D01*
X52953Y-43730D01*
X52846Y-43730D01*
X52747Y-43771D01*
X52698Y-43820D01*
X51800Y-43820D01*
X51731Y-43833D01*
X51672Y-43872D01*
X51490Y-44055D01*
X51209Y-44055D01*
X51164Y-44073D01*
X51131Y-44107D01*
X51112Y-44151D01*
X51112Y-44198D01*
X51112Y-44270D01*
X51074Y-44270D01*
X50890Y-44086D01*
X50832Y-44047D01*
X50763Y-44033D01*
X50666Y-44033D01*
X50636Y-44003D01*
X50591Y-43985D01*
X50544Y-43985D01*
X50308Y-43985D01*
X50263Y-44003D01*
X50230Y-44037D01*
X50212Y-44081D01*
X50212Y-44129D01*
X50212Y-44197D01*
X49972Y-44436D01*
X49933Y-44494D01*
X49920Y-44563D01*
X49920Y-45050D01*
X49933Y-45118D01*
X49972Y-45177D01*
X50054Y-45259D01*
X50054Y-45391D01*
X50072Y-45435D01*
X50106Y-45469D01*
X50150Y-45487D01*
X50198Y-45487D01*
X50583Y-45487D01*
X50607Y-45512D01*
X50150Y-45512D01*
X50106Y-45530D01*
X50072Y-45564D01*
X50070Y-45570D01*
X49885Y-45570D01*
X49885Y-44063D01*
X49885Y-43966D01*
X49885Y-43846D01*
X49885Y-43749D01*
X49860Y-43690D01*
X49815Y-43645D01*
X49756Y-43621D01*
X49693Y-43621D01*
X49560Y-43621D01*
X49520Y-43661D01*
X49520Y-43886D01*
X49845Y-43886D01*
X49885Y-43846D01*
X49885Y-43966D01*
X49845Y-43926D01*
X49520Y-43926D01*
X49520Y-44151D01*
X49560Y-44191D01*
X49693Y-44191D01*
X49756Y-44191D01*
X49815Y-44166D01*
X49860Y-44121D01*
X49885Y-44063D01*
X49885Y-45570D01*
X49844Y-45570D01*
X49844Y-45457D01*
X49826Y-45413D01*
X49792Y-45379D01*
X49748Y-45361D01*
X49701Y-45361D01*
X49679Y-45361D01*
X49679Y-44938D01*
X49748Y-44938D01*
X49792Y-44920D01*
X49826Y-44886D01*
X49844Y-44842D01*
X49844Y-44794D01*
X49844Y-44544D01*
X49826Y-44500D01*
X49792Y-44467D01*
X49748Y-44448D01*
X49701Y-44448D01*
X49479Y-44448D01*
X49479Y-44151D01*
X49479Y-43926D01*
X49479Y-43886D01*
X49479Y-43661D01*
X49439Y-43621D01*
X49306Y-43621D01*
X49243Y-43621D01*
X49184Y-43645D01*
X49139Y-43690D01*
X49114Y-43749D01*
X49114Y-43846D01*
X49154Y-43886D01*
X49479Y-43886D01*
X49479Y-43926D01*
X49154Y-43926D01*
X49114Y-43966D01*
X49114Y-44063D01*
X49139Y-44121D01*
X49184Y-44166D01*
X49243Y-44191D01*
X49306Y-44191D01*
X49439Y-44191D01*
X49479Y-44151D01*
X49479Y-44448D01*
X49251Y-44448D01*
X49207Y-44467D01*
X49173Y-44500D01*
X49167Y-44513D01*
X49079Y-44513D01*
X49050Y-44484D01*
X49006Y-44466D01*
X48958Y-44466D01*
X48767Y-44466D01*
X48767Y-44145D01*
X48767Y-44082D01*
X48767Y-43977D01*
X48727Y-43937D01*
X48470Y-43937D01*
X48470Y-44234D01*
X48510Y-44274D01*
X48639Y-44274D01*
X48698Y-44249D01*
X48743Y-44204D01*
X48767Y-44145D01*
X48767Y-44466D01*
X48643Y-44466D01*
X48599Y-44484D01*
X48565Y-44518D01*
X48547Y-44562D01*
X48547Y-44609D01*
X48547Y-45003D01*
X48554Y-45020D01*
X48429Y-45020D01*
X48429Y-44234D01*
X48429Y-43937D01*
X48172Y-43937D01*
X48132Y-43977D01*
X48132Y-44082D01*
X48132Y-44145D01*
X48156Y-44204D01*
X48201Y-44249D01*
X48260Y-44274D01*
X48389Y-44274D01*
X48429Y-44234D01*
X48429Y-45020D01*
X48345Y-45020D01*
X48352Y-45003D01*
X48352Y-44956D01*
X48352Y-44562D01*
X48334Y-44518D01*
X48300Y-44484D01*
X48256Y-44466D01*
X48208Y-44466D01*
X48012Y-44466D01*
X47969Y-44423D01*
X47969Y-44346D01*
X47928Y-44247D01*
X47853Y-44171D01*
X47753Y-44130D01*
X47646Y-44130D01*
X47547Y-44171D01*
X47471Y-44246D01*
X47430Y-44346D01*
X47430Y-44453D01*
X47471Y-44552D01*
X47546Y-44628D01*
X47646Y-44669D01*
X47707Y-44669D01*
X47797Y-44760D01*
X47797Y-44826D01*
X47791Y-44814D01*
X47602Y-44735D01*
X47398Y-44735D01*
X47209Y-44813D01*
X47208Y-44814D01*
X47171Y-44893D01*
X47500Y-45221D01*
X47505Y-45216D01*
X47533Y-45244D01*
X47528Y-45250D01*
X47533Y-45255D01*
X47505Y-45283D01*
X47500Y-45278D01*
X47171Y-45606D01*
X47208Y-45685D01*
X47397Y-45764D01*
X47481Y-45764D01*
X47469Y-45775D01*
X47406Y-45775D01*
X47231Y-45847D01*
X47116Y-45962D01*
X47116Y-45565D01*
X47143Y-45578D01*
X47471Y-45250D01*
X47143Y-44921D01*
X47116Y-44934D01*
X47116Y-44531D01*
X48031Y-43616D01*
X48169Y-43616D01*
X48156Y-43629D01*
X48132Y-43688D01*
X48132Y-43751D01*
X48132Y-43856D01*
X48172Y-43896D01*
X48429Y-43896D01*
X48429Y-43889D01*
X48470Y-43889D01*
X48470Y-43896D01*
X48727Y-43896D01*
X48767Y-43856D01*
X48767Y-43751D01*
X48767Y-43688D01*
X48743Y-43629D01*
X48730Y-43616D01*
X49750Y-43616D01*
X49871Y-43592D01*
X49973Y-43523D01*
X50042Y-43421D01*
X50066Y-43300D01*
X50042Y-43178D01*
X49973Y-43076D01*
X49871Y-43007D01*
X49750Y-42983D01*
X47900Y-42983D01*
X47778Y-43007D01*
X47737Y-43034D01*
X47676Y-43076D01*
X46576Y-44176D01*
X46507Y-44278D01*
X46483Y-44400D01*
X46483Y-44703D01*
X46464Y-44695D01*
X46401Y-44695D01*
X46060Y-44695D01*
X46020Y-44735D01*
X46020Y-45189D01*
X46027Y-45189D01*
X46027Y-45230D01*
X46020Y-45230D01*
X46020Y-45684D01*
X46060Y-45724D01*
X46401Y-45724D01*
X46464Y-45724D01*
X46483Y-45716D01*
X46483Y-46326D01*
X46456Y-46315D01*
X46409Y-46315D01*
X45979Y-46315D01*
X45979Y-45684D01*
X45979Y-45230D01*
X45979Y-45189D01*
X45979Y-44735D01*
X45939Y-44695D01*
X45749Y-44695D01*
X45749Y-43851D01*
X45636Y-43575D01*
X45425Y-43364D01*
X45149Y-43250D01*
X44851Y-43250D01*
X44575Y-43363D01*
X44364Y-43574D01*
X44250Y-43850D01*
X44250Y-44148D01*
X44363Y-44424D01*
X44574Y-44635D01*
X44850Y-44749D01*
X45148Y-44749D01*
X45424Y-44636D01*
X45635Y-44425D01*
X45749Y-44149D01*
X45749Y-43851D01*
X45749Y-44695D01*
X45598Y-44695D01*
X45535Y-44695D01*
X45476Y-44719D01*
X45431Y-44764D01*
X45406Y-44823D01*
X45406Y-45149D01*
X45446Y-45189D01*
X45979Y-45189D01*
X45979Y-45230D01*
X45446Y-45230D01*
X45406Y-45270D01*
X45406Y-45596D01*
X45431Y-45655D01*
X45476Y-45700D01*
X45535Y-45724D01*
X45598Y-45724D01*
X45939Y-45724D01*
X45979Y-45684D01*
X45979Y-46315D01*
X45543Y-46315D01*
X45499Y-46333D01*
X45465Y-46367D01*
X45447Y-46411D01*
X45447Y-46459D01*
X45447Y-47168D01*
X45465Y-47212D01*
X45499Y-47246D01*
X45543Y-47264D01*
X45590Y-47264D01*
X46456Y-47264D01*
X46500Y-47246D01*
X46534Y-47212D01*
X46552Y-47168D01*
X46552Y-47120D01*
X46552Y-47106D01*
X46958Y-47106D01*
X46958Y-47106D01*
X46976Y-47123D01*
X46976Y-47123D01*
X47078Y-47192D01*
X47200Y-47216D01*
X48350Y-47216D01*
X48350Y-47216D01*
X48375Y-47211D01*
X48405Y-47224D01*
X48593Y-47224D01*
X48730Y-47168D01*
X48730Y-47203D01*
X48771Y-47302D01*
X48820Y-47351D01*
X48820Y-48250D01*
X48833Y-48318D01*
X48872Y-48377D01*
X49622Y-49127D01*
X49681Y-49166D01*
X49750Y-49179D01*
X53605Y-49179D01*
X53605Y-49298D01*
X53623Y-49342D01*
X53657Y-49376D01*
X53701Y-49394D01*
X53748Y-49394D01*
X54298Y-49394D01*
X54342Y-49376D01*
X54376Y-49342D01*
X54394Y-49298D01*
X54394Y-49251D01*
X54394Y-48701D01*
X54376Y-48657D01*
X54342Y-48623D01*
X54298Y-48605D01*
X54251Y-48605D01*
X53701Y-48605D01*
X53657Y-48623D01*
X53623Y-48657D01*
X53605Y-48701D01*
X53605Y-48748D01*
X53605Y-48820D01*
X49824Y-48820D01*
X49342Y-48338D01*
X49748Y-48338D01*
X49792Y-48320D01*
X49826Y-48286D01*
X49832Y-48273D01*
X50256Y-48273D01*
X50325Y-48259D01*
X50383Y-48220D01*
X50530Y-48074D01*
X50530Y-48103D01*
X50571Y-48202D01*
X50646Y-48278D01*
X50746Y-48319D01*
X50815Y-48319D01*
X51022Y-48527D01*
X51081Y-48566D01*
X51150Y-48579D01*
X54325Y-48579D01*
X54623Y-48877D01*
X54605Y-48921D01*
X54605Y-49078D01*
X54665Y-49223D01*
X54776Y-49334D01*
X54921Y-49394D01*
X55078Y-49394D01*
X55122Y-49376D01*
X55322Y-49577D01*
X55381Y-49616D01*
X55450Y-49629D01*
X57250Y-49629D01*
X57318Y-49616D01*
X57377Y-49577D01*
X58124Y-48829D01*
X60550Y-48829D01*
X60618Y-48816D01*
X60677Y-48777D01*
X61384Y-48070D01*
X61423Y-48011D01*
X61423Y-48011D01*
X61436Y-47943D01*
X61436Y-47689D01*
X61495Y-47832D01*
X61499Y-47839D01*
X61586Y-47884D01*
X61971Y-47500D01*
X61586Y-47115D01*
X61499Y-47160D01*
X61436Y-47309D01*
X61436Y-47034D01*
X61443Y-47000D01*
X61429Y-46931D01*
X61390Y-46872D01*
X61384Y-46865D01*
X61237Y-46719D01*
X61237Y-46604D01*
X61219Y-46560D01*
X61186Y-46526D01*
X61141Y-46508D01*
X61094Y-46508D01*
X60858Y-46508D01*
X60813Y-46526D01*
X60780Y-46560D01*
X60762Y-46604D01*
X60762Y-46651D01*
X60762Y-46719D01*
X60751Y-46730D01*
X60646Y-46730D01*
X60547Y-46771D01*
X60471Y-46846D01*
X60430Y-46946D01*
X60430Y-47053D01*
X60471Y-47152D01*
X60546Y-47228D01*
X60646Y-47269D01*
X60753Y-47269D01*
X60852Y-47228D01*
X60928Y-47153D01*
X60969Y-47053D01*
X60969Y-47020D01*
X61000Y-46990D01*
X61077Y-47067D01*
X61077Y-47868D01*
X60581Y-48364D01*
X60581Y-48228D01*
X60581Y-48180D01*
X60581Y-47354D01*
X60563Y-47310D01*
X60529Y-47276D01*
X60485Y-47258D01*
X60437Y-47258D01*
X59886Y-47258D01*
X59842Y-47276D01*
X59808Y-47310D01*
X59790Y-47354D01*
X59790Y-47401D01*
X59790Y-48228D01*
X59808Y-48272D01*
X59842Y-48306D01*
X59886Y-48324D01*
X59934Y-48324D01*
X60485Y-48324D01*
X60529Y-48306D01*
X60563Y-48272D01*
X60581Y-48228D01*
X60581Y-48364D01*
X60475Y-48470D01*
X58050Y-48470D01*
X57981Y-48483D01*
X57922Y-48522D01*
X57435Y-49010D01*
X57434Y-48910D01*
X57370Y-48755D01*
X57299Y-48729D01*
X57270Y-48757D01*
X57270Y-48700D01*
X57244Y-48629D01*
X57083Y-48564D01*
X56910Y-48565D01*
X56755Y-48629D01*
X56729Y-48700D01*
X57000Y-48971D01*
X57270Y-48700D01*
X57270Y-48757D01*
X57028Y-49000D01*
X57033Y-49005D01*
X57005Y-49033D01*
X57000Y-49028D01*
X56994Y-49033D01*
X56966Y-49005D01*
X56971Y-49000D01*
X56700Y-48729D01*
X56629Y-48755D01*
X56564Y-48916D01*
X56565Y-49089D01*
X56629Y-49244D01*
X56698Y-49270D01*
X56288Y-49270D01*
X56334Y-49223D01*
X56394Y-49078D01*
X56394Y-48921D01*
X56334Y-48776D01*
X56322Y-48763D01*
X56322Y-48020D01*
X56322Y-47964D01*
X56133Y-47775D01*
X56104Y-47803D01*
X56104Y-47746D01*
X55915Y-47557D01*
X55859Y-47557D01*
X55804Y-47613D01*
X55796Y-47632D01*
X55776Y-47640D01*
X55721Y-47695D01*
X55721Y-47752D01*
X55910Y-47941D01*
X55959Y-47892D01*
X55959Y-47892D01*
X56007Y-47844D01*
X56056Y-47795D01*
X56056Y-47795D01*
X56104Y-47746D01*
X56104Y-47803D01*
X56084Y-47823D01*
X56036Y-47872D01*
X55987Y-47921D01*
X55939Y-47969D01*
X56128Y-48158D01*
X56184Y-48158D01*
X56239Y-48103D01*
X56247Y-48084D01*
X56267Y-48076D01*
X56322Y-48020D01*
X56322Y-48763D01*
X56223Y-48665D01*
X56099Y-48613D01*
X56099Y-48243D01*
X56099Y-48186D01*
X55910Y-47997D01*
X55882Y-48026D01*
X55882Y-47969D01*
X55693Y-47780D01*
X55636Y-47780D01*
X55581Y-47835D01*
X55557Y-47894D01*
X55557Y-47958D01*
X55581Y-48017D01*
X55626Y-48062D01*
X55679Y-48115D01*
X55736Y-48115D01*
X55882Y-47969D01*
X55882Y-48026D01*
X55764Y-48143D01*
X55764Y-48200D01*
X55818Y-48253D01*
X55863Y-48298D01*
X55921Y-48323D01*
X55985Y-48323D01*
X56044Y-48298D01*
X56099Y-48243D01*
X56099Y-48613D01*
X56078Y-48605D01*
X55921Y-48605D01*
X55877Y-48623D01*
X55316Y-48062D01*
X55384Y-47994D01*
X55402Y-47950D01*
X55402Y-47910D01*
X55477Y-47836D01*
X55516Y-47777D01*
X55516Y-47777D01*
X55529Y-47708D01*
X55529Y-47550D01*
X55516Y-47481D01*
X55477Y-47422D01*
X54829Y-46775D01*
X54829Y-45365D01*
X55836Y-44359D01*
X55838Y-44364D01*
X55871Y-44397D01*
X56022Y-44548D01*
X56049Y-44559D01*
X56060Y-44586D01*
X56094Y-44620D01*
X56244Y-44770D01*
X56272Y-44782D01*
X56283Y-44809D01*
X56317Y-44843D01*
X56467Y-44993D01*
X56495Y-45004D01*
X56506Y-45032D01*
X56540Y-45066D01*
X56690Y-45216D01*
X56717Y-45227D01*
X56729Y-45255D01*
X56762Y-45288D01*
X56913Y-45439D01*
X56940Y-45450D01*
X56951Y-45477D01*
X56985Y-45511D01*
X57135Y-45661D01*
X57163Y-45673D01*
X57174Y-45700D01*
X57208Y-45734D01*
X57267Y-45793D01*
X57222Y-45822D01*
X56472Y-46572D01*
X56433Y-46631D01*
X56420Y-46700D01*
X56420Y-46877D01*
X56433Y-46946D01*
X56472Y-47004D01*
X56467Y-47006D01*
X56433Y-47040D01*
X56283Y-47190D01*
X56272Y-47217D01*
X56244Y-47229D01*
X56211Y-47262D01*
X56080Y-47393D01*
X56058Y-47393D01*
X55999Y-47417D01*
X55944Y-47472D01*
X55944Y-47529D01*
X56133Y-47718D01*
X56138Y-47712D01*
X56167Y-47741D01*
X56161Y-47746D01*
X56350Y-47935D01*
X56407Y-47935D01*
X56460Y-47882D01*
X56496Y-47918D01*
X56554Y-47957D01*
X56554Y-47957D01*
X56623Y-47971D01*
X58018Y-47971D01*
X58018Y-48228D01*
X58036Y-48272D01*
X58070Y-48306D01*
X58114Y-48324D01*
X58162Y-48324D01*
X58713Y-48324D01*
X58757Y-48306D01*
X58791Y-48272D01*
X58809Y-48228D01*
X58809Y-48180D01*
X58809Y-47354D01*
X58791Y-47310D01*
X58757Y-47276D01*
X58713Y-47258D01*
X58665Y-47258D01*
X58114Y-47258D01*
X58070Y-47276D01*
X58036Y-47310D01*
X58018Y-47354D01*
X58018Y-47401D01*
X58018Y-47611D01*
X56697Y-47611D01*
X56684Y-47598D01*
X56689Y-47596D01*
X56723Y-47562D01*
X56873Y-47412D01*
X56885Y-47385D01*
X56912Y-47373D01*
X56946Y-47340D01*
X57096Y-47189D01*
X57107Y-47162D01*
X57135Y-47151D01*
X57168Y-47117D01*
X57319Y-46967D01*
X57325Y-46953D01*
X57344Y-46966D01*
X57413Y-46979D01*
X57700Y-46979D01*
X57768Y-46966D01*
X57827Y-46927D01*
X58424Y-46329D01*
X60175Y-46329D01*
X60236Y-46390D01*
X60294Y-46429D01*
X60363Y-46443D01*
X60783Y-46443D01*
X60813Y-46473D01*
X60858Y-46491D01*
X60905Y-46491D01*
X61141Y-46491D01*
X61174Y-46478D01*
X61322Y-46627D01*
X61381Y-46666D01*
X61381Y-46666D01*
X61450Y-46679D01*
X61476Y-46679D01*
X61530Y-46812D01*
X61686Y-46968D01*
X61709Y-46977D01*
X61667Y-46995D01*
X61660Y-46999D01*
X61615Y-47086D01*
X62000Y-47471D01*
X62384Y-47086D01*
X62339Y-46999D01*
X62289Y-46978D01*
X62312Y-46969D01*
X62468Y-46813D01*
X62552Y-46610D01*
X62553Y-46390D01*
X62553Y-47285D01*
X62504Y-47167D01*
X62500Y-47160D01*
X62413Y-47115D01*
X62028Y-47500D01*
X62413Y-47884D01*
X62500Y-47839D01*
X62592Y-47621D01*
X62593Y-47385D01*
X62593Y-49614D01*
X62384Y-49754D01*
X62384Y-47913D01*
X62000Y-47528D01*
X61615Y-47913D01*
X61660Y-48000D01*
X61878Y-48092D01*
X62114Y-48093D01*
X62332Y-48004D01*
X62339Y-48000D01*
X62384Y-47913D01*
X62384Y-49754D01*
X62328Y-49792D01*
X61986Y-49860D01*
X60614Y-49860D01*
X60598Y-49781D01*
X60577Y-49731D01*
X60577Y-49731D01*
X60469Y-49568D01*
X60469Y-49568D01*
X60431Y-49530D01*
X60431Y-49530D01*
X60268Y-49422D01*
X60218Y-49401D01*
X60027Y-49363D01*
X60027Y-49363D01*
X59972Y-49363D01*
X59972Y-49363D01*
X59781Y-49401D01*
X59731Y-49422D01*
X59568Y-49530D01*
X59568Y-49530D01*
X59530Y-49568D01*
X59530Y-49568D01*
X59422Y-49731D01*
X59401Y-49781D01*
X59385Y-49860D01*
X47614Y-49860D01*
X47598Y-49781D01*
X47577Y-49731D01*
X47577Y-49731D01*
X47469Y-49568D01*
X47469Y-49568D01*
X47431Y-49530D01*
X47431Y-49530D01*
X47268Y-49422D01*
X47218Y-49401D01*
X47027Y-49363D01*
X47027Y-49363D01*
X46972Y-49363D01*
X46972Y-49363D01*
X46781Y-49401D01*
X46731Y-49422D01*
X46568Y-49530D01*
X46568Y-49530D01*
X46530Y-49568D01*
X46530Y-49568D01*
X46422Y-49731D01*
X46401Y-49781D01*
X46385Y-49860D01*
X45749Y-49860D01*
X45749Y-47851D01*
X45636Y-47575D01*
X45425Y-47364D01*
X45149Y-47250D01*
X44851Y-47250D01*
X44575Y-47363D01*
X44364Y-47574D01*
X44250Y-47850D01*
X44250Y-48148D01*
X44363Y-48424D01*
X44574Y-48635D01*
X44850Y-48749D01*
X45148Y-48749D01*
X45424Y-48636D01*
X45635Y-48425D01*
X45749Y-48149D01*
X45749Y-47851D01*
X45749Y-49860D01*
X45013Y-49860D01*
X44671Y-49792D01*
X44393Y-49606D01*
X44207Y-49328D01*
X44139Y-48986D01*
X44139Y-43013D01*
X44207Y-42671D01*
X44393Y-42393D01*
X44671Y-42207D01*
X45013Y-42139D01*
X46385Y-42139D01*
X46401Y-42218D01*
X46422Y-42268D01*
X46530Y-42431D01*
X46530Y-42431D01*
X46568Y-42469D01*
X46568Y-42469D01*
X46731Y-42577D01*
X46731Y-42577D01*
X46781Y-42598D01*
X46972Y-42636D01*
X46972Y-42636D01*
X47027Y-42636D01*
X47027Y-42636D01*
X47218Y-42598D01*
X47268Y-42577D01*
X47431Y-42469D01*
X47431Y-42469D01*
X47469Y-42431D01*
X47469Y-42431D01*
X47577Y-42268D01*
X47577Y-42268D01*
X47598Y-42218D01*
X47614Y-42139D01*
X59385Y-42139D01*
X59401Y-42218D01*
X59422Y-42268D01*
X59530Y-42431D01*
X59530Y-42431D01*
X59568Y-42469D01*
X59568Y-42469D01*
X59731Y-42577D01*
X59731Y-42577D01*
X59781Y-42598D01*
X59972Y-42636D01*
X59972Y-42636D01*
X60027Y-42636D01*
X60027Y-42636D01*
X60218Y-42598D01*
X60268Y-42577D01*
X60431Y-42469D01*
X60431Y-42469D01*
X60469Y-42431D01*
X60469Y-42431D01*
X60577Y-42268D01*
X60577Y-42268D01*
X60598Y-42218D01*
X60614Y-42139D01*
X61986Y-42139D01*
X62328Y-42207D01*
X62606Y-42393D01*
X62792Y-42671D01*
X62860Y-43013D01*
X62860Y-48986D01*
M02*
