M48
;DRILL file {KiCad 4.0.2+dfsg1-stable} date Mon 23 May 2016 11:24:44 PM EDT
;FORMAT={-:-/ absolute / inch / decimal}
FMAT,2
INCH,TZ
T1C0.015
T2C0.035
T3C0.055
%
G90
G05
M72
T1
X4.46Y-4.5
X4.46Y-4.58
X4.46Y-4.66
X4.47Y-4.91
X4.48Y-4.3
X4.5Y-4.54
X4.5Y-4.62
X4.5Y-4.7
X4.51Y-4.95
X4.52Y-4.26
X4.64Y-4.38
X4.7Y-4.38
X4.7Y-4.43
X4.76Y-4.38
X4.77Y-4.44
X4.86Y-4.26
X4.87Y-4.78
X4.88Y-4.935
X4.92Y-4.26
X4.98Y-4.26
X5.04Y-4.26
X5.05Y-4.73
X5.05Y-4.79
X5.08Y-4.76
X5.1Y-4.26
X5.11Y-4.73
X5.11Y-4.79
X5.14Y-4.39
X5.14Y-4.52
X5.14Y-4.57
X5.65Y-4.95
X5.76Y-4.85
X5.93Y-4.37
X5.98Y-4.37
X6.03Y-4.37
X6.06Y-4.53
X6.06Y-4.67
X6.08Y-4.37
X6.2Y-4.26
X6.2Y-4.95
X6.24Y-4.3
X6.25Y-4.9
T2
X4.75Y-4.525
X4.75Y-4.625
X4.85Y-4.575
X4.85Y-4.675
T3
X6.23Y-4.45
X6.23Y-4.55
X6.23Y-4.65
X6.23Y-4.75
T0
M30
