G04 (created by PCBNEW (2013-mar-13)-testing) date Wed 10 Jun 2015 12:05:28 AM EDT*
%MOIN*%
G04 Gerber Fmt 3.4, Leading zero omitted, Abs format*
%FSLAX34Y34*%
G01*
G70*
G90*
G04 APERTURE LIST*
%ADD10C,0.005906*%
%ADD11R,0.098425X0.039370*%
%ADD12R,0.086614X0.086614*%
%ADD13C,0.086614*%
%ADD14R,0.080000X0.144000*%
%ADD15R,0.080000X0.040000*%
%ADD16C,0.125984*%
%ADD17C,0.070866*%
%ADD18R,0.350000X0.420000*%
%ADD19R,0.090000X0.070000*%
%ADD20R,0.216535X0.059055*%
%ADD21R,0.050000X0.100000*%
%ADD22R,0.021654X0.023622*%
%ADD23R,0.023622X0.021654*%
%ADD24R,0.055100X0.023600*%
%ADD25R,0.110200X0.157500*%
%ADD26R,0.036000X0.036000*%
G04 APERTURE END LIST*
G54D10*
G54D11*
X60688Y-44500D03*
X59311Y-44500D03*
G54D12*
X62000Y-44500D03*
G54D13*
X62000Y-45500D03*
X62000Y-46500D03*
X62000Y-47500D03*
G54D14*
X52200Y-43700D03*
G54D15*
X54800Y-43700D03*
X54800Y-42800D03*
X54800Y-44600D03*
G54D16*
X45000Y-44000D03*
X45000Y-48000D03*
G54D17*
X47500Y-45250D03*
X48500Y-45750D03*
X47500Y-46250D03*
X48500Y-46750D03*
G54D18*
X56650Y-47350D03*
G54D19*
X53200Y-46350D03*
X53200Y-48350D03*
G54D20*
X56800Y-44387D03*
X56800Y-42812D03*
G54D21*
X49700Y-45000D03*
X50900Y-45000D03*
G54D22*
X51763Y-45300D03*
X52236Y-45300D03*
G54D23*
X51650Y-48363D03*
X51650Y-48836D03*
X52200Y-48363D03*
X52200Y-48836D03*
X49450Y-48363D03*
X49450Y-48836D03*
X51100Y-48363D03*
X51100Y-48836D03*
X50550Y-48363D03*
X50550Y-48836D03*
X50000Y-48363D03*
X50000Y-48836D03*
G54D24*
X51937Y-46087D03*
X49837Y-46087D03*
X51937Y-46587D03*
X51937Y-47087D03*
X51937Y-47587D03*
X49837Y-46587D03*
X49837Y-47087D03*
X49837Y-47587D03*
G54D25*
X50887Y-46837D03*
G54D11*
X60688Y-47500D03*
X59311Y-47500D03*
G54D26*
X50200Y-43350D03*
X50200Y-44050D03*
X49400Y-43700D03*
G54D23*
X50800Y-43463D03*
X50800Y-43936D03*
X51300Y-43463D03*
X51300Y-43936D03*
M02*
