G04 (created by PCBNEW (2013-mar-13)-testing) date Wed 10 Jun 2015 12:05:28 AM EDT*
%MOIN*%
G04 Gerber Fmt 3.4, Leading zero omitted, Abs format*
%FSLAX34Y34*%
G01*
G70*
G90*
G04 APERTURE LIST*
%ADD10C,0.005906*%
%ADD11R,0.045000X0.025000*%
%ADD12R,0.031500X0.039400*%
%ADD13R,0.025000X0.045000*%
%ADD14R,0.086614X0.086614*%
%ADD15C,0.086614*%
%ADD16R,0.035000X0.055000*%
%ADD17R,0.055100X0.023600*%
%ADD18C,0.125984*%
%ADD19C,0.070866*%
%ADD20R,0.055000X0.055000*%
%ADD21C,0.055000*%
%ADD22R,0.023622X0.021654*%
%ADD23R,0.021654X0.023622*%
%ADD24R,0.055118X0.082677*%
%ADD25R,0.086600X0.070900*%
G04 APERTURE END LIST*
G54D10*
G54D11*
X49500Y-45606D03*
X49500Y-46393D03*
G54D12*
X48450Y-43917D03*
X48075Y-44783D03*
X48825Y-44783D03*
G54D13*
X51893Y-47500D03*
X51106Y-47500D03*
G54D14*
X62000Y-44500D03*
G54D15*
X62000Y-45500D03*
X62000Y-46500D03*
X62000Y-47500D03*
G54D16*
X51407Y-44450D03*
X52392Y-44450D03*
G54D17*
X50450Y-45250D03*
X52550Y-45250D03*
X50450Y-45750D03*
X50450Y-46250D03*
X50450Y-46750D03*
X52550Y-45750D03*
X52550Y-46250D03*
X52550Y-46750D03*
G54D18*
X45000Y-44000D03*
X45000Y-48000D03*
G54D19*
X47500Y-45250D03*
X48500Y-45750D03*
X47500Y-46250D03*
X48500Y-46750D03*
G54D20*
X57000Y-43000D03*
G54D21*
X56000Y-43000D03*
X55000Y-43000D03*
X54000Y-43000D03*
G54D20*
X54000Y-49000D03*
G54D21*
X55000Y-49000D03*
X56000Y-49000D03*
X57000Y-49000D03*
G54D22*
X50450Y-44213D03*
X50450Y-44686D03*
G54D23*
X53813Y-44000D03*
X54286Y-44000D03*
G54D22*
X52600Y-47513D03*
X52600Y-47986D03*
X61000Y-46736D03*
X61000Y-46263D03*
X61000Y-45263D03*
X61000Y-45736D03*
G54D24*
X60185Y-47791D03*
X60185Y-44208D03*
X58414Y-47791D03*
X58414Y-44208D03*
G54D10*
G36*
X53487Y-46604D02*
X53336Y-46453D01*
X53573Y-46217D01*
X53723Y-46367D01*
X53487Y-46604D01*
X53487Y-46604D01*
G37*
G36*
X53709Y-46826D02*
X53559Y-46676D01*
X53796Y-46439D01*
X53946Y-46590D01*
X53709Y-46826D01*
X53709Y-46826D01*
G37*
G36*
X53932Y-47049D02*
X53782Y-46899D01*
X54018Y-46662D01*
X54169Y-46812D01*
X53932Y-47049D01*
X53932Y-47049D01*
G37*
G36*
X54155Y-47272D02*
X54005Y-47121D01*
X54241Y-46885D01*
X54392Y-47035D01*
X54155Y-47272D01*
X54155Y-47272D01*
G37*
G36*
X54378Y-47494D02*
X54227Y-47344D01*
X54464Y-47107D01*
X54614Y-47258D01*
X54378Y-47494D01*
X54378Y-47494D01*
G37*
G36*
X54600Y-47717D02*
X54450Y-47567D01*
X54687Y-47330D01*
X54837Y-47481D01*
X54600Y-47717D01*
X54600Y-47717D01*
G37*
G36*
X54823Y-47940D02*
X54673Y-47790D01*
X54909Y-47553D01*
X55060Y-47703D01*
X54823Y-47940D01*
X54823Y-47940D01*
G37*
G36*
X55046Y-48163D02*
X54895Y-48012D01*
X55132Y-47776D01*
X55282Y-47926D01*
X55046Y-48163D01*
X55046Y-48163D01*
G37*
G36*
X55046Y-48163D02*
X54895Y-48012D01*
X55132Y-47776D01*
X55282Y-47926D01*
X55046Y-48163D01*
X55046Y-48163D01*
G37*
G36*
X54823Y-47940D02*
X54673Y-47790D01*
X54909Y-47553D01*
X55060Y-47703D01*
X54823Y-47940D01*
X54823Y-47940D01*
G37*
G36*
X54600Y-47717D02*
X54450Y-47567D01*
X54687Y-47330D01*
X54837Y-47481D01*
X54600Y-47717D01*
X54600Y-47717D01*
G37*
G36*
X54378Y-47494D02*
X54227Y-47344D01*
X54464Y-47107D01*
X54614Y-47258D01*
X54378Y-47494D01*
X54378Y-47494D01*
G37*
G36*
X54155Y-47272D02*
X54005Y-47121D01*
X54241Y-46885D01*
X54392Y-47035D01*
X54155Y-47272D01*
X54155Y-47272D01*
G37*
G36*
X53932Y-47049D02*
X53782Y-46899D01*
X54018Y-46662D01*
X54169Y-46812D01*
X53932Y-47049D01*
X53932Y-47049D01*
G37*
G36*
X53709Y-46826D02*
X53559Y-46676D01*
X53796Y-46439D01*
X53946Y-46590D01*
X53709Y-46826D01*
X53709Y-46826D01*
G37*
G36*
X53487Y-46604D02*
X53336Y-46453D01*
X53573Y-46217D01*
X53723Y-46367D01*
X53487Y-46604D01*
X53487Y-46604D01*
G37*
G36*
X53487Y-46604D02*
X53336Y-46453D01*
X53573Y-46217D01*
X53723Y-46367D01*
X53487Y-46604D01*
X53487Y-46604D01*
G37*
G36*
X53709Y-46826D02*
X53559Y-46676D01*
X53796Y-46439D01*
X53946Y-46590D01*
X53709Y-46826D01*
X53709Y-46826D01*
G37*
G36*
X53932Y-47049D02*
X53782Y-46899D01*
X54018Y-46662D01*
X54169Y-46812D01*
X53932Y-47049D01*
X53932Y-47049D01*
G37*
G36*
X54155Y-47272D02*
X54005Y-47121D01*
X54241Y-46885D01*
X54392Y-47035D01*
X54155Y-47272D01*
X54155Y-47272D01*
G37*
G36*
X54378Y-47494D02*
X54227Y-47344D01*
X54464Y-47107D01*
X54614Y-47258D01*
X54378Y-47494D01*
X54378Y-47494D01*
G37*
G36*
X54600Y-47717D02*
X54450Y-47567D01*
X54687Y-47330D01*
X54837Y-47481D01*
X54600Y-47717D01*
X54600Y-47717D01*
G37*
G36*
X54823Y-47940D02*
X54673Y-47790D01*
X54909Y-47553D01*
X55060Y-47703D01*
X54823Y-47940D01*
X54823Y-47940D01*
G37*
G36*
X55046Y-48163D02*
X54895Y-48012D01*
X55132Y-47776D01*
X55282Y-47926D01*
X55046Y-48163D01*
X55046Y-48163D01*
G37*
G36*
X55046Y-48163D02*
X54895Y-48012D01*
X55132Y-47776D01*
X55282Y-47926D01*
X55046Y-48163D01*
X55046Y-48163D01*
G37*
G36*
X54823Y-47940D02*
X54673Y-47790D01*
X54909Y-47553D01*
X55060Y-47703D01*
X54823Y-47940D01*
X54823Y-47940D01*
G37*
G36*
X54600Y-47717D02*
X54450Y-47567D01*
X54687Y-47330D01*
X54837Y-47481D01*
X54600Y-47717D01*
X54600Y-47717D01*
G37*
G36*
X54378Y-47494D02*
X54227Y-47344D01*
X54464Y-47107D01*
X54614Y-47258D01*
X54378Y-47494D01*
X54378Y-47494D01*
G37*
G36*
X54155Y-47272D02*
X54005Y-47121D01*
X54241Y-46885D01*
X54392Y-47035D01*
X54155Y-47272D01*
X54155Y-47272D01*
G37*
G36*
X53932Y-47049D02*
X53782Y-46899D01*
X54018Y-46662D01*
X54169Y-46812D01*
X53932Y-47049D01*
X53932Y-47049D01*
G37*
G36*
X53709Y-46826D02*
X53559Y-46676D01*
X53796Y-46439D01*
X53946Y-46590D01*
X53709Y-46826D01*
X53709Y-46826D01*
G37*
G36*
X53487Y-46604D02*
X53336Y-46453D01*
X53573Y-46217D01*
X53723Y-46367D01*
X53487Y-46604D01*
X53487Y-46604D01*
G37*
G36*
X53573Y-45782D02*
X53336Y-45546D01*
X53487Y-45395D01*
X53723Y-45632D01*
X53573Y-45782D01*
X53573Y-45782D01*
G37*
G36*
X53796Y-45560D02*
X53559Y-45323D01*
X53709Y-45173D01*
X53946Y-45409D01*
X53796Y-45560D01*
X53796Y-45560D01*
G37*
G36*
X54018Y-45337D02*
X53782Y-45100D01*
X53932Y-44950D01*
X54169Y-45187D01*
X54018Y-45337D01*
X54018Y-45337D01*
G37*
G36*
X54241Y-45114D02*
X54005Y-44878D01*
X54155Y-44727D01*
X54392Y-44964D01*
X54241Y-45114D01*
X54241Y-45114D01*
G37*
G36*
X54464Y-44892D02*
X54227Y-44655D01*
X54378Y-44505D01*
X54614Y-44741D01*
X54464Y-44892D01*
X54464Y-44892D01*
G37*
G36*
X54687Y-44669D02*
X54450Y-44432D01*
X54600Y-44282D01*
X54837Y-44518D01*
X54687Y-44669D01*
X54687Y-44669D01*
G37*
G36*
X54909Y-44446D02*
X54673Y-44209D01*
X54823Y-44059D01*
X55060Y-44296D01*
X54909Y-44446D01*
X54909Y-44446D01*
G37*
G36*
X55132Y-44223D02*
X54895Y-43987D01*
X55046Y-43836D01*
X55282Y-44073D01*
X55132Y-44223D01*
X55132Y-44223D01*
G37*
G36*
X55867Y-44223D02*
X55717Y-44073D01*
X55953Y-43836D01*
X56104Y-43987D01*
X55867Y-44223D01*
X55867Y-44223D01*
G37*
G36*
X56090Y-44446D02*
X55939Y-44296D01*
X56176Y-44059D01*
X56326Y-44209D01*
X56090Y-44446D01*
X56090Y-44446D01*
G37*
G36*
X56312Y-44669D02*
X56162Y-44518D01*
X56399Y-44282D01*
X56549Y-44432D01*
X56312Y-44669D01*
X56312Y-44669D01*
G37*
G36*
X56535Y-44892D02*
X56385Y-44741D01*
X56621Y-44505D01*
X56772Y-44655D01*
X56535Y-44892D01*
X56535Y-44892D01*
G37*
G36*
X56758Y-45114D02*
X56607Y-44964D01*
X56844Y-44727D01*
X56994Y-44878D01*
X56758Y-45114D01*
X56758Y-45114D01*
G37*
G36*
X56981Y-45337D02*
X56830Y-45187D01*
X57067Y-44950D01*
X57217Y-45100D01*
X56981Y-45337D01*
X56981Y-45337D01*
G37*
G36*
X57203Y-45560D02*
X57053Y-45409D01*
X57290Y-45173D01*
X57440Y-45323D01*
X57203Y-45560D01*
X57203Y-45560D01*
G37*
G36*
X57426Y-45782D02*
X57276Y-45632D01*
X57512Y-45395D01*
X57663Y-45546D01*
X57426Y-45782D01*
X57426Y-45782D01*
G37*
G36*
X57512Y-46604D02*
X57276Y-46367D01*
X57426Y-46217D01*
X57663Y-46453D01*
X57512Y-46604D01*
X57512Y-46604D01*
G37*
G36*
X57290Y-46826D02*
X57053Y-46590D01*
X57203Y-46439D01*
X57440Y-46676D01*
X57290Y-46826D01*
X57290Y-46826D01*
G37*
G36*
X57067Y-47049D02*
X56830Y-46812D01*
X56981Y-46662D01*
X57217Y-46899D01*
X57067Y-47049D01*
X57067Y-47049D01*
G37*
G36*
X56844Y-47272D02*
X56607Y-47035D01*
X56758Y-46885D01*
X56994Y-47121D01*
X56844Y-47272D01*
X56844Y-47272D01*
G37*
G36*
X56621Y-47494D02*
X56385Y-47258D01*
X56535Y-47107D01*
X56772Y-47344D01*
X56621Y-47494D01*
X56621Y-47494D01*
G37*
G36*
X56399Y-47717D02*
X56162Y-47481D01*
X56312Y-47330D01*
X56549Y-47567D01*
X56399Y-47717D01*
X56399Y-47717D01*
G37*
G36*
X56176Y-47940D02*
X55939Y-47703D01*
X56090Y-47553D01*
X56326Y-47790D01*
X56176Y-47940D01*
X56176Y-47940D01*
G37*
G36*
X55953Y-48163D02*
X55717Y-47926D01*
X55867Y-47776D01*
X56104Y-48012D01*
X55953Y-48163D01*
X55953Y-48163D01*
G37*
G54D25*
X46000Y-45210D03*
X46000Y-46790D03*
G54D11*
X49500Y-43906D03*
X49500Y-44693D03*
X49500Y-47306D03*
X49500Y-48093D03*
M02*
