G04 (created by PCBNEW (2013-mar-13)-testing) date Wed 10 Jun 2015 12:05:28 AM EDT*
%MOIN*%
G04 Gerber Fmt 3.4, Leading zero omitted, Abs format*
%FSLAX34Y34*%
G01*
G70*
G90*
G04 APERTURE LIST*
%ADD10C,0.005906*%
%ADD11R,0.086614X0.086614*%
%ADD12C,0.086614*%
%ADD13C,0.070866*%
%ADD14C,0.030000*%
%ADD15C,0.007992*%
G04 APERTURE END LIST*
G54D10*
G54D11*
X62000Y-44500D03*
G54D12*
X62000Y-45500D03*
X62000Y-46500D03*
X62000Y-47500D03*
G54D13*
X47500Y-45250D03*
X48500Y-45750D03*
X47500Y-46250D03*
X48500Y-46750D03*
G54D14*
X49000Y-47150D03*
X52900Y-44000D03*
X44500Y-49000D03*
X45500Y-49500D03*
X45000Y-49500D03*
X48500Y-49500D03*
X51500Y-49500D03*
X50500Y-49500D03*
X49500Y-49500D03*
X49000Y-49500D03*
X49050Y-48800D03*
X50000Y-49500D03*
X51000Y-49500D03*
X52000Y-49500D03*
X44500Y-46500D03*
X44500Y-45500D03*
X44500Y-45000D03*
X44500Y-46000D03*
X44500Y-47000D03*
X44500Y-43000D03*
X45000Y-42500D03*
X45500Y-42500D03*
X51500Y-42500D03*
X50500Y-42500D03*
X49500Y-42500D03*
X49000Y-42500D03*
X50000Y-42500D03*
X51000Y-42500D03*
X52000Y-42500D03*
X48500Y-42500D03*
X51250Y-46600D03*
X51250Y-46950D03*
X54000Y-44400D03*
X51900Y-44800D03*
X61500Y-49500D03*
X62500Y-49000D03*
X62000Y-49500D03*
X59000Y-49500D03*
X62500Y-43000D03*
X61500Y-42500D03*
X62000Y-42500D03*
X62500Y-43500D03*
X58500Y-42500D03*
X59300Y-45100D03*
X59750Y-45100D03*
X59300Y-45600D03*
X59750Y-45600D03*
X53650Y-47650D03*
X53200Y-47650D03*
X50500Y-47450D03*
X59300Y-46450D03*
X59750Y-46900D03*
X59750Y-46450D03*
X59300Y-46900D03*
X50500Y-47100D03*
X51250Y-46250D03*
X47700Y-44400D03*
X49750Y-43300D03*
X50800Y-48050D03*
X60700Y-45000D03*
X60700Y-47000D03*
G54D10*
G36*
X62860Y-48986D02*
X62792Y-49328D01*
X62606Y-49606D01*
X62604Y-49607D01*
X62604Y-47483D01*
X62564Y-47283D01*
X62553Y-47274D01*
X62553Y-46390D01*
X62469Y-46187D01*
X62313Y-46031D01*
X62237Y-46000D01*
X62312Y-45969D01*
X62468Y-45813D01*
X62552Y-45610D01*
X62553Y-45390D01*
X62469Y-45187D01*
X62335Y-45052D01*
X62456Y-45052D01*
X62500Y-45034D01*
X62534Y-45000D01*
X62552Y-44956D01*
X62552Y-44909D01*
X62552Y-44043D01*
X62534Y-43999D01*
X62500Y-43965D01*
X62456Y-43947D01*
X62409Y-43947D01*
X61543Y-43947D01*
X61499Y-43965D01*
X61465Y-43999D01*
X61447Y-44043D01*
X61447Y-44090D01*
X61447Y-44956D01*
X61465Y-45000D01*
X61499Y-45034D01*
X61543Y-45052D01*
X61590Y-45052D01*
X61665Y-45052D01*
X61531Y-45186D01*
X61447Y-45389D01*
X61446Y-45609D01*
X61530Y-45812D01*
X61686Y-45968D01*
X61762Y-45999D01*
X61687Y-46030D01*
X61531Y-46186D01*
X61447Y-46389D01*
X61446Y-46609D01*
X61530Y-46812D01*
X61686Y-46968D01*
X61739Y-46990D01*
X61727Y-47005D01*
X62000Y-47278D01*
X62272Y-47005D01*
X62260Y-46990D01*
X62312Y-46969D01*
X62468Y-46813D01*
X62552Y-46610D01*
X62553Y-46390D01*
X62553Y-47274D01*
X62494Y-47227D01*
X62221Y-47500D01*
X62494Y-47772D01*
X62564Y-47716D01*
X62604Y-47483D01*
X62604Y-49607D01*
X62328Y-49792D01*
X62272Y-49803D01*
X62272Y-47994D01*
X62000Y-47721D01*
X61778Y-47943D01*
X61778Y-47500D01*
X61505Y-47227D01*
X61435Y-47283D01*
X61395Y-47516D01*
X61435Y-47716D01*
X61505Y-47772D01*
X61778Y-47500D01*
X61778Y-47943D01*
X61727Y-47994D01*
X61783Y-48064D01*
X62016Y-48104D01*
X62216Y-48064D01*
X62272Y-47994D01*
X62272Y-49803D01*
X61986Y-49860D01*
X60969Y-49860D01*
X60969Y-46946D01*
X60969Y-44946D01*
X60928Y-44847D01*
X60853Y-44771D01*
X60753Y-44730D01*
X60646Y-44730D01*
X60547Y-44771D01*
X60471Y-44846D01*
X60430Y-44946D01*
X60430Y-45053D01*
X60471Y-45152D01*
X60546Y-45228D01*
X60646Y-45269D01*
X60753Y-45269D01*
X60852Y-45228D01*
X60928Y-45153D01*
X60969Y-45053D01*
X60969Y-44946D01*
X60969Y-46946D01*
X60928Y-46847D01*
X60853Y-46771D01*
X60753Y-46730D01*
X60646Y-46730D01*
X60547Y-46771D01*
X60471Y-46846D01*
X60430Y-46946D01*
X60430Y-47053D01*
X60471Y-47152D01*
X60546Y-47228D01*
X60646Y-47269D01*
X60753Y-47269D01*
X60852Y-47228D01*
X60928Y-47153D01*
X60969Y-47053D01*
X60969Y-46946D01*
X60969Y-49860D01*
X60614Y-49860D01*
X60598Y-49781D01*
X60577Y-49731D01*
X60577Y-49731D01*
X60469Y-49568D01*
X60469Y-49568D01*
X60431Y-49530D01*
X60431Y-49530D01*
X60268Y-49422D01*
X60218Y-49401D01*
X60027Y-49363D01*
X60027Y-49363D01*
X59972Y-49363D01*
X59972Y-49363D01*
X59781Y-49401D01*
X59731Y-49422D01*
X59568Y-49530D01*
X59568Y-49530D01*
X59530Y-49568D01*
X59530Y-49568D01*
X59422Y-49731D01*
X59401Y-49781D01*
X59385Y-49860D01*
X53169Y-49860D01*
X53169Y-43946D01*
X53128Y-43847D01*
X53053Y-43771D01*
X52953Y-43730D01*
X52846Y-43730D01*
X52747Y-43771D01*
X52671Y-43846D01*
X52630Y-43946D01*
X52630Y-44053D01*
X52671Y-44152D01*
X52746Y-44228D01*
X52846Y-44269D01*
X52953Y-44269D01*
X53052Y-44228D01*
X53128Y-44153D01*
X53169Y-44053D01*
X53169Y-43946D01*
X53169Y-49860D01*
X51069Y-49860D01*
X51069Y-47996D01*
X51028Y-47897D01*
X50953Y-47821D01*
X50853Y-47780D01*
X50746Y-47780D01*
X50647Y-47821D01*
X50571Y-47896D01*
X50530Y-47996D01*
X50530Y-48103D01*
X50571Y-48202D01*
X50646Y-48278D01*
X50746Y-48319D01*
X50853Y-48319D01*
X50952Y-48278D01*
X51028Y-48203D01*
X51069Y-48103D01*
X51069Y-47996D01*
X51069Y-49860D01*
X50019Y-49860D01*
X50019Y-43246D01*
X49978Y-43147D01*
X49903Y-43071D01*
X49803Y-43030D01*
X49696Y-43030D01*
X49597Y-43071D01*
X49521Y-43146D01*
X49480Y-43246D01*
X49480Y-43353D01*
X49521Y-43452D01*
X49596Y-43528D01*
X49696Y-43569D01*
X49803Y-43569D01*
X49902Y-43528D01*
X49978Y-43453D01*
X50019Y-43353D01*
X50019Y-43246D01*
X50019Y-49860D01*
X49269Y-49860D01*
X49269Y-47096D01*
X49228Y-46997D01*
X49153Y-46921D01*
X49053Y-46880D01*
X48959Y-46880D01*
X48974Y-46844D01*
X48974Y-46656D01*
X48974Y-45656D01*
X48902Y-45481D01*
X48768Y-45348D01*
X48594Y-45275D01*
X48406Y-45275D01*
X48231Y-45347D01*
X48098Y-45481D01*
X48025Y-45655D01*
X48025Y-45843D01*
X48097Y-46018D01*
X48231Y-46151D01*
X48405Y-46224D01*
X48593Y-46224D01*
X48768Y-46152D01*
X48901Y-46018D01*
X48974Y-45844D01*
X48974Y-45656D01*
X48974Y-46656D01*
X48902Y-46481D01*
X48768Y-46348D01*
X48594Y-46275D01*
X48406Y-46275D01*
X48231Y-46347D01*
X48098Y-46481D01*
X48025Y-46655D01*
X48025Y-46843D01*
X48097Y-47018D01*
X48231Y-47151D01*
X48405Y-47224D01*
X48593Y-47224D01*
X48730Y-47168D01*
X48730Y-47203D01*
X48771Y-47302D01*
X48846Y-47378D01*
X48946Y-47419D01*
X49053Y-47419D01*
X49152Y-47378D01*
X49228Y-47303D01*
X49269Y-47203D01*
X49269Y-47096D01*
X49269Y-49860D01*
X48023Y-49860D01*
X48023Y-45214D01*
X47997Y-45082D01*
X47969Y-45062D01*
X47969Y-44346D01*
X47928Y-44247D01*
X47853Y-44171D01*
X47753Y-44130D01*
X47646Y-44130D01*
X47547Y-44171D01*
X47471Y-44246D01*
X47430Y-44346D01*
X47430Y-44453D01*
X47471Y-44552D01*
X47546Y-44628D01*
X47646Y-44669D01*
X47753Y-44669D01*
X47852Y-44628D01*
X47928Y-44553D01*
X47969Y-44453D01*
X47969Y-44346D01*
X47969Y-45062D01*
X47935Y-45036D01*
X47721Y-45250D01*
X47935Y-45463D01*
X47997Y-45417D01*
X48023Y-45214D01*
X48023Y-49860D01*
X47974Y-49860D01*
X47974Y-46156D01*
X47902Y-45981D01*
X47768Y-45848D01*
X47713Y-45825D01*
X47713Y-45685D01*
X47713Y-44814D01*
X47667Y-44752D01*
X47464Y-44726D01*
X47332Y-44752D01*
X47286Y-44814D01*
X47500Y-45028D01*
X47713Y-44814D01*
X47713Y-45685D01*
X47500Y-45471D01*
X47286Y-45685D01*
X47332Y-45747D01*
X47535Y-45773D01*
X47667Y-45747D01*
X47713Y-45685D01*
X47713Y-45825D01*
X47594Y-45775D01*
X47406Y-45775D01*
X47278Y-45828D01*
X47278Y-45250D01*
X47064Y-45036D01*
X47002Y-45082D01*
X46976Y-45285D01*
X47002Y-45417D01*
X47064Y-45463D01*
X47278Y-45250D01*
X47278Y-45828D01*
X47231Y-45847D01*
X47098Y-45981D01*
X47025Y-46155D01*
X47025Y-46343D01*
X47097Y-46518D01*
X47231Y-46651D01*
X47405Y-46724D01*
X47593Y-46724D01*
X47768Y-46652D01*
X47901Y-46518D01*
X47974Y-46344D01*
X47974Y-46156D01*
X47974Y-49860D01*
X47614Y-49860D01*
X47598Y-49781D01*
X47577Y-49731D01*
X47577Y-49731D01*
X47469Y-49568D01*
X47469Y-49568D01*
X47431Y-49530D01*
X47431Y-49530D01*
X47268Y-49422D01*
X47218Y-49401D01*
X47027Y-49363D01*
X47027Y-49363D01*
X46972Y-49363D01*
X46972Y-49363D01*
X46781Y-49401D01*
X46731Y-49422D01*
X46568Y-49530D01*
X46568Y-49530D01*
X46530Y-49568D01*
X46530Y-49568D01*
X46422Y-49731D01*
X46401Y-49781D01*
X46385Y-49860D01*
X45749Y-49860D01*
X45749Y-47851D01*
X45749Y-43851D01*
X45636Y-43575D01*
X45425Y-43364D01*
X45149Y-43250D01*
X44851Y-43250D01*
X44575Y-43363D01*
X44364Y-43574D01*
X44250Y-43850D01*
X44250Y-44148D01*
X44363Y-44424D01*
X44574Y-44635D01*
X44850Y-44749D01*
X45148Y-44749D01*
X45424Y-44636D01*
X45635Y-44425D01*
X45749Y-44149D01*
X45749Y-43851D01*
X45749Y-47851D01*
X45636Y-47575D01*
X45425Y-47364D01*
X45149Y-47250D01*
X44851Y-47250D01*
X44575Y-47363D01*
X44364Y-47574D01*
X44250Y-47850D01*
X44250Y-48148D01*
X44363Y-48424D01*
X44574Y-48635D01*
X44850Y-48749D01*
X45148Y-48749D01*
X45424Y-48636D01*
X45635Y-48425D01*
X45749Y-48149D01*
X45749Y-47851D01*
X45749Y-49860D01*
X45013Y-49860D01*
X44671Y-49792D01*
X44393Y-49606D01*
X44207Y-49328D01*
X44139Y-48986D01*
X44139Y-43013D01*
X44207Y-42671D01*
X44393Y-42393D01*
X44671Y-42207D01*
X45013Y-42139D01*
X46385Y-42139D01*
X46401Y-42218D01*
X46422Y-42268D01*
X46530Y-42431D01*
X46530Y-42431D01*
X46568Y-42469D01*
X46568Y-42469D01*
X46731Y-42577D01*
X46731Y-42577D01*
X46781Y-42598D01*
X46972Y-42636D01*
X46972Y-42636D01*
X47027Y-42636D01*
X47027Y-42636D01*
X47218Y-42598D01*
X47268Y-42577D01*
X47431Y-42469D01*
X47431Y-42469D01*
X47469Y-42431D01*
X47469Y-42431D01*
X47577Y-42268D01*
X47577Y-42268D01*
X47598Y-42218D01*
X47614Y-42139D01*
X59385Y-42139D01*
X59401Y-42218D01*
X59422Y-42268D01*
X59530Y-42431D01*
X59530Y-42431D01*
X59568Y-42469D01*
X59568Y-42469D01*
X59731Y-42577D01*
X59731Y-42577D01*
X59781Y-42598D01*
X59972Y-42636D01*
X59972Y-42636D01*
X60027Y-42636D01*
X60027Y-42636D01*
X60218Y-42598D01*
X60268Y-42577D01*
X60431Y-42469D01*
X60431Y-42469D01*
X60469Y-42431D01*
X60469Y-42431D01*
X60577Y-42268D01*
X60577Y-42268D01*
X60598Y-42218D01*
X60614Y-42139D01*
X61986Y-42139D01*
X62328Y-42207D01*
X62606Y-42393D01*
X62792Y-42671D01*
X62860Y-43013D01*
X62860Y-48986D01*
X62860Y-48986D01*
G37*
G54D15*
X62860Y-48986D02*
X62792Y-49328D01*
X62606Y-49606D01*
X62604Y-49607D01*
X62604Y-47483D01*
X62564Y-47283D01*
X62553Y-47274D01*
X62553Y-46390D01*
X62469Y-46187D01*
X62313Y-46031D01*
X62237Y-46000D01*
X62312Y-45969D01*
X62468Y-45813D01*
X62552Y-45610D01*
X62553Y-45390D01*
X62469Y-45187D01*
X62335Y-45052D01*
X62456Y-45052D01*
X62500Y-45034D01*
X62534Y-45000D01*
X62552Y-44956D01*
X62552Y-44909D01*
X62552Y-44043D01*
X62534Y-43999D01*
X62500Y-43965D01*
X62456Y-43947D01*
X62409Y-43947D01*
X61543Y-43947D01*
X61499Y-43965D01*
X61465Y-43999D01*
X61447Y-44043D01*
X61447Y-44090D01*
X61447Y-44956D01*
X61465Y-45000D01*
X61499Y-45034D01*
X61543Y-45052D01*
X61590Y-45052D01*
X61665Y-45052D01*
X61531Y-45186D01*
X61447Y-45389D01*
X61446Y-45609D01*
X61530Y-45812D01*
X61686Y-45968D01*
X61762Y-45999D01*
X61687Y-46030D01*
X61531Y-46186D01*
X61447Y-46389D01*
X61446Y-46609D01*
X61530Y-46812D01*
X61686Y-46968D01*
X61739Y-46990D01*
X61727Y-47005D01*
X62000Y-47278D01*
X62272Y-47005D01*
X62260Y-46990D01*
X62312Y-46969D01*
X62468Y-46813D01*
X62552Y-46610D01*
X62553Y-46390D01*
X62553Y-47274D01*
X62494Y-47227D01*
X62221Y-47500D01*
X62494Y-47772D01*
X62564Y-47716D01*
X62604Y-47483D01*
X62604Y-49607D01*
X62328Y-49792D01*
X62272Y-49803D01*
X62272Y-47994D01*
X62000Y-47721D01*
X61778Y-47943D01*
X61778Y-47500D01*
X61505Y-47227D01*
X61435Y-47283D01*
X61395Y-47516D01*
X61435Y-47716D01*
X61505Y-47772D01*
X61778Y-47500D01*
X61778Y-47943D01*
X61727Y-47994D01*
X61783Y-48064D01*
X62016Y-48104D01*
X62216Y-48064D01*
X62272Y-47994D01*
X62272Y-49803D01*
X61986Y-49860D01*
X60969Y-49860D01*
X60969Y-46946D01*
X60969Y-44946D01*
X60928Y-44847D01*
X60853Y-44771D01*
X60753Y-44730D01*
X60646Y-44730D01*
X60547Y-44771D01*
X60471Y-44846D01*
X60430Y-44946D01*
X60430Y-45053D01*
X60471Y-45152D01*
X60546Y-45228D01*
X60646Y-45269D01*
X60753Y-45269D01*
X60852Y-45228D01*
X60928Y-45153D01*
X60969Y-45053D01*
X60969Y-44946D01*
X60969Y-46946D01*
X60928Y-46847D01*
X60853Y-46771D01*
X60753Y-46730D01*
X60646Y-46730D01*
X60547Y-46771D01*
X60471Y-46846D01*
X60430Y-46946D01*
X60430Y-47053D01*
X60471Y-47152D01*
X60546Y-47228D01*
X60646Y-47269D01*
X60753Y-47269D01*
X60852Y-47228D01*
X60928Y-47153D01*
X60969Y-47053D01*
X60969Y-46946D01*
X60969Y-49860D01*
X60614Y-49860D01*
X60598Y-49781D01*
X60577Y-49731D01*
X60577Y-49731D01*
X60469Y-49568D01*
X60469Y-49568D01*
X60431Y-49530D01*
X60431Y-49530D01*
X60268Y-49422D01*
X60218Y-49401D01*
X60027Y-49363D01*
X60027Y-49363D01*
X59972Y-49363D01*
X59972Y-49363D01*
X59781Y-49401D01*
X59731Y-49422D01*
X59568Y-49530D01*
X59568Y-49530D01*
X59530Y-49568D01*
X59530Y-49568D01*
X59422Y-49731D01*
X59401Y-49781D01*
X59385Y-49860D01*
X53169Y-49860D01*
X53169Y-43946D01*
X53128Y-43847D01*
X53053Y-43771D01*
X52953Y-43730D01*
X52846Y-43730D01*
X52747Y-43771D01*
X52671Y-43846D01*
X52630Y-43946D01*
X52630Y-44053D01*
X52671Y-44152D01*
X52746Y-44228D01*
X52846Y-44269D01*
X52953Y-44269D01*
X53052Y-44228D01*
X53128Y-44153D01*
X53169Y-44053D01*
X53169Y-43946D01*
X53169Y-49860D01*
X51069Y-49860D01*
X51069Y-47996D01*
X51028Y-47897D01*
X50953Y-47821D01*
X50853Y-47780D01*
X50746Y-47780D01*
X50647Y-47821D01*
X50571Y-47896D01*
X50530Y-47996D01*
X50530Y-48103D01*
X50571Y-48202D01*
X50646Y-48278D01*
X50746Y-48319D01*
X50853Y-48319D01*
X50952Y-48278D01*
X51028Y-48203D01*
X51069Y-48103D01*
X51069Y-47996D01*
X51069Y-49860D01*
X50019Y-49860D01*
X50019Y-43246D01*
X49978Y-43147D01*
X49903Y-43071D01*
X49803Y-43030D01*
X49696Y-43030D01*
X49597Y-43071D01*
X49521Y-43146D01*
X49480Y-43246D01*
X49480Y-43353D01*
X49521Y-43452D01*
X49596Y-43528D01*
X49696Y-43569D01*
X49803Y-43569D01*
X49902Y-43528D01*
X49978Y-43453D01*
X50019Y-43353D01*
X50019Y-43246D01*
X50019Y-49860D01*
X49269Y-49860D01*
X49269Y-47096D01*
X49228Y-46997D01*
X49153Y-46921D01*
X49053Y-46880D01*
X48959Y-46880D01*
X48974Y-46844D01*
X48974Y-46656D01*
X48974Y-45656D01*
X48902Y-45481D01*
X48768Y-45348D01*
X48594Y-45275D01*
X48406Y-45275D01*
X48231Y-45347D01*
X48098Y-45481D01*
X48025Y-45655D01*
X48025Y-45843D01*
X48097Y-46018D01*
X48231Y-46151D01*
X48405Y-46224D01*
X48593Y-46224D01*
X48768Y-46152D01*
X48901Y-46018D01*
X48974Y-45844D01*
X48974Y-45656D01*
X48974Y-46656D01*
X48902Y-46481D01*
X48768Y-46348D01*
X48594Y-46275D01*
X48406Y-46275D01*
X48231Y-46347D01*
X48098Y-46481D01*
X48025Y-46655D01*
X48025Y-46843D01*
X48097Y-47018D01*
X48231Y-47151D01*
X48405Y-47224D01*
X48593Y-47224D01*
X48730Y-47168D01*
X48730Y-47203D01*
X48771Y-47302D01*
X48846Y-47378D01*
X48946Y-47419D01*
X49053Y-47419D01*
X49152Y-47378D01*
X49228Y-47303D01*
X49269Y-47203D01*
X49269Y-47096D01*
X49269Y-49860D01*
X48023Y-49860D01*
X48023Y-45214D01*
X47997Y-45082D01*
X47969Y-45062D01*
X47969Y-44346D01*
X47928Y-44247D01*
X47853Y-44171D01*
X47753Y-44130D01*
X47646Y-44130D01*
X47547Y-44171D01*
X47471Y-44246D01*
X47430Y-44346D01*
X47430Y-44453D01*
X47471Y-44552D01*
X47546Y-44628D01*
X47646Y-44669D01*
X47753Y-44669D01*
X47852Y-44628D01*
X47928Y-44553D01*
X47969Y-44453D01*
X47969Y-44346D01*
X47969Y-45062D01*
X47935Y-45036D01*
X47721Y-45250D01*
X47935Y-45463D01*
X47997Y-45417D01*
X48023Y-45214D01*
X48023Y-49860D01*
X47974Y-49860D01*
X47974Y-46156D01*
X47902Y-45981D01*
X47768Y-45848D01*
X47713Y-45825D01*
X47713Y-45685D01*
X47713Y-44814D01*
X47667Y-44752D01*
X47464Y-44726D01*
X47332Y-44752D01*
X47286Y-44814D01*
X47500Y-45028D01*
X47713Y-44814D01*
X47713Y-45685D01*
X47500Y-45471D01*
X47286Y-45685D01*
X47332Y-45747D01*
X47535Y-45773D01*
X47667Y-45747D01*
X47713Y-45685D01*
X47713Y-45825D01*
X47594Y-45775D01*
X47406Y-45775D01*
X47278Y-45828D01*
X47278Y-45250D01*
X47064Y-45036D01*
X47002Y-45082D01*
X46976Y-45285D01*
X47002Y-45417D01*
X47064Y-45463D01*
X47278Y-45250D01*
X47278Y-45828D01*
X47231Y-45847D01*
X47098Y-45981D01*
X47025Y-46155D01*
X47025Y-46343D01*
X47097Y-46518D01*
X47231Y-46651D01*
X47405Y-46724D01*
X47593Y-46724D01*
X47768Y-46652D01*
X47901Y-46518D01*
X47974Y-46344D01*
X47974Y-46156D01*
X47974Y-49860D01*
X47614Y-49860D01*
X47598Y-49781D01*
X47577Y-49731D01*
X47577Y-49731D01*
X47469Y-49568D01*
X47469Y-49568D01*
X47431Y-49530D01*
X47431Y-49530D01*
X47268Y-49422D01*
X47218Y-49401D01*
X47027Y-49363D01*
X47027Y-49363D01*
X46972Y-49363D01*
X46972Y-49363D01*
X46781Y-49401D01*
X46731Y-49422D01*
X46568Y-49530D01*
X46568Y-49530D01*
X46530Y-49568D01*
X46530Y-49568D01*
X46422Y-49731D01*
X46401Y-49781D01*
X46385Y-49860D01*
X45749Y-49860D01*
X45749Y-47851D01*
X45749Y-43851D01*
X45636Y-43575D01*
X45425Y-43364D01*
X45149Y-43250D01*
X44851Y-43250D01*
X44575Y-43363D01*
X44364Y-43574D01*
X44250Y-43850D01*
X44250Y-44148D01*
X44363Y-44424D01*
X44574Y-44635D01*
X44850Y-44749D01*
X45148Y-44749D01*
X45424Y-44636D01*
X45635Y-44425D01*
X45749Y-44149D01*
X45749Y-43851D01*
X45749Y-47851D01*
X45636Y-47575D01*
X45425Y-47364D01*
X45149Y-47250D01*
X44851Y-47250D01*
X44575Y-47363D01*
X44364Y-47574D01*
X44250Y-47850D01*
X44250Y-48148D01*
X44363Y-48424D01*
X44574Y-48635D01*
X44850Y-48749D01*
X45148Y-48749D01*
X45424Y-48636D01*
X45635Y-48425D01*
X45749Y-48149D01*
X45749Y-47851D01*
X45749Y-49860D01*
X45013Y-49860D01*
X44671Y-49792D01*
X44393Y-49606D01*
X44207Y-49328D01*
X44139Y-48986D01*
X44139Y-43013D01*
X44207Y-42671D01*
X44393Y-42393D01*
X44671Y-42207D01*
X45013Y-42139D01*
X46385Y-42139D01*
X46401Y-42218D01*
X46422Y-42268D01*
X46530Y-42431D01*
X46530Y-42431D01*
X46568Y-42469D01*
X46568Y-42469D01*
X46731Y-42577D01*
X46731Y-42577D01*
X46781Y-42598D01*
X46972Y-42636D01*
X46972Y-42636D01*
X47027Y-42636D01*
X47027Y-42636D01*
X47218Y-42598D01*
X47268Y-42577D01*
X47431Y-42469D01*
X47431Y-42469D01*
X47469Y-42431D01*
X47469Y-42431D01*
X47577Y-42268D01*
X47577Y-42268D01*
X47598Y-42218D01*
X47614Y-42139D01*
X59385Y-42139D01*
X59401Y-42218D01*
X59422Y-42268D01*
X59530Y-42431D01*
X59530Y-42431D01*
X59568Y-42469D01*
X59568Y-42469D01*
X59731Y-42577D01*
X59731Y-42577D01*
X59781Y-42598D01*
X59972Y-42636D01*
X59972Y-42636D01*
X60027Y-42636D01*
X60027Y-42636D01*
X60218Y-42598D01*
X60268Y-42577D01*
X60431Y-42469D01*
X60431Y-42469D01*
X60469Y-42431D01*
X60469Y-42431D01*
X60577Y-42268D01*
X60577Y-42268D01*
X60598Y-42218D01*
X60614Y-42139D01*
X61986Y-42139D01*
X62328Y-42207D01*
X62606Y-42393D01*
X62792Y-42671D01*
X62860Y-43013D01*
X62860Y-48986D01*
M02*
