G04 #@! TF.FileFunction,Copper,L3,Inr,Signal*
%FSLAX46Y46*%
G04 Gerber Fmt 4.6, Leading zero omitted, Abs format (unit mm)*
G04 Created by KiCad (PCBNEW 4.0.2+dfsg1-stable) date Sun 22 May 2016 01:59:41 PM EDT*
%MOMM*%
G01*
G04 APERTURE LIST*
%ADD10C,0.150000*%
%ADD11R,2.200000X2.200000*%
%ADD12C,2.200000*%
%ADD13C,1.800000*%
%ADD14C,0.762000*%
%ADD15C,0.203000*%
G04 APERTURE END LIST*
D10*
D11*
X157480000Y-113030000D03*
D12*
X157480000Y-115570000D03*
X157480000Y-118110000D03*
X157480000Y-120650000D03*
D13*
X120650000Y-114935000D03*
X123190000Y-116205000D03*
X120650000Y-117475000D03*
X123190000Y-118745000D03*
D14*
X123698000Y-122174000D03*
X146304000Y-123190000D03*
X114808000Y-108204000D03*
X113792000Y-109220000D03*
X116332000Y-108204000D03*
X129540000Y-108204000D03*
X128016000Y-108204000D03*
X126492000Y-108204000D03*
X124968000Y-108204000D03*
X123444000Y-108204000D03*
X121920000Y-108204000D03*
X114300000Y-119380000D03*
X113284000Y-118364000D03*
X114300000Y-117348000D03*
X113284000Y-116332000D03*
X114300000Y-115316000D03*
X113284000Y-114300000D03*
X113792000Y-124460000D03*
X114808000Y-125476000D03*
X116332000Y-125476000D03*
X122428000Y-125476000D03*
X120904000Y-111252000D03*
X119380000Y-111252000D03*
X117856000Y-111252000D03*
X128270000Y-120142000D03*
X129032000Y-120904000D03*
X128270000Y-121666000D03*
X129794000Y-121666000D03*
X129794000Y-120142000D03*
X151003000Y-114935000D03*
X151003000Y-115951000D03*
X149860000Y-115951000D03*
X149860000Y-114935000D03*
X151003000Y-119634000D03*
X151003000Y-118618000D03*
X149860000Y-118618000D03*
X149860000Y-119634000D03*
X141986000Y-119126000D03*
X140716000Y-119126000D03*
X145034000Y-120904000D03*
X135636000Y-113284000D03*
X134366000Y-113284000D03*
X133096000Y-113284000D03*
X149733000Y-108077000D03*
X157480000Y-125730000D03*
X158750000Y-124460000D03*
X156210000Y-125730000D03*
X135890000Y-110617000D03*
X158750000Y-109220000D03*
X156210000Y-107950000D03*
X157480000Y-107950000D03*
X158750000Y-110490000D03*
X154178000Y-119634000D03*
X138684000Y-122682000D03*
X124206000Y-124968000D03*
X121158000Y-112776000D03*
D15*
G36*
X117858985Y-107235167D02*
X117911917Y-107362957D01*
X118187218Y-107774975D01*
X118285025Y-107872782D01*
X118697042Y-108148083D01*
X118824832Y-108201015D01*
X119310840Y-108297688D01*
X119449160Y-108297688D01*
X119935167Y-108201015D01*
X120062957Y-108148083D01*
X120474975Y-107872782D01*
X120572782Y-107774975D01*
X120848083Y-107362958D01*
X120901015Y-107235168D01*
X120901015Y-107235167D01*
X120940930Y-107034500D01*
X150839070Y-107034500D01*
X150878985Y-107235167D01*
X150931917Y-107362957D01*
X151207218Y-107774975D01*
X151305025Y-107872782D01*
X151717042Y-108148083D01*
X151844832Y-108201015D01*
X152330840Y-108297688D01*
X152469160Y-108297688D01*
X152955167Y-108201015D01*
X153082957Y-108148083D01*
X153494975Y-107872782D01*
X153592782Y-107774975D01*
X153868083Y-107362958D01*
X153921015Y-107235168D01*
X153921015Y-107235167D01*
X153960930Y-107034500D01*
X157445086Y-107034500D01*
X158313695Y-107207277D01*
X159020471Y-107679529D01*
X159492723Y-108386304D01*
X159665500Y-109254914D01*
X159665500Y-124425086D01*
X159492723Y-125293696D01*
X159020471Y-126000471D01*
X158313695Y-126472723D01*
X157445086Y-126645500D01*
X153960930Y-126645500D01*
X153921015Y-126444832D01*
X153868083Y-126317042D01*
X153592782Y-125905025D01*
X153494975Y-125807218D01*
X153082957Y-125531917D01*
X152955167Y-125478985D01*
X152469160Y-125382312D01*
X152330840Y-125382312D01*
X151844832Y-125478985D01*
X151717042Y-125531917D01*
X151305025Y-125807218D01*
X151207218Y-125905025D01*
X150931918Y-126317042D01*
X150931917Y-126317043D01*
X150878985Y-126444833D01*
X150839070Y-126645500D01*
X120940930Y-126645500D01*
X120901015Y-126444832D01*
X120848083Y-126317042D01*
X120572782Y-125905025D01*
X120474975Y-125807218D01*
X120062957Y-125531917D01*
X119935167Y-125478985D01*
X119449160Y-125382312D01*
X119310840Y-125382312D01*
X118824832Y-125478985D01*
X118697042Y-125531917D01*
X118285025Y-125807218D01*
X118187218Y-125905025D01*
X117911918Y-126317042D01*
X117911917Y-126317043D01*
X117858985Y-126444833D01*
X117819070Y-126645500D01*
X114334914Y-126645500D01*
X113466304Y-126472723D01*
X112759529Y-126000471D01*
X112287277Y-125293695D01*
X112249496Y-125103756D01*
X123520381Y-125103756D01*
X123624522Y-125355797D01*
X123817188Y-125548800D01*
X124069047Y-125653381D01*
X124341756Y-125653619D01*
X124593797Y-125549478D01*
X124786800Y-125356812D01*
X124891381Y-125104953D01*
X124891619Y-124832244D01*
X124787478Y-124580203D01*
X124594812Y-124387200D01*
X124342953Y-124282619D01*
X124070244Y-124282381D01*
X123818203Y-124386522D01*
X123625200Y-124579188D01*
X123520619Y-124831047D01*
X123520381Y-125103756D01*
X112249496Y-125103756D01*
X112114500Y-124425086D01*
X112114500Y-122297166D01*
X112395170Y-122297166D01*
X112684502Y-122997403D01*
X113219779Y-123533615D01*
X113919510Y-123824168D01*
X114677166Y-123824830D01*
X115377403Y-123535498D01*
X115913615Y-123000221D01*
X116200320Y-122309756D01*
X123012381Y-122309756D01*
X123116522Y-122561797D01*
X123309188Y-122754800D01*
X123561047Y-122859381D01*
X123833756Y-122859619D01*
X123935072Y-122817756D01*
X137998381Y-122817756D01*
X138102522Y-123069797D01*
X138295188Y-123262800D01*
X138547047Y-123367381D01*
X138819756Y-123367619D01*
X138921072Y-123325756D01*
X145618381Y-123325756D01*
X145722522Y-123577797D01*
X145915188Y-123770800D01*
X146167047Y-123875381D01*
X146439756Y-123875619D01*
X146691797Y-123771478D01*
X146884800Y-123578812D01*
X146989381Y-123326953D01*
X146989619Y-123054244D01*
X146885478Y-122802203D01*
X146692812Y-122609200D01*
X146440953Y-122504619D01*
X146168244Y-122504381D01*
X145916203Y-122608522D01*
X145723200Y-122801188D01*
X145618619Y-123053047D01*
X145618381Y-123325756D01*
X138921072Y-123325756D01*
X139071797Y-123263478D01*
X139264800Y-123070812D01*
X139369381Y-122818953D01*
X139369619Y-122546244D01*
X139265478Y-122294203D01*
X139072812Y-122101200D01*
X138820953Y-121996619D01*
X138548244Y-121996381D01*
X138296203Y-122100522D01*
X138103200Y-122293188D01*
X137998619Y-122545047D01*
X137998381Y-122817756D01*
X123935072Y-122817756D01*
X124085797Y-122755478D01*
X124278800Y-122562812D01*
X124383381Y-122310953D01*
X124383619Y-122038244D01*
X124329027Y-121906120D01*
X156787444Y-121906120D01*
X156930461Y-122084345D01*
X157521192Y-122185461D01*
X158029539Y-122084345D01*
X158172556Y-121906120D01*
X157480000Y-121213564D01*
X156787444Y-121906120D01*
X124329027Y-121906120D01*
X124279478Y-121786203D01*
X124086812Y-121593200D01*
X123834953Y-121488619D01*
X123562244Y-121488381D01*
X123310203Y-121592522D01*
X123117200Y-121785188D01*
X123012619Y-122037047D01*
X123012381Y-122309756D01*
X116200320Y-122309756D01*
X116204168Y-122300490D01*
X116204830Y-121542834D01*
X115915498Y-120842597D01*
X115764358Y-120691192D01*
X155944539Y-120691192D01*
X156045655Y-121199539D01*
X156223880Y-121342556D01*
X156916436Y-120650000D01*
X158043564Y-120650000D01*
X158736120Y-121342556D01*
X158914345Y-121199539D01*
X159015461Y-120608808D01*
X158914345Y-120100461D01*
X158736120Y-119957444D01*
X158043564Y-120650000D01*
X156916436Y-120650000D01*
X156223880Y-119957444D01*
X156045655Y-120100461D01*
X155944539Y-120691192D01*
X115764358Y-120691192D01*
X115380221Y-120306385D01*
X114680490Y-120015832D01*
X113922834Y-120015170D01*
X113222597Y-120304502D01*
X112686385Y-120839779D01*
X112395832Y-121539510D01*
X112395170Y-122297166D01*
X112114500Y-122297166D01*
X112114500Y-118983539D01*
X121985291Y-118983539D01*
X122168279Y-119426403D01*
X122506814Y-119765530D01*
X122949359Y-119949291D01*
X123428539Y-119949709D01*
X123864057Y-119769756D01*
X153492381Y-119769756D01*
X153596522Y-120021797D01*
X153789188Y-120214800D01*
X154041047Y-120319381D01*
X154313756Y-120319619D01*
X154565797Y-120215478D01*
X154758800Y-120022812D01*
X154863381Y-119770953D01*
X154863619Y-119498244D01*
X154759478Y-119246203D01*
X154566812Y-119053200D01*
X154314953Y-118948619D01*
X154042244Y-118948381D01*
X153790203Y-119052522D01*
X153597200Y-119245188D01*
X153492619Y-119497047D01*
X153492381Y-119769756D01*
X123864057Y-119769756D01*
X123871403Y-119766721D01*
X124210530Y-119428186D01*
X124394291Y-118985641D01*
X124394709Y-118506461D01*
X124211721Y-118063597D01*
X123873186Y-117724470D01*
X123430641Y-117540709D01*
X122951461Y-117540291D01*
X122508597Y-117723279D01*
X122169470Y-118061814D01*
X121985709Y-118504359D01*
X121985291Y-118983539D01*
X112114500Y-118983539D01*
X112114500Y-117713539D01*
X119445291Y-117713539D01*
X119628279Y-118156403D01*
X119966814Y-118495530D01*
X120409359Y-118679291D01*
X120888539Y-118679709D01*
X121331403Y-118496721D01*
X121670530Y-118158186D01*
X121854291Y-117715641D01*
X121854709Y-117236461D01*
X121671721Y-116793597D01*
X121333186Y-116454470D01*
X121306862Y-116443539D01*
X121985291Y-116443539D01*
X122168279Y-116886403D01*
X122506814Y-117225530D01*
X122949359Y-117409291D01*
X123428539Y-117409709D01*
X123871403Y-117226721D01*
X124210530Y-116888186D01*
X124394291Y-116445641D01*
X124394709Y-115966461D01*
X124211721Y-115523597D01*
X123873186Y-115184470D01*
X123430641Y-115000709D01*
X122951461Y-115000291D01*
X122508597Y-115183279D01*
X122169470Y-115521814D01*
X121985709Y-115964359D01*
X121985291Y-116443539D01*
X121306862Y-116443539D01*
X120890641Y-116270709D01*
X120411461Y-116270291D01*
X119968597Y-116453279D01*
X119629470Y-116791814D01*
X119445709Y-117234359D01*
X119445291Y-117713539D01*
X112114500Y-117713539D01*
X112114500Y-116039964D01*
X120108600Y-116039964D01*
X120225264Y-116197569D01*
X120740759Y-116264001D01*
X121074736Y-116197569D01*
X121191400Y-116039964D01*
X120650000Y-115498564D01*
X120108600Y-116039964D01*
X112114500Y-116039964D01*
X112114500Y-115025759D01*
X119320999Y-115025759D01*
X119387431Y-115359736D01*
X119545036Y-115476400D01*
X120086436Y-114935000D01*
X121213564Y-114935000D01*
X121754964Y-115476400D01*
X121912569Y-115359736D01*
X121979001Y-114844241D01*
X121912569Y-114510264D01*
X121754964Y-114393600D01*
X121213564Y-114935000D01*
X120086436Y-114935000D01*
X119545036Y-114393600D01*
X119387431Y-114510264D01*
X119320999Y-115025759D01*
X112114500Y-115025759D01*
X112114500Y-113830036D01*
X120108600Y-113830036D01*
X120650000Y-114371436D01*
X121191400Y-113830036D01*
X121074736Y-113672431D01*
X120559241Y-113605999D01*
X120225264Y-113672431D01*
X120108600Y-113830036D01*
X112114500Y-113830036D01*
X112114500Y-112137166D01*
X112395170Y-112137166D01*
X112684502Y-112837403D01*
X113219779Y-113373615D01*
X113919510Y-113664168D01*
X114677166Y-113664830D01*
X115377403Y-113375498D01*
X115841955Y-112911756D01*
X120472381Y-112911756D01*
X120576522Y-113163797D01*
X120769188Y-113356800D01*
X121021047Y-113461381D01*
X121293756Y-113461619D01*
X121545797Y-113357478D01*
X121738800Y-113164812D01*
X121843381Y-112912953D01*
X121843619Y-112640244D01*
X121739478Y-112388203D01*
X121546812Y-112195200D01*
X121294953Y-112090619D01*
X121022244Y-112090381D01*
X120770203Y-112194522D01*
X120577200Y-112387188D01*
X120472619Y-112639047D01*
X120472381Y-112911756D01*
X115841955Y-112911756D01*
X115913615Y-112840221D01*
X116204168Y-112140490D01*
X116204351Y-111930000D01*
X156069535Y-111930000D01*
X156069535Y-114130000D01*
X156090767Y-114242841D01*
X156157456Y-114346478D01*
X156259212Y-114416005D01*
X156380000Y-114440465D01*
X156623509Y-114440465D01*
X156290017Y-114773376D01*
X156075744Y-115289402D01*
X156075257Y-115848147D01*
X156288628Y-116364546D01*
X156683376Y-116759983D01*
X156875914Y-116839932D01*
X156685454Y-116918628D01*
X156290017Y-117313376D01*
X156075744Y-117829402D01*
X156075257Y-118388147D01*
X156288628Y-118904546D01*
X156683376Y-119299983D01*
X156817951Y-119355863D01*
X156787444Y-119393880D01*
X157480000Y-120086436D01*
X158172556Y-119393880D01*
X158142203Y-119356055D01*
X158274546Y-119301372D01*
X158669983Y-118906624D01*
X158884256Y-118390598D01*
X158884743Y-117831853D01*
X158671372Y-117315454D01*
X158276624Y-116920017D01*
X158084086Y-116840068D01*
X158274546Y-116761372D01*
X158669983Y-116366624D01*
X158884256Y-115850598D01*
X158884743Y-115291853D01*
X158671372Y-114775454D01*
X158336967Y-114440465D01*
X158580000Y-114440465D01*
X158692841Y-114419233D01*
X158796478Y-114352544D01*
X158866005Y-114250788D01*
X158890465Y-114130000D01*
X158890465Y-111930000D01*
X158869233Y-111817159D01*
X158802544Y-111713522D01*
X158700788Y-111643995D01*
X158580000Y-111619535D01*
X156380000Y-111619535D01*
X156267159Y-111640767D01*
X156163522Y-111707456D01*
X156093995Y-111809212D01*
X156069535Y-111930000D01*
X116204351Y-111930000D01*
X116204830Y-111382834D01*
X115915498Y-110682597D01*
X115380221Y-110146385D01*
X114680490Y-109855832D01*
X113922834Y-109855170D01*
X113222597Y-110144502D01*
X112686385Y-110679779D01*
X112395832Y-111379510D01*
X112395170Y-112137166D01*
X112114500Y-112137166D01*
X112114500Y-109254914D01*
X112287277Y-108386305D01*
X112759529Y-107679529D01*
X113466304Y-107207277D01*
X114334914Y-107034500D01*
X117819070Y-107034500D01*
X117858985Y-107235167D01*
X117858985Y-107235167D01*
G37*
X117858985Y-107235167D02*
X117911917Y-107362957D01*
X118187218Y-107774975D01*
X118285025Y-107872782D01*
X118697042Y-108148083D01*
X118824832Y-108201015D01*
X119310840Y-108297688D01*
X119449160Y-108297688D01*
X119935167Y-108201015D01*
X120062957Y-108148083D01*
X120474975Y-107872782D01*
X120572782Y-107774975D01*
X120848083Y-107362958D01*
X120901015Y-107235168D01*
X120901015Y-107235167D01*
X120940930Y-107034500D01*
X150839070Y-107034500D01*
X150878985Y-107235167D01*
X150931917Y-107362957D01*
X151207218Y-107774975D01*
X151305025Y-107872782D01*
X151717042Y-108148083D01*
X151844832Y-108201015D01*
X152330840Y-108297688D01*
X152469160Y-108297688D01*
X152955167Y-108201015D01*
X153082957Y-108148083D01*
X153494975Y-107872782D01*
X153592782Y-107774975D01*
X153868083Y-107362958D01*
X153921015Y-107235168D01*
X153921015Y-107235167D01*
X153960930Y-107034500D01*
X157445086Y-107034500D01*
X158313695Y-107207277D01*
X159020471Y-107679529D01*
X159492723Y-108386304D01*
X159665500Y-109254914D01*
X159665500Y-124425086D01*
X159492723Y-125293696D01*
X159020471Y-126000471D01*
X158313695Y-126472723D01*
X157445086Y-126645500D01*
X153960930Y-126645500D01*
X153921015Y-126444832D01*
X153868083Y-126317042D01*
X153592782Y-125905025D01*
X153494975Y-125807218D01*
X153082957Y-125531917D01*
X152955167Y-125478985D01*
X152469160Y-125382312D01*
X152330840Y-125382312D01*
X151844832Y-125478985D01*
X151717042Y-125531917D01*
X151305025Y-125807218D01*
X151207218Y-125905025D01*
X150931918Y-126317042D01*
X150931917Y-126317043D01*
X150878985Y-126444833D01*
X150839070Y-126645500D01*
X120940930Y-126645500D01*
X120901015Y-126444832D01*
X120848083Y-126317042D01*
X120572782Y-125905025D01*
X120474975Y-125807218D01*
X120062957Y-125531917D01*
X119935167Y-125478985D01*
X119449160Y-125382312D01*
X119310840Y-125382312D01*
X118824832Y-125478985D01*
X118697042Y-125531917D01*
X118285025Y-125807218D01*
X118187218Y-125905025D01*
X117911918Y-126317042D01*
X117911917Y-126317043D01*
X117858985Y-126444833D01*
X117819070Y-126645500D01*
X114334914Y-126645500D01*
X113466304Y-126472723D01*
X112759529Y-126000471D01*
X112287277Y-125293695D01*
X112249496Y-125103756D01*
X123520381Y-125103756D01*
X123624522Y-125355797D01*
X123817188Y-125548800D01*
X124069047Y-125653381D01*
X124341756Y-125653619D01*
X124593797Y-125549478D01*
X124786800Y-125356812D01*
X124891381Y-125104953D01*
X124891619Y-124832244D01*
X124787478Y-124580203D01*
X124594812Y-124387200D01*
X124342953Y-124282619D01*
X124070244Y-124282381D01*
X123818203Y-124386522D01*
X123625200Y-124579188D01*
X123520619Y-124831047D01*
X123520381Y-125103756D01*
X112249496Y-125103756D01*
X112114500Y-124425086D01*
X112114500Y-122297166D01*
X112395170Y-122297166D01*
X112684502Y-122997403D01*
X113219779Y-123533615D01*
X113919510Y-123824168D01*
X114677166Y-123824830D01*
X115377403Y-123535498D01*
X115913615Y-123000221D01*
X116200320Y-122309756D01*
X123012381Y-122309756D01*
X123116522Y-122561797D01*
X123309188Y-122754800D01*
X123561047Y-122859381D01*
X123833756Y-122859619D01*
X123935072Y-122817756D01*
X137998381Y-122817756D01*
X138102522Y-123069797D01*
X138295188Y-123262800D01*
X138547047Y-123367381D01*
X138819756Y-123367619D01*
X138921072Y-123325756D01*
X145618381Y-123325756D01*
X145722522Y-123577797D01*
X145915188Y-123770800D01*
X146167047Y-123875381D01*
X146439756Y-123875619D01*
X146691797Y-123771478D01*
X146884800Y-123578812D01*
X146989381Y-123326953D01*
X146989619Y-123054244D01*
X146885478Y-122802203D01*
X146692812Y-122609200D01*
X146440953Y-122504619D01*
X146168244Y-122504381D01*
X145916203Y-122608522D01*
X145723200Y-122801188D01*
X145618619Y-123053047D01*
X145618381Y-123325756D01*
X138921072Y-123325756D01*
X139071797Y-123263478D01*
X139264800Y-123070812D01*
X139369381Y-122818953D01*
X139369619Y-122546244D01*
X139265478Y-122294203D01*
X139072812Y-122101200D01*
X138820953Y-121996619D01*
X138548244Y-121996381D01*
X138296203Y-122100522D01*
X138103200Y-122293188D01*
X137998619Y-122545047D01*
X137998381Y-122817756D01*
X123935072Y-122817756D01*
X124085797Y-122755478D01*
X124278800Y-122562812D01*
X124383381Y-122310953D01*
X124383619Y-122038244D01*
X124329027Y-121906120D01*
X156787444Y-121906120D01*
X156930461Y-122084345D01*
X157521192Y-122185461D01*
X158029539Y-122084345D01*
X158172556Y-121906120D01*
X157480000Y-121213564D01*
X156787444Y-121906120D01*
X124329027Y-121906120D01*
X124279478Y-121786203D01*
X124086812Y-121593200D01*
X123834953Y-121488619D01*
X123562244Y-121488381D01*
X123310203Y-121592522D01*
X123117200Y-121785188D01*
X123012619Y-122037047D01*
X123012381Y-122309756D01*
X116200320Y-122309756D01*
X116204168Y-122300490D01*
X116204830Y-121542834D01*
X115915498Y-120842597D01*
X115764358Y-120691192D01*
X155944539Y-120691192D01*
X156045655Y-121199539D01*
X156223880Y-121342556D01*
X156916436Y-120650000D01*
X158043564Y-120650000D01*
X158736120Y-121342556D01*
X158914345Y-121199539D01*
X159015461Y-120608808D01*
X158914345Y-120100461D01*
X158736120Y-119957444D01*
X158043564Y-120650000D01*
X156916436Y-120650000D01*
X156223880Y-119957444D01*
X156045655Y-120100461D01*
X155944539Y-120691192D01*
X115764358Y-120691192D01*
X115380221Y-120306385D01*
X114680490Y-120015832D01*
X113922834Y-120015170D01*
X113222597Y-120304502D01*
X112686385Y-120839779D01*
X112395832Y-121539510D01*
X112395170Y-122297166D01*
X112114500Y-122297166D01*
X112114500Y-118983539D01*
X121985291Y-118983539D01*
X122168279Y-119426403D01*
X122506814Y-119765530D01*
X122949359Y-119949291D01*
X123428539Y-119949709D01*
X123864057Y-119769756D01*
X153492381Y-119769756D01*
X153596522Y-120021797D01*
X153789188Y-120214800D01*
X154041047Y-120319381D01*
X154313756Y-120319619D01*
X154565797Y-120215478D01*
X154758800Y-120022812D01*
X154863381Y-119770953D01*
X154863619Y-119498244D01*
X154759478Y-119246203D01*
X154566812Y-119053200D01*
X154314953Y-118948619D01*
X154042244Y-118948381D01*
X153790203Y-119052522D01*
X153597200Y-119245188D01*
X153492619Y-119497047D01*
X153492381Y-119769756D01*
X123864057Y-119769756D01*
X123871403Y-119766721D01*
X124210530Y-119428186D01*
X124394291Y-118985641D01*
X124394709Y-118506461D01*
X124211721Y-118063597D01*
X123873186Y-117724470D01*
X123430641Y-117540709D01*
X122951461Y-117540291D01*
X122508597Y-117723279D01*
X122169470Y-118061814D01*
X121985709Y-118504359D01*
X121985291Y-118983539D01*
X112114500Y-118983539D01*
X112114500Y-117713539D01*
X119445291Y-117713539D01*
X119628279Y-118156403D01*
X119966814Y-118495530D01*
X120409359Y-118679291D01*
X120888539Y-118679709D01*
X121331403Y-118496721D01*
X121670530Y-118158186D01*
X121854291Y-117715641D01*
X121854709Y-117236461D01*
X121671721Y-116793597D01*
X121333186Y-116454470D01*
X121306862Y-116443539D01*
X121985291Y-116443539D01*
X122168279Y-116886403D01*
X122506814Y-117225530D01*
X122949359Y-117409291D01*
X123428539Y-117409709D01*
X123871403Y-117226721D01*
X124210530Y-116888186D01*
X124394291Y-116445641D01*
X124394709Y-115966461D01*
X124211721Y-115523597D01*
X123873186Y-115184470D01*
X123430641Y-115000709D01*
X122951461Y-115000291D01*
X122508597Y-115183279D01*
X122169470Y-115521814D01*
X121985709Y-115964359D01*
X121985291Y-116443539D01*
X121306862Y-116443539D01*
X120890641Y-116270709D01*
X120411461Y-116270291D01*
X119968597Y-116453279D01*
X119629470Y-116791814D01*
X119445709Y-117234359D01*
X119445291Y-117713539D01*
X112114500Y-117713539D01*
X112114500Y-116039964D01*
X120108600Y-116039964D01*
X120225264Y-116197569D01*
X120740759Y-116264001D01*
X121074736Y-116197569D01*
X121191400Y-116039964D01*
X120650000Y-115498564D01*
X120108600Y-116039964D01*
X112114500Y-116039964D01*
X112114500Y-115025759D01*
X119320999Y-115025759D01*
X119387431Y-115359736D01*
X119545036Y-115476400D01*
X120086436Y-114935000D01*
X121213564Y-114935000D01*
X121754964Y-115476400D01*
X121912569Y-115359736D01*
X121979001Y-114844241D01*
X121912569Y-114510264D01*
X121754964Y-114393600D01*
X121213564Y-114935000D01*
X120086436Y-114935000D01*
X119545036Y-114393600D01*
X119387431Y-114510264D01*
X119320999Y-115025759D01*
X112114500Y-115025759D01*
X112114500Y-113830036D01*
X120108600Y-113830036D01*
X120650000Y-114371436D01*
X121191400Y-113830036D01*
X121074736Y-113672431D01*
X120559241Y-113605999D01*
X120225264Y-113672431D01*
X120108600Y-113830036D01*
X112114500Y-113830036D01*
X112114500Y-112137166D01*
X112395170Y-112137166D01*
X112684502Y-112837403D01*
X113219779Y-113373615D01*
X113919510Y-113664168D01*
X114677166Y-113664830D01*
X115377403Y-113375498D01*
X115841955Y-112911756D01*
X120472381Y-112911756D01*
X120576522Y-113163797D01*
X120769188Y-113356800D01*
X121021047Y-113461381D01*
X121293756Y-113461619D01*
X121545797Y-113357478D01*
X121738800Y-113164812D01*
X121843381Y-112912953D01*
X121843619Y-112640244D01*
X121739478Y-112388203D01*
X121546812Y-112195200D01*
X121294953Y-112090619D01*
X121022244Y-112090381D01*
X120770203Y-112194522D01*
X120577200Y-112387188D01*
X120472619Y-112639047D01*
X120472381Y-112911756D01*
X115841955Y-112911756D01*
X115913615Y-112840221D01*
X116204168Y-112140490D01*
X116204351Y-111930000D01*
X156069535Y-111930000D01*
X156069535Y-114130000D01*
X156090767Y-114242841D01*
X156157456Y-114346478D01*
X156259212Y-114416005D01*
X156380000Y-114440465D01*
X156623509Y-114440465D01*
X156290017Y-114773376D01*
X156075744Y-115289402D01*
X156075257Y-115848147D01*
X156288628Y-116364546D01*
X156683376Y-116759983D01*
X156875914Y-116839932D01*
X156685454Y-116918628D01*
X156290017Y-117313376D01*
X156075744Y-117829402D01*
X156075257Y-118388147D01*
X156288628Y-118904546D01*
X156683376Y-119299983D01*
X156817951Y-119355863D01*
X156787444Y-119393880D01*
X157480000Y-120086436D01*
X158172556Y-119393880D01*
X158142203Y-119356055D01*
X158274546Y-119301372D01*
X158669983Y-118906624D01*
X158884256Y-118390598D01*
X158884743Y-117831853D01*
X158671372Y-117315454D01*
X158276624Y-116920017D01*
X158084086Y-116840068D01*
X158274546Y-116761372D01*
X158669983Y-116366624D01*
X158884256Y-115850598D01*
X158884743Y-115291853D01*
X158671372Y-114775454D01*
X158336967Y-114440465D01*
X158580000Y-114440465D01*
X158692841Y-114419233D01*
X158796478Y-114352544D01*
X158866005Y-114250788D01*
X158890465Y-114130000D01*
X158890465Y-111930000D01*
X158869233Y-111817159D01*
X158802544Y-111713522D01*
X158700788Y-111643995D01*
X158580000Y-111619535D01*
X156380000Y-111619535D01*
X156267159Y-111640767D01*
X156163522Y-111707456D01*
X156093995Y-111809212D01*
X156069535Y-111930000D01*
X116204351Y-111930000D01*
X116204830Y-111382834D01*
X115915498Y-110682597D01*
X115380221Y-110146385D01*
X114680490Y-109855832D01*
X113922834Y-109855170D01*
X113222597Y-110144502D01*
X112686385Y-110679779D01*
X112395832Y-111379510D01*
X112395170Y-112137166D01*
X112114500Y-112137166D01*
X112114500Y-109254914D01*
X112287277Y-108386305D01*
X112759529Y-107679529D01*
X113466304Y-107207277D01*
X114334914Y-107034500D01*
X117819070Y-107034500D01*
X117858985Y-107235167D01*
M02*
