M48
;DRILL file {KiCad 4.0.2+dfsg1-stable} date Tue 12 Jul 2016 10:09:24 PM EDT
;FORMAT={-:-/ absolute / metric / decimal}
FMAT,2
METRIC,TZ
T1C0.381
T2C0.900
T3C1.400
%
G90
G05
M71
T1
X113.284Y-114.3
X113.284Y-116.332
X113.284Y-118.364
X113.538Y-124.714
X113.792Y-109.22
X114.3Y-115.316
X114.3Y-117.348
X114.3Y-119.38
X114.554Y-125.73
X114.808Y-108.204
X117.856Y-111.252
X119.38Y-111.252
X119.38Y-112.522
X120.904Y-111.252
X121.158Y-112.776
X123.444Y-108.204
X123.698Y-121.412
X123.952Y-125.349
X124.968Y-108.204
X126.492Y-108.204
X128.016Y-108.204
X128.27Y-120.142
X128.27Y-121.666
X129.032Y-120.904
X129.54Y-108.204
X129.794Y-120.142
X129.794Y-121.666
X130.429Y-116.078
X143.51Y-125.73
X146.304Y-123.19
X150.622Y-110.998
X151.003Y-118.237
X151.892Y-110.998
X153.162Y-110.998
X153.924Y-115.062
X153.924Y-118.618
X154.432Y-110.998
X157.48Y-108.204
X157.48Y-125.73
X158.496Y-109.22
X158.75Y-124.46
T2
X120.65Y-114.935
X120.65Y-117.475
X123.19Y-116.205
X123.19Y-118.745
T3
X158.242Y-113.03
X158.242Y-115.57
X158.242Y-118.11
X158.242Y-120.65
T0
M30
