G04 #@! TF.FileFunction,Legend,Top*
%FSLAX46Y46*%
G04 Gerber Fmt 4.6, Leading zero omitted, Abs format (unit mm)*
G04 Created by KiCad (PCBNEW 4.0.2+dfsg1-stable) date Sun 22 May 2016 05:06:21 PM EDT*
%MOMM*%
G01*
G04 APERTURE LIST*
%ADD10C,0.150000*%
%ADD11C,0.127000*%
%ADD12C,0.304800*%
%ADD13C,0.071120*%
%ADD14C,0.130000*%
%ADD15C,0.125000*%
G04 APERTURE END LIST*
D10*
X139192000Y-114300000D02*
X131064000Y-114300000D01*
X131064000Y-114300000D02*
X131064000Y-116332000D01*
X131064000Y-116332000D02*
X139192000Y-116332000D01*
X139192000Y-109220000D02*
X131064000Y-109220000D01*
X131064000Y-109220000D02*
X131064000Y-111252000D01*
X131064000Y-111252000D02*
X139192000Y-111252000D01*
X139192000Y-106680000D02*
X148336000Y-106680000D01*
X148336000Y-106680000D02*
X148336000Y-118872000D01*
X148336000Y-118872000D02*
X139192000Y-118872000D01*
X139192000Y-118872000D02*
X139192000Y-106680000D01*
X149650000Y-116542000D02*
X149650000Y-111042000D01*
X149650000Y-111042000D02*
X154400000Y-111042000D01*
X154400000Y-111042000D02*
X155150000Y-111792000D01*
X155150000Y-111792000D02*
X155150000Y-115792000D01*
X155150000Y-115792000D02*
X154400000Y-116542000D01*
X154400000Y-116542000D02*
X149650000Y-116542000D01*
D11*
X154943173Y-113792000D02*
G75*
G03X154943173Y-113792000I-2543173J0D01*
G01*
D12*
X158750000Y-111760000D02*
X158750000Y-111760000D01*
X156210000Y-111760000D02*
X158750000Y-111760000D01*
X158750000Y-111760000D02*
X158750000Y-111760000D01*
X158750000Y-111760000D02*
X158750000Y-121920000D01*
X158750000Y-121920000D02*
X156210000Y-121920000D01*
X156210000Y-121920000D02*
X156210000Y-111760000D01*
X156210000Y-114300000D02*
X158750000Y-114300000D01*
D10*
X146530000Y-119686000D02*
X143030000Y-119686000D01*
X143030000Y-119686000D02*
X143030000Y-126186000D01*
X143030000Y-126186000D02*
X146530000Y-126186000D01*
X146530000Y-126186000D02*
X146530000Y-119686000D01*
X124460000Y-110240000D02*
X124460000Y-123440000D01*
X124460000Y-123440000D02*
X106450000Y-123440000D01*
X106450000Y-123440000D02*
X106450000Y-110240000D01*
X106450000Y-110240000D02*
X124460000Y-110240000D01*
X139952000Y-119636000D02*
X139952000Y-126236000D01*
X139952000Y-126236000D02*
X133352000Y-126236000D01*
X133352000Y-126236000D02*
X133352000Y-119636000D01*
X133352000Y-119636000D02*
X139952000Y-119636000D01*
D11*
X125274605Y-115824000D02*
G75*
G03X125274605Y-115824000I-179605J0D01*
G01*
X126746000Y-112903000D02*
X125222000Y-112903000D01*
X125222000Y-112903000D02*
X125222000Y-115697000D01*
X125222000Y-115697000D02*
X126746000Y-115697000D01*
X128270000Y-115697000D02*
X129794000Y-115697000D01*
X129794000Y-115697000D02*
X129794000Y-112903000D01*
X129794000Y-112903000D02*
X128270000Y-112903000D01*
D13*
X128528000Y-116713000D02*
X128020000Y-116713000D01*
X128020000Y-116713000D02*
X128020000Y-117475000D01*
X128020000Y-117475000D02*
X128528000Y-117475000D01*
X129536000Y-116713000D02*
X130044000Y-116713000D01*
X130044000Y-116713000D02*
X130044000Y-117475000D01*
X130044000Y-117475000D02*
X129536000Y-117475000D01*
X131191000Y-124464000D02*
X131191000Y-123956000D01*
X131191000Y-123956000D02*
X130429000Y-123956000D01*
X130429000Y-123956000D02*
X130429000Y-124464000D01*
X131191000Y-125472000D02*
X131191000Y-125980000D01*
X131191000Y-125980000D02*
X130429000Y-125980000D01*
X130429000Y-125980000D02*
X130429000Y-125472000D01*
X132461000Y-124464000D02*
X132461000Y-123956000D01*
X132461000Y-123956000D02*
X131699000Y-123956000D01*
X131699000Y-123956000D02*
X131699000Y-124464000D01*
X132461000Y-125472000D02*
X132461000Y-125980000D01*
X132461000Y-125980000D02*
X131699000Y-125980000D01*
X131699000Y-125980000D02*
X131699000Y-125472000D01*
X126111000Y-124464000D02*
X126111000Y-123956000D01*
X126111000Y-123956000D02*
X125349000Y-123956000D01*
X125349000Y-123956000D02*
X125349000Y-124464000D01*
X126111000Y-125472000D02*
X126111000Y-125980000D01*
X126111000Y-125980000D02*
X125349000Y-125980000D01*
X125349000Y-125980000D02*
X125349000Y-125472000D01*
X129921000Y-124464000D02*
X129921000Y-123956000D01*
X129921000Y-123956000D02*
X129159000Y-123956000D01*
X129159000Y-123956000D02*
X129159000Y-124464000D01*
X129921000Y-125472000D02*
X129921000Y-125980000D01*
X129921000Y-125980000D02*
X129159000Y-125980000D01*
X129159000Y-125980000D02*
X129159000Y-125472000D01*
X127381000Y-124464000D02*
X127381000Y-123956000D01*
X127381000Y-123956000D02*
X126619000Y-123956000D01*
X126619000Y-123956000D02*
X126619000Y-124464000D01*
X127381000Y-125472000D02*
X127381000Y-125980000D01*
X127381000Y-125980000D02*
X126619000Y-125980000D01*
X126619000Y-125980000D02*
X126619000Y-125472000D01*
X128651000Y-124464000D02*
X128651000Y-123956000D01*
X128651000Y-123956000D02*
X127889000Y-123956000D01*
X127889000Y-123956000D02*
X127889000Y-124464000D01*
X128651000Y-125472000D02*
X128651000Y-125980000D01*
X128651000Y-125980000D02*
X127889000Y-125980000D01*
X127889000Y-125980000D02*
X127889000Y-125472000D01*
D11*
X127381000Y-123350020D02*
X127381000Y-118000780D01*
X130683000Y-118000780D02*
X130683000Y-123350020D01*
X130683000Y-123350020D02*
X127381000Y-123350020D01*
X130683000Y-118000780D02*
X127381000Y-118000780D01*
X129540000Y-117983000D02*
X129540000Y-118491000D01*
X129540000Y-118491000D02*
X128524000Y-118491000D01*
X128524000Y-118491000D02*
X128524000Y-117983000D01*
D10*
X149650000Y-123400000D02*
X149650000Y-117900000D01*
X149650000Y-117900000D02*
X154400000Y-117900000D01*
X154400000Y-117900000D02*
X155150000Y-118650000D01*
X155150000Y-118650000D02*
X155150000Y-122650000D01*
X155150000Y-122650000D02*
X154400000Y-123400000D01*
X154400000Y-123400000D02*
X149650000Y-123400000D01*
D11*
X154943173Y-120650000D02*
G75*
G03X154943173Y-120650000I-2543173J0D01*
G01*
X125274605Y-112268000D02*
G75*
G03X125274605Y-112268000I-179605J0D01*
G01*
X126746000Y-109347000D02*
X125222000Y-109347000D01*
X125222000Y-109347000D02*
X125222000Y-112141000D01*
X125222000Y-112141000D02*
X126746000Y-112141000D01*
X128270000Y-112141000D02*
X129794000Y-112141000D01*
X129794000Y-112141000D02*
X129794000Y-109347000D01*
X129794000Y-109347000D02*
X128270000Y-109347000D01*
D14*
X138774714Y-108766428D02*
X138012714Y-108766428D01*
X138012714Y-108585000D01*
X138049000Y-108476143D01*
X138121571Y-108403571D01*
X138194143Y-108367286D01*
X138339286Y-108331000D01*
X138448143Y-108331000D01*
X138593286Y-108367286D01*
X138665857Y-108403571D01*
X138738429Y-108476143D01*
X138774714Y-108585000D01*
X138774714Y-108766428D01*
X138085286Y-108040714D02*
X138049000Y-108004428D01*
X138012714Y-107931857D01*
X138012714Y-107750428D01*
X138049000Y-107677857D01*
X138085286Y-107641571D01*
X138157857Y-107605286D01*
X138230429Y-107605286D01*
X138339286Y-107641571D01*
X138774714Y-108077000D01*
X138774714Y-107605286D01*
X152146000Y-110635143D02*
X152109714Y-110671429D01*
X152000857Y-110707714D01*
X151928286Y-110707714D01*
X151819429Y-110671429D01*
X151746857Y-110598857D01*
X151710572Y-110526286D01*
X151674286Y-110381143D01*
X151674286Y-110272286D01*
X151710572Y-110127143D01*
X151746857Y-110054571D01*
X151819429Y-109982000D01*
X151928286Y-109945714D01*
X152000857Y-109945714D01*
X152109714Y-109982000D01*
X152146000Y-110018286D01*
X152400000Y-109945714D02*
X152908000Y-109945714D01*
X152581429Y-110707714D01*
X151873858Y-112104714D02*
X151511001Y-112104714D01*
X151474715Y-112467571D01*
X151511001Y-112431286D01*
X151583572Y-112395000D01*
X151765001Y-112395000D01*
X151837572Y-112431286D01*
X151873858Y-112467571D01*
X151910143Y-112540143D01*
X151910143Y-112721571D01*
X151873858Y-112794143D01*
X151837572Y-112830429D01*
X151765001Y-112866714D01*
X151583572Y-112866714D01*
X151511001Y-112830429D01*
X151474715Y-112794143D01*
X152563286Y-112104714D02*
X152418143Y-112104714D01*
X152345572Y-112141000D01*
X152309286Y-112177286D01*
X152236715Y-112286143D01*
X152200429Y-112431286D01*
X152200429Y-112721571D01*
X152236715Y-112794143D01*
X152273000Y-112830429D01*
X152345572Y-112866714D01*
X152490715Y-112866714D01*
X152563286Y-112830429D01*
X152599572Y-112794143D01*
X152635857Y-112721571D01*
X152635857Y-112540143D01*
X152599572Y-112467571D01*
X152563286Y-112431286D01*
X152490715Y-112395000D01*
X152345572Y-112395000D01*
X152273000Y-112431286D01*
X152236715Y-112467571D01*
X152200429Y-112540143D01*
X153289000Y-112358714D02*
X153289000Y-112866714D01*
X152962429Y-112358714D02*
X152962429Y-112757857D01*
X152998714Y-112830429D01*
X153071286Y-112866714D01*
X153180143Y-112866714D01*
X153252714Y-112830429D01*
X153289000Y-112794143D01*
X153609715Y-112646429D02*
X154190286Y-112646429D01*
X153900000Y-112936714D02*
X153900000Y-112356143D01*
X156917572Y-111342714D02*
X156917572Y-110580714D01*
X157207857Y-110580714D01*
X157280429Y-110617000D01*
X157316714Y-110653286D01*
X157353000Y-110725857D01*
X157353000Y-110834714D01*
X157316714Y-110907286D01*
X157280429Y-110943571D01*
X157207857Y-110979857D01*
X156917572Y-110979857D01*
X157607000Y-110580714D02*
X158078714Y-110580714D01*
X157824714Y-110871000D01*
X157933572Y-110871000D01*
X158006143Y-110907286D01*
X158042429Y-110943571D01*
X158078714Y-111016143D01*
X158078714Y-111197571D01*
X158042429Y-111270143D01*
X158006143Y-111306429D01*
X157933572Y-111342714D01*
X157715857Y-111342714D01*
X157643286Y-111306429D01*
X157607000Y-111270143D01*
X146993429Y-119724714D02*
X146993429Y-120341571D01*
X147029714Y-120414143D01*
X147066000Y-120450429D01*
X147138571Y-120486714D01*
X147283714Y-120486714D01*
X147356286Y-120450429D01*
X147392571Y-120414143D01*
X147428857Y-120341571D01*
X147428857Y-119724714D01*
X148118286Y-119978714D02*
X148118286Y-120486714D01*
X147936857Y-119688429D02*
X147755429Y-120232714D01*
X148227143Y-120232714D01*
X116785572Y-109818714D02*
X116785572Y-109056714D01*
X117075857Y-109056714D01*
X117148429Y-109093000D01*
X117184714Y-109129286D01*
X117221000Y-109201857D01*
X117221000Y-109310714D01*
X117184714Y-109383286D01*
X117148429Y-109419571D01*
X117075857Y-109455857D01*
X116785572Y-109455857D01*
X117946714Y-109818714D02*
X117511286Y-109818714D01*
X117729000Y-109818714D02*
X117729000Y-109056714D01*
X117656429Y-109165571D01*
X117583857Y-109238143D01*
X117511286Y-109274429D01*
X136996714Y-118998999D02*
X136996714Y-119361856D01*
X136234714Y-119361856D01*
X136996714Y-118345857D02*
X136996714Y-118781285D01*
X136996714Y-118563571D02*
X136234714Y-118563571D01*
X136343571Y-118636142D01*
X136416143Y-118708714D01*
X136452429Y-118781285D01*
X136996714Y-123552857D02*
X136996714Y-123988285D01*
X136996714Y-123770571D02*
X136234714Y-123770571D01*
X136343571Y-123843142D01*
X136416143Y-123915714D01*
X136452429Y-123988285D01*
X136234714Y-123081143D02*
X136234714Y-123008571D01*
X136271000Y-122936000D01*
X136307286Y-122899714D01*
X136379857Y-122863428D01*
X136525000Y-122827143D01*
X136706429Y-122827143D01*
X136851571Y-122863428D01*
X136924143Y-122899714D01*
X136960429Y-122936000D01*
X136996714Y-123008571D01*
X136996714Y-123081143D01*
X136960429Y-123153714D01*
X136924143Y-123190000D01*
X136851571Y-123226285D01*
X136706429Y-123262571D01*
X136525000Y-123262571D01*
X136379857Y-123226285D01*
X136307286Y-123190000D01*
X136271000Y-123153714D01*
X136234714Y-123081143D01*
X136488714Y-122174000D02*
X136996714Y-122174000D01*
X136488714Y-122500571D02*
X136887857Y-122500571D01*
X136960429Y-122464286D01*
X136996714Y-122391714D01*
X136996714Y-122282857D01*
X136960429Y-122210286D01*
X136924143Y-122174000D01*
X130701143Y-113792000D02*
X130737429Y-113828286D01*
X130773714Y-113937143D01*
X130773714Y-114009714D01*
X130737429Y-114118571D01*
X130664857Y-114191143D01*
X130592286Y-114227428D01*
X130447143Y-114263714D01*
X130338286Y-114263714D01*
X130193143Y-114227428D01*
X130120571Y-114191143D01*
X130048000Y-114118571D01*
X130011714Y-114009714D01*
X130011714Y-113937143D01*
X130048000Y-113828286D01*
X130084286Y-113792000D01*
X130773714Y-113066286D02*
X130773714Y-113501714D01*
X130773714Y-113284000D02*
X130011714Y-113284000D01*
X130120571Y-113356571D01*
X130193143Y-113429143D01*
X130229429Y-113501714D01*
X127163286Y-115352285D02*
X127127000Y-115315999D01*
X127090714Y-115243428D01*
X127090714Y-115061999D01*
X127127000Y-114989428D01*
X127163286Y-114953142D01*
X127235857Y-114916857D01*
X127308429Y-114916857D01*
X127417286Y-114953142D01*
X127852714Y-115388571D01*
X127852714Y-114916857D01*
X127344714Y-114263714D02*
X127852714Y-114263714D01*
X127344714Y-114590285D02*
X127743857Y-114590285D01*
X127816429Y-114554000D01*
X127852714Y-114481428D01*
X127852714Y-114372571D01*
X127816429Y-114300000D01*
X127780143Y-114263714D01*
X127163286Y-113937142D02*
X127127000Y-113900856D01*
X127090714Y-113828285D01*
X127090714Y-113646856D01*
X127127000Y-113574285D01*
X127163286Y-113537999D01*
X127235857Y-113501714D01*
X127308429Y-113501714D01*
X127417286Y-113537999D01*
X127852714Y-113973428D01*
X127852714Y-113501714D01*
X126873000Y-117366143D02*
X126836714Y-117402429D01*
X126727857Y-117438714D01*
X126655286Y-117438714D01*
X126546429Y-117402429D01*
X126473857Y-117329857D01*
X126437572Y-117257286D01*
X126401286Y-117112143D01*
X126401286Y-117003286D01*
X126437572Y-116858143D01*
X126473857Y-116785571D01*
X126546429Y-116713000D01*
X126655286Y-116676714D01*
X126727857Y-116676714D01*
X126836714Y-116713000D01*
X126873000Y-116749286D01*
X127127000Y-116676714D02*
X127598714Y-116676714D01*
X127344714Y-116967000D01*
X127453572Y-116967000D01*
X127526143Y-117003286D01*
X127562429Y-117039571D01*
X127598714Y-117112143D01*
X127598714Y-117293571D01*
X127562429Y-117366143D01*
X127526143Y-117402429D01*
X127453572Y-117438714D01*
X127235857Y-117438714D01*
X127163286Y-117402429D01*
X127127000Y-117366143D01*
D15*
X130726667Y-126764143D02*
X130702857Y-126800429D01*
X130631429Y-126836714D01*
X130583810Y-126836714D01*
X130512381Y-126800429D01*
X130464762Y-126727857D01*
X130440953Y-126655286D01*
X130417143Y-126510143D01*
X130417143Y-126401286D01*
X130440953Y-126256143D01*
X130464762Y-126183571D01*
X130512381Y-126111000D01*
X130583810Y-126074714D01*
X130631429Y-126074714D01*
X130702857Y-126111000D01*
X130726667Y-126147286D01*
X131155238Y-126328714D02*
X131155238Y-126836714D01*
X131036191Y-126038429D02*
X130917143Y-126582714D01*
X131226667Y-126582714D01*
X131996667Y-126764143D02*
X131972857Y-126800429D01*
X131901429Y-126836714D01*
X131853810Y-126836714D01*
X131782381Y-126800429D01*
X131734762Y-126727857D01*
X131710953Y-126655286D01*
X131687143Y-126510143D01*
X131687143Y-126401286D01*
X131710953Y-126256143D01*
X131734762Y-126183571D01*
X131782381Y-126111000D01*
X131853810Y-126074714D01*
X131901429Y-126074714D01*
X131972857Y-126111000D01*
X131996667Y-126147286D01*
X132449048Y-126074714D02*
X132210953Y-126074714D01*
X132187143Y-126437571D01*
X132210953Y-126401286D01*
X132258572Y-126365000D01*
X132377619Y-126365000D01*
X132425238Y-126401286D01*
X132449048Y-126437571D01*
X132472857Y-126510143D01*
X132472857Y-126691571D01*
X132449048Y-126764143D01*
X132425238Y-126800429D01*
X132377619Y-126836714D01*
X132258572Y-126836714D01*
X132210953Y-126800429D01*
X132187143Y-126764143D01*
X125646667Y-126836714D02*
X125480000Y-126473857D01*
X125360953Y-126836714D02*
X125360953Y-126074714D01*
X125551429Y-126074714D01*
X125599048Y-126111000D01*
X125622857Y-126147286D01*
X125646667Y-126219857D01*
X125646667Y-126328714D01*
X125622857Y-126401286D01*
X125599048Y-126437571D01*
X125551429Y-126473857D01*
X125360953Y-126473857D01*
X125837143Y-126147286D02*
X125860953Y-126111000D01*
X125908572Y-126074714D01*
X126027619Y-126074714D01*
X126075238Y-126111000D01*
X126099048Y-126147286D01*
X126122857Y-126219857D01*
X126122857Y-126292429D01*
X126099048Y-126401286D01*
X125813334Y-126836714D01*
X126122857Y-126836714D01*
X129456667Y-126836714D02*
X129290000Y-126473857D01*
X129170953Y-126836714D02*
X129170953Y-126074714D01*
X129361429Y-126074714D01*
X129409048Y-126111000D01*
X129432857Y-126147286D01*
X129456667Y-126219857D01*
X129456667Y-126328714D01*
X129432857Y-126401286D01*
X129409048Y-126437571D01*
X129361429Y-126473857D01*
X129170953Y-126473857D01*
X129623334Y-126074714D02*
X129932857Y-126074714D01*
X129766191Y-126365000D01*
X129837619Y-126365000D01*
X129885238Y-126401286D01*
X129909048Y-126437571D01*
X129932857Y-126510143D01*
X129932857Y-126691571D01*
X129909048Y-126764143D01*
X129885238Y-126800429D01*
X129837619Y-126836714D01*
X129694762Y-126836714D01*
X129647143Y-126800429D01*
X129623334Y-126764143D01*
X126916667Y-126836714D02*
X126750000Y-126473857D01*
X126630953Y-126836714D02*
X126630953Y-126074714D01*
X126821429Y-126074714D01*
X126869048Y-126111000D01*
X126892857Y-126147286D01*
X126916667Y-126219857D01*
X126916667Y-126328714D01*
X126892857Y-126401286D01*
X126869048Y-126437571D01*
X126821429Y-126473857D01*
X126630953Y-126473857D01*
X127369048Y-126074714D02*
X127130953Y-126074714D01*
X127107143Y-126437571D01*
X127130953Y-126401286D01*
X127178572Y-126365000D01*
X127297619Y-126365000D01*
X127345238Y-126401286D01*
X127369048Y-126437571D01*
X127392857Y-126510143D01*
X127392857Y-126691571D01*
X127369048Y-126764143D01*
X127345238Y-126800429D01*
X127297619Y-126836714D01*
X127178572Y-126836714D01*
X127130953Y-126800429D01*
X127107143Y-126764143D01*
X128186667Y-126836714D02*
X128020000Y-126473857D01*
X127900953Y-126836714D02*
X127900953Y-126074714D01*
X128091429Y-126074714D01*
X128139048Y-126111000D01*
X128162857Y-126147286D01*
X128186667Y-126219857D01*
X128186667Y-126328714D01*
X128162857Y-126401286D01*
X128139048Y-126437571D01*
X128091429Y-126473857D01*
X127900953Y-126473857D01*
X128615238Y-126074714D02*
X128520000Y-126074714D01*
X128472381Y-126111000D01*
X128448572Y-126147286D01*
X128400953Y-126256143D01*
X128377143Y-126401286D01*
X128377143Y-126691571D01*
X128400953Y-126764143D01*
X128424762Y-126800429D01*
X128472381Y-126836714D01*
X128567619Y-126836714D01*
X128615238Y-126800429D01*
X128639048Y-126764143D01*
X128662857Y-126691571D01*
X128662857Y-126510143D01*
X128639048Y-126437571D01*
X128615238Y-126401286D01*
X128567619Y-126365000D01*
X128472381Y-126365000D01*
X128424762Y-126401286D01*
X128400953Y-126437571D01*
X128377143Y-126510143D01*
D14*
X130991429Y-117184714D02*
X130991429Y-117801571D01*
X131027714Y-117874143D01*
X131064000Y-117910429D01*
X131136571Y-117946714D01*
X131281714Y-117946714D01*
X131354286Y-117910429D01*
X131390571Y-117874143D01*
X131426857Y-117801571D01*
X131426857Y-117184714D01*
X131753429Y-117257286D02*
X131789715Y-117221000D01*
X131862286Y-117184714D01*
X132043715Y-117184714D01*
X132116286Y-117221000D01*
X132152572Y-117257286D01*
X132188857Y-117329857D01*
X132188857Y-117402429D01*
X132152572Y-117511286D01*
X131717143Y-117946714D01*
X132188857Y-117946714D01*
X152400000Y-117493143D02*
X152363714Y-117529429D01*
X152254857Y-117565714D01*
X152182286Y-117565714D01*
X152073429Y-117529429D01*
X152000857Y-117456857D01*
X151964572Y-117384286D01*
X151928286Y-117239143D01*
X151928286Y-117130286D01*
X151964572Y-116985143D01*
X152000857Y-116912571D01*
X152073429Y-116840000D01*
X152182286Y-116803714D01*
X152254857Y-116803714D01*
X152363714Y-116840000D01*
X152400000Y-116876286D01*
X153053143Y-116803714D02*
X152908000Y-116803714D01*
X152835429Y-116840000D01*
X152799143Y-116876286D01*
X152726572Y-116985143D01*
X152690286Y-117130286D01*
X152690286Y-117420571D01*
X152726572Y-117493143D01*
X152762857Y-117529429D01*
X152835429Y-117565714D01*
X152980572Y-117565714D01*
X153053143Y-117529429D01*
X153089429Y-117493143D01*
X153125714Y-117420571D01*
X153125714Y-117239143D01*
X153089429Y-117166571D01*
X153053143Y-117130286D01*
X152980572Y-117094000D01*
X152835429Y-117094000D01*
X152762857Y-117130286D01*
X152726572Y-117166571D01*
X152690286Y-117239143D01*
X151873858Y-121629714D02*
X151511001Y-121629714D01*
X151474715Y-121992571D01*
X151511001Y-121956286D01*
X151583572Y-121920000D01*
X151765001Y-121920000D01*
X151837572Y-121956286D01*
X151873858Y-121992571D01*
X151910143Y-122065143D01*
X151910143Y-122246571D01*
X151873858Y-122319143D01*
X151837572Y-122355429D01*
X151765001Y-122391714D01*
X151583572Y-122391714D01*
X151511001Y-122355429D01*
X151474715Y-122319143D01*
X152563286Y-121629714D02*
X152418143Y-121629714D01*
X152345572Y-121666000D01*
X152309286Y-121702286D01*
X152236715Y-121811143D01*
X152200429Y-121956286D01*
X152200429Y-122246571D01*
X152236715Y-122319143D01*
X152273000Y-122355429D01*
X152345572Y-122391714D01*
X152490715Y-122391714D01*
X152563286Y-122355429D01*
X152599572Y-122319143D01*
X152635857Y-122246571D01*
X152635857Y-122065143D01*
X152599572Y-121992571D01*
X152563286Y-121956286D01*
X152490715Y-121920000D01*
X152345572Y-121920000D01*
X152273000Y-121956286D01*
X152236715Y-121992571D01*
X152200429Y-122065143D01*
X153289000Y-121883714D02*
X153289000Y-122391714D01*
X152962429Y-121883714D02*
X152962429Y-122282857D01*
X152998714Y-122355429D01*
X153071286Y-122391714D01*
X153180143Y-122391714D01*
X153252714Y-122355429D01*
X153289000Y-122319143D01*
X153609715Y-121954429D02*
X154190286Y-121954429D01*
X153900000Y-122244714D02*
X153900000Y-121664143D01*
X130701143Y-110598857D02*
X130737429Y-110635143D01*
X130773714Y-110744000D01*
X130773714Y-110816571D01*
X130737429Y-110925428D01*
X130664857Y-110998000D01*
X130592286Y-111034285D01*
X130447143Y-111070571D01*
X130338286Y-111070571D01*
X130193143Y-111034285D01*
X130120571Y-110998000D01*
X130048000Y-110925428D01*
X130011714Y-110816571D01*
X130011714Y-110744000D01*
X130048000Y-110635143D01*
X130084286Y-110598857D01*
X130773714Y-109873143D02*
X130773714Y-110308571D01*
X130773714Y-110090857D02*
X130011714Y-110090857D01*
X130120571Y-110163428D01*
X130193143Y-110236000D01*
X130229429Y-110308571D01*
X130011714Y-109401429D02*
X130011714Y-109328857D01*
X130048000Y-109256286D01*
X130084286Y-109220000D01*
X130156857Y-109183714D01*
X130302000Y-109147429D01*
X130483429Y-109147429D01*
X130628571Y-109183714D01*
X130701143Y-109220000D01*
X130737429Y-109256286D01*
X130773714Y-109328857D01*
X130773714Y-109401429D01*
X130737429Y-109474000D01*
X130701143Y-109510286D01*
X130628571Y-109546571D01*
X130483429Y-109582857D01*
X130302000Y-109582857D01*
X130156857Y-109546571D01*
X130084286Y-109510286D01*
X130048000Y-109474000D01*
X130011714Y-109401429D01*
X127163286Y-111796285D02*
X127127000Y-111759999D01*
X127090714Y-111687428D01*
X127090714Y-111505999D01*
X127127000Y-111433428D01*
X127163286Y-111397142D01*
X127235857Y-111360857D01*
X127308429Y-111360857D01*
X127417286Y-111397142D01*
X127852714Y-111832571D01*
X127852714Y-111360857D01*
X127344714Y-110707714D02*
X127852714Y-110707714D01*
X127344714Y-111034285D02*
X127743857Y-111034285D01*
X127816429Y-110998000D01*
X127852714Y-110925428D01*
X127852714Y-110816571D01*
X127816429Y-110744000D01*
X127780143Y-110707714D01*
X127163286Y-110381142D02*
X127127000Y-110344856D01*
X127090714Y-110272285D01*
X127090714Y-110090856D01*
X127127000Y-110018285D01*
X127163286Y-109981999D01*
X127235857Y-109945714D01*
X127308429Y-109945714D01*
X127417286Y-109981999D01*
X127852714Y-110417428D01*
X127852714Y-109945714D01*
M02*
