G04 (created by PCBNEW (2013-mar-13)-testing) date Wed 10 Jun 2015 12:05:28 AM EDT*
%MOIN*%
G04 Gerber Fmt 3.4, Leading zero omitted, Abs format*
%FSLAX34Y34*%
G01*
G70*
G90*
G04 APERTURE LIST*
%ADD10C,0.005906*%
%ADD11C,0.005000*%
%ADD12C,0.012000*%
%ADD13C,0.002800*%
%ADD14C,0.004700*%
%ADD15C,0.005118*%
G04 APERTURE END LIST*
G54D10*
X58917Y-45582D02*
X58917Y-43417D01*
X58917Y-43417D02*
X60787Y-43417D01*
X60787Y-43417D02*
X61082Y-43712D01*
X61082Y-43712D02*
X61082Y-45287D01*
X61082Y-45287D02*
X60787Y-45582D01*
X60787Y-45582D02*
X58917Y-45582D01*
G54D11*
X61001Y-44500D02*
G75*
G03X61001Y-44500I-1001J0D01*
G74*
G01*
G54D12*
X62500Y-44000D02*
X62500Y-44000D01*
X61500Y-44000D02*
X62500Y-44000D01*
X62500Y-44000D02*
X62500Y-44000D01*
X62500Y-44000D02*
X62500Y-48000D01*
X62500Y-48000D02*
X61500Y-48000D01*
X61500Y-48000D02*
X61500Y-44000D01*
X61500Y-45000D02*
X62500Y-45000D01*
G54D10*
X52811Y-44979D02*
X54188Y-44979D01*
X54188Y-44979D02*
X54188Y-42420D01*
X54188Y-42420D02*
X52811Y-42420D01*
X52811Y-42420D02*
X52811Y-44979D01*
X49000Y-43401D02*
X49000Y-48598D01*
X49000Y-48598D02*
X41909Y-48598D01*
X41909Y-48598D02*
X41909Y-43401D01*
X41909Y-43401D02*
X49000Y-43401D01*
G54D11*
X54150Y-47950D02*
X52700Y-47950D01*
X52700Y-47950D02*
X52700Y-48750D01*
X52700Y-48750D02*
X54150Y-48750D01*
X54150Y-45950D02*
X52700Y-45950D01*
X52700Y-45950D02*
X52700Y-46750D01*
X52700Y-46750D02*
X54150Y-46750D01*
X54150Y-45250D02*
X54150Y-49450D01*
X54150Y-49450D02*
X58150Y-49450D01*
X58150Y-49450D02*
X58150Y-45250D01*
X58150Y-45250D02*
X54150Y-45250D01*
G54D10*
X55500Y-42300D02*
X58099Y-42300D01*
X58099Y-42300D02*
X58099Y-44899D01*
X58099Y-44899D02*
X55500Y-44899D01*
X55500Y-44899D02*
X55500Y-42300D01*
G54D11*
X49420Y-45600D02*
G75*
G03X49420Y-45600I-70J0D01*
G74*
G01*
X50000Y-44450D02*
X49400Y-44450D01*
X49400Y-44450D02*
X49400Y-45550D01*
X49400Y-45550D02*
X50000Y-45550D01*
X50600Y-45550D02*
X51200Y-45550D01*
X51200Y-45550D02*
X51200Y-44450D01*
X51200Y-44450D02*
X50600Y-44450D01*
G54D13*
X51801Y-45150D02*
X51601Y-45150D01*
X51601Y-45150D02*
X51601Y-45450D01*
X51601Y-45450D02*
X51801Y-45450D01*
X52198Y-45150D02*
X52398Y-45150D01*
X52398Y-45150D02*
X52398Y-45450D01*
X52398Y-45450D02*
X52198Y-45450D01*
X51800Y-48401D02*
X51800Y-48201D01*
X51800Y-48201D02*
X51500Y-48201D01*
X51500Y-48201D02*
X51500Y-48401D01*
X51800Y-48798D02*
X51800Y-48998D01*
X51800Y-48998D02*
X51500Y-48998D01*
X51500Y-48998D02*
X51500Y-48798D01*
X52350Y-48401D02*
X52350Y-48201D01*
X52350Y-48201D02*
X52050Y-48201D01*
X52050Y-48201D02*
X52050Y-48401D01*
X52350Y-48798D02*
X52350Y-48998D01*
X52350Y-48998D02*
X52050Y-48998D01*
X52050Y-48998D02*
X52050Y-48798D01*
X49600Y-48401D02*
X49600Y-48201D01*
X49600Y-48201D02*
X49300Y-48201D01*
X49300Y-48201D02*
X49300Y-48401D01*
X49600Y-48798D02*
X49600Y-48998D01*
X49600Y-48998D02*
X49300Y-48998D01*
X49300Y-48998D02*
X49300Y-48798D01*
X51250Y-48401D02*
X51250Y-48201D01*
X51250Y-48201D02*
X50950Y-48201D01*
X50950Y-48201D02*
X50950Y-48401D01*
X51250Y-48798D02*
X51250Y-48998D01*
X51250Y-48998D02*
X50950Y-48998D01*
X50950Y-48998D02*
X50950Y-48798D01*
X50700Y-48401D02*
X50700Y-48201D01*
X50700Y-48201D02*
X50400Y-48201D01*
X50400Y-48201D02*
X50400Y-48401D01*
X50700Y-48798D02*
X50700Y-48998D01*
X50700Y-48998D02*
X50400Y-48998D01*
X50400Y-48998D02*
X50400Y-48798D01*
X50150Y-48401D02*
X50150Y-48201D01*
X50150Y-48201D02*
X49850Y-48201D01*
X49850Y-48201D02*
X49850Y-48401D01*
X50150Y-48798D02*
X50150Y-48998D01*
X50150Y-48998D02*
X49850Y-48998D01*
X49850Y-48998D02*
X49850Y-48798D01*
G54D11*
X50237Y-47900D02*
X50237Y-45794D01*
X51537Y-45794D02*
X51537Y-47900D01*
X51537Y-47900D02*
X50237Y-47900D01*
X51537Y-45794D02*
X50237Y-45794D01*
X51087Y-45787D02*
X51087Y-45987D01*
X51087Y-45987D02*
X50687Y-45987D01*
X50687Y-45987D02*
X50687Y-45787D01*
G54D10*
X58917Y-48582D02*
X58917Y-46417D01*
X58917Y-46417D02*
X60787Y-46417D01*
X60787Y-46417D02*
X61082Y-46712D01*
X61082Y-46712D02*
X61082Y-48287D01*
X61082Y-48287D02*
X60787Y-48582D01*
X60787Y-48582D02*
X58917Y-48582D01*
G54D11*
X61001Y-47500D02*
G75*
G03X61001Y-47500I-1001J0D01*
G74*
G01*
G54D14*
X49950Y-43100D02*
X49950Y-44300D01*
X49950Y-44300D02*
X49650Y-44300D01*
X49650Y-44300D02*
X49650Y-43100D01*
X49650Y-43100D02*
X49950Y-43100D01*
G54D13*
X50950Y-43501D02*
X50950Y-43301D01*
X50950Y-43301D02*
X50650Y-43301D01*
X50650Y-43301D02*
X50650Y-43501D01*
X50950Y-43898D02*
X50950Y-44098D01*
X50950Y-44098D02*
X50650Y-44098D01*
X50650Y-44098D02*
X50650Y-43898D01*
X51450Y-43501D02*
X51450Y-43301D01*
X51450Y-43301D02*
X51150Y-43301D01*
X51150Y-43301D02*
X51150Y-43501D01*
X51450Y-43898D02*
X51450Y-44098D01*
X51450Y-44098D02*
X51150Y-44098D01*
X51150Y-44098D02*
X51150Y-43898D01*
G54D15*
X59900Y-43257D02*
X59885Y-43271D01*
X59842Y-43285D01*
X59814Y-43285D01*
X59771Y-43271D01*
X59742Y-43242D01*
X59728Y-43214D01*
X59714Y-43157D01*
X59714Y-43114D01*
X59728Y-43057D01*
X59742Y-43028D01*
X59771Y-43000D01*
X59814Y-42985D01*
X59842Y-42985D01*
X59885Y-43000D01*
X59900Y-43014D01*
X60000Y-42985D02*
X60200Y-42985D01*
X60071Y-43285D01*
X59792Y-43835D02*
X59650Y-43835D01*
X59635Y-43978D01*
X59650Y-43964D01*
X59678Y-43950D01*
X59750Y-43950D01*
X59778Y-43964D01*
X59792Y-43978D01*
X59807Y-44007D01*
X59807Y-44078D01*
X59792Y-44107D01*
X59778Y-44121D01*
X59750Y-44135D01*
X59678Y-44135D01*
X59650Y-44121D01*
X59635Y-44107D01*
X60064Y-43835D02*
X60007Y-43835D01*
X59978Y-43850D01*
X59964Y-43864D01*
X59935Y-43907D01*
X59921Y-43964D01*
X59921Y-44078D01*
X59935Y-44107D01*
X59950Y-44121D01*
X59978Y-44135D01*
X60035Y-44135D01*
X60064Y-44121D01*
X60078Y-44107D01*
X60092Y-44078D01*
X60092Y-44007D01*
X60078Y-43978D01*
X60064Y-43964D01*
X60035Y-43950D01*
X59978Y-43950D01*
X59950Y-43964D01*
X59935Y-43978D01*
X59921Y-44007D01*
X60350Y-43935D02*
X60350Y-44135D01*
X60221Y-43935D02*
X60221Y-44092D01*
X60235Y-44121D01*
X60264Y-44135D01*
X60307Y-44135D01*
X60335Y-44121D01*
X60350Y-44107D01*
X60476Y-44048D02*
X60704Y-44048D01*
X60590Y-44163D02*
X60590Y-43934D01*
X61778Y-43835D02*
X61778Y-43535D01*
X61892Y-43535D01*
X61921Y-43550D01*
X61935Y-43564D01*
X61950Y-43592D01*
X61950Y-43635D01*
X61935Y-43664D01*
X61921Y-43678D01*
X61892Y-43692D01*
X61778Y-43692D01*
X62050Y-43535D02*
X62235Y-43535D01*
X62135Y-43650D01*
X62178Y-43650D01*
X62207Y-43664D01*
X62221Y-43678D01*
X62235Y-43707D01*
X62235Y-43778D01*
X62221Y-43807D01*
X62207Y-43821D01*
X62178Y-43835D01*
X62092Y-43835D01*
X62064Y-43821D01*
X62050Y-43807D01*
X53271Y-45085D02*
X53271Y-45328D01*
X53285Y-45357D01*
X53300Y-45371D01*
X53328Y-45385D01*
X53385Y-45385D01*
X53414Y-45371D01*
X53428Y-45357D01*
X53442Y-45328D01*
X53442Y-45085D01*
X53714Y-45185D02*
X53714Y-45385D01*
X53642Y-45071D02*
X53571Y-45285D01*
X53757Y-45285D01*
X45978Y-43235D02*
X45978Y-42935D01*
X46092Y-42935D01*
X46121Y-42950D01*
X46135Y-42964D01*
X46150Y-42992D01*
X46150Y-43035D01*
X46135Y-43064D01*
X46121Y-43078D01*
X46092Y-43092D01*
X45978Y-43092D01*
X46435Y-43235D02*
X46264Y-43235D01*
X46350Y-43235D02*
X46350Y-42935D01*
X46321Y-42978D01*
X46292Y-43007D01*
X46264Y-43021D01*
X53428Y-45835D02*
X53428Y-45535D01*
X53500Y-45535D01*
X53542Y-45550D01*
X53571Y-45578D01*
X53585Y-45607D01*
X53600Y-45664D01*
X53600Y-45707D01*
X53585Y-45764D01*
X53571Y-45792D01*
X53542Y-45821D01*
X53500Y-45835D01*
X53428Y-45835D01*
X53714Y-45564D02*
X53728Y-45550D01*
X53757Y-45535D01*
X53828Y-45535D01*
X53857Y-45550D01*
X53871Y-45564D01*
X53885Y-45592D01*
X53885Y-45621D01*
X53871Y-45664D01*
X53700Y-45835D01*
X53885Y-45835D01*
X54671Y-48871D02*
X54685Y-48828D01*
X54685Y-48757D01*
X54671Y-48728D01*
X54657Y-48714D01*
X54628Y-48699D01*
X54600Y-48699D01*
X54571Y-48714D01*
X54557Y-48728D01*
X54542Y-48757D01*
X54528Y-48814D01*
X54514Y-48842D01*
X54500Y-48857D01*
X54471Y-48871D01*
X54442Y-48871D01*
X54414Y-48857D01*
X54400Y-48842D01*
X54385Y-48814D01*
X54385Y-48742D01*
X54400Y-48699D01*
X54385Y-48614D02*
X54385Y-48442D01*
X54685Y-48528D02*
X54385Y-48528D01*
X54685Y-48342D02*
X54385Y-48342D01*
X54385Y-48228D01*
X54400Y-48199D01*
X54414Y-48185D01*
X54442Y-48171D01*
X54485Y-48171D01*
X54514Y-48185D01*
X54528Y-48199D01*
X54542Y-48228D01*
X54542Y-48342D01*
X54671Y-48057D02*
X54685Y-48014D01*
X54685Y-47942D01*
X54671Y-47914D01*
X54657Y-47899D01*
X54628Y-47885D01*
X54600Y-47885D01*
X54571Y-47899D01*
X54557Y-47914D01*
X54542Y-47942D01*
X54528Y-47999D01*
X54514Y-48028D01*
X54500Y-48042D01*
X54471Y-48057D01*
X54442Y-48057D01*
X54414Y-48042D01*
X54400Y-48028D01*
X54385Y-47999D01*
X54385Y-47928D01*
X54400Y-47885D01*
X54414Y-47771D02*
X54400Y-47757D01*
X54385Y-47728D01*
X54385Y-47657D01*
X54400Y-47628D01*
X54414Y-47614D01*
X54442Y-47600D01*
X54471Y-47600D01*
X54514Y-47614D01*
X54685Y-47785D01*
X54685Y-47600D01*
X54385Y-47414D02*
X54385Y-47385D01*
X54400Y-47357D01*
X54414Y-47342D01*
X54442Y-47328D01*
X54500Y-47314D01*
X54571Y-47314D01*
X54628Y-47328D01*
X54657Y-47342D01*
X54671Y-47357D01*
X54685Y-47385D01*
X54685Y-47414D01*
X54671Y-47442D01*
X54657Y-47457D01*
X54628Y-47471D01*
X54571Y-47485D01*
X54500Y-47485D01*
X54442Y-47471D01*
X54414Y-47457D01*
X54400Y-47442D01*
X54385Y-47414D01*
X54685Y-47185D02*
X54385Y-47185D01*
X54600Y-47085D01*
X54385Y-46985D01*
X54685Y-46985D01*
X54685Y-46685D02*
X54685Y-46857D01*
X54685Y-46771D02*
X54385Y-46771D01*
X54428Y-46800D01*
X54457Y-46828D01*
X54471Y-46857D01*
X54385Y-46500D02*
X54385Y-46471D01*
X54400Y-46442D01*
X54414Y-46428D01*
X54442Y-46414D01*
X54500Y-46400D01*
X54571Y-46400D01*
X54628Y-46414D01*
X54657Y-46428D01*
X54671Y-46442D01*
X54685Y-46471D01*
X54685Y-46500D01*
X54671Y-46528D01*
X54657Y-46542D01*
X54628Y-46557D01*
X54571Y-46571D01*
X54500Y-46571D01*
X54442Y-46557D01*
X54414Y-46542D01*
X54400Y-46528D01*
X54385Y-46500D01*
X54385Y-46214D02*
X54385Y-46185D01*
X54400Y-46157D01*
X54414Y-46142D01*
X54442Y-46128D01*
X54500Y-46114D01*
X54571Y-46114D01*
X54628Y-46128D01*
X54657Y-46142D01*
X54671Y-46157D01*
X54685Y-46185D01*
X54685Y-46214D01*
X54671Y-46242D01*
X54657Y-46257D01*
X54628Y-46271D01*
X54571Y-46285D01*
X54500Y-46285D01*
X54442Y-46271D01*
X54414Y-46257D01*
X54400Y-46242D01*
X54385Y-46214D01*
X54671Y-46000D02*
X54685Y-45957D01*
X54685Y-45885D01*
X54671Y-45857D01*
X54657Y-45842D01*
X54628Y-45828D01*
X54600Y-45828D01*
X54571Y-45842D01*
X54557Y-45857D01*
X54542Y-45885D01*
X54528Y-45942D01*
X54514Y-45971D01*
X54500Y-45985D01*
X54471Y-46000D01*
X54442Y-46000D01*
X54414Y-45985D01*
X54400Y-45971D01*
X54385Y-45942D01*
X54385Y-45871D01*
X54400Y-45828D01*
X58510Y-44732D02*
X58510Y-44875D01*
X58210Y-44875D01*
X58510Y-44475D02*
X58510Y-44646D01*
X58510Y-44561D02*
X58210Y-44561D01*
X58253Y-44589D01*
X58281Y-44618D01*
X58296Y-44646D01*
X56657Y-43735D02*
X56485Y-43735D01*
X56571Y-43735D02*
X56571Y-43435D01*
X56542Y-43478D01*
X56514Y-43507D01*
X56485Y-43521D01*
X56842Y-43435D02*
X56871Y-43435D01*
X56900Y-43450D01*
X56914Y-43464D01*
X56928Y-43492D01*
X56942Y-43550D01*
X56942Y-43621D01*
X56928Y-43678D01*
X56914Y-43707D01*
X56900Y-43721D01*
X56871Y-43735D01*
X56842Y-43735D01*
X56814Y-43721D01*
X56800Y-43707D01*
X56785Y-43678D01*
X56771Y-43621D01*
X56771Y-43550D01*
X56785Y-43492D01*
X56800Y-43464D01*
X56814Y-43450D01*
X56842Y-43435D01*
X57200Y-43535D02*
X57200Y-43735D01*
X57071Y-43535D02*
X57071Y-43692D01*
X57085Y-43721D01*
X57114Y-43735D01*
X57157Y-43735D01*
X57185Y-43721D01*
X57200Y-43707D01*
X51557Y-44800D02*
X51571Y-44814D01*
X51585Y-44857D01*
X51585Y-44885D01*
X51571Y-44928D01*
X51542Y-44957D01*
X51514Y-44971D01*
X51457Y-44985D01*
X51414Y-44985D01*
X51357Y-44971D01*
X51328Y-44957D01*
X51300Y-44928D01*
X51285Y-44885D01*
X51285Y-44857D01*
X51300Y-44814D01*
X51314Y-44800D01*
X51585Y-44514D02*
X51585Y-44685D01*
X51585Y-44600D02*
X51285Y-44600D01*
X51328Y-44628D01*
X51357Y-44657D01*
X51371Y-44685D01*
X50164Y-45414D02*
X50150Y-45399D01*
X50135Y-45371D01*
X50135Y-45299D01*
X50150Y-45271D01*
X50164Y-45257D01*
X50192Y-45242D01*
X50221Y-45242D01*
X50264Y-45257D01*
X50435Y-45428D01*
X50435Y-45242D01*
X50235Y-44985D02*
X50435Y-44985D01*
X50235Y-45114D02*
X50392Y-45114D01*
X50421Y-45100D01*
X50435Y-45071D01*
X50435Y-45028D01*
X50421Y-45000D01*
X50407Y-44985D01*
X50164Y-44857D02*
X50150Y-44842D01*
X50135Y-44814D01*
X50135Y-44742D01*
X50150Y-44714D01*
X50164Y-44699D01*
X50192Y-44685D01*
X50221Y-44685D01*
X50264Y-44699D01*
X50435Y-44871D01*
X50435Y-44685D01*
X52250Y-45057D02*
X52235Y-45071D01*
X52192Y-45085D01*
X52164Y-45085D01*
X52121Y-45071D01*
X52092Y-45042D01*
X52078Y-45014D01*
X52064Y-44957D01*
X52064Y-44914D01*
X52078Y-44857D01*
X52092Y-44828D01*
X52121Y-44800D01*
X52164Y-44785D01*
X52192Y-44785D01*
X52235Y-44800D01*
X52250Y-44814D01*
X52350Y-44785D02*
X52535Y-44785D01*
X52435Y-44900D01*
X52478Y-44900D01*
X52507Y-44914D01*
X52521Y-44928D01*
X52535Y-44957D01*
X52535Y-45028D01*
X52521Y-45057D01*
X52507Y-45071D01*
X52478Y-45085D01*
X52392Y-45085D01*
X52364Y-45071D01*
X52350Y-45057D01*
X51600Y-49307D02*
X51585Y-49321D01*
X51542Y-49335D01*
X51514Y-49335D01*
X51471Y-49321D01*
X51442Y-49292D01*
X51428Y-49264D01*
X51414Y-49207D01*
X51414Y-49164D01*
X51428Y-49107D01*
X51442Y-49078D01*
X51471Y-49050D01*
X51514Y-49035D01*
X51542Y-49035D01*
X51585Y-49050D01*
X51600Y-49064D01*
X51857Y-49135D02*
X51857Y-49335D01*
X51785Y-49021D02*
X51714Y-49235D01*
X51900Y-49235D01*
X52150Y-49307D02*
X52135Y-49321D01*
X52092Y-49335D01*
X52064Y-49335D01*
X52021Y-49321D01*
X51992Y-49292D01*
X51978Y-49264D01*
X51964Y-49207D01*
X51964Y-49164D01*
X51978Y-49107D01*
X51992Y-49078D01*
X52021Y-49050D01*
X52064Y-49035D01*
X52092Y-49035D01*
X52135Y-49050D01*
X52150Y-49064D01*
X52421Y-49035D02*
X52278Y-49035D01*
X52264Y-49178D01*
X52278Y-49164D01*
X52307Y-49150D01*
X52378Y-49150D01*
X52407Y-49164D01*
X52421Y-49178D01*
X52435Y-49207D01*
X52435Y-49278D01*
X52421Y-49307D01*
X52407Y-49321D01*
X52378Y-49335D01*
X52307Y-49335D01*
X52278Y-49321D01*
X52264Y-49307D01*
X49400Y-49335D02*
X49300Y-49192D01*
X49228Y-49335D02*
X49228Y-49035D01*
X49342Y-49035D01*
X49371Y-49050D01*
X49385Y-49064D01*
X49400Y-49092D01*
X49400Y-49135D01*
X49385Y-49164D01*
X49371Y-49178D01*
X49342Y-49192D01*
X49228Y-49192D01*
X49514Y-49064D02*
X49528Y-49050D01*
X49557Y-49035D01*
X49628Y-49035D01*
X49657Y-49050D01*
X49671Y-49064D01*
X49685Y-49092D01*
X49685Y-49121D01*
X49671Y-49164D01*
X49500Y-49335D01*
X49685Y-49335D01*
X51050Y-49335D02*
X50950Y-49192D01*
X50878Y-49335D02*
X50878Y-49035D01*
X50992Y-49035D01*
X51021Y-49050D01*
X51035Y-49064D01*
X51050Y-49092D01*
X51050Y-49135D01*
X51035Y-49164D01*
X51021Y-49178D01*
X50992Y-49192D01*
X50878Y-49192D01*
X51150Y-49035D02*
X51335Y-49035D01*
X51235Y-49150D01*
X51278Y-49150D01*
X51307Y-49164D01*
X51321Y-49178D01*
X51335Y-49207D01*
X51335Y-49278D01*
X51321Y-49307D01*
X51307Y-49321D01*
X51278Y-49335D01*
X51192Y-49335D01*
X51164Y-49321D01*
X51150Y-49307D01*
X50500Y-49335D02*
X50400Y-49192D01*
X50328Y-49335D02*
X50328Y-49035D01*
X50442Y-49035D01*
X50471Y-49050D01*
X50485Y-49064D01*
X50500Y-49092D01*
X50500Y-49135D01*
X50485Y-49164D01*
X50471Y-49178D01*
X50442Y-49192D01*
X50328Y-49192D01*
X50771Y-49035D02*
X50628Y-49035D01*
X50614Y-49178D01*
X50628Y-49164D01*
X50657Y-49150D01*
X50728Y-49150D01*
X50757Y-49164D01*
X50771Y-49178D01*
X50785Y-49207D01*
X50785Y-49278D01*
X50771Y-49307D01*
X50757Y-49321D01*
X50728Y-49335D01*
X50657Y-49335D01*
X50628Y-49321D01*
X50614Y-49307D01*
X49950Y-49335D02*
X49850Y-49192D01*
X49778Y-49335D02*
X49778Y-49035D01*
X49892Y-49035D01*
X49921Y-49050D01*
X49935Y-49064D01*
X49950Y-49092D01*
X49950Y-49135D01*
X49935Y-49164D01*
X49921Y-49178D01*
X49892Y-49192D01*
X49778Y-49192D01*
X50207Y-49035D02*
X50150Y-49035D01*
X50121Y-49050D01*
X50107Y-49064D01*
X50078Y-49107D01*
X50064Y-49164D01*
X50064Y-49278D01*
X50078Y-49307D01*
X50092Y-49321D01*
X50121Y-49335D01*
X50178Y-49335D01*
X50207Y-49321D01*
X50221Y-49307D01*
X50235Y-49278D01*
X50235Y-49207D01*
X50221Y-49178D01*
X50207Y-49164D01*
X50178Y-49150D01*
X50121Y-49150D01*
X50092Y-49164D01*
X50078Y-49178D01*
X50064Y-49207D01*
X51671Y-47835D02*
X51671Y-48078D01*
X51685Y-48107D01*
X51700Y-48121D01*
X51728Y-48135D01*
X51785Y-48135D01*
X51814Y-48121D01*
X51828Y-48107D01*
X51842Y-48078D01*
X51842Y-47835D01*
X51971Y-47864D02*
X51985Y-47850D01*
X52014Y-47835D01*
X52085Y-47835D01*
X52114Y-47850D01*
X52128Y-47864D01*
X52142Y-47892D01*
X52142Y-47921D01*
X52128Y-47964D01*
X51957Y-48135D01*
X52142Y-48135D01*
X60000Y-46257D02*
X59985Y-46271D01*
X59942Y-46285D01*
X59914Y-46285D01*
X59871Y-46271D01*
X59842Y-46242D01*
X59828Y-46214D01*
X59814Y-46157D01*
X59814Y-46114D01*
X59828Y-46057D01*
X59842Y-46028D01*
X59871Y-46000D01*
X59914Y-45985D01*
X59942Y-45985D01*
X59985Y-46000D01*
X60000Y-46014D01*
X60257Y-45985D02*
X60200Y-45985D01*
X60171Y-46000D01*
X60157Y-46014D01*
X60128Y-46057D01*
X60114Y-46114D01*
X60114Y-46228D01*
X60128Y-46257D01*
X60142Y-46271D01*
X60171Y-46285D01*
X60228Y-46285D01*
X60257Y-46271D01*
X60271Y-46257D01*
X60285Y-46228D01*
X60285Y-46157D01*
X60271Y-46128D01*
X60257Y-46114D01*
X60228Y-46100D01*
X60171Y-46100D01*
X60142Y-46114D01*
X60128Y-46128D01*
X60114Y-46157D01*
X59792Y-47885D02*
X59650Y-47885D01*
X59635Y-48028D01*
X59650Y-48014D01*
X59678Y-48000D01*
X59750Y-48000D01*
X59778Y-48014D01*
X59792Y-48028D01*
X59807Y-48057D01*
X59807Y-48128D01*
X59792Y-48157D01*
X59778Y-48171D01*
X59750Y-48185D01*
X59678Y-48185D01*
X59650Y-48171D01*
X59635Y-48157D01*
X60064Y-47885D02*
X60007Y-47885D01*
X59978Y-47900D01*
X59964Y-47914D01*
X59935Y-47957D01*
X59921Y-48014D01*
X59921Y-48128D01*
X59935Y-48157D01*
X59950Y-48171D01*
X59978Y-48185D01*
X60035Y-48185D01*
X60064Y-48171D01*
X60078Y-48157D01*
X60092Y-48128D01*
X60092Y-48057D01*
X60078Y-48028D01*
X60064Y-48014D01*
X60035Y-48000D01*
X59978Y-48000D01*
X59950Y-48014D01*
X59935Y-48028D01*
X59921Y-48057D01*
X60350Y-47985D02*
X60350Y-48185D01*
X60221Y-47985D02*
X60221Y-48142D01*
X60235Y-48171D01*
X60264Y-48185D01*
X60307Y-48185D01*
X60335Y-48171D01*
X60350Y-48157D01*
X60476Y-48013D02*
X60704Y-48013D01*
X60590Y-48127D02*
X60590Y-47899D01*
X49464Y-43228D02*
X49450Y-43257D01*
X49421Y-43285D01*
X49378Y-43328D01*
X49364Y-43357D01*
X49364Y-43385D01*
X49435Y-43371D02*
X49421Y-43400D01*
X49392Y-43428D01*
X49335Y-43442D01*
X49235Y-43442D01*
X49178Y-43428D01*
X49150Y-43400D01*
X49135Y-43371D01*
X49135Y-43314D01*
X49150Y-43285D01*
X49178Y-43257D01*
X49235Y-43242D01*
X49335Y-43242D01*
X49392Y-43257D01*
X49421Y-43285D01*
X49435Y-43314D01*
X49435Y-43371D01*
X49435Y-42957D02*
X49435Y-43128D01*
X49435Y-43042D02*
X49135Y-43042D01*
X49178Y-43071D01*
X49207Y-43100D01*
X49221Y-43128D01*
X50750Y-43235D02*
X50650Y-43092D01*
X50578Y-43235D02*
X50578Y-42935D01*
X50692Y-42935D01*
X50721Y-42950D01*
X50735Y-42964D01*
X50750Y-42992D01*
X50750Y-43035D01*
X50735Y-43064D01*
X50721Y-43078D01*
X50692Y-43092D01*
X50578Y-43092D01*
X50892Y-43235D02*
X50950Y-43235D01*
X50978Y-43221D01*
X50992Y-43207D01*
X51021Y-43164D01*
X51035Y-43107D01*
X51035Y-42992D01*
X51021Y-42964D01*
X51007Y-42950D01*
X50978Y-42935D01*
X50921Y-42935D01*
X50892Y-42950D01*
X50878Y-42964D01*
X50864Y-42992D01*
X50864Y-43064D01*
X50878Y-43092D01*
X50892Y-43107D01*
X50921Y-43121D01*
X50978Y-43121D01*
X51007Y-43107D01*
X51021Y-43092D01*
X51035Y-43064D01*
X51107Y-44435D02*
X51007Y-44292D01*
X50935Y-44435D02*
X50935Y-44135D01*
X51050Y-44135D01*
X51078Y-44150D01*
X51092Y-44164D01*
X51107Y-44192D01*
X51107Y-44235D01*
X51092Y-44264D01*
X51078Y-44278D01*
X51050Y-44292D01*
X50935Y-44292D01*
X51392Y-44435D02*
X51221Y-44435D01*
X51307Y-44435D02*
X51307Y-44135D01*
X51278Y-44178D01*
X51250Y-44207D01*
X51221Y-44221D01*
X51578Y-44135D02*
X51607Y-44135D01*
X51635Y-44150D01*
X51650Y-44164D01*
X51664Y-44192D01*
X51678Y-44250D01*
X51678Y-44321D01*
X51664Y-44378D01*
X51650Y-44407D01*
X51635Y-44421D01*
X51607Y-44435D01*
X51578Y-44435D01*
X51550Y-44421D01*
X51535Y-44407D01*
X51521Y-44378D01*
X51507Y-44321D01*
X51507Y-44250D01*
X51521Y-44192D01*
X51535Y-44164D01*
X51550Y-44150D01*
X51578Y-44135D01*
M02*
