%FSLAX45Y45*%
G04 Gerber Fmt 4.5, Leading zero omitted, Abs format (unit mm)*
G04 Created by KiCad (PCBNEW 4.0.2+dfsg1-stable) date Tue 12 Jul 2016 10:09:25 PM EDT*
%MOMM*%
G01*
G04 APERTURE LIST*
%ADD10C,0.127000*%
%ADD11C,0.100000*%
%ADD12C,0.200000*%
%ADD13C,0.300000*%
G04 APERTURE END LIST*
D10*
D11*
X11772900Y-10668000D02*
X11430000Y-10668000D01*
X15074900Y-10668000D02*
X12103100Y-10668000D01*
X15748000Y-10668000D02*
X15405100Y-10668000D01*
X15405100Y-12700000D02*
X15748000Y-12700000D01*
X12103100Y-12700000D02*
X15074900Y-12700000D01*
X11430000Y-12700000D02*
X11772900Y-12700000D01*
X12268200Y-12700000D02*
G75*
G03X12268200Y-12700000I-330200J0D01*
G01*
X15570200Y-12700000D02*
G75*
G03X15570200Y-12700000I-330200J0D01*
G01*
X15570200Y-10668000D02*
G75*
G03X15570200Y-10668000I-330200J0D01*
G01*
X12268200Y-10668000D02*
G75*
G03X12268200Y-10668000I-330200J0D01*
G01*
X15405100Y-12700000D02*
G75*
G03X15074900Y-12700000I-165100J0D01*
G01*
X12103100Y-12700000D02*
G75*
G03X11772900Y-12700000I-165100J0D01*
G01*
X11772900Y-10668000D02*
G75*
G03X12103100Y-10668000I165100J0D01*
G01*
X15074900Y-10668000D02*
G75*
G03X15405100Y-10668000I165100J0D01*
G01*
X15748000Y-12700000D02*
G75*
G03X16002000Y-12446000I0J254000D01*
G01*
X16002000Y-10922000D02*
G75*
G03X15748000Y-10668000I-254000J0D01*
G01*
X16002000Y-10922000D02*
X16002000Y-12446000D01*
X11176000Y-12446000D02*
G75*
G03X11430000Y-12700000I254000J0D01*
G01*
X11430000Y-10668000D02*
G75*
G03X11176000Y-10922000I0J-254000D01*
G01*
X11176000Y-10922000D02*
X11176000Y-12446000D01*
D12*
X11309350Y-11410950D02*
X11347450Y-11449050D01*
X11347450Y-11410950D02*
X11309350Y-11449050D01*
X11309350Y-11614150D02*
X11347450Y-11652250D01*
X11347450Y-11614150D02*
X11309350Y-11652250D01*
X11309350Y-11817350D02*
X11347450Y-11855450D01*
X11347450Y-11817350D02*
X11309350Y-11855450D01*
X11334750Y-12452350D02*
X11372850Y-12490450D01*
X11372850Y-12452350D02*
X11334750Y-12490450D01*
X11360150Y-10902950D02*
X11398250Y-10941050D01*
X11398250Y-10902950D02*
X11360150Y-10941050D01*
X11410950Y-11512550D02*
X11449050Y-11550650D01*
X11449050Y-11512550D02*
X11410950Y-11550650D01*
X11410950Y-11715750D02*
X11449050Y-11753850D01*
X11449050Y-11715750D02*
X11410950Y-11753850D01*
X11410950Y-11918950D02*
X11449050Y-11957050D01*
X11449050Y-11918950D02*
X11410950Y-11957050D01*
X11436350Y-12553950D02*
X11474450Y-12592050D01*
X11474450Y-12553950D02*
X11436350Y-12592050D01*
X11461750Y-10801350D02*
X11499850Y-10839450D01*
X11499850Y-10801350D02*
X11461750Y-10839450D01*
X11766550Y-11106150D02*
X11804650Y-11144250D01*
X11804650Y-11106150D02*
X11766550Y-11144250D01*
X11918950Y-11106150D02*
X11957050Y-11144250D01*
X11957050Y-11106150D02*
X11918950Y-11144250D01*
X11918950Y-11233150D02*
X11957050Y-11271250D01*
X11957050Y-11233150D02*
X11918950Y-11271250D01*
X12071350Y-11106150D02*
X12109450Y-11144250D01*
X12109450Y-11106150D02*
X12071350Y-11144250D01*
X12096750Y-11258550D02*
X12134850Y-11296650D01*
X12134850Y-11258550D02*
X12096750Y-11296650D01*
X12325350Y-10801350D02*
X12363450Y-10839450D01*
X12363450Y-10801350D02*
X12325350Y-10839450D01*
X12350750Y-12122150D02*
X12388850Y-12160250D01*
X12388850Y-12122150D02*
X12350750Y-12160250D01*
X12376150Y-12515850D02*
X12414250Y-12553950D01*
X12414250Y-12515850D02*
X12376150Y-12553950D01*
X12477750Y-10801350D02*
X12515850Y-10839450D01*
X12515850Y-10801350D02*
X12477750Y-10839450D01*
X12630150Y-10801350D02*
X12668250Y-10839450D01*
X12668250Y-10801350D02*
X12630150Y-10839450D01*
X12782550Y-10801350D02*
X12820650Y-10839450D01*
X12820650Y-10801350D02*
X12782550Y-10839450D01*
X12807950Y-11995150D02*
X12846050Y-12033250D01*
X12846050Y-11995150D02*
X12807950Y-12033250D01*
X12807950Y-12147550D02*
X12846050Y-12185650D01*
X12846050Y-12147550D02*
X12807950Y-12185650D01*
X12884150Y-12071350D02*
X12922250Y-12109450D01*
X12922250Y-12071350D02*
X12884150Y-12109450D01*
X12934950Y-10801350D02*
X12973050Y-10839450D01*
X12973050Y-10801350D02*
X12934950Y-10839450D01*
X12960350Y-11995150D02*
X12998450Y-12033250D01*
X12998450Y-11995150D02*
X12960350Y-12033250D01*
X12960350Y-12147550D02*
X12998450Y-12185650D01*
X12998450Y-12147550D02*
X12960350Y-12185650D01*
X13023850Y-11588750D02*
X13061950Y-11626850D01*
X13061950Y-11588750D02*
X13023850Y-11626850D01*
X14331950Y-12553950D02*
X14370050Y-12592050D01*
X14370050Y-12553950D02*
X14331950Y-12592050D01*
X14611350Y-12299950D02*
X14649450Y-12338050D01*
X14649450Y-12299950D02*
X14611350Y-12338050D01*
X15043150Y-11080750D02*
X15081250Y-11118850D01*
X15081250Y-11080750D02*
X15043150Y-11118850D01*
X15081250Y-11804650D02*
X15119350Y-11842750D01*
X15119350Y-11804650D02*
X15081250Y-11842750D01*
X15170150Y-11080750D02*
X15208250Y-11118850D01*
X15208250Y-11080750D02*
X15170150Y-11118850D01*
X15297150Y-11080750D02*
X15335250Y-11118850D01*
X15335250Y-11080750D02*
X15297150Y-11118850D01*
X15373350Y-11487150D02*
X15411450Y-11525250D01*
X15411450Y-11487150D02*
X15373350Y-11525250D01*
X15373350Y-11842750D02*
X15411450Y-11880850D01*
X15411450Y-11842750D02*
X15373350Y-11880850D01*
X15424150Y-11080750D02*
X15462250Y-11118850D01*
X15462250Y-11080750D02*
X15424150Y-11118850D01*
X15728950Y-10801350D02*
X15767050Y-10839450D01*
X15767050Y-10801350D02*
X15728950Y-10839450D01*
X15728950Y-12553950D02*
X15767050Y-12592050D01*
X15767050Y-12553950D02*
X15728950Y-12592050D01*
X15830550Y-10902950D02*
X15868650Y-10941050D01*
X15868650Y-10902950D02*
X15830550Y-10941050D01*
X15855950Y-12426950D02*
X15894050Y-12465050D01*
X15894050Y-12426950D02*
X15855950Y-12465050D01*
X12110000Y-11493500D02*
G75*
G03X12110000Y-11493500I-45000J0D01*
G01*
X12110000Y-11747500D02*
G75*
G03X12110000Y-11747500I-45000J0D01*
G01*
X12364000Y-11620500D02*
G75*
G03X12364000Y-11620500I-45000J0D01*
G01*
X12364000Y-11874500D02*
G75*
G03X12364000Y-11874500I-45000J0D01*
G01*
X15824200Y-11233000D02*
X15824200Y-11373000D01*
X15754200Y-11303000D02*
X15894200Y-11303000D01*
X15824200Y-11487000D02*
X15824200Y-11627000D01*
X15754200Y-11557000D02*
X15894200Y-11557000D01*
X15824200Y-11741000D02*
X15824200Y-11881000D01*
X15754200Y-11811000D02*
X15894200Y-11811000D01*
X15824200Y-11995000D02*
X15824200Y-12135000D01*
X15754200Y-12065000D02*
X15894200Y-12065000D01*
D13*
X11442428Y-13500914D02*
X11442428Y-13200914D01*
X11513857Y-13200914D01*
X11556714Y-13215200D01*
X11585286Y-13243771D01*
X11599571Y-13272343D01*
X11613857Y-13329486D01*
X11613857Y-13372343D01*
X11599571Y-13429486D01*
X11585286Y-13458057D01*
X11556714Y-13486629D01*
X11513857Y-13500914D01*
X11442428Y-13500914D01*
X11742428Y-13500914D02*
X11742428Y-13300914D01*
X11742428Y-13358057D02*
X11756714Y-13329486D01*
X11771000Y-13315200D01*
X11799571Y-13300914D01*
X11828143Y-13300914D01*
X11928143Y-13500914D02*
X11928143Y-13300914D01*
X11928143Y-13200914D02*
X11913857Y-13215200D01*
X11928143Y-13229486D01*
X11942428Y-13215200D01*
X11928143Y-13200914D01*
X11928143Y-13229486D01*
X12113857Y-13500914D02*
X12085286Y-13486629D01*
X12071000Y-13458057D01*
X12071000Y-13200914D01*
X12271000Y-13500914D02*
X12242428Y-13486629D01*
X12228143Y-13458057D01*
X12228143Y-13200914D01*
X12613857Y-13500914D02*
X12613857Y-13200914D01*
X12713857Y-13415200D01*
X12813857Y-13200914D01*
X12813857Y-13500914D01*
X13085286Y-13500914D02*
X13085286Y-13343771D01*
X13071000Y-13315200D01*
X13042428Y-13300914D01*
X12985286Y-13300914D01*
X12956714Y-13315200D01*
X13085286Y-13486629D02*
X13056714Y-13500914D01*
X12985286Y-13500914D01*
X12956714Y-13486629D01*
X12942428Y-13458057D01*
X12942428Y-13429486D01*
X12956714Y-13400914D01*
X12985286Y-13386629D01*
X13056714Y-13386629D01*
X13085286Y-13372343D01*
X13228143Y-13300914D02*
X13228143Y-13600914D01*
X13228143Y-13315200D02*
X13256714Y-13300914D01*
X13313857Y-13300914D01*
X13342428Y-13315200D01*
X13356714Y-13329486D01*
X13371000Y-13358057D01*
X13371000Y-13443771D01*
X13356714Y-13472343D01*
X13342428Y-13486629D01*
X13313857Y-13500914D01*
X13256714Y-13500914D01*
X13228143Y-13486629D01*
X13499571Y-13472343D02*
X13513857Y-13486629D01*
X13499571Y-13500914D01*
X13485286Y-13486629D01*
X13499571Y-13472343D01*
X13499571Y-13500914D01*
X13499571Y-13315200D02*
X13513857Y-13329486D01*
X13499571Y-13343771D01*
X13485286Y-13329486D01*
X13499571Y-13315200D01*
X13499571Y-13343771D01*
X11132900Y-13976150D02*
X11171000Y-14014250D01*
X11171000Y-13976150D02*
X11132900Y-14014250D01*
X11499571Y-13830914D02*
X11528143Y-13830914D01*
X11556714Y-13845200D01*
X11571000Y-13859486D01*
X11585286Y-13888057D01*
X11599571Y-13945200D01*
X11599571Y-14016629D01*
X11585286Y-14073771D01*
X11571000Y-14102343D01*
X11556714Y-14116629D01*
X11528143Y-14130914D01*
X11499571Y-14130914D01*
X11471000Y-14116629D01*
X11456714Y-14102343D01*
X11442428Y-14073771D01*
X11428143Y-14016629D01*
X11428143Y-13945200D01*
X11442428Y-13888057D01*
X11456714Y-13859486D01*
X11471000Y-13845200D01*
X11499571Y-13830914D01*
X11728143Y-14102343D02*
X11742428Y-14116629D01*
X11728143Y-14130914D01*
X11713857Y-14116629D01*
X11728143Y-14102343D01*
X11728143Y-14130914D01*
X11842428Y-13830914D02*
X12028143Y-13830914D01*
X11928143Y-13945200D01*
X11971000Y-13945200D01*
X11999571Y-13959486D01*
X12013857Y-13973771D01*
X12028143Y-14002343D01*
X12028143Y-14073771D01*
X12013857Y-14102343D01*
X11999571Y-14116629D01*
X11971000Y-14130914D01*
X11885286Y-14130914D01*
X11856714Y-14116629D01*
X11842428Y-14102343D01*
X12199571Y-13959486D02*
X12171000Y-13945200D01*
X12156714Y-13930914D01*
X12142428Y-13902343D01*
X12142428Y-13888057D01*
X12156714Y-13859486D01*
X12171000Y-13845200D01*
X12199571Y-13830914D01*
X12256714Y-13830914D01*
X12285286Y-13845200D01*
X12299571Y-13859486D01*
X12313857Y-13888057D01*
X12313857Y-13902343D01*
X12299571Y-13930914D01*
X12285286Y-13945200D01*
X12256714Y-13959486D01*
X12199571Y-13959486D01*
X12171000Y-13973771D01*
X12156714Y-13988057D01*
X12142428Y-14016629D01*
X12142428Y-14073771D01*
X12156714Y-14102343D01*
X12171000Y-14116629D01*
X12199571Y-14130914D01*
X12256714Y-14130914D01*
X12285286Y-14116629D01*
X12299571Y-14102343D01*
X12313857Y-14073771D01*
X12313857Y-14016629D01*
X12299571Y-13988057D01*
X12285286Y-13973771D01*
X12256714Y-13959486D01*
X12442428Y-14130914D02*
X12442428Y-13930914D01*
X12442428Y-13959486D02*
X12456714Y-13945200D01*
X12485286Y-13930914D01*
X12528143Y-13930914D01*
X12556714Y-13945200D01*
X12571000Y-13973771D01*
X12571000Y-14130914D01*
X12571000Y-13973771D02*
X12585286Y-13945200D01*
X12613857Y-13930914D01*
X12656714Y-13930914D01*
X12685286Y-13945200D01*
X12699571Y-13973771D01*
X12699571Y-14130914D01*
X12842428Y-14130914D02*
X12842428Y-13930914D01*
X12842428Y-13959486D02*
X12856714Y-13945200D01*
X12885286Y-13930914D01*
X12928143Y-13930914D01*
X12956714Y-13945200D01*
X12971000Y-13973771D01*
X12971000Y-14130914D01*
X12971000Y-13973771D02*
X12985286Y-13945200D01*
X13013857Y-13930914D01*
X13056714Y-13930914D01*
X13085286Y-13945200D01*
X13099571Y-13973771D01*
X13099571Y-14130914D01*
X13685286Y-13816629D02*
X13428143Y-14202343D01*
X14071000Y-13830914D02*
X14099571Y-13830914D01*
X14128143Y-13845200D01*
X14142428Y-13859486D01*
X14156714Y-13888057D01*
X14171000Y-13945200D01*
X14171000Y-14016629D01*
X14156714Y-14073771D01*
X14142428Y-14102343D01*
X14128143Y-14116629D01*
X14099571Y-14130914D01*
X14071000Y-14130914D01*
X14042428Y-14116629D01*
X14028143Y-14102343D01*
X14013857Y-14073771D01*
X13999571Y-14016629D01*
X13999571Y-13945200D01*
X14013857Y-13888057D01*
X14028143Y-13859486D01*
X14042428Y-13845200D01*
X14071000Y-13830914D01*
X14299571Y-14102343D02*
X14313857Y-14116629D01*
X14299571Y-14130914D01*
X14285286Y-14116629D01*
X14299571Y-14102343D01*
X14299571Y-14130914D01*
X14499571Y-13830914D02*
X14528143Y-13830914D01*
X14556714Y-13845200D01*
X14571000Y-13859486D01*
X14585285Y-13888057D01*
X14599571Y-13945200D01*
X14599571Y-14016629D01*
X14585285Y-14073771D01*
X14571000Y-14102343D01*
X14556714Y-14116629D01*
X14528143Y-14130914D01*
X14499571Y-14130914D01*
X14471000Y-14116629D01*
X14456714Y-14102343D01*
X14442428Y-14073771D01*
X14428143Y-14016629D01*
X14428143Y-13945200D01*
X14442428Y-13888057D01*
X14456714Y-13859486D01*
X14471000Y-13845200D01*
X14499571Y-13830914D01*
X14885285Y-14130914D02*
X14713857Y-14130914D01*
X14799571Y-14130914D02*
X14799571Y-13830914D01*
X14771000Y-13873771D01*
X14742428Y-13902343D01*
X14713857Y-13916629D01*
X15156714Y-13830914D02*
X15013857Y-13830914D01*
X14999571Y-13973771D01*
X15013857Y-13959486D01*
X15042428Y-13945200D01*
X15113857Y-13945200D01*
X15142428Y-13959486D01*
X15156714Y-13973771D01*
X15171000Y-14002343D01*
X15171000Y-14073771D01*
X15156714Y-14102343D01*
X15142428Y-14116629D01*
X15113857Y-14130914D01*
X15042428Y-14130914D01*
X15013857Y-14116629D01*
X14999571Y-14102343D01*
X15285286Y-13830914D02*
X15285286Y-13888057D01*
X15399571Y-13830914D02*
X15399571Y-13888057D01*
X15842428Y-14245200D02*
X15828143Y-14230914D01*
X15799571Y-14188057D01*
X15785285Y-14159486D01*
X15771000Y-14116629D01*
X15756714Y-14045200D01*
X15756714Y-13988057D01*
X15771000Y-13916629D01*
X15785285Y-13873771D01*
X15799571Y-13845200D01*
X15828143Y-13802343D01*
X15842428Y-13788057D01*
X16085285Y-13930914D02*
X16085285Y-14130914D01*
X16013857Y-13816629D02*
X15942428Y-14030914D01*
X16128143Y-14030914D01*
X16399571Y-14130914D02*
X16228143Y-14130914D01*
X16313857Y-14130914D02*
X16313857Y-13830914D01*
X16285285Y-13873771D01*
X16256714Y-13902343D01*
X16228143Y-13916629D01*
X16756714Y-14130914D02*
X16756714Y-13830914D01*
X16885286Y-14130914D02*
X16885286Y-13973771D01*
X16871000Y-13945200D01*
X16842428Y-13930914D01*
X16799571Y-13930914D01*
X16771000Y-13945200D01*
X16756714Y-13959486D01*
X17071000Y-14130914D02*
X17042428Y-14116629D01*
X17028143Y-14102343D01*
X17013857Y-14073771D01*
X17013857Y-13988057D01*
X17028143Y-13959486D01*
X17042428Y-13945200D01*
X17071000Y-13930914D01*
X17113857Y-13930914D01*
X17142428Y-13945200D01*
X17156714Y-13959486D01*
X17171000Y-13988057D01*
X17171000Y-14073771D01*
X17156714Y-14102343D01*
X17142428Y-14116629D01*
X17113857Y-14130914D01*
X17071000Y-14130914D01*
X17342428Y-14130914D02*
X17313857Y-14116629D01*
X17299571Y-14088057D01*
X17299571Y-13830914D01*
X17571000Y-14116629D02*
X17542429Y-14130914D01*
X17485286Y-14130914D01*
X17456714Y-14116629D01*
X17442429Y-14088057D01*
X17442429Y-13973771D01*
X17456714Y-13945200D01*
X17485286Y-13930914D01*
X17542429Y-13930914D01*
X17571000Y-13945200D01*
X17585286Y-13973771D01*
X17585286Y-14002343D01*
X17442429Y-14030914D01*
X17699571Y-14116629D02*
X17728143Y-14130914D01*
X17785286Y-14130914D01*
X17813857Y-14116629D01*
X17828143Y-14088057D01*
X17828143Y-14073771D01*
X17813857Y-14045200D01*
X17785286Y-14030914D01*
X17742429Y-14030914D01*
X17713857Y-14016629D01*
X17699571Y-13988057D01*
X17699571Y-13973771D01*
X17713857Y-13945200D01*
X17742429Y-13930914D01*
X17785286Y-13930914D01*
X17813857Y-13945200D01*
X17928143Y-14245200D02*
X17942429Y-14230914D01*
X17971000Y-14188057D01*
X17985286Y-14159486D01*
X17999571Y-14116629D01*
X18013857Y-14045200D01*
X18013857Y-13988057D01*
X17999571Y-13916629D01*
X17985286Y-13873771D01*
X17971000Y-13845200D01*
X17942429Y-13802343D01*
X17928143Y-13788057D01*
X11171000Y-14391200D02*
G75*
G03X11171000Y-14391200I-45000J0D01*
G01*
X11499571Y-14226914D02*
X11528143Y-14226914D01*
X11556714Y-14241200D01*
X11571000Y-14255486D01*
X11585286Y-14284057D01*
X11599571Y-14341200D01*
X11599571Y-14412629D01*
X11585286Y-14469771D01*
X11571000Y-14498343D01*
X11556714Y-14512629D01*
X11528143Y-14526914D01*
X11499571Y-14526914D01*
X11471000Y-14512629D01*
X11456714Y-14498343D01*
X11442428Y-14469771D01*
X11428143Y-14412629D01*
X11428143Y-14341200D01*
X11442428Y-14284057D01*
X11456714Y-14255486D01*
X11471000Y-14241200D01*
X11499571Y-14226914D01*
X11728143Y-14498343D02*
X11742428Y-14512629D01*
X11728143Y-14526914D01*
X11713857Y-14512629D01*
X11728143Y-14498343D01*
X11728143Y-14526914D01*
X11885286Y-14526914D02*
X11942428Y-14526914D01*
X11971000Y-14512629D01*
X11985286Y-14498343D01*
X12013857Y-14455486D01*
X12028143Y-14398343D01*
X12028143Y-14284057D01*
X12013857Y-14255486D01*
X11999571Y-14241200D01*
X11971000Y-14226914D01*
X11913857Y-14226914D01*
X11885286Y-14241200D01*
X11871000Y-14255486D01*
X11856714Y-14284057D01*
X11856714Y-14355486D01*
X11871000Y-14384057D01*
X11885286Y-14398343D01*
X11913857Y-14412629D01*
X11971000Y-14412629D01*
X11999571Y-14398343D01*
X12013857Y-14384057D01*
X12028143Y-14355486D01*
X12213857Y-14226914D02*
X12242428Y-14226914D01*
X12271000Y-14241200D01*
X12285286Y-14255486D01*
X12299571Y-14284057D01*
X12313857Y-14341200D01*
X12313857Y-14412629D01*
X12299571Y-14469771D01*
X12285286Y-14498343D01*
X12271000Y-14512629D01*
X12242428Y-14526914D01*
X12213857Y-14526914D01*
X12185286Y-14512629D01*
X12171000Y-14498343D01*
X12156714Y-14469771D01*
X12142428Y-14412629D01*
X12142428Y-14341200D01*
X12156714Y-14284057D01*
X12171000Y-14255486D01*
X12185286Y-14241200D01*
X12213857Y-14226914D01*
X12442428Y-14526914D02*
X12442428Y-14326914D01*
X12442428Y-14355486D02*
X12456714Y-14341200D01*
X12485286Y-14326914D01*
X12528143Y-14326914D01*
X12556714Y-14341200D01*
X12571000Y-14369771D01*
X12571000Y-14526914D01*
X12571000Y-14369771D02*
X12585286Y-14341200D01*
X12613857Y-14326914D01*
X12656714Y-14326914D01*
X12685286Y-14341200D01*
X12699571Y-14369771D01*
X12699571Y-14526914D01*
X12842428Y-14526914D02*
X12842428Y-14326914D01*
X12842428Y-14355486D02*
X12856714Y-14341200D01*
X12885286Y-14326914D01*
X12928143Y-14326914D01*
X12956714Y-14341200D01*
X12971000Y-14369771D01*
X12971000Y-14526914D01*
X12971000Y-14369771D02*
X12985286Y-14341200D01*
X13013857Y-14326914D01*
X13056714Y-14326914D01*
X13085286Y-14341200D01*
X13099571Y-14369771D01*
X13099571Y-14526914D01*
X13685286Y-14212629D02*
X13428143Y-14598343D01*
X14071000Y-14226914D02*
X14099571Y-14226914D01*
X14128143Y-14241200D01*
X14142428Y-14255486D01*
X14156714Y-14284057D01*
X14171000Y-14341200D01*
X14171000Y-14412629D01*
X14156714Y-14469771D01*
X14142428Y-14498343D01*
X14128143Y-14512629D01*
X14099571Y-14526914D01*
X14071000Y-14526914D01*
X14042428Y-14512629D01*
X14028143Y-14498343D01*
X14013857Y-14469771D01*
X13999571Y-14412629D01*
X13999571Y-14341200D01*
X14013857Y-14284057D01*
X14028143Y-14255486D01*
X14042428Y-14241200D01*
X14071000Y-14226914D01*
X14299571Y-14498343D02*
X14313857Y-14512629D01*
X14299571Y-14526914D01*
X14285286Y-14512629D01*
X14299571Y-14498343D01*
X14299571Y-14526914D01*
X14499571Y-14226914D02*
X14528143Y-14226914D01*
X14556714Y-14241200D01*
X14571000Y-14255486D01*
X14585285Y-14284057D01*
X14599571Y-14341200D01*
X14599571Y-14412629D01*
X14585285Y-14469771D01*
X14571000Y-14498343D01*
X14556714Y-14512629D01*
X14528143Y-14526914D01*
X14499571Y-14526914D01*
X14471000Y-14512629D01*
X14456714Y-14498343D01*
X14442428Y-14469771D01*
X14428143Y-14412629D01*
X14428143Y-14341200D01*
X14442428Y-14284057D01*
X14456714Y-14255486D01*
X14471000Y-14241200D01*
X14499571Y-14226914D01*
X14699571Y-14226914D02*
X14885285Y-14226914D01*
X14785285Y-14341200D01*
X14828143Y-14341200D01*
X14856714Y-14355486D01*
X14871000Y-14369771D01*
X14885285Y-14398343D01*
X14885285Y-14469771D01*
X14871000Y-14498343D01*
X14856714Y-14512629D01*
X14828143Y-14526914D01*
X14742428Y-14526914D01*
X14713857Y-14512629D01*
X14699571Y-14498343D01*
X15156714Y-14226914D02*
X15013857Y-14226914D01*
X14999571Y-14369771D01*
X15013857Y-14355486D01*
X15042428Y-14341200D01*
X15113857Y-14341200D01*
X15142428Y-14355486D01*
X15156714Y-14369771D01*
X15171000Y-14398343D01*
X15171000Y-14469771D01*
X15156714Y-14498343D01*
X15142428Y-14512629D01*
X15113857Y-14526914D01*
X15042428Y-14526914D01*
X15013857Y-14512629D01*
X14999571Y-14498343D01*
X15285286Y-14226914D02*
X15285286Y-14284057D01*
X15399571Y-14226914D02*
X15399571Y-14284057D01*
X15842428Y-14641200D02*
X15828143Y-14626914D01*
X15799571Y-14584057D01*
X15785285Y-14555486D01*
X15771000Y-14512629D01*
X15756714Y-14441200D01*
X15756714Y-14384057D01*
X15771000Y-14312629D01*
X15785285Y-14269771D01*
X15799571Y-14241200D01*
X15828143Y-14198343D01*
X15842428Y-14184057D01*
X16085285Y-14326914D02*
X16085285Y-14526914D01*
X16013857Y-14212629D02*
X15942428Y-14426914D01*
X16128143Y-14426914D01*
X16471000Y-14526914D02*
X16471000Y-14226914D01*
X16599571Y-14526914D02*
X16599571Y-14369771D01*
X16585285Y-14341200D01*
X16556714Y-14326914D01*
X16513857Y-14326914D01*
X16485285Y-14341200D01*
X16471000Y-14355486D01*
X16785286Y-14526914D02*
X16756714Y-14512629D01*
X16742428Y-14498343D01*
X16728143Y-14469771D01*
X16728143Y-14384057D01*
X16742428Y-14355486D01*
X16756714Y-14341200D01*
X16785286Y-14326914D01*
X16828143Y-14326914D01*
X16856714Y-14341200D01*
X16871000Y-14355486D01*
X16885286Y-14384057D01*
X16885286Y-14469771D01*
X16871000Y-14498343D01*
X16856714Y-14512629D01*
X16828143Y-14526914D01*
X16785286Y-14526914D01*
X17056714Y-14526914D02*
X17028143Y-14512629D01*
X17013857Y-14484057D01*
X17013857Y-14226914D01*
X17285286Y-14512629D02*
X17256714Y-14526914D01*
X17199571Y-14526914D01*
X17171000Y-14512629D01*
X17156714Y-14484057D01*
X17156714Y-14369771D01*
X17171000Y-14341200D01*
X17199571Y-14326914D01*
X17256714Y-14326914D01*
X17285286Y-14341200D01*
X17299571Y-14369771D01*
X17299571Y-14398343D01*
X17156714Y-14426914D01*
X17413857Y-14512629D02*
X17442429Y-14526914D01*
X17499571Y-14526914D01*
X17528143Y-14512629D01*
X17542429Y-14484057D01*
X17542429Y-14469771D01*
X17528143Y-14441200D01*
X17499571Y-14426914D01*
X17456714Y-14426914D01*
X17428143Y-14412629D01*
X17413857Y-14384057D01*
X17413857Y-14369771D01*
X17428143Y-14341200D01*
X17456714Y-14326914D01*
X17499571Y-14326914D01*
X17528143Y-14341200D01*
X17642428Y-14641200D02*
X17656714Y-14626914D01*
X17685286Y-14584057D01*
X17699571Y-14555486D01*
X17713857Y-14512629D01*
X17728143Y-14441200D01*
X17728143Y-14384057D01*
X17713857Y-14312629D01*
X17699571Y-14269771D01*
X17685286Y-14241200D01*
X17656714Y-14198343D01*
X17642428Y-14184057D01*
X11101000Y-14717200D02*
X11101000Y-14857200D01*
X11031000Y-14787200D02*
X11171000Y-14787200D01*
X11599571Y-14922914D02*
X11428143Y-14922914D01*
X11513857Y-14922914D02*
X11513857Y-14622914D01*
X11485286Y-14665771D01*
X11456714Y-14694343D01*
X11428143Y-14708629D01*
X11728143Y-14894343D02*
X11742428Y-14908629D01*
X11728143Y-14922914D01*
X11713857Y-14908629D01*
X11728143Y-14894343D01*
X11728143Y-14922914D01*
X11999571Y-14722914D02*
X11999571Y-14922914D01*
X11928143Y-14608629D02*
X11856714Y-14822914D01*
X12042428Y-14822914D01*
X12213857Y-14622914D02*
X12242428Y-14622914D01*
X12271000Y-14637200D01*
X12285286Y-14651486D01*
X12299571Y-14680057D01*
X12313857Y-14737200D01*
X12313857Y-14808629D01*
X12299571Y-14865771D01*
X12285286Y-14894343D01*
X12271000Y-14908629D01*
X12242428Y-14922914D01*
X12213857Y-14922914D01*
X12185286Y-14908629D01*
X12171000Y-14894343D01*
X12156714Y-14865771D01*
X12142428Y-14808629D01*
X12142428Y-14737200D01*
X12156714Y-14680057D01*
X12171000Y-14651486D01*
X12185286Y-14637200D01*
X12213857Y-14622914D01*
X12442428Y-14922914D02*
X12442428Y-14722914D01*
X12442428Y-14751486D02*
X12456714Y-14737200D01*
X12485286Y-14722914D01*
X12528143Y-14722914D01*
X12556714Y-14737200D01*
X12571000Y-14765771D01*
X12571000Y-14922914D01*
X12571000Y-14765771D02*
X12585286Y-14737200D01*
X12613857Y-14722914D01*
X12656714Y-14722914D01*
X12685286Y-14737200D01*
X12699571Y-14765771D01*
X12699571Y-14922914D01*
X12842428Y-14922914D02*
X12842428Y-14722914D01*
X12842428Y-14751486D02*
X12856714Y-14737200D01*
X12885286Y-14722914D01*
X12928143Y-14722914D01*
X12956714Y-14737200D01*
X12971000Y-14765771D01*
X12971000Y-14922914D01*
X12971000Y-14765771D02*
X12985286Y-14737200D01*
X13013857Y-14722914D01*
X13056714Y-14722914D01*
X13085286Y-14737200D01*
X13099571Y-14765771D01*
X13099571Y-14922914D01*
X13685286Y-14608629D02*
X13428143Y-14994343D01*
X14071000Y-14622914D02*
X14099571Y-14622914D01*
X14128143Y-14637200D01*
X14142428Y-14651486D01*
X14156714Y-14680057D01*
X14171000Y-14737200D01*
X14171000Y-14808629D01*
X14156714Y-14865771D01*
X14142428Y-14894343D01*
X14128143Y-14908629D01*
X14099571Y-14922914D01*
X14071000Y-14922914D01*
X14042428Y-14908629D01*
X14028143Y-14894343D01*
X14013857Y-14865771D01*
X13999571Y-14808629D01*
X13999571Y-14737200D01*
X14013857Y-14680057D01*
X14028143Y-14651486D01*
X14042428Y-14637200D01*
X14071000Y-14622914D01*
X14299571Y-14894343D02*
X14313857Y-14908629D01*
X14299571Y-14922914D01*
X14285286Y-14908629D01*
X14299571Y-14894343D01*
X14299571Y-14922914D01*
X14499571Y-14622914D02*
X14528143Y-14622914D01*
X14556714Y-14637200D01*
X14571000Y-14651486D01*
X14585285Y-14680057D01*
X14599571Y-14737200D01*
X14599571Y-14808629D01*
X14585285Y-14865771D01*
X14571000Y-14894343D01*
X14556714Y-14908629D01*
X14528143Y-14922914D01*
X14499571Y-14922914D01*
X14471000Y-14908629D01*
X14456714Y-14894343D01*
X14442428Y-14865771D01*
X14428143Y-14808629D01*
X14428143Y-14737200D01*
X14442428Y-14680057D01*
X14456714Y-14651486D01*
X14471000Y-14637200D01*
X14499571Y-14622914D01*
X14871000Y-14622914D02*
X14728143Y-14622914D01*
X14713857Y-14765771D01*
X14728143Y-14751486D01*
X14756714Y-14737200D01*
X14828143Y-14737200D01*
X14856714Y-14751486D01*
X14871000Y-14765771D01*
X14885285Y-14794343D01*
X14885285Y-14865771D01*
X14871000Y-14894343D01*
X14856714Y-14908629D01*
X14828143Y-14922914D01*
X14756714Y-14922914D01*
X14728143Y-14908629D01*
X14713857Y-14894343D01*
X15156714Y-14622914D02*
X15013857Y-14622914D01*
X14999571Y-14765771D01*
X15013857Y-14751486D01*
X15042428Y-14737200D01*
X15113857Y-14737200D01*
X15142428Y-14751486D01*
X15156714Y-14765771D01*
X15171000Y-14794343D01*
X15171000Y-14865771D01*
X15156714Y-14894343D01*
X15142428Y-14908629D01*
X15113857Y-14922914D01*
X15042428Y-14922914D01*
X15013857Y-14908629D01*
X14999571Y-14894343D01*
X15285286Y-14622914D02*
X15285286Y-14680057D01*
X15399571Y-14622914D02*
X15399571Y-14680057D01*
X15842428Y-15037200D02*
X15828143Y-15022914D01*
X15799571Y-14980057D01*
X15785285Y-14951486D01*
X15771000Y-14908629D01*
X15756714Y-14837200D01*
X15756714Y-14780057D01*
X15771000Y-14708629D01*
X15785285Y-14665771D01*
X15799571Y-14637200D01*
X15828143Y-14594343D01*
X15842428Y-14580057D01*
X16085285Y-14722914D02*
X16085285Y-14922914D01*
X16013857Y-14608629D02*
X15942428Y-14822914D01*
X16128143Y-14822914D01*
X16471000Y-14922914D02*
X16471000Y-14622914D01*
X16599571Y-14922914D02*
X16599571Y-14765771D01*
X16585285Y-14737200D01*
X16556714Y-14722914D01*
X16513857Y-14722914D01*
X16485285Y-14737200D01*
X16471000Y-14751486D01*
X16785286Y-14922914D02*
X16756714Y-14908629D01*
X16742428Y-14894343D01*
X16728143Y-14865771D01*
X16728143Y-14780057D01*
X16742428Y-14751486D01*
X16756714Y-14737200D01*
X16785286Y-14722914D01*
X16828143Y-14722914D01*
X16856714Y-14737200D01*
X16871000Y-14751486D01*
X16885286Y-14780057D01*
X16885286Y-14865771D01*
X16871000Y-14894343D01*
X16856714Y-14908629D01*
X16828143Y-14922914D01*
X16785286Y-14922914D01*
X17056714Y-14922914D02*
X17028143Y-14908629D01*
X17013857Y-14880057D01*
X17013857Y-14622914D01*
X17285286Y-14908629D02*
X17256714Y-14922914D01*
X17199571Y-14922914D01*
X17171000Y-14908629D01*
X17156714Y-14880057D01*
X17156714Y-14765771D01*
X17171000Y-14737200D01*
X17199571Y-14722914D01*
X17256714Y-14722914D01*
X17285286Y-14737200D01*
X17299571Y-14765771D01*
X17299571Y-14794343D01*
X17156714Y-14822914D01*
X17413857Y-14908629D02*
X17442429Y-14922914D01*
X17499571Y-14922914D01*
X17528143Y-14908629D01*
X17542429Y-14880057D01*
X17542429Y-14865771D01*
X17528143Y-14837200D01*
X17499571Y-14822914D01*
X17456714Y-14822914D01*
X17428143Y-14808629D01*
X17413857Y-14780057D01*
X17413857Y-14765771D01*
X17428143Y-14737200D01*
X17456714Y-14722914D01*
X17499571Y-14722914D01*
X17528143Y-14737200D01*
X17642428Y-15037200D02*
X17656714Y-15022914D01*
X17685286Y-14980057D01*
X17699571Y-14951486D01*
X17713857Y-14908629D01*
X17728143Y-14837200D01*
X17728143Y-14780057D01*
X17713857Y-14708629D01*
X17699571Y-14665771D01*
X17685286Y-14637200D01*
X17656714Y-14594343D01*
X17642428Y-14580057D01*
M02*
