G04 #@! TF.FileFunction,Legend,Top*
%FSLAX46Y46*%
G04 Gerber Fmt 4.6, Leading zero omitted, Abs format (unit mm)*
G04 Created by KiCad (PCBNEW 4.0.2+dfsg1-stable) date Mon 23 May 2016 11:27:05 PM EDT*
%MOMM*%
G01*
G04 APERTURE LIST*
%ADD10C,0.150000*%
%ADD11C,0.130000*%
%ADD12C,0.050800*%
%ADD13C,0.127000*%
%ADD14C,0.304800*%
%ADD15C,0.076200*%
G04 APERTURE END LIST*
D10*
D11*
X158532285Y-110943571D02*
X157951714Y-110943571D01*
X158532285Y-122881571D02*
X157951714Y-122881571D01*
X158242000Y-122591286D02*
X158242000Y-123171857D01*
D12*
X124460000Y-122936000D02*
X116586000Y-122936000D01*
X125222000Y-123698000D02*
X124460000Y-122936000D01*
X132334000Y-123698000D02*
X125222000Y-123698000D01*
D10*
X150666000Y-122638000D02*
X150666000Y-117138000D01*
X150666000Y-117138000D02*
X155416000Y-117138000D01*
X155416000Y-117138000D02*
X156166000Y-117888000D01*
X156166000Y-117888000D02*
X156166000Y-121888000D01*
X156166000Y-121888000D02*
X155416000Y-122638000D01*
X155416000Y-122638000D02*
X150666000Y-122638000D01*
D13*
X155959173Y-119888000D02*
G75*
G03X155959173Y-119888000I-2543173J0D01*
G01*
D10*
X146530000Y-118670000D02*
X143030000Y-118670000D01*
X143030000Y-118670000D02*
X143030000Y-125170000D01*
X143030000Y-125170000D02*
X146530000Y-125170000D01*
X146530000Y-125170000D02*
X146530000Y-118670000D01*
X150666000Y-116542000D02*
X150666000Y-111042000D01*
X150666000Y-111042000D02*
X155416000Y-111042000D01*
X155416000Y-111042000D02*
X156166000Y-111792000D01*
X156166000Y-111792000D02*
X156166000Y-115792000D01*
X156166000Y-115792000D02*
X155416000Y-116542000D01*
X155416000Y-116542000D02*
X150666000Y-116542000D01*
D13*
X155959173Y-113792000D02*
G75*
G03X155959173Y-113792000I-2543173J0D01*
G01*
D10*
X149606000Y-108966000D02*
X143002000Y-108966000D01*
X143002000Y-110998000D02*
X149606000Y-110998000D01*
X149606000Y-114046000D02*
X143002000Y-114046000D01*
X143002000Y-116078000D02*
X149606000Y-116078000D01*
X132334000Y-118110000D02*
X132334000Y-106934000D01*
X132334000Y-106934000D02*
X143002000Y-106934000D01*
X143002000Y-106934000D02*
X143002000Y-118110000D01*
X143002000Y-118110000D02*
X132334000Y-118110000D01*
X149606000Y-110998000D02*
X149606000Y-108966000D01*
X149606000Y-116078000D02*
X149606000Y-114046000D01*
D14*
X156972000Y-121920000D02*
X156972000Y-121920000D01*
X159512000Y-121920000D02*
X156972000Y-121920000D01*
X156972000Y-121920000D02*
X156972000Y-121920000D01*
X156972000Y-121920000D02*
X156972000Y-111760000D01*
X156972000Y-111760000D02*
X159512000Y-111760000D01*
X159512000Y-111760000D02*
X159512000Y-121920000D01*
X159512000Y-119380000D02*
X156972000Y-119380000D01*
D10*
X124460000Y-110240000D02*
X124460000Y-123440000D01*
X124460000Y-123440000D02*
X106450000Y-123440000D01*
X106450000Y-123440000D02*
X106450000Y-110240000D01*
X106450000Y-110240000D02*
X124460000Y-110240000D01*
X139825000Y-119636000D02*
X139825000Y-126236000D01*
X139825000Y-126236000D02*
X133225000Y-126236000D01*
X133225000Y-126236000D02*
X133225000Y-119636000D01*
X133225000Y-119636000D02*
X139825000Y-119636000D01*
D13*
X127381000Y-123604020D02*
X127381000Y-118254780D01*
X130683000Y-118254780D02*
X130683000Y-123604020D01*
X130683000Y-123604020D02*
X127381000Y-123604020D01*
X130683000Y-118254780D02*
X127381000Y-118254780D01*
X129540000Y-118237000D02*
X129540000Y-118745000D01*
X129540000Y-118745000D02*
X128524000Y-118745000D01*
X128524000Y-118745000D02*
X128524000Y-118237000D01*
D10*
X129282000Y-116569000D02*
X128782000Y-116569000D01*
X128782000Y-117619000D02*
X129282000Y-117619000D01*
X130412000Y-124718000D02*
X130412000Y-125218000D01*
X131462000Y-125218000D02*
X131462000Y-124718000D01*
X132732000Y-125218000D02*
X132732000Y-124718000D01*
X131682000Y-124718000D02*
X131682000Y-125218000D01*
X126382000Y-125218000D02*
X126382000Y-124718000D01*
X125332000Y-124718000D02*
X125332000Y-125218000D01*
X130192000Y-125218000D02*
X130192000Y-124718000D01*
X129142000Y-124718000D02*
X129142000Y-125218000D01*
X127872000Y-124718000D02*
X127872000Y-125218000D01*
X128922000Y-125218000D02*
X128922000Y-124718000D01*
X127652000Y-125218000D02*
X127652000Y-124718000D01*
X126602000Y-124718000D02*
X126602000Y-125218000D01*
X128508000Y-109269000D02*
X126508000Y-109269000D01*
X126508000Y-112219000D02*
X128508000Y-112219000D01*
X128508000Y-112825000D02*
X126508000Y-112825000D01*
X126508000Y-115775000D02*
X128508000Y-115775000D01*
D15*
X150295429Y-117940667D02*
X150319619Y-117964857D01*
X150343810Y-118037429D01*
X150343810Y-118085810D01*
X150319619Y-118158381D01*
X150271238Y-118206762D01*
X150222857Y-118230953D01*
X150126095Y-118255143D01*
X150053524Y-118255143D01*
X149956762Y-118230953D01*
X149908381Y-118206762D01*
X149860000Y-118158381D01*
X149835810Y-118085810D01*
X149835810Y-118037429D01*
X149860000Y-117964857D01*
X149884190Y-117940667D01*
X149835810Y-117505238D02*
X149835810Y-117602000D01*
X149860000Y-117650381D01*
X149884190Y-117674572D01*
X149956762Y-117722953D01*
X150053524Y-117747143D01*
X150247048Y-117747143D01*
X150295429Y-117722953D01*
X150319619Y-117698762D01*
X150343810Y-117650381D01*
X150343810Y-117553619D01*
X150319619Y-117505238D01*
X150295429Y-117481048D01*
X150247048Y-117456857D01*
X150126095Y-117456857D01*
X150077714Y-117481048D01*
X150053524Y-117505238D01*
X150029333Y-117553619D01*
X150029333Y-117650381D01*
X150053524Y-117698762D01*
X150077714Y-117722953D01*
X150126095Y-117747143D01*
X153065238Y-121006810D02*
X152823333Y-121006810D01*
X152799143Y-121248714D01*
X152823333Y-121224524D01*
X152871714Y-121200333D01*
X152992667Y-121200333D01*
X153041048Y-121224524D01*
X153065238Y-121248714D01*
X153089429Y-121297095D01*
X153089429Y-121418048D01*
X153065238Y-121466429D01*
X153041048Y-121490619D01*
X152992667Y-121514810D01*
X152871714Y-121514810D01*
X152823333Y-121490619D01*
X152799143Y-121466429D01*
X153524858Y-121006810D02*
X153428096Y-121006810D01*
X153379715Y-121031000D01*
X153355524Y-121055190D01*
X153307143Y-121127762D01*
X153282953Y-121224524D01*
X153282953Y-121418048D01*
X153307143Y-121466429D01*
X153331334Y-121490619D01*
X153379715Y-121514810D01*
X153476477Y-121514810D01*
X153524858Y-121490619D01*
X153549048Y-121466429D01*
X153573239Y-121418048D01*
X153573239Y-121297095D01*
X153549048Y-121248714D01*
X153524858Y-121224524D01*
X153476477Y-121200333D01*
X153379715Y-121200333D01*
X153331334Y-121224524D01*
X153307143Y-121248714D01*
X153282953Y-121297095D01*
X154008668Y-121176143D02*
X154008668Y-121514810D01*
X153790953Y-121176143D02*
X153790953Y-121442238D01*
X153815144Y-121490619D01*
X153863525Y-121514810D01*
X153936096Y-121514810D01*
X153984477Y-121490619D01*
X154008668Y-121466429D01*
X154722476Y-121174286D02*
X155109524Y-121174286D01*
X154916000Y-121367810D02*
X154916000Y-120980762D01*
X147186952Y-118847810D02*
X147186952Y-119259048D01*
X147211143Y-119307429D01*
X147235333Y-119331619D01*
X147283714Y-119355810D01*
X147380476Y-119355810D01*
X147428857Y-119331619D01*
X147453048Y-119307429D01*
X147477238Y-119259048D01*
X147477238Y-118847810D01*
X147936857Y-119017143D02*
X147936857Y-119355810D01*
X147815904Y-118823619D02*
X147694952Y-119186476D01*
X148009428Y-119186476D01*
X145009810Y-125149431D02*
X144501810Y-125149431D01*
X145009810Y-124859145D01*
X144501810Y-124859145D01*
X144961429Y-124326955D02*
X144985619Y-124351145D01*
X145009810Y-124423717D01*
X145009810Y-124472098D01*
X144985619Y-124544669D01*
X144937238Y-124593050D01*
X144888857Y-124617241D01*
X144792095Y-124641431D01*
X144719524Y-124641431D01*
X144622762Y-124617241D01*
X144574381Y-124593050D01*
X144526000Y-124544669D01*
X144501810Y-124472098D01*
X144501810Y-124423717D01*
X144526000Y-124351145D01*
X144550190Y-124326955D01*
X145009810Y-124109241D02*
X144501810Y-124109241D01*
X144501810Y-123915717D01*
X144526000Y-123867336D01*
X144550190Y-123843145D01*
X144598571Y-123818955D01*
X144671143Y-123818955D01*
X144719524Y-123843145D01*
X144743714Y-123867336D01*
X144767905Y-123915717D01*
X144767905Y-124109241D01*
X145009810Y-123335145D02*
X145009810Y-123625431D01*
X145009810Y-123480288D02*
X144501810Y-123480288D01*
X144574381Y-123528669D01*
X144622762Y-123577050D01*
X144646952Y-123625431D01*
X145009810Y-122851335D02*
X145009810Y-123141621D01*
X145009810Y-122996478D02*
X144501810Y-122996478D01*
X144574381Y-123044859D01*
X144622762Y-123093240D01*
X144646952Y-123141621D01*
X145009810Y-122367525D02*
X145009810Y-122657811D01*
X145009810Y-122512668D02*
X144501810Y-122512668D01*
X144574381Y-122561049D01*
X144622762Y-122609430D01*
X144646952Y-122657811D01*
X144501810Y-122198192D02*
X144501810Y-121859525D01*
X145009810Y-122077239D01*
X144985619Y-121690191D02*
X145009810Y-121617620D01*
X145009810Y-121496667D01*
X144985619Y-121448286D01*
X144961429Y-121424096D01*
X144913048Y-121399905D01*
X144864667Y-121399905D01*
X144816286Y-121424096D01*
X144792095Y-121448286D01*
X144767905Y-121496667D01*
X144743714Y-121593429D01*
X144719524Y-121641810D01*
X144695333Y-121666001D01*
X144646952Y-121690191D01*
X144598571Y-121690191D01*
X144550190Y-121666001D01*
X144526000Y-121641810D01*
X144501810Y-121593429D01*
X144501810Y-121472477D01*
X144526000Y-121399905D01*
X144501810Y-121254762D02*
X144501810Y-120964476D01*
X145009810Y-121109619D02*
X144501810Y-121109619D01*
X144501810Y-120843524D02*
X144501810Y-120529047D01*
X144695333Y-120698381D01*
X144695333Y-120625809D01*
X144719524Y-120577428D01*
X144743714Y-120553238D01*
X144792095Y-120529047D01*
X144913048Y-120529047D01*
X144961429Y-120553238D01*
X144985619Y-120577428D01*
X145009810Y-120625809D01*
X145009810Y-120770952D01*
X144985619Y-120819333D01*
X144961429Y-120843524D01*
X144501810Y-120359714D02*
X144501810Y-120045237D01*
X144695333Y-120214571D01*
X144695333Y-120141999D01*
X144719524Y-120093618D01*
X144743714Y-120069428D01*
X144792095Y-120045237D01*
X144913048Y-120045237D01*
X144961429Y-120069428D01*
X144985619Y-120093618D01*
X145009810Y-120141999D01*
X145009810Y-120287142D01*
X144985619Y-120335523D01*
X144961429Y-120359714D01*
X144501810Y-119900094D02*
X144501810Y-119609808D01*
X145009810Y-119754951D02*
X144501810Y-119754951D01*
X144501810Y-119488856D02*
X144501810Y-119174379D01*
X144695333Y-119343713D01*
X144695333Y-119271141D01*
X144719524Y-119222760D01*
X144743714Y-119198570D01*
X144792095Y-119174379D01*
X144913048Y-119174379D01*
X144961429Y-119198570D01*
X144985619Y-119222760D01*
X145009810Y-119271141D01*
X145009810Y-119416284D01*
X144985619Y-119464665D01*
X144961429Y-119488856D01*
X144526000Y-118690569D02*
X144501810Y-118738950D01*
X144501810Y-118811522D01*
X144526000Y-118884093D01*
X144574381Y-118932474D01*
X144622762Y-118956665D01*
X144719524Y-118980855D01*
X144792095Y-118980855D01*
X144888857Y-118956665D01*
X144937238Y-118932474D01*
X144985619Y-118884093D01*
X145009810Y-118811522D01*
X145009810Y-118763141D01*
X144985619Y-118690569D01*
X144961429Y-118666379D01*
X144792095Y-118666379D01*
X144792095Y-118763141D01*
X150295429Y-111844667D02*
X150319619Y-111868857D01*
X150343810Y-111941429D01*
X150343810Y-111989810D01*
X150319619Y-112062381D01*
X150271238Y-112110762D01*
X150222857Y-112134953D01*
X150126095Y-112159143D01*
X150053524Y-112159143D01*
X149956762Y-112134953D01*
X149908381Y-112110762D01*
X149860000Y-112062381D01*
X149835810Y-111989810D01*
X149835810Y-111941429D01*
X149860000Y-111868857D01*
X149884190Y-111844667D01*
X149835810Y-111675334D02*
X149835810Y-111336667D01*
X150343810Y-111554381D01*
X153065238Y-112243810D02*
X152823333Y-112243810D01*
X152799143Y-112485714D01*
X152823333Y-112461524D01*
X152871714Y-112437333D01*
X152992667Y-112437333D01*
X153041048Y-112461524D01*
X153065238Y-112485714D01*
X153089429Y-112534095D01*
X153089429Y-112655048D01*
X153065238Y-112703429D01*
X153041048Y-112727619D01*
X152992667Y-112751810D01*
X152871714Y-112751810D01*
X152823333Y-112727619D01*
X152799143Y-112703429D01*
X153524858Y-112243810D02*
X153428096Y-112243810D01*
X153379715Y-112268000D01*
X153355524Y-112292190D01*
X153307143Y-112364762D01*
X153282953Y-112461524D01*
X153282953Y-112655048D01*
X153307143Y-112703429D01*
X153331334Y-112727619D01*
X153379715Y-112751810D01*
X153476477Y-112751810D01*
X153524858Y-112727619D01*
X153549048Y-112703429D01*
X153573239Y-112655048D01*
X153573239Y-112534095D01*
X153549048Y-112485714D01*
X153524858Y-112461524D01*
X153476477Y-112437333D01*
X153379715Y-112437333D01*
X153331334Y-112461524D01*
X153307143Y-112485714D01*
X153282953Y-112534095D01*
X154008668Y-112413143D02*
X154008668Y-112751810D01*
X153790953Y-112413143D02*
X153790953Y-112679238D01*
X153815144Y-112727619D01*
X153863525Y-112751810D01*
X153936096Y-112751810D01*
X153984477Y-112727619D01*
X154008668Y-112703429D01*
X154722476Y-112628286D02*
X155109524Y-112628286D01*
X154916000Y-112821810D02*
X154916000Y-112434762D01*
X144501810Y-117468953D02*
X143993810Y-117468953D01*
X143993810Y-117348000D01*
X144018000Y-117275429D01*
X144066381Y-117227048D01*
X144114762Y-117202857D01*
X144211524Y-117178667D01*
X144284095Y-117178667D01*
X144380857Y-117202857D01*
X144429238Y-117227048D01*
X144477619Y-117275429D01*
X144501810Y-117348000D01*
X144501810Y-117468953D01*
X144042190Y-116985143D02*
X144018000Y-116960953D01*
X143993810Y-116912572D01*
X143993810Y-116791619D01*
X144018000Y-116743238D01*
X144042190Y-116719048D01*
X144090571Y-116694857D01*
X144138952Y-116694857D01*
X144211524Y-116719048D01*
X144501810Y-117009334D01*
X144501810Y-116694857D01*
X142445619Y-115098287D02*
X142469810Y-115025716D01*
X142469810Y-114904763D01*
X142445619Y-114856382D01*
X142421429Y-114832192D01*
X142373048Y-114808001D01*
X142324667Y-114808001D01*
X142276286Y-114832192D01*
X142252095Y-114856382D01*
X142227905Y-114904763D01*
X142203714Y-115001525D01*
X142179524Y-115049906D01*
X142155333Y-115074097D01*
X142106952Y-115098287D01*
X142058571Y-115098287D01*
X142010190Y-115074097D01*
X141986000Y-115049906D01*
X141961810Y-115001525D01*
X141961810Y-114880573D01*
X141986000Y-114808001D01*
X141961810Y-114662858D02*
X141961810Y-114372572D01*
X142469810Y-114517715D02*
X141961810Y-114517715D01*
X142469810Y-114203239D02*
X141961810Y-114203239D01*
X141961810Y-114009715D01*
X141986000Y-113961334D01*
X142010190Y-113937143D01*
X142058571Y-113912953D01*
X142131143Y-113912953D01*
X142179524Y-113937143D01*
X142203714Y-113961334D01*
X142227905Y-114009715D01*
X142227905Y-114203239D01*
X142445619Y-113719429D02*
X142469810Y-113646858D01*
X142469810Y-113525905D01*
X142445619Y-113477524D01*
X142421429Y-113453334D01*
X142373048Y-113429143D01*
X142324667Y-113429143D01*
X142276286Y-113453334D01*
X142252095Y-113477524D01*
X142227905Y-113525905D01*
X142203714Y-113622667D01*
X142179524Y-113671048D01*
X142155333Y-113695239D01*
X142106952Y-113719429D01*
X142058571Y-113719429D01*
X142010190Y-113695239D01*
X141986000Y-113671048D01*
X141961810Y-113622667D01*
X141961810Y-113501715D01*
X141986000Y-113429143D01*
X142010190Y-113235619D02*
X141986000Y-113211429D01*
X141961810Y-113163048D01*
X141961810Y-113042095D01*
X141986000Y-112993714D01*
X142010190Y-112969524D01*
X142058571Y-112945333D01*
X142106952Y-112945333D01*
X142179524Y-112969524D01*
X142469810Y-113259810D01*
X142469810Y-112945333D01*
X141961810Y-112630857D02*
X141961810Y-112582476D01*
X141986000Y-112534095D01*
X142010190Y-112509904D01*
X142058571Y-112485714D01*
X142155333Y-112461523D01*
X142276286Y-112461523D01*
X142373048Y-112485714D01*
X142421429Y-112509904D01*
X142445619Y-112534095D01*
X142469810Y-112582476D01*
X142469810Y-112630857D01*
X142445619Y-112679238D01*
X142421429Y-112703428D01*
X142373048Y-112727619D01*
X142276286Y-112751809D01*
X142155333Y-112751809D01*
X142058571Y-112727619D01*
X142010190Y-112703428D01*
X141986000Y-112679238D01*
X141961810Y-112630857D01*
X142469810Y-112243809D02*
X141961810Y-112243809D01*
X142324667Y-112074475D01*
X141961810Y-111905142D01*
X142469810Y-111905142D01*
X142469810Y-111397142D02*
X142469810Y-111687428D01*
X142469810Y-111542285D02*
X141961810Y-111542285D01*
X142034381Y-111590666D01*
X142082762Y-111639047D01*
X142106952Y-111687428D01*
X141961810Y-111082666D02*
X141961810Y-111034285D01*
X141986000Y-110985904D01*
X142010190Y-110961713D01*
X142058571Y-110937523D01*
X142155333Y-110913332D01*
X142276286Y-110913332D01*
X142373048Y-110937523D01*
X142421429Y-110961713D01*
X142445619Y-110985904D01*
X142469810Y-111034285D01*
X142469810Y-111082666D01*
X142445619Y-111131047D01*
X142421429Y-111155237D01*
X142373048Y-111179428D01*
X142276286Y-111203618D01*
X142155333Y-111203618D01*
X142058571Y-111179428D01*
X142010190Y-111155237D01*
X141986000Y-111131047D01*
X141961810Y-111082666D01*
X141961810Y-110598856D02*
X141961810Y-110550475D01*
X141986000Y-110502094D01*
X142010190Y-110477903D01*
X142058571Y-110453713D01*
X142155333Y-110429522D01*
X142276286Y-110429522D01*
X142373048Y-110453713D01*
X142421429Y-110477903D01*
X142445619Y-110502094D01*
X142469810Y-110550475D01*
X142469810Y-110598856D01*
X142445619Y-110647237D01*
X142421429Y-110671427D01*
X142373048Y-110695618D01*
X142276286Y-110719808D01*
X142155333Y-110719808D01*
X142058571Y-110695618D01*
X142010190Y-110671427D01*
X141986000Y-110647237D01*
X141961810Y-110598856D01*
X142445619Y-110235998D02*
X142469810Y-110163427D01*
X142469810Y-110042474D01*
X142445619Y-109994093D01*
X142421429Y-109969903D01*
X142373048Y-109945712D01*
X142324667Y-109945712D01*
X142276286Y-109969903D01*
X142252095Y-109994093D01*
X142227905Y-110042474D01*
X142203714Y-110139236D01*
X142179524Y-110187617D01*
X142155333Y-110211808D01*
X142106952Y-110235998D01*
X142058571Y-110235998D01*
X142010190Y-110211808D01*
X141986000Y-110187617D01*
X141961810Y-110139236D01*
X141961810Y-110018284D01*
X141986000Y-109945712D01*
X115195047Y-109703810D02*
X115195047Y-109195810D01*
X115388571Y-109195810D01*
X115436952Y-109220000D01*
X115461143Y-109244190D01*
X115485333Y-109292571D01*
X115485333Y-109365143D01*
X115461143Y-109413524D01*
X115436952Y-109437714D01*
X115388571Y-109461905D01*
X115195047Y-109461905D01*
X115969143Y-109703810D02*
X115678857Y-109703810D01*
X115824000Y-109703810D02*
X115824000Y-109195810D01*
X115775619Y-109268381D01*
X115727238Y-109316762D01*
X115678857Y-109340952D01*
X136754810Y-118956667D02*
X136754810Y-119198572D01*
X136246810Y-119198572D01*
X136754810Y-118521238D02*
X136754810Y-118811524D01*
X136754810Y-118666381D02*
X136246810Y-118666381D01*
X136319381Y-118714762D01*
X136367762Y-118763143D01*
X136391952Y-118811524D01*
X136754810Y-123389571D02*
X136754810Y-123679857D01*
X136754810Y-123534714D02*
X136246810Y-123534714D01*
X136319381Y-123583095D01*
X136367762Y-123631476D01*
X136391952Y-123679857D01*
X136246810Y-123075095D02*
X136246810Y-123026714D01*
X136271000Y-122978333D01*
X136295190Y-122954142D01*
X136343571Y-122929952D01*
X136440333Y-122905761D01*
X136561286Y-122905761D01*
X136658048Y-122929952D01*
X136706429Y-122954142D01*
X136730619Y-122978333D01*
X136754810Y-123026714D01*
X136754810Y-123075095D01*
X136730619Y-123123476D01*
X136706429Y-123147666D01*
X136658048Y-123171857D01*
X136561286Y-123196047D01*
X136440333Y-123196047D01*
X136343571Y-123171857D01*
X136295190Y-123147666D01*
X136271000Y-123123476D01*
X136246810Y-123075095D01*
X136416143Y-122470332D02*
X136754810Y-122470332D01*
X136416143Y-122688047D02*
X136682238Y-122688047D01*
X136730619Y-122663856D01*
X136754810Y-122615475D01*
X136754810Y-122542904D01*
X136730619Y-122494523D01*
X136706429Y-122470332D01*
X131184952Y-117577810D02*
X131184952Y-117989048D01*
X131209143Y-118037429D01*
X131233333Y-118061619D01*
X131281714Y-118085810D01*
X131378476Y-118085810D01*
X131426857Y-118061619D01*
X131451048Y-118037429D01*
X131475238Y-117989048D01*
X131475238Y-117577810D01*
X131692952Y-117626190D02*
X131717142Y-117602000D01*
X131765523Y-117577810D01*
X131886476Y-117577810D01*
X131934857Y-117602000D01*
X131959047Y-117626190D01*
X131983238Y-117674571D01*
X131983238Y-117722952D01*
X131959047Y-117795524D01*
X131668761Y-118085810D01*
X131983238Y-118085810D01*
X127423333Y-117275429D02*
X127399143Y-117299619D01*
X127326571Y-117323810D01*
X127278190Y-117323810D01*
X127205619Y-117299619D01*
X127157238Y-117251238D01*
X127133047Y-117202857D01*
X127108857Y-117106095D01*
X127108857Y-117033524D01*
X127133047Y-116936762D01*
X127157238Y-116888381D01*
X127205619Y-116840000D01*
X127278190Y-116815810D01*
X127326571Y-116815810D01*
X127399143Y-116840000D01*
X127423333Y-116864190D01*
X127592666Y-116815810D02*
X127907143Y-116815810D01*
X127737809Y-117009333D01*
X127810381Y-117009333D01*
X127858762Y-117033524D01*
X127882952Y-117057714D01*
X127907143Y-117106095D01*
X127907143Y-117227048D01*
X127882952Y-117275429D01*
X127858762Y-117299619D01*
X127810381Y-117323810D01*
X127665238Y-117323810D01*
X127616857Y-117299619D01*
X127592666Y-117275429D01*
X130852333Y-126419429D02*
X130828143Y-126443619D01*
X130755571Y-126467810D01*
X130707190Y-126467810D01*
X130634619Y-126443619D01*
X130586238Y-126395238D01*
X130562047Y-126346857D01*
X130537857Y-126250095D01*
X130537857Y-126177524D01*
X130562047Y-126080762D01*
X130586238Y-126032381D01*
X130634619Y-125984000D01*
X130707190Y-125959810D01*
X130755571Y-125959810D01*
X130828143Y-125984000D01*
X130852333Y-126008190D01*
X131287762Y-126129143D02*
X131287762Y-126467810D01*
X131166809Y-125935619D02*
X131045857Y-126298476D01*
X131360333Y-126298476D01*
X121260810Y-122246571D02*
X121260810Y-122536857D01*
X121260810Y-122391714D02*
X120752810Y-122391714D01*
X120825381Y-122440095D01*
X120873762Y-122488476D01*
X120897952Y-122536857D01*
X120922143Y-122028857D02*
X121260810Y-122028857D01*
X120970524Y-122028857D02*
X120946333Y-122004666D01*
X120922143Y-121956285D01*
X120922143Y-121883714D01*
X120946333Y-121835333D01*
X120994714Y-121811142D01*
X121260810Y-121811142D01*
X120801190Y-121593428D02*
X120777000Y-121569238D01*
X120752810Y-121520857D01*
X120752810Y-121399904D01*
X120777000Y-121351523D01*
X120801190Y-121327333D01*
X120849571Y-121303142D01*
X120897952Y-121303142D01*
X120970524Y-121327333D01*
X121260810Y-121617619D01*
X121260810Y-121303142D01*
X132122333Y-126419429D02*
X132098143Y-126443619D01*
X132025571Y-126467810D01*
X131977190Y-126467810D01*
X131904619Y-126443619D01*
X131856238Y-126395238D01*
X131832047Y-126346857D01*
X131807857Y-126250095D01*
X131807857Y-126177524D01*
X131832047Y-126080762D01*
X131856238Y-126032381D01*
X131904619Y-125984000D01*
X131977190Y-125959810D01*
X132025571Y-125959810D01*
X132098143Y-125984000D01*
X132122333Y-126008190D01*
X132581952Y-125959810D02*
X132340047Y-125959810D01*
X132315857Y-126201714D01*
X132340047Y-126177524D01*
X132388428Y-126153333D01*
X132509381Y-126153333D01*
X132557762Y-126177524D01*
X132581952Y-126201714D01*
X132606143Y-126250095D01*
X132606143Y-126371048D01*
X132581952Y-126419429D01*
X132557762Y-126443619D01*
X132509381Y-126467810D01*
X132388428Y-126467810D01*
X132340047Y-126443619D01*
X132315857Y-126419429D01*
X121817190Y-122536857D02*
X121793000Y-122512667D01*
X121768810Y-122464286D01*
X121768810Y-122343333D01*
X121793000Y-122294952D01*
X121817190Y-122270762D01*
X121865571Y-122246571D01*
X121913952Y-122246571D01*
X121986524Y-122270762D01*
X122276810Y-122561048D01*
X122276810Y-122246571D01*
X121817190Y-122053047D02*
X121793000Y-122028857D01*
X121768810Y-121980476D01*
X121768810Y-121859523D01*
X121793000Y-121811142D01*
X121817190Y-121786952D01*
X121865571Y-121762761D01*
X121913952Y-121762761D01*
X121986524Y-121786952D01*
X122276810Y-122077238D01*
X122276810Y-121762761D01*
X121938143Y-121545047D02*
X122446143Y-121545047D01*
X121962333Y-121545047D02*
X121938143Y-121496666D01*
X121938143Y-121399904D01*
X121962333Y-121351523D01*
X121986524Y-121327332D01*
X122034905Y-121303142D01*
X122180048Y-121303142D01*
X122228429Y-121327332D01*
X122252619Y-121351523D01*
X122276810Y-121399904D01*
X122276810Y-121496666D01*
X122252619Y-121545047D01*
X125772333Y-126467810D02*
X125603000Y-126225905D01*
X125482047Y-126467810D02*
X125482047Y-125959810D01*
X125675571Y-125959810D01*
X125723952Y-125984000D01*
X125748143Y-126008190D01*
X125772333Y-126056571D01*
X125772333Y-126129143D01*
X125748143Y-126177524D01*
X125723952Y-126201714D01*
X125675571Y-126225905D01*
X125482047Y-126225905D01*
X125965857Y-126008190D02*
X125990047Y-125984000D01*
X126038428Y-125959810D01*
X126159381Y-125959810D01*
X126207762Y-125984000D01*
X126231952Y-126008190D01*
X126256143Y-126056571D01*
X126256143Y-126104952D01*
X126231952Y-126177524D01*
X125941666Y-126467810D01*
X126256143Y-126467810D01*
X116864190Y-122548953D02*
X116840000Y-122524763D01*
X116815810Y-122476382D01*
X116815810Y-122355429D01*
X116840000Y-122307048D01*
X116864190Y-122282858D01*
X116912571Y-122258667D01*
X116960952Y-122258667D01*
X117033524Y-122282858D01*
X117323810Y-122573144D01*
X117323810Y-122258667D01*
X116815810Y-122089334D02*
X116815810Y-121750667D01*
X117323810Y-121968381D01*
X116815810Y-121460381D02*
X116815810Y-121412000D01*
X116840000Y-121363619D01*
X116864190Y-121339428D01*
X116912571Y-121315238D01*
X117009333Y-121291047D01*
X117130286Y-121291047D01*
X117227048Y-121315238D01*
X117275429Y-121339428D01*
X117299619Y-121363619D01*
X117323810Y-121412000D01*
X117323810Y-121460381D01*
X117299619Y-121508762D01*
X117275429Y-121532952D01*
X117227048Y-121557143D01*
X117130286Y-121581333D01*
X117009333Y-121581333D01*
X116912571Y-121557143D01*
X116864190Y-121532952D01*
X116840000Y-121508762D01*
X116815810Y-121460381D01*
X117323810Y-121073333D02*
X116815810Y-121073333D01*
X117323810Y-120783047D02*
X117033524Y-121000761D01*
X116815810Y-120783047D02*
X117106095Y-121073333D01*
X129582333Y-126467810D02*
X129413000Y-126225905D01*
X129292047Y-126467810D02*
X129292047Y-125959810D01*
X129485571Y-125959810D01*
X129533952Y-125984000D01*
X129558143Y-126008190D01*
X129582333Y-126056571D01*
X129582333Y-126129143D01*
X129558143Y-126177524D01*
X129533952Y-126201714D01*
X129485571Y-126225905D01*
X129292047Y-126225905D01*
X129751666Y-125959810D02*
X130066143Y-125959810D01*
X129896809Y-126153333D01*
X129969381Y-126153333D01*
X130017762Y-126177524D01*
X130041952Y-126201714D01*
X130066143Y-126250095D01*
X130066143Y-126371048D01*
X130041952Y-126419429D01*
X130017762Y-126443619D01*
X129969381Y-126467810D01*
X129824238Y-126467810D01*
X129775857Y-126443619D01*
X129751666Y-126419429D01*
X119912190Y-122561048D02*
X119888000Y-122536858D01*
X119863810Y-122488477D01*
X119863810Y-122367524D01*
X119888000Y-122319143D01*
X119912190Y-122294953D01*
X119960571Y-122270762D01*
X120008952Y-122270762D01*
X120081524Y-122294953D01*
X120371810Y-122585239D01*
X120371810Y-122270762D01*
X119863810Y-122101429D02*
X119863810Y-121762762D01*
X120371810Y-121980476D01*
X120371810Y-121569238D02*
X119863810Y-121569238D01*
X120371810Y-121278952D02*
X120081524Y-121496666D01*
X119863810Y-121278952D02*
X120154095Y-121569238D01*
X128312333Y-126467810D02*
X128143000Y-126225905D01*
X128022047Y-126467810D02*
X128022047Y-125959810D01*
X128215571Y-125959810D01*
X128263952Y-125984000D01*
X128288143Y-126008190D01*
X128312333Y-126056571D01*
X128312333Y-126129143D01*
X128288143Y-126177524D01*
X128263952Y-126201714D01*
X128215571Y-126225905D01*
X128022047Y-126225905D01*
X128771952Y-125959810D02*
X128530047Y-125959810D01*
X128505857Y-126201714D01*
X128530047Y-126177524D01*
X128578428Y-126153333D01*
X128699381Y-126153333D01*
X128747762Y-126177524D01*
X128771952Y-126201714D01*
X128796143Y-126250095D01*
X128796143Y-126371048D01*
X128771952Y-126419429D01*
X128747762Y-126443619D01*
X128699381Y-126467810D01*
X128578428Y-126467810D01*
X128530047Y-126443619D01*
X128505857Y-126419429D01*
X118896190Y-122548953D02*
X118872000Y-122524763D01*
X118847810Y-122476382D01*
X118847810Y-122355429D01*
X118872000Y-122307048D01*
X118896190Y-122282858D01*
X118944571Y-122258667D01*
X118992952Y-122258667D01*
X119065524Y-122282858D01*
X119355810Y-122573144D01*
X119355810Y-122258667D01*
X118847810Y-122089334D02*
X118847810Y-121750667D01*
X119355810Y-121968381D01*
X118847810Y-121460381D02*
X118847810Y-121412000D01*
X118872000Y-121363619D01*
X118896190Y-121339428D01*
X118944571Y-121315238D01*
X119041333Y-121291047D01*
X119162286Y-121291047D01*
X119259048Y-121315238D01*
X119307429Y-121339428D01*
X119331619Y-121363619D01*
X119355810Y-121412000D01*
X119355810Y-121460381D01*
X119331619Y-121508762D01*
X119307429Y-121532952D01*
X119259048Y-121557143D01*
X119162286Y-121581333D01*
X119041333Y-121581333D01*
X118944571Y-121557143D01*
X118896190Y-121532952D01*
X118872000Y-121508762D01*
X118847810Y-121460381D01*
X119355810Y-121073333D02*
X118847810Y-121073333D01*
X119355810Y-120783047D02*
X119065524Y-121000761D01*
X118847810Y-120783047D02*
X119138095Y-121073333D01*
X127042333Y-126467810D02*
X126873000Y-126225905D01*
X126752047Y-126467810D02*
X126752047Y-125959810D01*
X126945571Y-125959810D01*
X126993952Y-125984000D01*
X127018143Y-126008190D01*
X127042333Y-126056571D01*
X127042333Y-126129143D01*
X127018143Y-126177524D01*
X126993952Y-126201714D01*
X126945571Y-126225905D01*
X126752047Y-126225905D01*
X127477762Y-125959810D02*
X127381000Y-125959810D01*
X127332619Y-125984000D01*
X127308428Y-126008190D01*
X127260047Y-126080762D01*
X127235857Y-126177524D01*
X127235857Y-126371048D01*
X127260047Y-126419429D01*
X127284238Y-126443619D01*
X127332619Y-126467810D01*
X127429381Y-126467810D01*
X127477762Y-126443619D01*
X127501952Y-126419429D01*
X127526143Y-126371048D01*
X127526143Y-126250095D01*
X127501952Y-126201714D01*
X127477762Y-126177524D01*
X127429381Y-126153333D01*
X127332619Y-126153333D01*
X127284238Y-126177524D01*
X127260047Y-126201714D01*
X127235857Y-126250095D01*
X117880190Y-122561048D02*
X117856000Y-122536858D01*
X117831810Y-122488477D01*
X117831810Y-122367524D01*
X117856000Y-122319143D01*
X117880190Y-122294953D01*
X117928571Y-122270762D01*
X117976952Y-122270762D01*
X118049524Y-122294953D01*
X118339810Y-122585239D01*
X118339810Y-122270762D01*
X117880190Y-122077238D02*
X117856000Y-122053048D01*
X117831810Y-122004667D01*
X117831810Y-121883714D01*
X117856000Y-121835333D01*
X117880190Y-121811143D01*
X117928571Y-121786952D01*
X117976952Y-121786952D01*
X118049524Y-121811143D01*
X118339810Y-122101429D01*
X118339810Y-121786952D01*
X118339810Y-121569238D02*
X117831810Y-121569238D01*
X118339810Y-121278952D02*
X118049524Y-121496666D01*
X117831810Y-121278952D02*
X118122095Y-121569238D01*
X125149429Y-110308572D02*
X125173619Y-110332762D01*
X125197810Y-110405334D01*
X125197810Y-110453715D01*
X125173619Y-110526286D01*
X125125238Y-110574667D01*
X125076857Y-110598858D01*
X124980095Y-110623048D01*
X124907524Y-110623048D01*
X124810762Y-110598858D01*
X124762381Y-110574667D01*
X124714000Y-110526286D01*
X124689810Y-110453715D01*
X124689810Y-110405334D01*
X124714000Y-110332762D01*
X124738190Y-110308572D01*
X125197810Y-109824762D02*
X125197810Y-110115048D01*
X125197810Y-109969905D02*
X124689810Y-109969905D01*
X124762381Y-110018286D01*
X124810762Y-110066667D01*
X124834952Y-110115048D01*
X124689810Y-109510286D02*
X124689810Y-109461905D01*
X124714000Y-109413524D01*
X124738190Y-109389333D01*
X124786571Y-109365143D01*
X124883333Y-109340952D01*
X125004286Y-109340952D01*
X125101048Y-109365143D01*
X125149429Y-109389333D01*
X125173619Y-109413524D01*
X125197810Y-109461905D01*
X125197810Y-109510286D01*
X125173619Y-109558667D01*
X125149429Y-109582857D01*
X125101048Y-109607048D01*
X125004286Y-109631238D01*
X124883333Y-109631238D01*
X124786571Y-109607048D01*
X124738190Y-109582857D01*
X124714000Y-109558667D01*
X124689810Y-109510286D01*
X127278190Y-111360857D02*
X127254000Y-111336667D01*
X127229810Y-111288286D01*
X127229810Y-111167333D01*
X127254000Y-111118952D01*
X127278190Y-111094762D01*
X127326571Y-111070571D01*
X127374952Y-111070571D01*
X127447524Y-111094762D01*
X127737810Y-111385048D01*
X127737810Y-111070571D01*
X127399143Y-110635142D02*
X127737810Y-110635142D01*
X127399143Y-110852857D02*
X127665238Y-110852857D01*
X127713619Y-110828666D01*
X127737810Y-110780285D01*
X127737810Y-110707714D01*
X127713619Y-110659333D01*
X127689429Y-110635142D01*
X127278190Y-110417428D02*
X127254000Y-110393238D01*
X127229810Y-110344857D01*
X127229810Y-110223904D01*
X127254000Y-110175523D01*
X127278190Y-110151333D01*
X127326571Y-110127142D01*
X127374952Y-110127142D01*
X127447524Y-110151333D01*
X127737810Y-110441619D01*
X127737810Y-110127142D01*
X125149429Y-113368667D02*
X125173619Y-113392857D01*
X125197810Y-113465429D01*
X125197810Y-113513810D01*
X125173619Y-113586381D01*
X125125238Y-113634762D01*
X125076857Y-113658953D01*
X124980095Y-113683143D01*
X124907524Y-113683143D01*
X124810762Y-113658953D01*
X124762381Y-113634762D01*
X124714000Y-113586381D01*
X124689810Y-113513810D01*
X124689810Y-113465429D01*
X124714000Y-113392857D01*
X124738190Y-113368667D01*
X125197810Y-112884857D02*
X125197810Y-113175143D01*
X125197810Y-113030000D02*
X124689810Y-113030000D01*
X124762381Y-113078381D01*
X124810762Y-113126762D01*
X124834952Y-113175143D01*
X127278190Y-114916857D02*
X127254000Y-114892667D01*
X127229810Y-114844286D01*
X127229810Y-114723333D01*
X127254000Y-114674952D01*
X127278190Y-114650762D01*
X127326571Y-114626571D01*
X127374952Y-114626571D01*
X127447524Y-114650762D01*
X127737810Y-114941048D01*
X127737810Y-114626571D01*
X127399143Y-114191142D02*
X127737810Y-114191142D01*
X127399143Y-114408857D02*
X127665238Y-114408857D01*
X127713619Y-114384666D01*
X127737810Y-114336285D01*
X127737810Y-114263714D01*
X127713619Y-114215333D01*
X127689429Y-114191142D01*
X127278190Y-113973428D02*
X127254000Y-113949238D01*
X127229810Y-113900857D01*
X127229810Y-113779904D01*
X127254000Y-113731523D01*
X127278190Y-113707333D01*
X127326571Y-113683142D01*
X127374952Y-113683142D01*
X127447524Y-113707333D01*
X127737810Y-113997619D01*
X127737810Y-113683142D01*
M02*
