M48
;DRILL file {KiCad 4.0.2+dfsg1-stable} date Sun 22 May 2016 01:22:24 PM EDT
;FORMAT={-:-/ absolute / inch / decimal}
FMAT,2
INCH,TZ
T1C0.015
T2C0.035
T3C0.055
%
G90
G05
M72
T1
X4.44Y-4.92
X4.46Y-4.28
X4.46Y-4.5
X4.46Y-4.56
X4.46Y-4.64
X4.46Y-4.7
X4.48Y-4.96
X4.5Y-4.24
X4.54Y-4.96
X4.56Y-4.24
X4.6Y-4.96
X4.62Y-4.24
X4.64Y-4.38
X4.7Y-4.38
X4.76Y-4.38
X4.77Y-4.44
X4.78Y-4.24
X4.8Y-4.96
X4.84Y-4.24
X4.86Y-4.96
X4.87Y-4.81
X4.89Y-4.92
X4.9Y-4.24
X4.96Y-4.24
X5.02Y-4.24
X5.05Y-4.73
X5.05Y-4.79
X5.08Y-4.24
X5.08Y-4.76
X5.11Y-4.73
X5.11Y-4.79
X5.14Y-4.24
X5.2Y-4.24
X5.24Y-4.46
X5.26Y-4.24
X5.29Y-4.46
X5.34Y-4.46
X5.35Y-4.355
X5.46Y-4.83
X5.54Y-4.69
X5.59Y-4.69
X5.71Y-4.76
X5.76Y-4.85
X5.895Y-4.255
X5.9Y-4.525
X5.9Y-4.565
X5.9Y-4.67
X5.9Y-4.71
X5.945Y-4.525
X5.945Y-4.565
X5.945Y-4.67
X5.945Y-4.71
X6.07Y-4.71
X6.15Y-4.25
X6.15Y-4.95
X6.2Y-4.25
X6.2Y-4.95
X6.25Y-4.3
X6.25Y-4.35
X6.25Y-4.9
T2
X4.75Y-4.525
X4.75Y-4.625
X4.85Y-4.575
X4.85Y-4.675
T3
X6.2Y-4.45
X6.2Y-4.55
X6.2Y-4.65
X6.2Y-4.75
T0
M30
