G04 #@! TF.FileFunction,Legend,Top*
%FSLAX46Y46*%
G04 Gerber Fmt 4.6, Leading zero omitted, Abs format (unit mm)*
G04 Created by KiCad (PCBNEW 4.0.2+dfsg1-stable) date Mon 23 May 2016 01:08:44 AM EDT*
%MOMM*%
G01*
G04 APERTURE LIST*
%ADD10C,0.150000*%
%ADD11C,0.130000*%
%ADD12C,0.050800*%
%ADD13C,0.100000*%
%ADD14C,0.127000*%
%ADD15C,0.304800*%
%ADD16C,0.076200*%
G04 APERTURE END LIST*
D10*
D11*
X159548285Y-120704429D02*
X158967714Y-120704429D01*
X159620857Y-118382143D02*
X159584571Y-118418429D01*
X159475714Y-118454714D01*
X159403143Y-118454714D01*
X159294286Y-118418429D01*
X159221714Y-118345857D01*
X159185429Y-118273286D01*
X159149143Y-118128143D01*
X159149143Y-118019286D01*
X159185429Y-117874143D01*
X159221714Y-117801571D01*
X159294286Y-117729000D01*
X159403143Y-117692714D01*
X159475714Y-117692714D01*
X159584571Y-117729000D01*
X159620857Y-117765286D01*
X159185429Y-115914714D02*
X159185429Y-115152714D01*
X159366857Y-115152714D01*
X159475714Y-115189000D01*
X159548286Y-115261571D01*
X159584571Y-115334143D01*
X159620857Y-115479286D01*
X159620857Y-115588143D01*
X159584571Y-115733286D01*
X159548286Y-115805857D01*
X159475714Y-115878429D01*
X159366857Y-115914714D01*
X159185429Y-115914714D01*
X159548285Y-113084429D02*
X158967714Y-113084429D01*
X159258000Y-113374714D02*
X159258000Y-112794143D01*
D12*
X124460000Y-122936000D02*
X116586000Y-122936000D01*
X125222000Y-123698000D02*
X124460000Y-122936000D01*
X132334000Y-123698000D02*
X125222000Y-123698000D01*
D13*
X122682000Y-127000000D02*
G75*
G03X122682000Y-127000000I-3302000J0D01*
G01*
X155702000Y-127000000D02*
G75*
G03X155702000Y-127000000I-3302000J0D01*
G01*
X155702000Y-106680000D02*
G75*
G03X155702000Y-106680000I-3302000J0D01*
G01*
X122682000Y-106680000D02*
G75*
G03X122682000Y-106680000I-3302000J0D01*
G01*
D10*
X149650000Y-122638000D02*
X149650000Y-117138000D01*
X149650000Y-117138000D02*
X154400000Y-117138000D01*
X154400000Y-117138000D02*
X155150000Y-117888000D01*
X155150000Y-117888000D02*
X155150000Y-121888000D01*
X155150000Y-121888000D02*
X154400000Y-122638000D01*
X154400000Y-122638000D02*
X149650000Y-122638000D01*
D14*
X154943173Y-119888000D02*
G75*
G03X154943173Y-119888000I-2543173J0D01*
G01*
D10*
X130556000Y-116332000D02*
X137160000Y-116332000D01*
X137160000Y-114300000D02*
X130556000Y-114300000D01*
X130556000Y-111252000D02*
X137160000Y-111252000D01*
X137160000Y-109220000D02*
X130556000Y-109220000D01*
X147828000Y-107188000D02*
X147828000Y-118364000D01*
X147828000Y-118364000D02*
X137160000Y-118364000D01*
X137160000Y-118364000D02*
X137160000Y-107188000D01*
X137160000Y-107188000D02*
X147828000Y-107188000D01*
X130556000Y-114300000D02*
X130556000Y-116332000D01*
X130556000Y-109220000D02*
X130556000Y-111252000D01*
X149650000Y-116542000D02*
X149650000Y-111042000D01*
X149650000Y-111042000D02*
X154400000Y-111042000D01*
X154400000Y-111042000D02*
X155150000Y-111792000D01*
X155150000Y-111792000D02*
X155150000Y-115792000D01*
X155150000Y-115792000D02*
X154400000Y-116542000D01*
X154400000Y-116542000D02*
X149650000Y-116542000D01*
D14*
X154943173Y-113792000D02*
G75*
G03X154943173Y-113792000I-2543173J0D01*
G01*
D15*
X158750000Y-111760000D02*
X158750000Y-111760000D01*
X156210000Y-111760000D02*
X158750000Y-111760000D01*
X158750000Y-111760000D02*
X158750000Y-111760000D01*
X158750000Y-111760000D02*
X158750000Y-121920000D01*
X158750000Y-121920000D02*
X156210000Y-121920000D01*
X156210000Y-121920000D02*
X156210000Y-111760000D01*
X156210000Y-114300000D02*
X158750000Y-114300000D01*
D10*
X146530000Y-119686000D02*
X143030000Y-119686000D01*
X143030000Y-119686000D02*
X143030000Y-126186000D01*
X143030000Y-126186000D02*
X146530000Y-126186000D01*
X146530000Y-126186000D02*
X146530000Y-119686000D01*
X124460000Y-110240000D02*
X124460000Y-123440000D01*
X124460000Y-123440000D02*
X106450000Y-123440000D01*
X106450000Y-123440000D02*
X106450000Y-110240000D01*
X106450000Y-110240000D02*
X124460000Y-110240000D01*
X139952000Y-119636000D02*
X139952000Y-126236000D01*
X139952000Y-126236000D02*
X133352000Y-126236000D01*
X133352000Y-126236000D02*
X133352000Y-119636000D01*
X133352000Y-119636000D02*
X139952000Y-119636000D01*
D14*
X127381000Y-123350020D02*
X127381000Y-118000780D01*
X130683000Y-118000780D02*
X130683000Y-123350020D01*
X130683000Y-123350020D02*
X127381000Y-123350020D01*
X130683000Y-118000780D02*
X127381000Y-118000780D01*
X129540000Y-117983000D02*
X129540000Y-118491000D01*
X129540000Y-118491000D02*
X128524000Y-118491000D01*
X128524000Y-118491000D02*
X128524000Y-117983000D01*
D10*
X129282000Y-116569000D02*
X128782000Y-116569000D01*
X128782000Y-117619000D02*
X129282000Y-117619000D01*
X131335000Y-125218000D02*
X131335000Y-124718000D01*
X130285000Y-124718000D02*
X130285000Y-125218000D01*
X132605000Y-125218000D02*
X132605000Y-124718000D01*
X131555000Y-124718000D02*
X131555000Y-125218000D01*
X126255000Y-125218000D02*
X126255000Y-124718000D01*
X125205000Y-124718000D02*
X125205000Y-125218000D01*
X130065000Y-125218000D02*
X130065000Y-124718000D01*
X129015000Y-124718000D02*
X129015000Y-125218000D01*
X127525000Y-125218000D02*
X127525000Y-124718000D01*
X126475000Y-124718000D02*
X126475000Y-125218000D01*
X128795000Y-125218000D02*
X128795000Y-124718000D01*
X127745000Y-124718000D02*
X127745000Y-125218000D01*
X128508000Y-109269000D02*
X126508000Y-109269000D01*
X126508000Y-112219000D02*
X128508000Y-112219000D01*
X128508000Y-112825000D02*
X126508000Y-112825000D01*
X126508000Y-115775000D02*
X128508000Y-115775000D01*
D16*
X149279429Y-117940667D02*
X149303619Y-117964857D01*
X149327810Y-118037429D01*
X149327810Y-118085810D01*
X149303619Y-118158381D01*
X149255238Y-118206762D01*
X149206857Y-118230953D01*
X149110095Y-118255143D01*
X149037524Y-118255143D01*
X148940762Y-118230953D01*
X148892381Y-118206762D01*
X148844000Y-118158381D01*
X148819810Y-118085810D01*
X148819810Y-118037429D01*
X148844000Y-117964857D01*
X148868190Y-117940667D01*
X148819810Y-117505238D02*
X148819810Y-117602000D01*
X148844000Y-117650381D01*
X148868190Y-117674572D01*
X148940762Y-117722953D01*
X149037524Y-117747143D01*
X149231048Y-117747143D01*
X149279429Y-117722953D01*
X149303619Y-117698762D01*
X149327810Y-117650381D01*
X149327810Y-117553619D01*
X149303619Y-117505238D01*
X149279429Y-117481048D01*
X149231048Y-117456857D01*
X149110095Y-117456857D01*
X149061714Y-117481048D01*
X149037524Y-117505238D01*
X149013333Y-117553619D01*
X149013333Y-117650381D01*
X149037524Y-117698762D01*
X149061714Y-117722953D01*
X149110095Y-117747143D01*
X152049238Y-121006810D02*
X151807333Y-121006810D01*
X151783143Y-121248714D01*
X151807333Y-121224524D01*
X151855714Y-121200333D01*
X151976667Y-121200333D01*
X152025048Y-121224524D01*
X152049238Y-121248714D01*
X152073429Y-121297095D01*
X152073429Y-121418048D01*
X152049238Y-121466429D01*
X152025048Y-121490619D01*
X151976667Y-121514810D01*
X151855714Y-121514810D01*
X151807333Y-121490619D01*
X151783143Y-121466429D01*
X152508858Y-121006810D02*
X152412096Y-121006810D01*
X152363715Y-121031000D01*
X152339524Y-121055190D01*
X152291143Y-121127762D01*
X152266953Y-121224524D01*
X152266953Y-121418048D01*
X152291143Y-121466429D01*
X152315334Y-121490619D01*
X152363715Y-121514810D01*
X152460477Y-121514810D01*
X152508858Y-121490619D01*
X152533048Y-121466429D01*
X152557239Y-121418048D01*
X152557239Y-121297095D01*
X152533048Y-121248714D01*
X152508858Y-121224524D01*
X152460477Y-121200333D01*
X152363715Y-121200333D01*
X152315334Y-121224524D01*
X152291143Y-121248714D01*
X152266953Y-121297095D01*
X152992668Y-121176143D02*
X152992668Y-121514810D01*
X152774953Y-121176143D02*
X152774953Y-121442238D01*
X152799144Y-121490619D01*
X152847525Y-121514810D01*
X152920096Y-121514810D01*
X152968477Y-121490619D01*
X152992668Y-121466429D01*
X153706476Y-121174286D02*
X154093524Y-121174286D01*
X153900000Y-121367810D02*
X153900000Y-120980762D01*
X136119810Y-108578953D02*
X135611810Y-108578953D01*
X135611810Y-108458000D01*
X135636000Y-108385429D01*
X135684381Y-108337048D01*
X135732762Y-108312857D01*
X135829524Y-108288667D01*
X135902095Y-108288667D01*
X135998857Y-108312857D01*
X136047238Y-108337048D01*
X136095619Y-108385429D01*
X136119810Y-108458000D01*
X136119810Y-108578953D01*
X135660190Y-108095143D02*
X135636000Y-108070953D01*
X135611810Y-108022572D01*
X135611810Y-107901619D01*
X135636000Y-107853238D01*
X135660190Y-107829048D01*
X135708571Y-107804857D01*
X135756952Y-107804857D01*
X135829524Y-107829048D01*
X136119810Y-108119334D01*
X136119810Y-107804857D01*
X138127619Y-115352287D02*
X138151810Y-115279716D01*
X138151810Y-115158763D01*
X138127619Y-115110382D01*
X138103429Y-115086192D01*
X138055048Y-115062001D01*
X138006667Y-115062001D01*
X137958286Y-115086192D01*
X137934095Y-115110382D01*
X137909905Y-115158763D01*
X137885714Y-115255525D01*
X137861524Y-115303906D01*
X137837333Y-115328097D01*
X137788952Y-115352287D01*
X137740571Y-115352287D01*
X137692190Y-115328097D01*
X137668000Y-115303906D01*
X137643810Y-115255525D01*
X137643810Y-115134573D01*
X137668000Y-115062001D01*
X137643810Y-114916858D02*
X137643810Y-114626572D01*
X138151810Y-114771715D02*
X137643810Y-114771715D01*
X138151810Y-114457239D02*
X137643810Y-114457239D01*
X137643810Y-114263715D01*
X137668000Y-114215334D01*
X137692190Y-114191143D01*
X137740571Y-114166953D01*
X137813143Y-114166953D01*
X137861524Y-114191143D01*
X137885714Y-114215334D01*
X137909905Y-114263715D01*
X137909905Y-114457239D01*
X138127619Y-113973429D02*
X138151810Y-113900858D01*
X138151810Y-113779905D01*
X138127619Y-113731524D01*
X138103429Y-113707334D01*
X138055048Y-113683143D01*
X138006667Y-113683143D01*
X137958286Y-113707334D01*
X137934095Y-113731524D01*
X137909905Y-113779905D01*
X137885714Y-113876667D01*
X137861524Y-113925048D01*
X137837333Y-113949239D01*
X137788952Y-113973429D01*
X137740571Y-113973429D01*
X137692190Y-113949239D01*
X137668000Y-113925048D01*
X137643810Y-113876667D01*
X137643810Y-113755715D01*
X137668000Y-113683143D01*
X137692190Y-113489619D02*
X137668000Y-113465429D01*
X137643810Y-113417048D01*
X137643810Y-113296095D01*
X137668000Y-113247714D01*
X137692190Y-113223524D01*
X137740571Y-113199333D01*
X137788952Y-113199333D01*
X137861524Y-113223524D01*
X138151810Y-113513810D01*
X138151810Y-113199333D01*
X137643810Y-112884857D02*
X137643810Y-112836476D01*
X137668000Y-112788095D01*
X137692190Y-112763904D01*
X137740571Y-112739714D01*
X137837333Y-112715523D01*
X137958286Y-112715523D01*
X138055048Y-112739714D01*
X138103429Y-112763904D01*
X138127619Y-112788095D01*
X138151810Y-112836476D01*
X138151810Y-112884857D01*
X138127619Y-112933238D01*
X138103429Y-112957428D01*
X138055048Y-112981619D01*
X137958286Y-113005809D01*
X137837333Y-113005809D01*
X137740571Y-112981619D01*
X137692190Y-112957428D01*
X137668000Y-112933238D01*
X137643810Y-112884857D01*
X138151810Y-112497809D02*
X137643810Y-112497809D01*
X138006667Y-112328475D01*
X137643810Y-112159142D01*
X138151810Y-112159142D01*
X138151810Y-111651142D02*
X138151810Y-111941428D01*
X138151810Y-111796285D02*
X137643810Y-111796285D01*
X137716381Y-111844666D01*
X137764762Y-111893047D01*
X137788952Y-111941428D01*
X137643810Y-111336666D02*
X137643810Y-111288285D01*
X137668000Y-111239904D01*
X137692190Y-111215713D01*
X137740571Y-111191523D01*
X137837333Y-111167332D01*
X137958286Y-111167332D01*
X138055048Y-111191523D01*
X138103429Y-111215713D01*
X138127619Y-111239904D01*
X138151810Y-111288285D01*
X138151810Y-111336666D01*
X138127619Y-111385047D01*
X138103429Y-111409237D01*
X138055048Y-111433428D01*
X137958286Y-111457618D01*
X137837333Y-111457618D01*
X137740571Y-111433428D01*
X137692190Y-111409237D01*
X137668000Y-111385047D01*
X137643810Y-111336666D01*
X137643810Y-110852856D02*
X137643810Y-110804475D01*
X137668000Y-110756094D01*
X137692190Y-110731903D01*
X137740571Y-110707713D01*
X137837333Y-110683522D01*
X137958286Y-110683522D01*
X138055048Y-110707713D01*
X138103429Y-110731903D01*
X138127619Y-110756094D01*
X138151810Y-110804475D01*
X138151810Y-110852856D01*
X138127619Y-110901237D01*
X138103429Y-110925427D01*
X138055048Y-110949618D01*
X137958286Y-110973808D01*
X137837333Y-110973808D01*
X137740571Y-110949618D01*
X137692190Y-110925427D01*
X137668000Y-110901237D01*
X137643810Y-110852856D01*
X138127619Y-110489998D02*
X138151810Y-110417427D01*
X138151810Y-110296474D01*
X138127619Y-110248093D01*
X138103429Y-110223903D01*
X138055048Y-110199712D01*
X138006667Y-110199712D01*
X137958286Y-110223903D01*
X137934095Y-110248093D01*
X137909905Y-110296474D01*
X137885714Y-110393236D01*
X137861524Y-110441617D01*
X137837333Y-110465808D01*
X137788952Y-110489998D01*
X137740571Y-110489998D01*
X137692190Y-110465808D01*
X137668000Y-110441617D01*
X137643810Y-110393236D01*
X137643810Y-110272284D01*
X137668000Y-110199712D01*
X149279429Y-111844667D02*
X149303619Y-111868857D01*
X149327810Y-111941429D01*
X149327810Y-111989810D01*
X149303619Y-112062381D01*
X149255238Y-112110762D01*
X149206857Y-112134953D01*
X149110095Y-112159143D01*
X149037524Y-112159143D01*
X148940762Y-112134953D01*
X148892381Y-112110762D01*
X148844000Y-112062381D01*
X148819810Y-111989810D01*
X148819810Y-111941429D01*
X148844000Y-111868857D01*
X148868190Y-111844667D01*
X148819810Y-111675334D02*
X148819810Y-111336667D01*
X149327810Y-111554381D01*
X152049238Y-112243810D02*
X151807333Y-112243810D01*
X151783143Y-112485714D01*
X151807333Y-112461524D01*
X151855714Y-112437333D01*
X151976667Y-112437333D01*
X152025048Y-112461524D01*
X152049238Y-112485714D01*
X152073429Y-112534095D01*
X152073429Y-112655048D01*
X152049238Y-112703429D01*
X152025048Y-112727619D01*
X151976667Y-112751810D01*
X151855714Y-112751810D01*
X151807333Y-112727619D01*
X151783143Y-112703429D01*
X152508858Y-112243810D02*
X152412096Y-112243810D01*
X152363715Y-112268000D01*
X152339524Y-112292190D01*
X152291143Y-112364762D01*
X152266953Y-112461524D01*
X152266953Y-112655048D01*
X152291143Y-112703429D01*
X152315334Y-112727619D01*
X152363715Y-112751810D01*
X152460477Y-112751810D01*
X152508858Y-112727619D01*
X152533048Y-112703429D01*
X152557239Y-112655048D01*
X152557239Y-112534095D01*
X152533048Y-112485714D01*
X152508858Y-112461524D01*
X152460477Y-112437333D01*
X152363715Y-112437333D01*
X152315334Y-112461524D01*
X152291143Y-112485714D01*
X152266953Y-112534095D01*
X152992668Y-112413143D02*
X152992668Y-112751810D01*
X152774953Y-112413143D02*
X152774953Y-112679238D01*
X152799144Y-112727619D01*
X152847525Y-112751810D01*
X152920096Y-112751810D01*
X152968477Y-112727619D01*
X152992668Y-112703429D01*
X153706476Y-112628286D02*
X154093524Y-112628286D01*
X153900000Y-112821810D02*
X153900000Y-112434762D01*
X157105047Y-111227810D02*
X157105047Y-110719810D01*
X157298571Y-110719810D01*
X157346952Y-110744000D01*
X157371143Y-110768190D01*
X157395333Y-110816571D01*
X157395333Y-110889143D01*
X157371143Y-110937524D01*
X157346952Y-110961714D01*
X157298571Y-110985905D01*
X157105047Y-110985905D01*
X157564666Y-110719810D02*
X157879143Y-110719810D01*
X157709809Y-110913333D01*
X157782381Y-110913333D01*
X157830762Y-110937524D01*
X157854952Y-110961714D01*
X157879143Y-111010095D01*
X157879143Y-111131048D01*
X157854952Y-111179429D01*
X157830762Y-111203619D01*
X157782381Y-111227810D01*
X157637238Y-111227810D01*
X157588857Y-111203619D01*
X157564666Y-111179429D01*
X147186952Y-119863810D02*
X147186952Y-120275048D01*
X147211143Y-120323429D01*
X147235333Y-120347619D01*
X147283714Y-120371810D01*
X147380476Y-120371810D01*
X147428857Y-120347619D01*
X147453048Y-120323429D01*
X147477238Y-120275048D01*
X147477238Y-119863810D01*
X147936857Y-120033143D02*
X147936857Y-120371810D01*
X147815904Y-119839619D02*
X147694952Y-120202476D01*
X148009428Y-120202476D01*
X145009810Y-123516572D02*
X145009810Y-123806858D01*
X145009810Y-123661715D02*
X144501810Y-123661715D01*
X144574381Y-123710096D01*
X144622762Y-123758477D01*
X144646952Y-123806858D01*
X145009810Y-123032762D02*
X145009810Y-123323048D01*
X145009810Y-123177905D02*
X144501810Y-123177905D01*
X144574381Y-123226286D01*
X144622762Y-123274667D01*
X144646952Y-123323048D01*
X145009810Y-122548952D02*
X145009810Y-122839238D01*
X145009810Y-122694095D02*
X144501810Y-122694095D01*
X144574381Y-122742476D01*
X144622762Y-122790857D01*
X144646952Y-122839238D01*
X144501810Y-122379619D02*
X144501810Y-122040952D01*
X145009810Y-122258666D01*
X115195047Y-109703810D02*
X115195047Y-109195810D01*
X115388571Y-109195810D01*
X115436952Y-109220000D01*
X115461143Y-109244190D01*
X115485333Y-109292571D01*
X115485333Y-109365143D01*
X115461143Y-109413524D01*
X115436952Y-109437714D01*
X115388571Y-109461905D01*
X115195047Y-109461905D01*
X115969143Y-109703810D02*
X115678857Y-109703810D01*
X115824000Y-109703810D02*
X115824000Y-109195810D01*
X115775619Y-109268381D01*
X115727238Y-109316762D01*
X115678857Y-109340952D01*
X136881810Y-118956667D02*
X136881810Y-119198572D01*
X136373810Y-119198572D01*
X136881810Y-118521238D02*
X136881810Y-118811524D01*
X136881810Y-118666381D02*
X136373810Y-118666381D01*
X136446381Y-118714762D01*
X136494762Y-118763143D01*
X136518952Y-118811524D01*
X136881810Y-123389571D02*
X136881810Y-123679857D01*
X136881810Y-123534714D02*
X136373810Y-123534714D01*
X136446381Y-123583095D01*
X136494762Y-123631476D01*
X136518952Y-123679857D01*
X136373810Y-123075095D02*
X136373810Y-123026714D01*
X136398000Y-122978333D01*
X136422190Y-122954142D01*
X136470571Y-122929952D01*
X136567333Y-122905761D01*
X136688286Y-122905761D01*
X136785048Y-122929952D01*
X136833429Y-122954142D01*
X136857619Y-122978333D01*
X136881810Y-123026714D01*
X136881810Y-123075095D01*
X136857619Y-123123476D01*
X136833429Y-123147666D01*
X136785048Y-123171857D01*
X136688286Y-123196047D01*
X136567333Y-123196047D01*
X136470571Y-123171857D01*
X136422190Y-123147666D01*
X136398000Y-123123476D01*
X136373810Y-123075095D01*
X136543143Y-122470332D02*
X136881810Y-122470332D01*
X136543143Y-122688047D02*
X136809238Y-122688047D01*
X136857619Y-122663856D01*
X136881810Y-122615475D01*
X136881810Y-122542904D01*
X136857619Y-122494523D01*
X136833429Y-122470332D01*
X131184952Y-117323810D02*
X131184952Y-117735048D01*
X131209143Y-117783429D01*
X131233333Y-117807619D01*
X131281714Y-117831810D01*
X131378476Y-117831810D01*
X131426857Y-117807619D01*
X131451048Y-117783429D01*
X131475238Y-117735048D01*
X131475238Y-117323810D01*
X131692952Y-117372190D02*
X131717142Y-117348000D01*
X131765523Y-117323810D01*
X131886476Y-117323810D01*
X131934857Y-117348000D01*
X131959047Y-117372190D01*
X131983238Y-117420571D01*
X131983238Y-117468952D01*
X131959047Y-117541524D01*
X131668761Y-117831810D01*
X131983238Y-117831810D01*
X127423333Y-117275429D02*
X127399143Y-117299619D01*
X127326571Y-117323810D01*
X127278190Y-117323810D01*
X127205619Y-117299619D01*
X127157238Y-117251238D01*
X127133047Y-117202857D01*
X127108857Y-117106095D01*
X127108857Y-117033524D01*
X127133047Y-116936762D01*
X127157238Y-116888381D01*
X127205619Y-116840000D01*
X127278190Y-116815810D01*
X127326571Y-116815810D01*
X127399143Y-116840000D01*
X127423333Y-116864190D01*
X127592666Y-116815810D02*
X127907143Y-116815810D01*
X127737809Y-117009333D01*
X127810381Y-117009333D01*
X127858762Y-117033524D01*
X127882952Y-117057714D01*
X127907143Y-117106095D01*
X127907143Y-117227048D01*
X127882952Y-117275429D01*
X127858762Y-117299619D01*
X127810381Y-117323810D01*
X127665238Y-117323810D01*
X127616857Y-117299619D01*
X127592666Y-117275429D01*
X130725333Y-126419429D02*
X130701143Y-126443619D01*
X130628571Y-126467810D01*
X130580190Y-126467810D01*
X130507619Y-126443619D01*
X130459238Y-126395238D01*
X130435047Y-126346857D01*
X130410857Y-126250095D01*
X130410857Y-126177524D01*
X130435047Y-126080762D01*
X130459238Y-126032381D01*
X130507619Y-125984000D01*
X130580190Y-125959810D01*
X130628571Y-125959810D01*
X130701143Y-125984000D01*
X130725333Y-126008190D01*
X131160762Y-126129143D02*
X131160762Y-126467810D01*
X131039809Y-125935619D02*
X130918857Y-126298476D01*
X131233333Y-126298476D01*
X121133810Y-122246571D02*
X121133810Y-122536857D01*
X121133810Y-122391714D02*
X120625810Y-122391714D01*
X120698381Y-122440095D01*
X120746762Y-122488476D01*
X120770952Y-122536857D01*
X120795143Y-122028857D02*
X121133810Y-122028857D01*
X120843524Y-122028857D02*
X120819333Y-122004666D01*
X120795143Y-121956285D01*
X120795143Y-121883714D01*
X120819333Y-121835333D01*
X120867714Y-121811142D01*
X121133810Y-121811142D01*
X120674190Y-121593428D02*
X120650000Y-121569238D01*
X120625810Y-121520857D01*
X120625810Y-121399904D01*
X120650000Y-121351523D01*
X120674190Y-121327333D01*
X120722571Y-121303142D01*
X120770952Y-121303142D01*
X120843524Y-121327333D01*
X121133810Y-121617619D01*
X121133810Y-121303142D01*
X131995333Y-126419429D02*
X131971143Y-126443619D01*
X131898571Y-126467810D01*
X131850190Y-126467810D01*
X131777619Y-126443619D01*
X131729238Y-126395238D01*
X131705047Y-126346857D01*
X131680857Y-126250095D01*
X131680857Y-126177524D01*
X131705047Y-126080762D01*
X131729238Y-126032381D01*
X131777619Y-125984000D01*
X131850190Y-125959810D01*
X131898571Y-125959810D01*
X131971143Y-125984000D01*
X131995333Y-126008190D01*
X132454952Y-125959810D02*
X132213047Y-125959810D01*
X132188857Y-126201714D01*
X132213047Y-126177524D01*
X132261428Y-126153333D01*
X132382381Y-126153333D01*
X132430762Y-126177524D01*
X132454952Y-126201714D01*
X132479143Y-126250095D01*
X132479143Y-126371048D01*
X132454952Y-126419429D01*
X132430762Y-126443619D01*
X132382381Y-126467810D01*
X132261428Y-126467810D01*
X132213047Y-126443619D01*
X132188857Y-126419429D01*
X121690190Y-122536857D02*
X121666000Y-122512667D01*
X121641810Y-122464286D01*
X121641810Y-122343333D01*
X121666000Y-122294952D01*
X121690190Y-122270762D01*
X121738571Y-122246571D01*
X121786952Y-122246571D01*
X121859524Y-122270762D01*
X122149810Y-122561048D01*
X122149810Y-122246571D01*
X121690190Y-122053047D02*
X121666000Y-122028857D01*
X121641810Y-121980476D01*
X121641810Y-121859523D01*
X121666000Y-121811142D01*
X121690190Y-121786952D01*
X121738571Y-121762761D01*
X121786952Y-121762761D01*
X121859524Y-121786952D01*
X122149810Y-122077238D01*
X122149810Y-121762761D01*
X121811143Y-121545047D02*
X122319143Y-121545047D01*
X121835333Y-121545047D02*
X121811143Y-121496666D01*
X121811143Y-121399904D01*
X121835333Y-121351523D01*
X121859524Y-121327332D01*
X121907905Y-121303142D01*
X122053048Y-121303142D01*
X122101429Y-121327332D01*
X122125619Y-121351523D01*
X122149810Y-121399904D01*
X122149810Y-121496666D01*
X122125619Y-121545047D01*
X125645333Y-126467810D02*
X125476000Y-126225905D01*
X125355047Y-126467810D02*
X125355047Y-125959810D01*
X125548571Y-125959810D01*
X125596952Y-125984000D01*
X125621143Y-126008190D01*
X125645333Y-126056571D01*
X125645333Y-126129143D01*
X125621143Y-126177524D01*
X125596952Y-126201714D01*
X125548571Y-126225905D01*
X125355047Y-126225905D01*
X125838857Y-126008190D02*
X125863047Y-125984000D01*
X125911428Y-125959810D01*
X126032381Y-125959810D01*
X126080762Y-125984000D01*
X126104952Y-126008190D01*
X126129143Y-126056571D01*
X126129143Y-126104952D01*
X126104952Y-126177524D01*
X125814666Y-126467810D01*
X126129143Y-126467810D01*
X116610190Y-122548953D02*
X116586000Y-122524763D01*
X116561810Y-122476382D01*
X116561810Y-122355429D01*
X116586000Y-122307048D01*
X116610190Y-122282858D01*
X116658571Y-122258667D01*
X116706952Y-122258667D01*
X116779524Y-122282858D01*
X117069810Y-122573144D01*
X117069810Y-122258667D01*
X116561810Y-122089334D02*
X116561810Y-121750667D01*
X117069810Y-121968381D01*
X116561810Y-121460381D02*
X116561810Y-121412000D01*
X116586000Y-121363619D01*
X116610190Y-121339428D01*
X116658571Y-121315238D01*
X116755333Y-121291047D01*
X116876286Y-121291047D01*
X116973048Y-121315238D01*
X117021429Y-121339428D01*
X117045619Y-121363619D01*
X117069810Y-121412000D01*
X117069810Y-121460381D01*
X117045619Y-121508762D01*
X117021429Y-121532952D01*
X116973048Y-121557143D01*
X116876286Y-121581333D01*
X116755333Y-121581333D01*
X116658571Y-121557143D01*
X116610190Y-121532952D01*
X116586000Y-121508762D01*
X116561810Y-121460381D01*
X117069810Y-121073333D02*
X116561810Y-121073333D01*
X117069810Y-120783047D02*
X116779524Y-121000761D01*
X116561810Y-120783047D02*
X116852095Y-121073333D01*
X129455333Y-126467810D02*
X129286000Y-126225905D01*
X129165047Y-126467810D02*
X129165047Y-125959810D01*
X129358571Y-125959810D01*
X129406952Y-125984000D01*
X129431143Y-126008190D01*
X129455333Y-126056571D01*
X129455333Y-126129143D01*
X129431143Y-126177524D01*
X129406952Y-126201714D01*
X129358571Y-126225905D01*
X129165047Y-126225905D01*
X129624666Y-125959810D02*
X129939143Y-125959810D01*
X129769809Y-126153333D01*
X129842381Y-126153333D01*
X129890762Y-126177524D01*
X129914952Y-126201714D01*
X129939143Y-126250095D01*
X129939143Y-126371048D01*
X129914952Y-126419429D01*
X129890762Y-126443619D01*
X129842381Y-126467810D01*
X129697238Y-126467810D01*
X129648857Y-126443619D01*
X129624666Y-126419429D01*
X119658190Y-122561048D02*
X119634000Y-122536858D01*
X119609810Y-122488477D01*
X119609810Y-122367524D01*
X119634000Y-122319143D01*
X119658190Y-122294953D01*
X119706571Y-122270762D01*
X119754952Y-122270762D01*
X119827524Y-122294953D01*
X120117810Y-122585239D01*
X120117810Y-122270762D01*
X119609810Y-122101429D02*
X119609810Y-121762762D01*
X120117810Y-121980476D01*
X120117810Y-121569238D02*
X119609810Y-121569238D01*
X120117810Y-121278952D02*
X119827524Y-121496666D01*
X119609810Y-121278952D02*
X119900095Y-121569238D01*
X126915333Y-126467810D02*
X126746000Y-126225905D01*
X126625047Y-126467810D02*
X126625047Y-125959810D01*
X126818571Y-125959810D01*
X126866952Y-125984000D01*
X126891143Y-126008190D01*
X126915333Y-126056571D01*
X126915333Y-126129143D01*
X126891143Y-126177524D01*
X126866952Y-126201714D01*
X126818571Y-126225905D01*
X126625047Y-126225905D01*
X127374952Y-125959810D02*
X127133047Y-125959810D01*
X127108857Y-126201714D01*
X127133047Y-126177524D01*
X127181428Y-126153333D01*
X127302381Y-126153333D01*
X127350762Y-126177524D01*
X127374952Y-126201714D01*
X127399143Y-126250095D01*
X127399143Y-126371048D01*
X127374952Y-126419429D01*
X127350762Y-126443619D01*
X127302381Y-126467810D01*
X127181428Y-126467810D01*
X127133047Y-126443619D01*
X127108857Y-126419429D01*
X117626190Y-122548953D02*
X117602000Y-122524763D01*
X117577810Y-122476382D01*
X117577810Y-122355429D01*
X117602000Y-122307048D01*
X117626190Y-122282858D01*
X117674571Y-122258667D01*
X117722952Y-122258667D01*
X117795524Y-122282858D01*
X118085810Y-122573144D01*
X118085810Y-122258667D01*
X117577810Y-122089334D02*
X117577810Y-121750667D01*
X118085810Y-121968381D01*
X117577810Y-121460381D02*
X117577810Y-121412000D01*
X117602000Y-121363619D01*
X117626190Y-121339428D01*
X117674571Y-121315238D01*
X117771333Y-121291047D01*
X117892286Y-121291047D01*
X117989048Y-121315238D01*
X118037429Y-121339428D01*
X118061619Y-121363619D01*
X118085810Y-121412000D01*
X118085810Y-121460381D01*
X118061619Y-121508762D01*
X118037429Y-121532952D01*
X117989048Y-121557143D01*
X117892286Y-121581333D01*
X117771333Y-121581333D01*
X117674571Y-121557143D01*
X117626190Y-121532952D01*
X117602000Y-121508762D01*
X117577810Y-121460381D01*
X118085810Y-121073333D02*
X117577810Y-121073333D01*
X118085810Y-120783047D02*
X117795524Y-121000761D01*
X117577810Y-120783047D02*
X117868095Y-121073333D01*
X128185333Y-126467810D02*
X128016000Y-126225905D01*
X127895047Y-126467810D02*
X127895047Y-125959810D01*
X128088571Y-125959810D01*
X128136952Y-125984000D01*
X128161143Y-126008190D01*
X128185333Y-126056571D01*
X128185333Y-126129143D01*
X128161143Y-126177524D01*
X128136952Y-126201714D01*
X128088571Y-126225905D01*
X127895047Y-126225905D01*
X128620762Y-125959810D02*
X128524000Y-125959810D01*
X128475619Y-125984000D01*
X128451428Y-126008190D01*
X128403047Y-126080762D01*
X128378857Y-126177524D01*
X128378857Y-126371048D01*
X128403047Y-126419429D01*
X128427238Y-126443619D01*
X128475619Y-126467810D01*
X128572381Y-126467810D01*
X128620762Y-126443619D01*
X128644952Y-126419429D01*
X128669143Y-126371048D01*
X128669143Y-126250095D01*
X128644952Y-126201714D01*
X128620762Y-126177524D01*
X128572381Y-126153333D01*
X128475619Y-126153333D01*
X128427238Y-126177524D01*
X128403047Y-126201714D01*
X128378857Y-126250095D01*
X118642190Y-122561048D02*
X118618000Y-122536858D01*
X118593810Y-122488477D01*
X118593810Y-122367524D01*
X118618000Y-122319143D01*
X118642190Y-122294953D01*
X118690571Y-122270762D01*
X118738952Y-122270762D01*
X118811524Y-122294953D01*
X119101810Y-122585239D01*
X119101810Y-122270762D01*
X118642190Y-122077238D02*
X118618000Y-122053048D01*
X118593810Y-122004667D01*
X118593810Y-121883714D01*
X118618000Y-121835333D01*
X118642190Y-121811143D01*
X118690571Y-121786952D01*
X118738952Y-121786952D01*
X118811524Y-121811143D01*
X119101810Y-122101429D01*
X119101810Y-121786952D01*
X119101810Y-121569238D02*
X118593810Y-121569238D01*
X119101810Y-121278952D02*
X118811524Y-121496666D01*
X118593810Y-121278952D02*
X118884095Y-121569238D01*
X125149429Y-110308572D02*
X125173619Y-110332762D01*
X125197810Y-110405334D01*
X125197810Y-110453715D01*
X125173619Y-110526286D01*
X125125238Y-110574667D01*
X125076857Y-110598858D01*
X124980095Y-110623048D01*
X124907524Y-110623048D01*
X124810762Y-110598858D01*
X124762381Y-110574667D01*
X124714000Y-110526286D01*
X124689810Y-110453715D01*
X124689810Y-110405334D01*
X124714000Y-110332762D01*
X124738190Y-110308572D01*
X125197810Y-109824762D02*
X125197810Y-110115048D01*
X125197810Y-109969905D02*
X124689810Y-109969905D01*
X124762381Y-110018286D01*
X124810762Y-110066667D01*
X124834952Y-110115048D01*
X124689810Y-109510286D02*
X124689810Y-109461905D01*
X124714000Y-109413524D01*
X124738190Y-109389333D01*
X124786571Y-109365143D01*
X124883333Y-109340952D01*
X125004286Y-109340952D01*
X125101048Y-109365143D01*
X125149429Y-109389333D01*
X125173619Y-109413524D01*
X125197810Y-109461905D01*
X125197810Y-109510286D01*
X125173619Y-109558667D01*
X125149429Y-109582857D01*
X125101048Y-109607048D01*
X125004286Y-109631238D01*
X124883333Y-109631238D01*
X124786571Y-109607048D01*
X124738190Y-109582857D01*
X124714000Y-109558667D01*
X124689810Y-109510286D01*
X127278190Y-111360857D02*
X127254000Y-111336667D01*
X127229810Y-111288286D01*
X127229810Y-111167333D01*
X127254000Y-111118952D01*
X127278190Y-111094762D01*
X127326571Y-111070571D01*
X127374952Y-111070571D01*
X127447524Y-111094762D01*
X127737810Y-111385048D01*
X127737810Y-111070571D01*
X127399143Y-110635142D02*
X127737810Y-110635142D01*
X127399143Y-110852857D02*
X127665238Y-110852857D01*
X127713619Y-110828666D01*
X127737810Y-110780285D01*
X127737810Y-110707714D01*
X127713619Y-110659333D01*
X127689429Y-110635142D01*
X127278190Y-110417428D02*
X127254000Y-110393238D01*
X127229810Y-110344857D01*
X127229810Y-110223904D01*
X127254000Y-110175523D01*
X127278190Y-110151333D01*
X127326571Y-110127142D01*
X127374952Y-110127142D01*
X127447524Y-110151333D01*
X127737810Y-110441619D01*
X127737810Y-110127142D01*
X125149429Y-113368667D02*
X125173619Y-113392857D01*
X125197810Y-113465429D01*
X125197810Y-113513810D01*
X125173619Y-113586381D01*
X125125238Y-113634762D01*
X125076857Y-113658953D01*
X124980095Y-113683143D01*
X124907524Y-113683143D01*
X124810762Y-113658953D01*
X124762381Y-113634762D01*
X124714000Y-113586381D01*
X124689810Y-113513810D01*
X124689810Y-113465429D01*
X124714000Y-113392857D01*
X124738190Y-113368667D01*
X125197810Y-112884857D02*
X125197810Y-113175143D01*
X125197810Y-113030000D02*
X124689810Y-113030000D01*
X124762381Y-113078381D01*
X124810762Y-113126762D01*
X124834952Y-113175143D01*
X127278190Y-114916857D02*
X127254000Y-114892667D01*
X127229810Y-114844286D01*
X127229810Y-114723333D01*
X127254000Y-114674952D01*
X127278190Y-114650762D01*
X127326571Y-114626571D01*
X127374952Y-114626571D01*
X127447524Y-114650762D01*
X127737810Y-114941048D01*
X127737810Y-114626571D01*
X127399143Y-114191142D02*
X127737810Y-114191142D01*
X127399143Y-114408857D02*
X127665238Y-114408857D01*
X127713619Y-114384666D01*
X127737810Y-114336285D01*
X127737810Y-114263714D01*
X127713619Y-114215333D01*
X127689429Y-114191142D01*
X127278190Y-113973428D02*
X127254000Y-113949238D01*
X127229810Y-113900857D01*
X127229810Y-113779904D01*
X127254000Y-113731523D01*
X127278190Y-113707333D01*
X127326571Y-113683142D01*
X127374952Y-113683142D01*
X127447524Y-113707333D01*
X127737810Y-113997619D01*
X127737810Y-113683142D01*
M02*
