G04 (created by PCBNEW (2013-mar-13)-testing) date Wed 10 Jun 2015 12:05:28 AM EDT*
%MOIN*%
G04 Gerber Fmt 3.4, Leading zero omitted, Abs format*
%FSLAX34Y34*%
G01*
G70*
G90*
G04 APERTURE LIST*
%ADD10C,0.005906*%
%ADD11R,0.098425X0.039370*%
%ADD12R,0.086614X0.086614*%
%ADD13C,0.086614*%
%ADD14R,0.080000X0.144000*%
%ADD15R,0.080000X0.040000*%
%ADD16C,0.070866*%
%ADD17R,0.350000X0.420000*%
%ADD18R,0.090000X0.070000*%
%ADD19R,0.216535X0.059055*%
%ADD20R,0.050000X0.100000*%
%ADD21R,0.021654X0.023622*%
%ADD22R,0.023622X0.021654*%
%ADD23R,0.055100X0.023600*%
%ADD24R,0.110200X0.157500*%
%ADD25R,0.036000X0.036000*%
%ADD26C,0.030000*%
%ADD27C,0.012000*%
%ADD28C,0.039370*%
%ADD29C,0.010000*%
%ADD30C,0.007992*%
%ADD31C,0.006000*%
G04 APERTURE END LIST*
G54D10*
G54D11*
X60688Y-44500D03*
X59311Y-44500D03*
G54D12*
X62000Y-44500D03*
G54D13*
X62000Y-45500D03*
X62000Y-46500D03*
X62000Y-47500D03*
G54D14*
X52200Y-43700D03*
G54D15*
X54800Y-43700D03*
X54800Y-42800D03*
X54800Y-44600D03*
G54D16*
X47500Y-45250D03*
X48500Y-45750D03*
X47500Y-46250D03*
X48500Y-46750D03*
G54D17*
X56650Y-47350D03*
G54D18*
X53200Y-46350D03*
X53200Y-48350D03*
G54D19*
X56800Y-44387D03*
X56800Y-42812D03*
G54D20*
X49700Y-45000D03*
X50900Y-45000D03*
G54D21*
X51763Y-45300D03*
X52236Y-45300D03*
G54D22*
X51650Y-48363D03*
X51650Y-48836D03*
X52200Y-48363D03*
X52200Y-48836D03*
X49450Y-48363D03*
X49450Y-48836D03*
X51100Y-48363D03*
X51100Y-48836D03*
X50550Y-48363D03*
X50550Y-48836D03*
X50000Y-48363D03*
X50000Y-48836D03*
G54D23*
X51937Y-46087D03*
X49837Y-46087D03*
X51937Y-46587D03*
X51937Y-47087D03*
X51937Y-47587D03*
X49837Y-46587D03*
X49837Y-47087D03*
X49837Y-47587D03*
G54D24*
X50887Y-46837D03*
G54D11*
X60688Y-47500D03*
X59311Y-47500D03*
G54D25*
X50200Y-43350D03*
X50200Y-44050D03*
X49400Y-43700D03*
G54D22*
X50800Y-43463D03*
X50800Y-43936D03*
X51300Y-43463D03*
X51300Y-43936D03*
G54D26*
X49000Y-47150D03*
X52900Y-44000D03*
X44500Y-49000D03*
X45500Y-49500D03*
X45000Y-49500D03*
X48500Y-49500D03*
X51500Y-49500D03*
X50500Y-49500D03*
X49500Y-49500D03*
X49000Y-49500D03*
X49050Y-48800D03*
X50000Y-49500D03*
X51000Y-49500D03*
X52000Y-49500D03*
X44500Y-46500D03*
X44500Y-45500D03*
X44500Y-45000D03*
X44500Y-46000D03*
X44500Y-47000D03*
X44500Y-43000D03*
X45000Y-42500D03*
X45500Y-42500D03*
X51500Y-42500D03*
X50500Y-42500D03*
X49500Y-42500D03*
X49000Y-42500D03*
X50000Y-42500D03*
X51000Y-42500D03*
X52000Y-42500D03*
X48500Y-42500D03*
X51250Y-46600D03*
X51250Y-46950D03*
X54000Y-44400D03*
X51900Y-44800D03*
X61500Y-49500D03*
X62500Y-49000D03*
X62000Y-49500D03*
X59000Y-49500D03*
X62500Y-43000D03*
X61500Y-42500D03*
X62000Y-42500D03*
X62500Y-43500D03*
X58500Y-42500D03*
X59300Y-45100D03*
X59750Y-45100D03*
X59300Y-45600D03*
X59750Y-45600D03*
X53650Y-47650D03*
X53200Y-47650D03*
X50500Y-47450D03*
X59300Y-46450D03*
X59750Y-46900D03*
X59750Y-46450D03*
X59300Y-46900D03*
X50500Y-47100D03*
X51250Y-46250D03*
X47700Y-44400D03*
X49750Y-43300D03*
X50800Y-48050D03*
X60700Y-45000D03*
X60700Y-47000D03*
G54D27*
X49000Y-47150D02*
X49287Y-46862D01*
X49287Y-46862D02*
X49287Y-46587D01*
G54D28*
X49837Y-46587D02*
X49287Y-46587D01*
X49700Y-45200D02*
X49700Y-45000D01*
X49200Y-45700D02*
X49700Y-45200D01*
X49200Y-46500D02*
X49200Y-45700D01*
X49287Y-46587D02*
X49200Y-46500D01*
X49400Y-43700D02*
X49400Y-44700D01*
X49400Y-44700D02*
X49700Y-45000D01*
X52500Y-44000D02*
X52900Y-44000D01*
G54D27*
X52500Y-44000D02*
X52200Y-43700D01*
X52200Y-48836D02*
X52563Y-48836D01*
X53050Y-48350D02*
X53200Y-48350D01*
X53050Y-48350D02*
X52563Y-48836D01*
X51650Y-48836D02*
X52200Y-48836D01*
X49086Y-48836D02*
X49050Y-48800D01*
X49450Y-48836D02*
X49086Y-48836D01*
X51125Y-46600D02*
X51250Y-46600D01*
X51087Y-46837D02*
X50887Y-46837D01*
G54D28*
X54800Y-44600D02*
X54200Y-44600D01*
X54200Y-44600D02*
X54000Y-44400D01*
X51237Y-46587D02*
X50887Y-46837D01*
X51937Y-46587D02*
X51237Y-46587D01*
G54D27*
X51300Y-43936D02*
X50900Y-44336D01*
X50900Y-44336D02*
X50900Y-45000D01*
G54D28*
X50900Y-45000D02*
X51100Y-44800D01*
X51100Y-44800D02*
X51900Y-44800D01*
X51937Y-46587D02*
X52962Y-46587D01*
X52962Y-46587D02*
X53200Y-46350D01*
X59300Y-45100D02*
X59750Y-45100D01*
X59750Y-45100D02*
X59550Y-45100D01*
X59750Y-45600D02*
X59300Y-45600D01*
X59750Y-45600D02*
X59750Y-45100D01*
X59300Y-45550D02*
X59300Y-45600D01*
G54D27*
X49450Y-48836D02*
X50000Y-48836D01*
X53113Y-48436D02*
X53200Y-48350D01*
G54D28*
X53650Y-47650D02*
X53200Y-47650D01*
X53200Y-47650D02*
X53200Y-48350D01*
X59311Y-44500D02*
X59550Y-44738D01*
X59550Y-44738D02*
X59550Y-45100D01*
X59311Y-47500D02*
X59550Y-47261D01*
X59550Y-47261D02*
X59550Y-46900D01*
X59550Y-46900D02*
X59550Y-46950D01*
X59550Y-46950D02*
X59550Y-46900D01*
X59300Y-46450D02*
X59500Y-46650D01*
X59750Y-46450D02*
X59750Y-46900D01*
X59750Y-46900D02*
X59550Y-46900D01*
X59300Y-46450D02*
X59750Y-46450D01*
X59500Y-46650D02*
X59550Y-46650D01*
X59311Y-47500D02*
X59300Y-47488D01*
X59300Y-47488D02*
X59300Y-46900D01*
X59550Y-46900D02*
X59300Y-46900D01*
X59300Y-46900D02*
X59300Y-46450D01*
X59300Y-45550D02*
X59500Y-45350D01*
X59550Y-45100D02*
X59300Y-45100D01*
X59300Y-45100D02*
X59300Y-45550D01*
X59311Y-45088D02*
X59300Y-45100D01*
X59311Y-44500D02*
X59311Y-45088D01*
X51237Y-46537D02*
X50887Y-46837D01*
X53200Y-46350D02*
X53037Y-46187D01*
G54D27*
X48500Y-45200D02*
X48500Y-45750D01*
X47700Y-44400D02*
X48500Y-45200D01*
G54D29*
X50800Y-43936D02*
X50827Y-43936D01*
G54D27*
X50827Y-43936D02*
X51300Y-43463D01*
G54D29*
X50200Y-44050D02*
X50313Y-43936D01*
G54D27*
X50313Y-43936D02*
X50800Y-43936D01*
G54D28*
X49800Y-43350D02*
X50200Y-43350D01*
X49800Y-43350D02*
X49750Y-43300D01*
G54D29*
X50200Y-43350D02*
X50313Y-43463D01*
G54D27*
X50313Y-43463D02*
X50800Y-43463D01*
X52350Y-47300D02*
X52350Y-48213D01*
X51937Y-47087D02*
X52137Y-47087D01*
X52137Y-47087D02*
X52350Y-47300D01*
X52350Y-48213D02*
X52200Y-48363D01*
X52200Y-48363D02*
X51936Y-48100D01*
X51363Y-48100D02*
X51100Y-48363D01*
X51936Y-48100D02*
X51363Y-48100D01*
X51100Y-48836D02*
X51336Y-48600D01*
X51413Y-48600D02*
X51650Y-48363D01*
X51336Y-48600D02*
X51413Y-48600D01*
X51150Y-48836D02*
X51177Y-48836D01*
X51263Y-45800D02*
X50300Y-45800D01*
X51763Y-45300D02*
X51263Y-45800D01*
X50012Y-46087D02*
X49837Y-46087D01*
X50300Y-45800D02*
X50012Y-46087D01*
X50000Y-48363D02*
X50613Y-47750D01*
X51762Y-47587D02*
X51937Y-47587D01*
X51600Y-47750D02*
X51762Y-47587D01*
X50613Y-47750D02*
X51600Y-47750D01*
X50000Y-48363D02*
X50236Y-48600D01*
X50313Y-48600D02*
X50550Y-48836D01*
X50236Y-48600D02*
X50313Y-48600D01*
X51937Y-47587D02*
X51812Y-47587D01*
X50550Y-48836D02*
X50550Y-48850D01*
X52112Y-46087D02*
X51937Y-46087D01*
X49837Y-47587D02*
X49837Y-47976D01*
X49837Y-47976D02*
X49450Y-48363D01*
X50550Y-48300D02*
X50800Y-48050D01*
X50550Y-48300D02*
X50550Y-48363D01*
G54D28*
X54800Y-42800D02*
X54812Y-42812D01*
X54812Y-42812D02*
X56800Y-42812D01*
G54D10*
G36*
X62860Y-48986D02*
X62792Y-49328D01*
X62769Y-49361D01*
X62769Y-48946D01*
X62728Y-48847D01*
X62653Y-48771D01*
X62553Y-48730D01*
X62446Y-48730D01*
X62347Y-48771D01*
X62271Y-48846D01*
X62230Y-48946D01*
X62230Y-49053D01*
X62271Y-49152D01*
X62346Y-49228D01*
X62446Y-49269D01*
X62553Y-49269D01*
X62652Y-49228D01*
X62728Y-49153D01*
X62769Y-49053D01*
X62769Y-48946D01*
X62769Y-49361D01*
X62606Y-49606D01*
X62328Y-49792D01*
X62269Y-49804D01*
X62269Y-49446D01*
X62228Y-49347D01*
X62153Y-49271D01*
X62053Y-49230D01*
X61946Y-49230D01*
X61847Y-49271D01*
X61771Y-49346D01*
X61749Y-49398D01*
X61728Y-49347D01*
X61653Y-49271D01*
X61553Y-49230D01*
X61446Y-49230D01*
X61347Y-49271D01*
X61271Y-49346D01*
X61230Y-49446D01*
X61230Y-49553D01*
X61271Y-49652D01*
X61346Y-49728D01*
X61446Y-49769D01*
X61553Y-49769D01*
X61652Y-49728D01*
X61728Y-49653D01*
X61750Y-49601D01*
X61771Y-49652D01*
X61846Y-49728D01*
X61946Y-49769D01*
X62053Y-49769D01*
X62152Y-49728D01*
X62228Y-49653D01*
X62269Y-49553D01*
X62269Y-49446D01*
X62269Y-49804D01*
X61986Y-49860D01*
X60614Y-49860D01*
X60598Y-49781D01*
X60577Y-49731D01*
X60577Y-49731D01*
X60469Y-49568D01*
X60469Y-49568D01*
X60431Y-49530D01*
X60431Y-49530D01*
X60268Y-49422D01*
X60218Y-49401D01*
X60027Y-49363D01*
X60027Y-49363D01*
X59972Y-49363D01*
X59972Y-49363D01*
X59781Y-49401D01*
X59731Y-49422D01*
X59568Y-49530D01*
X59568Y-49530D01*
X59530Y-49568D01*
X59530Y-49568D01*
X59422Y-49731D01*
X59401Y-49781D01*
X59385Y-49860D01*
X59269Y-49860D01*
X59269Y-49446D01*
X59228Y-49347D01*
X59153Y-49271D01*
X59053Y-49230D01*
X58946Y-49230D01*
X58847Y-49271D01*
X58771Y-49346D01*
X58730Y-49446D01*
X58730Y-49553D01*
X58771Y-49652D01*
X58846Y-49728D01*
X58946Y-49769D01*
X59053Y-49769D01*
X59152Y-49728D01*
X59228Y-49653D01*
X59269Y-49553D01*
X59269Y-49446D01*
X59269Y-49860D01*
X58042Y-49860D01*
X58042Y-44714D01*
X58042Y-44650D01*
X58042Y-44575D01*
X58042Y-44199D01*
X58042Y-44123D01*
X58042Y-44060D01*
X58018Y-44001D01*
X57973Y-43956D01*
X57914Y-43932D01*
X56996Y-43932D01*
X56956Y-43972D01*
X56956Y-44239D01*
X58002Y-44239D01*
X58042Y-44199D01*
X58042Y-44575D01*
X58002Y-44535D01*
X56956Y-44535D01*
X56956Y-44802D01*
X56996Y-44842D01*
X57914Y-44842D01*
X57973Y-44818D01*
X58018Y-44773D01*
X58042Y-44714D01*
X58042Y-49860D01*
X56643Y-49860D01*
X56643Y-44802D01*
X56643Y-44535D01*
X56643Y-44239D01*
X56643Y-43972D01*
X56603Y-43932D01*
X55685Y-43932D01*
X55626Y-43956D01*
X55581Y-44001D01*
X55557Y-44060D01*
X55557Y-44123D01*
X55557Y-44199D01*
X55597Y-44239D01*
X56643Y-44239D01*
X56643Y-44535D01*
X55597Y-44535D01*
X55557Y-44575D01*
X55557Y-44650D01*
X55557Y-44714D01*
X55581Y-44773D01*
X55626Y-44818D01*
X55685Y-44842D01*
X56603Y-44842D01*
X56643Y-44802D01*
X56643Y-49860D01*
X55319Y-49860D01*
X55319Y-44823D01*
X55319Y-44776D01*
X55319Y-44376D01*
X55319Y-43923D01*
X55319Y-43876D01*
X55319Y-43476D01*
X55301Y-43432D01*
X55267Y-43398D01*
X55223Y-43380D01*
X55176Y-43380D01*
X54376Y-43380D01*
X54332Y-43398D01*
X54298Y-43432D01*
X54280Y-43476D01*
X54280Y-43523D01*
X54280Y-43923D01*
X54298Y-43967D01*
X54332Y-44001D01*
X54376Y-44019D01*
X54423Y-44019D01*
X55223Y-44019D01*
X55267Y-44001D01*
X55301Y-43967D01*
X55319Y-43923D01*
X55319Y-44376D01*
X55301Y-44332D01*
X55267Y-44298D01*
X55223Y-44280D01*
X55176Y-44280D01*
X54376Y-44280D01*
X54368Y-44283D01*
X54331Y-44283D01*
X54223Y-44176D01*
X54121Y-44107D01*
X54000Y-44083D01*
X53878Y-44107D01*
X53776Y-44176D01*
X53707Y-44278D01*
X53683Y-44400D01*
X53707Y-44521D01*
X53776Y-44623D01*
X53976Y-44823D01*
X53976Y-44823D01*
X54078Y-44892D01*
X54200Y-44916D01*
X54368Y-44916D01*
X54376Y-44919D01*
X54423Y-44919D01*
X55223Y-44919D01*
X55267Y-44901D01*
X55301Y-44867D01*
X55319Y-44823D01*
X55319Y-49860D01*
X53966Y-49860D01*
X53966Y-47650D01*
X53942Y-47528D01*
X53873Y-47426D01*
X53771Y-47357D01*
X53650Y-47333D01*
X53200Y-47333D01*
X53078Y-47357D01*
X52976Y-47426D01*
X52907Y-47528D01*
X52883Y-47650D01*
X52883Y-47880D01*
X52726Y-47880D01*
X52682Y-47898D01*
X52648Y-47932D01*
X52630Y-47976D01*
X52630Y-48023D01*
X52630Y-48515D01*
X52489Y-48656D01*
X52416Y-48656D01*
X52386Y-48626D01*
X52341Y-48608D01*
X52294Y-48608D01*
X52058Y-48608D01*
X52013Y-48626D01*
X51983Y-48656D01*
X51866Y-48656D01*
X51836Y-48626D01*
X51791Y-48608D01*
X51744Y-48608D01*
X51660Y-48608D01*
X51676Y-48591D01*
X51791Y-48591D01*
X51836Y-48573D01*
X51869Y-48539D01*
X51887Y-48495D01*
X51887Y-48448D01*
X51887Y-48306D01*
X51962Y-48380D01*
X51962Y-48495D01*
X51980Y-48539D01*
X52013Y-48573D01*
X52058Y-48591D01*
X52105Y-48591D01*
X52341Y-48591D01*
X52386Y-48573D01*
X52419Y-48539D01*
X52437Y-48495D01*
X52437Y-48448D01*
X52437Y-48380D01*
X52477Y-48340D01*
X52516Y-48282D01*
X52516Y-48282D01*
X52529Y-48213D01*
X52529Y-47300D01*
X52516Y-47231D01*
X52477Y-47172D01*
X52332Y-47028D01*
X52332Y-46945D01*
X52315Y-46904D01*
X52962Y-46904D01*
X52962Y-46904D01*
X53083Y-46880D01*
X53174Y-46819D01*
X53673Y-46819D01*
X53717Y-46801D01*
X53751Y-46767D01*
X53769Y-46723D01*
X53769Y-46676D01*
X53769Y-45976D01*
X53751Y-45932D01*
X53717Y-45898D01*
X53673Y-45880D01*
X53626Y-45880D01*
X53083Y-45880D01*
X53037Y-45871D01*
X52992Y-45880D01*
X52726Y-45880D01*
X52682Y-45898D01*
X52648Y-45932D01*
X52630Y-45976D01*
X52630Y-46023D01*
X52630Y-46271D01*
X52504Y-46271D01*
X52504Y-45449D01*
X52504Y-45399D01*
X52504Y-45200D01*
X52504Y-45150D01*
X52480Y-45091D01*
X52435Y-45046D01*
X52376Y-45021D01*
X52330Y-45021D01*
X52290Y-45061D01*
X52290Y-45240D01*
X52464Y-45240D01*
X52504Y-45200D01*
X52504Y-45399D01*
X52464Y-45359D01*
X52290Y-45359D01*
X52290Y-45538D01*
X52330Y-45578D01*
X52376Y-45578D01*
X52435Y-45553D01*
X52480Y-45508D01*
X52504Y-45449D01*
X52504Y-46271D01*
X52359Y-46271D01*
X52372Y-46237D01*
X52372Y-46186D01*
X52372Y-45988D01*
X52372Y-45937D01*
X52348Y-45879D01*
X52303Y-45834D01*
X52244Y-45809D01*
X52181Y-45809D01*
X52115Y-45809D01*
X52075Y-45849D01*
X52075Y-46028D01*
X52332Y-46028D01*
X52372Y-45988D01*
X52372Y-46186D01*
X52332Y-46146D01*
X52075Y-46146D01*
X52075Y-46205D01*
X51799Y-46205D01*
X51799Y-46146D01*
X51772Y-46146D01*
X51772Y-46028D01*
X51799Y-46028D01*
X51799Y-45849D01*
X51759Y-45809D01*
X51693Y-45809D01*
X51630Y-45809D01*
X51571Y-45834D01*
X51526Y-45879D01*
X51504Y-45930D01*
X51501Y-45930D01*
X51501Y-45937D01*
X51501Y-45946D01*
X51462Y-45930D01*
X51414Y-45930D01*
X51386Y-45930D01*
X51390Y-45927D01*
X51780Y-45537D01*
X51895Y-45537D01*
X51939Y-45519D01*
X51973Y-45486D01*
X51978Y-45474D01*
X51992Y-45508D01*
X52037Y-45553D01*
X52096Y-45578D01*
X52142Y-45578D01*
X52182Y-45538D01*
X52182Y-45359D01*
X52127Y-45359D01*
X52127Y-45240D01*
X52182Y-45240D01*
X52182Y-45061D01*
X52142Y-45021D01*
X52125Y-45021D01*
X52192Y-44921D01*
X52216Y-44800D01*
X52192Y-44678D01*
X52123Y-44576D01*
X52069Y-44539D01*
X52623Y-44539D01*
X52667Y-44521D01*
X52701Y-44487D01*
X52719Y-44443D01*
X52719Y-44396D01*
X52719Y-44316D01*
X52900Y-44316D01*
X53021Y-44292D01*
X53123Y-44223D01*
X53192Y-44121D01*
X53216Y-44000D01*
X53192Y-43878D01*
X53123Y-43776D01*
X53021Y-43707D01*
X52900Y-43683D01*
X52719Y-43683D01*
X52719Y-42956D01*
X52701Y-42912D01*
X52667Y-42878D01*
X52623Y-42860D01*
X52576Y-42860D01*
X52269Y-42860D01*
X52269Y-42446D01*
X52228Y-42347D01*
X52153Y-42271D01*
X52053Y-42230D01*
X51946Y-42230D01*
X51847Y-42271D01*
X51771Y-42346D01*
X51749Y-42398D01*
X51728Y-42347D01*
X51653Y-42271D01*
X51553Y-42230D01*
X51446Y-42230D01*
X51347Y-42271D01*
X51271Y-42346D01*
X51249Y-42398D01*
X51228Y-42347D01*
X51153Y-42271D01*
X51053Y-42230D01*
X50946Y-42230D01*
X50847Y-42271D01*
X50771Y-42346D01*
X50749Y-42398D01*
X50728Y-42347D01*
X50653Y-42271D01*
X50553Y-42230D01*
X50446Y-42230D01*
X50347Y-42271D01*
X50271Y-42346D01*
X50249Y-42398D01*
X50228Y-42347D01*
X50153Y-42271D01*
X50053Y-42230D01*
X49946Y-42230D01*
X49847Y-42271D01*
X49771Y-42346D01*
X49749Y-42398D01*
X49728Y-42347D01*
X49653Y-42271D01*
X49553Y-42230D01*
X49446Y-42230D01*
X49347Y-42271D01*
X49271Y-42346D01*
X49249Y-42398D01*
X49228Y-42347D01*
X49153Y-42271D01*
X49053Y-42230D01*
X48946Y-42230D01*
X48847Y-42271D01*
X48771Y-42346D01*
X48749Y-42398D01*
X48728Y-42347D01*
X48653Y-42271D01*
X48553Y-42230D01*
X48446Y-42230D01*
X48347Y-42271D01*
X48271Y-42346D01*
X48230Y-42446D01*
X48230Y-42553D01*
X48271Y-42652D01*
X48346Y-42728D01*
X48446Y-42769D01*
X48553Y-42769D01*
X48652Y-42728D01*
X48728Y-42653D01*
X48750Y-42601D01*
X48771Y-42652D01*
X48846Y-42728D01*
X48946Y-42769D01*
X49053Y-42769D01*
X49152Y-42728D01*
X49228Y-42653D01*
X49250Y-42601D01*
X49271Y-42652D01*
X49346Y-42728D01*
X49446Y-42769D01*
X49553Y-42769D01*
X49652Y-42728D01*
X49728Y-42653D01*
X49750Y-42601D01*
X49771Y-42652D01*
X49846Y-42728D01*
X49946Y-42769D01*
X50053Y-42769D01*
X50152Y-42728D01*
X50228Y-42653D01*
X50250Y-42601D01*
X50271Y-42652D01*
X50346Y-42728D01*
X50446Y-42769D01*
X50553Y-42769D01*
X50652Y-42728D01*
X50728Y-42653D01*
X50750Y-42601D01*
X50771Y-42652D01*
X50846Y-42728D01*
X50946Y-42769D01*
X51053Y-42769D01*
X51152Y-42728D01*
X51228Y-42653D01*
X51250Y-42601D01*
X51271Y-42652D01*
X51346Y-42728D01*
X51446Y-42769D01*
X51553Y-42769D01*
X51652Y-42728D01*
X51728Y-42653D01*
X51750Y-42601D01*
X51771Y-42652D01*
X51846Y-42728D01*
X51946Y-42769D01*
X52053Y-42769D01*
X52152Y-42728D01*
X52228Y-42653D01*
X52269Y-42553D01*
X52269Y-42446D01*
X52269Y-42860D01*
X51776Y-42860D01*
X51732Y-42878D01*
X51698Y-42912D01*
X51680Y-42956D01*
X51680Y-43003D01*
X51680Y-44443D01*
X51696Y-44483D01*
X51269Y-44483D01*
X51269Y-44476D01*
X51251Y-44432D01*
X51217Y-44398D01*
X51173Y-44380D01*
X51126Y-44380D01*
X51110Y-44380D01*
X51326Y-44164D01*
X51441Y-44164D01*
X51486Y-44146D01*
X51519Y-44112D01*
X51537Y-44068D01*
X51537Y-44020D01*
X51537Y-43804D01*
X51519Y-43760D01*
X51486Y-43726D01*
X51441Y-43708D01*
X51394Y-43708D01*
X51310Y-43708D01*
X51326Y-43691D01*
X51441Y-43691D01*
X51486Y-43673D01*
X51519Y-43639D01*
X51537Y-43595D01*
X51537Y-43548D01*
X51537Y-43331D01*
X51519Y-43287D01*
X51486Y-43253D01*
X51441Y-43235D01*
X51394Y-43235D01*
X51158Y-43235D01*
X51113Y-43253D01*
X51080Y-43287D01*
X51062Y-43331D01*
X51062Y-43379D01*
X51062Y-43447D01*
X51037Y-43471D01*
X51037Y-43331D01*
X51019Y-43287D01*
X50986Y-43253D01*
X50941Y-43235D01*
X50894Y-43235D01*
X50658Y-43235D01*
X50613Y-43253D01*
X50583Y-43283D01*
X50503Y-43283D01*
X50499Y-43265D01*
X50499Y-43146D01*
X50481Y-43102D01*
X50447Y-43068D01*
X50403Y-43050D01*
X50356Y-43050D01*
X50284Y-43050D01*
X50200Y-43033D01*
X49909Y-43033D01*
X49871Y-43007D01*
X49750Y-42983D01*
X49628Y-43007D01*
X49526Y-43076D01*
X49457Y-43178D01*
X49433Y-43300D01*
X49451Y-43393D01*
X49400Y-43383D01*
X49315Y-43400D01*
X49196Y-43400D01*
X49152Y-43418D01*
X49118Y-43452D01*
X49100Y-43496D01*
X49100Y-43543D01*
X49100Y-43615D01*
X49083Y-43700D01*
X49083Y-44700D01*
X49107Y-44821D01*
X49176Y-44923D01*
X49330Y-45078D01*
X49330Y-45121D01*
X48976Y-45476D01*
X48928Y-45546D01*
X48902Y-45481D01*
X48768Y-45348D01*
X48679Y-45311D01*
X48679Y-45200D01*
X48666Y-45131D01*
X48627Y-45072D01*
X47969Y-44415D01*
X47969Y-44346D01*
X47928Y-44247D01*
X47853Y-44171D01*
X47753Y-44130D01*
X47646Y-44130D01*
X47547Y-44171D01*
X47471Y-44246D01*
X47430Y-44346D01*
X47430Y-44453D01*
X47471Y-44552D01*
X47546Y-44628D01*
X47646Y-44669D01*
X47715Y-44669D01*
X48320Y-45274D01*
X48320Y-45311D01*
X48231Y-45347D01*
X48098Y-45481D01*
X48025Y-45655D01*
X48025Y-45843D01*
X48097Y-46018D01*
X48231Y-46151D01*
X48405Y-46224D01*
X48593Y-46224D01*
X48768Y-46152D01*
X48883Y-46037D01*
X48883Y-46462D01*
X48768Y-46348D01*
X48594Y-46275D01*
X48406Y-46275D01*
X48231Y-46347D01*
X48098Y-46481D01*
X48025Y-46655D01*
X48025Y-46843D01*
X48097Y-47018D01*
X48231Y-47151D01*
X48405Y-47224D01*
X48593Y-47224D01*
X48730Y-47168D01*
X48730Y-47203D01*
X48771Y-47302D01*
X48846Y-47378D01*
X48946Y-47419D01*
X49053Y-47419D01*
X49152Y-47378D01*
X49228Y-47303D01*
X49269Y-47203D01*
X49269Y-47134D01*
X49414Y-46989D01*
X49442Y-46948D01*
X49442Y-46993D01*
X49442Y-47229D01*
X49460Y-47273D01*
X49493Y-47307D01*
X49538Y-47325D01*
X49585Y-47325D01*
X50136Y-47325D01*
X50180Y-47307D01*
X50214Y-47273D01*
X50216Y-47268D01*
X50216Y-47406D01*
X50214Y-47401D01*
X50180Y-47368D01*
X50136Y-47349D01*
X50089Y-47349D01*
X49538Y-47349D01*
X49493Y-47368D01*
X49460Y-47401D01*
X49442Y-47445D01*
X49442Y-47493D01*
X49442Y-47729D01*
X49460Y-47773D01*
X49493Y-47807D01*
X49538Y-47825D01*
X49585Y-47825D01*
X49657Y-47825D01*
X49657Y-47901D01*
X49423Y-48135D01*
X49308Y-48135D01*
X49263Y-48153D01*
X49230Y-48187D01*
X49212Y-48231D01*
X49212Y-48279D01*
X49212Y-48495D01*
X49230Y-48539D01*
X49263Y-48573D01*
X49308Y-48591D01*
X49355Y-48591D01*
X49591Y-48591D01*
X49636Y-48573D01*
X49669Y-48539D01*
X49687Y-48495D01*
X49687Y-48448D01*
X49687Y-48380D01*
X49762Y-48306D01*
X49762Y-48495D01*
X49780Y-48539D01*
X49813Y-48573D01*
X49858Y-48591D01*
X49905Y-48591D01*
X49973Y-48591D01*
X49989Y-48608D01*
X49858Y-48608D01*
X49813Y-48626D01*
X49783Y-48656D01*
X49666Y-48656D01*
X49636Y-48626D01*
X49591Y-48608D01*
X49544Y-48608D01*
X49308Y-48608D01*
X49263Y-48626D01*
X49260Y-48629D01*
X49203Y-48571D01*
X49103Y-48530D01*
X48996Y-48530D01*
X48897Y-48571D01*
X48821Y-48646D01*
X48780Y-48746D01*
X48780Y-48853D01*
X48821Y-48952D01*
X48896Y-49028D01*
X48996Y-49069D01*
X49103Y-49069D01*
X49202Y-49028D01*
X49215Y-49016D01*
X49233Y-49016D01*
X49263Y-49046D01*
X49308Y-49064D01*
X49355Y-49064D01*
X49591Y-49064D01*
X49636Y-49046D01*
X49666Y-49016D01*
X49783Y-49016D01*
X49813Y-49046D01*
X49858Y-49064D01*
X49905Y-49064D01*
X50141Y-49064D01*
X50186Y-49046D01*
X50219Y-49012D01*
X50237Y-48968D01*
X50237Y-48920D01*
X50237Y-48779D01*
X50239Y-48779D01*
X50312Y-48852D01*
X50312Y-48968D01*
X50330Y-49012D01*
X50363Y-49046D01*
X50408Y-49064D01*
X50455Y-49064D01*
X50691Y-49064D01*
X50736Y-49046D01*
X50769Y-49012D01*
X50787Y-48968D01*
X50787Y-48920D01*
X50787Y-48704D01*
X50769Y-48660D01*
X50736Y-48626D01*
X50691Y-48608D01*
X50644Y-48608D01*
X50576Y-48608D01*
X50560Y-48591D01*
X50691Y-48591D01*
X50736Y-48573D01*
X50769Y-48539D01*
X50787Y-48495D01*
X50787Y-48448D01*
X50787Y-48319D01*
X50853Y-48319D01*
X50862Y-48316D01*
X50862Y-48495D01*
X50880Y-48539D01*
X50913Y-48573D01*
X50958Y-48591D01*
X51005Y-48591D01*
X51089Y-48591D01*
X51073Y-48608D01*
X50958Y-48608D01*
X50913Y-48626D01*
X50880Y-48660D01*
X50862Y-48704D01*
X50862Y-48751D01*
X50862Y-48968D01*
X50880Y-49012D01*
X50913Y-49046D01*
X50958Y-49064D01*
X51005Y-49064D01*
X51241Y-49064D01*
X51286Y-49046D01*
X51319Y-49012D01*
X51337Y-48968D01*
X51337Y-48920D01*
X51337Y-48913D01*
X51343Y-48905D01*
X51357Y-48836D01*
X51356Y-48833D01*
X51410Y-48779D01*
X51412Y-48779D01*
X51412Y-48968D01*
X51430Y-49012D01*
X51463Y-49046D01*
X51508Y-49064D01*
X51555Y-49064D01*
X51791Y-49064D01*
X51836Y-49046D01*
X51866Y-49016D01*
X51983Y-49016D01*
X52013Y-49046D01*
X52058Y-49064D01*
X52105Y-49064D01*
X52341Y-49064D01*
X52386Y-49046D01*
X52416Y-49016D01*
X52563Y-49016D01*
X52632Y-49002D01*
X52690Y-48963D01*
X52834Y-48819D01*
X53673Y-48819D01*
X53717Y-48801D01*
X53751Y-48767D01*
X53769Y-48723D01*
X53769Y-48676D01*
X53769Y-47976D01*
X53757Y-47945D01*
X53771Y-47942D01*
X53873Y-47873D01*
X53942Y-47771D01*
X53966Y-47650D01*
X53966Y-49860D01*
X52269Y-49860D01*
X52269Y-49446D01*
X52228Y-49347D01*
X52153Y-49271D01*
X52053Y-49230D01*
X51946Y-49230D01*
X51847Y-49271D01*
X51771Y-49346D01*
X51749Y-49398D01*
X51728Y-49347D01*
X51653Y-49271D01*
X51553Y-49230D01*
X51446Y-49230D01*
X51347Y-49271D01*
X51271Y-49346D01*
X51249Y-49398D01*
X51228Y-49347D01*
X51153Y-49271D01*
X51053Y-49230D01*
X50946Y-49230D01*
X50847Y-49271D01*
X50771Y-49346D01*
X50749Y-49398D01*
X50728Y-49347D01*
X50653Y-49271D01*
X50553Y-49230D01*
X50446Y-49230D01*
X50347Y-49271D01*
X50271Y-49346D01*
X50249Y-49398D01*
X50228Y-49347D01*
X50153Y-49271D01*
X50053Y-49230D01*
X49946Y-49230D01*
X49847Y-49271D01*
X49771Y-49346D01*
X49749Y-49398D01*
X49728Y-49347D01*
X49653Y-49271D01*
X49553Y-49230D01*
X49446Y-49230D01*
X49347Y-49271D01*
X49271Y-49346D01*
X49249Y-49398D01*
X49228Y-49347D01*
X49153Y-49271D01*
X49053Y-49230D01*
X48946Y-49230D01*
X48847Y-49271D01*
X48771Y-49346D01*
X48749Y-49398D01*
X48728Y-49347D01*
X48653Y-49271D01*
X48553Y-49230D01*
X48446Y-49230D01*
X48347Y-49271D01*
X48271Y-49346D01*
X48230Y-49446D01*
X48230Y-49553D01*
X48271Y-49652D01*
X48346Y-49728D01*
X48446Y-49769D01*
X48553Y-49769D01*
X48652Y-49728D01*
X48728Y-49653D01*
X48750Y-49601D01*
X48771Y-49652D01*
X48846Y-49728D01*
X48946Y-49769D01*
X49053Y-49769D01*
X49152Y-49728D01*
X49228Y-49653D01*
X49250Y-49601D01*
X49271Y-49652D01*
X49346Y-49728D01*
X49446Y-49769D01*
X49553Y-49769D01*
X49652Y-49728D01*
X49728Y-49653D01*
X49750Y-49601D01*
X49771Y-49652D01*
X49846Y-49728D01*
X49946Y-49769D01*
X50053Y-49769D01*
X50152Y-49728D01*
X50228Y-49653D01*
X50250Y-49601D01*
X50271Y-49652D01*
X50346Y-49728D01*
X50446Y-49769D01*
X50553Y-49769D01*
X50652Y-49728D01*
X50728Y-49653D01*
X50750Y-49601D01*
X50771Y-49652D01*
X50846Y-49728D01*
X50946Y-49769D01*
X51053Y-49769D01*
X51152Y-49728D01*
X51228Y-49653D01*
X51250Y-49601D01*
X51271Y-49652D01*
X51346Y-49728D01*
X51446Y-49769D01*
X51553Y-49769D01*
X51652Y-49728D01*
X51728Y-49653D01*
X51750Y-49601D01*
X51771Y-49652D01*
X51846Y-49728D01*
X51946Y-49769D01*
X52053Y-49769D01*
X52152Y-49728D01*
X52228Y-49653D01*
X52269Y-49553D01*
X52269Y-49446D01*
X52269Y-49860D01*
X47974Y-49860D01*
X47974Y-46156D01*
X47974Y-45156D01*
X47902Y-44981D01*
X47768Y-44848D01*
X47594Y-44775D01*
X47406Y-44775D01*
X47231Y-44847D01*
X47098Y-44981D01*
X47025Y-45155D01*
X47025Y-45343D01*
X47097Y-45518D01*
X47231Y-45651D01*
X47405Y-45724D01*
X47593Y-45724D01*
X47768Y-45652D01*
X47901Y-45518D01*
X47974Y-45344D01*
X47974Y-45156D01*
X47974Y-46156D01*
X47902Y-45981D01*
X47768Y-45848D01*
X47594Y-45775D01*
X47406Y-45775D01*
X47231Y-45847D01*
X47098Y-45981D01*
X47025Y-46155D01*
X47025Y-46343D01*
X47097Y-46518D01*
X47231Y-46651D01*
X47405Y-46724D01*
X47593Y-46724D01*
X47768Y-46652D01*
X47901Y-46518D01*
X47974Y-46344D01*
X47974Y-46156D01*
X47974Y-49860D01*
X47614Y-49860D01*
X47598Y-49781D01*
X47577Y-49731D01*
X47577Y-49731D01*
X47469Y-49568D01*
X47469Y-49568D01*
X47431Y-49530D01*
X47431Y-49530D01*
X47268Y-49422D01*
X47218Y-49401D01*
X47027Y-49363D01*
X47027Y-49363D01*
X46972Y-49363D01*
X46972Y-49363D01*
X46781Y-49401D01*
X46731Y-49422D01*
X46568Y-49530D01*
X46568Y-49530D01*
X46530Y-49568D01*
X46530Y-49568D01*
X46422Y-49731D01*
X46401Y-49781D01*
X46385Y-49860D01*
X45769Y-49860D01*
X45769Y-49446D01*
X45769Y-42446D01*
X45728Y-42347D01*
X45653Y-42271D01*
X45553Y-42230D01*
X45446Y-42230D01*
X45347Y-42271D01*
X45271Y-42346D01*
X45249Y-42398D01*
X45228Y-42347D01*
X45153Y-42271D01*
X45053Y-42230D01*
X44946Y-42230D01*
X44847Y-42271D01*
X44771Y-42346D01*
X44730Y-42446D01*
X44730Y-42553D01*
X44771Y-42652D01*
X44846Y-42728D01*
X44946Y-42769D01*
X45053Y-42769D01*
X45152Y-42728D01*
X45228Y-42653D01*
X45250Y-42601D01*
X45271Y-42652D01*
X45346Y-42728D01*
X45446Y-42769D01*
X45553Y-42769D01*
X45652Y-42728D01*
X45728Y-42653D01*
X45769Y-42553D01*
X45769Y-42446D01*
X45769Y-49446D01*
X45749Y-49398D01*
X45749Y-47851D01*
X45749Y-43851D01*
X45636Y-43575D01*
X45425Y-43364D01*
X45149Y-43250D01*
X44851Y-43250D01*
X44769Y-43283D01*
X44769Y-42946D01*
X44728Y-42847D01*
X44653Y-42771D01*
X44553Y-42730D01*
X44446Y-42730D01*
X44347Y-42771D01*
X44271Y-42846D01*
X44230Y-42946D01*
X44230Y-43053D01*
X44271Y-43152D01*
X44346Y-43228D01*
X44446Y-43269D01*
X44553Y-43269D01*
X44652Y-43228D01*
X44728Y-43153D01*
X44769Y-43053D01*
X44769Y-42946D01*
X44769Y-43283D01*
X44575Y-43363D01*
X44364Y-43574D01*
X44250Y-43850D01*
X44250Y-44148D01*
X44363Y-44424D01*
X44574Y-44635D01*
X44850Y-44749D01*
X45148Y-44749D01*
X45424Y-44636D01*
X45635Y-44425D01*
X45749Y-44149D01*
X45749Y-43851D01*
X45749Y-47851D01*
X45636Y-47575D01*
X45425Y-47364D01*
X45149Y-47250D01*
X44851Y-47250D01*
X44769Y-47283D01*
X44769Y-46946D01*
X44728Y-46847D01*
X44653Y-46771D01*
X44601Y-46749D01*
X44652Y-46728D01*
X44728Y-46653D01*
X44769Y-46553D01*
X44769Y-46446D01*
X44728Y-46347D01*
X44653Y-46271D01*
X44601Y-46249D01*
X44652Y-46228D01*
X44728Y-46153D01*
X44769Y-46053D01*
X44769Y-45946D01*
X44728Y-45847D01*
X44653Y-45771D01*
X44601Y-45749D01*
X44652Y-45728D01*
X44728Y-45653D01*
X44769Y-45553D01*
X44769Y-45446D01*
X44728Y-45347D01*
X44653Y-45271D01*
X44601Y-45249D01*
X44652Y-45228D01*
X44728Y-45153D01*
X44769Y-45053D01*
X44769Y-44946D01*
X44728Y-44847D01*
X44653Y-44771D01*
X44553Y-44730D01*
X44446Y-44730D01*
X44347Y-44771D01*
X44271Y-44846D01*
X44230Y-44946D01*
X44230Y-45053D01*
X44271Y-45152D01*
X44346Y-45228D01*
X44398Y-45250D01*
X44347Y-45271D01*
X44271Y-45346D01*
X44230Y-45446D01*
X44230Y-45553D01*
X44271Y-45652D01*
X44346Y-45728D01*
X44398Y-45750D01*
X44347Y-45771D01*
X44271Y-45846D01*
X44230Y-45946D01*
X44230Y-46053D01*
X44271Y-46152D01*
X44346Y-46228D01*
X44398Y-46250D01*
X44347Y-46271D01*
X44271Y-46346D01*
X44230Y-46446D01*
X44230Y-46553D01*
X44271Y-46652D01*
X44346Y-46728D01*
X44398Y-46750D01*
X44347Y-46771D01*
X44271Y-46846D01*
X44230Y-46946D01*
X44230Y-47053D01*
X44271Y-47152D01*
X44346Y-47228D01*
X44446Y-47269D01*
X44553Y-47269D01*
X44652Y-47228D01*
X44728Y-47153D01*
X44769Y-47053D01*
X44769Y-46946D01*
X44769Y-47283D01*
X44575Y-47363D01*
X44364Y-47574D01*
X44250Y-47850D01*
X44250Y-48148D01*
X44363Y-48424D01*
X44574Y-48635D01*
X44850Y-48749D01*
X45148Y-48749D01*
X45424Y-48636D01*
X45635Y-48425D01*
X45749Y-48149D01*
X45749Y-47851D01*
X45749Y-49398D01*
X45728Y-49347D01*
X45653Y-49271D01*
X45553Y-49230D01*
X45446Y-49230D01*
X45347Y-49271D01*
X45271Y-49346D01*
X45249Y-49398D01*
X45228Y-49347D01*
X45153Y-49271D01*
X45053Y-49230D01*
X44946Y-49230D01*
X44847Y-49271D01*
X44771Y-49346D01*
X44769Y-49350D01*
X44769Y-48946D01*
X44728Y-48847D01*
X44653Y-48771D01*
X44553Y-48730D01*
X44446Y-48730D01*
X44347Y-48771D01*
X44271Y-48846D01*
X44230Y-48946D01*
X44230Y-49053D01*
X44271Y-49152D01*
X44346Y-49228D01*
X44446Y-49269D01*
X44553Y-49269D01*
X44652Y-49228D01*
X44728Y-49153D01*
X44769Y-49053D01*
X44769Y-48946D01*
X44769Y-49350D01*
X44730Y-49446D01*
X44730Y-49553D01*
X44771Y-49652D01*
X44846Y-49728D01*
X44946Y-49769D01*
X45053Y-49769D01*
X45152Y-49728D01*
X45228Y-49653D01*
X45250Y-49601D01*
X45271Y-49652D01*
X45346Y-49728D01*
X45446Y-49769D01*
X45553Y-49769D01*
X45652Y-49728D01*
X45728Y-49653D01*
X45769Y-49553D01*
X45769Y-49446D01*
X45769Y-49860D01*
X45013Y-49860D01*
X44671Y-49792D01*
X44393Y-49606D01*
X44207Y-49328D01*
X44139Y-48986D01*
X44139Y-43013D01*
X44207Y-42671D01*
X44393Y-42393D01*
X44671Y-42207D01*
X45013Y-42139D01*
X46385Y-42139D01*
X46401Y-42218D01*
X46422Y-42268D01*
X46530Y-42431D01*
X46530Y-42431D01*
X46568Y-42469D01*
X46568Y-42469D01*
X46731Y-42577D01*
X46731Y-42577D01*
X46781Y-42598D01*
X46972Y-42636D01*
X46972Y-42636D01*
X47027Y-42636D01*
X47027Y-42636D01*
X47218Y-42598D01*
X47268Y-42577D01*
X47431Y-42469D01*
X47431Y-42469D01*
X47469Y-42431D01*
X47469Y-42431D01*
X47577Y-42268D01*
X47577Y-42268D01*
X47598Y-42218D01*
X47614Y-42139D01*
X56380Y-42139D01*
X56380Y-42397D01*
X55693Y-42397D01*
X55649Y-42415D01*
X55615Y-42449D01*
X55597Y-42493D01*
X55597Y-42495D01*
X55261Y-42495D01*
X55223Y-42480D01*
X55176Y-42480D01*
X54376Y-42480D01*
X54332Y-42498D01*
X54298Y-42532D01*
X54280Y-42576D01*
X54280Y-42623D01*
X54280Y-43023D01*
X54298Y-43067D01*
X54332Y-43101D01*
X54376Y-43119D01*
X54423Y-43119D01*
X54765Y-43119D01*
X54812Y-43129D01*
X55597Y-43129D01*
X55597Y-43131D01*
X55615Y-43175D01*
X55649Y-43209D01*
X55693Y-43227D01*
X55741Y-43227D01*
X56380Y-43227D01*
X56380Y-43619D01*
X58950Y-43619D01*
X59513Y-44183D01*
X59311Y-44183D01*
X58795Y-44183D01*
X58750Y-44201D01*
X58717Y-44235D01*
X58699Y-44279D01*
X58699Y-44326D01*
X58699Y-44720D01*
X58717Y-44764D01*
X58750Y-44798D01*
X58795Y-44816D01*
X58842Y-44816D01*
X58994Y-44816D01*
X58994Y-45044D01*
X58983Y-45100D01*
X58983Y-45550D01*
X58983Y-45600D01*
X59007Y-45721D01*
X59076Y-45823D01*
X59178Y-45892D01*
X59300Y-45916D01*
X59750Y-45916D01*
X59871Y-45892D01*
X59880Y-45886D01*
X59880Y-46163D01*
X59871Y-46157D01*
X59750Y-46133D01*
X59300Y-46133D01*
X59178Y-46157D01*
X59076Y-46226D01*
X59007Y-46328D01*
X58983Y-46450D01*
X58983Y-46900D01*
X58983Y-47183D01*
X58795Y-47183D01*
X58750Y-47201D01*
X58717Y-47235D01*
X58699Y-47279D01*
X58699Y-47326D01*
X58699Y-47720D01*
X58717Y-47764D01*
X58750Y-47798D01*
X58795Y-47816D01*
X58842Y-47816D01*
X59826Y-47816D01*
X59871Y-47798D01*
X59880Y-47789D01*
X59880Y-48119D01*
X62860Y-48119D01*
X62860Y-48986D01*
X62860Y-48986D01*
G37*
G54D30*
X62860Y-48986D02*
X62792Y-49328D01*
X62769Y-49361D01*
X62769Y-48946D01*
X62728Y-48847D01*
X62653Y-48771D01*
X62553Y-48730D01*
X62446Y-48730D01*
X62347Y-48771D01*
X62271Y-48846D01*
X62230Y-48946D01*
X62230Y-49053D01*
X62271Y-49152D01*
X62346Y-49228D01*
X62446Y-49269D01*
X62553Y-49269D01*
X62652Y-49228D01*
X62728Y-49153D01*
X62769Y-49053D01*
X62769Y-48946D01*
X62769Y-49361D01*
X62606Y-49606D01*
X62328Y-49792D01*
X62269Y-49804D01*
X62269Y-49446D01*
X62228Y-49347D01*
X62153Y-49271D01*
X62053Y-49230D01*
X61946Y-49230D01*
X61847Y-49271D01*
X61771Y-49346D01*
X61749Y-49398D01*
X61728Y-49347D01*
X61653Y-49271D01*
X61553Y-49230D01*
X61446Y-49230D01*
X61347Y-49271D01*
X61271Y-49346D01*
X61230Y-49446D01*
X61230Y-49553D01*
X61271Y-49652D01*
X61346Y-49728D01*
X61446Y-49769D01*
X61553Y-49769D01*
X61652Y-49728D01*
X61728Y-49653D01*
X61750Y-49601D01*
X61771Y-49652D01*
X61846Y-49728D01*
X61946Y-49769D01*
X62053Y-49769D01*
X62152Y-49728D01*
X62228Y-49653D01*
X62269Y-49553D01*
X62269Y-49446D01*
X62269Y-49804D01*
X61986Y-49860D01*
X60614Y-49860D01*
X60598Y-49781D01*
X60577Y-49731D01*
X60577Y-49731D01*
X60469Y-49568D01*
X60469Y-49568D01*
X60431Y-49530D01*
X60431Y-49530D01*
X60268Y-49422D01*
X60218Y-49401D01*
X60027Y-49363D01*
X60027Y-49363D01*
X59972Y-49363D01*
X59972Y-49363D01*
X59781Y-49401D01*
X59731Y-49422D01*
X59568Y-49530D01*
X59568Y-49530D01*
X59530Y-49568D01*
X59530Y-49568D01*
X59422Y-49731D01*
X59401Y-49781D01*
X59385Y-49860D01*
X59269Y-49860D01*
X59269Y-49446D01*
X59228Y-49347D01*
X59153Y-49271D01*
X59053Y-49230D01*
X58946Y-49230D01*
X58847Y-49271D01*
X58771Y-49346D01*
X58730Y-49446D01*
X58730Y-49553D01*
X58771Y-49652D01*
X58846Y-49728D01*
X58946Y-49769D01*
X59053Y-49769D01*
X59152Y-49728D01*
X59228Y-49653D01*
X59269Y-49553D01*
X59269Y-49446D01*
X59269Y-49860D01*
X58042Y-49860D01*
X58042Y-44714D01*
X58042Y-44650D01*
X58042Y-44575D01*
X58042Y-44199D01*
X58042Y-44123D01*
X58042Y-44060D01*
X58018Y-44001D01*
X57973Y-43956D01*
X57914Y-43932D01*
X56996Y-43932D01*
X56956Y-43972D01*
X56956Y-44239D01*
X58002Y-44239D01*
X58042Y-44199D01*
X58042Y-44575D01*
X58002Y-44535D01*
X56956Y-44535D01*
X56956Y-44802D01*
X56996Y-44842D01*
X57914Y-44842D01*
X57973Y-44818D01*
X58018Y-44773D01*
X58042Y-44714D01*
X58042Y-49860D01*
X56643Y-49860D01*
X56643Y-44802D01*
X56643Y-44535D01*
X56643Y-44239D01*
X56643Y-43972D01*
X56603Y-43932D01*
X55685Y-43932D01*
X55626Y-43956D01*
X55581Y-44001D01*
X55557Y-44060D01*
X55557Y-44123D01*
X55557Y-44199D01*
X55597Y-44239D01*
X56643Y-44239D01*
X56643Y-44535D01*
X55597Y-44535D01*
X55557Y-44575D01*
X55557Y-44650D01*
X55557Y-44714D01*
X55581Y-44773D01*
X55626Y-44818D01*
X55685Y-44842D01*
X56603Y-44842D01*
X56643Y-44802D01*
X56643Y-49860D01*
X55319Y-49860D01*
X55319Y-44823D01*
X55319Y-44776D01*
X55319Y-44376D01*
X55319Y-43923D01*
X55319Y-43876D01*
X55319Y-43476D01*
X55301Y-43432D01*
X55267Y-43398D01*
X55223Y-43380D01*
X55176Y-43380D01*
X54376Y-43380D01*
X54332Y-43398D01*
X54298Y-43432D01*
X54280Y-43476D01*
X54280Y-43523D01*
X54280Y-43923D01*
X54298Y-43967D01*
X54332Y-44001D01*
X54376Y-44019D01*
X54423Y-44019D01*
X55223Y-44019D01*
X55267Y-44001D01*
X55301Y-43967D01*
X55319Y-43923D01*
X55319Y-44376D01*
X55301Y-44332D01*
X55267Y-44298D01*
X55223Y-44280D01*
X55176Y-44280D01*
X54376Y-44280D01*
X54368Y-44283D01*
X54331Y-44283D01*
X54223Y-44176D01*
X54121Y-44107D01*
X54000Y-44083D01*
X53878Y-44107D01*
X53776Y-44176D01*
X53707Y-44278D01*
X53683Y-44400D01*
X53707Y-44521D01*
X53776Y-44623D01*
X53976Y-44823D01*
X53976Y-44823D01*
X54078Y-44892D01*
X54200Y-44916D01*
X54368Y-44916D01*
X54376Y-44919D01*
X54423Y-44919D01*
X55223Y-44919D01*
X55267Y-44901D01*
X55301Y-44867D01*
X55319Y-44823D01*
X55319Y-49860D01*
X53966Y-49860D01*
X53966Y-47650D01*
X53942Y-47528D01*
X53873Y-47426D01*
X53771Y-47357D01*
X53650Y-47333D01*
X53200Y-47333D01*
X53078Y-47357D01*
X52976Y-47426D01*
X52907Y-47528D01*
X52883Y-47650D01*
X52883Y-47880D01*
X52726Y-47880D01*
X52682Y-47898D01*
X52648Y-47932D01*
X52630Y-47976D01*
X52630Y-48023D01*
X52630Y-48515D01*
X52489Y-48656D01*
X52416Y-48656D01*
X52386Y-48626D01*
X52341Y-48608D01*
X52294Y-48608D01*
X52058Y-48608D01*
X52013Y-48626D01*
X51983Y-48656D01*
X51866Y-48656D01*
X51836Y-48626D01*
X51791Y-48608D01*
X51744Y-48608D01*
X51660Y-48608D01*
X51676Y-48591D01*
X51791Y-48591D01*
X51836Y-48573D01*
X51869Y-48539D01*
X51887Y-48495D01*
X51887Y-48448D01*
X51887Y-48306D01*
X51962Y-48380D01*
X51962Y-48495D01*
X51980Y-48539D01*
X52013Y-48573D01*
X52058Y-48591D01*
X52105Y-48591D01*
X52341Y-48591D01*
X52386Y-48573D01*
X52419Y-48539D01*
X52437Y-48495D01*
X52437Y-48448D01*
X52437Y-48380D01*
X52477Y-48340D01*
X52516Y-48282D01*
X52516Y-48282D01*
X52529Y-48213D01*
X52529Y-47300D01*
X52516Y-47231D01*
X52477Y-47172D01*
X52332Y-47028D01*
X52332Y-46945D01*
X52315Y-46904D01*
X52962Y-46904D01*
X52962Y-46904D01*
X53083Y-46880D01*
X53174Y-46819D01*
X53673Y-46819D01*
X53717Y-46801D01*
X53751Y-46767D01*
X53769Y-46723D01*
X53769Y-46676D01*
X53769Y-45976D01*
X53751Y-45932D01*
X53717Y-45898D01*
X53673Y-45880D01*
X53626Y-45880D01*
X53083Y-45880D01*
X53037Y-45871D01*
X52992Y-45880D01*
X52726Y-45880D01*
X52682Y-45898D01*
X52648Y-45932D01*
X52630Y-45976D01*
X52630Y-46023D01*
X52630Y-46271D01*
X52504Y-46271D01*
X52504Y-45449D01*
X52504Y-45399D01*
X52504Y-45200D01*
X52504Y-45150D01*
X52480Y-45091D01*
X52435Y-45046D01*
X52376Y-45021D01*
X52330Y-45021D01*
X52290Y-45061D01*
X52290Y-45240D01*
X52464Y-45240D01*
X52504Y-45200D01*
X52504Y-45399D01*
X52464Y-45359D01*
X52290Y-45359D01*
X52290Y-45538D01*
X52330Y-45578D01*
X52376Y-45578D01*
X52435Y-45553D01*
X52480Y-45508D01*
X52504Y-45449D01*
X52504Y-46271D01*
X52359Y-46271D01*
X52372Y-46237D01*
X52372Y-46186D01*
X52372Y-45988D01*
X52372Y-45937D01*
X52348Y-45879D01*
X52303Y-45834D01*
X52244Y-45809D01*
X52181Y-45809D01*
X52115Y-45809D01*
X52075Y-45849D01*
X52075Y-46028D01*
X52332Y-46028D01*
X52372Y-45988D01*
X52372Y-46186D01*
X52332Y-46146D01*
X52075Y-46146D01*
X52075Y-46205D01*
X51799Y-46205D01*
X51799Y-46146D01*
X51772Y-46146D01*
X51772Y-46028D01*
X51799Y-46028D01*
X51799Y-45849D01*
X51759Y-45809D01*
X51693Y-45809D01*
X51630Y-45809D01*
X51571Y-45834D01*
X51526Y-45879D01*
X51504Y-45930D01*
X51501Y-45930D01*
X51501Y-45937D01*
X51501Y-45946D01*
X51462Y-45930D01*
X51414Y-45930D01*
X51386Y-45930D01*
X51390Y-45927D01*
X51780Y-45537D01*
X51895Y-45537D01*
X51939Y-45519D01*
X51973Y-45486D01*
X51978Y-45474D01*
X51992Y-45508D01*
X52037Y-45553D01*
X52096Y-45578D01*
X52142Y-45578D01*
X52182Y-45538D01*
X52182Y-45359D01*
X52127Y-45359D01*
X52127Y-45240D01*
X52182Y-45240D01*
X52182Y-45061D01*
X52142Y-45021D01*
X52125Y-45021D01*
X52192Y-44921D01*
X52216Y-44800D01*
X52192Y-44678D01*
X52123Y-44576D01*
X52069Y-44539D01*
X52623Y-44539D01*
X52667Y-44521D01*
X52701Y-44487D01*
X52719Y-44443D01*
X52719Y-44396D01*
X52719Y-44316D01*
X52900Y-44316D01*
X53021Y-44292D01*
X53123Y-44223D01*
X53192Y-44121D01*
X53216Y-44000D01*
X53192Y-43878D01*
X53123Y-43776D01*
X53021Y-43707D01*
X52900Y-43683D01*
X52719Y-43683D01*
X52719Y-42956D01*
X52701Y-42912D01*
X52667Y-42878D01*
X52623Y-42860D01*
X52576Y-42860D01*
X52269Y-42860D01*
X52269Y-42446D01*
X52228Y-42347D01*
X52153Y-42271D01*
X52053Y-42230D01*
X51946Y-42230D01*
X51847Y-42271D01*
X51771Y-42346D01*
X51749Y-42398D01*
X51728Y-42347D01*
X51653Y-42271D01*
X51553Y-42230D01*
X51446Y-42230D01*
X51347Y-42271D01*
X51271Y-42346D01*
X51249Y-42398D01*
X51228Y-42347D01*
X51153Y-42271D01*
X51053Y-42230D01*
X50946Y-42230D01*
X50847Y-42271D01*
X50771Y-42346D01*
X50749Y-42398D01*
X50728Y-42347D01*
X50653Y-42271D01*
X50553Y-42230D01*
X50446Y-42230D01*
X50347Y-42271D01*
X50271Y-42346D01*
X50249Y-42398D01*
X50228Y-42347D01*
X50153Y-42271D01*
X50053Y-42230D01*
X49946Y-42230D01*
X49847Y-42271D01*
X49771Y-42346D01*
X49749Y-42398D01*
X49728Y-42347D01*
X49653Y-42271D01*
X49553Y-42230D01*
X49446Y-42230D01*
X49347Y-42271D01*
X49271Y-42346D01*
X49249Y-42398D01*
X49228Y-42347D01*
X49153Y-42271D01*
X49053Y-42230D01*
X48946Y-42230D01*
X48847Y-42271D01*
X48771Y-42346D01*
X48749Y-42398D01*
X48728Y-42347D01*
X48653Y-42271D01*
X48553Y-42230D01*
X48446Y-42230D01*
X48347Y-42271D01*
X48271Y-42346D01*
X48230Y-42446D01*
X48230Y-42553D01*
X48271Y-42652D01*
X48346Y-42728D01*
X48446Y-42769D01*
X48553Y-42769D01*
X48652Y-42728D01*
X48728Y-42653D01*
X48750Y-42601D01*
X48771Y-42652D01*
X48846Y-42728D01*
X48946Y-42769D01*
X49053Y-42769D01*
X49152Y-42728D01*
X49228Y-42653D01*
X49250Y-42601D01*
X49271Y-42652D01*
X49346Y-42728D01*
X49446Y-42769D01*
X49553Y-42769D01*
X49652Y-42728D01*
X49728Y-42653D01*
X49750Y-42601D01*
X49771Y-42652D01*
X49846Y-42728D01*
X49946Y-42769D01*
X50053Y-42769D01*
X50152Y-42728D01*
X50228Y-42653D01*
X50250Y-42601D01*
X50271Y-42652D01*
X50346Y-42728D01*
X50446Y-42769D01*
X50553Y-42769D01*
X50652Y-42728D01*
X50728Y-42653D01*
X50750Y-42601D01*
X50771Y-42652D01*
X50846Y-42728D01*
X50946Y-42769D01*
X51053Y-42769D01*
X51152Y-42728D01*
X51228Y-42653D01*
X51250Y-42601D01*
X51271Y-42652D01*
X51346Y-42728D01*
X51446Y-42769D01*
X51553Y-42769D01*
X51652Y-42728D01*
X51728Y-42653D01*
X51750Y-42601D01*
X51771Y-42652D01*
X51846Y-42728D01*
X51946Y-42769D01*
X52053Y-42769D01*
X52152Y-42728D01*
X52228Y-42653D01*
X52269Y-42553D01*
X52269Y-42446D01*
X52269Y-42860D01*
X51776Y-42860D01*
X51732Y-42878D01*
X51698Y-42912D01*
X51680Y-42956D01*
X51680Y-43003D01*
X51680Y-44443D01*
X51696Y-44483D01*
X51269Y-44483D01*
X51269Y-44476D01*
X51251Y-44432D01*
X51217Y-44398D01*
X51173Y-44380D01*
X51126Y-44380D01*
X51110Y-44380D01*
X51326Y-44164D01*
X51441Y-44164D01*
X51486Y-44146D01*
X51519Y-44112D01*
X51537Y-44068D01*
X51537Y-44020D01*
X51537Y-43804D01*
X51519Y-43760D01*
X51486Y-43726D01*
X51441Y-43708D01*
X51394Y-43708D01*
X51310Y-43708D01*
X51326Y-43691D01*
X51441Y-43691D01*
X51486Y-43673D01*
X51519Y-43639D01*
X51537Y-43595D01*
X51537Y-43548D01*
X51537Y-43331D01*
X51519Y-43287D01*
X51486Y-43253D01*
X51441Y-43235D01*
X51394Y-43235D01*
X51158Y-43235D01*
X51113Y-43253D01*
X51080Y-43287D01*
X51062Y-43331D01*
X51062Y-43379D01*
X51062Y-43447D01*
X51037Y-43471D01*
X51037Y-43331D01*
X51019Y-43287D01*
X50986Y-43253D01*
X50941Y-43235D01*
X50894Y-43235D01*
X50658Y-43235D01*
X50613Y-43253D01*
X50583Y-43283D01*
X50503Y-43283D01*
X50499Y-43265D01*
X50499Y-43146D01*
X50481Y-43102D01*
X50447Y-43068D01*
X50403Y-43050D01*
X50356Y-43050D01*
X50284Y-43050D01*
X50200Y-43033D01*
X49909Y-43033D01*
X49871Y-43007D01*
X49750Y-42983D01*
X49628Y-43007D01*
X49526Y-43076D01*
X49457Y-43178D01*
X49433Y-43300D01*
X49451Y-43393D01*
X49400Y-43383D01*
X49315Y-43400D01*
X49196Y-43400D01*
X49152Y-43418D01*
X49118Y-43452D01*
X49100Y-43496D01*
X49100Y-43543D01*
X49100Y-43615D01*
X49083Y-43700D01*
X49083Y-44700D01*
X49107Y-44821D01*
X49176Y-44923D01*
X49330Y-45078D01*
X49330Y-45121D01*
X48976Y-45476D01*
X48928Y-45546D01*
X48902Y-45481D01*
X48768Y-45348D01*
X48679Y-45311D01*
X48679Y-45200D01*
X48666Y-45131D01*
X48627Y-45072D01*
X47969Y-44415D01*
X47969Y-44346D01*
X47928Y-44247D01*
X47853Y-44171D01*
X47753Y-44130D01*
X47646Y-44130D01*
X47547Y-44171D01*
X47471Y-44246D01*
X47430Y-44346D01*
X47430Y-44453D01*
X47471Y-44552D01*
X47546Y-44628D01*
X47646Y-44669D01*
X47715Y-44669D01*
X48320Y-45274D01*
X48320Y-45311D01*
X48231Y-45347D01*
X48098Y-45481D01*
X48025Y-45655D01*
X48025Y-45843D01*
X48097Y-46018D01*
X48231Y-46151D01*
X48405Y-46224D01*
X48593Y-46224D01*
X48768Y-46152D01*
X48883Y-46037D01*
X48883Y-46462D01*
X48768Y-46348D01*
X48594Y-46275D01*
X48406Y-46275D01*
X48231Y-46347D01*
X48098Y-46481D01*
X48025Y-46655D01*
X48025Y-46843D01*
X48097Y-47018D01*
X48231Y-47151D01*
X48405Y-47224D01*
X48593Y-47224D01*
X48730Y-47168D01*
X48730Y-47203D01*
X48771Y-47302D01*
X48846Y-47378D01*
X48946Y-47419D01*
X49053Y-47419D01*
X49152Y-47378D01*
X49228Y-47303D01*
X49269Y-47203D01*
X49269Y-47134D01*
X49414Y-46989D01*
X49442Y-46948D01*
X49442Y-46993D01*
X49442Y-47229D01*
X49460Y-47273D01*
X49493Y-47307D01*
X49538Y-47325D01*
X49585Y-47325D01*
X50136Y-47325D01*
X50180Y-47307D01*
X50214Y-47273D01*
X50216Y-47268D01*
X50216Y-47406D01*
X50214Y-47401D01*
X50180Y-47368D01*
X50136Y-47349D01*
X50089Y-47349D01*
X49538Y-47349D01*
X49493Y-47368D01*
X49460Y-47401D01*
X49442Y-47445D01*
X49442Y-47493D01*
X49442Y-47729D01*
X49460Y-47773D01*
X49493Y-47807D01*
X49538Y-47825D01*
X49585Y-47825D01*
X49657Y-47825D01*
X49657Y-47901D01*
X49423Y-48135D01*
X49308Y-48135D01*
X49263Y-48153D01*
X49230Y-48187D01*
X49212Y-48231D01*
X49212Y-48279D01*
X49212Y-48495D01*
X49230Y-48539D01*
X49263Y-48573D01*
X49308Y-48591D01*
X49355Y-48591D01*
X49591Y-48591D01*
X49636Y-48573D01*
X49669Y-48539D01*
X49687Y-48495D01*
X49687Y-48448D01*
X49687Y-48380D01*
X49762Y-48306D01*
X49762Y-48495D01*
X49780Y-48539D01*
X49813Y-48573D01*
X49858Y-48591D01*
X49905Y-48591D01*
X49973Y-48591D01*
X49989Y-48608D01*
X49858Y-48608D01*
X49813Y-48626D01*
X49783Y-48656D01*
X49666Y-48656D01*
X49636Y-48626D01*
X49591Y-48608D01*
X49544Y-48608D01*
X49308Y-48608D01*
X49263Y-48626D01*
X49260Y-48629D01*
X49203Y-48571D01*
X49103Y-48530D01*
X48996Y-48530D01*
X48897Y-48571D01*
X48821Y-48646D01*
X48780Y-48746D01*
X48780Y-48853D01*
X48821Y-48952D01*
X48896Y-49028D01*
X48996Y-49069D01*
X49103Y-49069D01*
X49202Y-49028D01*
X49215Y-49016D01*
X49233Y-49016D01*
X49263Y-49046D01*
X49308Y-49064D01*
X49355Y-49064D01*
X49591Y-49064D01*
X49636Y-49046D01*
X49666Y-49016D01*
X49783Y-49016D01*
X49813Y-49046D01*
X49858Y-49064D01*
X49905Y-49064D01*
X50141Y-49064D01*
X50186Y-49046D01*
X50219Y-49012D01*
X50237Y-48968D01*
X50237Y-48920D01*
X50237Y-48779D01*
X50239Y-48779D01*
X50312Y-48852D01*
X50312Y-48968D01*
X50330Y-49012D01*
X50363Y-49046D01*
X50408Y-49064D01*
X50455Y-49064D01*
X50691Y-49064D01*
X50736Y-49046D01*
X50769Y-49012D01*
X50787Y-48968D01*
X50787Y-48920D01*
X50787Y-48704D01*
X50769Y-48660D01*
X50736Y-48626D01*
X50691Y-48608D01*
X50644Y-48608D01*
X50576Y-48608D01*
X50560Y-48591D01*
X50691Y-48591D01*
X50736Y-48573D01*
X50769Y-48539D01*
X50787Y-48495D01*
X50787Y-48448D01*
X50787Y-48319D01*
X50853Y-48319D01*
X50862Y-48316D01*
X50862Y-48495D01*
X50880Y-48539D01*
X50913Y-48573D01*
X50958Y-48591D01*
X51005Y-48591D01*
X51089Y-48591D01*
X51073Y-48608D01*
X50958Y-48608D01*
X50913Y-48626D01*
X50880Y-48660D01*
X50862Y-48704D01*
X50862Y-48751D01*
X50862Y-48968D01*
X50880Y-49012D01*
X50913Y-49046D01*
X50958Y-49064D01*
X51005Y-49064D01*
X51241Y-49064D01*
X51286Y-49046D01*
X51319Y-49012D01*
X51337Y-48968D01*
X51337Y-48920D01*
X51337Y-48913D01*
X51343Y-48905D01*
X51357Y-48836D01*
X51356Y-48833D01*
X51410Y-48779D01*
X51412Y-48779D01*
X51412Y-48968D01*
X51430Y-49012D01*
X51463Y-49046D01*
X51508Y-49064D01*
X51555Y-49064D01*
X51791Y-49064D01*
X51836Y-49046D01*
X51866Y-49016D01*
X51983Y-49016D01*
X52013Y-49046D01*
X52058Y-49064D01*
X52105Y-49064D01*
X52341Y-49064D01*
X52386Y-49046D01*
X52416Y-49016D01*
X52563Y-49016D01*
X52632Y-49002D01*
X52690Y-48963D01*
X52834Y-48819D01*
X53673Y-48819D01*
X53717Y-48801D01*
X53751Y-48767D01*
X53769Y-48723D01*
X53769Y-48676D01*
X53769Y-47976D01*
X53757Y-47945D01*
X53771Y-47942D01*
X53873Y-47873D01*
X53942Y-47771D01*
X53966Y-47650D01*
X53966Y-49860D01*
X52269Y-49860D01*
X52269Y-49446D01*
X52228Y-49347D01*
X52153Y-49271D01*
X52053Y-49230D01*
X51946Y-49230D01*
X51847Y-49271D01*
X51771Y-49346D01*
X51749Y-49398D01*
X51728Y-49347D01*
X51653Y-49271D01*
X51553Y-49230D01*
X51446Y-49230D01*
X51347Y-49271D01*
X51271Y-49346D01*
X51249Y-49398D01*
X51228Y-49347D01*
X51153Y-49271D01*
X51053Y-49230D01*
X50946Y-49230D01*
X50847Y-49271D01*
X50771Y-49346D01*
X50749Y-49398D01*
X50728Y-49347D01*
X50653Y-49271D01*
X50553Y-49230D01*
X50446Y-49230D01*
X50347Y-49271D01*
X50271Y-49346D01*
X50249Y-49398D01*
X50228Y-49347D01*
X50153Y-49271D01*
X50053Y-49230D01*
X49946Y-49230D01*
X49847Y-49271D01*
X49771Y-49346D01*
X49749Y-49398D01*
X49728Y-49347D01*
X49653Y-49271D01*
X49553Y-49230D01*
X49446Y-49230D01*
X49347Y-49271D01*
X49271Y-49346D01*
X49249Y-49398D01*
X49228Y-49347D01*
X49153Y-49271D01*
X49053Y-49230D01*
X48946Y-49230D01*
X48847Y-49271D01*
X48771Y-49346D01*
X48749Y-49398D01*
X48728Y-49347D01*
X48653Y-49271D01*
X48553Y-49230D01*
X48446Y-49230D01*
X48347Y-49271D01*
X48271Y-49346D01*
X48230Y-49446D01*
X48230Y-49553D01*
X48271Y-49652D01*
X48346Y-49728D01*
X48446Y-49769D01*
X48553Y-49769D01*
X48652Y-49728D01*
X48728Y-49653D01*
X48750Y-49601D01*
X48771Y-49652D01*
X48846Y-49728D01*
X48946Y-49769D01*
X49053Y-49769D01*
X49152Y-49728D01*
X49228Y-49653D01*
X49250Y-49601D01*
X49271Y-49652D01*
X49346Y-49728D01*
X49446Y-49769D01*
X49553Y-49769D01*
X49652Y-49728D01*
X49728Y-49653D01*
X49750Y-49601D01*
X49771Y-49652D01*
X49846Y-49728D01*
X49946Y-49769D01*
X50053Y-49769D01*
X50152Y-49728D01*
X50228Y-49653D01*
X50250Y-49601D01*
X50271Y-49652D01*
X50346Y-49728D01*
X50446Y-49769D01*
X50553Y-49769D01*
X50652Y-49728D01*
X50728Y-49653D01*
X50750Y-49601D01*
X50771Y-49652D01*
X50846Y-49728D01*
X50946Y-49769D01*
X51053Y-49769D01*
X51152Y-49728D01*
X51228Y-49653D01*
X51250Y-49601D01*
X51271Y-49652D01*
X51346Y-49728D01*
X51446Y-49769D01*
X51553Y-49769D01*
X51652Y-49728D01*
X51728Y-49653D01*
X51750Y-49601D01*
X51771Y-49652D01*
X51846Y-49728D01*
X51946Y-49769D01*
X52053Y-49769D01*
X52152Y-49728D01*
X52228Y-49653D01*
X52269Y-49553D01*
X52269Y-49446D01*
X52269Y-49860D01*
X47974Y-49860D01*
X47974Y-46156D01*
X47974Y-45156D01*
X47902Y-44981D01*
X47768Y-44848D01*
X47594Y-44775D01*
X47406Y-44775D01*
X47231Y-44847D01*
X47098Y-44981D01*
X47025Y-45155D01*
X47025Y-45343D01*
X47097Y-45518D01*
X47231Y-45651D01*
X47405Y-45724D01*
X47593Y-45724D01*
X47768Y-45652D01*
X47901Y-45518D01*
X47974Y-45344D01*
X47974Y-45156D01*
X47974Y-46156D01*
X47902Y-45981D01*
X47768Y-45848D01*
X47594Y-45775D01*
X47406Y-45775D01*
X47231Y-45847D01*
X47098Y-45981D01*
X47025Y-46155D01*
X47025Y-46343D01*
X47097Y-46518D01*
X47231Y-46651D01*
X47405Y-46724D01*
X47593Y-46724D01*
X47768Y-46652D01*
X47901Y-46518D01*
X47974Y-46344D01*
X47974Y-46156D01*
X47974Y-49860D01*
X47614Y-49860D01*
X47598Y-49781D01*
X47577Y-49731D01*
X47577Y-49731D01*
X47469Y-49568D01*
X47469Y-49568D01*
X47431Y-49530D01*
X47431Y-49530D01*
X47268Y-49422D01*
X47218Y-49401D01*
X47027Y-49363D01*
X47027Y-49363D01*
X46972Y-49363D01*
X46972Y-49363D01*
X46781Y-49401D01*
X46731Y-49422D01*
X46568Y-49530D01*
X46568Y-49530D01*
X46530Y-49568D01*
X46530Y-49568D01*
X46422Y-49731D01*
X46401Y-49781D01*
X46385Y-49860D01*
X45769Y-49860D01*
X45769Y-49446D01*
X45769Y-42446D01*
X45728Y-42347D01*
X45653Y-42271D01*
X45553Y-42230D01*
X45446Y-42230D01*
X45347Y-42271D01*
X45271Y-42346D01*
X45249Y-42398D01*
X45228Y-42347D01*
X45153Y-42271D01*
X45053Y-42230D01*
X44946Y-42230D01*
X44847Y-42271D01*
X44771Y-42346D01*
X44730Y-42446D01*
X44730Y-42553D01*
X44771Y-42652D01*
X44846Y-42728D01*
X44946Y-42769D01*
X45053Y-42769D01*
X45152Y-42728D01*
X45228Y-42653D01*
X45250Y-42601D01*
X45271Y-42652D01*
X45346Y-42728D01*
X45446Y-42769D01*
X45553Y-42769D01*
X45652Y-42728D01*
X45728Y-42653D01*
X45769Y-42553D01*
X45769Y-42446D01*
X45769Y-49446D01*
X45749Y-49398D01*
X45749Y-47851D01*
X45749Y-43851D01*
X45636Y-43575D01*
X45425Y-43364D01*
X45149Y-43250D01*
X44851Y-43250D01*
X44769Y-43283D01*
X44769Y-42946D01*
X44728Y-42847D01*
X44653Y-42771D01*
X44553Y-42730D01*
X44446Y-42730D01*
X44347Y-42771D01*
X44271Y-42846D01*
X44230Y-42946D01*
X44230Y-43053D01*
X44271Y-43152D01*
X44346Y-43228D01*
X44446Y-43269D01*
X44553Y-43269D01*
X44652Y-43228D01*
X44728Y-43153D01*
X44769Y-43053D01*
X44769Y-42946D01*
X44769Y-43283D01*
X44575Y-43363D01*
X44364Y-43574D01*
X44250Y-43850D01*
X44250Y-44148D01*
X44363Y-44424D01*
X44574Y-44635D01*
X44850Y-44749D01*
X45148Y-44749D01*
X45424Y-44636D01*
X45635Y-44425D01*
X45749Y-44149D01*
X45749Y-43851D01*
X45749Y-47851D01*
X45636Y-47575D01*
X45425Y-47364D01*
X45149Y-47250D01*
X44851Y-47250D01*
X44769Y-47283D01*
X44769Y-46946D01*
X44728Y-46847D01*
X44653Y-46771D01*
X44601Y-46749D01*
X44652Y-46728D01*
X44728Y-46653D01*
X44769Y-46553D01*
X44769Y-46446D01*
X44728Y-46347D01*
X44653Y-46271D01*
X44601Y-46249D01*
X44652Y-46228D01*
X44728Y-46153D01*
X44769Y-46053D01*
X44769Y-45946D01*
X44728Y-45847D01*
X44653Y-45771D01*
X44601Y-45749D01*
X44652Y-45728D01*
X44728Y-45653D01*
X44769Y-45553D01*
X44769Y-45446D01*
X44728Y-45347D01*
X44653Y-45271D01*
X44601Y-45249D01*
X44652Y-45228D01*
X44728Y-45153D01*
X44769Y-45053D01*
X44769Y-44946D01*
X44728Y-44847D01*
X44653Y-44771D01*
X44553Y-44730D01*
X44446Y-44730D01*
X44347Y-44771D01*
X44271Y-44846D01*
X44230Y-44946D01*
X44230Y-45053D01*
X44271Y-45152D01*
X44346Y-45228D01*
X44398Y-45250D01*
X44347Y-45271D01*
X44271Y-45346D01*
X44230Y-45446D01*
X44230Y-45553D01*
X44271Y-45652D01*
X44346Y-45728D01*
X44398Y-45750D01*
X44347Y-45771D01*
X44271Y-45846D01*
X44230Y-45946D01*
X44230Y-46053D01*
X44271Y-46152D01*
X44346Y-46228D01*
X44398Y-46250D01*
X44347Y-46271D01*
X44271Y-46346D01*
X44230Y-46446D01*
X44230Y-46553D01*
X44271Y-46652D01*
X44346Y-46728D01*
X44398Y-46750D01*
X44347Y-46771D01*
X44271Y-46846D01*
X44230Y-46946D01*
X44230Y-47053D01*
X44271Y-47152D01*
X44346Y-47228D01*
X44446Y-47269D01*
X44553Y-47269D01*
X44652Y-47228D01*
X44728Y-47153D01*
X44769Y-47053D01*
X44769Y-46946D01*
X44769Y-47283D01*
X44575Y-47363D01*
X44364Y-47574D01*
X44250Y-47850D01*
X44250Y-48148D01*
X44363Y-48424D01*
X44574Y-48635D01*
X44850Y-48749D01*
X45148Y-48749D01*
X45424Y-48636D01*
X45635Y-48425D01*
X45749Y-48149D01*
X45749Y-47851D01*
X45749Y-49398D01*
X45728Y-49347D01*
X45653Y-49271D01*
X45553Y-49230D01*
X45446Y-49230D01*
X45347Y-49271D01*
X45271Y-49346D01*
X45249Y-49398D01*
X45228Y-49347D01*
X45153Y-49271D01*
X45053Y-49230D01*
X44946Y-49230D01*
X44847Y-49271D01*
X44771Y-49346D01*
X44769Y-49350D01*
X44769Y-48946D01*
X44728Y-48847D01*
X44653Y-48771D01*
X44553Y-48730D01*
X44446Y-48730D01*
X44347Y-48771D01*
X44271Y-48846D01*
X44230Y-48946D01*
X44230Y-49053D01*
X44271Y-49152D01*
X44346Y-49228D01*
X44446Y-49269D01*
X44553Y-49269D01*
X44652Y-49228D01*
X44728Y-49153D01*
X44769Y-49053D01*
X44769Y-48946D01*
X44769Y-49350D01*
X44730Y-49446D01*
X44730Y-49553D01*
X44771Y-49652D01*
X44846Y-49728D01*
X44946Y-49769D01*
X45053Y-49769D01*
X45152Y-49728D01*
X45228Y-49653D01*
X45250Y-49601D01*
X45271Y-49652D01*
X45346Y-49728D01*
X45446Y-49769D01*
X45553Y-49769D01*
X45652Y-49728D01*
X45728Y-49653D01*
X45769Y-49553D01*
X45769Y-49446D01*
X45769Y-49860D01*
X45013Y-49860D01*
X44671Y-49792D01*
X44393Y-49606D01*
X44207Y-49328D01*
X44139Y-48986D01*
X44139Y-43013D01*
X44207Y-42671D01*
X44393Y-42393D01*
X44671Y-42207D01*
X45013Y-42139D01*
X46385Y-42139D01*
X46401Y-42218D01*
X46422Y-42268D01*
X46530Y-42431D01*
X46530Y-42431D01*
X46568Y-42469D01*
X46568Y-42469D01*
X46731Y-42577D01*
X46731Y-42577D01*
X46781Y-42598D01*
X46972Y-42636D01*
X46972Y-42636D01*
X47027Y-42636D01*
X47027Y-42636D01*
X47218Y-42598D01*
X47268Y-42577D01*
X47431Y-42469D01*
X47431Y-42469D01*
X47469Y-42431D01*
X47469Y-42431D01*
X47577Y-42268D01*
X47577Y-42268D01*
X47598Y-42218D01*
X47614Y-42139D01*
X56380Y-42139D01*
X56380Y-42397D01*
X55693Y-42397D01*
X55649Y-42415D01*
X55615Y-42449D01*
X55597Y-42493D01*
X55597Y-42495D01*
X55261Y-42495D01*
X55223Y-42480D01*
X55176Y-42480D01*
X54376Y-42480D01*
X54332Y-42498D01*
X54298Y-42532D01*
X54280Y-42576D01*
X54280Y-42623D01*
X54280Y-43023D01*
X54298Y-43067D01*
X54332Y-43101D01*
X54376Y-43119D01*
X54423Y-43119D01*
X54765Y-43119D01*
X54812Y-43129D01*
X55597Y-43129D01*
X55597Y-43131D01*
X55615Y-43175D01*
X55649Y-43209D01*
X55693Y-43227D01*
X55741Y-43227D01*
X56380Y-43227D01*
X56380Y-43619D01*
X58950Y-43619D01*
X59513Y-44183D01*
X59311Y-44183D01*
X58795Y-44183D01*
X58750Y-44201D01*
X58717Y-44235D01*
X58699Y-44279D01*
X58699Y-44326D01*
X58699Y-44720D01*
X58717Y-44764D01*
X58750Y-44798D01*
X58795Y-44816D01*
X58842Y-44816D01*
X58994Y-44816D01*
X58994Y-45044D01*
X58983Y-45100D01*
X58983Y-45550D01*
X58983Y-45600D01*
X59007Y-45721D01*
X59076Y-45823D01*
X59178Y-45892D01*
X59300Y-45916D01*
X59750Y-45916D01*
X59871Y-45892D01*
X59880Y-45886D01*
X59880Y-46163D01*
X59871Y-46157D01*
X59750Y-46133D01*
X59300Y-46133D01*
X59178Y-46157D01*
X59076Y-46226D01*
X59007Y-46328D01*
X58983Y-46450D01*
X58983Y-46900D01*
X58983Y-47183D01*
X58795Y-47183D01*
X58750Y-47201D01*
X58717Y-47235D01*
X58699Y-47279D01*
X58699Y-47326D01*
X58699Y-47720D01*
X58717Y-47764D01*
X58750Y-47798D01*
X58795Y-47816D01*
X58842Y-47816D01*
X59826Y-47816D01*
X59871Y-47798D01*
X59880Y-47789D01*
X59880Y-48119D01*
X62860Y-48119D01*
X62860Y-48986D01*
G54D10*
G36*
X62870Y-47970D02*
X62760Y-47970D01*
X62760Y-43448D01*
X62720Y-43352D01*
X62647Y-43279D01*
X62575Y-43249D01*
X62647Y-43220D01*
X62720Y-43147D01*
X62759Y-43051D01*
X62760Y-42948D01*
X62720Y-42852D01*
X62647Y-42779D01*
X62551Y-42740D01*
X62448Y-42739D01*
X62352Y-42779D01*
X62279Y-42852D01*
X62260Y-42899D01*
X62260Y-42448D01*
X62220Y-42352D01*
X62147Y-42279D01*
X62051Y-42240D01*
X61948Y-42239D01*
X61852Y-42279D01*
X61779Y-42352D01*
X61749Y-42424D01*
X61720Y-42352D01*
X61647Y-42279D01*
X61551Y-42240D01*
X61448Y-42239D01*
X61352Y-42279D01*
X61279Y-42352D01*
X61240Y-42448D01*
X61239Y-42551D01*
X61279Y-42647D01*
X61352Y-42720D01*
X61448Y-42759D01*
X61551Y-42760D01*
X61647Y-42720D01*
X61720Y-42647D01*
X61750Y-42575D01*
X61779Y-42647D01*
X61852Y-42720D01*
X61948Y-42759D01*
X62051Y-42760D01*
X62147Y-42720D01*
X62220Y-42647D01*
X62259Y-42551D01*
X62260Y-42448D01*
X62260Y-42899D01*
X62240Y-42948D01*
X62239Y-43051D01*
X62279Y-43147D01*
X62352Y-43220D01*
X62424Y-43250D01*
X62352Y-43279D01*
X62279Y-43352D01*
X62240Y-43448D01*
X62239Y-43551D01*
X62279Y-43647D01*
X62352Y-43720D01*
X62448Y-43759D01*
X62551Y-43760D01*
X62647Y-43720D01*
X62720Y-43647D01*
X62759Y-43551D01*
X62760Y-43448D01*
X62760Y-47970D01*
X62284Y-47970D01*
X62307Y-47960D01*
X62460Y-47808D01*
X62542Y-47608D01*
X62543Y-47392D01*
X62460Y-47192D01*
X62308Y-47039D01*
X62212Y-47000D01*
X62307Y-46960D01*
X62460Y-46808D01*
X62542Y-46608D01*
X62543Y-46392D01*
X62460Y-46192D01*
X62308Y-46039D01*
X62212Y-46000D01*
X62307Y-45960D01*
X62460Y-45808D01*
X62542Y-45608D01*
X62543Y-45392D01*
X62460Y-45192D01*
X62351Y-45083D01*
X62363Y-45083D01*
X62403Y-45083D01*
X62462Y-45083D01*
X62518Y-45060D01*
X62560Y-45018D01*
X62583Y-44962D01*
X62583Y-44754D01*
X62583Y-44245D01*
X62583Y-44037D01*
X62560Y-43981D01*
X62518Y-43939D01*
X62462Y-43916D01*
X62403Y-43916D01*
X62254Y-43916D01*
X62216Y-43954D01*
X62216Y-44283D01*
X62545Y-44283D01*
X62583Y-44245D01*
X62583Y-44754D01*
X62545Y-44716D01*
X62216Y-44716D01*
X62216Y-44871D01*
X61783Y-44871D01*
X61783Y-44716D01*
X61783Y-44283D01*
X61783Y-43954D01*
X61745Y-43916D01*
X61596Y-43916D01*
X61537Y-43916D01*
X61481Y-43939D01*
X61439Y-43981D01*
X61416Y-44037D01*
X61416Y-44245D01*
X61454Y-44283D01*
X61783Y-44283D01*
X61783Y-44716D01*
X61454Y-44716D01*
X61416Y-44754D01*
X61416Y-44962D01*
X61439Y-45018D01*
X61481Y-45060D01*
X61537Y-45083D01*
X61596Y-45083D01*
X61636Y-45083D01*
X61648Y-45083D01*
X61539Y-45191D01*
X61457Y-45391D01*
X61456Y-45607D01*
X61539Y-45807D01*
X61691Y-45960D01*
X61787Y-45999D01*
X61692Y-46039D01*
X61539Y-46191D01*
X61457Y-46391D01*
X61456Y-46607D01*
X61539Y-46807D01*
X61691Y-46960D01*
X61787Y-46999D01*
X61692Y-47039D01*
X61539Y-47191D01*
X61457Y-47391D01*
X61456Y-47607D01*
X61539Y-47807D01*
X61691Y-47960D01*
X61715Y-47970D01*
X61331Y-47970D01*
X61331Y-47726D01*
X61331Y-47666D01*
X61331Y-47635D01*
X61331Y-47364D01*
X61331Y-47333D01*
X61331Y-47273D01*
X61331Y-44726D01*
X61331Y-44666D01*
X61331Y-44635D01*
X61331Y-44364D01*
X61331Y-44333D01*
X61331Y-44273D01*
X61308Y-44218D01*
X61266Y-44175D01*
X61210Y-44153D01*
X60972Y-44153D01*
X60935Y-44190D01*
X60935Y-44401D01*
X61293Y-44401D01*
X61331Y-44364D01*
X61331Y-44635D01*
X61293Y-44598D01*
X60935Y-44598D01*
X60935Y-44809D01*
X60972Y-44846D01*
X61210Y-44846D01*
X61266Y-44824D01*
X61308Y-44781D01*
X61331Y-44726D01*
X61331Y-47273D01*
X61308Y-47218D01*
X61266Y-47175D01*
X61210Y-47153D01*
X60972Y-47153D01*
X60935Y-47190D01*
X60935Y-47401D01*
X61293Y-47401D01*
X61331Y-47364D01*
X61331Y-47635D01*
X61293Y-47598D01*
X60935Y-47598D01*
X60935Y-47809D01*
X60972Y-47846D01*
X61210Y-47846D01*
X61266Y-47824D01*
X61308Y-47781D01*
X61331Y-47726D01*
X61331Y-47970D01*
X60442Y-47970D01*
X60442Y-47809D01*
X60442Y-47598D01*
X60442Y-47401D01*
X60442Y-47190D01*
X60442Y-44809D01*
X60442Y-44598D01*
X60442Y-44401D01*
X60442Y-44190D01*
X60405Y-44153D01*
X60166Y-44153D01*
X60111Y-44175D01*
X60069Y-44218D01*
X60046Y-44273D01*
X60046Y-44333D01*
X60046Y-44364D01*
X60084Y-44401D01*
X60442Y-44401D01*
X60442Y-44598D01*
X60084Y-44598D01*
X60046Y-44635D01*
X60046Y-44666D01*
X60046Y-44726D01*
X60069Y-44781D01*
X60111Y-44824D01*
X60166Y-44846D01*
X60405Y-44846D01*
X60442Y-44809D01*
X60442Y-47190D01*
X60405Y-47153D01*
X60166Y-47153D01*
X60111Y-47175D01*
X60069Y-47218D01*
X60046Y-47273D01*
X60046Y-47333D01*
X60046Y-47364D01*
X60084Y-47401D01*
X60442Y-47401D01*
X60442Y-47598D01*
X60084Y-47598D01*
X60046Y-47635D01*
X60046Y-47666D01*
X60046Y-47726D01*
X60069Y-47781D01*
X60111Y-47824D01*
X60166Y-47846D01*
X60405Y-47846D01*
X60442Y-47809D01*
X60442Y-47970D01*
X60030Y-47970D01*
X60030Y-47022D01*
X60033Y-47017D01*
X60056Y-46900D01*
X60056Y-46450D01*
X60033Y-46332D01*
X60030Y-46327D01*
X60030Y-45722D01*
X60033Y-45717D01*
X60056Y-45600D01*
X60056Y-45100D01*
X60033Y-44982D01*
X60030Y-44977D01*
X60030Y-44487D01*
X59913Y-44370D01*
X59913Y-44281D01*
X59896Y-44240D01*
X59865Y-44209D01*
X59825Y-44193D01*
X59781Y-44193D01*
X59735Y-44193D01*
X59012Y-43470D01*
X58760Y-43470D01*
X58760Y-42448D01*
X58720Y-42352D01*
X58647Y-42279D01*
X58551Y-42240D01*
X58448Y-42239D01*
X58352Y-42279D01*
X58279Y-42352D01*
X58240Y-42448D01*
X58239Y-42551D01*
X58279Y-42647D01*
X58352Y-42720D01*
X58448Y-42759D01*
X58551Y-42760D01*
X58647Y-42720D01*
X58720Y-42647D01*
X58759Y-42551D01*
X58760Y-42448D01*
X58760Y-43470D01*
X58032Y-43470D01*
X58032Y-43137D01*
X58032Y-43078D01*
X58032Y-42997D01*
X58032Y-42627D01*
X58032Y-42547D01*
X58032Y-42487D01*
X58009Y-42432D01*
X57967Y-42390D01*
X57912Y-42367D01*
X57201Y-42367D01*
X57163Y-42404D01*
X57163Y-42664D01*
X57995Y-42664D01*
X58032Y-42627D01*
X58032Y-42997D01*
X57995Y-42960D01*
X57163Y-42960D01*
X57163Y-43220D01*
X57201Y-43257D01*
X57912Y-43257D01*
X57967Y-43235D01*
X58009Y-43192D01*
X58032Y-43137D01*
X58032Y-43470D01*
X56530Y-43470D01*
X56530Y-42129D01*
X59393Y-42129D01*
X59410Y-42216D01*
X59430Y-42263D01*
X59538Y-42425D01*
X59538Y-42425D01*
X59574Y-42461D01*
X59736Y-42569D01*
X59783Y-42589D01*
X59974Y-42627D01*
X60025Y-42627D01*
X60025Y-42627D01*
X60216Y-42589D01*
X60263Y-42569D01*
X60263Y-42569D01*
X60425Y-42461D01*
X60425Y-42461D01*
X60461Y-42425D01*
X60569Y-42263D01*
X60589Y-42216D01*
X60606Y-42129D01*
X61987Y-42129D01*
X62332Y-42198D01*
X62613Y-42386D01*
X62801Y-42667D01*
X62870Y-43012D01*
X62870Y-47970D01*
X62870Y-47970D01*
G37*
G54D31*
X62870Y-47970D02*
X62760Y-47970D01*
X62760Y-43448D01*
X62720Y-43352D01*
X62647Y-43279D01*
X62575Y-43249D01*
X62647Y-43220D01*
X62720Y-43147D01*
X62759Y-43051D01*
X62760Y-42948D01*
X62720Y-42852D01*
X62647Y-42779D01*
X62551Y-42740D01*
X62448Y-42739D01*
X62352Y-42779D01*
X62279Y-42852D01*
X62260Y-42899D01*
X62260Y-42448D01*
X62220Y-42352D01*
X62147Y-42279D01*
X62051Y-42240D01*
X61948Y-42239D01*
X61852Y-42279D01*
X61779Y-42352D01*
X61749Y-42424D01*
X61720Y-42352D01*
X61647Y-42279D01*
X61551Y-42240D01*
X61448Y-42239D01*
X61352Y-42279D01*
X61279Y-42352D01*
X61240Y-42448D01*
X61239Y-42551D01*
X61279Y-42647D01*
X61352Y-42720D01*
X61448Y-42759D01*
X61551Y-42760D01*
X61647Y-42720D01*
X61720Y-42647D01*
X61750Y-42575D01*
X61779Y-42647D01*
X61852Y-42720D01*
X61948Y-42759D01*
X62051Y-42760D01*
X62147Y-42720D01*
X62220Y-42647D01*
X62259Y-42551D01*
X62260Y-42448D01*
X62260Y-42899D01*
X62240Y-42948D01*
X62239Y-43051D01*
X62279Y-43147D01*
X62352Y-43220D01*
X62424Y-43250D01*
X62352Y-43279D01*
X62279Y-43352D01*
X62240Y-43448D01*
X62239Y-43551D01*
X62279Y-43647D01*
X62352Y-43720D01*
X62448Y-43759D01*
X62551Y-43760D01*
X62647Y-43720D01*
X62720Y-43647D01*
X62759Y-43551D01*
X62760Y-43448D01*
X62760Y-47970D01*
X62284Y-47970D01*
X62307Y-47960D01*
X62460Y-47808D01*
X62542Y-47608D01*
X62543Y-47392D01*
X62460Y-47192D01*
X62308Y-47039D01*
X62212Y-47000D01*
X62307Y-46960D01*
X62460Y-46808D01*
X62542Y-46608D01*
X62543Y-46392D01*
X62460Y-46192D01*
X62308Y-46039D01*
X62212Y-46000D01*
X62307Y-45960D01*
X62460Y-45808D01*
X62542Y-45608D01*
X62543Y-45392D01*
X62460Y-45192D01*
X62351Y-45083D01*
X62363Y-45083D01*
X62403Y-45083D01*
X62462Y-45083D01*
X62518Y-45060D01*
X62560Y-45018D01*
X62583Y-44962D01*
X62583Y-44754D01*
X62583Y-44245D01*
X62583Y-44037D01*
X62560Y-43981D01*
X62518Y-43939D01*
X62462Y-43916D01*
X62403Y-43916D01*
X62254Y-43916D01*
X62216Y-43954D01*
X62216Y-44283D01*
X62545Y-44283D01*
X62583Y-44245D01*
X62583Y-44754D01*
X62545Y-44716D01*
X62216Y-44716D01*
X62216Y-44871D01*
X61783Y-44871D01*
X61783Y-44716D01*
X61783Y-44283D01*
X61783Y-43954D01*
X61745Y-43916D01*
X61596Y-43916D01*
X61537Y-43916D01*
X61481Y-43939D01*
X61439Y-43981D01*
X61416Y-44037D01*
X61416Y-44245D01*
X61454Y-44283D01*
X61783Y-44283D01*
X61783Y-44716D01*
X61454Y-44716D01*
X61416Y-44754D01*
X61416Y-44962D01*
X61439Y-45018D01*
X61481Y-45060D01*
X61537Y-45083D01*
X61596Y-45083D01*
X61636Y-45083D01*
X61648Y-45083D01*
X61539Y-45191D01*
X61457Y-45391D01*
X61456Y-45607D01*
X61539Y-45807D01*
X61691Y-45960D01*
X61787Y-45999D01*
X61692Y-46039D01*
X61539Y-46191D01*
X61457Y-46391D01*
X61456Y-46607D01*
X61539Y-46807D01*
X61691Y-46960D01*
X61787Y-46999D01*
X61692Y-47039D01*
X61539Y-47191D01*
X61457Y-47391D01*
X61456Y-47607D01*
X61539Y-47807D01*
X61691Y-47960D01*
X61715Y-47970D01*
X61331Y-47970D01*
X61331Y-47726D01*
X61331Y-47666D01*
X61331Y-47635D01*
X61331Y-47364D01*
X61331Y-47333D01*
X61331Y-47273D01*
X61331Y-44726D01*
X61331Y-44666D01*
X61331Y-44635D01*
X61331Y-44364D01*
X61331Y-44333D01*
X61331Y-44273D01*
X61308Y-44218D01*
X61266Y-44175D01*
X61210Y-44153D01*
X60972Y-44153D01*
X60935Y-44190D01*
X60935Y-44401D01*
X61293Y-44401D01*
X61331Y-44364D01*
X61331Y-44635D01*
X61293Y-44598D01*
X60935Y-44598D01*
X60935Y-44809D01*
X60972Y-44846D01*
X61210Y-44846D01*
X61266Y-44824D01*
X61308Y-44781D01*
X61331Y-44726D01*
X61331Y-47273D01*
X61308Y-47218D01*
X61266Y-47175D01*
X61210Y-47153D01*
X60972Y-47153D01*
X60935Y-47190D01*
X60935Y-47401D01*
X61293Y-47401D01*
X61331Y-47364D01*
X61331Y-47635D01*
X61293Y-47598D01*
X60935Y-47598D01*
X60935Y-47809D01*
X60972Y-47846D01*
X61210Y-47846D01*
X61266Y-47824D01*
X61308Y-47781D01*
X61331Y-47726D01*
X61331Y-47970D01*
X60442Y-47970D01*
X60442Y-47809D01*
X60442Y-47598D01*
X60442Y-47401D01*
X60442Y-47190D01*
X60442Y-44809D01*
X60442Y-44598D01*
X60442Y-44401D01*
X60442Y-44190D01*
X60405Y-44153D01*
X60166Y-44153D01*
X60111Y-44175D01*
X60069Y-44218D01*
X60046Y-44273D01*
X60046Y-44333D01*
X60046Y-44364D01*
X60084Y-44401D01*
X60442Y-44401D01*
X60442Y-44598D01*
X60084Y-44598D01*
X60046Y-44635D01*
X60046Y-44666D01*
X60046Y-44726D01*
X60069Y-44781D01*
X60111Y-44824D01*
X60166Y-44846D01*
X60405Y-44846D01*
X60442Y-44809D01*
X60442Y-47190D01*
X60405Y-47153D01*
X60166Y-47153D01*
X60111Y-47175D01*
X60069Y-47218D01*
X60046Y-47273D01*
X60046Y-47333D01*
X60046Y-47364D01*
X60084Y-47401D01*
X60442Y-47401D01*
X60442Y-47598D01*
X60084Y-47598D01*
X60046Y-47635D01*
X60046Y-47666D01*
X60046Y-47726D01*
X60069Y-47781D01*
X60111Y-47824D01*
X60166Y-47846D01*
X60405Y-47846D01*
X60442Y-47809D01*
X60442Y-47970D01*
X60030Y-47970D01*
X60030Y-47022D01*
X60033Y-47017D01*
X60056Y-46900D01*
X60056Y-46450D01*
X60033Y-46332D01*
X60030Y-46327D01*
X60030Y-45722D01*
X60033Y-45717D01*
X60056Y-45600D01*
X60056Y-45100D01*
X60033Y-44982D01*
X60030Y-44977D01*
X60030Y-44487D01*
X59913Y-44370D01*
X59913Y-44281D01*
X59896Y-44240D01*
X59865Y-44209D01*
X59825Y-44193D01*
X59781Y-44193D01*
X59735Y-44193D01*
X59012Y-43470D01*
X58760Y-43470D01*
X58760Y-42448D01*
X58720Y-42352D01*
X58647Y-42279D01*
X58551Y-42240D01*
X58448Y-42239D01*
X58352Y-42279D01*
X58279Y-42352D01*
X58240Y-42448D01*
X58239Y-42551D01*
X58279Y-42647D01*
X58352Y-42720D01*
X58448Y-42759D01*
X58551Y-42760D01*
X58647Y-42720D01*
X58720Y-42647D01*
X58759Y-42551D01*
X58760Y-42448D01*
X58760Y-43470D01*
X58032Y-43470D01*
X58032Y-43137D01*
X58032Y-43078D01*
X58032Y-42997D01*
X58032Y-42627D01*
X58032Y-42547D01*
X58032Y-42487D01*
X58009Y-42432D01*
X57967Y-42390D01*
X57912Y-42367D01*
X57201Y-42367D01*
X57163Y-42404D01*
X57163Y-42664D01*
X57995Y-42664D01*
X58032Y-42627D01*
X58032Y-42997D01*
X57995Y-42960D01*
X57163Y-42960D01*
X57163Y-43220D01*
X57201Y-43257D01*
X57912Y-43257D01*
X57967Y-43235D01*
X58009Y-43192D01*
X58032Y-43137D01*
X58032Y-43470D01*
X56530Y-43470D01*
X56530Y-42129D01*
X59393Y-42129D01*
X59410Y-42216D01*
X59430Y-42263D01*
X59538Y-42425D01*
X59538Y-42425D01*
X59574Y-42461D01*
X59736Y-42569D01*
X59783Y-42589D01*
X59974Y-42627D01*
X60025Y-42627D01*
X60025Y-42627D01*
X60216Y-42589D01*
X60263Y-42569D01*
X60263Y-42569D01*
X60425Y-42461D01*
X60425Y-42461D01*
X60461Y-42425D01*
X60569Y-42263D01*
X60589Y-42216D01*
X60606Y-42129D01*
X61987Y-42129D01*
X62332Y-42198D01*
X62613Y-42386D01*
X62801Y-42667D01*
X62870Y-43012D01*
X62870Y-47970D01*
M02*
