G04 #@! TF.FileFunction,Legend,Bot*
%FSLAX46Y46*%
G04 Gerber Fmt 4.6, Leading zero omitted, Abs format (unit mm)*
G04 Created by KiCad (PCBNEW 4.0.2+dfsg1-stable) date Sun 22 May 2016 05:06:21 PM EDT*
%MOMM*%
G01*
G04 APERTURE LIST*
%ADD10C,0.150000*%
%ADD11C,0.130000*%
%ADD12C,0.127000*%
%ADD13C,0.078740*%
%ADD14C,0.304800*%
%ADD15C,0.099060*%
%ADD16C,0.071120*%
%ADD17C,0.203200*%
%ADD18C,0.119380*%
G04 APERTURE END LIST*
D10*
D11*
X157534428Y-109474314D02*
X157534428Y-108712314D01*
X157353000Y-108712314D01*
X157244143Y-108748600D01*
X157171571Y-108821171D01*
X157135286Y-108893743D01*
X157099000Y-109038886D01*
X157099000Y-109147743D01*
X157135286Y-109292886D01*
X157171571Y-109365457D01*
X157244143Y-109438029D01*
X157353000Y-109474314D01*
X157534428Y-109474314D01*
X156772428Y-109474314D02*
X156772428Y-108966314D01*
X156772428Y-108712314D02*
X156808714Y-108748600D01*
X156772428Y-108784886D01*
X156736143Y-108748600D01*
X156772428Y-108712314D01*
X156772428Y-108784886D01*
X156083000Y-108966314D02*
X156083000Y-109583171D01*
X156119286Y-109655743D01*
X156155571Y-109692029D01*
X156228143Y-109728314D01*
X156337000Y-109728314D01*
X156409571Y-109692029D01*
X156083000Y-109438029D02*
X156155571Y-109474314D01*
X156300714Y-109474314D01*
X156373286Y-109438029D01*
X156409571Y-109401743D01*
X156445857Y-109329171D01*
X156445857Y-109111457D01*
X156409571Y-109038886D01*
X156373286Y-109002600D01*
X156300714Y-108966314D01*
X156155571Y-108966314D01*
X156083000Y-109002600D01*
X155720142Y-109474314D02*
X155720142Y-108966314D01*
X155720142Y-108712314D02*
X155756428Y-108748600D01*
X155720142Y-108784886D01*
X155683857Y-108748600D01*
X155720142Y-108712314D01*
X155720142Y-108784886D01*
X155466143Y-108966314D02*
X155175857Y-108966314D01*
X155357285Y-108712314D02*
X155357285Y-109365457D01*
X155321000Y-109438029D01*
X155248428Y-109474314D01*
X155175857Y-109474314D01*
X154595285Y-109474314D02*
X154595285Y-109075171D01*
X154631571Y-109002600D01*
X154704142Y-108966314D01*
X154849285Y-108966314D01*
X154921856Y-109002600D01*
X154595285Y-109438029D02*
X154667856Y-109474314D01*
X154849285Y-109474314D01*
X154921856Y-109438029D01*
X154958142Y-109365457D01*
X154958142Y-109292886D01*
X154921856Y-109220314D01*
X154849285Y-109184029D01*
X154667856Y-109184029D01*
X154595285Y-109147743D01*
X154123570Y-109474314D02*
X154196142Y-109438029D01*
X154232427Y-109365457D01*
X154232427Y-108712314D01*
X152889856Y-109474314D02*
X153252713Y-109474314D01*
X153252713Y-108712314D01*
X152635856Y-109075171D02*
X152381856Y-109075171D01*
X152272999Y-109474314D02*
X152635856Y-109474314D01*
X152635856Y-108712314D01*
X152272999Y-108712314D01*
X151946427Y-109474314D02*
X151946427Y-108712314D01*
X151764999Y-108712314D01*
X151656142Y-108748600D01*
X151583570Y-108821171D01*
X151547285Y-108893743D01*
X151510999Y-109038886D01*
X151510999Y-109147743D01*
X151547285Y-109292886D01*
X151583570Y-109365457D01*
X151656142Y-109438029D01*
X151764999Y-109474314D01*
X151946427Y-109474314D01*
X150640142Y-109438029D02*
X150531285Y-109474314D01*
X150349856Y-109474314D01*
X150277285Y-109438029D01*
X150240999Y-109401743D01*
X150204714Y-109329171D01*
X150204714Y-109256600D01*
X150240999Y-109184029D01*
X150277285Y-109147743D01*
X150349856Y-109111457D01*
X150494999Y-109075171D01*
X150567571Y-109038886D01*
X150603856Y-109002600D01*
X150640142Y-108930029D01*
X150640142Y-108857457D01*
X150603856Y-108784886D01*
X150567571Y-108748600D01*
X150494999Y-108712314D01*
X150313571Y-108712314D01*
X150204714Y-108748600D01*
X149987000Y-108966314D02*
X149696714Y-108966314D01*
X149878142Y-108712314D02*
X149878142Y-109365457D01*
X149841857Y-109438029D01*
X149769285Y-109474314D01*
X149696714Y-109474314D01*
X149442713Y-109474314D02*
X149442713Y-108966314D01*
X149442713Y-109111457D02*
X149406428Y-109038886D01*
X149370142Y-109002600D01*
X149297571Y-108966314D01*
X149224999Y-108966314D01*
X148970999Y-109474314D02*
X148970999Y-108966314D01*
X148970999Y-108712314D02*
X149007285Y-108748600D01*
X148970999Y-108784886D01*
X148934714Y-108748600D01*
X148970999Y-108712314D01*
X148970999Y-108784886D01*
X148608142Y-108966314D02*
X148608142Y-109728314D01*
X148608142Y-109002600D02*
X148535571Y-108966314D01*
X148390428Y-108966314D01*
X148317857Y-109002600D01*
X148281571Y-109038886D01*
X148245285Y-109111457D01*
X148245285Y-109329171D01*
X148281571Y-109401743D01*
X148317857Y-109438029D01*
X148390428Y-109474314D01*
X148535571Y-109474314D01*
X148608142Y-109438029D01*
X154232427Y-110671114D02*
X154232427Y-110163114D01*
X154232427Y-110308257D02*
X154196142Y-110235686D01*
X154159856Y-110199400D01*
X154087285Y-110163114D01*
X154014713Y-110163114D01*
X153470428Y-110634829D02*
X153542999Y-110671114D01*
X153688142Y-110671114D01*
X153760713Y-110634829D01*
X153796999Y-110562257D01*
X153796999Y-110271971D01*
X153760713Y-110199400D01*
X153688142Y-110163114D01*
X153542999Y-110163114D01*
X153470428Y-110199400D01*
X153434142Y-110271971D01*
X153434142Y-110344543D01*
X153796999Y-110417114D01*
X153180142Y-110163114D02*
X152998713Y-110671114D01*
X152817285Y-110163114D01*
X152019000Y-109909114D02*
X151511000Y-109909114D01*
X151837571Y-110671114D01*
X157570714Y-123299171D02*
X157316714Y-123299171D01*
X157207857Y-123698314D02*
X157570714Y-123698314D01*
X157570714Y-122936314D01*
X157207857Y-122936314D01*
X156881285Y-123698314D02*
X156881285Y-123190314D01*
X156881285Y-123335457D02*
X156845000Y-123262886D01*
X156808714Y-123226600D01*
X156736143Y-123190314D01*
X156663571Y-123190314D01*
X156409571Y-123698314D02*
X156409571Y-123190314D01*
X156409571Y-122936314D02*
X156445857Y-122972600D01*
X156409571Y-123008886D01*
X156373286Y-122972600D01*
X156409571Y-122936314D01*
X156409571Y-123008886D01*
X155720143Y-123662029D02*
X155792714Y-123698314D01*
X155937857Y-123698314D01*
X156010429Y-123662029D01*
X156046714Y-123625743D01*
X156083000Y-123553171D01*
X156083000Y-123335457D01*
X156046714Y-123262886D01*
X156010429Y-123226600D01*
X155937857Y-123190314D01*
X155792714Y-123190314D01*
X155720143Y-123226600D01*
X154921858Y-122936314D02*
X154667858Y-123698314D01*
X154413858Y-122936314D01*
X153833286Y-123698314D02*
X153833286Y-123299171D01*
X153869572Y-123226600D01*
X153942143Y-123190314D01*
X154087286Y-123190314D01*
X154159857Y-123226600D01*
X153833286Y-123662029D02*
X153905857Y-123698314D01*
X154087286Y-123698314D01*
X154159857Y-123662029D01*
X154196143Y-123589457D01*
X154196143Y-123516886D01*
X154159857Y-123444314D01*
X154087286Y-123408029D01*
X153905857Y-123408029D01*
X153833286Y-123371743D01*
X153470428Y-123190314D02*
X153470428Y-123698314D01*
X153470428Y-123262886D02*
X153434143Y-123226600D01*
X153361571Y-123190314D01*
X153252714Y-123190314D01*
X153180143Y-123226600D01*
X153143857Y-123299171D01*
X153143857Y-123698314D01*
X152236714Y-123480600D02*
X151873857Y-123480600D01*
X152309286Y-123698314D02*
X152055286Y-122936314D01*
X151801286Y-123698314D01*
X151438428Y-123698314D02*
X151511000Y-123662029D01*
X151547285Y-123589457D01*
X151547285Y-122936314D01*
X151148142Y-123698314D02*
X151148142Y-122936314D01*
X151148142Y-123226600D02*
X151075571Y-123190314D01*
X150930428Y-123190314D01*
X150857857Y-123226600D01*
X150821571Y-123262886D01*
X150785285Y-123335457D01*
X150785285Y-123553171D01*
X150821571Y-123625743D01*
X150857857Y-123662029D01*
X150930428Y-123698314D01*
X151075571Y-123698314D01*
X151148142Y-123662029D01*
X150168428Y-123662029D02*
X150240999Y-123698314D01*
X150386142Y-123698314D01*
X150458713Y-123662029D01*
X150494999Y-123589457D01*
X150494999Y-123299171D01*
X150458713Y-123226600D01*
X150386142Y-123190314D01*
X150240999Y-123190314D01*
X150168428Y-123226600D01*
X150132142Y-123299171D01*
X150132142Y-123371743D01*
X150494999Y-123444314D01*
X149805570Y-123698314D02*
X149805570Y-123190314D01*
X149805570Y-123335457D02*
X149769285Y-123262886D01*
X149732999Y-123226600D01*
X149660428Y-123190314D01*
X149587856Y-123190314D01*
X149442714Y-123190314D02*
X149152428Y-123190314D01*
X149333856Y-122936314D02*
X149333856Y-123589457D01*
X149297571Y-123662029D01*
X149224999Y-123698314D01*
X149152428Y-123698314D01*
X156663572Y-124133114D02*
X156155572Y-124133114D01*
X156663572Y-124895114D01*
X156155572Y-124895114D01*
X155538715Y-124895114D02*
X155538715Y-124495971D01*
X155575001Y-124423400D01*
X155647572Y-124387114D01*
X155792715Y-124387114D01*
X155865286Y-124423400D01*
X155538715Y-124858829D02*
X155611286Y-124895114D01*
X155792715Y-124895114D01*
X155865286Y-124858829D01*
X155901572Y-124786257D01*
X155901572Y-124713686D01*
X155865286Y-124641114D01*
X155792715Y-124604829D01*
X155611286Y-124604829D01*
X155538715Y-124568543D01*
X154849286Y-124858829D02*
X154921857Y-124895114D01*
X155067000Y-124895114D01*
X155139572Y-124858829D01*
X155175857Y-124822543D01*
X155212143Y-124749971D01*
X155212143Y-124532257D01*
X155175857Y-124459686D01*
X155139572Y-124423400D01*
X155067000Y-124387114D01*
X154921857Y-124387114D01*
X154849286Y-124423400D01*
X154522714Y-124895114D02*
X154522714Y-124133114D01*
X154196143Y-124895114D02*
X154196143Y-124495971D01*
X154232429Y-124423400D01*
X154305000Y-124387114D01*
X154413857Y-124387114D01*
X154486429Y-124423400D01*
X154522714Y-124459686D01*
X152998714Y-124495971D02*
X152889857Y-124532257D01*
X152853572Y-124568543D01*
X152817286Y-124641114D01*
X152817286Y-124749971D01*
X152853572Y-124822543D01*
X152889857Y-124858829D01*
X152962429Y-124895114D01*
X153252714Y-124895114D01*
X153252714Y-124133114D01*
X152998714Y-124133114D01*
X152926143Y-124169400D01*
X152889857Y-124205686D01*
X152853572Y-124278257D01*
X152853572Y-124350829D01*
X152889857Y-124423400D01*
X152926143Y-124459686D01*
X152998714Y-124495971D01*
X153252714Y-124495971D01*
X152164143Y-124895114D02*
X152164143Y-124495971D01*
X152200429Y-124423400D01*
X152273000Y-124387114D01*
X152418143Y-124387114D01*
X152490714Y-124423400D01*
X152164143Y-124858829D02*
X152236714Y-124895114D01*
X152418143Y-124895114D01*
X152490714Y-124858829D01*
X152527000Y-124786257D01*
X152527000Y-124713686D01*
X152490714Y-124641114D01*
X152418143Y-124604829D01*
X152236714Y-124604829D01*
X152164143Y-124568543D01*
X151801285Y-124387114D02*
X151801285Y-124895114D01*
X151801285Y-124459686D02*
X151765000Y-124423400D01*
X151692428Y-124387114D01*
X151583571Y-124387114D01*
X151511000Y-124423400D01*
X151474714Y-124495971D01*
X151474714Y-124895114D01*
X151111856Y-124895114D02*
X151111856Y-124133114D01*
X151039285Y-124604829D02*
X150821571Y-124895114D01*
X150821571Y-124387114D02*
X151111856Y-124677400D01*
X150531285Y-124858829D02*
X150458714Y-124895114D01*
X150313571Y-124895114D01*
X150240999Y-124858829D01*
X150204714Y-124786257D01*
X150204714Y-124749971D01*
X150240999Y-124677400D01*
X150313571Y-124641114D01*
X150422428Y-124641114D01*
X150494999Y-124604829D01*
X150531285Y-124532257D01*
X150531285Y-124495971D01*
X150494999Y-124423400D01*
X150422428Y-124387114D01*
X150313571Y-124387114D01*
X150240999Y-124423400D01*
X128124859Y-109056714D02*
X128124859Y-109673571D01*
X128161145Y-109746143D01*
X128197430Y-109782429D01*
X128270002Y-109818714D01*
X128378859Y-109818714D01*
X128451430Y-109782429D01*
X128124859Y-109528429D02*
X128197430Y-109564714D01*
X128342573Y-109564714D01*
X128415145Y-109528429D01*
X128451430Y-109492143D01*
X128487716Y-109419571D01*
X128487716Y-109201857D01*
X128451430Y-109129286D01*
X128415145Y-109093000D01*
X128342573Y-109056714D01*
X128197430Y-109056714D01*
X128124859Y-109093000D01*
X127762001Y-109564714D02*
X127762001Y-109056714D01*
X127762001Y-108802714D02*
X127798287Y-108839000D01*
X127762001Y-108875286D01*
X127725716Y-108839000D01*
X127762001Y-108802714D01*
X127762001Y-108875286D01*
X127508002Y-109056714D02*
X127217716Y-109056714D01*
X127399144Y-108802714D02*
X127399144Y-109455857D01*
X127362859Y-109528429D01*
X127290287Y-109564714D01*
X127217716Y-109564714D01*
X126963715Y-109564714D02*
X126963715Y-108802714D01*
X126637144Y-109564714D02*
X126637144Y-109165571D01*
X126673430Y-109093000D01*
X126746001Y-109056714D01*
X126854858Y-109056714D01*
X126927430Y-109093000D01*
X126963715Y-109129286D01*
X125947715Y-109056714D02*
X125947715Y-109564714D01*
X126274286Y-109056714D02*
X126274286Y-109455857D01*
X126238001Y-109528429D01*
X126165429Y-109564714D01*
X126056572Y-109564714D01*
X125984001Y-109528429D01*
X125947715Y-109492143D01*
X125584857Y-109564714D02*
X125584857Y-108802714D01*
X125584857Y-109093000D02*
X125512286Y-109056714D01*
X125367143Y-109056714D01*
X125294572Y-109093000D01*
X125258286Y-109129286D01*
X125222000Y-109201857D01*
X125222000Y-109419571D01*
X125258286Y-109492143D01*
X125294572Y-109528429D01*
X125367143Y-109564714D01*
X125512286Y-109564714D01*
X125584857Y-109528429D01*
X124895428Y-109492143D02*
X124859143Y-109528429D01*
X124895428Y-109564714D01*
X124931714Y-109528429D01*
X124895428Y-109492143D01*
X124895428Y-109564714D01*
X124206000Y-109528429D02*
X124278571Y-109564714D01*
X124423714Y-109564714D01*
X124496286Y-109528429D01*
X124532571Y-109492143D01*
X124568857Y-109419571D01*
X124568857Y-109201857D01*
X124532571Y-109129286D01*
X124496286Y-109093000D01*
X124423714Y-109056714D01*
X124278571Y-109056714D01*
X124206000Y-109093000D01*
X123770571Y-109564714D02*
X123843143Y-109528429D01*
X123879428Y-109492143D01*
X123915714Y-109419571D01*
X123915714Y-109201857D01*
X123879428Y-109129286D01*
X123843143Y-109093000D01*
X123770571Y-109056714D01*
X123661714Y-109056714D01*
X123589143Y-109093000D01*
X123552857Y-109129286D01*
X123516571Y-109201857D01*
X123516571Y-109419571D01*
X123552857Y-109492143D01*
X123589143Y-109528429D01*
X123661714Y-109564714D01*
X123770571Y-109564714D01*
X123189999Y-109564714D02*
X123189999Y-109056714D01*
X123189999Y-109129286D02*
X123153714Y-109093000D01*
X123081142Y-109056714D01*
X122972285Y-109056714D01*
X122899714Y-109093000D01*
X122863428Y-109165571D01*
X122863428Y-109564714D01*
X122863428Y-109165571D02*
X122827142Y-109093000D01*
X122754571Y-109056714D01*
X122645714Y-109056714D01*
X122573142Y-109093000D01*
X122536857Y-109165571D01*
X122536857Y-109564714D01*
X121629714Y-108766429D02*
X122282857Y-109746143D01*
X121085428Y-109528429D02*
X121157999Y-109564714D01*
X121303142Y-109564714D01*
X121375713Y-109528429D01*
X121411999Y-109455857D01*
X121411999Y-109165571D01*
X121375713Y-109093000D01*
X121303142Y-109056714D01*
X121157999Y-109056714D01*
X121085428Y-109093000D01*
X121049142Y-109165571D01*
X121049142Y-109238143D01*
X121411999Y-109310714D01*
X120722570Y-109564714D02*
X120722570Y-109056714D01*
X120722570Y-109201857D02*
X120686285Y-109129286D01*
X120649999Y-109093000D01*
X120577428Y-109056714D01*
X120504856Y-109056714D01*
X120323428Y-109056714D02*
X120141999Y-109564714D01*
X119960571Y-109056714D01*
X119343714Y-109564714D02*
X119343714Y-109165571D01*
X119380000Y-109093000D01*
X119452571Y-109056714D01*
X119597714Y-109056714D01*
X119670285Y-109093000D01*
X119343714Y-109528429D02*
X119416285Y-109564714D01*
X119597714Y-109564714D01*
X119670285Y-109528429D01*
X119706571Y-109455857D01*
X119706571Y-109383286D01*
X119670285Y-109310714D01*
X119597714Y-109274429D01*
X119416285Y-109274429D01*
X119343714Y-109238143D01*
X118980856Y-109056714D02*
X118980856Y-109564714D01*
X118980856Y-109129286D02*
X118944571Y-109093000D01*
X118871999Y-109056714D01*
X118763142Y-109056714D01*
X118690571Y-109093000D01*
X118654285Y-109165571D01*
X118654285Y-109564714D01*
X117964856Y-109564714D02*
X117964856Y-109165571D01*
X118001142Y-109093000D01*
X118073713Y-109056714D01*
X118218856Y-109056714D01*
X118291427Y-109093000D01*
X117964856Y-109528429D02*
X118037427Y-109564714D01*
X118218856Y-109564714D01*
X118291427Y-109528429D01*
X118327713Y-109455857D01*
X118327713Y-109383286D01*
X118291427Y-109310714D01*
X118218856Y-109274429D01*
X118037427Y-109274429D01*
X117964856Y-109238143D01*
X117493141Y-109564714D02*
X117565713Y-109528429D01*
X117601998Y-109455857D01*
X117601998Y-108802714D01*
X117202855Y-109564714D02*
X117202855Y-108802714D01*
X117202855Y-109093000D02*
X117130284Y-109056714D01*
X116985141Y-109056714D01*
X116912570Y-109093000D01*
X116876284Y-109129286D01*
X116839998Y-109201857D01*
X116839998Y-109419571D01*
X116876284Y-109492143D01*
X116912570Y-109528429D01*
X116985141Y-109564714D01*
X117130284Y-109564714D01*
X117202855Y-109528429D01*
X115969141Y-108766429D02*
X116622284Y-109746143D01*
X115606283Y-109564714D02*
X115678855Y-109528429D01*
X115715140Y-109455857D01*
X115715140Y-108802714D01*
X114989426Y-109056714D02*
X114989426Y-109564714D01*
X115315997Y-109056714D02*
X115315997Y-109455857D01*
X115279712Y-109528429D01*
X115207140Y-109564714D01*
X115098283Y-109564714D01*
X115025712Y-109528429D01*
X114989426Y-109492143D01*
X114699140Y-109564714D02*
X114299997Y-109056714D01*
X114699140Y-109056714D02*
X114299997Y-109564714D01*
X159294285Y-120704429D02*
X158713714Y-120704429D01*
X158768143Y-118382143D02*
X158804429Y-118418429D01*
X158913286Y-118454714D01*
X158985857Y-118454714D01*
X159094714Y-118418429D01*
X159167286Y-118345857D01*
X159203571Y-118273286D01*
X159239857Y-118128143D01*
X159239857Y-118019286D01*
X159203571Y-117874143D01*
X159167286Y-117801571D01*
X159094714Y-117729000D01*
X158985857Y-117692714D01*
X158913286Y-117692714D01*
X158804429Y-117729000D01*
X158768143Y-117765286D01*
X159203571Y-115914714D02*
X159203571Y-115152714D01*
X159022143Y-115152714D01*
X158913286Y-115189000D01*
X158840714Y-115261571D01*
X158804429Y-115334143D01*
X158768143Y-115479286D01*
X158768143Y-115588143D01*
X158804429Y-115733286D01*
X158840714Y-115805857D01*
X158913286Y-115878429D01*
X159022143Y-115914714D01*
X159203571Y-115914714D01*
X159294285Y-113084429D02*
X158713714Y-113084429D01*
X159004000Y-113374714D02*
X159004000Y-112794143D01*
X146467286Y-125475999D02*
X147229286Y-125475999D01*
X147229286Y-125185714D01*
X147193000Y-125113142D01*
X147156714Y-125076857D01*
X147084143Y-125040571D01*
X146975286Y-125040571D01*
X146902714Y-125076857D01*
X146866429Y-125113142D01*
X146830143Y-125185714D01*
X146830143Y-125475999D01*
X147229286Y-124786571D02*
X146467286Y-124605142D01*
X147011571Y-124459999D01*
X146467286Y-124314857D01*
X147229286Y-124133428D01*
X146467286Y-123407714D02*
X146830143Y-123661714D01*
X146467286Y-123843142D02*
X147229286Y-123843142D01*
X147229286Y-123552857D01*
X147193000Y-123480285D01*
X147156714Y-123444000D01*
X147084143Y-123407714D01*
X146975286Y-123407714D01*
X146902714Y-123444000D01*
X146866429Y-123480285D01*
X146830143Y-123552857D01*
X146830143Y-123843142D01*
X147120429Y-108185858D02*
X147156714Y-108294715D01*
X147156714Y-108476144D01*
X147120429Y-108548715D01*
X147084143Y-108585001D01*
X147011571Y-108621286D01*
X146939000Y-108621286D01*
X146866429Y-108585001D01*
X146830143Y-108548715D01*
X146793857Y-108476144D01*
X146757571Y-108331001D01*
X146721286Y-108258429D01*
X146685000Y-108222144D01*
X146612429Y-108185858D01*
X146539857Y-108185858D01*
X146467286Y-108222144D01*
X146431000Y-108258429D01*
X146394714Y-108331001D01*
X146394714Y-108512429D01*
X146431000Y-108621286D01*
X146394714Y-108875286D02*
X147156714Y-109056715D01*
X146612429Y-109201858D01*
X147156714Y-109347000D01*
X146394714Y-109528429D01*
X147156714Y-109818715D02*
X146394714Y-109818715D01*
X146394714Y-110000143D01*
X146431000Y-110109000D01*
X146503571Y-110181572D01*
X146576143Y-110217857D01*
X146721286Y-110254143D01*
X146830143Y-110254143D01*
X146975286Y-110217857D01*
X147047857Y-110181572D01*
X147120429Y-110109000D01*
X147156714Y-110000143D01*
X147156714Y-109818715D01*
X145451284Y-117148429D02*
X145342427Y-117184714D01*
X145160998Y-117184714D01*
X145088427Y-117148429D01*
X145052141Y-117112143D01*
X145015856Y-117039571D01*
X145015856Y-116967000D01*
X145052141Y-116894429D01*
X145088427Y-116858143D01*
X145160998Y-116821857D01*
X145306141Y-116785571D01*
X145378713Y-116749286D01*
X145414998Y-116713000D01*
X145451284Y-116640429D01*
X145451284Y-116567857D01*
X145414998Y-116495286D01*
X145378713Y-116459000D01*
X145306141Y-116422714D01*
X145124713Y-116422714D01*
X145015856Y-116459000D01*
X144798142Y-116422714D02*
X144362713Y-116422714D01*
X144580427Y-117184714D02*
X144580427Y-116422714D01*
X144108713Y-117184714D02*
X144108713Y-116422714D01*
X143854713Y-116967000D01*
X143600713Y-116422714D01*
X143600713Y-117184714D01*
X143310428Y-116422714D02*
X142838714Y-116422714D01*
X143092714Y-116713000D01*
X142983856Y-116713000D01*
X142911285Y-116749286D01*
X142874999Y-116785571D01*
X142838714Y-116858143D01*
X142838714Y-117039571D01*
X142874999Y-117112143D01*
X142911285Y-117148429D01*
X142983856Y-117184714D01*
X143201571Y-117184714D01*
X143274142Y-117148429D01*
X143310428Y-117112143D01*
X142548428Y-116495286D02*
X142512142Y-116459000D01*
X142439571Y-116422714D01*
X142258142Y-116422714D01*
X142185571Y-116459000D01*
X142149285Y-116495286D01*
X142113000Y-116567857D01*
X142113000Y-116640429D01*
X142149285Y-116749286D01*
X142584714Y-117184714D01*
X142113000Y-117184714D01*
X141532428Y-116785571D02*
X141786428Y-116785571D01*
X141786428Y-117184714D02*
X141786428Y-116422714D01*
X141423571Y-116422714D01*
X140988143Y-116422714D02*
X140915571Y-116422714D01*
X140843000Y-116459000D01*
X140806714Y-116495286D01*
X140770428Y-116567857D01*
X140734143Y-116713000D01*
X140734143Y-116894429D01*
X140770428Y-117039571D01*
X140806714Y-117112143D01*
X140843000Y-117148429D01*
X140915571Y-117184714D01*
X140988143Y-117184714D01*
X141060714Y-117148429D01*
X141097000Y-117112143D01*
X141133285Y-117039571D01*
X141169571Y-116894429D01*
X141169571Y-116713000D01*
X141133285Y-116567857D01*
X141097000Y-116495286D01*
X141060714Y-116459000D01*
X140988143Y-116422714D01*
X140480143Y-116422714D02*
X140008429Y-116422714D01*
X140262429Y-116713000D01*
X140153571Y-116713000D01*
X140081000Y-116749286D01*
X140044714Y-116785571D01*
X140008429Y-116858143D01*
X140008429Y-117039571D01*
X140044714Y-117112143D01*
X140081000Y-117148429D01*
X140153571Y-117184714D01*
X140371286Y-117184714D01*
X140443857Y-117148429D01*
X140480143Y-117112143D01*
X139536715Y-116422714D02*
X139464143Y-116422714D01*
X139391572Y-116459000D01*
X139355286Y-116495286D01*
X139319000Y-116567857D01*
X139282715Y-116713000D01*
X139282715Y-116894429D01*
X139319000Y-117039571D01*
X139355286Y-117112143D01*
X139391572Y-117148429D01*
X139464143Y-117184714D01*
X139536715Y-117184714D01*
X139609286Y-117148429D01*
X139645572Y-117112143D01*
X139681857Y-117039571D01*
X139718143Y-116894429D01*
X139718143Y-116713000D01*
X139681857Y-116567857D01*
X139645572Y-116495286D01*
X139609286Y-116459000D01*
X139536715Y-116422714D01*
X138956143Y-117184714D02*
X138956143Y-116422714D01*
X138520715Y-117184714D02*
X138847286Y-116749286D01*
X138520715Y-116422714D02*
X138956143Y-116858143D01*
X137867572Y-116422714D02*
X138012715Y-116422714D01*
X138085286Y-116459000D01*
X138121572Y-116495286D01*
X138194143Y-116604143D01*
X138230429Y-116749286D01*
X138230429Y-117039571D01*
X138194143Y-117112143D01*
X138157858Y-117148429D01*
X138085286Y-117184714D01*
X137940143Y-117184714D01*
X137867572Y-117148429D01*
X137831286Y-117112143D01*
X137795001Y-117039571D01*
X137795001Y-116858143D01*
X137831286Y-116785571D01*
X137867572Y-116749286D01*
X137940143Y-116713000D01*
X138085286Y-116713000D01*
X138157858Y-116749286D01*
X138194143Y-116785571D01*
X138230429Y-116858143D01*
X137577287Y-116422714D02*
X137141858Y-116422714D01*
X137359572Y-117184714D02*
X137359572Y-116422714D01*
X136561287Y-116422714D02*
X136706430Y-116422714D01*
X136779001Y-116459000D01*
X136815287Y-116495286D01*
X136887858Y-116604143D01*
X136924144Y-116749286D01*
X136924144Y-117039571D01*
X136887858Y-117112143D01*
X136851573Y-117148429D01*
X136779001Y-117184714D01*
X136633858Y-117184714D01*
X136561287Y-117148429D01*
X136525001Y-117112143D01*
X136488716Y-117039571D01*
X136488716Y-116858143D01*
X136525001Y-116785571D01*
X136561287Y-116749286D01*
X136633858Y-116713000D01*
X136779001Y-116713000D01*
X136851573Y-116749286D01*
X136887858Y-116785571D01*
X136924144Y-116858143D01*
D12*
X125095000Y-120015000D02*
X125095000Y-122301000D01*
X125095000Y-122551000D02*
X126365000Y-122551000D01*
X126365000Y-122301000D02*
X126365000Y-120015000D01*
X126365000Y-119765000D02*
X125095000Y-119765000D01*
X125095000Y-115697000D02*
X125095000Y-117983000D01*
X125095000Y-118233000D02*
X126365000Y-118233000D01*
X126365000Y-117983000D02*
X126365000Y-115697000D01*
X126365000Y-115447000D02*
X125095000Y-115447000D01*
D13*
X124398090Y-112999520D02*
G75*
G03X124398090Y-112999520I-159070J0D01*
G01*
X121793000Y-112141000D02*
X121793000Y-113157000D01*
X124396500Y-112141000D02*
X124396500Y-113157000D01*
X121793000Y-113157000D02*
X124396500Y-113157000D01*
X124396500Y-112141000D02*
X121793000Y-112141000D01*
D10*
X130710000Y-122736000D02*
X130710000Y-123036000D01*
X130710000Y-123036000D02*
X130810000Y-122736000D01*
X130810000Y-122736000D02*
X130810000Y-123136000D01*
X131010000Y-122536000D02*
X131010000Y-123336000D01*
X130910000Y-122536000D02*
X130910000Y-123236000D01*
X131110000Y-122336000D02*
X131110000Y-123536000D01*
X131110000Y-123536000D02*
X130510000Y-122936000D01*
X130510000Y-122936000D02*
X131110000Y-122336000D01*
D12*
X131953000Y-122301000D02*
X129667000Y-122301000D01*
X129417000Y-122301000D02*
X129417000Y-123571000D01*
X129667000Y-123571000D02*
X131953000Y-123571000D01*
X132203000Y-123571000D02*
X132203000Y-122301000D01*
D14*
X146050000Y-107950000D02*
X146050000Y-107950000D01*
X146050000Y-110490000D02*
X146050000Y-107950000D01*
X146050000Y-107950000D02*
X146050000Y-107950000D01*
X146050000Y-107950000D02*
X135890000Y-107950000D01*
X135890000Y-107950000D02*
X135890000Y-110490000D01*
X135890000Y-110490000D02*
X146050000Y-110490000D01*
X143510000Y-110490000D02*
X143510000Y-107950000D01*
D15*
X132588000Y-109732000D02*
X132588000Y-108716000D01*
X132588000Y-108716000D02*
X131064000Y-108716000D01*
X131064000Y-108716000D02*
X131064000Y-109732000D01*
X131064000Y-111248000D02*
X131064000Y-112264000D01*
X131064000Y-112264000D02*
X132588000Y-112264000D01*
X132588000Y-112264000D02*
X132588000Y-111248000D01*
D12*
X132588000Y-114173000D02*
X132715000Y-114173000D01*
X132715000Y-114173000D02*
X132715000Y-119507000D01*
X128905000Y-119507000D02*
X128905000Y-114173000D01*
X128905000Y-114173000D02*
X132588000Y-114173000D01*
X130302000Y-114173000D02*
X130302000Y-114681000D01*
X130302000Y-114681000D02*
X131318000Y-114681000D01*
X131318000Y-114681000D02*
X131318000Y-114173000D01*
X128905000Y-119507000D02*
X132715000Y-119507000D01*
D14*
X135890000Y-125730000D02*
X135890000Y-125730000D01*
X135890000Y-123190000D02*
X135890000Y-125730000D01*
X135890000Y-125730000D02*
X135890000Y-125730000D01*
X135890000Y-125730000D02*
X146050000Y-125730000D01*
X146050000Y-125730000D02*
X146050000Y-123190000D01*
X146050000Y-123190000D02*
X135890000Y-123190000D01*
X138430000Y-123190000D02*
X138430000Y-125730000D01*
D16*
X130306000Y-113665000D02*
X129798000Y-113665000D01*
X129798000Y-113665000D02*
X129798000Y-112903000D01*
X129798000Y-112903000D02*
X130306000Y-112903000D01*
X131314000Y-113665000D02*
X131822000Y-113665000D01*
X131822000Y-113665000D02*
X131822000Y-112903000D01*
X131822000Y-112903000D02*
X131314000Y-112903000D01*
X136783000Y-112141000D02*
X136275000Y-112141000D01*
X136275000Y-112141000D02*
X136275000Y-111379000D01*
X136275000Y-111379000D02*
X136783000Y-111379000D01*
X137791000Y-112141000D02*
X138299000Y-112141000D01*
X138299000Y-112141000D02*
X138299000Y-111379000D01*
X138299000Y-111379000D02*
X137791000Y-111379000D01*
X135894000Y-121666000D02*
X135386000Y-121666000D01*
X135386000Y-121666000D02*
X135386000Y-120904000D01*
X135386000Y-120904000D02*
X135894000Y-120904000D01*
X136902000Y-121666000D02*
X137410000Y-121666000D01*
X137410000Y-121666000D02*
X137410000Y-120904000D01*
X137410000Y-120904000D02*
X136902000Y-120904000D01*
X155321000Y-118614000D02*
X155321000Y-119122000D01*
X155321000Y-119122000D02*
X154559000Y-119122000D01*
X154559000Y-119122000D02*
X154559000Y-118614000D01*
X155321000Y-117606000D02*
X155321000Y-117098000D01*
X155321000Y-117098000D02*
X154559000Y-117098000D01*
X154559000Y-117098000D02*
X154559000Y-117606000D01*
X154559000Y-115066000D02*
X154559000Y-114558000D01*
X154559000Y-114558000D02*
X155321000Y-114558000D01*
X155321000Y-114558000D02*
X155321000Y-115066000D01*
X154559000Y-116074000D02*
X154559000Y-116582000D01*
X154559000Y-116582000D02*
X155321000Y-116582000D01*
X155321000Y-116582000D02*
X155321000Y-116074000D01*
D10*
X147622000Y-119840000D02*
X153622000Y-119840000D01*
X153622000Y-119840000D02*
X153622000Y-113840000D01*
X153622000Y-113840000D02*
X147622000Y-113840000D01*
X147622000Y-113840000D02*
X147622000Y-119840000D01*
X152372000Y-116840000D02*
G75*
G03X152372000Y-116840000I-1750000J0D01*
G01*
D17*
X136090129Y-116769954D02*
X136090129Y-116910046D01*
X141368780Y-120374629D02*
G75*
G03X141368780Y-120374629I-398780J0D01*
G01*
X136090129Y-116910046D02*
X140899954Y-121719871D01*
X140899954Y-121719871D02*
X141040046Y-121719871D01*
X141040046Y-121719871D02*
X145849871Y-116910046D01*
X145849871Y-116910046D02*
X145849871Y-116769954D01*
X145849871Y-116769954D02*
X141040046Y-111960129D01*
X141040046Y-111960129D02*
X140899954Y-111960129D01*
X140899954Y-111960129D02*
X136090129Y-116769954D01*
D12*
X116840000Y-116078000D02*
X116840000Y-115874800D01*
X114935000Y-114554000D02*
X114935000Y-119126000D01*
X114935000Y-119126000D02*
X115570000Y-119126000D01*
X118745000Y-117500400D02*
X114935000Y-117500400D01*
X118745000Y-117830600D02*
X114935000Y-117830600D01*
X118110000Y-114554000D02*
X118745000Y-114554000D01*
X118745000Y-114554000D02*
X118745000Y-119126000D01*
X118745000Y-119126000D02*
X118110000Y-119126000D01*
X115570000Y-114554000D02*
X114935000Y-114554000D01*
X116840000Y-116713000D02*
X116365020Y-116078000D01*
X116365020Y-116078000D02*
X116840000Y-116078000D01*
X116840000Y-116078000D02*
X117314980Y-116078000D01*
X117314980Y-116078000D02*
X116840000Y-116713000D01*
X116840000Y-116713000D02*
X116522500Y-116713000D01*
X116522500Y-116713000D02*
X116365020Y-116555520D01*
X116840000Y-116713000D02*
X117157500Y-116713000D01*
X117157500Y-116713000D02*
X117314980Y-116870480D01*
X116840000Y-116713000D02*
X116840000Y-117822980D01*
D18*
X121285000Y-120650000D02*
X121285000Y-123698000D01*
X121285000Y-123698000D02*
X122047000Y-123698000D01*
X122047000Y-123698000D02*
X122047000Y-120650000D01*
X122047000Y-120650000D02*
X121285000Y-120650000D01*
D16*
X118491000Y-121670000D02*
X118491000Y-121162000D01*
X118491000Y-121162000D02*
X119253000Y-121162000D01*
X119253000Y-121162000D02*
X119253000Y-121670000D01*
X118491000Y-122678000D02*
X118491000Y-123186000D01*
X118491000Y-123186000D02*
X119253000Y-123186000D01*
X119253000Y-123186000D02*
X119253000Y-122678000D01*
X116967000Y-121670000D02*
X116967000Y-121162000D01*
X116967000Y-121162000D02*
X117729000Y-121162000D01*
X117729000Y-121162000D02*
X117729000Y-121670000D01*
X116967000Y-122678000D02*
X116967000Y-123186000D01*
X116967000Y-123186000D02*
X117729000Y-123186000D01*
X117729000Y-123186000D02*
X117729000Y-122678000D01*
D12*
X125095000Y-111379000D02*
X125095000Y-113665000D01*
X125095000Y-113915000D02*
X126365000Y-113915000D01*
X126365000Y-113665000D02*
X126365000Y-111379000D01*
X126365000Y-111129000D02*
X125095000Y-111129000D01*
D16*
X145284000Y-121793000D02*
X145792000Y-121793000D01*
X145792000Y-121793000D02*
X145792000Y-122555000D01*
X145792000Y-122555000D02*
X145284000Y-122555000D01*
X144276000Y-121793000D02*
X143768000Y-121793000D01*
X143768000Y-121793000D02*
X143768000Y-122555000D01*
X143768000Y-122555000D02*
X144276000Y-122555000D01*
D15*
X134747000Y-109732000D02*
X134747000Y-108716000D01*
X134747000Y-108716000D02*
X133223000Y-108716000D01*
X133223000Y-108716000D02*
X133223000Y-109732000D01*
X133223000Y-111248000D02*
X133223000Y-112264000D01*
X133223000Y-112264000D02*
X134747000Y-112264000D01*
X134747000Y-112264000D02*
X134747000Y-111248000D01*
D11*
X124804714Y-120922143D02*
X124441857Y-120668143D01*
X124804714Y-120486715D02*
X124042714Y-120486715D01*
X124042714Y-120777000D01*
X124079000Y-120849572D01*
X124115286Y-120885857D01*
X124187857Y-120922143D01*
X124296714Y-120922143D01*
X124369286Y-120885857D01*
X124405571Y-120849572D01*
X124441857Y-120777000D01*
X124441857Y-120486715D01*
X124804714Y-121647857D02*
X124804714Y-121212429D01*
X124804714Y-121430143D02*
X124042714Y-121430143D01*
X124151571Y-121357572D01*
X124224143Y-121285000D01*
X124260429Y-121212429D01*
X124115286Y-121938143D02*
X124079000Y-121974429D01*
X124042714Y-122047000D01*
X124042714Y-122228429D01*
X124079000Y-122301000D01*
X124115286Y-122337286D01*
X124187857Y-122373571D01*
X124260429Y-122373571D01*
X124369286Y-122337286D01*
X124804714Y-121901857D01*
X124804714Y-122373571D01*
X124804714Y-117475000D02*
X124441857Y-117221000D01*
X124804714Y-117039572D02*
X124042714Y-117039572D01*
X124042714Y-117329857D01*
X124079000Y-117402429D01*
X124115286Y-117438714D01*
X124187857Y-117475000D01*
X124296714Y-117475000D01*
X124369286Y-117438714D01*
X124405571Y-117402429D01*
X124441857Y-117329857D01*
X124441857Y-117039572D01*
X124804714Y-118200714D02*
X124804714Y-117765286D01*
X124804714Y-117983000D02*
X124042714Y-117983000D01*
X124151571Y-117910429D01*
X124224143Y-117837857D01*
X124260429Y-117765286D01*
X123770571Y-114390714D02*
X123770571Y-115007571D01*
X123734286Y-115080143D01*
X123698000Y-115116429D01*
X123625429Y-115152714D01*
X123480286Y-115152714D01*
X123407714Y-115116429D01*
X123371429Y-115080143D01*
X123335143Y-115007571D01*
X123335143Y-114390714D01*
X122609428Y-114390714D02*
X122972285Y-114390714D01*
X123008571Y-114753571D01*
X122972285Y-114717286D01*
X122899714Y-114681000D01*
X122718285Y-114681000D01*
X122645714Y-114717286D01*
X122609428Y-114753571D01*
X122573143Y-114826143D01*
X122573143Y-115007571D01*
X122609428Y-115080143D01*
X122645714Y-115116429D01*
X122718285Y-115152714D01*
X122899714Y-115152714D01*
X122972285Y-115116429D01*
X123008571Y-115080143D01*
X133658428Y-123280714D02*
X133658428Y-122518714D01*
X133477000Y-122518714D01*
X133368143Y-122555000D01*
X133295571Y-122627571D01*
X133259286Y-122700143D01*
X133223000Y-122845286D01*
X133223000Y-122954143D01*
X133259286Y-123099286D01*
X133295571Y-123171857D01*
X133368143Y-123244429D01*
X133477000Y-123280714D01*
X133658428Y-123280714D01*
X132497286Y-123280714D02*
X132932714Y-123280714D01*
X132715000Y-123280714D02*
X132715000Y-122518714D01*
X132787571Y-122627571D01*
X132860143Y-122700143D01*
X132932714Y-122736429D01*
X131953000Y-108222143D02*
X131989286Y-108258429D01*
X132098143Y-108294714D01*
X132170714Y-108294714D01*
X132279571Y-108258429D01*
X132352143Y-108185857D01*
X132388428Y-108113286D01*
X132424714Y-107968143D01*
X132424714Y-107859286D01*
X132388428Y-107714143D01*
X132352143Y-107641571D01*
X132279571Y-107569000D01*
X132170714Y-107532714D01*
X132098143Y-107532714D01*
X131989286Y-107569000D01*
X131953000Y-107605286D01*
X131590143Y-108294714D02*
X131445000Y-108294714D01*
X131372428Y-108258429D01*
X131336143Y-108222143D01*
X131263571Y-108113286D01*
X131227286Y-107968143D01*
X131227286Y-107677857D01*
X131263571Y-107605286D01*
X131299857Y-107569000D01*
X131372428Y-107532714D01*
X131517571Y-107532714D01*
X131590143Y-107569000D01*
X131626428Y-107605286D01*
X131662714Y-107677857D01*
X131662714Y-107859286D01*
X131626428Y-107931857D01*
X131590143Y-107968143D01*
X131517571Y-108004429D01*
X131372428Y-108004429D01*
X131299857Y-107968143D01*
X131263571Y-107931857D01*
X131227286Y-107859286D01*
X130120571Y-119724714D02*
X130120571Y-120341571D01*
X130084286Y-120414143D01*
X130048000Y-120450429D01*
X129975429Y-120486714D01*
X129830286Y-120486714D01*
X129757714Y-120450429D01*
X129721429Y-120414143D01*
X129685143Y-120341571D01*
X129685143Y-119724714D01*
X128923143Y-120486714D02*
X129358571Y-120486714D01*
X129140857Y-120486714D02*
X129140857Y-119724714D01*
X129213428Y-119833571D01*
X129286000Y-119906143D01*
X129358571Y-119942429D01*
X132860143Y-113157000D02*
X132896429Y-113120714D01*
X132932714Y-113011857D01*
X132932714Y-112939286D01*
X132896429Y-112830429D01*
X132823857Y-112757857D01*
X132751286Y-112721572D01*
X132606143Y-112685286D01*
X132497286Y-112685286D01*
X132352143Y-112721572D01*
X132279571Y-112757857D01*
X132207000Y-112830429D01*
X132170714Y-112939286D01*
X132170714Y-113011857D01*
X132207000Y-113120714D01*
X132243286Y-113157000D01*
X132243286Y-113447286D02*
X132207000Y-113483572D01*
X132170714Y-113556143D01*
X132170714Y-113737572D01*
X132207000Y-113810143D01*
X132243286Y-113846429D01*
X132315857Y-113882714D01*
X132388429Y-113882714D01*
X132497286Y-113846429D01*
X132932714Y-113411000D01*
X132932714Y-113882714D01*
X137160000Y-113048143D02*
X137196286Y-113084429D01*
X137305143Y-113120714D01*
X137377714Y-113120714D01*
X137486571Y-113084429D01*
X137559143Y-113011857D01*
X137595428Y-112939286D01*
X137631714Y-112794143D01*
X137631714Y-112685286D01*
X137595428Y-112540143D01*
X137559143Y-112467571D01*
X137486571Y-112395000D01*
X137377714Y-112358714D01*
X137305143Y-112358714D01*
X137196286Y-112395000D01*
X137160000Y-112431286D01*
X136724571Y-112685286D02*
X136797143Y-112649000D01*
X136833428Y-112612714D01*
X136869714Y-112540143D01*
X136869714Y-112503857D01*
X136833428Y-112431286D01*
X136797143Y-112395000D01*
X136724571Y-112358714D01*
X136579428Y-112358714D01*
X136506857Y-112395000D01*
X136470571Y-112431286D01*
X136434286Y-112503857D01*
X136434286Y-112540143D01*
X136470571Y-112612714D01*
X136506857Y-112649000D01*
X136579428Y-112685286D01*
X136724571Y-112685286D01*
X136797143Y-112721571D01*
X136833428Y-112757857D01*
X136869714Y-112830429D01*
X136869714Y-112975571D01*
X136833428Y-113048143D01*
X136797143Y-113084429D01*
X136724571Y-113120714D01*
X136579428Y-113120714D01*
X136506857Y-113084429D01*
X136470571Y-113048143D01*
X136434286Y-112975571D01*
X136434286Y-112830429D01*
X136470571Y-112757857D01*
X136506857Y-112721571D01*
X136579428Y-112685286D01*
X138303000Y-121629714D02*
X138557000Y-121266857D01*
X138738428Y-121629714D02*
X138738428Y-120867714D01*
X138448143Y-120867714D01*
X138375571Y-120904000D01*
X138339286Y-120940286D01*
X138303000Y-121012857D01*
X138303000Y-121121714D01*
X138339286Y-121194286D01*
X138375571Y-121230571D01*
X138448143Y-121266857D01*
X138738428Y-121266857D01*
X137649857Y-121121714D02*
X137649857Y-121629714D01*
X137831286Y-120831429D02*
X138012714Y-121375714D01*
X137541000Y-121375714D01*
X155284714Y-119888000D02*
X154921857Y-119634000D01*
X155284714Y-119452572D02*
X154522714Y-119452572D01*
X154522714Y-119742857D01*
X154559000Y-119815429D01*
X154595286Y-119851714D01*
X154667857Y-119888000D01*
X154776714Y-119888000D01*
X154849286Y-119851714D01*
X154885571Y-119815429D01*
X154921857Y-119742857D01*
X154921857Y-119452572D01*
X154522714Y-120142000D02*
X154522714Y-120650000D01*
X155284714Y-120323429D01*
X155284714Y-113538000D02*
X154921857Y-113284000D01*
X155284714Y-113102572D02*
X154522714Y-113102572D01*
X154522714Y-113392857D01*
X154559000Y-113465429D01*
X154595286Y-113501714D01*
X154667857Y-113538000D01*
X154776714Y-113538000D01*
X154849286Y-113501714D01*
X154885571Y-113465429D01*
X154921857Y-113392857D01*
X154921857Y-113102572D01*
X154849286Y-113973429D02*
X154813000Y-113900857D01*
X154776714Y-113864572D01*
X154704143Y-113828286D01*
X154667857Y-113828286D01*
X154595286Y-113864572D01*
X154559000Y-113900857D01*
X154522714Y-113973429D01*
X154522714Y-114118572D01*
X154559000Y-114191143D01*
X154595286Y-114227429D01*
X154667857Y-114263714D01*
X154704143Y-114263714D01*
X154776714Y-114227429D01*
X154813000Y-114191143D01*
X154849286Y-114118572D01*
X154849286Y-113973429D01*
X154885571Y-113900857D01*
X154921857Y-113864572D01*
X154994429Y-113828286D01*
X155139571Y-113828286D01*
X155212143Y-113864572D01*
X155248429Y-113900857D01*
X155284714Y-113973429D01*
X155284714Y-114118572D01*
X155248429Y-114191143D01*
X155212143Y-114227429D01*
X155139571Y-114263714D01*
X154994429Y-114263714D01*
X154921857Y-114227429D01*
X154885571Y-114191143D01*
X154849286Y-114118572D01*
X151637999Y-112830429D02*
X151529142Y-112866714D01*
X151347713Y-112866714D01*
X151275142Y-112830429D01*
X151238856Y-112794143D01*
X151202571Y-112721571D01*
X151202571Y-112649000D01*
X151238856Y-112576429D01*
X151275142Y-112540143D01*
X151347713Y-112503857D01*
X151492856Y-112467571D01*
X151565428Y-112431286D01*
X151601713Y-112395000D01*
X151637999Y-112322429D01*
X151637999Y-112249857D01*
X151601713Y-112177286D01*
X151565428Y-112141000D01*
X151492856Y-112104714D01*
X151311428Y-112104714D01*
X151202571Y-112141000D01*
X150948571Y-112104714D02*
X150767142Y-112866714D01*
X150621999Y-112322429D01*
X150476857Y-112866714D01*
X150295428Y-112104714D01*
X149606000Y-112866714D02*
X150041428Y-112866714D01*
X149823714Y-112866714D02*
X149823714Y-112104714D01*
X149896285Y-112213571D01*
X149968857Y-112286143D01*
X150041428Y-112322429D01*
X135370460Y-116261409D02*
X135806644Y-116697592D01*
X135832302Y-116774566D01*
X135832302Y-116825882D01*
X135806644Y-116902855D01*
X135704013Y-117005486D01*
X135627039Y-117031145D01*
X135575724Y-117031144D01*
X135498750Y-117005486D01*
X135062566Y-116569303D01*
X134857303Y-116774566D02*
X134523750Y-117108118D01*
X134908619Y-117133776D01*
X134831645Y-117210750D01*
X134805987Y-117287724D01*
X134805986Y-117339039D01*
X134831645Y-117416013D01*
X134959934Y-117544302D01*
X135036908Y-117569961D01*
X135088224Y-117569961D01*
X135165197Y-117544302D01*
X135319144Y-117390355D01*
X135344803Y-117313382D01*
X135344803Y-117262066D01*
X118672428Y-113374714D02*
X118672428Y-112612714D01*
X118491000Y-112612714D01*
X118382143Y-112649000D01*
X118309571Y-112721571D01*
X118273286Y-112794143D01*
X118237000Y-112939286D01*
X118237000Y-113048143D01*
X118273286Y-113193286D01*
X118309571Y-113265857D01*
X118382143Y-113338429D01*
X118491000Y-113374714D01*
X118672428Y-113374714D01*
X117983000Y-112612714D02*
X117511286Y-112612714D01*
X117765286Y-112903000D01*
X117656428Y-112903000D01*
X117583857Y-112939286D01*
X117547571Y-112975571D01*
X117511286Y-113048143D01*
X117511286Y-113229571D01*
X117547571Y-113302143D01*
X117583857Y-113338429D01*
X117656428Y-113374714D01*
X117874143Y-113374714D01*
X117946714Y-113338429D01*
X117983000Y-113302143D01*
X123353286Y-123625429D02*
X123317000Y-123552857D01*
X123244429Y-123480286D01*
X123135571Y-123371429D01*
X123099286Y-123298857D01*
X123099286Y-123226286D01*
X123280714Y-123262571D02*
X123244429Y-123190000D01*
X123171857Y-123117429D01*
X123026714Y-123081143D01*
X122772714Y-123081143D01*
X122627571Y-123117429D01*
X122555000Y-123190000D01*
X122518714Y-123262571D01*
X122518714Y-123407714D01*
X122555000Y-123480286D01*
X122627571Y-123552857D01*
X122772714Y-123589143D01*
X123026714Y-123589143D01*
X123171857Y-123552857D01*
X123244429Y-123480286D01*
X123280714Y-123407714D01*
X123280714Y-123262571D01*
X123280714Y-124314857D02*
X123280714Y-123879429D01*
X123280714Y-124097143D02*
X122518714Y-124097143D01*
X122627571Y-124024572D01*
X122700143Y-123952000D01*
X122736429Y-123879429D01*
X119216714Y-124079000D02*
X118853857Y-123825000D01*
X119216714Y-123643572D02*
X118454714Y-123643572D01*
X118454714Y-123933857D01*
X118491000Y-124006429D01*
X118527286Y-124042714D01*
X118599857Y-124079000D01*
X118708714Y-124079000D01*
X118781286Y-124042714D01*
X118817571Y-124006429D01*
X118853857Y-123933857D01*
X118853857Y-123643572D01*
X119216714Y-124441857D02*
X119216714Y-124587000D01*
X119180429Y-124659572D01*
X119144143Y-124695857D01*
X119035286Y-124768429D01*
X118890143Y-124804714D01*
X118599857Y-124804714D01*
X118527286Y-124768429D01*
X118491000Y-124732143D01*
X118454714Y-124659572D01*
X118454714Y-124514429D01*
X118491000Y-124441857D01*
X118527286Y-124405572D01*
X118599857Y-124369286D01*
X118781286Y-124369286D01*
X118853857Y-124405572D01*
X118890143Y-124441857D01*
X118926429Y-124514429D01*
X118926429Y-124659572D01*
X118890143Y-124732143D01*
X118853857Y-124768429D01*
X118781286Y-124804714D01*
X117692714Y-123970143D02*
X117329857Y-123716143D01*
X117692714Y-123534715D02*
X116930714Y-123534715D01*
X116930714Y-123825000D01*
X116967000Y-123897572D01*
X117003286Y-123933857D01*
X117075857Y-123970143D01*
X117184714Y-123970143D01*
X117257286Y-123933857D01*
X117293571Y-123897572D01*
X117329857Y-123825000D01*
X117329857Y-123534715D01*
X117692714Y-124695857D02*
X117692714Y-124260429D01*
X117692714Y-124478143D02*
X116930714Y-124478143D01*
X117039571Y-124405572D01*
X117112143Y-124333000D01*
X117148429Y-124260429D01*
X116930714Y-125167571D02*
X116930714Y-125240143D01*
X116967000Y-125312714D01*
X117003286Y-125349000D01*
X117075857Y-125385286D01*
X117221000Y-125421571D01*
X117402429Y-125421571D01*
X117547571Y-125385286D01*
X117620143Y-125349000D01*
X117656429Y-125312714D01*
X117692714Y-125240143D01*
X117692714Y-125167571D01*
X117656429Y-125095000D01*
X117620143Y-125058714D01*
X117547571Y-125022429D01*
X117402429Y-124986143D01*
X117221000Y-124986143D01*
X117075857Y-125022429D01*
X117003286Y-125058714D01*
X116967000Y-125095000D01*
X116930714Y-125167571D01*
X127344714Y-112032143D02*
X126981857Y-111778143D01*
X127344714Y-111596715D02*
X126582714Y-111596715D01*
X126582714Y-111887000D01*
X126619000Y-111959572D01*
X126655286Y-111995857D01*
X126727857Y-112032143D01*
X126836714Y-112032143D01*
X126909286Y-111995857D01*
X126945571Y-111959572D01*
X126981857Y-111887000D01*
X126981857Y-111596715D01*
X127344714Y-112757857D02*
X127344714Y-112322429D01*
X127344714Y-112540143D02*
X126582714Y-112540143D01*
X126691571Y-112467572D01*
X126764143Y-112395000D01*
X126800429Y-112322429D01*
X127344714Y-113483571D02*
X127344714Y-113048143D01*
X127344714Y-113265857D02*
X126582714Y-113265857D01*
X126691571Y-113193286D01*
X126764143Y-113120714D01*
X126800429Y-113048143D01*
X146830143Y-120922143D02*
X146866429Y-120885857D01*
X146902714Y-120777000D01*
X146902714Y-120704429D01*
X146866429Y-120595572D01*
X146793857Y-120523000D01*
X146721286Y-120486715D01*
X146576143Y-120450429D01*
X146467286Y-120450429D01*
X146322143Y-120486715D01*
X146249571Y-120523000D01*
X146177000Y-120595572D01*
X146140714Y-120704429D01*
X146140714Y-120777000D01*
X146177000Y-120885857D01*
X146213286Y-120922143D01*
X146902714Y-121647857D02*
X146902714Y-121212429D01*
X146902714Y-121430143D02*
X146140714Y-121430143D01*
X146249571Y-121357572D01*
X146322143Y-121285000D01*
X146358429Y-121212429D01*
X146213286Y-121938143D02*
X146177000Y-121974429D01*
X146140714Y-122047000D01*
X146140714Y-122228429D01*
X146177000Y-122301000D01*
X146213286Y-122337286D01*
X146285857Y-122373571D01*
X146358429Y-122373571D01*
X146467286Y-122337286D01*
X146902714Y-121901857D01*
X146902714Y-122373571D01*
X134474857Y-108222143D02*
X134511143Y-108258429D01*
X134620000Y-108294714D01*
X134692571Y-108294714D01*
X134801428Y-108258429D01*
X134874000Y-108185857D01*
X134910285Y-108113286D01*
X134946571Y-107968143D01*
X134946571Y-107859286D01*
X134910285Y-107714143D01*
X134874000Y-107641571D01*
X134801428Y-107569000D01*
X134692571Y-107532714D01*
X134620000Y-107532714D01*
X134511143Y-107569000D01*
X134474857Y-107605286D01*
X133749143Y-108294714D02*
X134184571Y-108294714D01*
X133966857Y-108294714D02*
X133966857Y-107532714D01*
X134039428Y-107641571D01*
X134112000Y-107714143D01*
X134184571Y-107750429D01*
X133023429Y-108294714D02*
X133458857Y-108294714D01*
X133241143Y-108294714D02*
X133241143Y-107532714D01*
X133313714Y-107641571D01*
X133386286Y-107714143D01*
X133458857Y-107750429D01*
M02*
