G04 #@! TF.FileFunction,Soldermask,Top*
%FSLAX46Y46*%
G04 Gerber Fmt 4.6, Leading zero omitted, Abs format (unit mm)*
G04 Created by KiCad (PCBNEW 4.0.7-e2-6376~58~ubuntu16.04.1) date Wed May 16 21:29:31 2018*
%MOMM*%
%LPD*%
G01*
G04 APERTURE LIST*
%ADD10C,0.150000*%
%ADD11R,2.000000X3.800000*%
%ADD12R,2.000000X1.500000*%
%ADD13C,3.810000*%
%ADD14R,1.143000X0.508000*%
%ADD15R,0.800100X1.000760*%
%ADD16R,0.500380X2.301240*%
%ADD17R,1.998980X2.499360*%
%ADD18C,1.100000*%
%ADD19C,3.200000*%
%ADD20C,1.800000*%
%ADD21R,3.657600X2.032000*%
%ADD22R,1.016000X2.032000*%
%ADD23R,1.778000X1.778000*%
%ADD24C,1.778000*%
%ADD25R,1.600000X2.000000*%
%ADD26R,0.500000X0.900000*%
%ADD27R,0.599440X1.399540*%
%ADD28R,0.850000X0.540000*%
%ADD29R,0.540000X0.850000*%
%ADD30R,1.397000X1.397000*%
%ADD31C,1.397000*%
%ADD32R,3.500120X3.500120*%
%ADD33R,1.000000X1.250000*%
%ADD34R,0.900000X0.500000*%
%ADD35R,0.800000X0.800000*%
%ADD36R,0.750000X0.800000*%
%ADD37R,0.800000X0.750000*%
%ADD38C,4.500000*%
G04 APERTURE END LIST*
D10*
D11*
X42062000Y-105156000D03*
D12*
X48362000Y-105156000D03*
X48362000Y-102856000D03*
X48362000Y-107456000D03*
D13*
X36068000Y-121790000D03*
X36068000Y-99190000D03*
D14*
X46863000Y-87503000D03*
X46863000Y-88773000D03*
X46863000Y-90043000D03*
X46863000Y-91313000D03*
X40513000Y-91313000D03*
X40513000Y-90043000D03*
X40513000Y-88773000D03*
X40513000Y-87503000D03*
D15*
X65024000Y-91015820D03*
X64071500Y-88816180D03*
X65976500Y-88816180D03*
D16*
X113893600Y-117200680D03*
X114693700Y-117200680D03*
X115493800Y-117200680D03*
X116293900Y-117200680D03*
X117094000Y-117200680D03*
D17*
X111043720Y-117299740D03*
X111043720Y-122798840D03*
X119943880Y-117299740D03*
X119943880Y-122798840D03*
D18*
X113294160Y-119799100D03*
X117693440Y-119799100D03*
D19*
X46736000Y-74676000D03*
X36576000Y-74676000D03*
D20*
X43561000Y-81026000D03*
X42291000Y-83566000D03*
X41021000Y-81026000D03*
X39751000Y-83566000D03*
D15*
X36576000Y-91015820D03*
X35623500Y-88816180D03*
X37528500Y-88816180D03*
D21*
X105460800Y-100380800D03*
D22*
X105460800Y-106984800D03*
X107746800Y-106984800D03*
X103174800Y-106984800D03*
D23*
X53517800Y-115366800D03*
D24*
X53517800Y-120446800D03*
D25*
X125222000Y-98966000D03*
X125222000Y-93566000D03*
D26*
X57442800Y-122986800D03*
X55942800Y-122986800D03*
D27*
X88823800Y-104063800D03*
X88823800Y-109397800D03*
X90093800Y-104063800D03*
X91363800Y-104063800D03*
X92633800Y-104063800D03*
X90093800Y-109397800D03*
X91363800Y-109397800D03*
X92633800Y-109397800D03*
D19*
X60960000Y-74676000D03*
X50800000Y-74676000D03*
D20*
X57785000Y-81026000D03*
X56515000Y-83566000D03*
X55245000Y-81026000D03*
X53975000Y-83566000D03*
D19*
X75184000Y-74676000D03*
X65024000Y-74676000D03*
D20*
X72009000Y-81026000D03*
X70739000Y-83566000D03*
X69469000Y-81026000D03*
X68199000Y-83566000D03*
D19*
X89408000Y-74676000D03*
X79248000Y-74676000D03*
D20*
X86233000Y-81026000D03*
X84963000Y-83566000D03*
X83693000Y-81026000D03*
X82423000Y-83566000D03*
D19*
X103632000Y-74676000D03*
X93472000Y-74676000D03*
D20*
X100457000Y-81026000D03*
X99187000Y-83566000D03*
X97917000Y-81026000D03*
X96647000Y-83566000D03*
D19*
X117856000Y-74676000D03*
X107696000Y-74676000D03*
D20*
X114681000Y-81026000D03*
X113411000Y-83566000D03*
X112141000Y-81026000D03*
X110871000Y-83566000D03*
D14*
X85648800Y-114350800D03*
X85648800Y-115620800D03*
X85648800Y-116890800D03*
X85648800Y-118160800D03*
X85648800Y-119430800D03*
X85648800Y-120700800D03*
X85648800Y-121970800D03*
X90982800Y-121970800D03*
X90982800Y-120700800D03*
X90982800Y-119430800D03*
X90982800Y-118160800D03*
X90982800Y-116890800D03*
X90982800Y-115620800D03*
X90982800Y-114350800D03*
D27*
X62407800Y-104063800D03*
X62407800Y-109397800D03*
X63677800Y-104063800D03*
X64947800Y-104063800D03*
X66217800Y-104063800D03*
X63677800Y-109397800D03*
X64947800Y-109397800D03*
X66217800Y-109397800D03*
X69011800Y-104063800D03*
X69011800Y-109397800D03*
X70281800Y-104063800D03*
X71551800Y-104063800D03*
X72821800Y-104063800D03*
X70281800Y-109397800D03*
X71551800Y-109397800D03*
X72821800Y-109397800D03*
D15*
X50800000Y-91015820D03*
X49847500Y-88816180D03*
X51752500Y-88816180D03*
D27*
X75615800Y-104063800D03*
X75615800Y-109397800D03*
X76885800Y-104063800D03*
X78155800Y-104063800D03*
X79425800Y-104063800D03*
X76885800Y-109397800D03*
X78155800Y-109397800D03*
X79425800Y-109397800D03*
X82219800Y-104063800D03*
X82219800Y-109397800D03*
X83489800Y-104063800D03*
X84759800Y-104063800D03*
X86029800Y-104063800D03*
X83489800Y-109397800D03*
X84759800Y-109397800D03*
X86029800Y-109397800D03*
D15*
X79248000Y-91015820D03*
X78295500Y-88816180D03*
X80200500Y-88816180D03*
X93472000Y-91015820D03*
X92519500Y-88816180D03*
X94424500Y-88816180D03*
D27*
X95427800Y-104063800D03*
X95427800Y-109397800D03*
X96697800Y-104063800D03*
X97967800Y-104063800D03*
X99237800Y-104063800D03*
X96697800Y-109397800D03*
X97967800Y-109397800D03*
X99237800Y-109397800D03*
D15*
X107696000Y-91015820D03*
X106743500Y-88816180D03*
X108648500Y-88816180D03*
D28*
X98645800Y-121595800D03*
X98645800Y-120795800D03*
X98645800Y-119995800D03*
X98645800Y-119195800D03*
X98645800Y-118395800D03*
X98645800Y-117595800D03*
X98645800Y-116795800D03*
X98645800Y-115995800D03*
X98645800Y-115995800D03*
X98645800Y-116795800D03*
X98645800Y-117595800D03*
X98645800Y-118395800D03*
X98645800Y-119195800D03*
X98645800Y-119995800D03*
X98645800Y-120795800D03*
X98645800Y-121595800D03*
X98645800Y-121595800D03*
X98645800Y-120795800D03*
X98645800Y-119995800D03*
X98645800Y-119195800D03*
X98645800Y-118395800D03*
X98645800Y-117595800D03*
X98645800Y-116795800D03*
X98645800Y-115995800D03*
X98645800Y-115995800D03*
X98645800Y-116795800D03*
X98645800Y-117595800D03*
X98645800Y-118395800D03*
X98645800Y-119195800D03*
X98645800Y-119995800D03*
X98645800Y-120795800D03*
X98645800Y-121595800D03*
D29*
X100120800Y-123070800D03*
X100920800Y-123070800D03*
X101720800Y-123070800D03*
X102520800Y-123070800D03*
X103320800Y-123070800D03*
X104120800Y-123070800D03*
X104920800Y-123070800D03*
X105720800Y-123070800D03*
D28*
X107195800Y-121595800D03*
X107195800Y-120795800D03*
X107195800Y-119995800D03*
X107195800Y-119195800D03*
X107195800Y-118395800D03*
X107195800Y-117595800D03*
X107195800Y-116795800D03*
X107195800Y-115995800D03*
D29*
X105720800Y-114520800D03*
X104920800Y-114520800D03*
X104120800Y-114520800D03*
X103320800Y-114520800D03*
X102520800Y-114520800D03*
X101720800Y-114520800D03*
X100920800Y-114520800D03*
X100120800Y-114520800D03*
D30*
X112572800Y-111302800D03*
D31*
X115112800Y-111302800D03*
X117652800Y-111302800D03*
X120192800Y-111302800D03*
D32*
X44704000Y-116227860D03*
X44704000Y-122227340D03*
X49403000Y-119227600D03*
D33*
X110810800Y-106095800D03*
X112810800Y-106095800D03*
X110810800Y-108381800D03*
X112810800Y-108381800D03*
D26*
X125972000Y-90424000D03*
X124472000Y-90424000D03*
D34*
X62534800Y-100392800D03*
X62534800Y-101892800D03*
X64312800Y-101892800D03*
X64312800Y-100392800D03*
X66090800Y-100392800D03*
X66090800Y-101892800D03*
D26*
X40652000Y-93980000D03*
X42152000Y-93980000D03*
D34*
X69138800Y-100392800D03*
X69138800Y-101892800D03*
X70916800Y-101892800D03*
X70916800Y-100392800D03*
X72694800Y-100392800D03*
X72694800Y-101892800D03*
D26*
X54876000Y-93980000D03*
X56376000Y-93980000D03*
D34*
X75742800Y-100392800D03*
X75742800Y-101892800D03*
X77520800Y-101892800D03*
X77520800Y-100392800D03*
X79298800Y-100392800D03*
X79298800Y-101892800D03*
D26*
X69100000Y-93980000D03*
X70600000Y-93980000D03*
D34*
X82346800Y-100392800D03*
X82346800Y-101892800D03*
X84124800Y-101892800D03*
X84124800Y-100392800D03*
X85902800Y-100392800D03*
X85902800Y-101892800D03*
D26*
X83324000Y-94234000D03*
X84824000Y-94234000D03*
D34*
X88950800Y-100392800D03*
X88950800Y-101892800D03*
X90728800Y-101892800D03*
X90728800Y-100392800D03*
X92506800Y-100392800D03*
X92506800Y-101892800D03*
D26*
X97548000Y-94234000D03*
X99048000Y-94234000D03*
D34*
X95554800Y-100392800D03*
X95554800Y-101892800D03*
X97332800Y-101892800D03*
X97332800Y-100392800D03*
X99110800Y-100392800D03*
X99110800Y-101892800D03*
D26*
X111772000Y-94234000D03*
X113272000Y-94234000D03*
X119138000Y-106680000D03*
X120638000Y-106680000D03*
D33*
X104378000Y-109474000D03*
X102378000Y-109474000D03*
D35*
X125768000Y-102616000D03*
X124168000Y-102616000D03*
X125768000Y-104648000D03*
X124168000Y-104648000D03*
X46774000Y-93980000D03*
X45174000Y-93980000D03*
X60998000Y-93980000D03*
X59398000Y-93980000D03*
X75222000Y-93980000D03*
X73622000Y-93980000D03*
X89446000Y-94234000D03*
X87846000Y-94234000D03*
X103670000Y-94234000D03*
X102070000Y-94234000D03*
X117894000Y-94234000D03*
X116294000Y-94234000D03*
X125768000Y-108712000D03*
X124168000Y-108712000D03*
X125768000Y-106680000D03*
X124168000Y-106680000D03*
D14*
X61087000Y-87503000D03*
X61087000Y-88773000D03*
X61087000Y-90043000D03*
X61087000Y-91313000D03*
X54737000Y-91313000D03*
X54737000Y-90043000D03*
X54737000Y-88773000D03*
X54737000Y-87503000D03*
X75311000Y-87503000D03*
X75311000Y-88773000D03*
X75311000Y-90043000D03*
X75311000Y-91313000D03*
X68961000Y-91313000D03*
X68961000Y-90043000D03*
X68961000Y-88773000D03*
X68961000Y-87503000D03*
X89535000Y-87503000D03*
X89535000Y-88773000D03*
X89535000Y-90043000D03*
X89535000Y-91313000D03*
X83185000Y-91313000D03*
X83185000Y-90043000D03*
X83185000Y-88773000D03*
X83185000Y-87503000D03*
X103759000Y-87503000D03*
X103759000Y-88773000D03*
X103759000Y-90043000D03*
X103759000Y-91313000D03*
X97409000Y-91313000D03*
X97409000Y-90043000D03*
X97409000Y-88773000D03*
X97409000Y-87503000D03*
X117983000Y-87503000D03*
X117983000Y-88773000D03*
X117983000Y-90043000D03*
X117983000Y-91313000D03*
X111633000Y-91313000D03*
X111633000Y-90043000D03*
X111633000Y-88773000D03*
X111633000Y-87503000D03*
D36*
X93141800Y-122974800D03*
X93141800Y-121474800D03*
D37*
X98336800Y-114477800D03*
X96836800Y-114477800D03*
D36*
X61010800Y-102424800D03*
X61010800Y-103924800D03*
X67614800Y-102424800D03*
X67614800Y-103924800D03*
X74218800Y-102424800D03*
X74218800Y-103924800D03*
X80822800Y-102424800D03*
X80822800Y-103924800D03*
X87426800Y-102424800D03*
X87426800Y-103924800D03*
X94030800Y-102424800D03*
X94030800Y-103924800D03*
D37*
X107200000Y-123190000D03*
X108700000Y-123190000D03*
D26*
X119138000Y-102616000D03*
X120638000Y-102616000D03*
X119138000Y-104648000D03*
X120638000Y-104648000D03*
D34*
X60756800Y-109282800D03*
X60756800Y-110782800D03*
X67614800Y-109282800D03*
X67614800Y-110782800D03*
X74218800Y-109282800D03*
X74218800Y-110782800D03*
X80822800Y-109282800D03*
X80822800Y-110782800D03*
X87426800Y-109282800D03*
X87426800Y-110782800D03*
X94030800Y-109282800D03*
X94030800Y-110782800D03*
D26*
X119138000Y-108712000D03*
X120638000Y-108712000D03*
D38*
X27940000Y-76200000D03*
X27940000Y-120650000D03*
X125730000Y-120650000D03*
X125730000Y-76200000D03*
D33*
X52848000Y-102108000D03*
X54848000Y-102108000D03*
D26*
X53098000Y-105156000D03*
X54598000Y-105156000D03*
X53098000Y-108204000D03*
X54598000Y-108204000D03*
M02*
