M48
;DRILL file {KiCad 4.0.7-e2-6376~58~ubuntu16.04.1} date Tue May 15 22:22:09 2018
;FORMAT={-:-/ absolute / metric / decimal}
FMAT,2
METRIC,TZ
T1C0.381
T2C0.635
T3C0.813
T4C0.900
T5C1.001
T6C1.016
T7C1.905
T8C2.700
%
G90
G05
M71
T1
X36.576Y-89.916
X42.926Y-88.9
X50.8Y-89.662
X56.693Y-117.145
X56.693Y-118.923
X56.693Y-120.701
X56.896Y-88.9
X62.408Y-106.477
X63.678Y-112.319
X64.948Y-112.319
X65.024Y-89.916
X65.075Y-116.891
X65.075Y-118.923
X66.091Y-115.875
X66.091Y-117.907
X66.091Y-119.939
X66.218Y-107.62
X66.218Y-111.303
X67.615Y-99.746
X67.615Y-106.477
X69.012Y-106.477
X70.282Y-112.319
X71.12Y-88.9
X71.552Y-112.319
X72.822Y-107.62
X72.822Y-111.303
X74.219Y-106.477
X74.231Y-99.758
X75.616Y-106.477
X76.886Y-112.319
X78.029Y-120.193
X78.232Y-112.268
X79.248Y-89.916
X79.426Y-107.62
X79.426Y-111.303
X80.823Y-106.477
X82.22Y-106.477
X83.49Y-112.319
X84.76Y-112.319
X85.09Y-88.9
X86.03Y-107.493
X86.03Y-111.303
X87.427Y-106.477
X87.427Y-116.129
X88.189Y-117.653
X88.824Y-106.477
X90.094Y-112.319
X91.364Y-112.319
X92.634Y-107.493
X92.634Y-111.303
X93.472Y-89.916
X93.777Y-117.018
X94.031Y-106.477
X94.031Y-120.447
X94.92Y-117.018
X95.301Y-120.447
X95.428Y-106.477
X96.063Y-119.685
X96.317Y-116.891
X96.698Y-112.319
X97.079Y-117.653
X97.968Y-112.319
X99.238Y-111.303
X99.314Y-88.9
X99.314Y-105.664
X100.127Y-116.129
X100.127Y-121.717
X100.635Y-102.667
X100.889Y-120.955
X101.143Y-112.954
X101.6Y-116.078
X101.651Y-121.717
X102.159Y-103.937
X102.413Y-112.954
X102.413Y-120.955
X103.175Y-121.717
X103.683Y-113.081
X103.937Y-103.937
X103.937Y-115.748
X103.937Y-120.955
X104.064Y-118.923
X104.699Y-121.717
X105.715Y-119.177
X107.366Y-104.699
X107.696Y-89.916
X108.382Y-104.699
X108.636Y-119.558
X110.998Y-120.65
X111.76Y-101.194
X112.522Y-115.316
X113.538Y-88.9
X113.843Y-121.717
X114.478Y-102.921
X114.478Y-104.826
X115.621Y-121.717
X117.399Y-121.717
X122.428Y-100.584
T2
X45.212Y-87.63
X45.212Y-88.9
X45.212Y-90.17
X45.212Y-91.44
X59.182Y-87.63
X59.182Y-88.9
X59.182Y-90.17
X59.182Y-91.44
X73.406Y-87.63
X73.406Y-88.9
X73.406Y-90.17
X73.406Y-91.44
X87.376Y-87.63
X87.376Y-88.9
X87.376Y-90.17
X87.376Y-91.44
X101.6Y-87.63
X101.6Y-88.9
X101.6Y-90.17
X101.6Y-91.44
X114.554Y-106.934
X115.824Y-87.63
X115.824Y-88.9
X115.824Y-90.17
X115.824Y-91.44
T3
X112.573Y-111.303
X115.113Y-111.303
X117.653Y-111.303
X120.193Y-111.303
T4
X39.751Y-83.566
X41.021Y-81.026
X42.291Y-83.566
X43.561Y-81.026
X53.975Y-83.566
X55.245Y-81.026
X56.515Y-83.566
X57.785Y-81.026
X68.199Y-83.566
X69.469Y-81.026
X70.739Y-83.566
X72.009Y-81.026
X82.423Y-83.566
X83.693Y-81.026
X84.963Y-83.566
X86.233Y-81.026
X96.647Y-83.566
X97.917Y-81.026
X99.187Y-83.566
X100.457Y-81.026
X110.871Y-83.566
X112.141Y-81.026
X113.411Y-83.566
X114.681Y-81.026
T6
X53.518Y-115.367
X53.518Y-120.447
T7
X36.068Y-99.19
X36.068Y-121.79
T8
X27.94Y-76.2
X27.94Y-120.65
X125.73Y-76.2
X125.73Y-120.65
T5
X43.705Y-116.228G85X45.703Y-116.228
G05
X43.705Y-122.227G85X45.703Y-122.227
G05
X49.403Y-120.227G85X49.403Y-118.228
G05
T0
M30
