%FSLAX45Y45*%
G04 Gerber Fmt 4.5, Leading zero omitted, Abs format (unit mm)*
G04 Created by KiCad (PCBNEW 4.0.7-e2-6376~58~ubuntu16.04.1) date Sun Apr  1 15:38:32 2018*
%MOMM*%
%LPD*%
G01*
G04 APERTURE LIST*
%ADD10C,0.127000*%
%ADD11C,0.100000*%
%ADD12C,0.200000*%
%ADD13C,0.300000*%
G04 APERTURE END LIST*
D10*
D11*
X2413000Y-12446000D02*
X2413000Y-6731000D01*
X12954000Y-12446000D02*
X2413000Y-12446000D01*
X12954000Y-6731000D02*
X12954000Y-12446000D01*
X2413000Y-6731000D02*
X12954000Y-6731000D01*
D12*
X3638550Y-8337550D02*
X3676650Y-8375650D01*
X3676650Y-8337550D02*
X3638550Y-8375650D01*
X3999230Y-10831830D02*
X4037330Y-10869930D01*
X4037330Y-10831830D02*
X3999230Y-10869930D01*
X4375150Y-9150350D02*
X4413250Y-9188450D01*
X4413250Y-9150350D02*
X4375150Y-9188450D01*
X4685030Y-10425430D02*
X4723130Y-10463530D01*
X4723130Y-10425430D02*
X4685030Y-10463530D01*
X4705350Y-9226550D02*
X4743450Y-9264650D01*
X4743450Y-9226550D02*
X4705350Y-9264650D01*
X4837430Y-11111230D02*
X4875530Y-11149330D01*
X4875530Y-11111230D02*
X4837430Y-11149330D01*
X5060950Y-8337550D02*
X5099050Y-8375650D01*
X5099050Y-8337550D02*
X5060950Y-8375650D01*
X5650230Y-11695430D02*
X5688330Y-11733530D01*
X5688330Y-11695430D02*
X5650230Y-11733530D01*
X5650230Y-11873230D02*
X5688330Y-11911330D01*
X5688330Y-11873230D02*
X5650230Y-11911330D01*
X5650230Y-12051030D02*
X5688330Y-12089130D01*
X5688330Y-12051030D02*
X5650230Y-12089130D01*
X5772150Y-9150350D02*
X5810250Y-9188450D01*
X5810250Y-9150350D02*
X5772150Y-9188450D01*
X6127750Y-9226550D02*
X6165850Y-9264650D01*
X6165850Y-9226550D02*
X6127750Y-9264650D01*
X6221730Y-10628630D02*
X6259830Y-10666730D01*
X6259830Y-10628630D02*
X6221730Y-10666730D01*
X6348730Y-11212830D02*
X6386830Y-11250930D01*
X6386830Y-11212830D02*
X6348730Y-11250930D01*
X6475730Y-11212830D02*
X6513830Y-11250930D01*
X6513830Y-11212830D02*
X6475730Y-11250930D01*
X6483350Y-8337550D02*
X6521450Y-8375650D01*
X6521450Y-8337550D02*
X6483350Y-8375650D01*
X6488430Y-11670030D02*
X6526530Y-11708130D01*
X6526530Y-11670030D02*
X6488430Y-11708130D01*
X6488430Y-11873230D02*
X6526530Y-11911330D01*
X6526530Y-11873230D02*
X6488430Y-11911330D01*
X6590030Y-11568430D02*
X6628130Y-11606530D01*
X6628130Y-11568430D02*
X6590030Y-11606530D01*
X6590030Y-11771630D02*
X6628130Y-11809730D01*
X6628130Y-11771630D02*
X6590030Y-11809730D01*
X6590030Y-11974830D02*
X6628130Y-12012930D01*
X6628130Y-11974830D02*
X6590030Y-12012930D01*
X6602730Y-10742930D02*
X6640830Y-10781030D01*
X6640830Y-10742930D02*
X6602730Y-10781030D01*
X6602730Y-11111230D02*
X6640830Y-11149330D01*
X6640830Y-11111230D02*
X6602730Y-11149330D01*
X6742430Y-9955530D02*
X6780530Y-9993630D01*
X6780530Y-9955530D02*
X6742430Y-9993630D01*
X6742430Y-10628630D02*
X6780530Y-10666730D01*
X6780530Y-10628630D02*
X6742430Y-10666730D01*
X6882130Y-10628630D02*
X6920230Y-10666730D01*
X6920230Y-10628630D02*
X6882130Y-10666730D01*
X7009130Y-11212830D02*
X7047230Y-11250930D01*
X7047230Y-11212830D02*
X7009130Y-11250930D01*
X7136130Y-11212830D02*
X7174230Y-11250930D01*
X7174230Y-11212830D02*
X7136130Y-11250930D01*
X7194550Y-9150350D02*
X7232650Y-9188450D01*
X7232650Y-9150350D02*
X7194550Y-9188450D01*
X7263130Y-10742930D02*
X7301230Y-10781030D01*
X7301230Y-10742930D02*
X7263130Y-10781030D01*
X7263130Y-11111230D02*
X7301230Y-11149330D01*
X7301230Y-11111230D02*
X7263130Y-11149330D01*
X7402830Y-9955530D02*
X7440930Y-9993630D01*
X7440930Y-9955530D02*
X7402830Y-9993630D01*
X7402830Y-10628630D02*
X7440930Y-10666730D01*
X7440930Y-10628630D02*
X7402830Y-10666730D01*
X7542530Y-10628630D02*
X7580630Y-10666730D01*
X7580630Y-10628630D02*
X7542530Y-10666730D01*
X7550150Y-9226550D02*
X7588250Y-9264650D01*
X7588250Y-9226550D02*
X7550150Y-9264650D01*
X7669530Y-11212830D02*
X7707630Y-11250930D01*
X7707630Y-11212830D02*
X7669530Y-11250930D01*
X7783830Y-12000230D02*
X7821930Y-12038330D01*
X7821930Y-12000230D02*
X7783830Y-12038330D01*
X7796530Y-11212830D02*
X7834630Y-11250930D01*
X7834630Y-11212830D02*
X7796530Y-11250930D01*
X7905750Y-8337550D02*
X7943850Y-8375650D01*
X7943850Y-8337550D02*
X7905750Y-8375650D01*
X7923530Y-10742930D02*
X7961630Y-10781030D01*
X7961630Y-10742930D02*
X7923530Y-10781030D01*
X7923530Y-11111230D02*
X7961630Y-11149330D01*
X7961630Y-11111230D02*
X7923530Y-11149330D01*
X8063230Y-9955530D02*
X8101330Y-9993630D01*
X8101330Y-9955530D02*
X8063230Y-9993630D01*
X8063230Y-10628630D02*
X8101330Y-10666730D01*
X8101330Y-10628630D02*
X8063230Y-10666730D01*
X8202930Y-10628630D02*
X8241030Y-10666730D01*
X8241030Y-10628630D02*
X8202930Y-10666730D01*
X8329930Y-11212830D02*
X8368030Y-11250930D01*
X8368030Y-11212830D02*
X8329930Y-11250930D01*
X8456930Y-11212830D02*
X8495030Y-11250930D01*
X8495030Y-11212830D02*
X8456930Y-11250930D01*
X8583930Y-10730230D02*
X8622030Y-10768330D01*
X8622030Y-10730230D02*
X8583930Y-10768330D01*
X8583930Y-11111230D02*
X8622030Y-11149330D01*
X8622030Y-11111230D02*
X8583930Y-11149330D01*
X8616950Y-9150350D02*
X8655050Y-9188450D01*
X8655050Y-9150350D02*
X8616950Y-9188450D01*
X8723630Y-9955530D02*
X8761730Y-9993630D01*
X8761730Y-9955530D02*
X8723630Y-9993630D01*
X8723630Y-10628630D02*
X8761730Y-10666730D01*
X8761730Y-10628630D02*
X8723630Y-10666730D01*
X8723630Y-11593830D02*
X8761730Y-11631930D01*
X8761730Y-11593830D02*
X8723630Y-11631930D01*
X8799830Y-11746230D02*
X8837930Y-11784330D01*
X8837930Y-11746230D02*
X8799830Y-11784330D01*
X8863330Y-10628630D02*
X8901430Y-10666730D01*
X8901430Y-10628630D02*
X8863330Y-10666730D01*
X8972550Y-9226550D02*
X9010650Y-9264650D01*
X9010650Y-9226550D02*
X8972550Y-9264650D01*
X8990330Y-11212830D02*
X9028430Y-11250930D01*
X9028430Y-11212830D02*
X8990330Y-11250930D01*
X9117330Y-11212830D02*
X9155430Y-11250930D01*
X9155430Y-11212830D02*
X9117330Y-11250930D01*
X9244330Y-10730230D02*
X9282430Y-10768330D01*
X9282430Y-10730230D02*
X9244330Y-10768330D01*
X9244330Y-11111230D02*
X9282430Y-11149330D01*
X9282430Y-11111230D02*
X9244330Y-11149330D01*
X9328150Y-8337550D02*
X9366250Y-8375650D01*
X9366250Y-8337550D02*
X9328150Y-8375650D01*
X9358630Y-11682730D02*
X9396730Y-11720830D01*
X9396730Y-11682730D02*
X9358630Y-11720830D01*
X9384030Y-9955530D02*
X9422130Y-9993630D01*
X9422130Y-9955530D02*
X9384030Y-9993630D01*
X9384030Y-10628630D02*
X9422130Y-10666730D01*
X9422130Y-10628630D02*
X9384030Y-10666730D01*
X9384030Y-12025630D02*
X9422130Y-12063730D01*
X9422130Y-12025630D02*
X9384030Y-12063730D01*
X9472930Y-11682730D02*
X9511030Y-11720830D01*
X9511030Y-11682730D02*
X9472930Y-11720830D01*
X9511030Y-12025630D02*
X9549130Y-12063730D01*
X9549130Y-12025630D02*
X9511030Y-12063730D01*
X9523730Y-10628630D02*
X9561830Y-10666730D01*
X9561830Y-10628630D02*
X9523730Y-10666730D01*
X9587230Y-11949430D02*
X9625330Y-11987530D01*
X9625330Y-11949430D02*
X9587230Y-11987530D01*
X9612630Y-11670030D02*
X9650730Y-11708130D01*
X9650730Y-11670030D02*
X9612630Y-11708130D01*
X9650730Y-11212830D02*
X9688830Y-11250930D01*
X9688830Y-11212830D02*
X9650730Y-11250930D01*
X9688830Y-11746230D02*
X9726930Y-11784330D01*
X9726930Y-11746230D02*
X9688830Y-11784330D01*
X9777730Y-11212830D02*
X9815830Y-11250930D01*
X9815830Y-11212830D02*
X9777730Y-11250930D01*
X9904730Y-11111230D02*
X9942830Y-11149330D01*
X9942830Y-11111230D02*
X9904730Y-11149330D01*
X9993630Y-11593830D02*
X10031730Y-11631930D01*
X10031730Y-11593830D02*
X9993630Y-11631930D01*
X9993630Y-12152630D02*
X10031730Y-12190730D01*
X10031730Y-12152630D02*
X9993630Y-12190730D01*
X10039350Y-9150350D02*
X10077450Y-9188450D01*
X10077450Y-9150350D02*
X10039350Y-9188450D01*
X10044430Y-10247630D02*
X10082530Y-10285730D01*
X10082530Y-10247630D02*
X10044430Y-10285730D01*
X10069830Y-11720830D02*
X10107930Y-11758930D01*
X10107930Y-11720830D02*
X10069830Y-11758930D01*
X10069830Y-12076430D02*
X10107930Y-12114530D01*
X10107930Y-12076430D02*
X10069830Y-12114530D01*
X10095230Y-11276330D02*
X10133330Y-11314430D01*
X10133330Y-11276330D02*
X10095230Y-11314430D01*
X10146030Y-12152630D02*
X10184130Y-12190730D01*
X10184130Y-12152630D02*
X10146030Y-12190730D01*
X10196830Y-10374630D02*
X10234930Y-10412730D01*
X10234930Y-10374630D02*
X10196830Y-10412730D01*
X10222230Y-11276330D02*
X10260330Y-11314430D01*
X10260330Y-11276330D02*
X10222230Y-11314430D01*
X10222230Y-12076430D02*
X10260330Y-12114530D01*
X10260330Y-12076430D02*
X10222230Y-12114530D01*
X10298430Y-12152630D02*
X10336530Y-12190730D01*
X10336530Y-12152630D02*
X10298430Y-12190730D01*
X10349230Y-11289030D02*
X10387330Y-11327130D01*
X10387330Y-11289030D02*
X10349230Y-11327130D01*
X10374630Y-10374630D02*
X10412730Y-10412730D01*
X10412730Y-10374630D02*
X10374630Y-10412730D01*
X10374630Y-11555730D02*
X10412730Y-11593830D01*
X10412730Y-11555730D02*
X10374630Y-11593830D01*
X10374630Y-12076430D02*
X10412730Y-12114530D01*
X10412730Y-12076430D02*
X10374630Y-12114530D01*
X10387330Y-11873230D02*
X10425430Y-11911330D01*
X10425430Y-11873230D02*
X10387330Y-11911330D01*
X10394950Y-9226550D02*
X10433050Y-9264650D01*
X10433050Y-9226550D02*
X10394950Y-9264650D01*
X10450830Y-12152630D02*
X10488930Y-12190730D01*
X10488930Y-12152630D02*
X10450830Y-12190730D01*
X10552430Y-11898630D02*
X10590530Y-11936730D01*
X10590530Y-11898630D02*
X10552430Y-11936730D01*
X10717530Y-10450830D02*
X10755630Y-10488930D01*
X10755630Y-10450830D02*
X10717530Y-10488930D01*
X10730230Y-11479530D02*
X10768330Y-11517630D01*
X10768330Y-11479530D02*
X10730230Y-11517630D01*
X10750550Y-8337550D02*
X10788650Y-8375650D01*
X10788650Y-8337550D02*
X10750550Y-8375650D01*
X10819130Y-10450830D02*
X10857230Y-10488930D01*
X10857230Y-10450830D02*
X10819130Y-10488930D01*
X10844530Y-11936730D02*
X10882630Y-11974830D01*
X10882630Y-11936730D02*
X10844530Y-11974830D01*
X10933430Y-12330430D02*
X10971530Y-12368530D01*
X10971530Y-12330430D02*
X10933430Y-12368530D01*
X10958830Y-11187430D02*
X10996930Y-11225530D01*
X10996930Y-11187430D02*
X10958830Y-11225530D01*
X11156950Y-10100310D02*
X11195050Y-10138410D01*
X11195050Y-10100310D02*
X11156950Y-10138410D01*
X11233150Y-11512550D02*
X11271250Y-11550650D01*
X11271250Y-11512550D02*
X11233150Y-11550650D01*
X11365230Y-12152630D02*
X11403330Y-12190730D01*
X11403330Y-12152630D02*
X11365230Y-12190730D01*
X11428730Y-10273030D02*
X11466830Y-10311130D01*
X11466830Y-10273030D02*
X11428730Y-10311130D01*
X11428730Y-10463530D02*
X11466830Y-10501630D01*
X11466830Y-10463530D02*
X11428730Y-10501630D01*
X11461750Y-9150350D02*
X11499850Y-9188450D01*
X11499850Y-9150350D02*
X11461750Y-9188450D01*
X11543030Y-12152630D02*
X11581130Y-12190730D01*
X11581130Y-12152630D02*
X11543030Y-12190730D01*
X11720830Y-12152630D02*
X11758930Y-12190730D01*
X11758930Y-12152630D02*
X11720830Y-12190730D01*
X11817350Y-9226550D02*
X11855450Y-9264650D01*
X11855450Y-9226550D02*
X11817350Y-9264650D01*
X12223750Y-10039350D02*
X12261850Y-10077450D01*
X12261850Y-10039350D02*
X12223750Y-10077450D01*
X4298950Y-8686800D02*
G75*
G03X4298950Y-8686800I-31750J0D01*
G01*
X4298950Y-8890000D02*
G75*
G03X4298950Y-8890000I-31750J0D01*
G01*
X4456430Y-10368280D02*
G75*
G03X4456430Y-10368280I-31750J0D01*
G01*
X4456430Y-10546080D02*
G75*
G03X4456430Y-10546080I-31750J0D01*
G01*
X5746750Y-8686800D02*
G75*
G03X5746750Y-8686800I-31750J0D01*
G01*
X5746750Y-8890000D02*
G75*
G03X5746750Y-8890000I-31750J0D01*
G01*
X7169150Y-8686800D02*
G75*
G03X7169150Y-8686800I-31750J0D01*
G01*
X7169150Y-8890000D02*
G75*
G03X7169150Y-8890000I-31750J0D01*
G01*
X8591550Y-8686800D02*
G75*
G03X8591550Y-8686800I-31750J0D01*
G01*
X8591550Y-8890000D02*
G75*
G03X8591550Y-8890000I-31750J0D01*
G01*
X10013950Y-8686800D02*
G75*
G03X10013950Y-8686800I-31750J0D01*
G01*
X10013950Y-8890000D02*
G75*
G03X10013950Y-8890000I-31750J0D01*
G01*
X11436350Y-8686800D02*
G75*
G03X11436350Y-8686800I-31750J0D01*
G01*
X11436350Y-8890000D02*
G75*
G03X11436350Y-8890000I-31750J0D01*
G01*
X11487150Y-10693400D02*
G75*
G03X11487150Y-10693400I-31750J0D01*
G01*
X11257280Y-11089640D02*
X11257280Y-11170920D01*
X11216640Y-11130280D02*
X11297920Y-11130280D01*
X11511280Y-11089640D02*
X11511280Y-11170920D01*
X11470640Y-11130280D02*
X11551920Y-11130280D01*
X11765280Y-11089640D02*
X11765280Y-11170920D01*
X11724640Y-11130280D02*
X11805920Y-11130280D01*
X12019280Y-11089640D02*
X12019280Y-11170920D01*
X11978640Y-11130280D02*
X12059920Y-11130280D01*
X4006920Y-7880420D02*
X4006920Y-7816780D01*
X3943280Y-7816780D01*
X3943280Y-7880420D01*
X4006920Y-7880420D01*
X4133920Y-7626420D02*
X4133920Y-7562780D01*
X4070280Y-7562780D01*
X4070280Y-7626420D01*
X4133920Y-7626420D01*
X4260920Y-7880420D02*
X4260920Y-7816780D01*
X4197280Y-7816780D01*
X4197280Y-7880420D01*
X4260920Y-7880420D01*
X4387920Y-7626420D02*
X4387920Y-7562780D01*
X4324280Y-7562780D01*
X4324280Y-7626420D01*
X4387920Y-7626420D01*
X5429320Y-7880420D02*
X5429320Y-7816780D01*
X5365680Y-7816780D01*
X5365680Y-7880420D01*
X5429320Y-7880420D01*
X5556320Y-7626420D02*
X5556320Y-7562780D01*
X5492680Y-7562780D01*
X5492680Y-7626420D01*
X5556320Y-7626420D01*
X5683320Y-7880420D02*
X5683320Y-7816780D01*
X5619680Y-7816780D01*
X5619680Y-7880420D01*
X5683320Y-7880420D01*
X5810320Y-7626420D02*
X5810320Y-7562780D01*
X5746680Y-7562780D01*
X5746680Y-7626420D01*
X5810320Y-7626420D01*
X6851720Y-7880420D02*
X6851720Y-7816780D01*
X6788080Y-7816780D01*
X6788080Y-7880420D01*
X6851720Y-7880420D01*
X6978720Y-7626420D02*
X6978720Y-7562780D01*
X6915080Y-7562780D01*
X6915080Y-7626420D01*
X6978720Y-7626420D01*
X7105720Y-7880420D02*
X7105720Y-7816780D01*
X7042080Y-7816780D01*
X7042080Y-7880420D01*
X7105720Y-7880420D01*
X7232720Y-7626420D02*
X7232720Y-7562780D01*
X7169080Y-7562780D01*
X7169080Y-7626420D01*
X7232720Y-7626420D01*
X8274120Y-7880420D02*
X8274120Y-7816780D01*
X8210480Y-7816780D01*
X8210480Y-7880420D01*
X8274120Y-7880420D01*
X8401120Y-7626420D02*
X8401120Y-7562780D01*
X8337480Y-7562780D01*
X8337480Y-7626420D01*
X8401120Y-7626420D01*
X8528120Y-7880420D02*
X8528120Y-7816780D01*
X8464480Y-7816780D01*
X8464480Y-7880420D01*
X8528120Y-7880420D01*
X8655120Y-7626420D02*
X8655120Y-7562780D01*
X8591480Y-7562780D01*
X8591480Y-7626420D01*
X8655120Y-7626420D01*
X9696520Y-7880420D02*
X9696520Y-7816780D01*
X9632880Y-7816780D01*
X9632880Y-7880420D01*
X9696520Y-7880420D01*
X9823520Y-7626420D02*
X9823520Y-7562780D01*
X9759880Y-7562780D01*
X9759880Y-7626420D01*
X9823520Y-7626420D01*
X9950520Y-7880420D02*
X9950520Y-7816780D01*
X9886880Y-7816780D01*
X9886880Y-7880420D01*
X9950520Y-7880420D01*
X10077520Y-7626420D02*
X10077520Y-7562780D01*
X10013880Y-7562780D01*
X10013880Y-7626420D01*
X10077520Y-7626420D01*
X11118920Y-7880420D02*
X11118920Y-7816780D01*
X11055280Y-7816780D01*
X11055280Y-7880420D01*
X11118920Y-7880420D01*
X11245920Y-7626420D02*
X11245920Y-7562780D01*
X11182280Y-7562780D01*
X11182280Y-7626420D01*
X11245920Y-7626420D01*
X11372920Y-7880420D02*
X11372920Y-7816780D01*
X11309280Y-7816780D01*
X11309280Y-7880420D01*
X11372920Y-7880420D01*
X11499920Y-7626420D02*
X11499920Y-7562780D01*
X11436280Y-7562780D01*
X11436280Y-7626420D01*
X11499920Y-7626420D01*
X4114800Y-8330400D02*
X4164800Y-8280400D01*
X4114800Y-8230400D01*
X4064800Y-8280400D01*
X4114800Y-8330400D01*
X4368800Y-8330400D02*
X4418800Y-8280400D01*
X4368800Y-8230400D01*
X4318800Y-8280400D01*
X4368800Y-8330400D01*
X4622800Y-8330400D02*
X4672800Y-8280400D01*
X4622800Y-8230400D01*
X4572800Y-8280400D01*
X4622800Y-8330400D01*
X5537200Y-8330400D02*
X5587200Y-8280400D01*
X5537200Y-8230400D01*
X5487200Y-8280400D01*
X5537200Y-8330400D01*
X5791200Y-8330400D02*
X5841200Y-8280400D01*
X5791200Y-8230400D01*
X5741200Y-8280400D01*
X5791200Y-8330400D01*
X6045200Y-8330400D02*
X6095200Y-8280400D01*
X6045200Y-8230400D01*
X5995200Y-8280400D01*
X6045200Y-8330400D01*
X6959600Y-8330400D02*
X7009600Y-8280400D01*
X6959600Y-8230400D01*
X6909600Y-8280400D01*
X6959600Y-8330400D01*
X7213600Y-8330400D02*
X7263600Y-8280400D01*
X7213600Y-8230400D01*
X7163600Y-8280400D01*
X7213600Y-8330400D01*
X7467600Y-8330400D02*
X7517600Y-8280400D01*
X7467600Y-8230400D01*
X7417600Y-8280400D01*
X7467600Y-8330400D01*
X8382000Y-8330400D02*
X8432000Y-8280400D01*
X8382000Y-8230400D01*
X8332000Y-8280400D01*
X8382000Y-8330400D01*
X8636000Y-8330400D02*
X8686000Y-8280400D01*
X8636000Y-8230400D01*
X8586000Y-8280400D01*
X8636000Y-8330400D01*
X8890000Y-8330400D02*
X8940000Y-8280400D01*
X8890000Y-8230400D01*
X8840000Y-8280400D01*
X8890000Y-8330400D01*
X9804400Y-8330400D02*
X9854400Y-8280400D01*
X9804400Y-8230400D01*
X9754400Y-8280400D01*
X9804400Y-8330400D01*
X10058400Y-8330400D02*
X10108400Y-8280400D01*
X10058400Y-8230400D01*
X10008400Y-8280400D01*
X10058400Y-8330400D01*
X10312400Y-8330400D02*
X10362400Y-8280400D01*
X10312400Y-8230400D01*
X10262400Y-8280400D01*
X10312400Y-8330400D01*
X11226800Y-8330400D02*
X11276800Y-8280400D01*
X11226800Y-8230400D01*
X11176800Y-8280400D01*
X11226800Y-8330400D01*
X11480800Y-8330400D02*
X11530800Y-8280400D01*
X11480800Y-8230400D01*
X11430800Y-8280400D01*
X11480800Y-8330400D01*
X11734800Y-8330400D02*
X11784800Y-8280400D01*
X11734800Y-8230400D01*
X11684800Y-8280400D01*
X11734800Y-8330400D01*
X4420362Y-11572748D02*
X4520438Y-11672824D01*
X4520438Y-11572748D02*
X4420362Y-11672824D01*
X4520438Y-11622786D02*
G75*
G03X4520438Y-11622786I-50038J0D01*
G01*
X4370451Y-11662824D02*
X4570349Y-11662824D01*
X4370451Y-11582748D02*
X4570349Y-11582748D01*
X4570349Y-11662824D02*
G75*
G03X4570349Y-11582748I0J40038D01*
G01*
X4370451Y-11582748D02*
G75*
G03X4370451Y-11662824I0J-40038D01*
G01*
X4420362Y-12172696D02*
X4520438Y-12272772D01*
X4520438Y-12172696D02*
X4420362Y-12272772D01*
X4520438Y-12222734D02*
G75*
G03X4520438Y-12222734I-50038J0D01*
G01*
X4370451Y-12262772D02*
X4570349Y-12262772D01*
X4370451Y-12182696D02*
X4570349Y-12182696D01*
X4570349Y-12262772D02*
G75*
G03X4570349Y-12182696I0J40038D01*
G01*
X4370451Y-12182696D02*
G75*
G03X4370451Y-12262772I0J-40038D01*
G01*
X4890262Y-11872722D02*
X4990338Y-11972798D01*
X4990338Y-11872722D02*
X4890262Y-11972798D01*
X4990338Y-11922760D02*
G75*
G03X4990338Y-11922760I-50038J0D01*
G01*
X4980338Y-12022709D02*
X4980338Y-11822811D01*
X4900262Y-12022709D02*
X4900262Y-11822811D01*
X4980338Y-11822811D02*
G75*
G03X4900262Y-11822811I-40038J0D01*
G01*
X4900262Y-12022709D02*
G75*
G03X4980338Y-12022709I40038J0D01*
G01*
X5300980Y-11485880D02*
X5402580Y-11587480D01*
X5402580Y-11485880D02*
X5300980Y-11587480D01*
X5351780Y-11485880D02*
X5351780Y-11587480D01*
X5300980Y-11536680D02*
X5402580Y-11536680D01*
X5300980Y-11993880D02*
X5402580Y-12095480D01*
X5402580Y-11993880D02*
X5300980Y-12095480D01*
X5351780Y-11993880D02*
X5351780Y-12095480D01*
X5300980Y-12044680D02*
X5402580Y-12044680D01*
X3516630Y-10019030D02*
X3707130Y-10209530D01*
X3707130Y-10019030D02*
X3516630Y-10209530D01*
X3679233Y-10181633D02*
X3679233Y-10046927D01*
X3544527Y-10046927D01*
X3544527Y-10181633D01*
X3679233Y-10181633D01*
X3516630Y-10527030D02*
X3707130Y-10717530D01*
X3707130Y-10527030D02*
X3516630Y-10717530D01*
X3679233Y-10689633D02*
X3679233Y-10554927D01*
X3544527Y-10554927D01*
X3544527Y-10689633D01*
X3679233Y-10689633D01*
X3516630Y-11543030D02*
X3707130Y-11733530D01*
X3707130Y-11543030D02*
X3516630Y-11733530D01*
X3679233Y-11705633D02*
X3679233Y-11570927D01*
X3544527Y-11570927D01*
X3544527Y-11705633D01*
X3679233Y-11705633D01*
X3516630Y-12051030D02*
X3707130Y-12241530D01*
X3707130Y-12051030D02*
X3516630Y-12241530D01*
X3679233Y-12213633D02*
X3679233Y-12078927D01*
X3544527Y-12078927D01*
X3544527Y-12213633D01*
X3679233Y-12213633D01*
X2643251Y-6910451D02*
X2843149Y-7110349D01*
X2843149Y-6910451D02*
X2643251Y-7110349D01*
X2743200Y-7110349D02*
X2843149Y-7010400D01*
X2743200Y-6910451D01*
X2643251Y-7010400D01*
X2743200Y-7110349D01*
X2643251Y-11990451D02*
X2843149Y-12190349D01*
X2843149Y-11990451D02*
X2643251Y-12190349D01*
X2743200Y-12190349D02*
X2843149Y-12090400D01*
X2743200Y-11990451D01*
X2643251Y-12090400D01*
X2743200Y-12190349D01*
X12549251Y-6910451D02*
X12749149Y-7110349D01*
X12749149Y-6910451D02*
X12549251Y-7110349D01*
X12649200Y-7110349D02*
X12749149Y-7010400D01*
X12649200Y-6910451D01*
X12549251Y-7010400D01*
X12649200Y-7110349D01*
X12549251Y-11990451D02*
X12749149Y-12190349D01*
X12749149Y-11990451D02*
X12549251Y-12190349D01*
X12649200Y-12190349D02*
X12749149Y-12090400D01*
X12649200Y-11990451D01*
X12549251Y-12090400D01*
X12649200Y-12190349D01*
D13*
X2679429Y-12916714D02*
X2679429Y-12616714D01*
X2750857Y-12616714D01*
X2793714Y-12631000D01*
X2822286Y-12659571D01*
X2836571Y-12688143D01*
X2850857Y-12745286D01*
X2850857Y-12788143D01*
X2836571Y-12845286D01*
X2822286Y-12873857D01*
X2793714Y-12902429D01*
X2750857Y-12916714D01*
X2679429Y-12916714D01*
X2979428Y-12916714D02*
X2979428Y-12716714D01*
X2979428Y-12773857D02*
X2993714Y-12745286D01*
X3008000Y-12731000D01*
X3036571Y-12716714D01*
X3065143Y-12716714D01*
X3165143Y-12916714D02*
X3165143Y-12716714D01*
X3165143Y-12616714D02*
X3150857Y-12631000D01*
X3165143Y-12645286D01*
X3179428Y-12631000D01*
X3165143Y-12616714D01*
X3165143Y-12645286D01*
X3350857Y-12916714D02*
X3322286Y-12902429D01*
X3308000Y-12873857D01*
X3308000Y-12616714D01*
X3508000Y-12916714D02*
X3479428Y-12902429D01*
X3465143Y-12873857D01*
X3465143Y-12616714D01*
X3850857Y-12916714D02*
X3850857Y-12616714D01*
X3950857Y-12831000D01*
X4050857Y-12616714D01*
X4050857Y-12916714D01*
X4322286Y-12916714D02*
X4322286Y-12759571D01*
X4308000Y-12731000D01*
X4279429Y-12716714D01*
X4222286Y-12716714D01*
X4193714Y-12731000D01*
X4322286Y-12902429D02*
X4293714Y-12916714D01*
X4222286Y-12916714D01*
X4193714Y-12902429D01*
X4179428Y-12873857D01*
X4179428Y-12845286D01*
X4193714Y-12816714D01*
X4222286Y-12802429D01*
X4293714Y-12802429D01*
X4322286Y-12788143D01*
X4465143Y-12716714D02*
X4465143Y-13016714D01*
X4465143Y-12731000D02*
X4493714Y-12716714D01*
X4550857Y-12716714D01*
X4579429Y-12731000D01*
X4593714Y-12745286D01*
X4608000Y-12773857D01*
X4608000Y-12859571D01*
X4593714Y-12888143D01*
X4579429Y-12902429D01*
X4550857Y-12916714D01*
X4493714Y-12916714D01*
X4465143Y-12902429D01*
X4736571Y-12888143D02*
X4750857Y-12902429D01*
X4736571Y-12916714D01*
X4722286Y-12902429D01*
X4736571Y-12888143D01*
X4736571Y-12916714D01*
X4736571Y-12731000D02*
X4750857Y-12745286D01*
X4736571Y-12759571D01*
X4722286Y-12745286D01*
X4736571Y-12731000D01*
X4736571Y-12759571D01*
X2369900Y-13391950D02*
X2408000Y-13430050D01*
X2408000Y-13391950D02*
X2369900Y-13430050D01*
X2736571Y-13246714D02*
X2765143Y-13246714D01*
X2793714Y-13261000D01*
X2808000Y-13275286D01*
X2822286Y-13303857D01*
X2836571Y-13361000D01*
X2836571Y-13432429D01*
X2822286Y-13489571D01*
X2808000Y-13518143D01*
X2793714Y-13532429D01*
X2765143Y-13546714D01*
X2736571Y-13546714D01*
X2708000Y-13532429D01*
X2693714Y-13518143D01*
X2679429Y-13489571D01*
X2665143Y-13432429D01*
X2665143Y-13361000D01*
X2679429Y-13303857D01*
X2693714Y-13275286D01*
X2708000Y-13261000D01*
X2736571Y-13246714D01*
X2965143Y-13518143D02*
X2979428Y-13532429D01*
X2965143Y-13546714D01*
X2950857Y-13532429D01*
X2965143Y-13518143D01*
X2965143Y-13546714D01*
X3079428Y-13246714D02*
X3265143Y-13246714D01*
X3165143Y-13361000D01*
X3208000Y-13361000D01*
X3236571Y-13375286D01*
X3250857Y-13389571D01*
X3265143Y-13418143D01*
X3265143Y-13489571D01*
X3250857Y-13518143D01*
X3236571Y-13532429D01*
X3208000Y-13546714D01*
X3122286Y-13546714D01*
X3093714Y-13532429D01*
X3079428Y-13518143D01*
X3436571Y-13375286D02*
X3408000Y-13361000D01*
X3393714Y-13346714D01*
X3379428Y-13318143D01*
X3379428Y-13303857D01*
X3393714Y-13275286D01*
X3408000Y-13261000D01*
X3436571Y-13246714D01*
X3493714Y-13246714D01*
X3522286Y-13261000D01*
X3536571Y-13275286D01*
X3550857Y-13303857D01*
X3550857Y-13318143D01*
X3536571Y-13346714D01*
X3522286Y-13361000D01*
X3493714Y-13375286D01*
X3436571Y-13375286D01*
X3408000Y-13389571D01*
X3393714Y-13403857D01*
X3379428Y-13432429D01*
X3379428Y-13489571D01*
X3393714Y-13518143D01*
X3408000Y-13532429D01*
X3436571Y-13546714D01*
X3493714Y-13546714D01*
X3522286Y-13532429D01*
X3536571Y-13518143D01*
X3550857Y-13489571D01*
X3550857Y-13432429D01*
X3536571Y-13403857D01*
X3522286Y-13389571D01*
X3493714Y-13375286D01*
X3679428Y-13546714D02*
X3679428Y-13346714D01*
X3679428Y-13375286D02*
X3693714Y-13361000D01*
X3722286Y-13346714D01*
X3765143Y-13346714D01*
X3793714Y-13361000D01*
X3808000Y-13389571D01*
X3808000Y-13546714D01*
X3808000Y-13389571D02*
X3822286Y-13361000D01*
X3850857Y-13346714D01*
X3893714Y-13346714D01*
X3922286Y-13361000D01*
X3936571Y-13389571D01*
X3936571Y-13546714D01*
X4079428Y-13546714D02*
X4079428Y-13346714D01*
X4079428Y-13375286D02*
X4093714Y-13361000D01*
X4122286Y-13346714D01*
X4165143Y-13346714D01*
X4193714Y-13361000D01*
X4208000Y-13389571D01*
X4208000Y-13546714D01*
X4208000Y-13389571D02*
X4222286Y-13361000D01*
X4250857Y-13346714D01*
X4293714Y-13346714D01*
X4322286Y-13361000D01*
X4336571Y-13389571D01*
X4336571Y-13546714D01*
X4922286Y-13232429D02*
X4665143Y-13618143D01*
X5308000Y-13246714D02*
X5336571Y-13246714D01*
X5365143Y-13261000D01*
X5379428Y-13275286D01*
X5393714Y-13303857D01*
X5408000Y-13361000D01*
X5408000Y-13432429D01*
X5393714Y-13489571D01*
X5379428Y-13518143D01*
X5365143Y-13532429D01*
X5336571Y-13546714D01*
X5308000Y-13546714D01*
X5279428Y-13532429D01*
X5265143Y-13518143D01*
X5250857Y-13489571D01*
X5236571Y-13432429D01*
X5236571Y-13361000D01*
X5250857Y-13303857D01*
X5265143Y-13275286D01*
X5279428Y-13261000D01*
X5308000Y-13246714D01*
X5536571Y-13518143D02*
X5550857Y-13532429D01*
X5536571Y-13546714D01*
X5522286Y-13532429D01*
X5536571Y-13518143D01*
X5536571Y-13546714D01*
X5736571Y-13246714D02*
X5765143Y-13246714D01*
X5793714Y-13261000D01*
X5808000Y-13275286D01*
X5822285Y-13303857D01*
X5836571Y-13361000D01*
X5836571Y-13432429D01*
X5822285Y-13489571D01*
X5808000Y-13518143D01*
X5793714Y-13532429D01*
X5765143Y-13546714D01*
X5736571Y-13546714D01*
X5708000Y-13532429D01*
X5693714Y-13518143D01*
X5679428Y-13489571D01*
X5665143Y-13432429D01*
X5665143Y-13361000D01*
X5679428Y-13303857D01*
X5693714Y-13275286D01*
X5708000Y-13261000D01*
X5736571Y-13246714D01*
X6122285Y-13546714D02*
X5950857Y-13546714D01*
X6036571Y-13546714D02*
X6036571Y-13246714D01*
X6008000Y-13289571D01*
X5979428Y-13318143D01*
X5950857Y-13332429D01*
X6393714Y-13246714D02*
X6250857Y-13246714D01*
X6236571Y-13389571D01*
X6250857Y-13375286D01*
X6279428Y-13361000D01*
X6350857Y-13361000D01*
X6379428Y-13375286D01*
X6393714Y-13389571D01*
X6408000Y-13418143D01*
X6408000Y-13489571D01*
X6393714Y-13518143D01*
X6379428Y-13532429D01*
X6350857Y-13546714D01*
X6279428Y-13546714D01*
X6250857Y-13532429D01*
X6236571Y-13518143D01*
X6522286Y-13246714D02*
X6522286Y-13303857D01*
X6636571Y-13246714D02*
X6636571Y-13303857D01*
X7079428Y-13661000D02*
X7065143Y-13646714D01*
X7036571Y-13603857D01*
X7022285Y-13575286D01*
X7008000Y-13532429D01*
X6993714Y-13461000D01*
X6993714Y-13403857D01*
X7008000Y-13332429D01*
X7022285Y-13289571D01*
X7036571Y-13261000D01*
X7065143Y-13218143D01*
X7079428Y-13203857D01*
X7350857Y-13546714D02*
X7179428Y-13546714D01*
X7265143Y-13546714D02*
X7265143Y-13246714D01*
X7236571Y-13289571D01*
X7208000Y-13318143D01*
X7179428Y-13332429D01*
X7636571Y-13546714D02*
X7465143Y-13546714D01*
X7550857Y-13546714D02*
X7550857Y-13246714D01*
X7522285Y-13289571D01*
X7493714Y-13318143D01*
X7465143Y-13332429D01*
X7822285Y-13246714D02*
X7850857Y-13246714D01*
X7879428Y-13261000D01*
X7893714Y-13275286D01*
X7908000Y-13303857D01*
X7922285Y-13361000D01*
X7922285Y-13432429D01*
X7908000Y-13489571D01*
X7893714Y-13518143D01*
X7879428Y-13532429D01*
X7850857Y-13546714D01*
X7822285Y-13546714D01*
X7793714Y-13532429D01*
X7779428Y-13518143D01*
X7765143Y-13489571D01*
X7750857Y-13432429D01*
X7750857Y-13361000D01*
X7765143Y-13303857D01*
X7779428Y-13275286D01*
X7793714Y-13261000D01*
X7822285Y-13246714D01*
X8279428Y-13546714D02*
X8279428Y-13246714D01*
X8408000Y-13546714D02*
X8408000Y-13389571D01*
X8393714Y-13361000D01*
X8365143Y-13346714D01*
X8322285Y-13346714D01*
X8293714Y-13361000D01*
X8279428Y-13375286D01*
X8593714Y-13546714D02*
X8565143Y-13532429D01*
X8550857Y-13518143D01*
X8536571Y-13489571D01*
X8536571Y-13403857D01*
X8550857Y-13375286D01*
X8565143Y-13361000D01*
X8593714Y-13346714D01*
X8636571Y-13346714D01*
X8665143Y-13361000D01*
X8679428Y-13375286D01*
X8693714Y-13403857D01*
X8693714Y-13489571D01*
X8679428Y-13518143D01*
X8665143Y-13532429D01*
X8636571Y-13546714D01*
X8593714Y-13546714D01*
X8865143Y-13546714D02*
X8836571Y-13532429D01*
X8822286Y-13503857D01*
X8822286Y-13246714D01*
X9093714Y-13532429D02*
X9065143Y-13546714D01*
X9008000Y-13546714D01*
X8979429Y-13532429D01*
X8965143Y-13503857D01*
X8965143Y-13389571D01*
X8979429Y-13361000D01*
X9008000Y-13346714D01*
X9065143Y-13346714D01*
X9093714Y-13361000D01*
X9108000Y-13389571D01*
X9108000Y-13418143D01*
X8965143Y-13446714D01*
X9222286Y-13532429D02*
X9250857Y-13546714D01*
X9308000Y-13546714D01*
X9336571Y-13532429D01*
X9350857Y-13503857D01*
X9350857Y-13489571D01*
X9336571Y-13461000D01*
X9308000Y-13446714D01*
X9265143Y-13446714D01*
X9236571Y-13432429D01*
X9222286Y-13403857D01*
X9222286Y-13389571D01*
X9236571Y-13361000D01*
X9265143Y-13346714D01*
X9308000Y-13346714D01*
X9336571Y-13361000D01*
X9450857Y-13661000D02*
X9465143Y-13646714D01*
X9493714Y-13603857D01*
X9508000Y-13575286D01*
X9522286Y-13532429D01*
X9536571Y-13461000D01*
X9536571Y-13403857D01*
X9522286Y-13332429D01*
X9508000Y-13289571D01*
X9493714Y-13261000D01*
X9465143Y-13218143D01*
X9450857Y-13203857D01*
X2408000Y-13807000D02*
G75*
G03X2408000Y-13807000I-31750J0D01*
G01*
X2736571Y-13642714D02*
X2765143Y-13642714D01*
X2793714Y-13657000D01*
X2808000Y-13671286D01*
X2822286Y-13699857D01*
X2836571Y-13757000D01*
X2836571Y-13828429D01*
X2822286Y-13885571D01*
X2808000Y-13914143D01*
X2793714Y-13928429D01*
X2765143Y-13942714D01*
X2736571Y-13942714D01*
X2708000Y-13928429D01*
X2693714Y-13914143D01*
X2679429Y-13885571D01*
X2665143Y-13828429D01*
X2665143Y-13757000D01*
X2679429Y-13699857D01*
X2693714Y-13671286D01*
X2708000Y-13657000D01*
X2736571Y-13642714D01*
X2965143Y-13914143D02*
X2979428Y-13928429D01*
X2965143Y-13942714D01*
X2950857Y-13928429D01*
X2965143Y-13914143D01*
X2965143Y-13942714D01*
X3236571Y-13642714D02*
X3179428Y-13642714D01*
X3150857Y-13657000D01*
X3136571Y-13671286D01*
X3108000Y-13714143D01*
X3093714Y-13771286D01*
X3093714Y-13885571D01*
X3108000Y-13914143D01*
X3122286Y-13928429D01*
X3150857Y-13942714D01*
X3208000Y-13942714D01*
X3236571Y-13928429D01*
X3250857Y-13914143D01*
X3265143Y-13885571D01*
X3265143Y-13814143D01*
X3250857Y-13785571D01*
X3236571Y-13771286D01*
X3208000Y-13757000D01*
X3150857Y-13757000D01*
X3122286Y-13771286D01*
X3108000Y-13785571D01*
X3093714Y-13814143D01*
X3522286Y-13742714D02*
X3522286Y-13942714D01*
X3450857Y-13628429D02*
X3379428Y-13842714D01*
X3565143Y-13842714D01*
X3679428Y-13942714D02*
X3679428Y-13742714D01*
X3679428Y-13771286D02*
X3693714Y-13757000D01*
X3722286Y-13742714D01*
X3765143Y-13742714D01*
X3793714Y-13757000D01*
X3808000Y-13785571D01*
X3808000Y-13942714D01*
X3808000Y-13785571D02*
X3822286Y-13757000D01*
X3850857Y-13742714D01*
X3893714Y-13742714D01*
X3922286Y-13757000D01*
X3936571Y-13785571D01*
X3936571Y-13942714D01*
X4079428Y-13942714D02*
X4079428Y-13742714D01*
X4079428Y-13771286D02*
X4093714Y-13757000D01*
X4122286Y-13742714D01*
X4165143Y-13742714D01*
X4193714Y-13757000D01*
X4208000Y-13785571D01*
X4208000Y-13942714D01*
X4208000Y-13785571D02*
X4222286Y-13757000D01*
X4250857Y-13742714D01*
X4293714Y-13742714D01*
X4322286Y-13757000D01*
X4336571Y-13785571D01*
X4336571Y-13942714D01*
X4922286Y-13628429D02*
X4665143Y-14014143D01*
X5308000Y-13642714D02*
X5336571Y-13642714D01*
X5365143Y-13657000D01*
X5379428Y-13671286D01*
X5393714Y-13699857D01*
X5408000Y-13757000D01*
X5408000Y-13828429D01*
X5393714Y-13885571D01*
X5379428Y-13914143D01*
X5365143Y-13928429D01*
X5336571Y-13942714D01*
X5308000Y-13942714D01*
X5279428Y-13928429D01*
X5265143Y-13914143D01*
X5250857Y-13885571D01*
X5236571Y-13828429D01*
X5236571Y-13757000D01*
X5250857Y-13699857D01*
X5265143Y-13671286D01*
X5279428Y-13657000D01*
X5308000Y-13642714D01*
X5536571Y-13914143D02*
X5550857Y-13928429D01*
X5536571Y-13942714D01*
X5522286Y-13928429D01*
X5536571Y-13914143D01*
X5536571Y-13942714D01*
X5736571Y-13642714D02*
X5765143Y-13642714D01*
X5793714Y-13657000D01*
X5808000Y-13671286D01*
X5822285Y-13699857D01*
X5836571Y-13757000D01*
X5836571Y-13828429D01*
X5822285Y-13885571D01*
X5808000Y-13914143D01*
X5793714Y-13928429D01*
X5765143Y-13942714D01*
X5736571Y-13942714D01*
X5708000Y-13928429D01*
X5693714Y-13914143D01*
X5679428Y-13885571D01*
X5665143Y-13828429D01*
X5665143Y-13757000D01*
X5679428Y-13699857D01*
X5693714Y-13671286D01*
X5708000Y-13657000D01*
X5736571Y-13642714D01*
X5950857Y-13671286D02*
X5965143Y-13657000D01*
X5993714Y-13642714D01*
X6065143Y-13642714D01*
X6093714Y-13657000D01*
X6108000Y-13671286D01*
X6122285Y-13699857D01*
X6122285Y-13728429D01*
X6108000Y-13771286D01*
X5936571Y-13942714D01*
X6122285Y-13942714D01*
X6393714Y-13642714D02*
X6250857Y-13642714D01*
X6236571Y-13785571D01*
X6250857Y-13771286D01*
X6279428Y-13757000D01*
X6350857Y-13757000D01*
X6379428Y-13771286D01*
X6393714Y-13785571D01*
X6408000Y-13814143D01*
X6408000Y-13885571D01*
X6393714Y-13914143D01*
X6379428Y-13928429D01*
X6350857Y-13942714D01*
X6279428Y-13942714D01*
X6250857Y-13928429D01*
X6236571Y-13914143D01*
X6522286Y-13642714D02*
X6522286Y-13699857D01*
X6636571Y-13642714D02*
X6636571Y-13699857D01*
X7079428Y-14057000D02*
X7065143Y-14042714D01*
X7036571Y-13999857D01*
X7022285Y-13971286D01*
X7008000Y-13928429D01*
X6993714Y-13857000D01*
X6993714Y-13799857D01*
X7008000Y-13728429D01*
X7022285Y-13685571D01*
X7036571Y-13657000D01*
X7065143Y-13614143D01*
X7079428Y-13599857D01*
X7350857Y-13942714D02*
X7179428Y-13942714D01*
X7265143Y-13942714D02*
X7265143Y-13642714D01*
X7236571Y-13685571D01*
X7208000Y-13714143D01*
X7179428Y-13728429D01*
X7622285Y-13642714D02*
X7479428Y-13642714D01*
X7465143Y-13785571D01*
X7479428Y-13771286D01*
X7508000Y-13757000D01*
X7579428Y-13757000D01*
X7608000Y-13771286D01*
X7622285Y-13785571D01*
X7636571Y-13814143D01*
X7636571Y-13885571D01*
X7622285Y-13914143D01*
X7608000Y-13928429D01*
X7579428Y-13942714D01*
X7508000Y-13942714D01*
X7479428Y-13928429D01*
X7465143Y-13914143D01*
X7993714Y-13942714D02*
X7993714Y-13642714D01*
X8122285Y-13942714D02*
X8122285Y-13785571D01*
X8108000Y-13757000D01*
X8079428Y-13742714D01*
X8036571Y-13742714D01*
X8008000Y-13757000D01*
X7993714Y-13771286D01*
X8308000Y-13942714D02*
X8279428Y-13928429D01*
X8265143Y-13914143D01*
X8250857Y-13885571D01*
X8250857Y-13799857D01*
X8265143Y-13771286D01*
X8279428Y-13757000D01*
X8308000Y-13742714D01*
X8350857Y-13742714D01*
X8379428Y-13757000D01*
X8393714Y-13771286D01*
X8408000Y-13799857D01*
X8408000Y-13885571D01*
X8393714Y-13914143D01*
X8379428Y-13928429D01*
X8350857Y-13942714D01*
X8308000Y-13942714D01*
X8579428Y-13942714D02*
X8550857Y-13928429D01*
X8536571Y-13899857D01*
X8536571Y-13642714D01*
X8808000Y-13928429D02*
X8779429Y-13942714D01*
X8722286Y-13942714D01*
X8693714Y-13928429D01*
X8679429Y-13899857D01*
X8679429Y-13785571D01*
X8693714Y-13757000D01*
X8722286Y-13742714D01*
X8779429Y-13742714D01*
X8808000Y-13757000D01*
X8822286Y-13785571D01*
X8822286Y-13814143D01*
X8679429Y-13842714D01*
X8936571Y-13928429D02*
X8965143Y-13942714D01*
X9022286Y-13942714D01*
X9050857Y-13928429D01*
X9065143Y-13899857D01*
X9065143Y-13885571D01*
X9050857Y-13857000D01*
X9022286Y-13842714D01*
X8979429Y-13842714D01*
X8950857Y-13828429D01*
X8936571Y-13799857D01*
X8936571Y-13785571D01*
X8950857Y-13757000D01*
X8979429Y-13742714D01*
X9022286Y-13742714D01*
X9050857Y-13757000D01*
X9165143Y-14057000D02*
X9179429Y-14042714D01*
X9208000Y-13999857D01*
X9222286Y-13971286D01*
X9236571Y-13928429D01*
X9250857Y-13857000D01*
X9250857Y-13799857D01*
X9236571Y-13728429D01*
X9222286Y-13685571D01*
X9208000Y-13657000D01*
X9179429Y-13614143D01*
X9165143Y-13599857D01*
X2367360Y-14162360D02*
X2367360Y-14243640D01*
X2326720Y-14203000D02*
X2408000Y-14203000D01*
X2736571Y-14038714D02*
X2765143Y-14038714D01*
X2793714Y-14053000D01*
X2808000Y-14067286D01*
X2822286Y-14095857D01*
X2836571Y-14153000D01*
X2836571Y-14224429D01*
X2822286Y-14281571D01*
X2808000Y-14310143D01*
X2793714Y-14324429D01*
X2765143Y-14338714D01*
X2736571Y-14338714D01*
X2708000Y-14324429D01*
X2693714Y-14310143D01*
X2679429Y-14281571D01*
X2665143Y-14224429D01*
X2665143Y-14153000D01*
X2679429Y-14095857D01*
X2693714Y-14067286D01*
X2708000Y-14053000D01*
X2736571Y-14038714D01*
X2965143Y-14310143D02*
X2979428Y-14324429D01*
X2965143Y-14338714D01*
X2950857Y-14324429D01*
X2965143Y-14310143D01*
X2965143Y-14338714D01*
X3150857Y-14167286D02*
X3122286Y-14153000D01*
X3108000Y-14138714D01*
X3093714Y-14110143D01*
X3093714Y-14095857D01*
X3108000Y-14067286D01*
X3122286Y-14053000D01*
X3150857Y-14038714D01*
X3208000Y-14038714D01*
X3236571Y-14053000D01*
X3250857Y-14067286D01*
X3265143Y-14095857D01*
X3265143Y-14110143D01*
X3250857Y-14138714D01*
X3236571Y-14153000D01*
X3208000Y-14167286D01*
X3150857Y-14167286D01*
X3122286Y-14181571D01*
X3108000Y-14195857D01*
X3093714Y-14224429D01*
X3093714Y-14281571D01*
X3108000Y-14310143D01*
X3122286Y-14324429D01*
X3150857Y-14338714D01*
X3208000Y-14338714D01*
X3236571Y-14324429D01*
X3250857Y-14310143D01*
X3265143Y-14281571D01*
X3265143Y-14224429D01*
X3250857Y-14195857D01*
X3236571Y-14181571D01*
X3208000Y-14167286D01*
X3550857Y-14338714D02*
X3379428Y-14338714D01*
X3465143Y-14338714D02*
X3465143Y-14038714D01*
X3436571Y-14081571D01*
X3408000Y-14110143D01*
X3379428Y-14124429D01*
X3679428Y-14338714D02*
X3679428Y-14138714D01*
X3679428Y-14167286D02*
X3693714Y-14153000D01*
X3722286Y-14138714D01*
X3765143Y-14138714D01*
X3793714Y-14153000D01*
X3808000Y-14181571D01*
X3808000Y-14338714D01*
X3808000Y-14181571D02*
X3822286Y-14153000D01*
X3850857Y-14138714D01*
X3893714Y-14138714D01*
X3922286Y-14153000D01*
X3936571Y-14181571D01*
X3936571Y-14338714D01*
X4079428Y-14338714D02*
X4079428Y-14138714D01*
X4079428Y-14167286D02*
X4093714Y-14153000D01*
X4122286Y-14138714D01*
X4165143Y-14138714D01*
X4193714Y-14153000D01*
X4208000Y-14181571D01*
X4208000Y-14338714D01*
X4208000Y-14181571D02*
X4222286Y-14153000D01*
X4250857Y-14138714D01*
X4293714Y-14138714D01*
X4322286Y-14153000D01*
X4336571Y-14181571D01*
X4336571Y-14338714D01*
X4922286Y-14024429D02*
X4665143Y-14410143D01*
X5308000Y-14038714D02*
X5336571Y-14038714D01*
X5365143Y-14053000D01*
X5379428Y-14067286D01*
X5393714Y-14095857D01*
X5408000Y-14153000D01*
X5408000Y-14224429D01*
X5393714Y-14281571D01*
X5379428Y-14310143D01*
X5365143Y-14324429D01*
X5336571Y-14338714D01*
X5308000Y-14338714D01*
X5279428Y-14324429D01*
X5265143Y-14310143D01*
X5250857Y-14281571D01*
X5236571Y-14224429D01*
X5236571Y-14153000D01*
X5250857Y-14095857D01*
X5265143Y-14067286D01*
X5279428Y-14053000D01*
X5308000Y-14038714D01*
X5536571Y-14310143D02*
X5550857Y-14324429D01*
X5536571Y-14338714D01*
X5522286Y-14324429D01*
X5536571Y-14310143D01*
X5536571Y-14338714D01*
X5736571Y-14038714D02*
X5765143Y-14038714D01*
X5793714Y-14053000D01*
X5808000Y-14067286D01*
X5822285Y-14095857D01*
X5836571Y-14153000D01*
X5836571Y-14224429D01*
X5822285Y-14281571D01*
X5808000Y-14310143D01*
X5793714Y-14324429D01*
X5765143Y-14338714D01*
X5736571Y-14338714D01*
X5708000Y-14324429D01*
X5693714Y-14310143D01*
X5679428Y-14281571D01*
X5665143Y-14224429D01*
X5665143Y-14153000D01*
X5679428Y-14095857D01*
X5693714Y-14067286D01*
X5708000Y-14053000D01*
X5736571Y-14038714D01*
X5936571Y-14038714D02*
X6122285Y-14038714D01*
X6022285Y-14153000D01*
X6065143Y-14153000D01*
X6093714Y-14167286D01*
X6108000Y-14181571D01*
X6122285Y-14210143D01*
X6122285Y-14281571D01*
X6108000Y-14310143D01*
X6093714Y-14324429D01*
X6065143Y-14338714D01*
X5979428Y-14338714D01*
X5950857Y-14324429D01*
X5936571Y-14310143D01*
X6236571Y-14067286D02*
X6250857Y-14053000D01*
X6279428Y-14038714D01*
X6350857Y-14038714D01*
X6379428Y-14053000D01*
X6393714Y-14067286D01*
X6408000Y-14095857D01*
X6408000Y-14124429D01*
X6393714Y-14167286D01*
X6222285Y-14338714D01*
X6408000Y-14338714D01*
X6522286Y-14038714D02*
X6522286Y-14095857D01*
X6636571Y-14038714D02*
X6636571Y-14095857D01*
X7079428Y-14453000D02*
X7065143Y-14438714D01*
X7036571Y-14395857D01*
X7022285Y-14367286D01*
X7008000Y-14324429D01*
X6993714Y-14253000D01*
X6993714Y-14195857D01*
X7008000Y-14124429D01*
X7022285Y-14081571D01*
X7036571Y-14053000D01*
X7065143Y-14010143D01*
X7079428Y-13995857D01*
X7322285Y-14138714D02*
X7322285Y-14338714D01*
X7250857Y-14024429D02*
X7179428Y-14238714D01*
X7365143Y-14238714D01*
X7708000Y-14338714D02*
X7708000Y-14038714D01*
X7836571Y-14338714D02*
X7836571Y-14181571D01*
X7822285Y-14153000D01*
X7793714Y-14138714D01*
X7750857Y-14138714D01*
X7722285Y-14153000D01*
X7708000Y-14167286D01*
X8022285Y-14338714D02*
X7993714Y-14324429D01*
X7979428Y-14310143D01*
X7965143Y-14281571D01*
X7965143Y-14195857D01*
X7979428Y-14167286D01*
X7993714Y-14153000D01*
X8022285Y-14138714D01*
X8065143Y-14138714D01*
X8093714Y-14153000D01*
X8108000Y-14167286D01*
X8122285Y-14195857D01*
X8122285Y-14281571D01*
X8108000Y-14310143D01*
X8093714Y-14324429D01*
X8065143Y-14338714D01*
X8022285Y-14338714D01*
X8293714Y-14338714D02*
X8265143Y-14324429D01*
X8250857Y-14295857D01*
X8250857Y-14038714D01*
X8522286Y-14324429D02*
X8493714Y-14338714D01*
X8436571Y-14338714D01*
X8408000Y-14324429D01*
X8393714Y-14295857D01*
X8393714Y-14181571D01*
X8408000Y-14153000D01*
X8436571Y-14138714D01*
X8493714Y-14138714D01*
X8522286Y-14153000D01*
X8536571Y-14181571D01*
X8536571Y-14210143D01*
X8393714Y-14238714D01*
X8650857Y-14324429D02*
X8679429Y-14338714D01*
X8736571Y-14338714D01*
X8765143Y-14324429D01*
X8779429Y-14295857D01*
X8779429Y-14281571D01*
X8765143Y-14253000D01*
X8736571Y-14238714D01*
X8693714Y-14238714D01*
X8665143Y-14224429D01*
X8650857Y-14195857D01*
X8650857Y-14181571D01*
X8665143Y-14153000D01*
X8693714Y-14138714D01*
X8736571Y-14138714D01*
X8765143Y-14153000D01*
X8879428Y-14453000D02*
X8893714Y-14438714D01*
X8922286Y-14395857D01*
X8936571Y-14367286D01*
X8950857Y-14324429D01*
X8965143Y-14253000D01*
X8965143Y-14195857D01*
X8950857Y-14124429D01*
X8936571Y-14081571D01*
X8922286Y-14053000D01*
X8893714Y-14010143D01*
X8879428Y-13995857D01*
X2394820Y-14630820D02*
X2394820Y-14567180D01*
X2331180Y-14567180D01*
X2331180Y-14630820D01*
X2394820Y-14630820D01*
X2736571Y-14434714D02*
X2765143Y-14434714D01*
X2793714Y-14449000D01*
X2808000Y-14463286D01*
X2822286Y-14491857D01*
X2836571Y-14549000D01*
X2836571Y-14620429D01*
X2822286Y-14677571D01*
X2808000Y-14706143D01*
X2793714Y-14720429D01*
X2765143Y-14734714D01*
X2736571Y-14734714D01*
X2708000Y-14720429D01*
X2693714Y-14706143D01*
X2679429Y-14677571D01*
X2665143Y-14620429D01*
X2665143Y-14549000D01*
X2679429Y-14491857D01*
X2693714Y-14463286D01*
X2708000Y-14449000D01*
X2736571Y-14434714D01*
X2965143Y-14706143D02*
X2979428Y-14720429D01*
X2965143Y-14734714D01*
X2950857Y-14720429D01*
X2965143Y-14706143D01*
X2965143Y-14734714D01*
X3122286Y-14734714D02*
X3179428Y-14734714D01*
X3208000Y-14720429D01*
X3222286Y-14706143D01*
X3250857Y-14663286D01*
X3265143Y-14606143D01*
X3265143Y-14491857D01*
X3250857Y-14463286D01*
X3236571Y-14449000D01*
X3208000Y-14434714D01*
X3150857Y-14434714D01*
X3122286Y-14449000D01*
X3108000Y-14463286D01*
X3093714Y-14491857D01*
X3093714Y-14563286D01*
X3108000Y-14591857D01*
X3122286Y-14606143D01*
X3150857Y-14620429D01*
X3208000Y-14620429D01*
X3236571Y-14606143D01*
X3250857Y-14591857D01*
X3265143Y-14563286D01*
X3450857Y-14434714D02*
X3479428Y-14434714D01*
X3508000Y-14449000D01*
X3522286Y-14463286D01*
X3536571Y-14491857D01*
X3550857Y-14549000D01*
X3550857Y-14620429D01*
X3536571Y-14677571D01*
X3522286Y-14706143D01*
X3508000Y-14720429D01*
X3479428Y-14734714D01*
X3450857Y-14734714D01*
X3422286Y-14720429D01*
X3408000Y-14706143D01*
X3393714Y-14677571D01*
X3379428Y-14620429D01*
X3379428Y-14549000D01*
X3393714Y-14491857D01*
X3408000Y-14463286D01*
X3422286Y-14449000D01*
X3450857Y-14434714D01*
X3679428Y-14734714D02*
X3679428Y-14534714D01*
X3679428Y-14563286D02*
X3693714Y-14549000D01*
X3722286Y-14534714D01*
X3765143Y-14534714D01*
X3793714Y-14549000D01*
X3808000Y-14577571D01*
X3808000Y-14734714D01*
X3808000Y-14577571D02*
X3822286Y-14549000D01*
X3850857Y-14534714D01*
X3893714Y-14534714D01*
X3922286Y-14549000D01*
X3936571Y-14577571D01*
X3936571Y-14734714D01*
X4079428Y-14734714D02*
X4079428Y-14534714D01*
X4079428Y-14563286D02*
X4093714Y-14549000D01*
X4122286Y-14534714D01*
X4165143Y-14534714D01*
X4193714Y-14549000D01*
X4208000Y-14577571D01*
X4208000Y-14734714D01*
X4208000Y-14577571D02*
X4222286Y-14549000D01*
X4250857Y-14534714D01*
X4293714Y-14534714D01*
X4322286Y-14549000D01*
X4336571Y-14577571D01*
X4336571Y-14734714D01*
X4922286Y-14420429D02*
X4665143Y-14806143D01*
X5308000Y-14434714D02*
X5336571Y-14434714D01*
X5365143Y-14449000D01*
X5379428Y-14463286D01*
X5393714Y-14491857D01*
X5408000Y-14549000D01*
X5408000Y-14620429D01*
X5393714Y-14677571D01*
X5379428Y-14706143D01*
X5365143Y-14720429D01*
X5336571Y-14734714D01*
X5308000Y-14734714D01*
X5279428Y-14720429D01*
X5265143Y-14706143D01*
X5250857Y-14677571D01*
X5236571Y-14620429D01*
X5236571Y-14549000D01*
X5250857Y-14491857D01*
X5265143Y-14463286D01*
X5279428Y-14449000D01*
X5308000Y-14434714D01*
X5536571Y-14706143D02*
X5550857Y-14720429D01*
X5536571Y-14734714D01*
X5522286Y-14720429D01*
X5536571Y-14706143D01*
X5536571Y-14734714D01*
X5736571Y-14434714D02*
X5765143Y-14434714D01*
X5793714Y-14449000D01*
X5808000Y-14463286D01*
X5822285Y-14491857D01*
X5836571Y-14549000D01*
X5836571Y-14620429D01*
X5822285Y-14677571D01*
X5808000Y-14706143D01*
X5793714Y-14720429D01*
X5765143Y-14734714D01*
X5736571Y-14734714D01*
X5708000Y-14720429D01*
X5693714Y-14706143D01*
X5679428Y-14677571D01*
X5665143Y-14620429D01*
X5665143Y-14549000D01*
X5679428Y-14491857D01*
X5693714Y-14463286D01*
X5708000Y-14449000D01*
X5736571Y-14434714D01*
X5936571Y-14434714D02*
X6122285Y-14434714D01*
X6022285Y-14549000D01*
X6065143Y-14549000D01*
X6093714Y-14563286D01*
X6108000Y-14577571D01*
X6122285Y-14606143D01*
X6122285Y-14677571D01*
X6108000Y-14706143D01*
X6093714Y-14720429D01*
X6065143Y-14734714D01*
X5979428Y-14734714D01*
X5950857Y-14720429D01*
X5936571Y-14706143D01*
X6393714Y-14434714D02*
X6250857Y-14434714D01*
X6236571Y-14577571D01*
X6250857Y-14563286D01*
X6279428Y-14549000D01*
X6350857Y-14549000D01*
X6379428Y-14563286D01*
X6393714Y-14577571D01*
X6408000Y-14606143D01*
X6408000Y-14677571D01*
X6393714Y-14706143D01*
X6379428Y-14720429D01*
X6350857Y-14734714D01*
X6279428Y-14734714D01*
X6250857Y-14720429D01*
X6236571Y-14706143D01*
X6522286Y-14434714D02*
X6522286Y-14491857D01*
X6636571Y-14434714D02*
X6636571Y-14491857D01*
X7079428Y-14849000D02*
X7065143Y-14834714D01*
X7036571Y-14791857D01*
X7022285Y-14763286D01*
X7008000Y-14720429D01*
X6993714Y-14649000D01*
X6993714Y-14591857D01*
X7008000Y-14520429D01*
X7022285Y-14477571D01*
X7036571Y-14449000D01*
X7065143Y-14406143D01*
X7079428Y-14391857D01*
X7179428Y-14463286D02*
X7193714Y-14449000D01*
X7222285Y-14434714D01*
X7293714Y-14434714D01*
X7322285Y-14449000D01*
X7336571Y-14463286D01*
X7350857Y-14491857D01*
X7350857Y-14520429D01*
X7336571Y-14563286D01*
X7165143Y-14734714D01*
X7350857Y-14734714D01*
X7608000Y-14534714D02*
X7608000Y-14734714D01*
X7536571Y-14420429D02*
X7465143Y-14634714D01*
X7650857Y-14634714D01*
X7993714Y-14734714D02*
X7993714Y-14434714D01*
X8122285Y-14734714D02*
X8122285Y-14577571D01*
X8108000Y-14549000D01*
X8079428Y-14534714D01*
X8036571Y-14534714D01*
X8008000Y-14549000D01*
X7993714Y-14563286D01*
X8308000Y-14734714D02*
X8279428Y-14720429D01*
X8265143Y-14706143D01*
X8250857Y-14677571D01*
X8250857Y-14591857D01*
X8265143Y-14563286D01*
X8279428Y-14549000D01*
X8308000Y-14534714D01*
X8350857Y-14534714D01*
X8379428Y-14549000D01*
X8393714Y-14563286D01*
X8408000Y-14591857D01*
X8408000Y-14677571D01*
X8393714Y-14706143D01*
X8379428Y-14720429D01*
X8350857Y-14734714D01*
X8308000Y-14734714D01*
X8579428Y-14734714D02*
X8550857Y-14720429D01*
X8536571Y-14691857D01*
X8536571Y-14434714D01*
X8808000Y-14720429D02*
X8779429Y-14734714D01*
X8722286Y-14734714D01*
X8693714Y-14720429D01*
X8679429Y-14691857D01*
X8679429Y-14577571D01*
X8693714Y-14549000D01*
X8722286Y-14534714D01*
X8779429Y-14534714D01*
X8808000Y-14549000D01*
X8822286Y-14577571D01*
X8822286Y-14606143D01*
X8679429Y-14634714D01*
X8936571Y-14720429D02*
X8965143Y-14734714D01*
X9022286Y-14734714D01*
X9050857Y-14720429D01*
X9065143Y-14691857D01*
X9065143Y-14677571D01*
X9050857Y-14649000D01*
X9022286Y-14634714D01*
X8979429Y-14634714D01*
X8950857Y-14620429D01*
X8936571Y-14591857D01*
X8936571Y-14577571D01*
X8950857Y-14549000D01*
X8979429Y-14534714D01*
X9022286Y-14534714D01*
X9050857Y-14549000D01*
X9165143Y-14849000D02*
X9179429Y-14834714D01*
X9208000Y-14791857D01*
X9222286Y-14763286D01*
X9236571Y-14720429D01*
X9250857Y-14649000D01*
X9250857Y-14591857D01*
X9236571Y-14520429D01*
X9222286Y-14477571D01*
X9208000Y-14449000D01*
X9179429Y-14406143D01*
X9165143Y-14391857D01*
X2358000Y-15045000D02*
X2408000Y-14995000D01*
X2358000Y-14945000D01*
X2308000Y-14995000D01*
X2358000Y-15045000D01*
X2836571Y-15130714D02*
X2665143Y-15130714D01*
X2750857Y-15130714D02*
X2750857Y-14830714D01*
X2722286Y-14873571D01*
X2693714Y-14902143D01*
X2665143Y-14916429D01*
X2965143Y-15102143D02*
X2979428Y-15116429D01*
X2965143Y-15130714D01*
X2950857Y-15116429D01*
X2965143Y-15102143D01*
X2965143Y-15130714D01*
X3165143Y-14830714D02*
X3193714Y-14830714D01*
X3222286Y-14845000D01*
X3236571Y-14859286D01*
X3250857Y-14887857D01*
X3265143Y-14945000D01*
X3265143Y-15016429D01*
X3250857Y-15073571D01*
X3236571Y-15102143D01*
X3222286Y-15116429D01*
X3193714Y-15130714D01*
X3165143Y-15130714D01*
X3136571Y-15116429D01*
X3122286Y-15102143D01*
X3108000Y-15073571D01*
X3093714Y-15016429D01*
X3093714Y-14945000D01*
X3108000Y-14887857D01*
X3122286Y-14859286D01*
X3136571Y-14845000D01*
X3165143Y-14830714D01*
X3450857Y-14830714D02*
X3479428Y-14830714D01*
X3508000Y-14845000D01*
X3522286Y-14859286D01*
X3536571Y-14887857D01*
X3550857Y-14945000D01*
X3550857Y-15016429D01*
X3536571Y-15073571D01*
X3522286Y-15102143D01*
X3508000Y-15116429D01*
X3479428Y-15130714D01*
X3450857Y-15130714D01*
X3422286Y-15116429D01*
X3408000Y-15102143D01*
X3393714Y-15073571D01*
X3379428Y-15016429D01*
X3379428Y-14945000D01*
X3393714Y-14887857D01*
X3408000Y-14859286D01*
X3422286Y-14845000D01*
X3450857Y-14830714D01*
X3679428Y-15130714D02*
X3679428Y-14930714D01*
X3679428Y-14959286D02*
X3693714Y-14945000D01*
X3722286Y-14930714D01*
X3765143Y-14930714D01*
X3793714Y-14945000D01*
X3808000Y-14973571D01*
X3808000Y-15130714D01*
X3808000Y-14973571D02*
X3822286Y-14945000D01*
X3850857Y-14930714D01*
X3893714Y-14930714D01*
X3922286Y-14945000D01*
X3936571Y-14973571D01*
X3936571Y-15130714D01*
X4079428Y-15130714D02*
X4079428Y-14930714D01*
X4079428Y-14959286D02*
X4093714Y-14945000D01*
X4122286Y-14930714D01*
X4165143Y-14930714D01*
X4193714Y-14945000D01*
X4208000Y-14973571D01*
X4208000Y-15130714D01*
X4208000Y-14973571D02*
X4222286Y-14945000D01*
X4250857Y-14930714D01*
X4293714Y-14930714D01*
X4322286Y-14945000D01*
X4336571Y-14973571D01*
X4336571Y-15130714D01*
X4922286Y-14816429D02*
X4665143Y-15202143D01*
X5308000Y-14830714D02*
X5336571Y-14830714D01*
X5365143Y-14845000D01*
X5379428Y-14859286D01*
X5393714Y-14887857D01*
X5408000Y-14945000D01*
X5408000Y-15016429D01*
X5393714Y-15073571D01*
X5379428Y-15102143D01*
X5365143Y-15116429D01*
X5336571Y-15130714D01*
X5308000Y-15130714D01*
X5279428Y-15116429D01*
X5265143Y-15102143D01*
X5250857Y-15073571D01*
X5236571Y-15016429D01*
X5236571Y-14945000D01*
X5250857Y-14887857D01*
X5265143Y-14859286D01*
X5279428Y-14845000D01*
X5308000Y-14830714D01*
X5536571Y-15102143D02*
X5550857Y-15116429D01*
X5536571Y-15130714D01*
X5522286Y-15116429D01*
X5536571Y-15102143D01*
X5536571Y-15130714D01*
X5736571Y-14830714D02*
X5765143Y-14830714D01*
X5793714Y-14845000D01*
X5808000Y-14859286D01*
X5822285Y-14887857D01*
X5836571Y-14945000D01*
X5836571Y-15016429D01*
X5822285Y-15073571D01*
X5808000Y-15102143D01*
X5793714Y-15116429D01*
X5765143Y-15130714D01*
X5736571Y-15130714D01*
X5708000Y-15116429D01*
X5693714Y-15102143D01*
X5679428Y-15073571D01*
X5665143Y-15016429D01*
X5665143Y-14945000D01*
X5679428Y-14887857D01*
X5693714Y-14859286D01*
X5708000Y-14845000D01*
X5736571Y-14830714D01*
X5936571Y-14830714D02*
X6122285Y-14830714D01*
X6022285Y-14945000D01*
X6065143Y-14945000D01*
X6093714Y-14959286D01*
X6108000Y-14973571D01*
X6122285Y-15002143D01*
X6122285Y-15073571D01*
X6108000Y-15102143D01*
X6093714Y-15116429D01*
X6065143Y-15130714D01*
X5979428Y-15130714D01*
X5950857Y-15116429D01*
X5936571Y-15102143D01*
X6265143Y-15130714D02*
X6322285Y-15130714D01*
X6350857Y-15116429D01*
X6365143Y-15102143D01*
X6393714Y-15059286D01*
X6408000Y-15002143D01*
X6408000Y-14887857D01*
X6393714Y-14859286D01*
X6379428Y-14845000D01*
X6350857Y-14830714D01*
X6293714Y-14830714D01*
X6265143Y-14845000D01*
X6250857Y-14859286D01*
X6236571Y-14887857D01*
X6236571Y-14959286D01*
X6250857Y-14987857D01*
X6265143Y-15002143D01*
X6293714Y-15016429D01*
X6350857Y-15016429D01*
X6379428Y-15002143D01*
X6393714Y-14987857D01*
X6408000Y-14959286D01*
X6522286Y-14830714D02*
X6522286Y-14887857D01*
X6636571Y-14830714D02*
X6636571Y-14887857D01*
X7079428Y-15245000D02*
X7065143Y-15230714D01*
X7036571Y-15187857D01*
X7022285Y-15159286D01*
X7008000Y-15116429D01*
X6993714Y-15045000D01*
X6993714Y-14987857D01*
X7008000Y-14916429D01*
X7022285Y-14873571D01*
X7036571Y-14845000D01*
X7065143Y-14802143D01*
X7079428Y-14787857D01*
X7350857Y-15130714D02*
X7179428Y-15130714D01*
X7265143Y-15130714D02*
X7265143Y-14830714D01*
X7236571Y-14873571D01*
X7208000Y-14902143D01*
X7179428Y-14916429D01*
X7522285Y-14959286D02*
X7493714Y-14945000D01*
X7479428Y-14930714D01*
X7465143Y-14902143D01*
X7465143Y-14887857D01*
X7479428Y-14859286D01*
X7493714Y-14845000D01*
X7522285Y-14830714D01*
X7579428Y-14830714D01*
X7608000Y-14845000D01*
X7622285Y-14859286D01*
X7636571Y-14887857D01*
X7636571Y-14902143D01*
X7622285Y-14930714D01*
X7608000Y-14945000D01*
X7579428Y-14959286D01*
X7522285Y-14959286D01*
X7493714Y-14973571D01*
X7479428Y-14987857D01*
X7465143Y-15016429D01*
X7465143Y-15073571D01*
X7479428Y-15102143D01*
X7493714Y-15116429D01*
X7522285Y-15130714D01*
X7579428Y-15130714D01*
X7608000Y-15116429D01*
X7622285Y-15102143D01*
X7636571Y-15073571D01*
X7636571Y-15016429D01*
X7622285Y-14987857D01*
X7608000Y-14973571D01*
X7579428Y-14959286D01*
X7993714Y-15130714D02*
X7993714Y-14830714D01*
X8122285Y-15130714D02*
X8122285Y-14973571D01*
X8108000Y-14945000D01*
X8079428Y-14930714D01*
X8036571Y-14930714D01*
X8008000Y-14945000D01*
X7993714Y-14959286D01*
X8308000Y-15130714D02*
X8279428Y-15116429D01*
X8265143Y-15102143D01*
X8250857Y-15073571D01*
X8250857Y-14987857D01*
X8265143Y-14959286D01*
X8279428Y-14945000D01*
X8308000Y-14930714D01*
X8350857Y-14930714D01*
X8379428Y-14945000D01*
X8393714Y-14959286D01*
X8408000Y-14987857D01*
X8408000Y-15073571D01*
X8393714Y-15102143D01*
X8379428Y-15116429D01*
X8350857Y-15130714D01*
X8308000Y-15130714D01*
X8579428Y-15130714D02*
X8550857Y-15116429D01*
X8536571Y-15087857D01*
X8536571Y-14830714D01*
X8808000Y-15116429D02*
X8779429Y-15130714D01*
X8722286Y-15130714D01*
X8693714Y-15116429D01*
X8679429Y-15087857D01*
X8679429Y-14973571D01*
X8693714Y-14945000D01*
X8722286Y-14930714D01*
X8779429Y-14930714D01*
X8808000Y-14945000D01*
X8822286Y-14973571D01*
X8822286Y-15002143D01*
X8679429Y-15030714D01*
X8936571Y-15116429D02*
X8965143Y-15130714D01*
X9022286Y-15130714D01*
X9050857Y-15116429D01*
X9065143Y-15087857D01*
X9065143Y-15073571D01*
X9050857Y-15045000D01*
X9022286Y-15030714D01*
X8979429Y-15030714D01*
X8950857Y-15016429D01*
X8936571Y-14987857D01*
X8936571Y-14973571D01*
X8950857Y-14945000D01*
X8979429Y-14930714D01*
X9022286Y-14930714D01*
X9050857Y-14945000D01*
X9165143Y-15245000D02*
X9179429Y-15230714D01*
X9208000Y-15187857D01*
X9222286Y-15159286D01*
X9236571Y-15116429D01*
X9250857Y-15045000D01*
X9250857Y-14987857D01*
X9236571Y-14916429D01*
X9222286Y-14873571D01*
X9208000Y-14845000D01*
X9179429Y-14802143D01*
X9165143Y-14787857D01*
X2307924Y-15340962D02*
X2408000Y-15441038D01*
X2408000Y-15340962D02*
X2307924Y-15441038D01*
X2408000Y-15391000D02*
G75*
G03X2408000Y-15391000I-50038J0D01*
G01*
X2836571Y-15526714D02*
X2665143Y-15526714D01*
X2750857Y-15526714D02*
X2750857Y-15226714D01*
X2722286Y-15269571D01*
X2693714Y-15298143D01*
X2665143Y-15312429D01*
X2965143Y-15498143D02*
X2979428Y-15512429D01*
X2965143Y-15526714D01*
X2950857Y-15512429D01*
X2965143Y-15498143D01*
X2965143Y-15526714D01*
X3165143Y-15226714D02*
X3193714Y-15226714D01*
X3222286Y-15241000D01*
X3236571Y-15255286D01*
X3250857Y-15283857D01*
X3265143Y-15341000D01*
X3265143Y-15412429D01*
X3250857Y-15469571D01*
X3236571Y-15498143D01*
X3222286Y-15512429D01*
X3193714Y-15526714D01*
X3165143Y-15526714D01*
X3136571Y-15512429D01*
X3122286Y-15498143D01*
X3108000Y-15469571D01*
X3093714Y-15412429D01*
X3093714Y-15341000D01*
X3108000Y-15283857D01*
X3122286Y-15255286D01*
X3136571Y-15241000D01*
X3165143Y-15226714D01*
X3450857Y-15226714D02*
X3479428Y-15226714D01*
X3508000Y-15241000D01*
X3522286Y-15255286D01*
X3536571Y-15283857D01*
X3550857Y-15341000D01*
X3550857Y-15412429D01*
X3536571Y-15469571D01*
X3522286Y-15498143D01*
X3508000Y-15512429D01*
X3479428Y-15526714D01*
X3450857Y-15526714D01*
X3422286Y-15512429D01*
X3408000Y-15498143D01*
X3393714Y-15469571D01*
X3379428Y-15412429D01*
X3379428Y-15341000D01*
X3393714Y-15283857D01*
X3408000Y-15255286D01*
X3422286Y-15241000D01*
X3450857Y-15226714D01*
X3679428Y-15526714D02*
X3679428Y-15326714D01*
X3679428Y-15355286D02*
X3693714Y-15341000D01*
X3722286Y-15326714D01*
X3765143Y-15326714D01*
X3793714Y-15341000D01*
X3808000Y-15369571D01*
X3808000Y-15526714D01*
X3808000Y-15369571D02*
X3822286Y-15341000D01*
X3850857Y-15326714D01*
X3893714Y-15326714D01*
X3922286Y-15341000D01*
X3936571Y-15369571D01*
X3936571Y-15526714D01*
X4079428Y-15526714D02*
X4079428Y-15326714D01*
X4079428Y-15355286D02*
X4093714Y-15341000D01*
X4122286Y-15326714D01*
X4165143Y-15326714D01*
X4193714Y-15341000D01*
X4208000Y-15369571D01*
X4208000Y-15526714D01*
X4208000Y-15369571D02*
X4222286Y-15341000D01*
X4250857Y-15326714D01*
X4293714Y-15326714D01*
X4322286Y-15341000D01*
X4336571Y-15369571D01*
X4336571Y-15526714D01*
X4922286Y-15212429D02*
X4665143Y-15598143D01*
X5308000Y-15226714D02*
X5336571Y-15226714D01*
X5365143Y-15241000D01*
X5379428Y-15255286D01*
X5393714Y-15283857D01*
X5408000Y-15341000D01*
X5408000Y-15412429D01*
X5393714Y-15469571D01*
X5379428Y-15498143D01*
X5365143Y-15512429D01*
X5336571Y-15526714D01*
X5308000Y-15526714D01*
X5279428Y-15512429D01*
X5265143Y-15498143D01*
X5250857Y-15469571D01*
X5236571Y-15412429D01*
X5236571Y-15341000D01*
X5250857Y-15283857D01*
X5265143Y-15255286D01*
X5279428Y-15241000D01*
X5308000Y-15226714D01*
X5536571Y-15498143D02*
X5550857Y-15512429D01*
X5536571Y-15526714D01*
X5522286Y-15512429D01*
X5536571Y-15498143D01*
X5536571Y-15526714D01*
X5736571Y-15226714D02*
X5765143Y-15226714D01*
X5793714Y-15241000D01*
X5808000Y-15255286D01*
X5822285Y-15283857D01*
X5836571Y-15341000D01*
X5836571Y-15412429D01*
X5822285Y-15469571D01*
X5808000Y-15498143D01*
X5793714Y-15512429D01*
X5765143Y-15526714D01*
X5736571Y-15526714D01*
X5708000Y-15512429D01*
X5693714Y-15498143D01*
X5679428Y-15469571D01*
X5665143Y-15412429D01*
X5665143Y-15341000D01*
X5679428Y-15283857D01*
X5693714Y-15255286D01*
X5708000Y-15241000D01*
X5736571Y-15226714D01*
X5936571Y-15226714D02*
X6122285Y-15226714D01*
X6022285Y-15341000D01*
X6065143Y-15341000D01*
X6093714Y-15355286D01*
X6108000Y-15369571D01*
X6122285Y-15398143D01*
X6122285Y-15469571D01*
X6108000Y-15498143D01*
X6093714Y-15512429D01*
X6065143Y-15526714D01*
X5979428Y-15526714D01*
X5950857Y-15512429D01*
X5936571Y-15498143D01*
X6265143Y-15526714D02*
X6322285Y-15526714D01*
X6350857Y-15512429D01*
X6365143Y-15498143D01*
X6393714Y-15455286D01*
X6408000Y-15398143D01*
X6408000Y-15283857D01*
X6393714Y-15255286D01*
X6379428Y-15241000D01*
X6350857Y-15226714D01*
X6293714Y-15226714D01*
X6265143Y-15241000D01*
X6250857Y-15255286D01*
X6236571Y-15283857D01*
X6236571Y-15355286D01*
X6250857Y-15383857D01*
X6265143Y-15398143D01*
X6293714Y-15412429D01*
X6350857Y-15412429D01*
X6379428Y-15398143D01*
X6393714Y-15383857D01*
X6408000Y-15355286D01*
X6522286Y-15226714D02*
X6522286Y-15283857D01*
X6636571Y-15226714D02*
X6636571Y-15283857D01*
X7079428Y-15641000D02*
X7065143Y-15626714D01*
X7036571Y-15583857D01*
X7022285Y-15555286D01*
X7008000Y-15512429D01*
X6993714Y-15441000D01*
X6993714Y-15383857D01*
X7008000Y-15312429D01*
X7022285Y-15269571D01*
X7036571Y-15241000D01*
X7065143Y-15198143D01*
X7079428Y-15183857D01*
X7250857Y-15226714D02*
X7279428Y-15226714D01*
X7308000Y-15241000D01*
X7322285Y-15255286D01*
X7336571Y-15283857D01*
X7350857Y-15341000D01*
X7350857Y-15412429D01*
X7336571Y-15469571D01*
X7322285Y-15498143D01*
X7308000Y-15512429D01*
X7279428Y-15526714D01*
X7250857Y-15526714D01*
X7222285Y-15512429D01*
X7208000Y-15498143D01*
X7193714Y-15469571D01*
X7179428Y-15412429D01*
X7179428Y-15341000D01*
X7193714Y-15283857D01*
X7208000Y-15255286D01*
X7222285Y-15241000D01*
X7250857Y-15226714D01*
X7708000Y-15526714D02*
X7708000Y-15226714D01*
X7836571Y-15526714D02*
X7836571Y-15369571D01*
X7822285Y-15341000D01*
X7793714Y-15326714D01*
X7750857Y-15326714D01*
X7722285Y-15341000D01*
X7708000Y-15355286D01*
X8022285Y-15526714D02*
X7993714Y-15512429D01*
X7979428Y-15498143D01*
X7965143Y-15469571D01*
X7965143Y-15383857D01*
X7979428Y-15355286D01*
X7993714Y-15341000D01*
X8022285Y-15326714D01*
X8065143Y-15326714D01*
X8093714Y-15341000D01*
X8108000Y-15355286D01*
X8122285Y-15383857D01*
X8122285Y-15469571D01*
X8108000Y-15498143D01*
X8093714Y-15512429D01*
X8065143Y-15526714D01*
X8022285Y-15526714D01*
X8293714Y-15526714D02*
X8265143Y-15512429D01*
X8250857Y-15483857D01*
X8250857Y-15226714D01*
X8522286Y-15512429D02*
X8493714Y-15526714D01*
X8436571Y-15526714D01*
X8408000Y-15512429D01*
X8393714Y-15483857D01*
X8393714Y-15369571D01*
X8408000Y-15341000D01*
X8436571Y-15326714D01*
X8493714Y-15326714D01*
X8522286Y-15341000D01*
X8536571Y-15369571D01*
X8536571Y-15398143D01*
X8393714Y-15426714D01*
X8650857Y-15512429D02*
X8679429Y-15526714D01*
X8736571Y-15526714D01*
X8765143Y-15512429D01*
X8779429Y-15483857D01*
X8779429Y-15469571D01*
X8765143Y-15441000D01*
X8736571Y-15426714D01*
X8693714Y-15426714D01*
X8665143Y-15412429D01*
X8650857Y-15383857D01*
X8650857Y-15369571D01*
X8665143Y-15341000D01*
X8693714Y-15326714D01*
X8736571Y-15326714D01*
X8765143Y-15341000D01*
X9136571Y-15412429D02*
X9365143Y-15412429D01*
X9250857Y-15526714D02*
X9250857Y-15298143D01*
X9708000Y-15226714D02*
X9893714Y-15226714D01*
X9793714Y-15341000D01*
X9836571Y-15341000D01*
X9865143Y-15355286D01*
X9879428Y-15369571D01*
X9893714Y-15398143D01*
X9893714Y-15469571D01*
X9879428Y-15498143D01*
X9865143Y-15512429D01*
X9836571Y-15526714D01*
X9750857Y-15526714D01*
X9722286Y-15512429D01*
X9708000Y-15498143D01*
X10236571Y-15512429D02*
X10265143Y-15526714D01*
X10322286Y-15526714D01*
X10350857Y-15512429D01*
X10365143Y-15483857D01*
X10365143Y-15469571D01*
X10350857Y-15441000D01*
X10322286Y-15426714D01*
X10279428Y-15426714D01*
X10250857Y-15412429D01*
X10236571Y-15383857D01*
X10236571Y-15369571D01*
X10250857Y-15341000D01*
X10279428Y-15326714D01*
X10322286Y-15326714D01*
X10350857Y-15341000D01*
X10536571Y-15526714D02*
X10508000Y-15512429D01*
X10493714Y-15483857D01*
X10493714Y-15226714D01*
X10693714Y-15526714D02*
X10665143Y-15512429D01*
X10650857Y-15498143D01*
X10636571Y-15469571D01*
X10636571Y-15383857D01*
X10650857Y-15355286D01*
X10665143Y-15341000D01*
X10693714Y-15326714D01*
X10736571Y-15326714D01*
X10765143Y-15341000D01*
X10779428Y-15355286D01*
X10793714Y-15383857D01*
X10793714Y-15469571D01*
X10779428Y-15498143D01*
X10765143Y-15512429D01*
X10736571Y-15526714D01*
X10693714Y-15526714D01*
X10879428Y-15326714D02*
X10993714Y-15326714D01*
X10922286Y-15226714D02*
X10922286Y-15483857D01*
X10936571Y-15512429D01*
X10965143Y-15526714D01*
X10993714Y-15526714D01*
X11079429Y-15512429D02*
X11108000Y-15526714D01*
X11165143Y-15526714D01*
X11193714Y-15512429D01*
X11208000Y-15483857D01*
X11208000Y-15469571D01*
X11193714Y-15441000D01*
X11165143Y-15426714D01*
X11122286Y-15426714D01*
X11093714Y-15412429D01*
X11079429Y-15383857D01*
X11079429Y-15369571D01*
X11093714Y-15341000D01*
X11122286Y-15326714D01*
X11165143Y-15326714D01*
X11193714Y-15341000D01*
X11308000Y-15641000D02*
X11322286Y-15626714D01*
X11350857Y-15583857D01*
X11365143Y-15555286D01*
X11379428Y-15512429D01*
X11393714Y-15441000D01*
X11393714Y-15383857D01*
X11379428Y-15312429D01*
X11365143Y-15269571D01*
X11350857Y-15241000D01*
X11322286Y-15198143D01*
X11308000Y-15183857D01*
X2306400Y-15736200D02*
X2408000Y-15837800D01*
X2408000Y-15736200D02*
X2306400Y-15837800D01*
X2357200Y-15736200D02*
X2357200Y-15837800D01*
X2306400Y-15787000D02*
X2408000Y-15787000D01*
X2836571Y-15922714D02*
X2665143Y-15922714D01*
X2750857Y-15922714D02*
X2750857Y-15622714D01*
X2722286Y-15665571D01*
X2693714Y-15694143D01*
X2665143Y-15708429D01*
X2965143Y-15894143D02*
X2979428Y-15908429D01*
X2965143Y-15922714D01*
X2950857Y-15908429D01*
X2965143Y-15894143D01*
X2965143Y-15922714D01*
X3165143Y-15622714D02*
X3193714Y-15622714D01*
X3222286Y-15637000D01*
X3236571Y-15651286D01*
X3250857Y-15679857D01*
X3265143Y-15737000D01*
X3265143Y-15808429D01*
X3250857Y-15865571D01*
X3236571Y-15894143D01*
X3222286Y-15908429D01*
X3193714Y-15922714D01*
X3165143Y-15922714D01*
X3136571Y-15908429D01*
X3122286Y-15894143D01*
X3108000Y-15865571D01*
X3093714Y-15808429D01*
X3093714Y-15737000D01*
X3108000Y-15679857D01*
X3122286Y-15651286D01*
X3136571Y-15637000D01*
X3165143Y-15622714D01*
X3379428Y-15651286D02*
X3393714Y-15637000D01*
X3422286Y-15622714D01*
X3493714Y-15622714D01*
X3522286Y-15637000D01*
X3536571Y-15651286D01*
X3550857Y-15679857D01*
X3550857Y-15708429D01*
X3536571Y-15751286D01*
X3365143Y-15922714D01*
X3550857Y-15922714D01*
X3679428Y-15922714D02*
X3679428Y-15722714D01*
X3679428Y-15751286D02*
X3693714Y-15737000D01*
X3722286Y-15722714D01*
X3765143Y-15722714D01*
X3793714Y-15737000D01*
X3808000Y-15765571D01*
X3808000Y-15922714D01*
X3808000Y-15765571D02*
X3822286Y-15737000D01*
X3850857Y-15722714D01*
X3893714Y-15722714D01*
X3922286Y-15737000D01*
X3936571Y-15765571D01*
X3936571Y-15922714D01*
X4079428Y-15922714D02*
X4079428Y-15722714D01*
X4079428Y-15751286D02*
X4093714Y-15737000D01*
X4122286Y-15722714D01*
X4165143Y-15722714D01*
X4193714Y-15737000D01*
X4208000Y-15765571D01*
X4208000Y-15922714D01*
X4208000Y-15765571D02*
X4222286Y-15737000D01*
X4250857Y-15722714D01*
X4293714Y-15722714D01*
X4322286Y-15737000D01*
X4336571Y-15765571D01*
X4336571Y-15922714D01*
X4922286Y-15608429D02*
X4665143Y-15994143D01*
X5308000Y-15622714D02*
X5336571Y-15622714D01*
X5365143Y-15637000D01*
X5379428Y-15651286D01*
X5393714Y-15679857D01*
X5408000Y-15737000D01*
X5408000Y-15808429D01*
X5393714Y-15865571D01*
X5379428Y-15894143D01*
X5365143Y-15908429D01*
X5336571Y-15922714D01*
X5308000Y-15922714D01*
X5279428Y-15908429D01*
X5265143Y-15894143D01*
X5250857Y-15865571D01*
X5236571Y-15808429D01*
X5236571Y-15737000D01*
X5250857Y-15679857D01*
X5265143Y-15651286D01*
X5279428Y-15637000D01*
X5308000Y-15622714D01*
X5536571Y-15894143D02*
X5550857Y-15908429D01*
X5536571Y-15922714D01*
X5522286Y-15908429D01*
X5536571Y-15894143D01*
X5536571Y-15922714D01*
X5736571Y-15622714D02*
X5765143Y-15622714D01*
X5793714Y-15637000D01*
X5808000Y-15651286D01*
X5822285Y-15679857D01*
X5836571Y-15737000D01*
X5836571Y-15808429D01*
X5822285Y-15865571D01*
X5808000Y-15894143D01*
X5793714Y-15908429D01*
X5765143Y-15922714D01*
X5736571Y-15922714D01*
X5708000Y-15908429D01*
X5693714Y-15894143D01*
X5679428Y-15865571D01*
X5665143Y-15808429D01*
X5665143Y-15737000D01*
X5679428Y-15679857D01*
X5693714Y-15651286D01*
X5708000Y-15637000D01*
X5736571Y-15622714D01*
X6093714Y-15722714D02*
X6093714Y-15922714D01*
X6022285Y-15608429D02*
X5950857Y-15822714D01*
X6136571Y-15822714D01*
X6308000Y-15622714D02*
X6336571Y-15622714D01*
X6365143Y-15637000D01*
X6379428Y-15651286D01*
X6393714Y-15679857D01*
X6408000Y-15737000D01*
X6408000Y-15808429D01*
X6393714Y-15865571D01*
X6379428Y-15894143D01*
X6365143Y-15908429D01*
X6336571Y-15922714D01*
X6308000Y-15922714D01*
X6279428Y-15908429D01*
X6265143Y-15894143D01*
X6250857Y-15865571D01*
X6236571Y-15808429D01*
X6236571Y-15737000D01*
X6250857Y-15679857D01*
X6265143Y-15651286D01*
X6279428Y-15637000D01*
X6308000Y-15622714D01*
X6522286Y-15622714D02*
X6522286Y-15679857D01*
X6636571Y-15622714D02*
X6636571Y-15679857D01*
X7079428Y-16037000D02*
X7065143Y-16022714D01*
X7036571Y-15979857D01*
X7022285Y-15951286D01*
X7008000Y-15908429D01*
X6993714Y-15837000D01*
X6993714Y-15779857D01*
X7008000Y-15708429D01*
X7022285Y-15665571D01*
X7036571Y-15637000D01*
X7065143Y-15594143D01*
X7079428Y-15579857D01*
X7179428Y-15651286D02*
X7193714Y-15637000D01*
X7222285Y-15622714D01*
X7293714Y-15622714D01*
X7322285Y-15637000D01*
X7336571Y-15651286D01*
X7350857Y-15679857D01*
X7350857Y-15708429D01*
X7336571Y-15751286D01*
X7165143Y-15922714D01*
X7350857Y-15922714D01*
X7708000Y-15922714D02*
X7708000Y-15622714D01*
X7836571Y-15922714D02*
X7836571Y-15765571D01*
X7822285Y-15737000D01*
X7793714Y-15722714D01*
X7750857Y-15722714D01*
X7722285Y-15737000D01*
X7708000Y-15751286D01*
X8022285Y-15922714D02*
X7993714Y-15908429D01*
X7979428Y-15894143D01*
X7965143Y-15865571D01*
X7965143Y-15779857D01*
X7979428Y-15751286D01*
X7993714Y-15737000D01*
X8022285Y-15722714D01*
X8065143Y-15722714D01*
X8093714Y-15737000D01*
X8108000Y-15751286D01*
X8122285Y-15779857D01*
X8122285Y-15865571D01*
X8108000Y-15894143D01*
X8093714Y-15908429D01*
X8065143Y-15922714D01*
X8022285Y-15922714D01*
X8293714Y-15922714D02*
X8265143Y-15908429D01*
X8250857Y-15879857D01*
X8250857Y-15622714D01*
X8522286Y-15908429D02*
X8493714Y-15922714D01*
X8436571Y-15922714D01*
X8408000Y-15908429D01*
X8393714Y-15879857D01*
X8393714Y-15765571D01*
X8408000Y-15737000D01*
X8436571Y-15722714D01*
X8493714Y-15722714D01*
X8522286Y-15737000D01*
X8536571Y-15765571D01*
X8536571Y-15794143D01*
X8393714Y-15822714D01*
X8650857Y-15908429D02*
X8679429Y-15922714D01*
X8736571Y-15922714D01*
X8765143Y-15908429D01*
X8779429Y-15879857D01*
X8779429Y-15865571D01*
X8765143Y-15837000D01*
X8736571Y-15822714D01*
X8693714Y-15822714D01*
X8665143Y-15808429D01*
X8650857Y-15779857D01*
X8650857Y-15765571D01*
X8665143Y-15737000D01*
X8693714Y-15722714D01*
X8736571Y-15722714D01*
X8765143Y-15737000D01*
X8879428Y-16037000D02*
X8893714Y-16022714D01*
X8922286Y-15979857D01*
X8936571Y-15951286D01*
X8950857Y-15908429D01*
X8965143Y-15837000D01*
X8965143Y-15779857D01*
X8950857Y-15708429D01*
X8936571Y-15665571D01*
X8922286Y-15637000D01*
X8893714Y-15594143D01*
X8879428Y-15579857D01*
X2217500Y-16087750D02*
X2408000Y-16278250D01*
X2408000Y-16087750D02*
X2217500Y-16278250D01*
X2380103Y-16250353D02*
X2380103Y-16115647D01*
X2245397Y-16115647D01*
X2245397Y-16250353D01*
X2380103Y-16250353D01*
X2836571Y-16318714D02*
X2665143Y-16318714D01*
X2750857Y-16318714D02*
X2750857Y-16018714D01*
X2722286Y-16061571D01*
X2693714Y-16090143D01*
X2665143Y-16104429D01*
X2965143Y-16290143D02*
X2979428Y-16304429D01*
X2965143Y-16318714D01*
X2950857Y-16304429D01*
X2965143Y-16290143D01*
X2965143Y-16318714D01*
X3122286Y-16318714D02*
X3179428Y-16318714D01*
X3208000Y-16304429D01*
X3222286Y-16290143D01*
X3250857Y-16247286D01*
X3265143Y-16190143D01*
X3265143Y-16075857D01*
X3250857Y-16047286D01*
X3236571Y-16033000D01*
X3208000Y-16018714D01*
X3150857Y-16018714D01*
X3122286Y-16033000D01*
X3108000Y-16047286D01*
X3093714Y-16075857D01*
X3093714Y-16147286D01*
X3108000Y-16175857D01*
X3122286Y-16190143D01*
X3150857Y-16204429D01*
X3208000Y-16204429D01*
X3236571Y-16190143D01*
X3250857Y-16175857D01*
X3265143Y-16147286D01*
X3550857Y-16318714D02*
X3379428Y-16318714D01*
X3465143Y-16318714D02*
X3465143Y-16018714D01*
X3436571Y-16061571D01*
X3408000Y-16090143D01*
X3379428Y-16104429D01*
X3679428Y-16318714D02*
X3679428Y-16118714D01*
X3679428Y-16147286D02*
X3693714Y-16133000D01*
X3722286Y-16118714D01*
X3765143Y-16118714D01*
X3793714Y-16133000D01*
X3808000Y-16161571D01*
X3808000Y-16318714D01*
X3808000Y-16161571D02*
X3822286Y-16133000D01*
X3850857Y-16118714D01*
X3893714Y-16118714D01*
X3922286Y-16133000D01*
X3936571Y-16161571D01*
X3936571Y-16318714D01*
X4079428Y-16318714D02*
X4079428Y-16118714D01*
X4079428Y-16147286D02*
X4093714Y-16133000D01*
X4122286Y-16118714D01*
X4165143Y-16118714D01*
X4193714Y-16133000D01*
X4208000Y-16161571D01*
X4208000Y-16318714D01*
X4208000Y-16161571D02*
X4222286Y-16133000D01*
X4250857Y-16118714D01*
X4293714Y-16118714D01*
X4322286Y-16133000D01*
X4336571Y-16161571D01*
X4336571Y-16318714D01*
X4922286Y-16004429D02*
X4665143Y-16390143D01*
X5308000Y-16018714D02*
X5336571Y-16018714D01*
X5365143Y-16033000D01*
X5379428Y-16047286D01*
X5393714Y-16075857D01*
X5408000Y-16133000D01*
X5408000Y-16204429D01*
X5393714Y-16261571D01*
X5379428Y-16290143D01*
X5365143Y-16304429D01*
X5336571Y-16318714D01*
X5308000Y-16318714D01*
X5279428Y-16304429D01*
X5265143Y-16290143D01*
X5250857Y-16261571D01*
X5236571Y-16204429D01*
X5236571Y-16133000D01*
X5250857Y-16075857D01*
X5265143Y-16047286D01*
X5279428Y-16033000D01*
X5308000Y-16018714D01*
X5536571Y-16290143D02*
X5550857Y-16304429D01*
X5536571Y-16318714D01*
X5522286Y-16304429D01*
X5536571Y-16290143D01*
X5536571Y-16318714D01*
X5736571Y-16018714D02*
X5765143Y-16018714D01*
X5793714Y-16033000D01*
X5808000Y-16047286D01*
X5822285Y-16075857D01*
X5836571Y-16133000D01*
X5836571Y-16204429D01*
X5822285Y-16261571D01*
X5808000Y-16290143D01*
X5793714Y-16304429D01*
X5765143Y-16318714D01*
X5736571Y-16318714D01*
X5708000Y-16304429D01*
X5693714Y-16290143D01*
X5679428Y-16261571D01*
X5665143Y-16204429D01*
X5665143Y-16133000D01*
X5679428Y-16075857D01*
X5693714Y-16047286D01*
X5708000Y-16033000D01*
X5736571Y-16018714D01*
X5936571Y-16018714D02*
X6136571Y-16018714D01*
X6008000Y-16318714D01*
X6393714Y-16018714D02*
X6250857Y-16018714D01*
X6236571Y-16161571D01*
X6250857Y-16147286D01*
X6279428Y-16133000D01*
X6350857Y-16133000D01*
X6379428Y-16147286D01*
X6393714Y-16161571D01*
X6408000Y-16190143D01*
X6408000Y-16261571D01*
X6393714Y-16290143D01*
X6379428Y-16304429D01*
X6350857Y-16318714D01*
X6279428Y-16318714D01*
X6250857Y-16304429D01*
X6236571Y-16290143D01*
X6522286Y-16018714D02*
X6522286Y-16075857D01*
X6636571Y-16018714D02*
X6636571Y-16075857D01*
X7079428Y-16433000D02*
X7065143Y-16418714D01*
X7036571Y-16375857D01*
X7022285Y-16347286D01*
X7008000Y-16304429D01*
X6993714Y-16233000D01*
X6993714Y-16175857D01*
X7008000Y-16104429D01*
X7022285Y-16061571D01*
X7036571Y-16033000D01*
X7065143Y-15990143D01*
X7079428Y-15975857D01*
X7322285Y-16118714D02*
X7322285Y-16318714D01*
X7250857Y-16004429D02*
X7179428Y-16218714D01*
X7365143Y-16218714D01*
X7708000Y-16318714D02*
X7708000Y-16018714D01*
X7836571Y-16318714D02*
X7836571Y-16161571D01*
X7822285Y-16133000D01*
X7793714Y-16118714D01*
X7750857Y-16118714D01*
X7722285Y-16133000D01*
X7708000Y-16147286D01*
X8022285Y-16318714D02*
X7993714Y-16304429D01*
X7979428Y-16290143D01*
X7965143Y-16261571D01*
X7965143Y-16175857D01*
X7979428Y-16147286D01*
X7993714Y-16133000D01*
X8022285Y-16118714D01*
X8065143Y-16118714D01*
X8093714Y-16133000D01*
X8108000Y-16147286D01*
X8122285Y-16175857D01*
X8122285Y-16261571D01*
X8108000Y-16290143D01*
X8093714Y-16304429D01*
X8065143Y-16318714D01*
X8022285Y-16318714D01*
X8293714Y-16318714D02*
X8265143Y-16304429D01*
X8250857Y-16275857D01*
X8250857Y-16018714D01*
X8522286Y-16304429D02*
X8493714Y-16318714D01*
X8436571Y-16318714D01*
X8408000Y-16304429D01*
X8393714Y-16275857D01*
X8393714Y-16161571D01*
X8408000Y-16133000D01*
X8436571Y-16118714D01*
X8493714Y-16118714D01*
X8522286Y-16133000D01*
X8536571Y-16161571D01*
X8536571Y-16190143D01*
X8393714Y-16218714D01*
X8650857Y-16304429D02*
X8679429Y-16318714D01*
X8736571Y-16318714D01*
X8765143Y-16304429D01*
X8779429Y-16275857D01*
X8779429Y-16261571D01*
X8765143Y-16233000D01*
X8736571Y-16218714D01*
X8693714Y-16218714D01*
X8665143Y-16204429D01*
X8650857Y-16175857D01*
X8650857Y-16161571D01*
X8665143Y-16133000D01*
X8693714Y-16118714D01*
X8736571Y-16118714D01*
X8765143Y-16133000D01*
X8879428Y-16433000D02*
X8893714Y-16418714D01*
X8922286Y-16375857D01*
X8936571Y-16347286D01*
X8950857Y-16304429D01*
X8965143Y-16233000D01*
X8965143Y-16175857D01*
X8950857Y-16104429D01*
X8936571Y-16061571D01*
X8922286Y-16033000D01*
X8893714Y-15990143D01*
X8879428Y-15975857D01*
X2208102Y-16479051D02*
X2408000Y-16678949D01*
X2408000Y-16479051D02*
X2208102Y-16678949D01*
X2308051Y-16678949D02*
X2408000Y-16579000D01*
X2308051Y-16479051D01*
X2208102Y-16579000D01*
X2308051Y-16678949D01*
X2665143Y-16443286D02*
X2679429Y-16429000D01*
X2708000Y-16414714D01*
X2779429Y-16414714D01*
X2808000Y-16429000D01*
X2822286Y-16443286D01*
X2836571Y-16471857D01*
X2836571Y-16500429D01*
X2822286Y-16543286D01*
X2650857Y-16714714D01*
X2836571Y-16714714D01*
X2965143Y-16686143D02*
X2979428Y-16700429D01*
X2965143Y-16714714D01*
X2950857Y-16700429D01*
X2965143Y-16686143D01*
X2965143Y-16714714D01*
X3165143Y-16414714D02*
X3193714Y-16414714D01*
X3222286Y-16429000D01*
X3236571Y-16443286D01*
X3250857Y-16471857D01*
X3265143Y-16529000D01*
X3265143Y-16600429D01*
X3250857Y-16657571D01*
X3236571Y-16686143D01*
X3222286Y-16700429D01*
X3193714Y-16714714D01*
X3165143Y-16714714D01*
X3136571Y-16700429D01*
X3122286Y-16686143D01*
X3108000Y-16657571D01*
X3093714Y-16600429D01*
X3093714Y-16529000D01*
X3108000Y-16471857D01*
X3122286Y-16443286D01*
X3136571Y-16429000D01*
X3165143Y-16414714D01*
X3450857Y-16414714D02*
X3479428Y-16414714D01*
X3508000Y-16429000D01*
X3522286Y-16443286D01*
X3536571Y-16471857D01*
X3550857Y-16529000D01*
X3550857Y-16600429D01*
X3536571Y-16657571D01*
X3522286Y-16686143D01*
X3508000Y-16700429D01*
X3479428Y-16714714D01*
X3450857Y-16714714D01*
X3422286Y-16700429D01*
X3408000Y-16686143D01*
X3393714Y-16657571D01*
X3379428Y-16600429D01*
X3379428Y-16529000D01*
X3393714Y-16471857D01*
X3408000Y-16443286D01*
X3422286Y-16429000D01*
X3450857Y-16414714D01*
X3679428Y-16714714D02*
X3679428Y-16514714D01*
X3679428Y-16543286D02*
X3693714Y-16529000D01*
X3722286Y-16514714D01*
X3765143Y-16514714D01*
X3793714Y-16529000D01*
X3808000Y-16557571D01*
X3808000Y-16714714D01*
X3808000Y-16557571D02*
X3822286Y-16529000D01*
X3850857Y-16514714D01*
X3893714Y-16514714D01*
X3922286Y-16529000D01*
X3936571Y-16557571D01*
X3936571Y-16714714D01*
X4079428Y-16714714D02*
X4079428Y-16514714D01*
X4079428Y-16543286D02*
X4093714Y-16529000D01*
X4122286Y-16514714D01*
X4165143Y-16514714D01*
X4193714Y-16529000D01*
X4208000Y-16557571D01*
X4208000Y-16714714D01*
X4208000Y-16557571D02*
X4222286Y-16529000D01*
X4250857Y-16514714D01*
X4293714Y-16514714D01*
X4322286Y-16529000D01*
X4336571Y-16557571D01*
X4336571Y-16714714D01*
X4922286Y-16400429D02*
X4665143Y-16786143D01*
X5308000Y-16414714D02*
X5336571Y-16414714D01*
X5365143Y-16429000D01*
X5379428Y-16443286D01*
X5393714Y-16471857D01*
X5408000Y-16529000D01*
X5408000Y-16600429D01*
X5393714Y-16657571D01*
X5379428Y-16686143D01*
X5365143Y-16700429D01*
X5336571Y-16714714D01*
X5308000Y-16714714D01*
X5279428Y-16700429D01*
X5265143Y-16686143D01*
X5250857Y-16657571D01*
X5236571Y-16600429D01*
X5236571Y-16529000D01*
X5250857Y-16471857D01*
X5265143Y-16443286D01*
X5279428Y-16429000D01*
X5308000Y-16414714D01*
X5536571Y-16686143D02*
X5550857Y-16700429D01*
X5536571Y-16714714D01*
X5522286Y-16700429D01*
X5536571Y-16686143D01*
X5536571Y-16714714D01*
X5736571Y-16414714D02*
X5765143Y-16414714D01*
X5793714Y-16429000D01*
X5808000Y-16443286D01*
X5822285Y-16471857D01*
X5836571Y-16529000D01*
X5836571Y-16600429D01*
X5822285Y-16657571D01*
X5808000Y-16686143D01*
X5793714Y-16700429D01*
X5765143Y-16714714D01*
X5736571Y-16714714D01*
X5708000Y-16700429D01*
X5693714Y-16686143D01*
X5679428Y-16657571D01*
X5665143Y-16600429D01*
X5665143Y-16529000D01*
X5679428Y-16471857D01*
X5693714Y-16443286D01*
X5708000Y-16429000D01*
X5736571Y-16414714D01*
X5936571Y-16414714D02*
X6136571Y-16414714D01*
X6008000Y-16714714D01*
X6265143Y-16714714D02*
X6322285Y-16714714D01*
X6350857Y-16700429D01*
X6365143Y-16686143D01*
X6393714Y-16643286D01*
X6408000Y-16586143D01*
X6408000Y-16471857D01*
X6393714Y-16443286D01*
X6379428Y-16429000D01*
X6350857Y-16414714D01*
X6293714Y-16414714D01*
X6265143Y-16429000D01*
X6250857Y-16443286D01*
X6236571Y-16471857D01*
X6236571Y-16543286D01*
X6250857Y-16571857D01*
X6265143Y-16586143D01*
X6293714Y-16600429D01*
X6350857Y-16600429D01*
X6379428Y-16586143D01*
X6393714Y-16571857D01*
X6408000Y-16543286D01*
X6522286Y-16414714D02*
X6522286Y-16471857D01*
X6636571Y-16414714D02*
X6636571Y-16471857D01*
X7079428Y-16829000D02*
X7065143Y-16814714D01*
X7036571Y-16771857D01*
X7022285Y-16743286D01*
X7008000Y-16700429D01*
X6993714Y-16629000D01*
X6993714Y-16571857D01*
X7008000Y-16500429D01*
X7022285Y-16457571D01*
X7036571Y-16429000D01*
X7065143Y-16386143D01*
X7079428Y-16371857D01*
X7322285Y-16514714D02*
X7322285Y-16714714D01*
X7250857Y-16400429D02*
X7179428Y-16614714D01*
X7365143Y-16614714D01*
X7708000Y-16714714D02*
X7708000Y-16414714D01*
X7836571Y-16714714D02*
X7836571Y-16557571D01*
X7822285Y-16529000D01*
X7793714Y-16514714D01*
X7750857Y-16514714D01*
X7722285Y-16529000D01*
X7708000Y-16543286D01*
X8022285Y-16714714D02*
X7993714Y-16700429D01*
X7979428Y-16686143D01*
X7965143Y-16657571D01*
X7965143Y-16571857D01*
X7979428Y-16543286D01*
X7993714Y-16529000D01*
X8022285Y-16514714D01*
X8065143Y-16514714D01*
X8093714Y-16529000D01*
X8108000Y-16543286D01*
X8122285Y-16571857D01*
X8122285Y-16657571D01*
X8108000Y-16686143D01*
X8093714Y-16700429D01*
X8065143Y-16714714D01*
X8022285Y-16714714D01*
X8293714Y-16714714D02*
X8265143Y-16700429D01*
X8250857Y-16671857D01*
X8250857Y-16414714D01*
X8522286Y-16700429D02*
X8493714Y-16714714D01*
X8436571Y-16714714D01*
X8408000Y-16700429D01*
X8393714Y-16671857D01*
X8393714Y-16557571D01*
X8408000Y-16529000D01*
X8436571Y-16514714D01*
X8493714Y-16514714D01*
X8522286Y-16529000D01*
X8536571Y-16557571D01*
X8536571Y-16586143D01*
X8393714Y-16614714D01*
X8650857Y-16700429D02*
X8679429Y-16714714D01*
X8736571Y-16714714D01*
X8765143Y-16700429D01*
X8779429Y-16671857D01*
X8779429Y-16657571D01*
X8765143Y-16629000D01*
X8736571Y-16614714D01*
X8693714Y-16614714D01*
X8665143Y-16600429D01*
X8650857Y-16571857D01*
X8650857Y-16557571D01*
X8665143Y-16529000D01*
X8693714Y-16514714D01*
X8736571Y-16514714D01*
X8765143Y-16529000D01*
X8879428Y-16829000D02*
X8893714Y-16814714D01*
X8922286Y-16771857D01*
X8936571Y-16743286D01*
X8950857Y-16700429D01*
X8965143Y-16629000D01*
X8965143Y-16571857D01*
X8950857Y-16500429D01*
X8936571Y-16457571D01*
X8922286Y-16429000D01*
X8893714Y-16386143D01*
X8879428Y-16371857D01*
M02*
