M48
;DRILL file {KiCad 4.0.2+dfsg1-stable} date Sun 12 Jun 2016 04:00:07 PM EDT
;FORMAT={-:-/ absolute / metric / decimal}
FMAT,2
METRIC,TZ
T1C0.381
T2C0.635
T3C0.813
T4C0.900
T5C1.001
T6C1.016
T7C1.397
%
G90
G05
M71
T1
X29.591Y-41.148
X32.639Y-40.894
X33.02Y-59.182
X37.719Y-40.894
X39.878Y-55.118
X41.402Y-61.976
X41.783Y-44.196
X43.815Y-41.148
X46.863Y-40.894
X49.53Y-67.818
X49.53Y-69.596
X49.53Y-71.374
X51.943Y-40.894
X55.245Y-57.15
X56.007Y-44.196
X56.515Y-62.992
X57.785Y-62.992
X57.912Y-67.564
X57.912Y-69.596
X58.039Y-41.148
X58.928Y-66.548
X58.928Y-68.58
X58.928Y-70.612
X59.055Y-58.293
X59.055Y-61.976
X60.452Y-50.419
X60.452Y-57.15
X61.087Y-40.894
X61.849Y-57.15
X63.119Y-62.992
X64.389Y-62.992
X65.659Y-58.293
X65.659Y-61.976
X66.167Y-40.894
X67.056Y-50.419
X67.056Y-57.15
X68.453Y-57.15
X69.723Y-62.992
X70.231Y-44.196
X70.866Y-70.866
X70.993Y-62.992
X72.263Y-41.148
X72.263Y-58.293
X72.263Y-61.976
X73.66Y-50.419
X73.66Y-57.15
X75.057Y-57.15
X75.311Y-40.894
X76.327Y-62.992
X77.597Y-62.992
X78.867Y-58.166
X78.867Y-61.976
X80.264Y-50.419
X80.264Y-57.15
X80.264Y-66.802
X80.391Y-40.894
X81.026Y-68.326
X81.661Y-57.15
X82.931Y-62.992
X84.201Y-62.992
X84.455Y-44.196
X85.471Y-58.166
X85.471Y-61.976
X86.487Y-41.148
X86.614Y-67.691
X86.868Y-50.419
X86.868Y-57.15
X86.868Y-71.12
X87.757Y-67.691
X88.138Y-71.12
X88.265Y-57.15
X88.9Y-70.358
X89.154Y-67.564
X89.535Y-40.894
X89.535Y-62.992
X89.916Y-68.326
X90.805Y-62.992
X92.075Y-61.976
X92.964Y-66.802
X92.964Y-72.39
X93.472Y-53.34
X93.726Y-68.072
X93.726Y-71.628
X93.98Y-63.627
X94.488Y-72.39
X94.615Y-40.894
X94.996Y-54.61
X95.25Y-63.627
X95.25Y-71.628
X96.012Y-72.39
X96.52Y-63.754
X96.774Y-54.61
X96.774Y-66.421
X96.774Y-71.628
X96.901Y-69.596
X97.536Y-72.39
X98.552Y-69.85
X98.679Y-44.196
X100.203Y-55.372
X100.33Y-65.659
X100.711Y-41.148
X101.219Y-55.372
X101.473Y-70.231
X102.362Y-74.168
X102.616Y-62.738
X103.759Y-40.894
X104.648Y-51.816
X106.68Y-72.39
X107.315Y-53.594
X107.315Y-55.499
X107.442Y-45.974
X108.458Y-72.39
X108.839Y-40.894
X110.236Y-72.39
T2
X37.084Y-54.356
X37.084Y-56.134
X107.315Y-57.404
T3
X34.671Y-40.132
X39.751Y-40.132
X48.895Y-40.132
X53.975Y-40.132
X63.119Y-40.132
X68.199Y-40.132
X77.343Y-40.132
X82.423Y-40.132
X91.567Y-40.132
X96.647Y-40.132
X105.41Y-61.976
X105.791Y-40.132
X107.95Y-61.976
X110.49Y-61.976
X110.871Y-40.132
X113.03Y-61.976
T4
X32.258Y-37.338
X33.528Y-34.798
X34.798Y-37.338
X36.068Y-34.798
X46.482Y-37.338
X47.752Y-34.798
X49.022Y-37.338
X50.292Y-34.798
X60.706Y-37.338
X61.976Y-34.798
X63.246Y-37.338
X64.516Y-34.798
X74.93Y-37.338
X76.2Y-34.798
X77.47Y-37.338
X78.74Y-34.798
X89.154Y-37.338
X90.424Y-34.798
X91.694Y-37.338
X92.964Y-34.798
X103.378Y-37.338
X104.648Y-34.798
X105.918Y-37.338
X107.188Y-34.798
T6
X46.355Y-66.04
X46.355Y-71.12
T7
X28.956Y-51.816
X28.956Y-56.896
X28.956Y-67.056
X28.956Y-72.136
T5
X36.593Y-64.412G85X38.591Y-64.412
G05
X36.593Y-70.411G85X38.591Y-70.411
G05
X42.291Y-68.411G85X42.291Y-66.412
G05
T0
M30
