G04 (created by PCBNEW (25-Oct-2014 BZR 4029)-stable) date Wed 10 Jun 2015 01:49:49 AM EDT*
%MOIN*%
G04 Gerber Fmt 3.4, Leading zero omitted, Abs format*
%FSLAX34Y34*%
G01*
G70*
G90*
G04 APERTURE LIST*
%ADD10C,0.00590551*%
%ADD11C,0.0708661*%
%ADD12R,0.07X0.07*%
%ADD13C,0.07*%
%ADD14C,0.15*%
%ADD15R,0.1378X0.1378*%
%ADD16C,0.055*%
%ADD17R,0.055X0.055*%
%ADD18C,0.035*%
%ADD19C,0.045*%
%ADD20C,0.03*%
%ADD21C,0.008*%
%ADD22C,0.012*%
%ADD23C,0.016*%
G04 APERTURE END LIST*
G54D10*
G54D11*
X16450Y-13700D03*
X15950Y-14700D03*
X15450Y-13700D03*
X14950Y-14700D03*
G54D12*
X20200Y-26000D03*
G54D13*
X20200Y-28000D03*
G54D14*
X11400Y-28400D03*
X11400Y-26400D03*
X11400Y-22400D03*
X11400Y-20400D03*
G54D15*
X14800Y-25359D03*
X14800Y-27721D03*
X16650Y-26540D03*
G54D11*
X22050Y-13700D03*
X21550Y-14700D03*
X21050Y-13700D03*
X20550Y-14700D03*
X27650Y-13700D03*
X27150Y-14700D03*
X26650Y-13700D03*
X26150Y-14700D03*
X33250Y-13700D03*
X32750Y-14700D03*
X32250Y-13700D03*
X31750Y-14700D03*
X38850Y-13700D03*
X38350Y-14700D03*
X37850Y-13700D03*
X37350Y-14700D03*
X44450Y-13700D03*
X43950Y-14700D03*
X43450Y-13700D03*
X42950Y-14700D03*
G54D16*
X17900Y-15800D03*
X15900Y-15800D03*
X23500Y-15800D03*
X21500Y-15800D03*
X29100Y-15800D03*
X27100Y-15800D03*
X34700Y-15800D03*
X32700Y-15800D03*
X40300Y-15800D03*
X38300Y-15800D03*
X45900Y-15800D03*
X43900Y-15800D03*
G54D17*
X48200Y-28700D03*
G54D16*
X48200Y-27700D03*
X48200Y-26700D03*
X48200Y-25700D03*
G54D18*
X45200Y-19200D03*
G54D19*
X14600Y-22400D03*
X14600Y-21400D03*
X14600Y-21900D03*
G54D20*
X24650Y-24500D03*
X36200Y-27800D03*
X38900Y-26700D03*
X18700Y-17400D03*
X36600Y-28200D03*
X24150Y-24800D03*
X36600Y-26500D03*
X27900Y-24500D03*
X24300Y-17400D03*
X38900Y-27100D03*
X28400Y-26500D03*
X26900Y-24500D03*
X36600Y-27400D03*
X27500Y-24800D03*
X42000Y-23750D03*
X31100Y-24500D03*
X39450Y-26000D03*
X29900Y-17400D03*
X38900Y-27500D03*
X30700Y-26000D03*
X30100Y-24500D03*
X36200Y-26100D03*
X30600Y-24700D03*
X34300Y-24500D03*
X39600Y-24750D03*
X35500Y-17400D03*
X39300Y-27500D03*
X33300Y-24500D03*
X33900Y-25400D03*
X33800Y-24700D03*
X39900Y-24400D03*
X38700Y-24400D03*
X37500Y-24500D03*
X41100Y-17400D03*
X39700Y-27500D03*
X36200Y-25400D03*
X36500Y-24500D03*
X37000Y-24700D03*
X39300Y-24400D03*
X46100Y-18300D03*
X40300Y-27500D03*
X39000Y-24750D03*
X36700Y-25400D03*
X45300Y-24000D03*
X41100Y-28700D03*
X42100Y-25900D03*
X41800Y-26200D03*
X41700Y-27200D03*
X45300Y-24800D03*
X34500Y-27000D03*
X40300Y-28200D03*
X13900Y-16200D03*
X45800Y-28900D03*
X45300Y-28900D03*
X45800Y-28400D03*
X45200Y-23200D03*
X45500Y-22900D03*
X45200Y-22600D03*
X45500Y-22300D03*
X45200Y-22000D03*
X45500Y-21700D03*
X45200Y-21400D03*
X45500Y-21100D03*
X45200Y-20800D03*
X24000Y-28600D03*
X23700Y-28300D03*
X24000Y-28000D03*
X23700Y-27700D03*
X24000Y-27400D03*
X23700Y-27100D03*
X24000Y-26800D03*
X23700Y-26500D03*
X24000Y-26200D03*
X23700Y-25900D03*
X18200Y-28300D03*
X18500Y-28000D03*
X18200Y-27700D03*
X18500Y-27400D03*
X18200Y-27100D03*
X18500Y-26800D03*
X18200Y-26500D03*
X18500Y-26200D03*
X18200Y-25900D03*
X22200Y-22100D03*
X15100Y-16100D03*
X20700Y-16100D03*
X26300Y-16100D03*
X31900Y-16100D03*
X43100Y-16100D03*
X37500Y-16100D03*
X45100Y-16100D03*
X39500Y-16100D03*
X33900Y-16100D03*
X28300Y-16100D03*
X17100Y-16100D03*
X22700Y-16100D03*
X38000Y-19700D03*
X34900Y-19700D03*
X31500Y-19700D03*
X28500Y-19700D03*
X25300Y-19700D03*
X41900Y-16200D03*
X36300Y-16200D03*
X30700Y-16200D03*
X25100Y-16200D03*
X19500Y-16200D03*
G54D18*
X15700Y-21700D03*
X13000Y-23300D03*
G54D19*
X18700Y-24300D03*
G54D20*
X45000Y-27400D03*
X36450Y-22493D03*
X33250Y-22493D03*
X30050Y-22493D03*
X26850Y-22493D03*
X23650Y-22493D03*
X42600Y-27600D03*
X44500Y-21100D03*
X48500Y-18600D03*
X31500Y-20700D03*
X25100Y-20700D03*
X28300Y-20700D03*
X34700Y-20700D03*
X41100Y-20700D03*
X37900Y-20700D03*
X38400Y-26700D03*
X36200Y-26900D03*
X34400Y-25400D03*
X33800Y-27000D03*
X21600Y-23000D03*
X20200Y-22600D03*
X20600Y-22600D03*
G54D21*
X28750Y-27800D02*
X28800Y-27800D01*
X28800Y-27800D02*
X29800Y-27800D01*
X24650Y-24500D02*
X25250Y-25100D01*
X25250Y-25100D02*
X26550Y-25100D01*
X26550Y-25100D02*
X27900Y-26450D01*
X27900Y-26450D02*
X27900Y-26950D01*
X27900Y-26950D02*
X28750Y-27800D01*
X36200Y-27800D02*
X29800Y-27800D01*
X18700Y-17400D02*
X20300Y-19000D01*
X40200Y-20100D02*
X39100Y-19000D01*
X40200Y-26200D02*
X40200Y-23000D01*
X39700Y-26700D02*
X40200Y-26200D01*
X38900Y-26700D02*
X39700Y-26700D01*
X40200Y-23000D02*
X40200Y-20100D01*
X20300Y-19000D02*
X39100Y-19000D01*
X18700Y-17400D02*
X18700Y-17400D01*
X28750Y-28200D02*
X29800Y-28200D01*
X29800Y-28200D02*
X36600Y-28200D01*
X28700Y-28200D02*
X28750Y-28200D01*
X27739Y-27239D02*
X28700Y-28200D01*
X27739Y-26516D02*
X27739Y-27239D01*
X26483Y-25260D02*
X27739Y-26516D01*
X24610Y-25260D02*
X26483Y-25260D01*
X24150Y-24800D02*
X24610Y-25260D01*
X29900Y-26500D02*
X36600Y-26500D01*
X27900Y-24500D02*
X29900Y-26500D01*
X39166Y-18839D02*
X25739Y-18839D01*
X40360Y-20033D02*
X39166Y-18839D01*
X40360Y-26266D02*
X40360Y-25500D01*
X39766Y-26860D02*
X40360Y-26266D01*
X39139Y-26860D02*
X39766Y-26860D01*
X38900Y-27100D02*
X39139Y-26860D01*
X40360Y-25500D02*
X40360Y-20033D01*
X25739Y-18839D02*
X24300Y-17400D01*
X26900Y-25000D02*
X28400Y-26500D01*
X26900Y-24500D02*
X26900Y-25000D01*
X30100Y-27400D02*
X36600Y-27400D01*
X27500Y-24800D02*
X30100Y-27400D01*
X37850Y-25800D02*
X37850Y-27200D01*
X41550Y-23750D02*
X42000Y-23750D01*
X41180Y-24119D02*
X41550Y-23750D01*
X41180Y-27219D02*
X41180Y-24119D01*
X40550Y-27850D02*
X41180Y-27219D01*
X38500Y-27850D02*
X40550Y-27850D01*
X37850Y-27200D02*
X38500Y-27850D01*
X38400Y-25800D02*
X39400Y-25800D01*
X31100Y-24500D02*
X32400Y-25800D01*
X32400Y-25800D02*
X37850Y-25800D01*
X37850Y-25800D02*
X38400Y-25800D01*
X39450Y-25850D02*
X39450Y-26000D01*
X39400Y-25800D02*
X39450Y-25850D01*
X31700Y-18679D02*
X31179Y-18679D01*
X31179Y-18679D02*
X29900Y-17400D01*
X40520Y-25500D02*
X40520Y-19967D01*
X38900Y-27500D02*
X39379Y-27020D01*
X39379Y-27020D02*
X39832Y-27020D01*
X39832Y-27020D02*
X40520Y-26332D01*
X40520Y-26332D02*
X40520Y-25500D01*
X39232Y-18679D02*
X31700Y-18679D01*
X31700Y-18679D02*
X31679Y-18679D01*
X40520Y-19967D02*
X39232Y-18679D01*
X30100Y-25400D02*
X30700Y-26000D01*
X30100Y-24500D02*
X30100Y-25400D01*
X32000Y-26100D02*
X36200Y-26100D01*
X30600Y-24700D02*
X32000Y-26100D01*
X34300Y-23900D02*
X34300Y-24500D01*
X38800Y-23600D02*
X34600Y-23600D01*
X34600Y-23600D02*
X34300Y-23900D01*
X39200Y-23600D02*
X38800Y-23600D01*
X39600Y-24000D02*
X39200Y-23600D01*
X39600Y-24400D02*
X39600Y-24000D01*
X39600Y-24750D02*
X39600Y-24400D01*
X37719Y-18519D02*
X36619Y-18519D01*
X40700Y-19921D02*
X39298Y-18519D01*
X39298Y-18519D02*
X37719Y-18519D01*
X40700Y-26378D02*
X40700Y-25500D01*
X39898Y-27180D02*
X40700Y-26378D01*
X39619Y-27180D02*
X39898Y-27180D01*
X39300Y-27500D02*
X39619Y-27180D01*
X40700Y-25500D02*
X40700Y-19921D01*
X36619Y-18519D02*
X35500Y-17400D01*
X33300Y-25000D02*
X33700Y-25400D01*
X33300Y-24500D02*
X33300Y-25000D01*
X33700Y-25400D02*
X33900Y-25400D01*
X33800Y-23900D02*
X33800Y-24700D01*
X38900Y-23400D02*
X34300Y-23400D01*
X34300Y-23400D02*
X33800Y-23900D01*
X38900Y-23400D02*
X39350Y-23400D01*
X39350Y-23400D02*
X39900Y-23950D01*
X39900Y-23950D02*
X39900Y-24400D01*
X38700Y-24400D02*
X38600Y-24500D01*
X38600Y-24500D02*
X37500Y-24500D01*
X37500Y-24500D02*
X37500Y-24500D01*
X40860Y-21639D02*
X41550Y-20950D01*
X40860Y-21639D02*
X40860Y-25500D01*
X41550Y-17850D02*
X41100Y-17400D01*
X41550Y-20950D02*
X41550Y-17850D01*
X40860Y-26445D02*
X40860Y-25500D01*
X40860Y-25500D02*
X40860Y-25500D01*
X39805Y-27500D02*
X40860Y-26445D01*
X39700Y-27500D02*
X39805Y-27500D01*
X36200Y-24800D02*
X36200Y-25400D01*
X36500Y-24500D02*
X36200Y-24800D01*
X37000Y-24100D02*
X37000Y-24700D01*
X37300Y-23800D02*
X37000Y-24100D01*
X38700Y-23800D02*
X37300Y-23800D01*
X39300Y-24400D02*
X38700Y-23800D01*
X42960Y-19766D02*
X45533Y-19766D01*
X41020Y-21706D02*
X42960Y-19766D01*
X41020Y-26511D02*
X41020Y-25500D01*
X40300Y-27231D02*
X41020Y-26511D01*
X40300Y-27500D02*
X40300Y-27231D01*
X41020Y-25500D02*
X41020Y-21706D01*
X46100Y-19200D02*
X46100Y-18300D01*
X45533Y-19766D02*
X46100Y-19200D01*
X39000Y-24750D02*
X38350Y-25400D01*
X38350Y-25400D02*
X36700Y-25400D01*
X41340Y-28459D02*
X41100Y-28700D01*
X42500Y-24000D02*
X45300Y-24000D01*
X41340Y-26800D02*
X41340Y-25159D01*
X41340Y-25159D02*
X42500Y-24000D01*
X41340Y-28459D02*
X41340Y-26800D01*
X46360Y-25860D02*
X42139Y-25860D01*
X48200Y-27700D02*
X46360Y-25860D01*
X42139Y-25860D02*
X42100Y-25900D01*
X42700Y-25700D02*
X48200Y-25700D01*
X42500Y-25700D02*
X42700Y-25700D01*
X42300Y-25500D02*
X42500Y-25700D01*
X41900Y-25500D02*
X42300Y-25500D01*
X41660Y-25739D02*
X41900Y-25500D01*
X41660Y-26060D02*
X41660Y-25739D01*
X41800Y-26200D02*
X41660Y-26060D01*
X41500Y-25226D02*
X42566Y-24160D01*
X41500Y-27000D02*
X41500Y-26800D01*
X41700Y-27200D02*
X41500Y-27000D01*
X41500Y-26800D02*
X41500Y-25226D01*
X44660Y-24160D02*
X45300Y-24800D01*
X42566Y-24160D02*
X44660Y-24160D01*
X34500Y-27000D02*
X35800Y-27000D01*
X35800Y-27000D02*
X36000Y-27200D01*
X36000Y-27200D02*
X36400Y-27200D01*
X36400Y-27200D02*
X36600Y-27000D01*
X36600Y-27000D02*
X37000Y-27000D01*
X37000Y-27000D02*
X38200Y-28200D01*
X38200Y-28200D02*
X40300Y-28200D01*
X45800Y-28900D02*
X45800Y-28500D01*
X45800Y-28400D02*
X45300Y-28900D01*
X45200Y-22600D02*
X45500Y-22900D01*
X45200Y-22000D02*
X45500Y-22300D01*
X45200Y-21400D02*
X45500Y-21700D01*
X45200Y-20800D02*
X45500Y-21100D01*
X23700Y-28300D02*
X24000Y-28600D01*
X23700Y-27700D02*
X24000Y-28000D01*
X23700Y-27100D02*
X24000Y-27400D01*
X23700Y-26500D02*
X24000Y-26800D01*
X23700Y-25900D02*
X24000Y-26200D01*
X18200Y-28300D02*
X18500Y-28600D01*
X18200Y-27700D02*
X18500Y-28000D01*
X18200Y-27100D02*
X18500Y-27400D01*
X18200Y-26500D02*
X18500Y-26800D01*
X18200Y-25900D02*
X18500Y-26200D01*
G54D22*
X39500Y-16100D02*
X39500Y-16050D01*
X39500Y-16050D02*
X39500Y-16100D01*
G54D23*
X15700Y-22200D02*
X15700Y-21700D01*
X14600Y-23300D02*
X15700Y-22200D01*
X13000Y-23300D02*
X14600Y-23300D01*
X36450Y-22493D02*
X36450Y-22500D01*
X33250Y-22493D02*
X33250Y-22500D01*
X30050Y-22493D02*
X30050Y-22500D01*
X26850Y-22493D02*
X26850Y-22500D01*
X23650Y-22493D02*
X23650Y-22500D01*
G54D10*
G36*
X49070Y-29320D02*
X48638Y-29320D01*
X48638Y-26764D01*
X48630Y-26591D01*
X48580Y-26472D01*
X48512Y-26444D01*
X48455Y-26500D01*
X48455Y-26387D01*
X48427Y-26319D01*
X48264Y-26261D01*
X48091Y-26269D01*
X47972Y-26319D01*
X47944Y-26387D01*
X48200Y-26643D01*
X48455Y-26387D01*
X48455Y-26500D01*
X48256Y-26700D01*
X48512Y-26955D01*
X48580Y-26927D01*
X48638Y-26764D01*
X48638Y-29320D01*
X48635Y-29320D01*
X48635Y-27613D01*
X48568Y-27453D01*
X48455Y-27340D01*
X48455Y-27012D01*
X48200Y-26756D01*
X48143Y-26813D01*
X48143Y-26700D01*
X47887Y-26444D01*
X47819Y-26472D01*
X47761Y-26635D01*
X47769Y-26808D01*
X47819Y-26927D01*
X47887Y-26955D01*
X48143Y-26700D01*
X48143Y-26813D01*
X47944Y-27012D01*
X47972Y-27080D01*
X48135Y-27138D01*
X48308Y-27130D01*
X48427Y-27080D01*
X48455Y-27012D01*
X48455Y-27340D01*
X48446Y-27331D01*
X48286Y-27265D01*
X48113Y-27264D01*
X48067Y-27284D01*
X46682Y-25900D01*
X47811Y-25900D01*
X47831Y-25946D01*
X47953Y-26068D01*
X48113Y-26134D01*
X48286Y-26135D01*
X48446Y-26068D01*
X48568Y-25946D01*
X48634Y-25786D01*
X48635Y-25613D01*
X48568Y-25453D01*
X48446Y-25331D01*
X48286Y-25265D01*
X48113Y-25264D01*
X47953Y-25331D01*
X47831Y-25453D01*
X47812Y-25500D01*
X46490Y-25500D01*
X46490Y-11043D01*
X46370Y-10753D01*
X46148Y-10530D01*
X45857Y-10410D01*
X45543Y-10409D01*
X45253Y-10529D01*
X45030Y-10751D01*
X44910Y-11042D01*
X44909Y-11356D01*
X45029Y-11646D01*
X45251Y-11869D01*
X45542Y-11989D01*
X45856Y-11990D01*
X46146Y-11870D01*
X46369Y-11648D01*
X46489Y-11357D01*
X46490Y-11043D01*
X46490Y-25500D01*
X42700Y-25500D01*
X42582Y-25500D01*
X42441Y-25358D01*
X42376Y-25315D01*
X42300Y-25300D01*
X41900Y-25300D01*
X41823Y-25315D01*
X41801Y-25329D01*
X41758Y-25358D01*
X41700Y-25417D01*
X41700Y-25309D01*
X42649Y-24360D01*
X44577Y-24360D01*
X44990Y-24772D01*
X44989Y-24861D01*
X45037Y-24975D01*
X45124Y-25062D01*
X45238Y-25109D01*
X45361Y-25110D01*
X45475Y-25062D01*
X45562Y-24975D01*
X45609Y-24861D01*
X45610Y-24738D01*
X45562Y-24624D01*
X45475Y-24537D01*
X45361Y-24490D01*
X45272Y-24489D01*
X44982Y-24200D01*
X45061Y-24200D01*
X45124Y-24262D01*
X45238Y-24309D01*
X45361Y-24310D01*
X45475Y-24262D01*
X45562Y-24175D01*
X45609Y-24061D01*
X45610Y-23938D01*
X45562Y-23824D01*
X45475Y-23737D01*
X45361Y-23690D01*
X45238Y-23689D01*
X45124Y-23737D01*
X45061Y-23800D01*
X44810Y-23800D01*
X44810Y-21038D01*
X44762Y-20924D01*
X44675Y-20837D01*
X44561Y-20790D01*
X44438Y-20789D01*
X44324Y-20837D01*
X44237Y-20924D01*
X44190Y-21038D01*
X44189Y-21161D01*
X44237Y-21275D01*
X44324Y-21362D01*
X44438Y-21409D01*
X44561Y-21410D01*
X44675Y-21362D01*
X44762Y-21275D01*
X44809Y-21161D01*
X44810Y-21038D01*
X44810Y-23800D01*
X42500Y-23800D01*
X42423Y-23815D01*
X42401Y-23829D01*
X42358Y-23858D01*
X41380Y-24837D01*
X41380Y-24202D01*
X41632Y-23950D01*
X41761Y-23950D01*
X41824Y-24012D01*
X41938Y-24059D01*
X42061Y-24060D01*
X42175Y-24012D01*
X42262Y-23925D01*
X42309Y-23811D01*
X42310Y-23688D01*
X42262Y-23574D01*
X42175Y-23487D01*
X42061Y-23440D01*
X41938Y-23439D01*
X41824Y-23487D01*
X41761Y-23550D01*
X41550Y-23550D01*
X41486Y-23562D01*
X41473Y-23565D01*
X41408Y-23608D01*
X41220Y-23797D01*
X41220Y-21789D01*
X43042Y-19966D01*
X45533Y-19966D01*
X45610Y-19951D01*
X45675Y-19907D01*
X46241Y-19341D01*
X46284Y-19276D01*
X46284Y-19276D01*
X46300Y-19200D01*
X46300Y-18538D01*
X46362Y-18475D01*
X46409Y-18361D01*
X46410Y-18238D01*
X46362Y-18124D01*
X46335Y-18096D01*
X46335Y-15713D01*
X46268Y-15553D01*
X46146Y-15431D01*
X45986Y-15365D01*
X45813Y-15364D01*
X45653Y-15431D01*
X45531Y-15553D01*
X45465Y-15713D01*
X45464Y-15886D01*
X45531Y-16046D01*
X45653Y-16168D01*
X45813Y-16234D01*
X45986Y-16235D01*
X46146Y-16168D01*
X46268Y-16046D01*
X46334Y-15886D01*
X46335Y-15713D01*
X46335Y-18096D01*
X46275Y-18037D01*
X46161Y-17990D01*
X46038Y-17989D01*
X45924Y-18037D01*
X45837Y-18124D01*
X45790Y-18238D01*
X45789Y-18361D01*
X45837Y-18475D01*
X45900Y-18538D01*
X45900Y-19117D01*
X45535Y-19482D01*
X45535Y-19133D01*
X45484Y-19010D01*
X45390Y-18916D01*
X45266Y-18865D01*
X45133Y-18864D01*
X45010Y-18915D01*
X44967Y-18958D01*
X44967Y-13783D01*
X44960Y-13578D01*
X44896Y-13425D01*
X44819Y-13386D01*
X44763Y-13443D01*
X44763Y-13330D01*
X44724Y-13253D01*
X44533Y-13182D01*
X44328Y-13189D01*
X44175Y-13253D01*
X44136Y-13330D01*
X44450Y-13643D01*
X44763Y-13330D01*
X44763Y-13443D01*
X44506Y-13700D01*
X44819Y-14013D01*
X44896Y-13974D01*
X44967Y-13783D01*
X44967Y-18958D01*
X44916Y-19009D01*
X44865Y-19133D01*
X44864Y-19266D01*
X44915Y-19389D01*
X45009Y-19483D01*
X45133Y-19534D01*
X45266Y-19535D01*
X45389Y-19484D01*
X45483Y-19390D01*
X45534Y-19266D01*
X45535Y-19133D01*
X45535Y-19482D01*
X45450Y-19566D01*
X44763Y-19566D01*
X44763Y-14069D01*
X44450Y-13756D01*
X44393Y-13813D01*
X44393Y-13700D01*
X44080Y-13386D01*
X44003Y-13425D01*
X43951Y-13565D01*
X43886Y-13409D01*
X43741Y-13264D01*
X43552Y-13185D01*
X43348Y-13185D01*
X43159Y-13263D01*
X43014Y-13408D01*
X42935Y-13597D01*
X42935Y-13801D01*
X43013Y-13990D01*
X43158Y-14135D01*
X43347Y-14214D01*
X43551Y-14214D01*
X43740Y-14136D01*
X43885Y-13991D01*
X43948Y-13841D01*
X44003Y-13974D01*
X44080Y-14013D01*
X44393Y-13700D01*
X44393Y-13813D01*
X44136Y-14069D01*
X44175Y-14146D01*
X44366Y-14217D01*
X44571Y-14210D01*
X44724Y-14146D01*
X44763Y-14069D01*
X44763Y-19566D01*
X44464Y-19566D01*
X44464Y-14598D01*
X44386Y-14409D01*
X44241Y-14264D01*
X44052Y-14185D01*
X43848Y-14185D01*
X43659Y-14263D01*
X43514Y-14408D01*
X43449Y-14563D01*
X43386Y-14409D01*
X43241Y-14264D01*
X43052Y-14185D01*
X42848Y-14185D01*
X42659Y-14263D01*
X42514Y-14408D01*
X42490Y-14466D01*
X42490Y-11043D01*
X42370Y-10753D01*
X42148Y-10530D01*
X41857Y-10410D01*
X41543Y-10409D01*
X41253Y-10529D01*
X41030Y-10751D01*
X40910Y-11042D01*
X40909Y-11356D01*
X41029Y-11646D01*
X41251Y-11869D01*
X41542Y-11989D01*
X41856Y-11990D01*
X42146Y-11870D01*
X42369Y-11648D01*
X42489Y-11357D01*
X42490Y-11043D01*
X42490Y-14466D01*
X42435Y-14597D01*
X42435Y-14801D01*
X42513Y-14990D01*
X42658Y-15135D01*
X42847Y-15214D01*
X43051Y-15214D01*
X43240Y-15136D01*
X43385Y-14991D01*
X43450Y-14836D01*
X43513Y-14990D01*
X43658Y-15135D01*
X43847Y-15214D01*
X44051Y-15214D01*
X44240Y-15136D01*
X44385Y-14991D01*
X44464Y-14802D01*
X44464Y-14598D01*
X44464Y-19566D01*
X44335Y-19566D01*
X44335Y-15713D01*
X44268Y-15553D01*
X44146Y-15431D01*
X43986Y-15365D01*
X43813Y-15364D01*
X43653Y-15431D01*
X43531Y-15553D01*
X43465Y-15713D01*
X43464Y-15886D01*
X43531Y-16046D01*
X43653Y-16168D01*
X43813Y-16234D01*
X43986Y-16235D01*
X44146Y-16168D01*
X44268Y-16046D01*
X44334Y-15886D01*
X44335Y-15713D01*
X44335Y-19566D01*
X42960Y-19566D01*
X42883Y-19581D01*
X42861Y-19595D01*
X42818Y-19624D01*
X41750Y-20693D01*
X41750Y-17850D01*
X41734Y-17773D01*
X41734Y-17773D01*
X41691Y-17708D01*
X41409Y-17427D01*
X41410Y-17338D01*
X41362Y-17224D01*
X41275Y-17137D01*
X41161Y-17090D01*
X41038Y-17089D01*
X40924Y-17137D01*
X40890Y-17171D01*
X40890Y-11043D01*
X40770Y-10753D01*
X40548Y-10530D01*
X40257Y-10410D01*
X39943Y-10409D01*
X39653Y-10529D01*
X39430Y-10751D01*
X39310Y-11042D01*
X39309Y-11356D01*
X39429Y-11646D01*
X39651Y-11869D01*
X39942Y-11989D01*
X40256Y-11990D01*
X40546Y-11870D01*
X40769Y-11648D01*
X40889Y-11357D01*
X40890Y-11043D01*
X40890Y-17171D01*
X40837Y-17224D01*
X40790Y-17338D01*
X40789Y-17461D01*
X40837Y-17575D01*
X40924Y-17662D01*
X41038Y-17709D01*
X41127Y-17710D01*
X41350Y-17932D01*
X41350Y-20511D01*
X41275Y-20437D01*
X41161Y-20390D01*
X41038Y-20389D01*
X40924Y-20437D01*
X40900Y-20461D01*
X40900Y-19921D01*
X40887Y-19857D01*
X40884Y-19844D01*
X40884Y-19844D01*
X40841Y-19779D01*
X40735Y-19673D01*
X40735Y-15713D01*
X40668Y-15553D01*
X40546Y-15431D01*
X40386Y-15365D01*
X40213Y-15364D01*
X40053Y-15431D01*
X39931Y-15553D01*
X39865Y-15713D01*
X39864Y-15886D01*
X39931Y-16046D01*
X40053Y-16168D01*
X40213Y-16234D01*
X40386Y-16235D01*
X40546Y-16168D01*
X40668Y-16046D01*
X40734Y-15886D01*
X40735Y-15713D01*
X40735Y-19673D01*
X39440Y-18378D01*
X39375Y-18335D01*
X39367Y-18333D01*
X39367Y-13783D01*
X39360Y-13578D01*
X39296Y-13425D01*
X39219Y-13386D01*
X39163Y-13443D01*
X39163Y-13330D01*
X39124Y-13253D01*
X38933Y-13182D01*
X38728Y-13189D01*
X38575Y-13253D01*
X38536Y-13330D01*
X38850Y-13643D01*
X39163Y-13330D01*
X39163Y-13443D01*
X38906Y-13700D01*
X39219Y-14013D01*
X39296Y-13974D01*
X39367Y-13783D01*
X39367Y-18333D01*
X39298Y-18319D01*
X39163Y-18319D01*
X39163Y-14069D01*
X38850Y-13756D01*
X38793Y-13813D01*
X38793Y-13700D01*
X38480Y-13386D01*
X38403Y-13425D01*
X38351Y-13565D01*
X38286Y-13409D01*
X38141Y-13264D01*
X37952Y-13185D01*
X37748Y-13185D01*
X37559Y-13263D01*
X37414Y-13408D01*
X37335Y-13597D01*
X37335Y-13801D01*
X37413Y-13990D01*
X37558Y-14135D01*
X37747Y-14214D01*
X37951Y-14214D01*
X38140Y-14136D01*
X38285Y-13991D01*
X38348Y-13841D01*
X38403Y-13974D01*
X38480Y-14013D01*
X38793Y-13700D01*
X38793Y-13813D01*
X38536Y-14069D01*
X38575Y-14146D01*
X38766Y-14217D01*
X38971Y-14210D01*
X39124Y-14146D01*
X39163Y-14069D01*
X39163Y-18319D01*
X38864Y-18319D01*
X38864Y-14598D01*
X38786Y-14409D01*
X38641Y-14264D01*
X38452Y-14185D01*
X38248Y-14185D01*
X38059Y-14263D01*
X37914Y-14408D01*
X37849Y-14563D01*
X37786Y-14409D01*
X37641Y-14264D01*
X37452Y-14185D01*
X37248Y-14185D01*
X37059Y-14263D01*
X36914Y-14408D01*
X36890Y-14466D01*
X36890Y-11043D01*
X36770Y-10753D01*
X36548Y-10530D01*
X36257Y-10410D01*
X35943Y-10409D01*
X35653Y-10529D01*
X35430Y-10751D01*
X35310Y-11042D01*
X35309Y-11356D01*
X35429Y-11646D01*
X35651Y-11869D01*
X35942Y-11989D01*
X36256Y-11990D01*
X36546Y-11870D01*
X36769Y-11648D01*
X36889Y-11357D01*
X36890Y-11043D01*
X36890Y-14466D01*
X36835Y-14597D01*
X36835Y-14801D01*
X36913Y-14990D01*
X37058Y-15135D01*
X37247Y-15214D01*
X37451Y-15214D01*
X37640Y-15136D01*
X37785Y-14991D01*
X37850Y-14836D01*
X37913Y-14990D01*
X38058Y-15135D01*
X38247Y-15214D01*
X38451Y-15214D01*
X38640Y-15136D01*
X38785Y-14991D01*
X38864Y-14802D01*
X38864Y-14598D01*
X38864Y-18319D01*
X38735Y-18319D01*
X38735Y-15713D01*
X38668Y-15553D01*
X38546Y-15431D01*
X38386Y-15365D01*
X38213Y-15364D01*
X38053Y-15431D01*
X37931Y-15553D01*
X37865Y-15713D01*
X37864Y-15886D01*
X37931Y-16046D01*
X38053Y-16168D01*
X38213Y-16234D01*
X38386Y-16235D01*
X38546Y-16168D01*
X38668Y-16046D01*
X38734Y-15886D01*
X38735Y-15713D01*
X38735Y-18319D01*
X37719Y-18319D01*
X36702Y-18319D01*
X35809Y-17427D01*
X35810Y-17338D01*
X35762Y-17224D01*
X35675Y-17137D01*
X35561Y-17090D01*
X35438Y-17089D01*
X35324Y-17137D01*
X35290Y-17171D01*
X35290Y-11043D01*
X35170Y-10753D01*
X34948Y-10530D01*
X34657Y-10410D01*
X34343Y-10409D01*
X34053Y-10529D01*
X33830Y-10751D01*
X33710Y-11042D01*
X33709Y-11356D01*
X33829Y-11646D01*
X34051Y-11869D01*
X34342Y-11989D01*
X34656Y-11990D01*
X34946Y-11870D01*
X35169Y-11648D01*
X35289Y-11357D01*
X35290Y-11043D01*
X35290Y-17171D01*
X35237Y-17224D01*
X35190Y-17338D01*
X35189Y-17461D01*
X35237Y-17575D01*
X35324Y-17662D01*
X35438Y-17709D01*
X35527Y-17710D01*
X36297Y-18479D01*
X35135Y-18479D01*
X35135Y-15713D01*
X35068Y-15553D01*
X34946Y-15431D01*
X34786Y-15365D01*
X34613Y-15364D01*
X34453Y-15431D01*
X34331Y-15553D01*
X34265Y-15713D01*
X34264Y-15886D01*
X34331Y-16046D01*
X34453Y-16168D01*
X34613Y-16234D01*
X34786Y-16235D01*
X34946Y-16168D01*
X35068Y-16046D01*
X35134Y-15886D01*
X35135Y-15713D01*
X35135Y-18479D01*
X33767Y-18479D01*
X33767Y-13783D01*
X33760Y-13578D01*
X33696Y-13425D01*
X33619Y-13386D01*
X33563Y-13443D01*
X33563Y-13330D01*
X33524Y-13253D01*
X33333Y-13182D01*
X33128Y-13189D01*
X32975Y-13253D01*
X32936Y-13330D01*
X33250Y-13643D01*
X33563Y-13330D01*
X33563Y-13443D01*
X33306Y-13700D01*
X33619Y-14013D01*
X33696Y-13974D01*
X33767Y-13783D01*
X33767Y-18479D01*
X33563Y-18479D01*
X33563Y-14069D01*
X33250Y-13756D01*
X33193Y-13813D01*
X33193Y-13700D01*
X32880Y-13386D01*
X32803Y-13425D01*
X32751Y-13565D01*
X32686Y-13409D01*
X32541Y-13264D01*
X32352Y-13185D01*
X32148Y-13185D01*
X31959Y-13263D01*
X31814Y-13408D01*
X31735Y-13597D01*
X31735Y-13801D01*
X31813Y-13990D01*
X31958Y-14135D01*
X32147Y-14214D01*
X32351Y-14214D01*
X32540Y-14136D01*
X32685Y-13991D01*
X32748Y-13841D01*
X32803Y-13974D01*
X32880Y-14013D01*
X33193Y-13700D01*
X33193Y-13813D01*
X32936Y-14069D01*
X32975Y-14146D01*
X33166Y-14217D01*
X33371Y-14210D01*
X33524Y-14146D01*
X33563Y-14069D01*
X33563Y-18479D01*
X33264Y-18479D01*
X33264Y-14598D01*
X33186Y-14409D01*
X33041Y-14264D01*
X32852Y-14185D01*
X32648Y-14185D01*
X32459Y-14263D01*
X32314Y-14408D01*
X32249Y-14563D01*
X32186Y-14409D01*
X32041Y-14264D01*
X31852Y-14185D01*
X31648Y-14185D01*
X31459Y-14263D01*
X31314Y-14408D01*
X31290Y-14466D01*
X31290Y-11043D01*
X31170Y-10753D01*
X30948Y-10530D01*
X30657Y-10410D01*
X30343Y-10409D01*
X30053Y-10529D01*
X29830Y-10751D01*
X29710Y-11042D01*
X29709Y-11356D01*
X29829Y-11646D01*
X30051Y-11869D01*
X30342Y-11989D01*
X30656Y-11990D01*
X30946Y-11870D01*
X31169Y-11648D01*
X31289Y-11357D01*
X31290Y-11043D01*
X31290Y-14466D01*
X31235Y-14597D01*
X31235Y-14801D01*
X31313Y-14990D01*
X31458Y-15135D01*
X31647Y-15214D01*
X31851Y-15214D01*
X32040Y-15136D01*
X32185Y-14991D01*
X32250Y-14836D01*
X32313Y-14990D01*
X32458Y-15135D01*
X32647Y-15214D01*
X32851Y-15214D01*
X33040Y-15136D01*
X33185Y-14991D01*
X33264Y-14802D01*
X33264Y-14598D01*
X33264Y-18479D01*
X33135Y-18479D01*
X33135Y-15713D01*
X33068Y-15553D01*
X32946Y-15431D01*
X32786Y-15365D01*
X32613Y-15364D01*
X32453Y-15431D01*
X32331Y-15553D01*
X32265Y-15713D01*
X32264Y-15886D01*
X32331Y-16046D01*
X32453Y-16168D01*
X32613Y-16234D01*
X32786Y-16235D01*
X32946Y-16168D01*
X33068Y-16046D01*
X33134Y-15886D01*
X33135Y-15713D01*
X33135Y-18479D01*
X31700Y-18479D01*
X31679Y-18479D01*
X31262Y-18479D01*
X30209Y-17427D01*
X30210Y-17338D01*
X30162Y-17224D01*
X30075Y-17137D01*
X29961Y-17090D01*
X29838Y-17089D01*
X29724Y-17137D01*
X29690Y-17171D01*
X29690Y-11043D01*
X29570Y-10753D01*
X29348Y-10530D01*
X29057Y-10410D01*
X28743Y-10409D01*
X28453Y-10529D01*
X28230Y-10751D01*
X28110Y-11042D01*
X28109Y-11356D01*
X28229Y-11646D01*
X28451Y-11869D01*
X28742Y-11989D01*
X29056Y-11990D01*
X29346Y-11870D01*
X29569Y-11648D01*
X29689Y-11357D01*
X29690Y-11043D01*
X29690Y-17171D01*
X29637Y-17224D01*
X29590Y-17338D01*
X29589Y-17461D01*
X29637Y-17575D01*
X29724Y-17662D01*
X29838Y-17709D01*
X29927Y-17710D01*
X30857Y-18639D01*
X29535Y-18639D01*
X29535Y-15713D01*
X29468Y-15553D01*
X29346Y-15431D01*
X29186Y-15365D01*
X29013Y-15364D01*
X28853Y-15431D01*
X28731Y-15553D01*
X28665Y-15713D01*
X28664Y-15886D01*
X28731Y-16046D01*
X28853Y-16168D01*
X29013Y-16234D01*
X29186Y-16235D01*
X29346Y-16168D01*
X29468Y-16046D01*
X29534Y-15886D01*
X29535Y-15713D01*
X29535Y-18639D01*
X28167Y-18639D01*
X28167Y-13783D01*
X28160Y-13578D01*
X28096Y-13425D01*
X28019Y-13386D01*
X27963Y-13443D01*
X27963Y-13330D01*
X27924Y-13253D01*
X27733Y-13182D01*
X27528Y-13189D01*
X27375Y-13253D01*
X27336Y-13330D01*
X27650Y-13643D01*
X27963Y-13330D01*
X27963Y-13443D01*
X27706Y-13700D01*
X28019Y-14013D01*
X28096Y-13974D01*
X28167Y-13783D01*
X28167Y-18639D01*
X27963Y-18639D01*
X27963Y-14069D01*
X27650Y-13756D01*
X27593Y-13813D01*
X27593Y-13700D01*
X27280Y-13386D01*
X27203Y-13425D01*
X27151Y-13565D01*
X27086Y-13409D01*
X26941Y-13264D01*
X26752Y-13185D01*
X26548Y-13185D01*
X26359Y-13263D01*
X26214Y-13408D01*
X26135Y-13597D01*
X26135Y-13801D01*
X26213Y-13990D01*
X26358Y-14135D01*
X26547Y-14214D01*
X26751Y-14214D01*
X26940Y-14136D01*
X27085Y-13991D01*
X27148Y-13841D01*
X27203Y-13974D01*
X27280Y-14013D01*
X27593Y-13700D01*
X27593Y-13813D01*
X27336Y-14069D01*
X27375Y-14146D01*
X27566Y-14217D01*
X27771Y-14210D01*
X27924Y-14146D01*
X27963Y-14069D01*
X27963Y-18639D01*
X27664Y-18639D01*
X27664Y-14598D01*
X27586Y-14409D01*
X27441Y-14264D01*
X27252Y-14185D01*
X27048Y-14185D01*
X26859Y-14263D01*
X26714Y-14408D01*
X26649Y-14563D01*
X26586Y-14409D01*
X26441Y-14264D01*
X26252Y-14185D01*
X26048Y-14185D01*
X25859Y-14263D01*
X25714Y-14408D01*
X25690Y-14466D01*
X25690Y-11043D01*
X25570Y-10753D01*
X25348Y-10530D01*
X25057Y-10410D01*
X24743Y-10409D01*
X24453Y-10529D01*
X24230Y-10751D01*
X24110Y-11042D01*
X24109Y-11356D01*
X24229Y-11646D01*
X24451Y-11869D01*
X24742Y-11989D01*
X25056Y-11990D01*
X25346Y-11870D01*
X25569Y-11648D01*
X25689Y-11357D01*
X25690Y-11043D01*
X25690Y-14466D01*
X25635Y-14597D01*
X25635Y-14801D01*
X25713Y-14990D01*
X25858Y-15135D01*
X26047Y-15214D01*
X26251Y-15214D01*
X26440Y-15136D01*
X26585Y-14991D01*
X26650Y-14836D01*
X26713Y-14990D01*
X26858Y-15135D01*
X27047Y-15214D01*
X27251Y-15214D01*
X27440Y-15136D01*
X27585Y-14991D01*
X27664Y-14802D01*
X27664Y-14598D01*
X27664Y-18639D01*
X27535Y-18639D01*
X27535Y-15713D01*
X27468Y-15553D01*
X27346Y-15431D01*
X27186Y-15365D01*
X27013Y-15364D01*
X26853Y-15431D01*
X26731Y-15553D01*
X26665Y-15713D01*
X26664Y-15886D01*
X26731Y-16046D01*
X26853Y-16168D01*
X27013Y-16234D01*
X27186Y-16235D01*
X27346Y-16168D01*
X27468Y-16046D01*
X27534Y-15886D01*
X27535Y-15713D01*
X27535Y-18639D01*
X25822Y-18639D01*
X24609Y-17427D01*
X24610Y-17338D01*
X24562Y-17224D01*
X24475Y-17137D01*
X24361Y-17090D01*
X24238Y-17089D01*
X24124Y-17137D01*
X24090Y-17171D01*
X24090Y-11043D01*
X23970Y-10753D01*
X23748Y-10530D01*
X23457Y-10410D01*
X23143Y-10409D01*
X22853Y-10529D01*
X22630Y-10751D01*
X22510Y-11042D01*
X22509Y-11356D01*
X22629Y-11646D01*
X22851Y-11869D01*
X23142Y-11989D01*
X23456Y-11990D01*
X23746Y-11870D01*
X23969Y-11648D01*
X24089Y-11357D01*
X24090Y-11043D01*
X24090Y-17171D01*
X24037Y-17224D01*
X23990Y-17338D01*
X23989Y-17461D01*
X24037Y-17575D01*
X24124Y-17662D01*
X24238Y-17709D01*
X24327Y-17710D01*
X25417Y-18800D01*
X23935Y-18800D01*
X23935Y-15713D01*
X23868Y-15553D01*
X23746Y-15431D01*
X23586Y-15365D01*
X23413Y-15364D01*
X23253Y-15431D01*
X23131Y-15553D01*
X23065Y-15713D01*
X23064Y-15886D01*
X23131Y-16046D01*
X23253Y-16168D01*
X23413Y-16234D01*
X23586Y-16235D01*
X23746Y-16168D01*
X23868Y-16046D01*
X23934Y-15886D01*
X23935Y-15713D01*
X23935Y-18800D01*
X22567Y-18800D01*
X22567Y-13783D01*
X22560Y-13578D01*
X22496Y-13425D01*
X22419Y-13386D01*
X22363Y-13443D01*
X22363Y-13330D01*
X22324Y-13253D01*
X22133Y-13182D01*
X21928Y-13189D01*
X21775Y-13253D01*
X21736Y-13330D01*
X22050Y-13643D01*
X22363Y-13330D01*
X22363Y-13443D01*
X22106Y-13700D01*
X22419Y-14013D01*
X22496Y-13974D01*
X22567Y-13783D01*
X22567Y-18800D01*
X22363Y-18800D01*
X22363Y-14069D01*
X22050Y-13756D01*
X21993Y-13813D01*
X21993Y-13700D01*
X21680Y-13386D01*
X21603Y-13425D01*
X21551Y-13565D01*
X21486Y-13409D01*
X21341Y-13264D01*
X21152Y-13185D01*
X20948Y-13185D01*
X20759Y-13263D01*
X20614Y-13408D01*
X20535Y-13597D01*
X20535Y-13801D01*
X20613Y-13990D01*
X20758Y-14135D01*
X20947Y-14214D01*
X21151Y-14214D01*
X21340Y-14136D01*
X21485Y-13991D01*
X21548Y-13841D01*
X21603Y-13974D01*
X21680Y-14013D01*
X21993Y-13700D01*
X21993Y-13813D01*
X21736Y-14069D01*
X21775Y-14146D01*
X21966Y-14217D01*
X22171Y-14210D01*
X22324Y-14146D01*
X22363Y-14069D01*
X22363Y-18800D01*
X22064Y-18800D01*
X22064Y-14598D01*
X21986Y-14409D01*
X21841Y-14264D01*
X21652Y-14185D01*
X21448Y-14185D01*
X21259Y-14263D01*
X21114Y-14408D01*
X21049Y-14563D01*
X20986Y-14409D01*
X20841Y-14264D01*
X20652Y-14185D01*
X20448Y-14185D01*
X20259Y-14263D01*
X20114Y-14408D01*
X20090Y-14466D01*
X20090Y-11043D01*
X19970Y-10753D01*
X19748Y-10530D01*
X19457Y-10410D01*
X19143Y-10409D01*
X18853Y-10529D01*
X18630Y-10751D01*
X18510Y-11042D01*
X18509Y-11356D01*
X18629Y-11646D01*
X18851Y-11869D01*
X19142Y-11989D01*
X19456Y-11990D01*
X19746Y-11870D01*
X19969Y-11648D01*
X20089Y-11357D01*
X20090Y-11043D01*
X20090Y-14466D01*
X20035Y-14597D01*
X20035Y-14801D01*
X20113Y-14990D01*
X20258Y-15135D01*
X20447Y-15214D01*
X20651Y-15214D01*
X20840Y-15136D01*
X20985Y-14991D01*
X21050Y-14836D01*
X21113Y-14990D01*
X21258Y-15135D01*
X21447Y-15214D01*
X21651Y-15214D01*
X21840Y-15136D01*
X21985Y-14991D01*
X22064Y-14802D01*
X22064Y-14598D01*
X22064Y-18800D01*
X21935Y-18800D01*
X21935Y-15713D01*
X21868Y-15553D01*
X21746Y-15431D01*
X21586Y-15365D01*
X21413Y-15364D01*
X21253Y-15431D01*
X21131Y-15553D01*
X21065Y-15713D01*
X21064Y-15886D01*
X21131Y-16046D01*
X21253Y-16168D01*
X21413Y-16234D01*
X21586Y-16235D01*
X21746Y-16168D01*
X21868Y-16046D01*
X21934Y-15886D01*
X21935Y-15713D01*
X21935Y-18800D01*
X20382Y-18800D01*
X19009Y-17427D01*
X19010Y-17338D01*
X18962Y-17224D01*
X18875Y-17137D01*
X18761Y-17090D01*
X18638Y-17089D01*
X18524Y-17137D01*
X18490Y-17171D01*
X18490Y-11043D01*
X18370Y-10753D01*
X18148Y-10530D01*
X17857Y-10410D01*
X17543Y-10409D01*
X17253Y-10529D01*
X17030Y-10751D01*
X16910Y-11042D01*
X16909Y-11356D01*
X17029Y-11646D01*
X17251Y-11869D01*
X17542Y-11989D01*
X17856Y-11990D01*
X18146Y-11870D01*
X18369Y-11648D01*
X18489Y-11357D01*
X18490Y-11043D01*
X18490Y-17171D01*
X18437Y-17224D01*
X18390Y-17338D01*
X18389Y-17461D01*
X18437Y-17575D01*
X18524Y-17662D01*
X18638Y-17709D01*
X18727Y-17710D01*
X20158Y-19141D01*
X20158Y-19141D01*
X20201Y-19170D01*
X20223Y-19184D01*
X20223Y-19184D01*
X20299Y-19199D01*
X20300Y-19200D01*
X39017Y-19200D01*
X40000Y-20182D01*
X40000Y-23000D01*
X40000Y-23767D01*
X39491Y-23258D01*
X39426Y-23215D01*
X39350Y-23200D01*
X38900Y-23200D01*
X38210Y-23200D01*
X38210Y-20638D01*
X38162Y-20524D01*
X38075Y-20437D01*
X37961Y-20390D01*
X37838Y-20389D01*
X37724Y-20437D01*
X37637Y-20524D01*
X37590Y-20638D01*
X37589Y-20761D01*
X37637Y-20875D01*
X37724Y-20962D01*
X37838Y-21009D01*
X37961Y-21010D01*
X38075Y-20962D01*
X38162Y-20875D01*
X38209Y-20761D01*
X38210Y-20638D01*
X38210Y-23200D01*
X36760Y-23200D01*
X36760Y-22432D01*
X36712Y-22318D01*
X36625Y-22231D01*
X36511Y-22183D01*
X36388Y-22183D01*
X36274Y-22230D01*
X36187Y-22317D01*
X36140Y-22431D01*
X36139Y-22555D01*
X36187Y-22669D01*
X36274Y-22756D01*
X36388Y-22803D01*
X36511Y-22803D01*
X36625Y-22756D01*
X36712Y-22669D01*
X36759Y-22555D01*
X36760Y-22432D01*
X36760Y-23200D01*
X35010Y-23200D01*
X35010Y-20638D01*
X34962Y-20524D01*
X34875Y-20437D01*
X34761Y-20390D01*
X34638Y-20389D01*
X34524Y-20437D01*
X34437Y-20524D01*
X34390Y-20638D01*
X34389Y-20761D01*
X34437Y-20875D01*
X34524Y-20962D01*
X34638Y-21009D01*
X34761Y-21010D01*
X34875Y-20962D01*
X34962Y-20875D01*
X35009Y-20761D01*
X35010Y-20638D01*
X35010Y-23200D01*
X34300Y-23200D01*
X34236Y-23212D01*
X34223Y-23215D01*
X34158Y-23258D01*
X33658Y-23758D01*
X33615Y-23823D01*
X33600Y-23900D01*
X33600Y-24414D01*
X33562Y-24324D01*
X33560Y-24321D01*
X33560Y-22432D01*
X33512Y-22318D01*
X33425Y-22231D01*
X33311Y-22183D01*
X33188Y-22183D01*
X33074Y-22230D01*
X32987Y-22317D01*
X32940Y-22431D01*
X32939Y-22555D01*
X32987Y-22669D01*
X33074Y-22756D01*
X33188Y-22803D01*
X33311Y-22803D01*
X33425Y-22756D01*
X33512Y-22669D01*
X33559Y-22555D01*
X33560Y-22432D01*
X33560Y-24321D01*
X33475Y-24237D01*
X33361Y-24190D01*
X33238Y-24189D01*
X33124Y-24237D01*
X33037Y-24324D01*
X32990Y-24438D01*
X32989Y-24561D01*
X33037Y-24675D01*
X33100Y-24738D01*
X33100Y-25000D01*
X33115Y-25076D01*
X33158Y-25141D01*
X33558Y-25541D01*
X33558Y-25541D01*
X33601Y-25570D01*
X33623Y-25584D01*
X33623Y-25584D01*
X33652Y-25590D01*
X33652Y-25590D01*
X33661Y-25600D01*
X32482Y-25600D01*
X31810Y-24927D01*
X31810Y-20638D01*
X31762Y-20524D01*
X31675Y-20437D01*
X31561Y-20390D01*
X31438Y-20389D01*
X31324Y-20437D01*
X31237Y-20524D01*
X31190Y-20638D01*
X31189Y-20761D01*
X31237Y-20875D01*
X31324Y-20962D01*
X31438Y-21009D01*
X31561Y-21010D01*
X31675Y-20962D01*
X31762Y-20875D01*
X31809Y-20761D01*
X31810Y-20638D01*
X31810Y-24927D01*
X31409Y-24527D01*
X31410Y-24438D01*
X31362Y-24324D01*
X31275Y-24237D01*
X31161Y-24190D01*
X31038Y-24189D01*
X30924Y-24237D01*
X30837Y-24324D01*
X30790Y-24438D01*
X30790Y-24451D01*
X30775Y-24437D01*
X30661Y-24390D01*
X30538Y-24389D01*
X30424Y-24437D01*
X30410Y-24451D01*
X30410Y-24438D01*
X30362Y-24324D01*
X30360Y-24321D01*
X30360Y-22432D01*
X30312Y-22318D01*
X30225Y-22231D01*
X30111Y-22183D01*
X29988Y-22183D01*
X29874Y-22230D01*
X29787Y-22317D01*
X29740Y-22431D01*
X29739Y-22555D01*
X29787Y-22669D01*
X29874Y-22756D01*
X29988Y-22803D01*
X30111Y-22803D01*
X30225Y-22756D01*
X30312Y-22669D01*
X30359Y-22555D01*
X30360Y-22432D01*
X30360Y-24321D01*
X30275Y-24237D01*
X30161Y-24190D01*
X30038Y-24189D01*
X29924Y-24237D01*
X29837Y-24324D01*
X29790Y-24438D01*
X29789Y-24561D01*
X29837Y-24675D01*
X29900Y-24738D01*
X29900Y-25400D01*
X29915Y-25476D01*
X29958Y-25541D01*
X30390Y-25972D01*
X30389Y-26061D01*
X30437Y-26175D01*
X30524Y-26262D01*
X30614Y-26300D01*
X29982Y-26300D01*
X28610Y-24927D01*
X28610Y-20638D01*
X28562Y-20524D01*
X28475Y-20437D01*
X28361Y-20390D01*
X28238Y-20389D01*
X28124Y-20437D01*
X28037Y-20524D01*
X27990Y-20638D01*
X27989Y-20761D01*
X28037Y-20875D01*
X28124Y-20962D01*
X28238Y-21009D01*
X28361Y-21010D01*
X28475Y-20962D01*
X28562Y-20875D01*
X28609Y-20761D01*
X28610Y-20638D01*
X28610Y-24927D01*
X28209Y-24527D01*
X28210Y-24438D01*
X28162Y-24324D01*
X28075Y-24237D01*
X27961Y-24190D01*
X27838Y-24189D01*
X27724Y-24237D01*
X27637Y-24324D01*
X27590Y-24438D01*
X27589Y-24501D01*
X27561Y-24490D01*
X27438Y-24489D01*
X27324Y-24537D01*
X27237Y-24624D01*
X27190Y-24738D01*
X27189Y-24861D01*
X27237Y-24975D01*
X27324Y-25062D01*
X27438Y-25109D01*
X27527Y-25110D01*
X29958Y-27541D01*
X29958Y-27541D01*
X30023Y-27584D01*
X30023Y-27584D01*
X30036Y-27587D01*
X30100Y-27600D01*
X29800Y-27600D01*
X28832Y-27600D01*
X28100Y-26867D01*
X28100Y-26585D01*
X28137Y-26675D01*
X28224Y-26762D01*
X28338Y-26809D01*
X28461Y-26810D01*
X28575Y-26762D01*
X28662Y-26675D01*
X28709Y-26561D01*
X28710Y-26438D01*
X28662Y-26324D01*
X28575Y-26237D01*
X28461Y-26190D01*
X28372Y-26189D01*
X27100Y-24917D01*
X27100Y-24738D01*
X27162Y-24675D01*
X27209Y-24561D01*
X27210Y-24438D01*
X27162Y-24324D01*
X27160Y-24321D01*
X27160Y-22432D01*
X27112Y-22318D01*
X27025Y-22231D01*
X26911Y-22183D01*
X26788Y-22183D01*
X26674Y-22230D01*
X26587Y-22317D01*
X26540Y-22431D01*
X26539Y-22555D01*
X26587Y-22669D01*
X26674Y-22756D01*
X26788Y-22803D01*
X26911Y-22803D01*
X27025Y-22756D01*
X27112Y-22669D01*
X27159Y-22555D01*
X27160Y-22432D01*
X27160Y-24321D01*
X27075Y-24237D01*
X26961Y-24190D01*
X26838Y-24189D01*
X26724Y-24237D01*
X26637Y-24324D01*
X26590Y-24438D01*
X26589Y-24561D01*
X26637Y-24675D01*
X26700Y-24738D01*
X26700Y-24967D01*
X26691Y-24958D01*
X26626Y-24915D01*
X26550Y-24900D01*
X25410Y-24900D01*
X25410Y-20638D01*
X25362Y-20524D01*
X25275Y-20437D01*
X25161Y-20390D01*
X25038Y-20389D01*
X24924Y-20437D01*
X24837Y-20524D01*
X24790Y-20638D01*
X24789Y-20761D01*
X24837Y-20875D01*
X24924Y-20962D01*
X25038Y-21009D01*
X25161Y-21010D01*
X25275Y-20962D01*
X25362Y-20875D01*
X25409Y-20761D01*
X25410Y-20638D01*
X25410Y-24900D01*
X25332Y-24900D01*
X24959Y-24527D01*
X24960Y-24438D01*
X24912Y-24324D01*
X24825Y-24237D01*
X24711Y-24190D01*
X24588Y-24189D01*
X24474Y-24237D01*
X24387Y-24324D01*
X24340Y-24438D01*
X24339Y-24551D01*
X24325Y-24537D01*
X24211Y-24490D01*
X24088Y-24489D01*
X23974Y-24537D01*
X23960Y-24551D01*
X23960Y-22432D01*
X23912Y-22318D01*
X23825Y-22231D01*
X23711Y-22183D01*
X23588Y-22183D01*
X23474Y-22230D01*
X23387Y-22317D01*
X23340Y-22431D01*
X23339Y-22555D01*
X23387Y-22669D01*
X23474Y-22756D01*
X23588Y-22803D01*
X23711Y-22803D01*
X23825Y-22756D01*
X23912Y-22669D01*
X23959Y-22555D01*
X23960Y-22432D01*
X23960Y-24551D01*
X23887Y-24624D01*
X23840Y-24738D01*
X23839Y-24861D01*
X23887Y-24975D01*
X23974Y-25062D01*
X24088Y-25109D01*
X24177Y-25110D01*
X24468Y-25401D01*
X24468Y-25401D01*
X24511Y-25430D01*
X24533Y-25444D01*
X24533Y-25444D01*
X24610Y-25460D01*
X24610Y-25460D01*
X26400Y-25460D01*
X27539Y-26599D01*
X27539Y-27239D01*
X27555Y-27316D01*
X27598Y-27381D01*
X28558Y-28341D01*
X28623Y-28384D01*
X28623Y-28384D01*
X28700Y-28400D01*
X28750Y-28400D01*
X29800Y-28400D01*
X36361Y-28400D01*
X36424Y-28462D01*
X36538Y-28509D01*
X36661Y-28510D01*
X36775Y-28462D01*
X36862Y-28375D01*
X36909Y-28261D01*
X36910Y-28138D01*
X36862Y-28024D01*
X36775Y-27937D01*
X36661Y-27890D01*
X36538Y-27889D01*
X36489Y-27910D01*
X36509Y-27861D01*
X36510Y-27738D01*
X36489Y-27689D01*
X36538Y-27709D01*
X36661Y-27710D01*
X36775Y-27662D01*
X36862Y-27575D01*
X36909Y-27461D01*
X36910Y-27338D01*
X36862Y-27224D01*
X36838Y-27200D01*
X36917Y-27200D01*
X38058Y-28341D01*
X38058Y-28341D01*
X38101Y-28370D01*
X38123Y-28384D01*
X38123Y-28384D01*
X38199Y-28399D01*
X38200Y-28400D01*
X40061Y-28400D01*
X40124Y-28462D01*
X40238Y-28509D01*
X40361Y-28510D01*
X40475Y-28462D01*
X40562Y-28375D01*
X40609Y-28261D01*
X40610Y-28138D01*
X40571Y-28045D01*
X40626Y-28034D01*
X40691Y-27991D01*
X41140Y-27542D01*
X41140Y-28377D01*
X41127Y-28390D01*
X41038Y-28389D01*
X40924Y-28437D01*
X40837Y-28524D01*
X40790Y-28638D01*
X40789Y-28761D01*
X40837Y-28875D01*
X40924Y-28962D01*
X41038Y-29009D01*
X41161Y-29010D01*
X41275Y-28962D01*
X41362Y-28875D01*
X41409Y-28761D01*
X41410Y-28672D01*
X41481Y-28601D01*
X41481Y-28601D01*
X41510Y-28558D01*
X41524Y-28536D01*
X41524Y-28536D01*
X41540Y-28459D01*
X41540Y-28459D01*
X41540Y-27469D01*
X41638Y-27509D01*
X41761Y-27510D01*
X41875Y-27462D01*
X41962Y-27375D01*
X42009Y-27261D01*
X42010Y-27138D01*
X41962Y-27024D01*
X41875Y-26937D01*
X41761Y-26890D01*
X41700Y-26889D01*
X41700Y-26800D01*
X41700Y-26494D01*
X41738Y-26509D01*
X41861Y-26510D01*
X41975Y-26462D01*
X42062Y-26375D01*
X42109Y-26261D01*
X42109Y-26210D01*
X42161Y-26210D01*
X42275Y-26162D01*
X42362Y-26075D01*
X42369Y-26060D01*
X46277Y-26060D01*
X47784Y-27567D01*
X47765Y-27613D01*
X47764Y-27786D01*
X47831Y-27946D01*
X47953Y-28068D01*
X48113Y-28134D01*
X48286Y-28135D01*
X48446Y-28068D01*
X48568Y-27946D01*
X48634Y-27786D01*
X48635Y-27613D01*
X48635Y-29320D01*
X48635Y-29320D01*
X48635Y-28943D01*
X48635Y-28393D01*
X48610Y-28334D01*
X48565Y-28289D01*
X48506Y-28265D01*
X48443Y-28264D01*
X47893Y-28264D01*
X47834Y-28289D01*
X47789Y-28334D01*
X47765Y-28393D01*
X47764Y-28456D01*
X47764Y-29006D01*
X47789Y-29065D01*
X47834Y-29110D01*
X47893Y-29134D01*
X47956Y-29135D01*
X48506Y-29135D01*
X48565Y-29110D01*
X48610Y-29065D01*
X48634Y-29006D01*
X48635Y-28943D01*
X48635Y-29320D01*
X46203Y-29320D01*
X46203Y-27398D01*
X46151Y-27274D01*
X46057Y-27179D01*
X45933Y-27128D01*
X45799Y-27127D01*
X45675Y-27179D01*
X45580Y-27273D01*
X45529Y-27397D01*
X45528Y-27531D01*
X45580Y-27655D01*
X45674Y-27750D01*
X45798Y-27801D01*
X45932Y-27802D01*
X46056Y-27750D01*
X46151Y-27656D01*
X46202Y-27532D01*
X46203Y-27398D01*
X46203Y-29320D01*
X45310Y-29320D01*
X45310Y-27338D01*
X45262Y-27224D01*
X45175Y-27137D01*
X45061Y-27090D01*
X44938Y-27089D01*
X44824Y-27137D01*
X44737Y-27224D01*
X44690Y-27338D01*
X44689Y-27461D01*
X44737Y-27575D01*
X44824Y-27662D01*
X44938Y-27709D01*
X45061Y-27710D01*
X45175Y-27662D01*
X45262Y-27575D01*
X45309Y-27461D01*
X45310Y-27338D01*
X45310Y-29320D01*
X44471Y-29320D01*
X44471Y-27398D01*
X44419Y-27274D01*
X44325Y-27179D01*
X44201Y-27128D01*
X44067Y-27127D01*
X43943Y-27179D01*
X43848Y-27273D01*
X43797Y-27397D01*
X43796Y-27531D01*
X43848Y-27655D01*
X43942Y-27750D01*
X44066Y-27801D01*
X44200Y-27802D01*
X44324Y-27750D01*
X44419Y-27656D01*
X44470Y-27532D01*
X44471Y-27398D01*
X44471Y-29320D01*
X42910Y-29320D01*
X42910Y-27538D01*
X42862Y-27424D01*
X42775Y-27337D01*
X42661Y-27290D01*
X42538Y-27289D01*
X42424Y-27337D01*
X42337Y-27424D01*
X42290Y-27538D01*
X42289Y-27661D01*
X42337Y-27775D01*
X42424Y-27862D01*
X42538Y-27909D01*
X42661Y-27910D01*
X42775Y-27862D01*
X42862Y-27775D01*
X42909Y-27661D01*
X42910Y-27538D01*
X42910Y-29320D01*
X27296Y-29320D01*
X27296Y-26743D01*
X27099Y-26266D01*
X26735Y-25901D01*
X26258Y-25703D01*
X25743Y-25703D01*
X25266Y-25900D01*
X24901Y-26264D01*
X24703Y-26741D01*
X24703Y-27256D01*
X24900Y-27733D01*
X25264Y-28098D01*
X25741Y-28296D01*
X26256Y-28296D01*
X26733Y-28099D01*
X27098Y-27735D01*
X27296Y-27258D01*
X27296Y-26743D01*
X27296Y-29320D01*
X21910Y-29320D01*
X21910Y-22938D01*
X21862Y-22824D01*
X21775Y-22737D01*
X21661Y-22690D01*
X21538Y-22689D01*
X21424Y-22737D01*
X21337Y-22824D01*
X21290Y-22938D01*
X21289Y-23061D01*
X21337Y-23175D01*
X21424Y-23262D01*
X21538Y-23309D01*
X21661Y-23310D01*
X21775Y-23262D01*
X21862Y-23175D01*
X21909Y-23061D01*
X21910Y-22938D01*
X21910Y-29320D01*
X20910Y-29320D01*
X20910Y-22538D01*
X20862Y-22424D01*
X20775Y-22337D01*
X20661Y-22290D01*
X20538Y-22289D01*
X20424Y-22337D01*
X20400Y-22361D01*
X20375Y-22337D01*
X20261Y-22290D01*
X20138Y-22289D01*
X20024Y-22337D01*
X19937Y-22424D01*
X19890Y-22538D01*
X19889Y-22661D01*
X19937Y-22775D01*
X20024Y-22862D01*
X20138Y-22909D01*
X20261Y-22910D01*
X20375Y-22862D01*
X20399Y-22838D01*
X20424Y-22862D01*
X20538Y-22909D01*
X20661Y-22910D01*
X20775Y-22862D01*
X20862Y-22775D01*
X20909Y-22661D01*
X20910Y-22538D01*
X20910Y-29320D01*
X20713Y-29320D01*
X20713Y-28082D01*
X20710Y-27991D01*
X20710Y-26318D01*
X20710Y-25618D01*
X20685Y-25559D01*
X20640Y-25514D01*
X20581Y-25490D01*
X20518Y-25489D01*
X19818Y-25489D01*
X19759Y-25514D01*
X19714Y-25559D01*
X19690Y-25618D01*
X19689Y-25681D01*
X19689Y-26381D01*
X19714Y-26440D01*
X19759Y-26485D01*
X19818Y-26509D01*
X19881Y-26510D01*
X20581Y-26510D01*
X20640Y-26485D01*
X20685Y-26440D01*
X20709Y-26381D01*
X20710Y-26318D01*
X20710Y-27991D01*
X20705Y-27879D01*
X20642Y-27727D01*
X20566Y-27690D01*
X20509Y-27746D01*
X20509Y-27633D01*
X20472Y-27557D01*
X20282Y-27486D01*
X20079Y-27494D01*
X19927Y-27557D01*
X19890Y-27633D01*
X20200Y-27943D01*
X20509Y-27633D01*
X20509Y-27746D01*
X20256Y-28000D01*
X20566Y-28309D01*
X20642Y-28272D01*
X20713Y-28082D01*
X20713Y-29320D01*
X20509Y-29320D01*
X20509Y-28366D01*
X20200Y-28056D01*
X20143Y-28113D01*
X20143Y-28000D01*
X19833Y-27690D01*
X19757Y-27727D01*
X19686Y-27917D01*
X19694Y-28120D01*
X19757Y-28272D01*
X19833Y-28309D01*
X20143Y-28000D01*
X20143Y-28113D01*
X19890Y-28366D01*
X19927Y-28442D01*
X20117Y-28513D01*
X20320Y-28505D01*
X20472Y-28442D01*
X20509Y-28366D01*
X20509Y-29320D01*
X19085Y-29320D01*
X19085Y-24223D01*
X19026Y-24082D01*
X18918Y-23973D01*
X18776Y-23915D01*
X18623Y-23914D01*
X18482Y-23973D01*
X18373Y-24081D01*
X18335Y-24174D01*
X18335Y-15713D01*
X18268Y-15553D01*
X18146Y-15431D01*
X17986Y-15365D01*
X17813Y-15364D01*
X17653Y-15431D01*
X17531Y-15553D01*
X17465Y-15713D01*
X17464Y-15886D01*
X17531Y-16046D01*
X17653Y-16168D01*
X17813Y-16234D01*
X17986Y-16235D01*
X18146Y-16168D01*
X18268Y-16046D01*
X18334Y-15886D01*
X18335Y-15713D01*
X18335Y-24174D01*
X18315Y-24223D01*
X18314Y-24376D01*
X18373Y-24517D01*
X18481Y-24626D01*
X18623Y-24684D01*
X18776Y-24685D01*
X18917Y-24626D01*
X19026Y-24518D01*
X19084Y-24376D01*
X19085Y-24223D01*
X19085Y-29320D01*
X17499Y-29320D01*
X17499Y-27260D01*
X17499Y-25819D01*
X17474Y-25760D01*
X17429Y-25715D01*
X17370Y-25691D01*
X17307Y-25690D01*
X16967Y-25690D01*
X16967Y-13783D01*
X16960Y-13578D01*
X16896Y-13425D01*
X16819Y-13386D01*
X16763Y-13443D01*
X16763Y-13330D01*
X16724Y-13253D01*
X16533Y-13182D01*
X16328Y-13189D01*
X16175Y-13253D01*
X16136Y-13330D01*
X16450Y-13643D01*
X16763Y-13330D01*
X16763Y-13443D01*
X16506Y-13700D01*
X16819Y-14013D01*
X16896Y-13974D01*
X16967Y-13783D01*
X16967Y-25690D01*
X16763Y-25690D01*
X16763Y-14069D01*
X16450Y-13756D01*
X16393Y-13813D01*
X16393Y-13700D01*
X16080Y-13386D01*
X16003Y-13425D01*
X15951Y-13565D01*
X15886Y-13409D01*
X15741Y-13264D01*
X15552Y-13185D01*
X15348Y-13185D01*
X15159Y-13263D01*
X15014Y-13408D01*
X14935Y-13597D01*
X14935Y-13801D01*
X15013Y-13990D01*
X15158Y-14135D01*
X15347Y-14214D01*
X15551Y-14214D01*
X15740Y-14136D01*
X15885Y-13991D01*
X15948Y-13841D01*
X16003Y-13974D01*
X16080Y-14013D01*
X16393Y-13700D01*
X16393Y-13813D01*
X16136Y-14069D01*
X16175Y-14146D01*
X16366Y-14217D01*
X16571Y-14210D01*
X16724Y-14146D01*
X16763Y-14069D01*
X16763Y-25690D01*
X16730Y-25691D01*
X16690Y-25731D01*
X16690Y-26500D01*
X17459Y-26500D01*
X17499Y-26460D01*
X17499Y-25819D01*
X17499Y-27260D01*
X17499Y-26620D01*
X17459Y-26580D01*
X16690Y-26580D01*
X16690Y-27349D01*
X16730Y-27389D01*
X17307Y-27389D01*
X17370Y-27388D01*
X17429Y-27364D01*
X17474Y-27319D01*
X17499Y-27260D01*
X17499Y-29320D01*
X16610Y-29320D01*
X16610Y-27349D01*
X16610Y-26580D01*
X16610Y-26500D01*
X16610Y-25731D01*
X16570Y-25691D01*
X16464Y-25690D01*
X16464Y-14598D01*
X16386Y-14409D01*
X16241Y-14264D01*
X16052Y-14185D01*
X15848Y-14185D01*
X15659Y-14263D01*
X15514Y-14408D01*
X15449Y-14563D01*
X15386Y-14409D01*
X15241Y-14264D01*
X15052Y-14185D01*
X14848Y-14185D01*
X14659Y-14263D01*
X14514Y-14408D01*
X14490Y-14466D01*
X14490Y-11043D01*
X14370Y-10753D01*
X14148Y-10530D01*
X13857Y-10410D01*
X13543Y-10409D01*
X13253Y-10529D01*
X13030Y-10751D01*
X12910Y-11042D01*
X12909Y-11356D01*
X13029Y-11646D01*
X13251Y-11869D01*
X13542Y-11989D01*
X13856Y-11990D01*
X14146Y-11870D01*
X14369Y-11648D01*
X14489Y-11357D01*
X14490Y-11043D01*
X14490Y-14466D01*
X14435Y-14597D01*
X14435Y-14801D01*
X14513Y-14990D01*
X14658Y-15135D01*
X14847Y-15214D01*
X15051Y-15214D01*
X15240Y-15136D01*
X15385Y-14991D01*
X15450Y-14836D01*
X15513Y-14990D01*
X15658Y-15135D01*
X15847Y-15214D01*
X16051Y-15214D01*
X16240Y-15136D01*
X16385Y-14991D01*
X16464Y-14802D01*
X16464Y-14598D01*
X16464Y-25690D01*
X16335Y-25690D01*
X16335Y-15713D01*
X16268Y-15553D01*
X16146Y-15431D01*
X15986Y-15365D01*
X15813Y-15364D01*
X15653Y-15431D01*
X15531Y-15553D01*
X15465Y-15713D01*
X15464Y-15886D01*
X15531Y-16046D01*
X15653Y-16168D01*
X15813Y-16234D01*
X15986Y-16235D01*
X16146Y-16168D01*
X16268Y-16046D01*
X16334Y-15886D01*
X16335Y-15713D01*
X16335Y-25690D01*
X16035Y-25690D01*
X16035Y-21633D01*
X15984Y-21510D01*
X15890Y-21416D01*
X15766Y-21365D01*
X15633Y-21364D01*
X15510Y-21415D01*
X15416Y-21509D01*
X15365Y-21633D01*
X15364Y-21766D01*
X15415Y-21889D01*
X15460Y-21933D01*
X15460Y-22100D01*
X14985Y-22575D01*
X14985Y-22323D01*
X14926Y-22182D01*
X14894Y-22150D01*
X14926Y-22118D01*
X14984Y-21976D01*
X14985Y-21823D01*
X14926Y-21682D01*
X14894Y-21650D01*
X14926Y-21618D01*
X14984Y-21476D01*
X14985Y-21323D01*
X14926Y-21182D01*
X14818Y-21073D01*
X14676Y-21015D01*
X14523Y-21014D01*
X14382Y-21073D01*
X14273Y-21181D01*
X14215Y-21323D01*
X14214Y-21476D01*
X14273Y-21617D01*
X14305Y-21649D01*
X14273Y-21681D01*
X14215Y-21823D01*
X14214Y-21976D01*
X14273Y-22117D01*
X14305Y-22149D01*
X14273Y-22181D01*
X14215Y-22323D01*
X14214Y-22476D01*
X14273Y-22617D01*
X14381Y-22726D01*
X14523Y-22784D01*
X14676Y-22785D01*
X14817Y-22726D01*
X14926Y-22618D01*
X14984Y-22476D01*
X14985Y-22323D01*
X14985Y-22575D01*
X14500Y-23060D01*
X13233Y-23060D01*
X13190Y-23016D01*
X13066Y-22965D01*
X12933Y-22964D01*
X12896Y-22980D01*
X12896Y-12743D01*
X12699Y-12266D01*
X12335Y-11901D01*
X11858Y-11703D01*
X11343Y-11703D01*
X10866Y-11900D01*
X10501Y-12264D01*
X10303Y-12741D01*
X10303Y-13256D01*
X10500Y-13733D01*
X10864Y-14098D01*
X11341Y-14296D01*
X11856Y-14296D01*
X12333Y-14099D01*
X12698Y-13735D01*
X12896Y-13258D01*
X12896Y-12743D01*
X12896Y-22980D01*
X12810Y-23015D01*
X12716Y-23109D01*
X12665Y-23233D01*
X12664Y-23366D01*
X12715Y-23489D01*
X12809Y-23583D01*
X12933Y-23634D01*
X13066Y-23635D01*
X13189Y-23584D01*
X13233Y-23540D01*
X14600Y-23540D01*
X14691Y-23521D01*
X14769Y-23469D01*
X15869Y-22369D01*
X15869Y-22369D01*
X15921Y-22291D01*
X15939Y-22200D01*
X15940Y-22200D01*
X15940Y-21933D01*
X15983Y-21890D01*
X16034Y-21766D01*
X16035Y-21633D01*
X16035Y-25690D01*
X15992Y-25690D01*
X15929Y-25691D01*
X15870Y-25715D01*
X15825Y-25760D01*
X15800Y-25819D01*
X15801Y-26460D01*
X15841Y-26500D01*
X16610Y-26500D01*
X16610Y-26580D01*
X15841Y-26580D01*
X15801Y-26620D01*
X15800Y-27260D01*
X15825Y-27319D01*
X15870Y-27364D01*
X15929Y-27388D01*
X15992Y-27389D01*
X16570Y-27389D01*
X16610Y-27349D01*
X16610Y-29320D01*
X15649Y-29320D01*
X15649Y-28441D01*
X15649Y-27000D01*
X15649Y-26016D01*
X15649Y-24638D01*
X15624Y-24579D01*
X15579Y-24534D01*
X15520Y-24510D01*
X15457Y-24509D01*
X14079Y-24509D01*
X14020Y-24534D01*
X13975Y-24579D01*
X13951Y-24638D01*
X13950Y-24701D01*
X13950Y-26079D01*
X13975Y-26138D01*
X14020Y-26183D01*
X14079Y-26207D01*
X14142Y-26208D01*
X15520Y-26208D01*
X15579Y-26183D01*
X15624Y-26138D01*
X15648Y-26079D01*
X15649Y-26016D01*
X15649Y-27000D01*
X15624Y-26941D01*
X15579Y-26896D01*
X15520Y-26872D01*
X15457Y-26871D01*
X14880Y-26872D01*
X14840Y-26912D01*
X14840Y-27681D01*
X15609Y-27681D01*
X15649Y-27641D01*
X15649Y-27000D01*
X15649Y-28441D01*
X15649Y-27801D01*
X15609Y-27761D01*
X14840Y-27761D01*
X14840Y-28530D01*
X14880Y-28570D01*
X15457Y-28570D01*
X15520Y-28569D01*
X15579Y-28545D01*
X15624Y-28500D01*
X15649Y-28441D01*
X15649Y-29320D01*
X14760Y-29320D01*
X14760Y-28530D01*
X14760Y-27761D01*
X14760Y-27681D01*
X14760Y-26912D01*
X14720Y-26872D01*
X14142Y-26871D01*
X14079Y-26872D01*
X14020Y-26896D01*
X13975Y-26941D01*
X13950Y-27000D01*
X13951Y-27641D01*
X13991Y-27681D01*
X14760Y-27681D01*
X14760Y-27761D01*
X13991Y-27761D01*
X13951Y-27801D01*
X13950Y-28441D01*
X13975Y-28500D01*
X14020Y-28545D01*
X14079Y-28569D01*
X14142Y-28570D01*
X14720Y-28570D01*
X14760Y-28530D01*
X14760Y-29320D01*
X12310Y-29320D01*
X12310Y-28219D01*
X12310Y-26219D01*
X12310Y-22219D01*
X12310Y-20219D01*
X12171Y-19885D01*
X11916Y-19628D01*
X11581Y-19490D01*
X11219Y-19489D01*
X10885Y-19628D01*
X10628Y-19883D01*
X10490Y-20218D01*
X10489Y-20580D01*
X10628Y-20914D01*
X10883Y-21171D01*
X11218Y-21309D01*
X11580Y-21310D01*
X11914Y-21171D01*
X12171Y-20916D01*
X12309Y-20581D01*
X12310Y-20219D01*
X12310Y-22219D01*
X12171Y-21885D01*
X11916Y-21628D01*
X11581Y-21490D01*
X11219Y-21489D01*
X10885Y-21628D01*
X10628Y-21883D01*
X10490Y-22218D01*
X10489Y-22580D01*
X10628Y-22914D01*
X10883Y-23171D01*
X11218Y-23309D01*
X11580Y-23310D01*
X11914Y-23171D01*
X12171Y-22916D01*
X12309Y-22581D01*
X12310Y-22219D01*
X12310Y-26219D01*
X12171Y-25885D01*
X11916Y-25628D01*
X11581Y-25490D01*
X11219Y-25489D01*
X10885Y-25628D01*
X10628Y-25883D01*
X10490Y-26218D01*
X10489Y-26580D01*
X10628Y-26914D01*
X10883Y-27171D01*
X11218Y-27309D01*
X11580Y-27310D01*
X11914Y-27171D01*
X12171Y-26916D01*
X12309Y-26581D01*
X12310Y-26219D01*
X12310Y-28219D01*
X12171Y-27885D01*
X11916Y-27628D01*
X11581Y-27490D01*
X11219Y-27489D01*
X10885Y-27628D01*
X10628Y-27883D01*
X10490Y-28218D01*
X10489Y-28580D01*
X10628Y-28914D01*
X10883Y-29171D01*
X11218Y-29309D01*
X11580Y-29310D01*
X11914Y-29171D01*
X12171Y-28916D01*
X12309Y-28581D01*
X12310Y-28219D01*
X12310Y-29320D01*
X10179Y-29320D01*
X10179Y-10179D01*
X49070Y-10179D01*
X49070Y-12679D01*
X48899Y-12266D01*
X48535Y-11901D01*
X48058Y-11703D01*
X47543Y-11703D01*
X47066Y-11900D01*
X46701Y-12264D01*
X46503Y-12741D01*
X46503Y-13256D01*
X46700Y-13733D01*
X47064Y-14098D01*
X47541Y-14296D01*
X48056Y-14296D01*
X48533Y-14099D01*
X48898Y-13735D01*
X49070Y-13320D01*
X49070Y-21779D01*
X48899Y-21366D01*
X48810Y-21276D01*
X48810Y-18538D01*
X48762Y-18424D01*
X48675Y-18337D01*
X48561Y-18290D01*
X48438Y-18289D01*
X48324Y-18337D01*
X48237Y-18424D01*
X48190Y-18538D01*
X48189Y-18661D01*
X48237Y-18775D01*
X48324Y-18862D01*
X48438Y-18909D01*
X48561Y-18910D01*
X48675Y-18862D01*
X48762Y-18775D01*
X48809Y-18661D01*
X48810Y-18538D01*
X48810Y-21276D01*
X48535Y-21001D01*
X48058Y-20803D01*
X47543Y-20803D01*
X47066Y-21000D01*
X46701Y-21364D01*
X46503Y-21841D01*
X46503Y-22356D01*
X46700Y-22833D01*
X47064Y-23198D01*
X47541Y-23396D01*
X48056Y-23396D01*
X48533Y-23199D01*
X48898Y-22835D01*
X49070Y-22420D01*
X49070Y-29320D01*
X49070Y-29320D01*
G37*
G54D21*
X49070Y-29320D02*
X48638Y-29320D01*
X48638Y-26764D01*
X48630Y-26591D01*
X48580Y-26472D01*
X48512Y-26444D01*
X48455Y-26500D01*
X48455Y-26387D01*
X48427Y-26319D01*
X48264Y-26261D01*
X48091Y-26269D01*
X47972Y-26319D01*
X47944Y-26387D01*
X48200Y-26643D01*
X48455Y-26387D01*
X48455Y-26500D01*
X48256Y-26700D01*
X48512Y-26955D01*
X48580Y-26927D01*
X48638Y-26764D01*
X48638Y-29320D01*
X48635Y-29320D01*
X48635Y-27613D01*
X48568Y-27453D01*
X48455Y-27340D01*
X48455Y-27012D01*
X48200Y-26756D01*
X48143Y-26813D01*
X48143Y-26700D01*
X47887Y-26444D01*
X47819Y-26472D01*
X47761Y-26635D01*
X47769Y-26808D01*
X47819Y-26927D01*
X47887Y-26955D01*
X48143Y-26700D01*
X48143Y-26813D01*
X47944Y-27012D01*
X47972Y-27080D01*
X48135Y-27138D01*
X48308Y-27130D01*
X48427Y-27080D01*
X48455Y-27012D01*
X48455Y-27340D01*
X48446Y-27331D01*
X48286Y-27265D01*
X48113Y-27264D01*
X48067Y-27284D01*
X46682Y-25900D01*
X47811Y-25900D01*
X47831Y-25946D01*
X47953Y-26068D01*
X48113Y-26134D01*
X48286Y-26135D01*
X48446Y-26068D01*
X48568Y-25946D01*
X48634Y-25786D01*
X48635Y-25613D01*
X48568Y-25453D01*
X48446Y-25331D01*
X48286Y-25265D01*
X48113Y-25264D01*
X47953Y-25331D01*
X47831Y-25453D01*
X47812Y-25500D01*
X46490Y-25500D01*
X46490Y-11043D01*
X46370Y-10753D01*
X46148Y-10530D01*
X45857Y-10410D01*
X45543Y-10409D01*
X45253Y-10529D01*
X45030Y-10751D01*
X44910Y-11042D01*
X44909Y-11356D01*
X45029Y-11646D01*
X45251Y-11869D01*
X45542Y-11989D01*
X45856Y-11990D01*
X46146Y-11870D01*
X46369Y-11648D01*
X46489Y-11357D01*
X46490Y-11043D01*
X46490Y-25500D01*
X42700Y-25500D01*
X42582Y-25500D01*
X42441Y-25358D01*
X42376Y-25315D01*
X42300Y-25300D01*
X41900Y-25300D01*
X41823Y-25315D01*
X41801Y-25329D01*
X41758Y-25358D01*
X41700Y-25417D01*
X41700Y-25309D01*
X42649Y-24360D01*
X44577Y-24360D01*
X44990Y-24772D01*
X44989Y-24861D01*
X45037Y-24975D01*
X45124Y-25062D01*
X45238Y-25109D01*
X45361Y-25110D01*
X45475Y-25062D01*
X45562Y-24975D01*
X45609Y-24861D01*
X45610Y-24738D01*
X45562Y-24624D01*
X45475Y-24537D01*
X45361Y-24490D01*
X45272Y-24489D01*
X44982Y-24200D01*
X45061Y-24200D01*
X45124Y-24262D01*
X45238Y-24309D01*
X45361Y-24310D01*
X45475Y-24262D01*
X45562Y-24175D01*
X45609Y-24061D01*
X45610Y-23938D01*
X45562Y-23824D01*
X45475Y-23737D01*
X45361Y-23690D01*
X45238Y-23689D01*
X45124Y-23737D01*
X45061Y-23800D01*
X44810Y-23800D01*
X44810Y-21038D01*
X44762Y-20924D01*
X44675Y-20837D01*
X44561Y-20790D01*
X44438Y-20789D01*
X44324Y-20837D01*
X44237Y-20924D01*
X44190Y-21038D01*
X44189Y-21161D01*
X44237Y-21275D01*
X44324Y-21362D01*
X44438Y-21409D01*
X44561Y-21410D01*
X44675Y-21362D01*
X44762Y-21275D01*
X44809Y-21161D01*
X44810Y-21038D01*
X44810Y-23800D01*
X42500Y-23800D01*
X42423Y-23815D01*
X42401Y-23829D01*
X42358Y-23858D01*
X41380Y-24837D01*
X41380Y-24202D01*
X41632Y-23950D01*
X41761Y-23950D01*
X41824Y-24012D01*
X41938Y-24059D01*
X42061Y-24060D01*
X42175Y-24012D01*
X42262Y-23925D01*
X42309Y-23811D01*
X42310Y-23688D01*
X42262Y-23574D01*
X42175Y-23487D01*
X42061Y-23440D01*
X41938Y-23439D01*
X41824Y-23487D01*
X41761Y-23550D01*
X41550Y-23550D01*
X41486Y-23562D01*
X41473Y-23565D01*
X41408Y-23608D01*
X41220Y-23797D01*
X41220Y-21789D01*
X43042Y-19966D01*
X45533Y-19966D01*
X45610Y-19951D01*
X45675Y-19907D01*
X46241Y-19341D01*
X46284Y-19276D01*
X46284Y-19276D01*
X46300Y-19200D01*
X46300Y-18538D01*
X46362Y-18475D01*
X46409Y-18361D01*
X46410Y-18238D01*
X46362Y-18124D01*
X46335Y-18096D01*
X46335Y-15713D01*
X46268Y-15553D01*
X46146Y-15431D01*
X45986Y-15365D01*
X45813Y-15364D01*
X45653Y-15431D01*
X45531Y-15553D01*
X45465Y-15713D01*
X45464Y-15886D01*
X45531Y-16046D01*
X45653Y-16168D01*
X45813Y-16234D01*
X45986Y-16235D01*
X46146Y-16168D01*
X46268Y-16046D01*
X46334Y-15886D01*
X46335Y-15713D01*
X46335Y-18096D01*
X46275Y-18037D01*
X46161Y-17990D01*
X46038Y-17989D01*
X45924Y-18037D01*
X45837Y-18124D01*
X45790Y-18238D01*
X45789Y-18361D01*
X45837Y-18475D01*
X45900Y-18538D01*
X45900Y-19117D01*
X45535Y-19482D01*
X45535Y-19133D01*
X45484Y-19010D01*
X45390Y-18916D01*
X45266Y-18865D01*
X45133Y-18864D01*
X45010Y-18915D01*
X44967Y-18958D01*
X44967Y-13783D01*
X44960Y-13578D01*
X44896Y-13425D01*
X44819Y-13386D01*
X44763Y-13443D01*
X44763Y-13330D01*
X44724Y-13253D01*
X44533Y-13182D01*
X44328Y-13189D01*
X44175Y-13253D01*
X44136Y-13330D01*
X44450Y-13643D01*
X44763Y-13330D01*
X44763Y-13443D01*
X44506Y-13700D01*
X44819Y-14013D01*
X44896Y-13974D01*
X44967Y-13783D01*
X44967Y-18958D01*
X44916Y-19009D01*
X44865Y-19133D01*
X44864Y-19266D01*
X44915Y-19389D01*
X45009Y-19483D01*
X45133Y-19534D01*
X45266Y-19535D01*
X45389Y-19484D01*
X45483Y-19390D01*
X45534Y-19266D01*
X45535Y-19133D01*
X45535Y-19482D01*
X45450Y-19566D01*
X44763Y-19566D01*
X44763Y-14069D01*
X44450Y-13756D01*
X44393Y-13813D01*
X44393Y-13700D01*
X44080Y-13386D01*
X44003Y-13425D01*
X43951Y-13565D01*
X43886Y-13409D01*
X43741Y-13264D01*
X43552Y-13185D01*
X43348Y-13185D01*
X43159Y-13263D01*
X43014Y-13408D01*
X42935Y-13597D01*
X42935Y-13801D01*
X43013Y-13990D01*
X43158Y-14135D01*
X43347Y-14214D01*
X43551Y-14214D01*
X43740Y-14136D01*
X43885Y-13991D01*
X43948Y-13841D01*
X44003Y-13974D01*
X44080Y-14013D01*
X44393Y-13700D01*
X44393Y-13813D01*
X44136Y-14069D01*
X44175Y-14146D01*
X44366Y-14217D01*
X44571Y-14210D01*
X44724Y-14146D01*
X44763Y-14069D01*
X44763Y-19566D01*
X44464Y-19566D01*
X44464Y-14598D01*
X44386Y-14409D01*
X44241Y-14264D01*
X44052Y-14185D01*
X43848Y-14185D01*
X43659Y-14263D01*
X43514Y-14408D01*
X43449Y-14563D01*
X43386Y-14409D01*
X43241Y-14264D01*
X43052Y-14185D01*
X42848Y-14185D01*
X42659Y-14263D01*
X42514Y-14408D01*
X42490Y-14466D01*
X42490Y-11043D01*
X42370Y-10753D01*
X42148Y-10530D01*
X41857Y-10410D01*
X41543Y-10409D01*
X41253Y-10529D01*
X41030Y-10751D01*
X40910Y-11042D01*
X40909Y-11356D01*
X41029Y-11646D01*
X41251Y-11869D01*
X41542Y-11989D01*
X41856Y-11990D01*
X42146Y-11870D01*
X42369Y-11648D01*
X42489Y-11357D01*
X42490Y-11043D01*
X42490Y-14466D01*
X42435Y-14597D01*
X42435Y-14801D01*
X42513Y-14990D01*
X42658Y-15135D01*
X42847Y-15214D01*
X43051Y-15214D01*
X43240Y-15136D01*
X43385Y-14991D01*
X43450Y-14836D01*
X43513Y-14990D01*
X43658Y-15135D01*
X43847Y-15214D01*
X44051Y-15214D01*
X44240Y-15136D01*
X44385Y-14991D01*
X44464Y-14802D01*
X44464Y-14598D01*
X44464Y-19566D01*
X44335Y-19566D01*
X44335Y-15713D01*
X44268Y-15553D01*
X44146Y-15431D01*
X43986Y-15365D01*
X43813Y-15364D01*
X43653Y-15431D01*
X43531Y-15553D01*
X43465Y-15713D01*
X43464Y-15886D01*
X43531Y-16046D01*
X43653Y-16168D01*
X43813Y-16234D01*
X43986Y-16235D01*
X44146Y-16168D01*
X44268Y-16046D01*
X44334Y-15886D01*
X44335Y-15713D01*
X44335Y-19566D01*
X42960Y-19566D01*
X42883Y-19581D01*
X42861Y-19595D01*
X42818Y-19624D01*
X41750Y-20693D01*
X41750Y-17850D01*
X41734Y-17773D01*
X41734Y-17773D01*
X41691Y-17708D01*
X41409Y-17427D01*
X41410Y-17338D01*
X41362Y-17224D01*
X41275Y-17137D01*
X41161Y-17090D01*
X41038Y-17089D01*
X40924Y-17137D01*
X40890Y-17171D01*
X40890Y-11043D01*
X40770Y-10753D01*
X40548Y-10530D01*
X40257Y-10410D01*
X39943Y-10409D01*
X39653Y-10529D01*
X39430Y-10751D01*
X39310Y-11042D01*
X39309Y-11356D01*
X39429Y-11646D01*
X39651Y-11869D01*
X39942Y-11989D01*
X40256Y-11990D01*
X40546Y-11870D01*
X40769Y-11648D01*
X40889Y-11357D01*
X40890Y-11043D01*
X40890Y-17171D01*
X40837Y-17224D01*
X40790Y-17338D01*
X40789Y-17461D01*
X40837Y-17575D01*
X40924Y-17662D01*
X41038Y-17709D01*
X41127Y-17710D01*
X41350Y-17932D01*
X41350Y-20511D01*
X41275Y-20437D01*
X41161Y-20390D01*
X41038Y-20389D01*
X40924Y-20437D01*
X40900Y-20461D01*
X40900Y-19921D01*
X40887Y-19857D01*
X40884Y-19844D01*
X40884Y-19844D01*
X40841Y-19779D01*
X40735Y-19673D01*
X40735Y-15713D01*
X40668Y-15553D01*
X40546Y-15431D01*
X40386Y-15365D01*
X40213Y-15364D01*
X40053Y-15431D01*
X39931Y-15553D01*
X39865Y-15713D01*
X39864Y-15886D01*
X39931Y-16046D01*
X40053Y-16168D01*
X40213Y-16234D01*
X40386Y-16235D01*
X40546Y-16168D01*
X40668Y-16046D01*
X40734Y-15886D01*
X40735Y-15713D01*
X40735Y-19673D01*
X39440Y-18378D01*
X39375Y-18335D01*
X39367Y-18333D01*
X39367Y-13783D01*
X39360Y-13578D01*
X39296Y-13425D01*
X39219Y-13386D01*
X39163Y-13443D01*
X39163Y-13330D01*
X39124Y-13253D01*
X38933Y-13182D01*
X38728Y-13189D01*
X38575Y-13253D01*
X38536Y-13330D01*
X38850Y-13643D01*
X39163Y-13330D01*
X39163Y-13443D01*
X38906Y-13700D01*
X39219Y-14013D01*
X39296Y-13974D01*
X39367Y-13783D01*
X39367Y-18333D01*
X39298Y-18319D01*
X39163Y-18319D01*
X39163Y-14069D01*
X38850Y-13756D01*
X38793Y-13813D01*
X38793Y-13700D01*
X38480Y-13386D01*
X38403Y-13425D01*
X38351Y-13565D01*
X38286Y-13409D01*
X38141Y-13264D01*
X37952Y-13185D01*
X37748Y-13185D01*
X37559Y-13263D01*
X37414Y-13408D01*
X37335Y-13597D01*
X37335Y-13801D01*
X37413Y-13990D01*
X37558Y-14135D01*
X37747Y-14214D01*
X37951Y-14214D01*
X38140Y-14136D01*
X38285Y-13991D01*
X38348Y-13841D01*
X38403Y-13974D01*
X38480Y-14013D01*
X38793Y-13700D01*
X38793Y-13813D01*
X38536Y-14069D01*
X38575Y-14146D01*
X38766Y-14217D01*
X38971Y-14210D01*
X39124Y-14146D01*
X39163Y-14069D01*
X39163Y-18319D01*
X38864Y-18319D01*
X38864Y-14598D01*
X38786Y-14409D01*
X38641Y-14264D01*
X38452Y-14185D01*
X38248Y-14185D01*
X38059Y-14263D01*
X37914Y-14408D01*
X37849Y-14563D01*
X37786Y-14409D01*
X37641Y-14264D01*
X37452Y-14185D01*
X37248Y-14185D01*
X37059Y-14263D01*
X36914Y-14408D01*
X36890Y-14466D01*
X36890Y-11043D01*
X36770Y-10753D01*
X36548Y-10530D01*
X36257Y-10410D01*
X35943Y-10409D01*
X35653Y-10529D01*
X35430Y-10751D01*
X35310Y-11042D01*
X35309Y-11356D01*
X35429Y-11646D01*
X35651Y-11869D01*
X35942Y-11989D01*
X36256Y-11990D01*
X36546Y-11870D01*
X36769Y-11648D01*
X36889Y-11357D01*
X36890Y-11043D01*
X36890Y-14466D01*
X36835Y-14597D01*
X36835Y-14801D01*
X36913Y-14990D01*
X37058Y-15135D01*
X37247Y-15214D01*
X37451Y-15214D01*
X37640Y-15136D01*
X37785Y-14991D01*
X37850Y-14836D01*
X37913Y-14990D01*
X38058Y-15135D01*
X38247Y-15214D01*
X38451Y-15214D01*
X38640Y-15136D01*
X38785Y-14991D01*
X38864Y-14802D01*
X38864Y-14598D01*
X38864Y-18319D01*
X38735Y-18319D01*
X38735Y-15713D01*
X38668Y-15553D01*
X38546Y-15431D01*
X38386Y-15365D01*
X38213Y-15364D01*
X38053Y-15431D01*
X37931Y-15553D01*
X37865Y-15713D01*
X37864Y-15886D01*
X37931Y-16046D01*
X38053Y-16168D01*
X38213Y-16234D01*
X38386Y-16235D01*
X38546Y-16168D01*
X38668Y-16046D01*
X38734Y-15886D01*
X38735Y-15713D01*
X38735Y-18319D01*
X37719Y-18319D01*
X36702Y-18319D01*
X35809Y-17427D01*
X35810Y-17338D01*
X35762Y-17224D01*
X35675Y-17137D01*
X35561Y-17090D01*
X35438Y-17089D01*
X35324Y-17137D01*
X35290Y-17171D01*
X35290Y-11043D01*
X35170Y-10753D01*
X34948Y-10530D01*
X34657Y-10410D01*
X34343Y-10409D01*
X34053Y-10529D01*
X33830Y-10751D01*
X33710Y-11042D01*
X33709Y-11356D01*
X33829Y-11646D01*
X34051Y-11869D01*
X34342Y-11989D01*
X34656Y-11990D01*
X34946Y-11870D01*
X35169Y-11648D01*
X35289Y-11357D01*
X35290Y-11043D01*
X35290Y-17171D01*
X35237Y-17224D01*
X35190Y-17338D01*
X35189Y-17461D01*
X35237Y-17575D01*
X35324Y-17662D01*
X35438Y-17709D01*
X35527Y-17710D01*
X36297Y-18479D01*
X35135Y-18479D01*
X35135Y-15713D01*
X35068Y-15553D01*
X34946Y-15431D01*
X34786Y-15365D01*
X34613Y-15364D01*
X34453Y-15431D01*
X34331Y-15553D01*
X34265Y-15713D01*
X34264Y-15886D01*
X34331Y-16046D01*
X34453Y-16168D01*
X34613Y-16234D01*
X34786Y-16235D01*
X34946Y-16168D01*
X35068Y-16046D01*
X35134Y-15886D01*
X35135Y-15713D01*
X35135Y-18479D01*
X33767Y-18479D01*
X33767Y-13783D01*
X33760Y-13578D01*
X33696Y-13425D01*
X33619Y-13386D01*
X33563Y-13443D01*
X33563Y-13330D01*
X33524Y-13253D01*
X33333Y-13182D01*
X33128Y-13189D01*
X32975Y-13253D01*
X32936Y-13330D01*
X33250Y-13643D01*
X33563Y-13330D01*
X33563Y-13443D01*
X33306Y-13700D01*
X33619Y-14013D01*
X33696Y-13974D01*
X33767Y-13783D01*
X33767Y-18479D01*
X33563Y-18479D01*
X33563Y-14069D01*
X33250Y-13756D01*
X33193Y-13813D01*
X33193Y-13700D01*
X32880Y-13386D01*
X32803Y-13425D01*
X32751Y-13565D01*
X32686Y-13409D01*
X32541Y-13264D01*
X32352Y-13185D01*
X32148Y-13185D01*
X31959Y-13263D01*
X31814Y-13408D01*
X31735Y-13597D01*
X31735Y-13801D01*
X31813Y-13990D01*
X31958Y-14135D01*
X32147Y-14214D01*
X32351Y-14214D01*
X32540Y-14136D01*
X32685Y-13991D01*
X32748Y-13841D01*
X32803Y-13974D01*
X32880Y-14013D01*
X33193Y-13700D01*
X33193Y-13813D01*
X32936Y-14069D01*
X32975Y-14146D01*
X33166Y-14217D01*
X33371Y-14210D01*
X33524Y-14146D01*
X33563Y-14069D01*
X33563Y-18479D01*
X33264Y-18479D01*
X33264Y-14598D01*
X33186Y-14409D01*
X33041Y-14264D01*
X32852Y-14185D01*
X32648Y-14185D01*
X32459Y-14263D01*
X32314Y-14408D01*
X32249Y-14563D01*
X32186Y-14409D01*
X32041Y-14264D01*
X31852Y-14185D01*
X31648Y-14185D01*
X31459Y-14263D01*
X31314Y-14408D01*
X31290Y-14466D01*
X31290Y-11043D01*
X31170Y-10753D01*
X30948Y-10530D01*
X30657Y-10410D01*
X30343Y-10409D01*
X30053Y-10529D01*
X29830Y-10751D01*
X29710Y-11042D01*
X29709Y-11356D01*
X29829Y-11646D01*
X30051Y-11869D01*
X30342Y-11989D01*
X30656Y-11990D01*
X30946Y-11870D01*
X31169Y-11648D01*
X31289Y-11357D01*
X31290Y-11043D01*
X31290Y-14466D01*
X31235Y-14597D01*
X31235Y-14801D01*
X31313Y-14990D01*
X31458Y-15135D01*
X31647Y-15214D01*
X31851Y-15214D01*
X32040Y-15136D01*
X32185Y-14991D01*
X32250Y-14836D01*
X32313Y-14990D01*
X32458Y-15135D01*
X32647Y-15214D01*
X32851Y-15214D01*
X33040Y-15136D01*
X33185Y-14991D01*
X33264Y-14802D01*
X33264Y-14598D01*
X33264Y-18479D01*
X33135Y-18479D01*
X33135Y-15713D01*
X33068Y-15553D01*
X32946Y-15431D01*
X32786Y-15365D01*
X32613Y-15364D01*
X32453Y-15431D01*
X32331Y-15553D01*
X32265Y-15713D01*
X32264Y-15886D01*
X32331Y-16046D01*
X32453Y-16168D01*
X32613Y-16234D01*
X32786Y-16235D01*
X32946Y-16168D01*
X33068Y-16046D01*
X33134Y-15886D01*
X33135Y-15713D01*
X33135Y-18479D01*
X31700Y-18479D01*
X31679Y-18479D01*
X31262Y-18479D01*
X30209Y-17427D01*
X30210Y-17338D01*
X30162Y-17224D01*
X30075Y-17137D01*
X29961Y-17090D01*
X29838Y-17089D01*
X29724Y-17137D01*
X29690Y-17171D01*
X29690Y-11043D01*
X29570Y-10753D01*
X29348Y-10530D01*
X29057Y-10410D01*
X28743Y-10409D01*
X28453Y-10529D01*
X28230Y-10751D01*
X28110Y-11042D01*
X28109Y-11356D01*
X28229Y-11646D01*
X28451Y-11869D01*
X28742Y-11989D01*
X29056Y-11990D01*
X29346Y-11870D01*
X29569Y-11648D01*
X29689Y-11357D01*
X29690Y-11043D01*
X29690Y-17171D01*
X29637Y-17224D01*
X29590Y-17338D01*
X29589Y-17461D01*
X29637Y-17575D01*
X29724Y-17662D01*
X29838Y-17709D01*
X29927Y-17710D01*
X30857Y-18639D01*
X29535Y-18639D01*
X29535Y-15713D01*
X29468Y-15553D01*
X29346Y-15431D01*
X29186Y-15365D01*
X29013Y-15364D01*
X28853Y-15431D01*
X28731Y-15553D01*
X28665Y-15713D01*
X28664Y-15886D01*
X28731Y-16046D01*
X28853Y-16168D01*
X29013Y-16234D01*
X29186Y-16235D01*
X29346Y-16168D01*
X29468Y-16046D01*
X29534Y-15886D01*
X29535Y-15713D01*
X29535Y-18639D01*
X28167Y-18639D01*
X28167Y-13783D01*
X28160Y-13578D01*
X28096Y-13425D01*
X28019Y-13386D01*
X27963Y-13443D01*
X27963Y-13330D01*
X27924Y-13253D01*
X27733Y-13182D01*
X27528Y-13189D01*
X27375Y-13253D01*
X27336Y-13330D01*
X27650Y-13643D01*
X27963Y-13330D01*
X27963Y-13443D01*
X27706Y-13700D01*
X28019Y-14013D01*
X28096Y-13974D01*
X28167Y-13783D01*
X28167Y-18639D01*
X27963Y-18639D01*
X27963Y-14069D01*
X27650Y-13756D01*
X27593Y-13813D01*
X27593Y-13700D01*
X27280Y-13386D01*
X27203Y-13425D01*
X27151Y-13565D01*
X27086Y-13409D01*
X26941Y-13264D01*
X26752Y-13185D01*
X26548Y-13185D01*
X26359Y-13263D01*
X26214Y-13408D01*
X26135Y-13597D01*
X26135Y-13801D01*
X26213Y-13990D01*
X26358Y-14135D01*
X26547Y-14214D01*
X26751Y-14214D01*
X26940Y-14136D01*
X27085Y-13991D01*
X27148Y-13841D01*
X27203Y-13974D01*
X27280Y-14013D01*
X27593Y-13700D01*
X27593Y-13813D01*
X27336Y-14069D01*
X27375Y-14146D01*
X27566Y-14217D01*
X27771Y-14210D01*
X27924Y-14146D01*
X27963Y-14069D01*
X27963Y-18639D01*
X27664Y-18639D01*
X27664Y-14598D01*
X27586Y-14409D01*
X27441Y-14264D01*
X27252Y-14185D01*
X27048Y-14185D01*
X26859Y-14263D01*
X26714Y-14408D01*
X26649Y-14563D01*
X26586Y-14409D01*
X26441Y-14264D01*
X26252Y-14185D01*
X26048Y-14185D01*
X25859Y-14263D01*
X25714Y-14408D01*
X25690Y-14466D01*
X25690Y-11043D01*
X25570Y-10753D01*
X25348Y-10530D01*
X25057Y-10410D01*
X24743Y-10409D01*
X24453Y-10529D01*
X24230Y-10751D01*
X24110Y-11042D01*
X24109Y-11356D01*
X24229Y-11646D01*
X24451Y-11869D01*
X24742Y-11989D01*
X25056Y-11990D01*
X25346Y-11870D01*
X25569Y-11648D01*
X25689Y-11357D01*
X25690Y-11043D01*
X25690Y-14466D01*
X25635Y-14597D01*
X25635Y-14801D01*
X25713Y-14990D01*
X25858Y-15135D01*
X26047Y-15214D01*
X26251Y-15214D01*
X26440Y-15136D01*
X26585Y-14991D01*
X26650Y-14836D01*
X26713Y-14990D01*
X26858Y-15135D01*
X27047Y-15214D01*
X27251Y-15214D01*
X27440Y-15136D01*
X27585Y-14991D01*
X27664Y-14802D01*
X27664Y-14598D01*
X27664Y-18639D01*
X27535Y-18639D01*
X27535Y-15713D01*
X27468Y-15553D01*
X27346Y-15431D01*
X27186Y-15365D01*
X27013Y-15364D01*
X26853Y-15431D01*
X26731Y-15553D01*
X26665Y-15713D01*
X26664Y-15886D01*
X26731Y-16046D01*
X26853Y-16168D01*
X27013Y-16234D01*
X27186Y-16235D01*
X27346Y-16168D01*
X27468Y-16046D01*
X27534Y-15886D01*
X27535Y-15713D01*
X27535Y-18639D01*
X25822Y-18639D01*
X24609Y-17427D01*
X24610Y-17338D01*
X24562Y-17224D01*
X24475Y-17137D01*
X24361Y-17090D01*
X24238Y-17089D01*
X24124Y-17137D01*
X24090Y-17171D01*
X24090Y-11043D01*
X23970Y-10753D01*
X23748Y-10530D01*
X23457Y-10410D01*
X23143Y-10409D01*
X22853Y-10529D01*
X22630Y-10751D01*
X22510Y-11042D01*
X22509Y-11356D01*
X22629Y-11646D01*
X22851Y-11869D01*
X23142Y-11989D01*
X23456Y-11990D01*
X23746Y-11870D01*
X23969Y-11648D01*
X24089Y-11357D01*
X24090Y-11043D01*
X24090Y-17171D01*
X24037Y-17224D01*
X23990Y-17338D01*
X23989Y-17461D01*
X24037Y-17575D01*
X24124Y-17662D01*
X24238Y-17709D01*
X24327Y-17710D01*
X25417Y-18800D01*
X23935Y-18800D01*
X23935Y-15713D01*
X23868Y-15553D01*
X23746Y-15431D01*
X23586Y-15365D01*
X23413Y-15364D01*
X23253Y-15431D01*
X23131Y-15553D01*
X23065Y-15713D01*
X23064Y-15886D01*
X23131Y-16046D01*
X23253Y-16168D01*
X23413Y-16234D01*
X23586Y-16235D01*
X23746Y-16168D01*
X23868Y-16046D01*
X23934Y-15886D01*
X23935Y-15713D01*
X23935Y-18800D01*
X22567Y-18800D01*
X22567Y-13783D01*
X22560Y-13578D01*
X22496Y-13425D01*
X22419Y-13386D01*
X22363Y-13443D01*
X22363Y-13330D01*
X22324Y-13253D01*
X22133Y-13182D01*
X21928Y-13189D01*
X21775Y-13253D01*
X21736Y-13330D01*
X22050Y-13643D01*
X22363Y-13330D01*
X22363Y-13443D01*
X22106Y-13700D01*
X22419Y-14013D01*
X22496Y-13974D01*
X22567Y-13783D01*
X22567Y-18800D01*
X22363Y-18800D01*
X22363Y-14069D01*
X22050Y-13756D01*
X21993Y-13813D01*
X21993Y-13700D01*
X21680Y-13386D01*
X21603Y-13425D01*
X21551Y-13565D01*
X21486Y-13409D01*
X21341Y-13264D01*
X21152Y-13185D01*
X20948Y-13185D01*
X20759Y-13263D01*
X20614Y-13408D01*
X20535Y-13597D01*
X20535Y-13801D01*
X20613Y-13990D01*
X20758Y-14135D01*
X20947Y-14214D01*
X21151Y-14214D01*
X21340Y-14136D01*
X21485Y-13991D01*
X21548Y-13841D01*
X21603Y-13974D01*
X21680Y-14013D01*
X21993Y-13700D01*
X21993Y-13813D01*
X21736Y-14069D01*
X21775Y-14146D01*
X21966Y-14217D01*
X22171Y-14210D01*
X22324Y-14146D01*
X22363Y-14069D01*
X22363Y-18800D01*
X22064Y-18800D01*
X22064Y-14598D01*
X21986Y-14409D01*
X21841Y-14264D01*
X21652Y-14185D01*
X21448Y-14185D01*
X21259Y-14263D01*
X21114Y-14408D01*
X21049Y-14563D01*
X20986Y-14409D01*
X20841Y-14264D01*
X20652Y-14185D01*
X20448Y-14185D01*
X20259Y-14263D01*
X20114Y-14408D01*
X20090Y-14466D01*
X20090Y-11043D01*
X19970Y-10753D01*
X19748Y-10530D01*
X19457Y-10410D01*
X19143Y-10409D01*
X18853Y-10529D01*
X18630Y-10751D01*
X18510Y-11042D01*
X18509Y-11356D01*
X18629Y-11646D01*
X18851Y-11869D01*
X19142Y-11989D01*
X19456Y-11990D01*
X19746Y-11870D01*
X19969Y-11648D01*
X20089Y-11357D01*
X20090Y-11043D01*
X20090Y-14466D01*
X20035Y-14597D01*
X20035Y-14801D01*
X20113Y-14990D01*
X20258Y-15135D01*
X20447Y-15214D01*
X20651Y-15214D01*
X20840Y-15136D01*
X20985Y-14991D01*
X21050Y-14836D01*
X21113Y-14990D01*
X21258Y-15135D01*
X21447Y-15214D01*
X21651Y-15214D01*
X21840Y-15136D01*
X21985Y-14991D01*
X22064Y-14802D01*
X22064Y-14598D01*
X22064Y-18800D01*
X21935Y-18800D01*
X21935Y-15713D01*
X21868Y-15553D01*
X21746Y-15431D01*
X21586Y-15365D01*
X21413Y-15364D01*
X21253Y-15431D01*
X21131Y-15553D01*
X21065Y-15713D01*
X21064Y-15886D01*
X21131Y-16046D01*
X21253Y-16168D01*
X21413Y-16234D01*
X21586Y-16235D01*
X21746Y-16168D01*
X21868Y-16046D01*
X21934Y-15886D01*
X21935Y-15713D01*
X21935Y-18800D01*
X20382Y-18800D01*
X19009Y-17427D01*
X19010Y-17338D01*
X18962Y-17224D01*
X18875Y-17137D01*
X18761Y-17090D01*
X18638Y-17089D01*
X18524Y-17137D01*
X18490Y-17171D01*
X18490Y-11043D01*
X18370Y-10753D01*
X18148Y-10530D01*
X17857Y-10410D01*
X17543Y-10409D01*
X17253Y-10529D01*
X17030Y-10751D01*
X16910Y-11042D01*
X16909Y-11356D01*
X17029Y-11646D01*
X17251Y-11869D01*
X17542Y-11989D01*
X17856Y-11990D01*
X18146Y-11870D01*
X18369Y-11648D01*
X18489Y-11357D01*
X18490Y-11043D01*
X18490Y-17171D01*
X18437Y-17224D01*
X18390Y-17338D01*
X18389Y-17461D01*
X18437Y-17575D01*
X18524Y-17662D01*
X18638Y-17709D01*
X18727Y-17710D01*
X20158Y-19141D01*
X20158Y-19141D01*
X20201Y-19170D01*
X20223Y-19184D01*
X20223Y-19184D01*
X20299Y-19199D01*
X20300Y-19200D01*
X39017Y-19200D01*
X40000Y-20182D01*
X40000Y-23000D01*
X40000Y-23767D01*
X39491Y-23258D01*
X39426Y-23215D01*
X39350Y-23200D01*
X38900Y-23200D01*
X38210Y-23200D01*
X38210Y-20638D01*
X38162Y-20524D01*
X38075Y-20437D01*
X37961Y-20390D01*
X37838Y-20389D01*
X37724Y-20437D01*
X37637Y-20524D01*
X37590Y-20638D01*
X37589Y-20761D01*
X37637Y-20875D01*
X37724Y-20962D01*
X37838Y-21009D01*
X37961Y-21010D01*
X38075Y-20962D01*
X38162Y-20875D01*
X38209Y-20761D01*
X38210Y-20638D01*
X38210Y-23200D01*
X36760Y-23200D01*
X36760Y-22432D01*
X36712Y-22318D01*
X36625Y-22231D01*
X36511Y-22183D01*
X36388Y-22183D01*
X36274Y-22230D01*
X36187Y-22317D01*
X36140Y-22431D01*
X36139Y-22555D01*
X36187Y-22669D01*
X36274Y-22756D01*
X36388Y-22803D01*
X36511Y-22803D01*
X36625Y-22756D01*
X36712Y-22669D01*
X36759Y-22555D01*
X36760Y-22432D01*
X36760Y-23200D01*
X35010Y-23200D01*
X35010Y-20638D01*
X34962Y-20524D01*
X34875Y-20437D01*
X34761Y-20390D01*
X34638Y-20389D01*
X34524Y-20437D01*
X34437Y-20524D01*
X34390Y-20638D01*
X34389Y-20761D01*
X34437Y-20875D01*
X34524Y-20962D01*
X34638Y-21009D01*
X34761Y-21010D01*
X34875Y-20962D01*
X34962Y-20875D01*
X35009Y-20761D01*
X35010Y-20638D01*
X35010Y-23200D01*
X34300Y-23200D01*
X34236Y-23212D01*
X34223Y-23215D01*
X34158Y-23258D01*
X33658Y-23758D01*
X33615Y-23823D01*
X33600Y-23900D01*
X33600Y-24414D01*
X33562Y-24324D01*
X33560Y-24321D01*
X33560Y-22432D01*
X33512Y-22318D01*
X33425Y-22231D01*
X33311Y-22183D01*
X33188Y-22183D01*
X33074Y-22230D01*
X32987Y-22317D01*
X32940Y-22431D01*
X32939Y-22555D01*
X32987Y-22669D01*
X33074Y-22756D01*
X33188Y-22803D01*
X33311Y-22803D01*
X33425Y-22756D01*
X33512Y-22669D01*
X33559Y-22555D01*
X33560Y-22432D01*
X33560Y-24321D01*
X33475Y-24237D01*
X33361Y-24190D01*
X33238Y-24189D01*
X33124Y-24237D01*
X33037Y-24324D01*
X32990Y-24438D01*
X32989Y-24561D01*
X33037Y-24675D01*
X33100Y-24738D01*
X33100Y-25000D01*
X33115Y-25076D01*
X33158Y-25141D01*
X33558Y-25541D01*
X33558Y-25541D01*
X33601Y-25570D01*
X33623Y-25584D01*
X33623Y-25584D01*
X33652Y-25590D01*
X33652Y-25590D01*
X33661Y-25600D01*
X32482Y-25600D01*
X31810Y-24927D01*
X31810Y-20638D01*
X31762Y-20524D01*
X31675Y-20437D01*
X31561Y-20390D01*
X31438Y-20389D01*
X31324Y-20437D01*
X31237Y-20524D01*
X31190Y-20638D01*
X31189Y-20761D01*
X31237Y-20875D01*
X31324Y-20962D01*
X31438Y-21009D01*
X31561Y-21010D01*
X31675Y-20962D01*
X31762Y-20875D01*
X31809Y-20761D01*
X31810Y-20638D01*
X31810Y-24927D01*
X31409Y-24527D01*
X31410Y-24438D01*
X31362Y-24324D01*
X31275Y-24237D01*
X31161Y-24190D01*
X31038Y-24189D01*
X30924Y-24237D01*
X30837Y-24324D01*
X30790Y-24438D01*
X30790Y-24451D01*
X30775Y-24437D01*
X30661Y-24390D01*
X30538Y-24389D01*
X30424Y-24437D01*
X30410Y-24451D01*
X30410Y-24438D01*
X30362Y-24324D01*
X30360Y-24321D01*
X30360Y-22432D01*
X30312Y-22318D01*
X30225Y-22231D01*
X30111Y-22183D01*
X29988Y-22183D01*
X29874Y-22230D01*
X29787Y-22317D01*
X29740Y-22431D01*
X29739Y-22555D01*
X29787Y-22669D01*
X29874Y-22756D01*
X29988Y-22803D01*
X30111Y-22803D01*
X30225Y-22756D01*
X30312Y-22669D01*
X30359Y-22555D01*
X30360Y-22432D01*
X30360Y-24321D01*
X30275Y-24237D01*
X30161Y-24190D01*
X30038Y-24189D01*
X29924Y-24237D01*
X29837Y-24324D01*
X29790Y-24438D01*
X29789Y-24561D01*
X29837Y-24675D01*
X29900Y-24738D01*
X29900Y-25400D01*
X29915Y-25476D01*
X29958Y-25541D01*
X30390Y-25972D01*
X30389Y-26061D01*
X30437Y-26175D01*
X30524Y-26262D01*
X30614Y-26300D01*
X29982Y-26300D01*
X28610Y-24927D01*
X28610Y-20638D01*
X28562Y-20524D01*
X28475Y-20437D01*
X28361Y-20390D01*
X28238Y-20389D01*
X28124Y-20437D01*
X28037Y-20524D01*
X27990Y-20638D01*
X27989Y-20761D01*
X28037Y-20875D01*
X28124Y-20962D01*
X28238Y-21009D01*
X28361Y-21010D01*
X28475Y-20962D01*
X28562Y-20875D01*
X28609Y-20761D01*
X28610Y-20638D01*
X28610Y-24927D01*
X28209Y-24527D01*
X28210Y-24438D01*
X28162Y-24324D01*
X28075Y-24237D01*
X27961Y-24190D01*
X27838Y-24189D01*
X27724Y-24237D01*
X27637Y-24324D01*
X27590Y-24438D01*
X27589Y-24501D01*
X27561Y-24490D01*
X27438Y-24489D01*
X27324Y-24537D01*
X27237Y-24624D01*
X27190Y-24738D01*
X27189Y-24861D01*
X27237Y-24975D01*
X27324Y-25062D01*
X27438Y-25109D01*
X27527Y-25110D01*
X29958Y-27541D01*
X29958Y-27541D01*
X30023Y-27584D01*
X30023Y-27584D01*
X30036Y-27587D01*
X30100Y-27600D01*
X29800Y-27600D01*
X28832Y-27600D01*
X28100Y-26867D01*
X28100Y-26585D01*
X28137Y-26675D01*
X28224Y-26762D01*
X28338Y-26809D01*
X28461Y-26810D01*
X28575Y-26762D01*
X28662Y-26675D01*
X28709Y-26561D01*
X28710Y-26438D01*
X28662Y-26324D01*
X28575Y-26237D01*
X28461Y-26190D01*
X28372Y-26189D01*
X27100Y-24917D01*
X27100Y-24738D01*
X27162Y-24675D01*
X27209Y-24561D01*
X27210Y-24438D01*
X27162Y-24324D01*
X27160Y-24321D01*
X27160Y-22432D01*
X27112Y-22318D01*
X27025Y-22231D01*
X26911Y-22183D01*
X26788Y-22183D01*
X26674Y-22230D01*
X26587Y-22317D01*
X26540Y-22431D01*
X26539Y-22555D01*
X26587Y-22669D01*
X26674Y-22756D01*
X26788Y-22803D01*
X26911Y-22803D01*
X27025Y-22756D01*
X27112Y-22669D01*
X27159Y-22555D01*
X27160Y-22432D01*
X27160Y-24321D01*
X27075Y-24237D01*
X26961Y-24190D01*
X26838Y-24189D01*
X26724Y-24237D01*
X26637Y-24324D01*
X26590Y-24438D01*
X26589Y-24561D01*
X26637Y-24675D01*
X26700Y-24738D01*
X26700Y-24967D01*
X26691Y-24958D01*
X26626Y-24915D01*
X26550Y-24900D01*
X25410Y-24900D01*
X25410Y-20638D01*
X25362Y-20524D01*
X25275Y-20437D01*
X25161Y-20390D01*
X25038Y-20389D01*
X24924Y-20437D01*
X24837Y-20524D01*
X24790Y-20638D01*
X24789Y-20761D01*
X24837Y-20875D01*
X24924Y-20962D01*
X25038Y-21009D01*
X25161Y-21010D01*
X25275Y-20962D01*
X25362Y-20875D01*
X25409Y-20761D01*
X25410Y-20638D01*
X25410Y-24900D01*
X25332Y-24900D01*
X24959Y-24527D01*
X24960Y-24438D01*
X24912Y-24324D01*
X24825Y-24237D01*
X24711Y-24190D01*
X24588Y-24189D01*
X24474Y-24237D01*
X24387Y-24324D01*
X24340Y-24438D01*
X24339Y-24551D01*
X24325Y-24537D01*
X24211Y-24490D01*
X24088Y-24489D01*
X23974Y-24537D01*
X23960Y-24551D01*
X23960Y-22432D01*
X23912Y-22318D01*
X23825Y-22231D01*
X23711Y-22183D01*
X23588Y-22183D01*
X23474Y-22230D01*
X23387Y-22317D01*
X23340Y-22431D01*
X23339Y-22555D01*
X23387Y-22669D01*
X23474Y-22756D01*
X23588Y-22803D01*
X23711Y-22803D01*
X23825Y-22756D01*
X23912Y-22669D01*
X23959Y-22555D01*
X23960Y-22432D01*
X23960Y-24551D01*
X23887Y-24624D01*
X23840Y-24738D01*
X23839Y-24861D01*
X23887Y-24975D01*
X23974Y-25062D01*
X24088Y-25109D01*
X24177Y-25110D01*
X24468Y-25401D01*
X24468Y-25401D01*
X24511Y-25430D01*
X24533Y-25444D01*
X24533Y-25444D01*
X24610Y-25460D01*
X24610Y-25460D01*
X26400Y-25460D01*
X27539Y-26599D01*
X27539Y-27239D01*
X27555Y-27316D01*
X27598Y-27381D01*
X28558Y-28341D01*
X28623Y-28384D01*
X28623Y-28384D01*
X28700Y-28400D01*
X28750Y-28400D01*
X29800Y-28400D01*
X36361Y-28400D01*
X36424Y-28462D01*
X36538Y-28509D01*
X36661Y-28510D01*
X36775Y-28462D01*
X36862Y-28375D01*
X36909Y-28261D01*
X36910Y-28138D01*
X36862Y-28024D01*
X36775Y-27937D01*
X36661Y-27890D01*
X36538Y-27889D01*
X36489Y-27910D01*
X36509Y-27861D01*
X36510Y-27738D01*
X36489Y-27689D01*
X36538Y-27709D01*
X36661Y-27710D01*
X36775Y-27662D01*
X36862Y-27575D01*
X36909Y-27461D01*
X36910Y-27338D01*
X36862Y-27224D01*
X36838Y-27200D01*
X36917Y-27200D01*
X38058Y-28341D01*
X38058Y-28341D01*
X38101Y-28370D01*
X38123Y-28384D01*
X38123Y-28384D01*
X38199Y-28399D01*
X38200Y-28400D01*
X40061Y-28400D01*
X40124Y-28462D01*
X40238Y-28509D01*
X40361Y-28510D01*
X40475Y-28462D01*
X40562Y-28375D01*
X40609Y-28261D01*
X40610Y-28138D01*
X40571Y-28045D01*
X40626Y-28034D01*
X40691Y-27991D01*
X41140Y-27542D01*
X41140Y-28377D01*
X41127Y-28390D01*
X41038Y-28389D01*
X40924Y-28437D01*
X40837Y-28524D01*
X40790Y-28638D01*
X40789Y-28761D01*
X40837Y-28875D01*
X40924Y-28962D01*
X41038Y-29009D01*
X41161Y-29010D01*
X41275Y-28962D01*
X41362Y-28875D01*
X41409Y-28761D01*
X41410Y-28672D01*
X41481Y-28601D01*
X41481Y-28601D01*
X41510Y-28558D01*
X41524Y-28536D01*
X41524Y-28536D01*
X41540Y-28459D01*
X41540Y-28459D01*
X41540Y-27469D01*
X41638Y-27509D01*
X41761Y-27510D01*
X41875Y-27462D01*
X41962Y-27375D01*
X42009Y-27261D01*
X42010Y-27138D01*
X41962Y-27024D01*
X41875Y-26937D01*
X41761Y-26890D01*
X41700Y-26889D01*
X41700Y-26800D01*
X41700Y-26494D01*
X41738Y-26509D01*
X41861Y-26510D01*
X41975Y-26462D01*
X42062Y-26375D01*
X42109Y-26261D01*
X42109Y-26210D01*
X42161Y-26210D01*
X42275Y-26162D01*
X42362Y-26075D01*
X42369Y-26060D01*
X46277Y-26060D01*
X47784Y-27567D01*
X47765Y-27613D01*
X47764Y-27786D01*
X47831Y-27946D01*
X47953Y-28068D01*
X48113Y-28134D01*
X48286Y-28135D01*
X48446Y-28068D01*
X48568Y-27946D01*
X48634Y-27786D01*
X48635Y-27613D01*
X48635Y-29320D01*
X48635Y-29320D01*
X48635Y-28943D01*
X48635Y-28393D01*
X48610Y-28334D01*
X48565Y-28289D01*
X48506Y-28265D01*
X48443Y-28264D01*
X47893Y-28264D01*
X47834Y-28289D01*
X47789Y-28334D01*
X47765Y-28393D01*
X47764Y-28456D01*
X47764Y-29006D01*
X47789Y-29065D01*
X47834Y-29110D01*
X47893Y-29134D01*
X47956Y-29135D01*
X48506Y-29135D01*
X48565Y-29110D01*
X48610Y-29065D01*
X48634Y-29006D01*
X48635Y-28943D01*
X48635Y-29320D01*
X46203Y-29320D01*
X46203Y-27398D01*
X46151Y-27274D01*
X46057Y-27179D01*
X45933Y-27128D01*
X45799Y-27127D01*
X45675Y-27179D01*
X45580Y-27273D01*
X45529Y-27397D01*
X45528Y-27531D01*
X45580Y-27655D01*
X45674Y-27750D01*
X45798Y-27801D01*
X45932Y-27802D01*
X46056Y-27750D01*
X46151Y-27656D01*
X46202Y-27532D01*
X46203Y-27398D01*
X46203Y-29320D01*
X45310Y-29320D01*
X45310Y-27338D01*
X45262Y-27224D01*
X45175Y-27137D01*
X45061Y-27090D01*
X44938Y-27089D01*
X44824Y-27137D01*
X44737Y-27224D01*
X44690Y-27338D01*
X44689Y-27461D01*
X44737Y-27575D01*
X44824Y-27662D01*
X44938Y-27709D01*
X45061Y-27710D01*
X45175Y-27662D01*
X45262Y-27575D01*
X45309Y-27461D01*
X45310Y-27338D01*
X45310Y-29320D01*
X44471Y-29320D01*
X44471Y-27398D01*
X44419Y-27274D01*
X44325Y-27179D01*
X44201Y-27128D01*
X44067Y-27127D01*
X43943Y-27179D01*
X43848Y-27273D01*
X43797Y-27397D01*
X43796Y-27531D01*
X43848Y-27655D01*
X43942Y-27750D01*
X44066Y-27801D01*
X44200Y-27802D01*
X44324Y-27750D01*
X44419Y-27656D01*
X44470Y-27532D01*
X44471Y-27398D01*
X44471Y-29320D01*
X42910Y-29320D01*
X42910Y-27538D01*
X42862Y-27424D01*
X42775Y-27337D01*
X42661Y-27290D01*
X42538Y-27289D01*
X42424Y-27337D01*
X42337Y-27424D01*
X42290Y-27538D01*
X42289Y-27661D01*
X42337Y-27775D01*
X42424Y-27862D01*
X42538Y-27909D01*
X42661Y-27910D01*
X42775Y-27862D01*
X42862Y-27775D01*
X42909Y-27661D01*
X42910Y-27538D01*
X42910Y-29320D01*
X27296Y-29320D01*
X27296Y-26743D01*
X27099Y-26266D01*
X26735Y-25901D01*
X26258Y-25703D01*
X25743Y-25703D01*
X25266Y-25900D01*
X24901Y-26264D01*
X24703Y-26741D01*
X24703Y-27256D01*
X24900Y-27733D01*
X25264Y-28098D01*
X25741Y-28296D01*
X26256Y-28296D01*
X26733Y-28099D01*
X27098Y-27735D01*
X27296Y-27258D01*
X27296Y-26743D01*
X27296Y-29320D01*
X21910Y-29320D01*
X21910Y-22938D01*
X21862Y-22824D01*
X21775Y-22737D01*
X21661Y-22690D01*
X21538Y-22689D01*
X21424Y-22737D01*
X21337Y-22824D01*
X21290Y-22938D01*
X21289Y-23061D01*
X21337Y-23175D01*
X21424Y-23262D01*
X21538Y-23309D01*
X21661Y-23310D01*
X21775Y-23262D01*
X21862Y-23175D01*
X21909Y-23061D01*
X21910Y-22938D01*
X21910Y-29320D01*
X20910Y-29320D01*
X20910Y-22538D01*
X20862Y-22424D01*
X20775Y-22337D01*
X20661Y-22290D01*
X20538Y-22289D01*
X20424Y-22337D01*
X20400Y-22361D01*
X20375Y-22337D01*
X20261Y-22290D01*
X20138Y-22289D01*
X20024Y-22337D01*
X19937Y-22424D01*
X19890Y-22538D01*
X19889Y-22661D01*
X19937Y-22775D01*
X20024Y-22862D01*
X20138Y-22909D01*
X20261Y-22910D01*
X20375Y-22862D01*
X20399Y-22838D01*
X20424Y-22862D01*
X20538Y-22909D01*
X20661Y-22910D01*
X20775Y-22862D01*
X20862Y-22775D01*
X20909Y-22661D01*
X20910Y-22538D01*
X20910Y-29320D01*
X20713Y-29320D01*
X20713Y-28082D01*
X20710Y-27991D01*
X20710Y-26318D01*
X20710Y-25618D01*
X20685Y-25559D01*
X20640Y-25514D01*
X20581Y-25490D01*
X20518Y-25489D01*
X19818Y-25489D01*
X19759Y-25514D01*
X19714Y-25559D01*
X19690Y-25618D01*
X19689Y-25681D01*
X19689Y-26381D01*
X19714Y-26440D01*
X19759Y-26485D01*
X19818Y-26509D01*
X19881Y-26510D01*
X20581Y-26510D01*
X20640Y-26485D01*
X20685Y-26440D01*
X20709Y-26381D01*
X20710Y-26318D01*
X20710Y-27991D01*
X20705Y-27879D01*
X20642Y-27727D01*
X20566Y-27690D01*
X20509Y-27746D01*
X20509Y-27633D01*
X20472Y-27557D01*
X20282Y-27486D01*
X20079Y-27494D01*
X19927Y-27557D01*
X19890Y-27633D01*
X20200Y-27943D01*
X20509Y-27633D01*
X20509Y-27746D01*
X20256Y-28000D01*
X20566Y-28309D01*
X20642Y-28272D01*
X20713Y-28082D01*
X20713Y-29320D01*
X20509Y-29320D01*
X20509Y-28366D01*
X20200Y-28056D01*
X20143Y-28113D01*
X20143Y-28000D01*
X19833Y-27690D01*
X19757Y-27727D01*
X19686Y-27917D01*
X19694Y-28120D01*
X19757Y-28272D01*
X19833Y-28309D01*
X20143Y-28000D01*
X20143Y-28113D01*
X19890Y-28366D01*
X19927Y-28442D01*
X20117Y-28513D01*
X20320Y-28505D01*
X20472Y-28442D01*
X20509Y-28366D01*
X20509Y-29320D01*
X19085Y-29320D01*
X19085Y-24223D01*
X19026Y-24082D01*
X18918Y-23973D01*
X18776Y-23915D01*
X18623Y-23914D01*
X18482Y-23973D01*
X18373Y-24081D01*
X18335Y-24174D01*
X18335Y-15713D01*
X18268Y-15553D01*
X18146Y-15431D01*
X17986Y-15365D01*
X17813Y-15364D01*
X17653Y-15431D01*
X17531Y-15553D01*
X17465Y-15713D01*
X17464Y-15886D01*
X17531Y-16046D01*
X17653Y-16168D01*
X17813Y-16234D01*
X17986Y-16235D01*
X18146Y-16168D01*
X18268Y-16046D01*
X18334Y-15886D01*
X18335Y-15713D01*
X18335Y-24174D01*
X18315Y-24223D01*
X18314Y-24376D01*
X18373Y-24517D01*
X18481Y-24626D01*
X18623Y-24684D01*
X18776Y-24685D01*
X18917Y-24626D01*
X19026Y-24518D01*
X19084Y-24376D01*
X19085Y-24223D01*
X19085Y-29320D01*
X17499Y-29320D01*
X17499Y-27260D01*
X17499Y-25819D01*
X17474Y-25760D01*
X17429Y-25715D01*
X17370Y-25691D01*
X17307Y-25690D01*
X16967Y-25690D01*
X16967Y-13783D01*
X16960Y-13578D01*
X16896Y-13425D01*
X16819Y-13386D01*
X16763Y-13443D01*
X16763Y-13330D01*
X16724Y-13253D01*
X16533Y-13182D01*
X16328Y-13189D01*
X16175Y-13253D01*
X16136Y-13330D01*
X16450Y-13643D01*
X16763Y-13330D01*
X16763Y-13443D01*
X16506Y-13700D01*
X16819Y-14013D01*
X16896Y-13974D01*
X16967Y-13783D01*
X16967Y-25690D01*
X16763Y-25690D01*
X16763Y-14069D01*
X16450Y-13756D01*
X16393Y-13813D01*
X16393Y-13700D01*
X16080Y-13386D01*
X16003Y-13425D01*
X15951Y-13565D01*
X15886Y-13409D01*
X15741Y-13264D01*
X15552Y-13185D01*
X15348Y-13185D01*
X15159Y-13263D01*
X15014Y-13408D01*
X14935Y-13597D01*
X14935Y-13801D01*
X15013Y-13990D01*
X15158Y-14135D01*
X15347Y-14214D01*
X15551Y-14214D01*
X15740Y-14136D01*
X15885Y-13991D01*
X15948Y-13841D01*
X16003Y-13974D01*
X16080Y-14013D01*
X16393Y-13700D01*
X16393Y-13813D01*
X16136Y-14069D01*
X16175Y-14146D01*
X16366Y-14217D01*
X16571Y-14210D01*
X16724Y-14146D01*
X16763Y-14069D01*
X16763Y-25690D01*
X16730Y-25691D01*
X16690Y-25731D01*
X16690Y-26500D01*
X17459Y-26500D01*
X17499Y-26460D01*
X17499Y-25819D01*
X17499Y-27260D01*
X17499Y-26620D01*
X17459Y-26580D01*
X16690Y-26580D01*
X16690Y-27349D01*
X16730Y-27389D01*
X17307Y-27389D01*
X17370Y-27388D01*
X17429Y-27364D01*
X17474Y-27319D01*
X17499Y-27260D01*
X17499Y-29320D01*
X16610Y-29320D01*
X16610Y-27349D01*
X16610Y-26580D01*
X16610Y-26500D01*
X16610Y-25731D01*
X16570Y-25691D01*
X16464Y-25690D01*
X16464Y-14598D01*
X16386Y-14409D01*
X16241Y-14264D01*
X16052Y-14185D01*
X15848Y-14185D01*
X15659Y-14263D01*
X15514Y-14408D01*
X15449Y-14563D01*
X15386Y-14409D01*
X15241Y-14264D01*
X15052Y-14185D01*
X14848Y-14185D01*
X14659Y-14263D01*
X14514Y-14408D01*
X14490Y-14466D01*
X14490Y-11043D01*
X14370Y-10753D01*
X14148Y-10530D01*
X13857Y-10410D01*
X13543Y-10409D01*
X13253Y-10529D01*
X13030Y-10751D01*
X12910Y-11042D01*
X12909Y-11356D01*
X13029Y-11646D01*
X13251Y-11869D01*
X13542Y-11989D01*
X13856Y-11990D01*
X14146Y-11870D01*
X14369Y-11648D01*
X14489Y-11357D01*
X14490Y-11043D01*
X14490Y-14466D01*
X14435Y-14597D01*
X14435Y-14801D01*
X14513Y-14990D01*
X14658Y-15135D01*
X14847Y-15214D01*
X15051Y-15214D01*
X15240Y-15136D01*
X15385Y-14991D01*
X15450Y-14836D01*
X15513Y-14990D01*
X15658Y-15135D01*
X15847Y-15214D01*
X16051Y-15214D01*
X16240Y-15136D01*
X16385Y-14991D01*
X16464Y-14802D01*
X16464Y-14598D01*
X16464Y-25690D01*
X16335Y-25690D01*
X16335Y-15713D01*
X16268Y-15553D01*
X16146Y-15431D01*
X15986Y-15365D01*
X15813Y-15364D01*
X15653Y-15431D01*
X15531Y-15553D01*
X15465Y-15713D01*
X15464Y-15886D01*
X15531Y-16046D01*
X15653Y-16168D01*
X15813Y-16234D01*
X15986Y-16235D01*
X16146Y-16168D01*
X16268Y-16046D01*
X16334Y-15886D01*
X16335Y-15713D01*
X16335Y-25690D01*
X16035Y-25690D01*
X16035Y-21633D01*
X15984Y-21510D01*
X15890Y-21416D01*
X15766Y-21365D01*
X15633Y-21364D01*
X15510Y-21415D01*
X15416Y-21509D01*
X15365Y-21633D01*
X15364Y-21766D01*
X15415Y-21889D01*
X15460Y-21933D01*
X15460Y-22100D01*
X14985Y-22575D01*
X14985Y-22323D01*
X14926Y-22182D01*
X14894Y-22150D01*
X14926Y-22118D01*
X14984Y-21976D01*
X14985Y-21823D01*
X14926Y-21682D01*
X14894Y-21650D01*
X14926Y-21618D01*
X14984Y-21476D01*
X14985Y-21323D01*
X14926Y-21182D01*
X14818Y-21073D01*
X14676Y-21015D01*
X14523Y-21014D01*
X14382Y-21073D01*
X14273Y-21181D01*
X14215Y-21323D01*
X14214Y-21476D01*
X14273Y-21617D01*
X14305Y-21649D01*
X14273Y-21681D01*
X14215Y-21823D01*
X14214Y-21976D01*
X14273Y-22117D01*
X14305Y-22149D01*
X14273Y-22181D01*
X14215Y-22323D01*
X14214Y-22476D01*
X14273Y-22617D01*
X14381Y-22726D01*
X14523Y-22784D01*
X14676Y-22785D01*
X14817Y-22726D01*
X14926Y-22618D01*
X14984Y-22476D01*
X14985Y-22323D01*
X14985Y-22575D01*
X14500Y-23060D01*
X13233Y-23060D01*
X13190Y-23016D01*
X13066Y-22965D01*
X12933Y-22964D01*
X12896Y-22980D01*
X12896Y-12743D01*
X12699Y-12266D01*
X12335Y-11901D01*
X11858Y-11703D01*
X11343Y-11703D01*
X10866Y-11900D01*
X10501Y-12264D01*
X10303Y-12741D01*
X10303Y-13256D01*
X10500Y-13733D01*
X10864Y-14098D01*
X11341Y-14296D01*
X11856Y-14296D01*
X12333Y-14099D01*
X12698Y-13735D01*
X12896Y-13258D01*
X12896Y-12743D01*
X12896Y-22980D01*
X12810Y-23015D01*
X12716Y-23109D01*
X12665Y-23233D01*
X12664Y-23366D01*
X12715Y-23489D01*
X12809Y-23583D01*
X12933Y-23634D01*
X13066Y-23635D01*
X13189Y-23584D01*
X13233Y-23540D01*
X14600Y-23540D01*
X14691Y-23521D01*
X14769Y-23469D01*
X15869Y-22369D01*
X15869Y-22369D01*
X15921Y-22291D01*
X15939Y-22200D01*
X15940Y-22200D01*
X15940Y-21933D01*
X15983Y-21890D01*
X16034Y-21766D01*
X16035Y-21633D01*
X16035Y-25690D01*
X15992Y-25690D01*
X15929Y-25691D01*
X15870Y-25715D01*
X15825Y-25760D01*
X15800Y-25819D01*
X15801Y-26460D01*
X15841Y-26500D01*
X16610Y-26500D01*
X16610Y-26580D01*
X15841Y-26580D01*
X15801Y-26620D01*
X15800Y-27260D01*
X15825Y-27319D01*
X15870Y-27364D01*
X15929Y-27388D01*
X15992Y-27389D01*
X16570Y-27389D01*
X16610Y-27349D01*
X16610Y-29320D01*
X15649Y-29320D01*
X15649Y-28441D01*
X15649Y-27000D01*
X15649Y-26016D01*
X15649Y-24638D01*
X15624Y-24579D01*
X15579Y-24534D01*
X15520Y-24510D01*
X15457Y-24509D01*
X14079Y-24509D01*
X14020Y-24534D01*
X13975Y-24579D01*
X13951Y-24638D01*
X13950Y-24701D01*
X13950Y-26079D01*
X13975Y-26138D01*
X14020Y-26183D01*
X14079Y-26207D01*
X14142Y-26208D01*
X15520Y-26208D01*
X15579Y-26183D01*
X15624Y-26138D01*
X15648Y-26079D01*
X15649Y-26016D01*
X15649Y-27000D01*
X15624Y-26941D01*
X15579Y-26896D01*
X15520Y-26872D01*
X15457Y-26871D01*
X14880Y-26872D01*
X14840Y-26912D01*
X14840Y-27681D01*
X15609Y-27681D01*
X15649Y-27641D01*
X15649Y-27000D01*
X15649Y-28441D01*
X15649Y-27801D01*
X15609Y-27761D01*
X14840Y-27761D01*
X14840Y-28530D01*
X14880Y-28570D01*
X15457Y-28570D01*
X15520Y-28569D01*
X15579Y-28545D01*
X15624Y-28500D01*
X15649Y-28441D01*
X15649Y-29320D01*
X14760Y-29320D01*
X14760Y-28530D01*
X14760Y-27761D01*
X14760Y-27681D01*
X14760Y-26912D01*
X14720Y-26872D01*
X14142Y-26871D01*
X14079Y-26872D01*
X14020Y-26896D01*
X13975Y-26941D01*
X13950Y-27000D01*
X13951Y-27641D01*
X13991Y-27681D01*
X14760Y-27681D01*
X14760Y-27761D01*
X13991Y-27761D01*
X13951Y-27801D01*
X13950Y-28441D01*
X13975Y-28500D01*
X14020Y-28545D01*
X14079Y-28569D01*
X14142Y-28570D01*
X14720Y-28570D01*
X14760Y-28530D01*
X14760Y-29320D01*
X12310Y-29320D01*
X12310Y-28219D01*
X12310Y-26219D01*
X12310Y-22219D01*
X12310Y-20219D01*
X12171Y-19885D01*
X11916Y-19628D01*
X11581Y-19490D01*
X11219Y-19489D01*
X10885Y-19628D01*
X10628Y-19883D01*
X10490Y-20218D01*
X10489Y-20580D01*
X10628Y-20914D01*
X10883Y-21171D01*
X11218Y-21309D01*
X11580Y-21310D01*
X11914Y-21171D01*
X12171Y-20916D01*
X12309Y-20581D01*
X12310Y-20219D01*
X12310Y-22219D01*
X12171Y-21885D01*
X11916Y-21628D01*
X11581Y-21490D01*
X11219Y-21489D01*
X10885Y-21628D01*
X10628Y-21883D01*
X10490Y-22218D01*
X10489Y-22580D01*
X10628Y-22914D01*
X10883Y-23171D01*
X11218Y-23309D01*
X11580Y-23310D01*
X11914Y-23171D01*
X12171Y-22916D01*
X12309Y-22581D01*
X12310Y-22219D01*
X12310Y-26219D01*
X12171Y-25885D01*
X11916Y-25628D01*
X11581Y-25490D01*
X11219Y-25489D01*
X10885Y-25628D01*
X10628Y-25883D01*
X10490Y-26218D01*
X10489Y-26580D01*
X10628Y-26914D01*
X10883Y-27171D01*
X11218Y-27309D01*
X11580Y-27310D01*
X11914Y-27171D01*
X12171Y-26916D01*
X12309Y-26581D01*
X12310Y-26219D01*
X12310Y-28219D01*
X12171Y-27885D01*
X11916Y-27628D01*
X11581Y-27490D01*
X11219Y-27489D01*
X10885Y-27628D01*
X10628Y-27883D01*
X10490Y-28218D01*
X10489Y-28580D01*
X10628Y-28914D01*
X10883Y-29171D01*
X11218Y-29309D01*
X11580Y-29310D01*
X11914Y-29171D01*
X12171Y-28916D01*
X12309Y-28581D01*
X12310Y-28219D01*
X12310Y-29320D01*
X10179Y-29320D01*
X10179Y-10179D01*
X49070Y-10179D01*
X49070Y-12679D01*
X48899Y-12266D01*
X48535Y-11901D01*
X48058Y-11703D01*
X47543Y-11703D01*
X47066Y-11900D01*
X46701Y-12264D01*
X46503Y-12741D01*
X46503Y-13256D01*
X46700Y-13733D01*
X47064Y-14098D01*
X47541Y-14296D01*
X48056Y-14296D01*
X48533Y-14099D01*
X48898Y-13735D01*
X49070Y-13320D01*
X49070Y-21779D01*
X48899Y-21366D01*
X48810Y-21276D01*
X48810Y-18538D01*
X48762Y-18424D01*
X48675Y-18337D01*
X48561Y-18290D01*
X48438Y-18289D01*
X48324Y-18337D01*
X48237Y-18424D01*
X48190Y-18538D01*
X48189Y-18661D01*
X48237Y-18775D01*
X48324Y-18862D01*
X48438Y-18909D01*
X48561Y-18910D01*
X48675Y-18862D01*
X48762Y-18775D01*
X48809Y-18661D01*
X48810Y-18538D01*
X48810Y-21276D01*
X48535Y-21001D01*
X48058Y-20803D01*
X47543Y-20803D01*
X47066Y-21000D01*
X46701Y-21364D01*
X46503Y-21841D01*
X46503Y-22356D01*
X46700Y-22833D01*
X47064Y-23198D01*
X47541Y-23396D01*
X48056Y-23396D01*
X48533Y-23199D01*
X48898Y-22835D01*
X49070Y-22420D01*
X49070Y-29320D01*
M02*
