%FSLAX45Y45*%
G04 Gerber Fmt 4.5, Leading zero omitted, Abs format (unit mm)*
G04 Created by KiCad (PCBNEW 4.0.7-e2-6376~58~ubuntu16.04.1) date Sun Apr  1 14:41:14 2018*
%MOMM*%
%LPD*%
G01*
G04 APERTURE LIST*
%ADD10C,0.127000*%
%ADD11C,0.100000*%
%ADD12C,0.200000*%
%ADD13C,0.300000*%
G04 APERTURE END LIST*
D10*
D11*
X2413000Y-12446000D02*
X2413000Y-6731000D01*
X12954000Y-12446000D02*
X2413000Y-12446000D01*
X12954000Y-6731000D02*
X12954000Y-12446000D01*
X2413000Y-6731000D02*
X12954000Y-6731000D01*
D12*
X11274416Y-11815690D02*
X11384416Y-11925690D01*
X11384416Y-11815690D02*
X11274416Y-11925690D01*
X11714344Y-11815690D02*
X11824344Y-11925690D01*
X11824344Y-11815690D02*
X11714344Y-11925690D01*
X3817600Y-6959600D02*
G75*
G03X3817600Y-6959600I-160000J0D01*
G01*
X4833600Y-6959600D02*
G75*
G03X4833600Y-6959600I-160000J0D01*
G01*
X5240000Y-6959600D02*
G75*
G03X5240000Y-6959600I-160000J0D01*
G01*
X6256000Y-6959600D02*
G75*
G03X6256000Y-6959600I-160000J0D01*
G01*
X6662400Y-6959600D02*
G75*
G03X6662400Y-6959600I-160000J0D01*
G01*
X7678400Y-6959600D02*
G75*
G03X7678400Y-6959600I-160000J0D01*
G01*
X8084800Y-6959600D02*
G75*
G03X8084800Y-6959600I-160000J0D01*
G01*
X9100800Y-6959600D02*
G75*
G03X9100800Y-6959600I-160000J0D01*
G01*
X9507200Y-6959600D02*
G75*
G03X9507200Y-6959600I-160000J0D01*
G01*
X10523200Y-6959600D02*
G75*
G03X10523200Y-6959600I-160000J0D01*
G01*
X10929600Y-6959600D02*
G75*
G03X10929600Y-6959600I-160000J0D01*
G01*
X11945600Y-6959600D02*
G75*
G03X11945600Y-6959600I-160000J0D01*
G01*
D13*
X2679429Y-12916714D02*
X2679429Y-12616714D01*
X2750857Y-12616714D01*
X2793714Y-12631000D01*
X2822286Y-12659571D01*
X2836571Y-12688143D01*
X2850857Y-12745286D01*
X2850857Y-12788143D01*
X2836571Y-12845286D01*
X2822286Y-12873857D01*
X2793714Y-12902429D01*
X2750857Y-12916714D01*
X2679429Y-12916714D01*
X2979428Y-12916714D02*
X2979428Y-12716714D01*
X2979428Y-12773857D02*
X2993714Y-12745286D01*
X3008000Y-12731000D01*
X3036571Y-12716714D01*
X3065143Y-12716714D01*
X3165143Y-12916714D02*
X3165143Y-12716714D01*
X3165143Y-12616714D02*
X3150857Y-12631000D01*
X3165143Y-12645286D01*
X3179428Y-12631000D01*
X3165143Y-12616714D01*
X3165143Y-12645286D01*
X3350857Y-12916714D02*
X3322286Y-12902429D01*
X3308000Y-12873857D01*
X3308000Y-12616714D01*
X3508000Y-12916714D02*
X3479428Y-12902429D01*
X3465143Y-12873857D01*
X3465143Y-12616714D01*
X3850857Y-12916714D02*
X3850857Y-12616714D01*
X3950857Y-12831000D01*
X4050857Y-12616714D01*
X4050857Y-12916714D01*
X4322286Y-12916714D02*
X4322286Y-12759571D01*
X4308000Y-12731000D01*
X4279429Y-12716714D01*
X4222286Y-12716714D01*
X4193714Y-12731000D01*
X4322286Y-12902429D02*
X4293714Y-12916714D01*
X4222286Y-12916714D01*
X4193714Y-12902429D01*
X4179428Y-12873857D01*
X4179428Y-12845286D01*
X4193714Y-12816714D01*
X4222286Y-12802429D01*
X4293714Y-12802429D01*
X4322286Y-12788143D01*
X4465143Y-12716714D02*
X4465143Y-13016714D01*
X4465143Y-12731000D02*
X4493714Y-12716714D01*
X4550857Y-12716714D01*
X4579429Y-12731000D01*
X4593714Y-12745286D01*
X4608000Y-12773857D01*
X4608000Y-12859571D01*
X4593714Y-12888143D01*
X4579429Y-12902429D01*
X4550857Y-12916714D01*
X4493714Y-12916714D01*
X4465143Y-12902429D01*
X4736571Y-12888143D02*
X4750857Y-12902429D01*
X4736571Y-12916714D01*
X4722286Y-12902429D01*
X4736571Y-12888143D01*
X4736571Y-12916714D01*
X4736571Y-12731000D02*
X4750857Y-12745286D01*
X4736571Y-12759571D01*
X4722286Y-12745286D01*
X4736571Y-12731000D01*
X4736571Y-12759571D01*
X2298000Y-13356000D02*
X2408000Y-13466000D01*
X2408000Y-13356000D02*
X2298000Y-13466000D01*
X2836571Y-13546714D02*
X2665143Y-13546714D01*
X2750857Y-13546714D02*
X2750857Y-13246714D01*
X2722286Y-13289571D01*
X2693714Y-13318143D01*
X2665143Y-13332429D01*
X2965143Y-13518143D02*
X2979428Y-13532429D01*
X2965143Y-13546714D01*
X2950857Y-13532429D01*
X2965143Y-13518143D01*
X2965143Y-13546714D01*
X3265143Y-13546714D02*
X3093714Y-13546714D01*
X3179428Y-13546714D02*
X3179428Y-13246714D01*
X3150857Y-13289571D01*
X3122286Y-13318143D01*
X3093714Y-13332429D01*
X3450857Y-13246714D02*
X3479428Y-13246714D01*
X3508000Y-13261000D01*
X3522286Y-13275286D01*
X3536571Y-13303857D01*
X3550857Y-13361000D01*
X3550857Y-13432429D01*
X3536571Y-13489571D01*
X3522286Y-13518143D01*
X3508000Y-13532429D01*
X3479428Y-13546714D01*
X3450857Y-13546714D01*
X3422286Y-13532429D01*
X3408000Y-13518143D01*
X3393714Y-13489571D01*
X3379428Y-13432429D01*
X3379428Y-13361000D01*
X3393714Y-13303857D01*
X3408000Y-13275286D01*
X3422286Y-13261000D01*
X3450857Y-13246714D01*
X3679428Y-13546714D02*
X3679428Y-13346714D01*
X3679428Y-13375286D02*
X3693714Y-13361000D01*
X3722286Y-13346714D01*
X3765143Y-13346714D01*
X3793714Y-13361000D01*
X3808000Y-13389571D01*
X3808000Y-13546714D01*
X3808000Y-13389571D02*
X3822286Y-13361000D01*
X3850857Y-13346714D01*
X3893714Y-13346714D01*
X3922286Y-13361000D01*
X3936571Y-13389571D01*
X3936571Y-13546714D01*
X4079428Y-13546714D02*
X4079428Y-13346714D01*
X4079428Y-13375286D02*
X4093714Y-13361000D01*
X4122286Y-13346714D01*
X4165143Y-13346714D01*
X4193714Y-13361000D01*
X4208000Y-13389571D01*
X4208000Y-13546714D01*
X4208000Y-13389571D02*
X4222286Y-13361000D01*
X4250857Y-13346714D01*
X4293714Y-13346714D01*
X4322286Y-13361000D01*
X4336571Y-13389571D01*
X4336571Y-13546714D01*
X4922286Y-13232429D02*
X4665143Y-13618143D01*
X5308000Y-13246714D02*
X5336571Y-13246714D01*
X5365143Y-13261000D01*
X5379428Y-13275286D01*
X5393714Y-13303857D01*
X5408000Y-13361000D01*
X5408000Y-13432429D01*
X5393714Y-13489571D01*
X5379428Y-13518143D01*
X5365143Y-13532429D01*
X5336571Y-13546714D01*
X5308000Y-13546714D01*
X5279428Y-13532429D01*
X5265143Y-13518143D01*
X5250857Y-13489571D01*
X5236571Y-13432429D01*
X5236571Y-13361000D01*
X5250857Y-13303857D01*
X5265143Y-13275286D01*
X5279428Y-13261000D01*
X5308000Y-13246714D01*
X5536571Y-13518143D02*
X5550857Y-13532429D01*
X5536571Y-13546714D01*
X5522286Y-13532429D01*
X5536571Y-13518143D01*
X5536571Y-13546714D01*
X5736571Y-13246714D02*
X5765143Y-13246714D01*
X5793714Y-13261000D01*
X5808000Y-13275286D01*
X5822285Y-13303857D01*
X5836571Y-13361000D01*
X5836571Y-13432429D01*
X5822285Y-13489571D01*
X5808000Y-13518143D01*
X5793714Y-13532429D01*
X5765143Y-13546714D01*
X5736571Y-13546714D01*
X5708000Y-13532429D01*
X5693714Y-13518143D01*
X5679428Y-13489571D01*
X5665143Y-13432429D01*
X5665143Y-13361000D01*
X5679428Y-13303857D01*
X5693714Y-13275286D01*
X5708000Y-13261000D01*
X5736571Y-13246714D01*
X6093714Y-13346714D02*
X6093714Y-13546714D01*
X6022285Y-13232429D02*
X5950857Y-13446714D01*
X6136571Y-13446714D01*
X6222285Y-13246714D02*
X6408000Y-13246714D01*
X6308000Y-13361000D01*
X6350857Y-13361000D01*
X6379428Y-13375286D01*
X6393714Y-13389571D01*
X6408000Y-13418143D01*
X6408000Y-13489571D01*
X6393714Y-13518143D01*
X6379428Y-13532429D01*
X6350857Y-13546714D01*
X6265143Y-13546714D01*
X6236571Y-13532429D01*
X6222285Y-13518143D01*
X6522286Y-13246714D02*
X6522286Y-13303857D01*
X6636571Y-13246714D02*
X6636571Y-13303857D01*
X7079428Y-13661000D02*
X7065143Y-13646714D01*
X7036571Y-13603857D01*
X7022285Y-13575286D01*
X7008000Y-13532429D01*
X6993714Y-13461000D01*
X6993714Y-13403857D01*
X7008000Y-13332429D01*
X7022285Y-13289571D01*
X7036571Y-13261000D01*
X7065143Y-13218143D01*
X7079428Y-13203857D01*
X7179428Y-13275286D02*
X7193714Y-13261000D01*
X7222285Y-13246714D01*
X7293714Y-13246714D01*
X7322285Y-13261000D01*
X7336571Y-13275286D01*
X7350857Y-13303857D01*
X7350857Y-13332429D01*
X7336571Y-13375286D01*
X7165143Y-13546714D01*
X7350857Y-13546714D01*
X7708000Y-13546714D02*
X7708000Y-13246714D01*
X7836571Y-13546714D02*
X7836571Y-13389571D01*
X7822285Y-13361000D01*
X7793714Y-13346714D01*
X7750857Y-13346714D01*
X7722285Y-13361000D01*
X7708000Y-13375286D01*
X8022285Y-13546714D02*
X7993714Y-13532429D01*
X7979428Y-13518143D01*
X7965143Y-13489571D01*
X7965143Y-13403857D01*
X7979428Y-13375286D01*
X7993714Y-13361000D01*
X8022285Y-13346714D01*
X8065143Y-13346714D01*
X8093714Y-13361000D01*
X8108000Y-13375286D01*
X8122285Y-13403857D01*
X8122285Y-13489571D01*
X8108000Y-13518143D01*
X8093714Y-13532429D01*
X8065143Y-13546714D01*
X8022285Y-13546714D01*
X8293714Y-13546714D02*
X8265143Y-13532429D01*
X8250857Y-13503857D01*
X8250857Y-13246714D01*
X8522286Y-13532429D02*
X8493714Y-13546714D01*
X8436571Y-13546714D01*
X8408000Y-13532429D01*
X8393714Y-13503857D01*
X8393714Y-13389571D01*
X8408000Y-13361000D01*
X8436571Y-13346714D01*
X8493714Y-13346714D01*
X8522286Y-13361000D01*
X8536571Y-13389571D01*
X8536571Y-13418143D01*
X8393714Y-13446714D01*
X8650857Y-13532429D02*
X8679429Y-13546714D01*
X8736571Y-13546714D01*
X8765143Y-13532429D01*
X8779429Y-13503857D01*
X8779429Y-13489571D01*
X8765143Y-13461000D01*
X8736571Y-13446714D01*
X8693714Y-13446714D01*
X8665143Y-13432429D01*
X8650857Y-13403857D01*
X8650857Y-13389571D01*
X8665143Y-13361000D01*
X8693714Y-13346714D01*
X8736571Y-13346714D01*
X8765143Y-13361000D01*
X8879428Y-13661000D02*
X8893714Y-13646714D01*
X8922286Y-13603857D01*
X8936571Y-13575286D01*
X8950857Y-13532429D01*
X8965143Y-13461000D01*
X8965143Y-13403857D01*
X8950857Y-13332429D01*
X8936571Y-13289571D01*
X8922286Y-13261000D01*
X8893714Y-13218143D01*
X8879428Y-13203857D01*
X9422286Y-13661000D02*
X9408000Y-13646714D01*
X9379428Y-13603857D01*
X9365143Y-13575286D01*
X9350857Y-13532429D01*
X9336571Y-13461000D01*
X9336571Y-13403857D01*
X9350857Y-13332429D01*
X9365143Y-13289571D01*
X9379428Y-13261000D01*
X9408000Y-13218143D01*
X9422286Y-13203857D01*
X9536571Y-13346714D02*
X9536571Y-13546714D01*
X9536571Y-13375286D02*
X9550857Y-13361000D01*
X9579428Y-13346714D01*
X9622286Y-13346714D01*
X9650857Y-13361000D01*
X9665143Y-13389571D01*
X9665143Y-13546714D01*
X9850857Y-13546714D02*
X9822286Y-13532429D01*
X9808000Y-13518143D01*
X9793714Y-13489571D01*
X9793714Y-13403857D01*
X9808000Y-13375286D01*
X9822286Y-13361000D01*
X9850857Y-13346714D01*
X9893714Y-13346714D01*
X9922286Y-13361000D01*
X9936571Y-13375286D01*
X9950857Y-13403857D01*
X9950857Y-13489571D01*
X9936571Y-13518143D01*
X9922286Y-13532429D01*
X9893714Y-13546714D01*
X9850857Y-13546714D01*
X10036571Y-13346714D02*
X10150857Y-13346714D01*
X10079429Y-13246714D02*
X10079429Y-13503857D01*
X10093714Y-13532429D01*
X10122286Y-13546714D01*
X10150857Y-13546714D01*
X10479429Y-13346714D02*
X10479429Y-13646714D01*
X10479429Y-13361000D02*
X10508000Y-13346714D01*
X10565143Y-13346714D01*
X10593714Y-13361000D01*
X10608000Y-13375286D01*
X10622286Y-13403857D01*
X10622286Y-13489571D01*
X10608000Y-13518143D01*
X10593714Y-13532429D01*
X10565143Y-13546714D01*
X10508000Y-13546714D01*
X10479429Y-13532429D01*
X10793714Y-13546714D02*
X10765143Y-13532429D01*
X10750857Y-13503857D01*
X10750857Y-13246714D01*
X11036571Y-13546714D02*
X11036571Y-13389571D01*
X11022286Y-13361000D01*
X10993714Y-13346714D01*
X10936571Y-13346714D01*
X10908000Y-13361000D01*
X11036571Y-13532429D02*
X11008000Y-13546714D01*
X10936571Y-13546714D01*
X10908000Y-13532429D01*
X10893714Y-13503857D01*
X10893714Y-13475286D01*
X10908000Y-13446714D01*
X10936571Y-13432429D01*
X11008000Y-13432429D01*
X11036571Y-13418143D01*
X11136571Y-13346714D02*
X11250857Y-13346714D01*
X11179429Y-13246714D02*
X11179429Y-13503857D01*
X11193714Y-13532429D01*
X11222286Y-13546714D01*
X11250857Y-13546714D01*
X11465143Y-13532429D02*
X11436571Y-13546714D01*
X11379429Y-13546714D01*
X11350857Y-13532429D01*
X11336571Y-13503857D01*
X11336571Y-13389571D01*
X11350857Y-13361000D01*
X11379429Y-13346714D01*
X11436571Y-13346714D01*
X11465143Y-13361000D01*
X11479429Y-13389571D01*
X11479429Y-13418143D01*
X11336571Y-13446714D01*
X11736571Y-13546714D02*
X11736571Y-13246714D01*
X11736571Y-13532429D02*
X11708000Y-13546714D01*
X11650857Y-13546714D01*
X11622286Y-13532429D01*
X11608000Y-13518143D01*
X11593714Y-13489571D01*
X11593714Y-13403857D01*
X11608000Y-13375286D01*
X11622286Y-13361000D01*
X11650857Y-13346714D01*
X11708000Y-13346714D01*
X11736571Y-13361000D01*
X11850857Y-13661000D02*
X11865143Y-13646714D01*
X11893714Y-13603857D01*
X11908000Y-13575286D01*
X11922286Y-13532429D01*
X11936571Y-13461000D01*
X11936571Y-13403857D01*
X11922286Y-13332429D01*
X11908000Y-13289571D01*
X11893714Y-13261000D01*
X11865143Y-13218143D01*
X11850857Y-13203857D01*
X2408000Y-13807000D02*
G75*
G03X2408000Y-13807000I-160000J0D01*
G01*
X2650857Y-13642714D02*
X2836571Y-13642714D01*
X2736571Y-13757000D01*
X2779429Y-13757000D01*
X2808000Y-13771286D01*
X2822286Y-13785571D01*
X2836571Y-13814143D01*
X2836571Y-13885571D01*
X2822286Y-13914143D01*
X2808000Y-13928429D01*
X2779429Y-13942714D01*
X2693714Y-13942714D01*
X2665143Y-13928429D01*
X2650857Y-13914143D01*
X2965143Y-13914143D02*
X2979428Y-13928429D01*
X2965143Y-13942714D01*
X2950857Y-13928429D01*
X2965143Y-13914143D01*
X2965143Y-13942714D01*
X3093714Y-13671286D02*
X3108000Y-13657000D01*
X3136571Y-13642714D01*
X3208000Y-13642714D01*
X3236571Y-13657000D01*
X3250857Y-13671286D01*
X3265143Y-13699857D01*
X3265143Y-13728429D01*
X3250857Y-13771286D01*
X3079428Y-13942714D01*
X3265143Y-13942714D01*
X3450857Y-13642714D02*
X3479428Y-13642714D01*
X3508000Y-13657000D01*
X3522286Y-13671286D01*
X3536571Y-13699857D01*
X3550857Y-13757000D01*
X3550857Y-13828429D01*
X3536571Y-13885571D01*
X3522286Y-13914143D01*
X3508000Y-13928429D01*
X3479428Y-13942714D01*
X3450857Y-13942714D01*
X3422286Y-13928429D01*
X3408000Y-13914143D01*
X3393714Y-13885571D01*
X3379428Y-13828429D01*
X3379428Y-13757000D01*
X3393714Y-13699857D01*
X3408000Y-13671286D01*
X3422286Y-13657000D01*
X3450857Y-13642714D01*
X3679428Y-13942714D02*
X3679428Y-13742714D01*
X3679428Y-13771286D02*
X3693714Y-13757000D01*
X3722286Y-13742714D01*
X3765143Y-13742714D01*
X3793714Y-13757000D01*
X3808000Y-13785571D01*
X3808000Y-13942714D01*
X3808000Y-13785571D02*
X3822286Y-13757000D01*
X3850857Y-13742714D01*
X3893714Y-13742714D01*
X3922286Y-13757000D01*
X3936571Y-13785571D01*
X3936571Y-13942714D01*
X4079428Y-13942714D02*
X4079428Y-13742714D01*
X4079428Y-13771286D02*
X4093714Y-13757000D01*
X4122286Y-13742714D01*
X4165143Y-13742714D01*
X4193714Y-13757000D01*
X4208000Y-13785571D01*
X4208000Y-13942714D01*
X4208000Y-13785571D02*
X4222286Y-13757000D01*
X4250857Y-13742714D01*
X4293714Y-13742714D01*
X4322286Y-13757000D01*
X4336571Y-13785571D01*
X4336571Y-13942714D01*
X4922286Y-13628429D02*
X4665143Y-14014143D01*
X5308000Y-13642714D02*
X5336571Y-13642714D01*
X5365143Y-13657000D01*
X5379428Y-13671286D01*
X5393714Y-13699857D01*
X5408000Y-13757000D01*
X5408000Y-13828429D01*
X5393714Y-13885571D01*
X5379428Y-13914143D01*
X5365143Y-13928429D01*
X5336571Y-13942714D01*
X5308000Y-13942714D01*
X5279428Y-13928429D01*
X5265143Y-13914143D01*
X5250857Y-13885571D01*
X5236571Y-13828429D01*
X5236571Y-13757000D01*
X5250857Y-13699857D01*
X5265143Y-13671286D01*
X5279428Y-13657000D01*
X5308000Y-13642714D01*
X5536571Y-13914143D02*
X5550857Y-13928429D01*
X5536571Y-13942714D01*
X5522286Y-13928429D01*
X5536571Y-13914143D01*
X5536571Y-13942714D01*
X5836571Y-13942714D02*
X5665143Y-13942714D01*
X5750857Y-13942714D02*
X5750857Y-13642714D01*
X5722285Y-13685571D01*
X5693714Y-13714143D01*
X5665143Y-13728429D01*
X5950857Y-13671286D02*
X5965143Y-13657000D01*
X5993714Y-13642714D01*
X6065143Y-13642714D01*
X6093714Y-13657000D01*
X6108000Y-13671286D01*
X6122285Y-13699857D01*
X6122285Y-13728429D01*
X6108000Y-13771286D01*
X5936571Y-13942714D01*
X6122285Y-13942714D01*
X6379428Y-13642714D02*
X6322285Y-13642714D01*
X6293714Y-13657000D01*
X6279428Y-13671286D01*
X6250857Y-13714143D01*
X6236571Y-13771286D01*
X6236571Y-13885571D01*
X6250857Y-13914143D01*
X6265143Y-13928429D01*
X6293714Y-13942714D01*
X6350857Y-13942714D01*
X6379428Y-13928429D01*
X6393714Y-13914143D01*
X6408000Y-13885571D01*
X6408000Y-13814143D01*
X6393714Y-13785571D01*
X6379428Y-13771286D01*
X6350857Y-13757000D01*
X6293714Y-13757000D01*
X6265143Y-13771286D01*
X6250857Y-13785571D01*
X6236571Y-13814143D01*
X6522286Y-13642714D02*
X6522286Y-13699857D01*
X6636571Y-13642714D02*
X6636571Y-13699857D01*
X7079428Y-14057000D02*
X7065143Y-14042714D01*
X7036571Y-13999857D01*
X7022285Y-13971286D01*
X7008000Y-13928429D01*
X6993714Y-13857000D01*
X6993714Y-13799857D01*
X7008000Y-13728429D01*
X7022285Y-13685571D01*
X7036571Y-13657000D01*
X7065143Y-13614143D01*
X7079428Y-13599857D01*
X7350857Y-13942714D02*
X7179428Y-13942714D01*
X7265143Y-13942714D02*
X7265143Y-13642714D01*
X7236571Y-13685571D01*
X7208000Y-13714143D01*
X7179428Y-13728429D01*
X7465143Y-13671286D02*
X7479428Y-13657000D01*
X7508000Y-13642714D01*
X7579428Y-13642714D01*
X7608000Y-13657000D01*
X7622285Y-13671286D01*
X7636571Y-13699857D01*
X7636571Y-13728429D01*
X7622285Y-13771286D01*
X7450857Y-13942714D01*
X7636571Y-13942714D01*
X7993714Y-13942714D02*
X7993714Y-13642714D01*
X8122285Y-13942714D02*
X8122285Y-13785571D01*
X8108000Y-13757000D01*
X8079428Y-13742714D01*
X8036571Y-13742714D01*
X8008000Y-13757000D01*
X7993714Y-13771286D01*
X8308000Y-13942714D02*
X8279428Y-13928429D01*
X8265143Y-13914143D01*
X8250857Y-13885571D01*
X8250857Y-13799857D01*
X8265143Y-13771286D01*
X8279428Y-13757000D01*
X8308000Y-13742714D01*
X8350857Y-13742714D01*
X8379428Y-13757000D01*
X8393714Y-13771286D01*
X8408000Y-13799857D01*
X8408000Y-13885571D01*
X8393714Y-13914143D01*
X8379428Y-13928429D01*
X8350857Y-13942714D01*
X8308000Y-13942714D01*
X8579428Y-13942714D02*
X8550857Y-13928429D01*
X8536571Y-13899857D01*
X8536571Y-13642714D01*
X8808000Y-13928429D02*
X8779429Y-13942714D01*
X8722286Y-13942714D01*
X8693714Y-13928429D01*
X8679429Y-13899857D01*
X8679429Y-13785571D01*
X8693714Y-13757000D01*
X8722286Y-13742714D01*
X8779429Y-13742714D01*
X8808000Y-13757000D01*
X8822286Y-13785571D01*
X8822286Y-13814143D01*
X8679429Y-13842714D01*
X8936571Y-13928429D02*
X8965143Y-13942714D01*
X9022286Y-13942714D01*
X9050857Y-13928429D01*
X9065143Y-13899857D01*
X9065143Y-13885571D01*
X9050857Y-13857000D01*
X9022286Y-13842714D01*
X8979429Y-13842714D01*
X8950857Y-13828429D01*
X8936571Y-13799857D01*
X8936571Y-13785571D01*
X8950857Y-13757000D01*
X8979429Y-13742714D01*
X9022286Y-13742714D01*
X9050857Y-13757000D01*
X9165143Y-14057000D02*
X9179429Y-14042714D01*
X9208000Y-13999857D01*
X9222286Y-13971286D01*
X9236571Y-13928429D01*
X9250857Y-13857000D01*
X9250857Y-13799857D01*
X9236571Y-13728429D01*
X9222286Y-13685571D01*
X9208000Y-13657000D01*
X9179429Y-13614143D01*
X9165143Y-13599857D01*
X9708000Y-14057000D02*
X9693714Y-14042714D01*
X9665143Y-13999857D01*
X9650857Y-13971286D01*
X9636571Y-13928429D01*
X9622286Y-13857000D01*
X9622286Y-13799857D01*
X9636571Y-13728429D01*
X9650857Y-13685571D01*
X9665143Y-13657000D01*
X9693714Y-13614143D01*
X9708000Y-13599857D01*
X9822286Y-13742714D02*
X9822286Y-13942714D01*
X9822286Y-13771286D02*
X9836571Y-13757000D01*
X9865143Y-13742714D01*
X9908000Y-13742714D01*
X9936571Y-13757000D01*
X9950857Y-13785571D01*
X9950857Y-13942714D01*
X10136571Y-13942714D02*
X10108000Y-13928429D01*
X10093714Y-13914143D01*
X10079429Y-13885571D01*
X10079429Y-13799857D01*
X10093714Y-13771286D01*
X10108000Y-13757000D01*
X10136571Y-13742714D01*
X10179429Y-13742714D01*
X10208000Y-13757000D01*
X10222286Y-13771286D01*
X10236571Y-13799857D01*
X10236571Y-13885571D01*
X10222286Y-13914143D01*
X10208000Y-13928429D01*
X10179429Y-13942714D01*
X10136571Y-13942714D01*
X10322286Y-13742714D02*
X10436571Y-13742714D01*
X10365143Y-13642714D02*
X10365143Y-13899857D01*
X10379429Y-13928429D01*
X10408000Y-13942714D01*
X10436571Y-13942714D01*
X10765143Y-13742714D02*
X10765143Y-14042714D01*
X10765143Y-13757000D02*
X10793714Y-13742714D01*
X10850857Y-13742714D01*
X10879429Y-13757000D01*
X10893714Y-13771286D01*
X10908000Y-13799857D01*
X10908000Y-13885571D01*
X10893714Y-13914143D01*
X10879429Y-13928429D01*
X10850857Y-13942714D01*
X10793714Y-13942714D01*
X10765143Y-13928429D01*
X11079429Y-13942714D02*
X11050857Y-13928429D01*
X11036571Y-13899857D01*
X11036571Y-13642714D01*
X11322286Y-13942714D02*
X11322286Y-13785571D01*
X11308000Y-13757000D01*
X11279429Y-13742714D01*
X11222286Y-13742714D01*
X11193714Y-13757000D01*
X11322286Y-13928429D02*
X11293714Y-13942714D01*
X11222286Y-13942714D01*
X11193714Y-13928429D01*
X11179429Y-13899857D01*
X11179429Y-13871286D01*
X11193714Y-13842714D01*
X11222286Y-13828429D01*
X11293714Y-13828429D01*
X11322286Y-13814143D01*
X11422286Y-13742714D02*
X11536571Y-13742714D01*
X11465143Y-13642714D02*
X11465143Y-13899857D01*
X11479429Y-13928429D01*
X11508000Y-13942714D01*
X11536571Y-13942714D01*
X11750857Y-13928429D02*
X11722286Y-13942714D01*
X11665143Y-13942714D01*
X11636571Y-13928429D01*
X11622286Y-13899857D01*
X11622286Y-13785571D01*
X11636571Y-13757000D01*
X11665143Y-13742714D01*
X11722286Y-13742714D01*
X11750857Y-13757000D01*
X11765143Y-13785571D01*
X11765143Y-13814143D01*
X11622286Y-13842714D01*
X12022286Y-13942714D02*
X12022286Y-13642714D01*
X12022286Y-13928429D02*
X11993714Y-13942714D01*
X11936571Y-13942714D01*
X11908000Y-13928429D01*
X11893714Y-13914143D01*
X11879429Y-13885571D01*
X11879429Y-13799857D01*
X11893714Y-13771286D01*
X11908000Y-13757000D01*
X11936571Y-13742714D01*
X11993714Y-13742714D01*
X12022286Y-13757000D01*
X12136571Y-14057000D02*
X12150857Y-14042714D01*
X12179429Y-13999857D01*
X12193714Y-13971286D01*
X12208000Y-13928429D01*
X12222286Y-13857000D01*
X12222286Y-13799857D01*
X12208000Y-13728429D01*
X12193714Y-13685571D01*
X12179429Y-13657000D01*
X12150857Y-13614143D01*
X12136571Y-13599857D01*
M02*
