G04 #@! TF.FileFunction,Soldermask,Bot*
%FSLAX46Y46*%
G04 Gerber Fmt 4.6, Leading zero omitted, Abs format (unit mm)*
G04 Created by KiCad (PCBNEW 4.0.2+dfsg1-stable) date Sun 12 Jun 2016 04:00:05 PM EDT*
%MOMM*%
G01*
G04 APERTURE LIST*
%ADD10C,0.150000*%
%ADD11C,1.100000*%
%ADD12R,1.778000X1.778000*%
%ADD13C,1.778000*%
%ADD14C,3.200000*%
%ADD15C,1.800000*%
%ADD16C,3.810000*%
%ADD17C,1.397000*%
%ADD18R,1.397000X1.397000*%
%ADD19R,3.500120X3.500120*%
G04 APERTURE END LIST*
D10*
D11*
X106131360Y-69380100D03*
X110530640Y-69380100D03*
D12*
X46355000Y-66040000D03*
D13*
X46355000Y-71120000D03*
D14*
X39243000Y-28448000D03*
X29083000Y-28448000D03*
D15*
X36068000Y-34798000D03*
X34798000Y-37338000D03*
X33528000Y-34798000D03*
X32258000Y-37338000D03*
D16*
X28956000Y-72136000D03*
X28956000Y-67056000D03*
X28956000Y-56896000D03*
X28956000Y-51816000D03*
D14*
X53467000Y-28448000D03*
X43307000Y-28448000D03*
D15*
X50292000Y-34798000D03*
X49022000Y-37338000D03*
X47752000Y-34798000D03*
X46482000Y-37338000D03*
D14*
X67691000Y-28448000D03*
X57531000Y-28448000D03*
D15*
X64516000Y-34798000D03*
X63246000Y-37338000D03*
X61976000Y-34798000D03*
X60706000Y-37338000D03*
D14*
X81915000Y-28448000D03*
X71755000Y-28448000D03*
D15*
X78740000Y-34798000D03*
X77470000Y-37338000D03*
X76200000Y-34798000D03*
X74930000Y-37338000D03*
D14*
X96139000Y-28448000D03*
X85979000Y-28448000D03*
D15*
X92964000Y-34798000D03*
X91694000Y-37338000D03*
X90424000Y-34798000D03*
X89154000Y-37338000D03*
D14*
X110363000Y-28448000D03*
X100203000Y-28448000D03*
D15*
X107188000Y-34798000D03*
X105918000Y-37338000D03*
X104648000Y-34798000D03*
X103378000Y-37338000D03*
D17*
X39751000Y-40132000D03*
X34671000Y-40132000D03*
X53975000Y-40132000D03*
X48895000Y-40132000D03*
X68199000Y-40132000D03*
X63119000Y-40132000D03*
X82423000Y-40132000D03*
X77343000Y-40132000D03*
X96647000Y-40132000D03*
X91567000Y-40132000D03*
X110871000Y-40132000D03*
X105791000Y-40132000D03*
D18*
X105410000Y-61976000D03*
D17*
X107950000Y-61976000D03*
X110490000Y-61976000D03*
X113030000Y-61976000D03*
D19*
X37592000Y-64411860D03*
X37592000Y-70411340D03*
X42291000Y-67411600D03*
M02*
