G04 #@! TF.FileFunction,Legend,Top*
%FSLAX46Y46*%
G04 Gerber Fmt 4.6, Leading zero omitted, Abs format (unit mm)*
G04 Created by KiCad (PCBNEW 4.0.7-e2-6376~58~ubuntu16.04.1) date Wed May 16 21:29:31 2018*
%MOMM*%
%LPD*%
G01*
G04 APERTURE LIST*
%ADD10C,0.150000*%
%ADD11C,0.203200*%
%ADD12C,0.177800*%
%ADD13C,0.100000*%
%ADD14C,0.228600*%
%ADD15C,0.381000*%
%ADD16C,0.120000*%
%ADD17C,0.078740*%
%ADD18C,0.127000*%
%ADD19C,0.304800*%
%ADD20C,0.075000*%
G04 APERTURE END LIST*
D10*
D11*
X26883971Y-91927714D02*
X26883971Y-92642000D01*
X25383971Y-92642000D01*
X25883971Y-90784857D02*
X26883971Y-90784857D01*
X25883971Y-91427714D02*
X26669686Y-91427714D01*
X26812543Y-91356286D01*
X26883971Y-91213428D01*
X26883971Y-90999143D01*
X26812543Y-90856286D01*
X26741114Y-90784857D01*
X26883971Y-90213428D02*
X25883971Y-89427714D01*
X25883971Y-90213428D02*
X26883971Y-89427714D01*
X26883971Y-87713428D02*
X25383971Y-87713428D01*
X26098257Y-87713428D02*
X26098257Y-86856285D01*
X26883971Y-86856285D02*
X25383971Y-86856285D01*
X25883971Y-85499142D02*
X26883971Y-85499142D01*
X25883971Y-86141999D02*
X26669686Y-86141999D01*
X26812543Y-86070571D01*
X26883971Y-85927713D01*
X26883971Y-85713428D01*
X26812543Y-85570571D01*
X26741114Y-85499142D01*
X26883971Y-84784856D02*
X25383971Y-84784856D01*
X25955400Y-84784856D02*
X25883971Y-84641999D01*
X25883971Y-84356285D01*
X25955400Y-84213428D01*
X26026829Y-84141999D01*
X26169686Y-84070570D01*
X26598257Y-84070570D01*
X26741114Y-84141999D01*
X26812543Y-84213428D01*
X26883971Y-84356285D01*
X26883971Y-84641999D01*
X26812543Y-84784856D01*
X29337171Y-90999142D02*
X28337171Y-90999142D01*
X28622886Y-90999142D02*
X28480029Y-90927714D01*
X28408600Y-90856285D01*
X28337171Y-90713428D01*
X28337171Y-90570571D01*
X29265743Y-89499143D02*
X29337171Y-89642000D01*
X29337171Y-89927714D01*
X29265743Y-90070571D01*
X29122886Y-90142000D01*
X28551457Y-90142000D01*
X28408600Y-90070571D01*
X28337171Y-89927714D01*
X28337171Y-89642000D01*
X28408600Y-89499143D01*
X28551457Y-89427714D01*
X28694314Y-89427714D01*
X28837171Y-90142000D01*
X28337171Y-88927714D02*
X29337171Y-88570571D01*
X28337171Y-88213429D01*
X28480029Y-86284857D02*
X28408600Y-86427715D01*
X28337171Y-86499143D01*
X28194314Y-86570572D01*
X28122886Y-86570572D01*
X27980029Y-86499143D01*
X27908600Y-86427715D01*
X27837171Y-86284857D01*
X27837171Y-85999143D01*
X27908600Y-85856286D01*
X27980029Y-85784857D01*
X28122886Y-85713429D01*
X28194314Y-85713429D01*
X28337171Y-85784857D01*
X28408600Y-85856286D01*
X28480029Y-85999143D01*
X28480029Y-86284857D01*
X28551457Y-86427715D01*
X28622886Y-86499143D01*
X28765743Y-86570572D01*
X29051457Y-86570572D01*
X29194314Y-86499143D01*
X29265743Y-86427715D01*
X29337171Y-86284857D01*
X29337171Y-85999143D01*
X29265743Y-85856286D01*
X29194314Y-85784857D01*
X29051457Y-85713429D01*
X28765743Y-85713429D01*
X28622886Y-85784857D01*
X28551457Y-85856286D01*
X28480029Y-85999143D01*
D12*
X31955619Y-100487236D02*
X30939619Y-100487236D01*
X31955619Y-100051808D02*
X31423429Y-100051808D01*
X31326667Y-100100189D01*
X31278286Y-100196951D01*
X31278286Y-100342093D01*
X31326667Y-100438855D01*
X31375048Y-100487236D01*
X31278286Y-99713141D02*
X31278286Y-99326093D01*
X30939619Y-99567998D02*
X31810476Y-99567998D01*
X31907238Y-99519617D01*
X31955619Y-99422855D01*
X31955619Y-99326093D01*
X31278286Y-99132570D02*
X31278286Y-98745522D01*
X30939619Y-98987427D02*
X31810476Y-98987427D01*
X31907238Y-98939046D01*
X31955619Y-98842284D01*
X31955619Y-98745522D01*
X31278286Y-98406856D02*
X32294286Y-98406856D01*
X31326667Y-98406856D02*
X31278286Y-98310094D01*
X31278286Y-98116571D01*
X31326667Y-98019809D01*
X31375048Y-97971428D01*
X31471810Y-97923047D01*
X31762095Y-97923047D01*
X31858857Y-97971428D01*
X31907238Y-98019809D01*
X31955619Y-98116571D01*
X31955619Y-98310094D01*
X31907238Y-98406856D01*
X31907238Y-97535999D02*
X31955619Y-97439237D01*
X31955619Y-97245713D01*
X31907238Y-97148952D01*
X31810476Y-97100571D01*
X31762095Y-97100571D01*
X31665333Y-97148952D01*
X31616952Y-97245713D01*
X31616952Y-97390856D01*
X31568571Y-97487618D01*
X31471810Y-97535999D01*
X31423429Y-97535999D01*
X31326667Y-97487618D01*
X31278286Y-97390856D01*
X31278286Y-97245713D01*
X31326667Y-97148952D01*
X31858857Y-96665142D02*
X31907238Y-96616761D01*
X31955619Y-96665142D01*
X31907238Y-96713523D01*
X31858857Y-96665142D01*
X31955619Y-96665142D01*
X31326667Y-96665142D02*
X31375048Y-96616761D01*
X31423429Y-96665142D01*
X31375048Y-96713523D01*
X31326667Y-96665142D01*
X31423429Y-96665142D01*
X30891238Y-95455618D02*
X32197524Y-96326475D01*
X30891238Y-94391237D02*
X32197524Y-95262094D01*
X31278286Y-93617142D02*
X32100762Y-93617142D01*
X32197524Y-93665523D01*
X32245905Y-93713904D01*
X32294286Y-93810665D01*
X32294286Y-93955808D01*
X32245905Y-94052570D01*
X31907238Y-93617142D02*
X31955619Y-93713904D01*
X31955619Y-93907427D01*
X31907238Y-94004189D01*
X31858857Y-94052570D01*
X31762095Y-94100951D01*
X31471810Y-94100951D01*
X31375048Y-94052570D01*
X31326667Y-94004189D01*
X31278286Y-93907427D01*
X31278286Y-93713904D01*
X31326667Y-93617142D01*
X31955619Y-93133332D02*
X31278286Y-93133332D01*
X30939619Y-93133332D02*
X30988000Y-93181713D01*
X31036381Y-93133332D01*
X30988000Y-93084951D01*
X30939619Y-93133332D01*
X31036381Y-93133332D01*
X31278286Y-92794665D02*
X31278286Y-92407617D01*
X30939619Y-92649522D02*
X31810476Y-92649522D01*
X31907238Y-92601141D01*
X31955619Y-92504379D01*
X31955619Y-92407617D01*
X31955619Y-92068951D02*
X30939619Y-92068951D01*
X31955619Y-91633523D02*
X31423429Y-91633523D01*
X31326667Y-91681904D01*
X31278286Y-91778666D01*
X31278286Y-91923808D01*
X31326667Y-92020570D01*
X31375048Y-92068951D01*
X31278286Y-90714285D02*
X31955619Y-90714285D01*
X31278286Y-91149713D02*
X31810476Y-91149713D01*
X31907238Y-91101332D01*
X31955619Y-91004570D01*
X31955619Y-90859428D01*
X31907238Y-90762666D01*
X31858857Y-90714285D01*
X31955619Y-90230475D02*
X30939619Y-90230475D01*
X31326667Y-90230475D02*
X31278286Y-90133713D01*
X31278286Y-89940190D01*
X31326667Y-89843428D01*
X31375048Y-89795047D01*
X31471810Y-89746666D01*
X31762095Y-89746666D01*
X31858857Y-89795047D01*
X31907238Y-89843428D01*
X31955619Y-89940190D01*
X31955619Y-90133713D01*
X31907238Y-90230475D01*
X31858857Y-89311237D02*
X31907238Y-89262856D01*
X31955619Y-89311237D01*
X31907238Y-89359618D01*
X31858857Y-89311237D01*
X31955619Y-89311237D01*
X31907238Y-88391999D02*
X31955619Y-88488761D01*
X31955619Y-88682284D01*
X31907238Y-88779046D01*
X31858857Y-88827427D01*
X31762095Y-88875808D01*
X31471810Y-88875808D01*
X31375048Y-88827427D01*
X31326667Y-88779046D01*
X31278286Y-88682284D01*
X31278286Y-88488761D01*
X31326667Y-88391999D01*
X31955619Y-87811427D02*
X31907238Y-87908189D01*
X31858857Y-87956570D01*
X31762095Y-88004951D01*
X31471810Y-88004951D01*
X31375048Y-87956570D01*
X31326667Y-87908189D01*
X31278286Y-87811427D01*
X31278286Y-87666285D01*
X31326667Y-87569523D01*
X31375048Y-87521142D01*
X31471810Y-87472761D01*
X31762095Y-87472761D01*
X31858857Y-87521142D01*
X31907238Y-87569523D01*
X31955619Y-87666285D01*
X31955619Y-87811427D01*
X31955619Y-87037332D02*
X31278286Y-87037332D01*
X31375048Y-87037332D02*
X31326667Y-86988951D01*
X31278286Y-86892189D01*
X31278286Y-86747047D01*
X31326667Y-86650285D01*
X31423429Y-86601904D01*
X31955619Y-86601904D01*
X31423429Y-86601904D02*
X31326667Y-86553523D01*
X31278286Y-86456761D01*
X31278286Y-86311618D01*
X31326667Y-86214856D01*
X31423429Y-86166475D01*
X31955619Y-86166475D01*
X30891238Y-84956951D02*
X32197524Y-85827808D01*
X31907238Y-84231237D02*
X31955619Y-84327999D01*
X31955619Y-84521522D01*
X31907238Y-84618284D01*
X31810476Y-84666665D01*
X31423429Y-84666665D01*
X31326667Y-84618284D01*
X31278286Y-84521522D01*
X31278286Y-84327999D01*
X31326667Y-84231237D01*
X31423429Y-84182856D01*
X31520190Y-84182856D01*
X31616952Y-84666665D01*
X31955619Y-83747427D02*
X31278286Y-83747427D01*
X31471810Y-83747427D02*
X31375048Y-83699046D01*
X31326667Y-83650665D01*
X31278286Y-83553903D01*
X31278286Y-83457142D01*
X31278286Y-83215237D02*
X31955619Y-82973332D01*
X31278286Y-82731428D01*
X31955619Y-81908952D02*
X31423429Y-81908952D01*
X31326667Y-81957333D01*
X31278286Y-82054095D01*
X31278286Y-82247618D01*
X31326667Y-82344380D01*
X31907238Y-81908952D02*
X31955619Y-82005714D01*
X31955619Y-82247618D01*
X31907238Y-82344380D01*
X31810476Y-82392761D01*
X31713714Y-82392761D01*
X31616952Y-82344380D01*
X31568571Y-82247618D01*
X31568571Y-82005714D01*
X31520190Y-81908952D01*
X31278286Y-81425142D02*
X31955619Y-81425142D01*
X31375048Y-81425142D02*
X31326667Y-81376761D01*
X31278286Y-81279999D01*
X31278286Y-81134857D01*
X31326667Y-81038095D01*
X31423429Y-80989714D01*
X31955619Y-80989714D01*
X31955619Y-80070476D02*
X31423429Y-80070476D01*
X31326667Y-80118857D01*
X31278286Y-80215619D01*
X31278286Y-80409142D01*
X31326667Y-80505904D01*
X31907238Y-80070476D02*
X31955619Y-80167238D01*
X31955619Y-80409142D01*
X31907238Y-80505904D01*
X31810476Y-80554285D01*
X31713714Y-80554285D01*
X31616952Y-80505904D01*
X31568571Y-80409142D01*
X31568571Y-80167238D01*
X31520190Y-80070476D01*
X31955619Y-79441523D02*
X31907238Y-79538285D01*
X31810476Y-79586666D01*
X30939619Y-79586666D01*
X31955619Y-79054476D02*
X30939619Y-79054476D01*
X31326667Y-79054476D02*
X31278286Y-78957714D01*
X31278286Y-78764191D01*
X31326667Y-78667429D01*
X31375048Y-78619048D01*
X31471810Y-78570667D01*
X31762095Y-78570667D01*
X31858857Y-78619048D01*
X31907238Y-78667429D01*
X31955619Y-78764191D01*
X31955619Y-78957714D01*
X31907238Y-79054476D01*
X30891238Y-77409524D02*
X32197524Y-78280381D01*
X31955619Y-76925714D02*
X31907238Y-77022476D01*
X31810476Y-77070857D01*
X30939619Y-77070857D01*
X31278286Y-76103239D02*
X31955619Y-76103239D01*
X31278286Y-76538667D02*
X31810476Y-76538667D01*
X31907238Y-76490286D01*
X31955619Y-76393524D01*
X31955619Y-76248382D01*
X31907238Y-76151620D01*
X31858857Y-76103239D01*
X31955619Y-75716191D02*
X31278286Y-75184001D01*
X31278286Y-75716191D02*
X31955619Y-75184001D01*
D11*
X41607619Y-112842524D02*
X40881905Y-112842524D01*
X41244762Y-112842524D02*
X41244762Y-111572524D01*
X41123810Y-111753952D01*
X41002857Y-111874905D01*
X40881905Y-111935381D01*
X42091429Y-111693476D02*
X42151905Y-111633000D01*
X42272857Y-111572524D01*
X42575238Y-111572524D01*
X42696191Y-111633000D01*
X42756667Y-111693476D01*
X42817143Y-111814429D01*
X42817143Y-111935381D01*
X42756667Y-112116810D01*
X42030953Y-112842524D01*
X42817143Y-112842524D01*
X43180000Y-111572524D02*
X43603334Y-112842524D01*
X44026667Y-111572524D01*
X44450000Y-112358714D02*
X45417619Y-112358714D01*
X46566667Y-111995857D02*
X46566667Y-112842524D01*
X46264286Y-111512048D02*
X45961905Y-112419190D01*
X46748095Y-112419190D01*
X47413334Y-112116810D02*
X47292381Y-112056333D01*
X47231905Y-111995857D01*
X47171429Y-111874905D01*
X47171429Y-111814429D01*
X47231905Y-111693476D01*
X47292381Y-111633000D01*
X47413334Y-111572524D01*
X47655238Y-111572524D01*
X47776191Y-111633000D01*
X47836667Y-111693476D01*
X47897143Y-111814429D01*
X47897143Y-111874905D01*
X47836667Y-111995857D01*
X47776191Y-112056333D01*
X47655238Y-112116810D01*
X47413334Y-112116810D01*
X47292381Y-112177286D01*
X47231905Y-112237762D01*
X47171429Y-112358714D01*
X47171429Y-112600619D01*
X47231905Y-112721571D01*
X47292381Y-112782048D01*
X47413334Y-112842524D01*
X47655238Y-112842524D01*
X47776191Y-112782048D01*
X47836667Y-112721571D01*
X47897143Y-112600619D01*
X47897143Y-112358714D01*
X47836667Y-112237762D01*
X47776191Y-112177286D01*
X47655238Y-112116810D01*
X48260000Y-111572524D02*
X48683334Y-112842524D01*
X49106667Y-111572524D01*
X30166571Y-114680570D02*
X30166571Y-115394856D01*
X30880857Y-115466285D01*
X30809429Y-115394856D01*
X30738000Y-115251999D01*
X30738000Y-114894856D01*
X30809429Y-114751999D01*
X30880857Y-114680570D01*
X31023714Y-114609142D01*
X31380857Y-114609142D01*
X31523714Y-114680570D01*
X31595143Y-114751999D01*
X31666571Y-114894856D01*
X31666571Y-115251999D01*
X31595143Y-115394856D01*
X31523714Y-115466285D01*
X31238000Y-114037714D02*
X31238000Y-113323428D01*
X31666571Y-114180571D02*
X30166571Y-113680571D01*
X31666571Y-113180571D01*
X30880857Y-111037714D02*
X30880857Y-111537714D01*
X31666571Y-111537714D02*
X30166571Y-111537714D01*
X30166571Y-110823428D01*
X30666571Y-109609143D02*
X31666571Y-109609143D01*
X30666571Y-110252000D02*
X31452286Y-110252000D01*
X31595143Y-110180572D01*
X31666571Y-110037714D01*
X31666571Y-109823429D01*
X31595143Y-109680572D01*
X31523714Y-109609143D01*
X31595143Y-108966286D02*
X31666571Y-108823429D01*
X31666571Y-108537714D01*
X31595143Y-108394857D01*
X31452286Y-108323429D01*
X31380857Y-108323429D01*
X31238000Y-108394857D01*
X31166571Y-108537714D01*
X31166571Y-108752000D01*
X31095143Y-108894857D01*
X30952286Y-108966286D01*
X30880857Y-108966286D01*
X30738000Y-108894857D01*
X30666571Y-108752000D01*
X30666571Y-108537714D01*
X30738000Y-108394857D01*
X31595143Y-107109143D02*
X31666571Y-107252000D01*
X31666571Y-107537714D01*
X31595143Y-107680571D01*
X31452286Y-107752000D01*
X30880857Y-107752000D01*
X30738000Y-107680571D01*
X30666571Y-107537714D01*
X30666571Y-107252000D01*
X30738000Y-107109143D01*
X30880857Y-107037714D01*
X31023714Y-107037714D01*
X31166571Y-107752000D01*
D13*
X123046286Y-112473428D02*
X123089143Y-112344857D01*
X123089143Y-112130571D01*
X123046286Y-112044857D01*
X123003429Y-112002000D01*
X122917714Y-111959143D01*
X122832000Y-111959143D01*
X122746286Y-112002000D01*
X122703429Y-112044857D01*
X122660571Y-112130571D01*
X122617714Y-112302000D01*
X122574857Y-112387714D01*
X122532000Y-112430571D01*
X122446286Y-112473428D01*
X122360571Y-112473428D01*
X122274857Y-112430571D01*
X122232000Y-112387714D01*
X122189143Y-112302000D01*
X122189143Y-112087714D01*
X122232000Y-111959143D01*
X122189143Y-111659143D02*
X123089143Y-111444857D01*
X122446286Y-111273428D01*
X123089143Y-111102000D01*
X122189143Y-110887714D01*
X123089143Y-110544857D02*
X122189143Y-110544857D01*
X122189143Y-110330572D01*
X122232000Y-110202000D01*
X122317714Y-110116286D01*
X122403429Y-110073429D01*
X122574857Y-110030572D01*
X122703429Y-110030572D01*
X122874857Y-110073429D01*
X122960571Y-110116286D01*
X123046286Y-110202000D01*
X123089143Y-110330572D01*
X123089143Y-110544857D01*
X128677143Y-97358857D02*
X127777143Y-97358857D01*
X127777143Y-97144572D01*
X127820000Y-97016000D01*
X127905714Y-96930286D01*
X127991429Y-96887429D01*
X128162857Y-96844572D01*
X128291429Y-96844572D01*
X128462857Y-96887429D01*
X128548571Y-96930286D01*
X128634286Y-97016000D01*
X128677143Y-97144572D01*
X128677143Y-97358857D01*
X128205714Y-96158857D02*
X128205714Y-96458857D01*
X128677143Y-96458857D02*
X127777143Y-96458857D01*
X127777143Y-96030286D01*
X127777143Y-95687428D02*
X128505714Y-95687428D01*
X128591429Y-95644571D01*
X128634286Y-95601714D01*
X128677143Y-95516000D01*
X128677143Y-95344571D01*
X128634286Y-95258857D01*
X128591429Y-95216000D01*
X128505714Y-95173143D01*
X127777143Y-95173143D01*
X127076286Y-102123143D02*
X127590572Y-102123143D01*
X127333429Y-103023143D02*
X127333429Y-102123143D01*
X127804857Y-102123143D02*
X128404857Y-103023143D01*
X128404857Y-102123143D02*
X127804857Y-103023143D01*
X127612000Y-105055143D02*
X127312000Y-104626571D01*
X127097715Y-105055143D02*
X127097715Y-104155143D01*
X127440572Y-104155143D01*
X127526286Y-104198000D01*
X127569143Y-104240857D01*
X127612000Y-104326571D01*
X127612000Y-104455143D01*
X127569143Y-104540857D01*
X127526286Y-104583714D01*
X127440572Y-104626571D01*
X127097715Y-104626571D01*
X127912000Y-104155143D02*
X128512000Y-105055143D01*
X128512000Y-104155143D02*
X127912000Y-105055143D01*
X126562000Y-108219143D02*
X126862000Y-109119143D01*
X127162000Y-108219143D01*
X127976286Y-109033429D02*
X127933429Y-109076286D01*
X127804858Y-109119143D01*
X127719144Y-109119143D01*
X127590572Y-109076286D01*
X127504858Y-108990571D01*
X127462001Y-108904857D01*
X127419144Y-108733429D01*
X127419144Y-108604857D01*
X127462001Y-108433429D01*
X127504858Y-108347714D01*
X127590572Y-108262000D01*
X127719144Y-108219143D01*
X127804858Y-108219143D01*
X127933429Y-108262000D01*
X127976286Y-108304857D01*
X128876286Y-109033429D02*
X128833429Y-109076286D01*
X128704858Y-109119143D01*
X128619144Y-109119143D01*
X128490572Y-109076286D01*
X128404858Y-108990571D01*
X128362001Y-108904857D01*
X128319144Y-108733429D01*
X128319144Y-108604857D01*
X128362001Y-108433429D01*
X128404858Y-108347714D01*
X128490572Y-108262000D01*
X128619144Y-108219143D01*
X128704858Y-108219143D01*
X128833429Y-108262000D01*
X128876286Y-108304857D01*
X127119143Y-106487143D02*
X127119143Y-107087143D01*
X126904857Y-106144286D02*
X126690572Y-106787143D01*
X127247714Y-106787143D01*
X127719143Y-106572857D02*
X127633429Y-106530000D01*
X127590572Y-106487143D01*
X127547715Y-106401429D01*
X127547715Y-106358571D01*
X127590572Y-106272857D01*
X127633429Y-106230000D01*
X127719143Y-106187143D01*
X127890572Y-106187143D01*
X127976286Y-106230000D01*
X128019143Y-106272857D01*
X128062000Y-106358571D01*
X128062000Y-106401429D01*
X128019143Y-106487143D01*
X127976286Y-106530000D01*
X127890572Y-106572857D01*
X127719143Y-106572857D01*
X127633429Y-106615714D01*
X127590572Y-106658571D01*
X127547715Y-106744286D01*
X127547715Y-106915714D01*
X127590572Y-107001429D01*
X127633429Y-107044286D01*
X127719143Y-107087143D01*
X127890572Y-107087143D01*
X127976286Y-107044286D01*
X128019143Y-107001429D01*
X128062000Y-106915714D01*
X128062000Y-106744286D01*
X128019143Y-106658571D01*
X127976286Y-106615714D01*
X127890572Y-106572857D01*
X128319143Y-106187143D02*
X128619143Y-107087143D01*
X128919143Y-106187143D01*
D14*
X115855715Y-95444571D02*
X115570001Y-95444571D01*
X115427144Y-95516000D01*
X115355715Y-95587429D01*
X115212858Y-95801714D01*
X115141429Y-96087429D01*
X115141429Y-96658857D01*
X115212858Y-96801714D01*
X115284286Y-96873143D01*
X115427144Y-96944571D01*
X115712858Y-96944571D01*
X115855715Y-96873143D01*
X115927144Y-96801714D01*
X115998572Y-96658857D01*
X115998572Y-96301714D01*
X115927144Y-96158857D01*
X115855715Y-96087429D01*
X115712858Y-96016000D01*
X115427144Y-96016000D01*
X115284286Y-96087429D01*
X115212858Y-96158857D01*
X115141429Y-96301714D01*
X101703144Y-95444571D02*
X100988858Y-95444571D01*
X100917429Y-96158857D01*
X100988858Y-96087429D01*
X101131715Y-96016000D01*
X101488858Y-96016000D01*
X101631715Y-96087429D01*
X101703144Y-96158857D01*
X101774572Y-96301714D01*
X101774572Y-96658857D01*
X101703144Y-96801714D01*
X101631715Y-96873143D01*
X101488858Y-96944571D01*
X101131715Y-96944571D01*
X100988858Y-96873143D01*
X100917429Y-96801714D01*
X87407715Y-95690571D02*
X87407715Y-96690571D01*
X87050572Y-95119143D02*
X86693429Y-96190571D01*
X87622001Y-96190571D01*
X71636001Y-95190571D02*
X72564572Y-95190571D01*
X72064572Y-95762000D01*
X72278858Y-95762000D01*
X72421715Y-95833429D01*
X72493144Y-95904857D01*
X72564572Y-96047714D01*
X72564572Y-96404857D01*
X72493144Y-96547714D01*
X72421715Y-96619143D01*
X72278858Y-96690571D01*
X71850286Y-96690571D01*
X71707429Y-96619143D01*
X71636001Y-96547714D01*
D15*
X110794800Y-110032800D02*
X110794800Y-112572800D01*
D14*
X58245429Y-95333429D02*
X58316858Y-95262000D01*
X58459715Y-95190571D01*
X58816858Y-95190571D01*
X58959715Y-95262000D01*
X59031144Y-95333429D01*
X59102572Y-95476286D01*
X59102572Y-95619143D01*
X59031144Y-95833429D01*
X58174001Y-96690571D01*
X59102572Y-96690571D01*
X44878572Y-96690571D02*
X44021429Y-96690571D01*
X44450001Y-96690571D02*
X44450001Y-95190571D01*
X44307144Y-95404857D01*
X44164286Y-95547714D01*
X44021429Y-95619143D01*
D16*
X43302000Y-101746000D02*
X43302000Y-103006000D01*
X43302000Y-108566000D02*
X43302000Y-107306000D01*
X47062000Y-101746000D02*
X43302000Y-101746000D01*
X49312000Y-108566000D02*
X43302000Y-108566000D01*
D10*
X33528000Y-123825000D02*
X33528000Y-97155000D01*
X33528000Y-97155000D02*
X38608000Y-97155000D01*
X38608000Y-97155000D02*
X38608000Y-123825000D01*
X38608000Y-123825000D02*
X33528000Y-123825000D01*
X45974000Y-86868000D02*
X45974000Y-91948000D01*
X45974000Y-91948000D02*
X41402000Y-91948000D01*
X41402000Y-91948000D02*
X41402000Y-86868000D01*
X41402000Y-86868000D02*
X45974000Y-86868000D01*
X44450000Y-86868000D02*
X44450000Y-87376000D01*
X44450000Y-87376000D02*
X43180000Y-87376000D01*
X43180000Y-87376000D02*
X43180000Y-86868000D01*
D17*
X66359090Y-89565480D02*
G75*
G03X66359090Y-89565480I-159070J0D01*
G01*
X63754000Y-90424000D02*
X63754000Y-89408000D01*
X66357500Y-90424000D02*
X66357500Y-89408000D01*
X63754000Y-89408000D02*
X66357500Y-89408000D01*
X66357500Y-90424000D02*
X63754000Y-90424000D01*
D15*
X111643160Y-124249180D02*
X119344440Y-124249180D01*
X111643160Y-125249940D02*
X119344440Y-125249940D01*
X119344440Y-125249940D02*
X119344440Y-116050060D01*
X119344440Y-116050060D02*
X111643160Y-116050060D01*
X111643160Y-116050060D02*
X111643160Y-125249940D01*
D10*
X48256000Y-84836000D02*
X35056000Y-84836000D01*
X35056000Y-84836000D02*
X35056000Y-66826000D01*
X35056000Y-66826000D02*
X48256000Y-66826000D01*
X48256000Y-66826000D02*
X48256000Y-84836000D01*
D17*
X37911090Y-89565480D02*
G75*
G03X37911090Y-89565480I-159070J0D01*
G01*
X35306000Y-90424000D02*
X35306000Y-89408000D01*
X37909500Y-90424000D02*
X37909500Y-89408000D01*
X35306000Y-89408000D02*
X37909500Y-89408000D01*
X37909500Y-90424000D02*
X35306000Y-90424000D01*
D11*
X101904800Y-105206800D02*
X101904800Y-108254800D01*
X101904800Y-108254800D02*
X109016800Y-108254800D01*
X109016800Y-108254800D02*
X109016800Y-105206800D01*
X101904800Y-102158800D02*
X101904800Y-101396800D01*
X101904800Y-101396800D02*
X103428800Y-99110800D01*
X103428800Y-99110800D02*
X107492800Y-99110800D01*
X107492800Y-99110800D02*
X109016800Y-101396800D01*
X109016800Y-101396800D02*
X109016800Y-102158800D01*
D10*
X58597800Y-124256800D02*
X58597800Y-111556800D01*
X58597800Y-111556800D02*
X83997800Y-111556800D01*
X83997800Y-111556800D02*
X83997800Y-124256800D01*
X83997800Y-124256800D02*
X58597800Y-124256800D01*
X58597800Y-115366800D02*
X53517800Y-115366800D01*
X53517800Y-120446800D02*
X58597800Y-120446800D01*
X125922000Y-94866000D02*
X125922000Y-97666000D01*
X125922000Y-97666000D02*
X124522000Y-97666000D01*
X124522000Y-97666000D02*
X124522000Y-94866000D01*
X124522000Y-94866000D02*
X125922000Y-94866000D01*
X126972000Y-99266000D02*
X126322000Y-99266000D01*
X123472000Y-99266000D02*
X124122000Y-99266000D01*
X124122000Y-93266000D02*
X123472000Y-93266000D01*
X126972000Y-93266000D02*
X126322000Y-93266000D01*
X126972000Y-99266000D02*
X126972000Y-93266000D01*
X123472000Y-93266000D02*
X123472000Y-99266000D01*
X56192800Y-122311800D02*
X57192800Y-122311800D01*
X57192800Y-123661800D02*
X56192800Y-123661800D01*
D18*
X88061800Y-108508800D02*
X88061800Y-108635800D01*
X88061800Y-108635800D02*
X93395800Y-108635800D01*
X93395800Y-104825800D02*
X88061800Y-104825800D01*
X88061800Y-104825800D02*
X88061800Y-108508800D01*
X88061800Y-106222800D02*
X88569800Y-106222800D01*
X88569800Y-106222800D02*
X88569800Y-107238800D01*
X88569800Y-107238800D02*
X88061800Y-107238800D01*
X93395800Y-104825800D02*
X93395800Y-108635800D01*
D10*
X62480000Y-84836000D02*
X49280000Y-84836000D01*
X49280000Y-84836000D02*
X49280000Y-66826000D01*
X49280000Y-66826000D02*
X62480000Y-66826000D01*
X62480000Y-66826000D02*
X62480000Y-84836000D01*
X76704000Y-84836000D02*
X63504000Y-84836000D01*
X63504000Y-84836000D02*
X63504000Y-66826000D01*
X63504000Y-66826000D02*
X76704000Y-66826000D01*
X76704000Y-66826000D02*
X76704000Y-84836000D01*
X90928000Y-84836000D02*
X77728000Y-84836000D01*
X77728000Y-84836000D02*
X77728000Y-66826000D01*
X77728000Y-66826000D02*
X90928000Y-66826000D01*
X90928000Y-66826000D02*
X90928000Y-84836000D01*
X105152000Y-84836000D02*
X91952000Y-84836000D01*
X91952000Y-84836000D02*
X91952000Y-66826000D01*
X91952000Y-66826000D02*
X105152000Y-66826000D01*
X105152000Y-66826000D02*
X105152000Y-84836000D01*
X119376000Y-84836000D02*
X106176000Y-84836000D01*
X106176000Y-84836000D02*
X106176000Y-66826000D01*
X106176000Y-66826000D02*
X119376000Y-66826000D01*
X119376000Y-66826000D02*
X119376000Y-84836000D01*
D11*
X90220800Y-113334800D02*
X90220800Y-122986800D01*
X90220800Y-122986800D02*
X86410800Y-122986800D01*
X86410800Y-122986800D02*
X86410800Y-113334800D01*
X86410800Y-113334800D02*
X90220800Y-113334800D01*
X88950800Y-113334800D02*
X88950800Y-114096800D01*
X88950800Y-114096800D02*
X87934800Y-114096800D01*
X87934800Y-114096800D02*
X87934800Y-113334800D01*
D18*
X61645800Y-108508800D02*
X61645800Y-108635800D01*
X61645800Y-108635800D02*
X66979800Y-108635800D01*
X66979800Y-104825800D02*
X61645800Y-104825800D01*
X61645800Y-104825800D02*
X61645800Y-108508800D01*
X61645800Y-106222800D02*
X62153800Y-106222800D01*
X62153800Y-106222800D02*
X62153800Y-107238800D01*
X62153800Y-107238800D02*
X61645800Y-107238800D01*
X66979800Y-104825800D02*
X66979800Y-108635800D01*
X68249800Y-108508800D02*
X68249800Y-108635800D01*
X68249800Y-108635800D02*
X73583800Y-108635800D01*
X73583800Y-104825800D02*
X68249800Y-104825800D01*
X68249800Y-104825800D02*
X68249800Y-108508800D01*
X68249800Y-106222800D02*
X68757800Y-106222800D01*
X68757800Y-106222800D02*
X68757800Y-107238800D01*
X68757800Y-107238800D02*
X68249800Y-107238800D01*
X73583800Y-104825800D02*
X73583800Y-108635800D01*
D17*
X52135090Y-89565480D02*
G75*
G03X52135090Y-89565480I-159070J0D01*
G01*
X49530000Y-90424000D02*
X49530000Y-89408000D01*
X52133500Y-90424000D02*
X52133500Y-89408000D01*
X49530000Y-89408000D02*
X52133500Y-89408000D01*
X52133500Y-90424000D02*
X49530000Y-90424000D01*
D18*
X74853800Y-108508800D02*
X74853800Y-108635800D01*
X74853800Y-108635800D02*
X80187800Y-108635800D01*
X80187800Y-104825800D02*
X74853800Y-104825800D01*
X74853800Y-104825800D02*
X74853800Y-108508800D01*
X74853800Y-106222800D02*
X75361800Y-106222800D01*
X75361800Y-106222800D02*
X75361800Y-107238800D01*
X75361800Y-107238800D02*
X74853800Y-107238800D01*
X80187800Y-104825800D02*
X80187800Y-108635800D01*
X81457800Y-108508800D02*
X81457800Y-108635800D01*
X81457800Y-108635800D02*
X86791800Y-108635800D01*
X86791800Y-104825800D02*
X81457800Y-104825800D01*
X81457800Y-104825800D02*
X81457800Y-108508800D01*
X81457800Y-106222800D02*
X81965800Y-106222800D01*
X81965800Y-106222800D02*
X81965800Y-107238800D01*
X81965800Y-107238800D02*
X81457800Y-107238800D01*
X86791800Y-104825800D02*
X86791800Y-108635800D01*
D17*
X80583090Y-89565480D02*
G75*
G03X80583090Y-89565480I-159070J0D01*
G01*
X77978000Y-90424000D02*
X77978000Y-89408000D01*
X80581500Y-90424000D02*
X80581500Y-89408000D01*
X77978000Y-89408000D02*
X80581500Y-89408000D01*
X80581500Y-90424000D02*
X77978000Y-90424000D01*
X94807090Y-89565480D02*
G75*
G03X94807090Y-89565480I-159070J0D01*
G01*
X92202000Y-90424000D02*
X92202000Y-89408000D01*
X94805500Y-90424000D02*
X94805500Y-89408000D01*
X92202000Y-89408000D02*
X94805500Y-89408000D01*
X94805500Y-90424000D02*
X92202000Y-90424000D01*
D18*
X94665800Y-108508800D02*
X94665800Y-108635800D01*
X94665800Y-108635800D02*
X99999800Y-108635800D01*
X99999800Y-104825800D02*
X94665800Y-104825800D01*
X94665800Y-104825800D02*
X94665800Y-108508800D01*
X94665800Y-106222800D02*
X95173800Y-106222800D01*
X95173800Y-106222800D02*
X95173800Y-107238800D01*
X95173800Y-107238800D02*
X94665800Y-107238800D01*
X99999800Y-104825800D02*
X99999800Y-108635800D01*
D17*
X109031090Y-89565480D02*
G75*
G03X109031090Y-89565480I-159070J0D01*
G01*
X106426000Y-90424000D02*
X106426000Y-89408000D01*
X109029500Y-90424000D02*
X109029500Y-89408000D01*
X106426000Y-89408000D02*
X109029500Y-89408000D01*
X109029500Y-90424000D02*
X106426000Y-90424000D01*
D11*
X99519740Y-122295920D02*
X99420680Y-122196860D01*
X100820220Y-116296440D02*
G75*
G03X100820220Y-116296440I-398780J0D01*
G01*
X99420680Y-122196860D02*
X99420680Y-115394740D01*
X99420680Y-115394740D02*
X99519740Y-115295680D01*
X99519740Y-115295680D02*
X106321860Y-115295680D01*
X106321860Y-115295680D02*
X106420920Y-115394740D01*
X106420920Y-115394740D02*
X106420920Y-122196860D01*
X106420920Y-122196860D02*
X106321860Y-122295920D01*
X106321860Y-122295920D02*
X99519740Y-122295920D01*
D19*
X111302800Y-110032800D02*
X111302800Y-110032800D01*
X111302800Y-112572800D02*
X111302800Y-110032800D01*
X111302800Y-110032800D02*
X111302800Y-110032800D01*
X111302800Y-110032800D02*
X121462800Y-110032800D01*
X121462800Y-110032800D02*
X121462800Y-112572800D01*
X121462800Y-112572800D02*
X111302800Y-112572800D01*
X113842800Y-112572800D02*
X113842800Y-110032800D01*
D10*
X40203120Y-126428500D02*
X49204880Y-126428500D01*
X40203120Y-129928620D02*
X49204880Y-129928620D01*
X49204880Y-129928620D02*
X49204880Y-115427760D01*
X49204880Y-115427760D02*
X40203120Y-115427760D01*
X40203120Y-115427760D02*
X40203120Y-129928620D01*
X112310800Y-105245800D02*
X111310800Y-105245800D01*
X111310800Y-106945800D02*
X112310800Y-106945800D01*
X112310800Y-107531800D02*
X111310800Y-107531800D01*
X111310800Y-109231800D02*
X112310800Y-109231800D01*
X124722000Y-89749000D02*
X125722000Y-89749000D01*
X125722000Y-91099000D02*
X124722000Y-91099000D01*
X61859800Y-101642800D02*
X61859800Y-100642800D01*
X63209800Y-100642800D02*
X63209800Y-101642800D01*
X64987800Y-100642800D02*
X64987800Y-101642800D01*
X63637800Y-101642800D02*
X63637800Y-100642800D01*
X65415800Y-101642800D02*
X65415800Y-100642800D01*
X66765800Y-100642800D02*
X66765800Y-101642800D01*
X41902000Y-94655000D02*
X40902000Y-94655000D01*
X40902000Y-93305000D02*
X41902000Y-93305000D01*
X68463800Y-101642800D02*
X68463800Y-100642800D01*
X69813800Y-100642800D02*
X69813800Y-101642800D01*
X71591800Y-100642800D02*
X71591800Y-101642800D01*
X70241800Y-101642800D02*
X70241800Y-100642800D01*
X72019800Y-101642800D02*
X72019800Y-100642800D01*
X73369800Y-100642800D02*
X73369800Y-101642800D01*
X56126000Y-94655000D02*
X55126000Y-94655000D01*
X55126000Y-93305000D02*
X56126000Y-93305000D01*
X75067800Y-101642800D02*
X75067800Y-100642800D01*
X76417800Y-100642800D02*
X76417800Y-101642800D01*
X78195800Y-100642800D02*
X78195800Y-101642800D01*
X76845800Y-101642800D02*
X76845800Y-100642800D01*
X78623800Y-101642800D02*
X78623800Y-100642800D01*
X79973800Y-100642800D02*
X79973800Y-101642800D01*
X70350000Y-94655000D02*
X69350000Y-94655000D01*
X69350000Y-93305000D02*
X70350000Y-93305000D01*
X81671800Y-101642800D02*
X81671800Y-100642800D01*
X83021800Y-100642800D02*
X83021800Y-101642800D01*
X84799800Y-100642800D02*
X84799800Y-101642800D01*
X83449800Y-101642800D02*
X83449800Y-100642800D01*
X85227800Y-101642800D02*
X85227800Y-100642800D01*
X86577800Y-100642800D02*
X86577800Y-101642800D01*
X84574000Y-94909000D02*
X83574000Y-94909000D01*
X83574000Y-93559000D02*
X84574000Y-93559000D01*
X88275800Y-101642800D02*
X88275800Y-100642800D01*
X89625800Y-100642800D02*
X89625800Y-101642800D01*
X91403800Y-100642800D02*
X91403800Y-101642800D01*
X90053800Y-101642800D02*
X90053800Y-100642800D01*
X91831800Y-101642800D02*
X91831800Y-100642800D01*
X93181800Y-100642800D02*
X93181800Y-101642800D01*
X98798000Y-94909000D02*
X97798000Y-94909000D01*
X97798000Y-93559000D02*
X98798000Y-93559000D01*
X94879800Y-101642800D02*
X94879800Y-100642800D01*
X96229800Y-100642800D02*
X96229800Y-101642800D01*
X98007800Y-100642800D02*
X98007800Y-101642800D01*
X96657800Y-101642800D02*
X96657800Y-100642800D01*
X98435800Y-101642800D02*
X98435800Y-100642800D01*
X99785800Y-100642800D02*
X99785800Y-101642800D01*
X113022000Y-94909000D02*
X112022000Y-94909000D01*
X112022000Y-93559000D02*
X113022000Y-93559000D01*
X120388000Y-107355000D02*
X119388000Y-107355000D01*
X119388000Y-106005000D02*
X120388000Y-106005000D01*
D16*
X102878000Y-110324000D02*
X103878000Y-110324000D01*
X103878000Y-108624000D02*
X102878000Y-108624000D01*
X123668000Y-102116000D02*
X123668000Y-103116000D01*
X123668000Y-103116000D02*
X125768000Y-103116000D01*
X123668000Y-102116000D02*
X125768000Y-102116000D01*
X123668000Y-104148000D02*
X123668000Y-105148000D01*
X123668000Y-105148000D02*
X125768000Y-105148000D01*
X123668000Y-104148000D02*
X125768000Y-104148000D01*
X44674000Y-93480000D02*
X44674000Y-94480000D01*
X44674000Y-94480000D02*
X46774000Y-94480000D01*
X44674000Y-93480000D02*
X46774000Y-93480000D01*
X58898000Y-93480000D02*
X58898000Y-94480000D01*
X58898000Y-94480000D02*
X60998000Y-94480000D01*
X58898000Y-93480000D02*
X60998000Y-93480000D01*
X73122000Y-93480000D02*
X73122000Y-94480000D01*
X73122000Y-94480000D02*
X75222000Y-94480000D01*
X73122000Y-93480000D02*
X75222000Y-93480000D01*
X87346000Y-93734000D02*
X87346000Y-94734000D01*
X87346000Y-94734000D02*
X89446000Y-94734000D01*
X87346000Y-93734000D02*
X89446000Y-93734000D01*
X101570000Y-93734000D02*
X101570000Y-94734000D01*
X101570000Y-94734000D02*
X103670000Y-94734000D01*
X101570000Y-93734000D02*
X103670000Y-93734000D01*
X115794000Y-93734000D02*
X115794000Y-94734000D01*
X115794000Y-94734000D02*
X117894000Y-94734000D01*
X115794000Y-93734000D02*
X117894000Y-93734000D01*
X123668000Y-108212000D02*
X123668000Y-109212000D01*
X123668000Y-109212000D02*
X125768000Y-109212000D01*
X123668000Y-108212000D02*
X125768000Y-108212000D01*
X123668000Y-106180000D02*
X123668000Y-107180000D01*
X123668000Y-107180000D02*
X125768000Y-107180000D01*
X123668000Y-106180000D02*
X125768000Y-106180000D01*
D10*
X60198000Y-86868000D02*
X60198000Y-91948000D01*
X60198000Y-91948000D02*
X55626000Y-91948000D01*
X55626000Y-91948000D02*
X55626000Y-86868000D01*
X55626000Y-86868000D02*
X60198000Y-86868000D01*
X58674000Y-86868000D02*
X58674000Y-87376000D01*
X58674000Y-87376000D02*
X57404000Y-87376000D01*
X57404000Y-87376000D02*
X57404000Y-86868000D01*
X74422000Y-86868000D02*
X74422000Y-91948000D01*
X74422000Y-91948000D02*
X69850000Y-91948000D01*
X69850000Y-91948000D02*
X69850000Y-86868000D01*
X69850000Y-86868000D02*
X74422000Y-86868000D01*
X72898000Y-86868000D02*
X72898000Y-87376000D01*
X72898000Y-87376000D02*
X71628000Y-87376000D01*
X71628000Y-87376000D02*
X71628000Y-86868000D01*
X88646000Y-86868000D02*
X88646000Y-91948000D01*
X88646000Y-91948000D02*
X84074000Y-91948000D01*
X84074000Y-91948000D02*
X84074000Y-86868000D01*
X84074000Y-86868000D02*
X88646000Y-86868000D01*
X87122000Y-86868000D02*
X87122000Y-87376000D01*
X87122000Y-87376000D02*
X85852000Y-87376000D01*
X85852000Y-87376000D02*
X85852000Y-86868000D01*
X102870000Y-86868000D02*
X102870000Y-91948000D01*
X102870000Y-91948000D02*
X98298000Y-91948000D01*
X98298000Y-91948000D02*
X98298000Y-86868000D01*
X98298000Y-86868000D02*
X102870000Y-86868000D01*
X101346000Y-86868000D02*
X101346000Y-87376000D01*
X101346000Y-87376000D02*
X100076000Y-87376000D01*
X100076000Y-87376000D02*
X100076000Y-86868000D01*
X117094000Y-86868000D02*
X117094000Y-91948000D01*
X117094000Y-91948000D02*
X112522000Y-91948000D01*
X112522000Y-91948000D02*
X112522000Y-86868000D01*
X112522000Y-86868000D02*
X117094000Y-86868000D01*
X115570000Y-86868000D02*
X115570000Y-87376000D01*
X115570000Y-87376000D02*
X114300000Y-87376000D01*
X114300000Y-87376000D02*
X114300000Y-86868000D01*
D16*
X92541800Y-122574800D02*
X92541800Y-121874800D01*
X93741800Y-121874800D02*
X93741800Y-122574800D01*
X97936800Y-115077800D02*
X97236800Y-115077800D01*
X97236800Y-113877800D02*
X97936800Y-113877800D01*
X61610800Y-102824800D02*
X61610800Y-103524800D01*
X60410800Y-103524800D02*
X60410800Y-102824800D01*
X68214800Y-102824800D02*
X68214800Y-103524800D01*
X67014800Y-103524800D02*
X67014800Y-102824800D01*
X74818800Y-102824800D02*
X74818800Y-103524800D01*
X73618800Y-103524800D02*
X73618800Y-102824800D01*
X81422800Y-102824800D02*
X81422800Y-103524800D01*
X80222800Y-103524800D02*
X80222800Y-102824800D01*
X88026800Y-102824800D02*
X88026800Y-103524800D01*
X86826800Y-103524800D02*
X86826800Y-102824800D01*
X94630800Y-102824800D02*
X94630800Y-103524800D01*
X93430800Y-103524800D02*
X93430800Y-102824800D01*
X107600000Y-122590000D02*
X108300000Y-122590000D01*
X108300000Y-123790000D02*
X107600000Y-123790000D01*
X120388000Y-103296000D02*
X119388000Y-103296000D01*
X119388000Y-101936000D02*
X120388000Y-101936000D01*
X120388000Y-105328000D02*
X119388000Y-105328000D01*
X119388000Y-103968000D02*
X120388000Y-103968000D01*
X60076800Y-110532800D02*
X60076800Y-109532800D01*
X61436800Y-109532800D02*
X61436800Y-110532800D01*
X66934800Y-110532800D02*
X66934800Y-109532800D01*
X68294800Y-109532800D02*
X68294800Y-110532800D01*
X73538800Y-110532800D02*
X73538800Y-109532800D01*
X74898800Y-109532800D02*
X74898800Y-110532800D01*
X80142800Y-110532800D02*
X80142800Y-109532800D01*
X81502800Y-109532800D02*
X81502800Y-110532800D01*
X86746800Y-110532800D02*
X86746800Y-109532800D01*
X88106800Y-109532800D02*
X88106800Y-110532800D01*
X93350800Y-110532800D02*
X93350800Y-109532800D01*
X94710800Y-109532800D02*
X94710800Y-110532800D01*
X120388000Y-109392000D02*
X119388000Y-109392000D01*
X119388000Y-108032000D02*
X120388000Y-108032000D01*
X54348000Y-101258000D02*
X53348000Y-101258000D01*
X53348000Y-102958000D02*
X54348000Y-102958000D01*
X54348000Y-105836000D02*
X53348000Y-105836000D01*
X53348000Y-104476000D02*
X54348000Y-104476000D01*
X54348000Y-108884000D02*
X53348000Y-108884000D01*
X53348000Y-107524000D02*
X54348000Y-107524000D01*
D20*
X42096381Y-108592810D02*
X42028762Y-108559000D01*
X41961143Y-108491381D01*
X41859714Y-108389952D01*
X41792095Y-108356143D01*
X41724476Y-108356143D01*
X41758286Y-108525190D02*
X41690667Y-108491381D01*
X41623048Y-108423762D01*
X41589238Y-108288524D01*
X41589238Y-108051857D01*
X41623048Y-107916619D01*
X41690667Y-107849000D01*
X41758286Y-107815190D01*
X41893524Y-107815190D01*
X41961143Y-107849000D01*
X42028762Y-107916619D01*
X42062571Y-108051857D01*
X42062571Y-108288524D01*
X42028762Y-108423762D01*
X41961143Y-108491381D01*
X41893524Y-108525190D01*
X41758286Y-108525190D01*
X42738762Y-108525190D02*
X42333048Y-108525190D01*
X42535905Y-108525190D02*
X42535905Y-107815190D01*
X42468286Y-107916619D01*
X42400667Y-107984238D01*
X42333048Y-108018048D01*
X35933190Y-95639237D02*
X35933190Y-95977332D01*
X36271286Y-96011142D01*
X36237476Y-95977332D01*
X36203667Y-95909713D01*
X36203667Y-95740666D01*
X36237476Y-95673047D01*
X36271286Y-95639237D01*
X36338905Y-95605428D01*
X36507952Y-95605428D01*
X36575571Y-95639237D01*
X36609381Y-95673047D01*
X36643190Y-95740666D01*
X36643190Y-95909713D01*
X36609381Y-95977332D01*
X36575571Y-96011142D01*
X36440333Y-95334952D02*
X36440333Y-94996857D01*
X36643190Y-95402571D02*
X35933190Y-95165904D01*
X36643190Y-94929238D01*
X42808953Y-85717190D02*
X42808953Y-86291952D01*
X42842762Y-86359571D01*
X42876572Y-86393381D01*
X42944191Y-86427190D01*
X43079429Y-86427190D01*
X43147048Y-86393381D01*
X43180857Y-86359571D01*
X43214667Y-86291952D01*
X43214667Y-85717190D01*
X43924667Y-86427190D02*
X43518953Y-86427190D01*
X43721810Y-86427190D02*
X43721810Y-85717190D01*
X43654191Y-85818619D01*
X43586572Y-85886238D01*
X43518953Y-85920048D01*
X44533238Y-85717190D02*
X44398000Y-85717190D01*
X44330381Y-85751000D01*
X44296572Y-85784810D01*
X44228953Y-85886238D01*
X44195143Y-86021476D01*
X44195143Y-86291952D01*
X44228953Y-86359571D01*
X44262762Y-86393381D01*
X44330381Y-86427190D01*
X44465619Y-86427190D01*
X44533238Y-86393381D01*
X44567048Y-86359571D01*
X44600857Y-86291952D01*
X44600857Y-86122905D01*
X44567048Y-86055286D01*
X44533238Y-86021476D01*
X44465619Y-85987667D01*
X44330381Y-85987667D01*
X44262762Y-86021476D01*
X44228953Y-86055286D01*
X44195143Y-86122905D01*
X64635190Y-93250952D02*
X65209952Y-93250952D01*
X65277571Y-93217143D01*
X65311381Y-93183333D01*
X65345190Y-93115714D01*
X65345190Y-92980476D01*
X65311381Y-92912857D01*
X65277571Y-92879048D01*
X65209952Y-92845238D01*
X64635190Y-92845238D01*
X65345190Y-92473333D02*
X65345190Y-92338095D01*
X65311381Y-92270476D01*
X65277571Y-92236666D01*
X65176143Y-92169047D01*
X65040905Y-92135238D01*
X64770429Y-92135238D01*
X64702810Y-92169047D01*
X64669000Y-92202857D01*
X64635190Y-92270476D01*
X64635190Y-92405714D01*
X64669000Y-92473333D01*
X64702810Y-92507142D01*
X64770429Y-92540952D01*
X64939476Y-92540952D01*
X65007095Y-92507142D01*
X65040905Y-92473333D01*
X65074714Y-92405714D01*
X65074714Y-92270476D01*
X65040905Y-92202857D01*
X65007095Y-92169047D01*
X64939476Y-92135238D01*
X118695657Y-115442571D02*
X118661847Y-115476381D01*
X118560419Y-115510190D01*
X118492800Y-115510190D01*
X118391371Y-115476381D01*
X118323752Y-115408762D01*
X118289943Y-115341143D01*
X118256133Y-115205905D01*
X118256133Y-115104476D01*
X118289943Y-114969238D01*
X118323752Y-114901619D01*
X118391371Y-114834000D01*
X118492800Y-114800190D01*
X118560419Y-114800190D01*
X118661847Y-114834000D01*
X118695657Y-114867810D01*
X119135181Y-114800190D02*
X119270419Y-114800190D01*
X119338038Y-114834000D01*
X119405657Y-114901619D01*
X119439466Y-115036857D01*
X119439466Y-115273524D01*
X119405657Y-115408762D01*
X119338038Y-115476381D01*
X119270419Y-115510190D01*
X119135181Y-115510190D01*
X119067562Y-115476381D01*
X118999943Y-115408762D01*
X118966133Y-115273524D01*
X118966133Y-115036857D01*
X118999943Y-114901619D01*
X119067562Y-114834000D01*
X119135181Y-114800190D01*
X119743753Y-115510190D02*
X119743753Y-114800190D01*
X120149467Y-115510190D01*
X120149467Y-114800190D01*
X120453753Y-114867810D02*
X120487563Y-114834000D01*
X120555182Y-114800190D01*
X120724229Y-114800190D01*
X120791848Y-114834000D01*
X120825658Y-114867810D01*
X120859467Y-114935429D01*
X120859467Y-115003048D01*
X120825658Y-115104476D01*
X120419944Y-115510190D01*
X120859467Y-115510190D01*
X36187190Y-93250952D02*
X36761952Y-93250952D01*
X36829571Y-93217143D01*
X36863381Y-93183333D01*
X36897190Y-93115714D01*
X36897190Y-92980476D01*
X36863381Y-92912857D01*
X36829571Y-92879048D01*
X36761952Y-92845238D01*
X36187190Y-92845238D01*
X36187190Y-92169047D02*
X36187190Y-92507142D01*
X36525286Y-92540952D01*
X36491476Y-92507142D01*
X36457667Y-92439523D01*
X36457667Y-92270476D01*
X36491476Y-92202857D01*
X36525286Y-92169047D01*
X36592905Y-92135238D01*
X36761952Y-92135238D01*
X36829571Y-92169047D01*
X36863381Y-92202857D01*
X36897190Y-92270476D01*
X36897190Y-92439523D01*
X36863381Y-92507142D01*
X36829571Y-92540952D01*
X104919848Y-97705990D02*
X104919848Y-98280752D01*
X104953657Y-98348371D01*
X104987467Y-98382181D01*
X105055086Y-98415990D01*
X105190324Y-98415990D01*
X105257943Y-98382181D01*
X105291752Y-98348371D01*
X105325562Y-98280752D01*
X105325562Y-97705990D01*
X106035562Y-98415990D02*
X105629848Y-98415990D01*
X105832705Y-98415990D02*
X105832705Y-97705990D01*
X105765086Y-97807419D01*
X105697467Y-97875038D01*
X105629848Y-97908848D01*
X53898371Y-118025133D02*
X53932181Y-118058943D01*
X53965990Y-118160371D01*
X53965990Y-118227990D01*
X53932181Y-118329419D01*
X53864562Y-118397038D01*
X53796943Y-118430847D01*
X53661705Y-118464657D01*
X53560276Y-118464657D01*
X53425038Y-118430847D01*
X53357419Y-118397038D01*
X53289800Y-118329419D01*
X53255990Y-118227990D01*
X53255990Y-118160371D01*
X53289800Y-118058943D01*
X53323610Y-118025133D01*
X53255990Y-117788466D02*
X53255990Y-117348943D01*
X53526467Y-117585609D01*
X53526467Y-117484181D01*
X53560276Y-117416562D01*
X53594086Y-117382752D01*
X53661705Y-117348943D01*
X53830752Y-117348943D01*
X53898371Y-117382752D01*
X53932181Y-117416562D01*
X53965990Y-117484181D01*
X53965990Y-117687038D01*
X53932181Y-117754657D01*
X53898371Y-117788466D01*
X122969381Y-95180666D02*
X123003190Y-95079237D01*
X123003190Y-94910190D01*
X122969381Y-94842571D01*
X122935571Y-94808761D01*
X122867952Y-94774952D01*
X122800333Y-94774952D01*
X122732714Y-94808761D01*
X122698905Y-94842571D01*
X122665095Y-94910190D01*
X122631286Y-95045428D01*
X122597476Y-95113047D01*
X122563667Y-95146856D01*
X122496048Y-95180666D01*
X122428429Y-95180666D01*
X122360810Y-95146856D01*
X122327000Y-95113047D01*
X122293190Y-95045428D01*
X122293190Y-94876380D01*
X122327000Y-94774952D01*
X122293190Y-94538285D02*
X123003190Y-94369238D01*
X122496048Y-94234000D01*
X123003190Y-94098762D01*
X122293190Y-93929714D01*
X123003190Y-93287333D02*
X123003190Y-93693047D01*
X123003190Y-93490190D02*
X122293190Y-93490190D01*
X122394619Y-93557809D01*
X122462238Y-93625428D01*
X122496048Y-93693047D01*
X54288467Y-123307990D02*
X54051800Y-122969895D01*
X53882753Y-123307990D02*
X53882753Y-122597990D01*
X54153229Y-122597990D01*
X54220848Y-122631800D01*
X54254657Y-122665610D01*
X54288467Y-122733229D01*
X54288467Y-122834657D01*
X54254657Y-122902276D01*
X54220848Y-122936086D01*
X54153229Y-122969895D01*
X53882753Y-122969895D01*
X54558943Y-122665610D02*
X54592753Y-122631800D01*
X54660372Y-122597990D01*
X54829419Y-122597990D01*
X54897038Y-122631800D01*
X54930848Y-122665610D01*
X54964657Y-122733229D01*
X54964657Y-122800848D01*
X54930848Y-122902276D01*
X54525134Y-123307990D01*
X54964657Y-123307990D01*
X87114190Y-108829047D02*
X87688952Y-108829047D01*
X87756571Y-108795238D01*
X87790381Y-108761428D01*
X87824190Y-108693809D01*
X87824190Y-108558571D01*
X87790381Y-108490952D01*
X87756571Y-108457143D01*
X87688952Y-108423333D01*
X87114190Y-108423333D01*
X87824190Y-107713333D02*
X87824190Y-108119047D01*
X87824190Y-107916190D02*
X87114190Y-107916190D01*
X87215619Y-107983809D01*
X87283238Y-108051428D01*
X87317048Y-108119047D01*
X87181810Y-107442857D02*
X87148000Y-107409047D01*
X87114190Y-107341428D01*
X87114190Y-107172381D01*
X87148000Y-107104762D01*
X87181810Y-107070952D01*
X87249429Y-107037143D01*
X87317048Y-107037143D01*
X87418476Y-107070952D01*
X87824190Y-107476666D01*
X87824190Y-107037143D01*
X90568848Y-112691990D02*
X90568848Y-113266752D01*
X90602657Y-113334371D01*
X90636467Y-113368181D01*
X90704086Y-113401990D01*
X90839324Y-113401990D01*
X90906943Y-113368181D01*
X90940752Y-113334371D01*
X90974562Y-113266752D01*
X90974562Y-112691990D01*
X91245039Y-112691990D02*
X91684562Y-112691990D01*
X91447896Y-112962467D01*
X91549324Y-112962467D01*
X91616943Y-112996276D01*
X91650753Y-113030086D01*
X91684562Y-113097705D01*
X91684562Y-113266752D01*
X91650753Y-113334371D01*
X91616943Y-113368181D01*
X91549324Y-113401990D01*
X91346467Y-113401990D01*
X91278848Y-113368181D01*
X91245039Y-113334371D01*
X60698190Y-108490952D02*
X61272952Y-108490952D01*
X61340571Y-108457143D01*
X61374381Y-108423333D01*
X61408190Y-108355714D01*
X61408190Y-108220476D01*
X61374381Y-108152857D01*
X61340571Y-108119048D01*
X61272952Y-108085238D01*
X60698190Y-108085238D01*
X60934857Y-107442857D02*
X61408190Y-107442857D01*
X60664381Y-107611904D02*
X61171524Y-107780952D01*
X61171524Y-107341428D01*
X67302190Y-108490952D02*
X67876952Y-108490952D01*
X67944571Y-108457143D01*
X67978381Y-108423333D01*
X68012190Y-108355714D01*
X68012190Y-108220476D01*
X67978381Y-108152857D01*
X67944571Y-108119048D01*
X67876952Y-108085238D01*
X67302190Y-108085238D01*
X67302190Y-107442857D02*
X67302190Y-107578095D01*
X67336000Y-107645714D01*
X67369810Y-107679523D01*
X67471238Y-107747142D01*
X67606476Y-107780952D01*
X67876952Y-107780952D01*
X67944571Y-107747142D01*
X67978381Y-107713333D01*
X68012190Y-107645714D01*
X68012190Y-107510476D01*
X67978381Y-107442857D01*
X67944571Y-107409047D01*
X67876952Y-107375238D01*
X67707905Y-107375238D01*
X67640286Y-107409047D01*
X67606476Y-107442857D01*
X67572667Y-107510476D01*
X67572667Y-107645714D01*
X67606476Y-107713333D01*
X67640286Y-107747142D01*
X67707905Y-107780952D01*
X50411190Y-93250952D02*
X50985952Y-93250952D01*
X51053571Y-93217143D01*
X51087381Y-93183333D01*
X51121190Y-93115714D01*
X51121190Y-92980476D01*
X51087381Y-92912857D01*
X51053571Y-92879048D01*
X50985952Y-92845238D01*
X50411190Y-92845238D01*
X50411190Y-92574761D02*
X50411190Y-92101428D01*
X51121190Y-92405714D01*
X73906190Y-108490952D02*
X74480952Y-108490952D01*
X74548571Y-108457143D01*
X74582381Y-108423333D01*
X74616190Y-108355714D01*
X74616190Y-108220476D01*
X74582381Y-108152857D01*
X74548571Y-108119048D01*
X74480952Y-108085238D01*
X73906190Y-108085238D01*
X74210476Y-107645714D02*
X74176667Y-107713333D01*
X74142857Y-107747142D01*
X74075238Y-107780952D01*
X74041429Y-107780952D01*
X73973810Y-107747142D01*
X73940000Y-107713333D01*
X73906190Y-107645714D01*
X73906190Y-107510476D01*
X73940000Y-107442857D01*
X73973810Y-107409047D01*
X74041429Y-107375238D01*
X74075238Y-107375238D01*
X74142857Y-107409047D01*
X74176667Y-107442857D01*
X74210476Y-107510476D01*
X74210476Y-107645714D01*
X74244286Y-107713333D01*
X74278095Y-107747142D01*
X74345714Y-107780952D01*
X74480952Y-107780952D01*
X74548571Y-107747142D01*
X74582381Y-107713333D01*
X74616190Y-107645714D01*
X74616190Y-107510476D01*
X74582381Y-107442857D01*
X74548571Y-107409047D01*
X74480952Y-107375238D01*
X74345714Y-107375238D01*
X74278095Y-107409047D01*
X74244286Y-107442857D01*
X74210476Y-107510476D01*
X80510190Y-108702047D02*
X81084952Y-108702047D01*
X81152571Y-108668238D01*
X81186381Y-108634428D01*
X81220190Y-108566809D01*
X81220190Y-108431571D01*
X81186381Y-108363952D01*
X81152571Y-108330143D01*
X81084952Y-108296333D01*
X80510190Y-108296333D01*
X81220190Y-107586333D02*
X81220190Y-107992047D01*
X81220190Y-107789190D02*
X80510190Y-107789190D01*
X80611619Y-107856809D01*
X80679238Y-107924428D01*
X80713048Y-107992047D01*
X80510190Y-107146809D02*
X80510190Y-107079190D01*
X80544000Y-107011571D01*
X80577810Y-106977762D01*
X80645429Y-106943952D01*
X80780667Y-106910143D01*
X80949714Y-106910143D01*
X81084952Y-106943952D01*
X81152571Y-106977762D01*
X81186381Y-107011571D01*
X81220190Y-107079190D01*
X81220190Y-107146809D01*
X81186381Y-107214428D01*
X81152571Y-107248238D01*
X81084952Y-107282047D01*
X80949714Y-107315857D01*
X80780667Y-107315857D01*
X80645429Y-107282047D01*
X80577810Y-107248238D01*
X80544000Y-107214428D01*
X80510190Y-107146809D01*
X78859190Y-94097047D02*
X79433952Y-94097047D01*
X79501571Y-94063238D01*
X79535381Y-94029428D01*
X79569190Y-93961809D01*
X79569190Y-93826571D01*
X79535381Y-93758952D01*
X79501571Y-93725143D01*
X79433952Y-93691333D01*
X78859190Y-93691333D01*
X79569190Y-92981333D02*
X79569190Y-93387047D01*
X79569190Y-93184190D02*
X78859190Y-93184190D01*
X78960619Y-93251809D01*
X79028238Y-93319428D01*
X79062048Y-93387047D01*
X79569190Y-92305143D02*
X79569190Y-92710857D01*
X79569190Y-92508000D02*
X78859190Y-92508000D01*
X78960619Y-92575619D01*
X79028238Y-92643238D01*
X79062048Y-92710857D01*
X93083190Y-94097047D02*
X93657952Y-94097047D01*
X93725571Y-94063238D01*
X93759381Y-94029428D01*
X93793190Y-93961809D01*
X93793190Y-93826571D01*
X93759381Y-93758952D01*
X93725571Y-93725143D01*
X93657952Y-93691333D01*
X93083190Y-93691333D01*
X93793190Y-92981333D02*
X93793190Y-93387047D01*
X93793190Y-93184190D02*
X93083190Y-93184190D01*
X93184619Y-93251809D01*
X93252238Y-93319428D01*
X93286048Y-93387047D01*
X93083190Y-92744666D02*
X93083190Y-92305143D01*
X93353667Y-92541809D01*
X93353667Y-92440381D01*
X93387476Y-92372762D01*
X93421286Y-92338952D01*
X93488905Y-92305143D01*
X93657952Y-92305143D01*
X93725571Y-92338952D01*
X93759381Y-92372762D01*
X93793190Y-92440381D01*
X93793190Y-92643238D01*
X93759381Y-92710857D01*
X93725571Y-92744666D01*
X93718190Y-108702047D02*
X94292952Y-108702047D01*
X94360571Y-108668238D01*
X94394381Y-108634428D01*
X94428190Y-108566809D01*
X94428190Y-108431571D01*
X94394381Y-108363952D01*
X94360571Y-108330143D01*
X94292952Y-108296333D01*
X93718190Y-108296333D01*
X94428190Y-107586333D02*
X94428190Y-107992047D01*
X94428190Y-107789190D02*
X93718190Y-107789190D01*
X93819619Y-107856809D01*
X93887238Y-107924428D01*
X93921048Y-107992047D01*
X93954857Y-106977762D02*
X94428190Y-106977762D01*
X93684381Y-107146809D02*
X94191524Y-107315857D01*
X94191524Y-106876333D01*
X107307190Y-94097047D02*
X107881952Y-94097047D01*
X107949571Y-94063238D01*
X107983381Y-94029428D01*
X108017190Y-93961809D01*
X108017190Y-93826571D01*
X107983381Y-93758952D01*
X107949571Y-93725143D01*
X107881952Y-93691333D01*
X107307190Y-93691333D01*
X108017190Y-92981333D02*
X108017190Y-93387047D01*
X108017190Y-93184190D02*
X107307190Y-93184190D01*
X107408619Y-93251809D01*
X107476238Y-93319428D01*
X107510048Y-93387047D01*
X107307190Y-92338952D02*
X107307190Y-92677047D01*
X107645286Y-92710857D01*
X107611476Y-92677047D01*
X107577667Y-92609428D01*
X107577667Y-92440381D01*
X107611476Y-92372762D01*
X107645286Y-92338952D01*
X107712905Y-92305143D01*
X107881952Y-92305143D01*
X107949571Y-92338952D01*
X107983381Y-92372762D01*
X108017190Y-92440381D01*
X108017190Y-92609428D01*
X107983381Y-92677047D01*
X107949571Y-92710857D01*
X97807848Y-122597990D02*
X97807848Y-123172752D01*
X97841657Y-123240371D01*
X97875467Y-123274181D01*
X97943086Y-123307990D01*
X98078324Y-123307990D01*
X98145943Y-123274181D01*
X98179752Y-123240371D01*
X98213562Y-123172752D01*
X98213562Y-122597990D01*
X98517848Y-122665610D02*
X98551658Y-122631800D01*
X98619277Y-122597990D01*
X98788324Y-122597990D01*
X98855943Y-122631800D01*
X98889753Y-122665610D01*
X98923562Y-122733229D01*
X98923562Y-122800848D01*
X98889753Y-122902276D01*
X98484039Y-123307990D01*
X98923562Y-123307990D01*
X47397857Y-115061571D02*
X47364047Y-115095381D01*
X47262619Y-115129190D01*
X47195000Y-115129190D01*
X47093571Y-115095381D01*
X47025952Y-115027762D01*
X46992143Y-114960143D01*
X46958333Y-114824905D01*
X46958333Y-114723476D01*
X46992143Y-114588238D01*
X47025952Y-114520619D01*
X47093571Y-114453000D01*
X47195000Y-114419190D01*
X47262619Y-114419190D01*
X47364047Y-114453000D01*
X47397857Y-114486810D01*
X47837381Y-114419190D02*
X47972619Y-114419190D01*
X48040238Y-114453000D01*
X48107857Y-114520619D01*
X48141666Y-114655857D01*
X48141666Y-114892524D01*
X48107857Y-115027762D01*
X48040238Y-115095381D01*
X47972619Y-115129190D01*
X47837381Y-115129190D01*
X47769762Y-115095381D01*
X47702143Y-115027762D01*
X47668333Y-114892524D01*
X47668333Y-114655857D01*
X47702143Y-114520619D01*
X47769762Y-114453000D01*
X47837381Y-114419190D01*
X48445953Y-115129190D02*
X48445953Y-114419190D01*
X48851667Y-115129190D01*
X48851667Y-114419190D01*
X49561667Y-115129190D02*
X49155953Y-115129190D01*
X49358810Y-115129190D02*
X49358810Y-114419190D01*
X49291191Y-114520619D01*
X49223572Y-114588238D01*
X49155953Y-114622048D01*
X114181667Y-106171571D02*
X114147857Y-106205381D01*
X114046429Y-106239190D01*
X113978810Y-106239190D01*
X113877381Y-106205381D01*
X113809762Y-106137762D01*
X113775953Y-106070143D01*
X113742143Y-105934905D01*
X113742143Y-105833476D01*
X113775953Y-105698238D01*
X113809762Y-105630619D01*
X113877381Y-105563000D01*
X113978810Y-105529190D01*
X114046429Y-105529190D01*
X114147857Y-105563000D01*
X114181667Y-105596810D01*
X114452143Y-105596810D02*
X114485953Y-105563000D01*
X114553572Y-105529190D01*
X114722619Y-105529190D01*
X114790238Y-105563000D01*
X114824048Y-105596810D01*
X114857857Y-105664429D01*
X114857857Y-105732048D01*
X114824048Y-105833476D01*
X114418334Y-106239190D01*
X114857857Y-106239190D01*
X114181667Y-108711571D02*
X114147857Y-108745381D01*
X114046429Y-108779190D01*
X113978810Y-108779190D01*
X113877381Y-108745381D01*
X113809762Y-108677762D01*
X113775953Y-108610143D01*
X113742143Y-108474905D01*
X113742143Y-108373476D01*
X113775953Y-108238238D01*
X113809762Y-108170619D01*
X113877381Y-108103000D01*
X113978810Y-108069190D01*
X114046429Y-108069190D01*
X114147857Y-108103000D01*
X114181667Y-108136810D01*
X114790238Y-108305857D02*
X114790238Y-108779190D01*
X114621191Y-108035381D02*
X114452143Y-108542524D01*
X114891667Y-108542524D01*
X122944667Y-90745190D02*
X122708000Y-90407095D01*
X122538953Y-90745190D02*
X122538953Y-90035190D01*
X122809429Y-90035190D01*
X122877048Y-90069000D01*
X122910857Y-90102810D01*
X122944667Y-90170429D01*
X122944667Y-90271857D01*
X122910857Y-90339476D01*
X122877048Y-90373286D01*
X122809429Y-90407095D01*
X122538953Y-90407095D01*
X123181334Y-90035190D02*
X123620857Y-90035190D01*
X123384191Y-90305667D01*
X123485619Y-90305667D01*
X123553238Y-90339476D01*
X123587048Y-90373286D01*
X123620857Y-90440905D01*
X123620857Y-90609952D01*
X123587048Y-90677571D01*
X123553238Y-90711381D01*
X123485619Y-90745190D01*
X123282762Y-90745190D01*
X123215143Y-90711381D01*
X123181334Y-90677571D01*
X62855990Y-99229133D02*
X62517895Y-99465800D01*
X62855990Y-99634847D02*
X62145990Y-99634847D01*
X62145990Y-99364371D01*
X62179800Y-99296752D01*
X62213610Y-99262943D01*
X62281229Y-99229133D01*
X62382657Y-99229133D01*
X62450276Y-99262943D01*
X62484086Y-99296752D01*
X62517895Y-99364371D01*
X62517895Y-99634847D01*
X62145990Y-98992466D02*
X62145990Y-98519133D01*
X62855990Y-98823419D01*
X64633990Y-99229133D02*
X64295895Y-99465800D01*
X64633990Y-99634847D02*
X63923990Y-99634847D01*
X63923990Y-99364371D01*
X63957800Y-99296752D01*
X63991610Y-99262943D01*
X64059229Y-99229133D01*
X64160657Y-99229133D01*
X64228276Y-99262943D01*
X64262086Y-99296752D01*
X64295895Y-99364371D01*
X64295895Y-99634847D01*
X64228276Y-98823419D02*
X64194467Y-98891038D01*
X64160657Y-98924847D01*
X64093038Y-98958657D01*
X64059229Y-98958657D01*
X63991610Y-98924847D01*
X63957800Y-98891038D01*
X63923990Y-98823419D01*
X63923990Y-98688181D01*
X63957800Y-98620562D01*
X63991610Y-98586752D01*
X64059229Y-98552943D01*
X64093038Y-98552943D01*
X64160657Y-98586752D01*
X64194467Y-98620562D01*
X64228276Y-98688181D01*
X64228276Y-98823419D01*
X64262086Y-98891038D01*
X64295895Y-98924847D01*
X64363514Y-98958657D01*
X64498752Y-98958657D01*
X64566371Y-98924847D01*
X64600181Y-98891038D01*
X64633990Y-98823419D01*
X64633990Y-98688181D01*
X64600181Y-98620562D01*
X64566371Y-98586752D01*
X64498752Y-98552943D01*
X64363514Y-98552943D01*
X64295895Y-98586752D01*
X64262086Y-98620562D01*
X64228276Y-98688181D01*
X66411990Y-99229133D02*
X66073895Y-99465800D01*
X66411990Y-99634847D02*
X65701990Y-99634847D01*
X65701990Y-99364371D01*
X65735800Y-99296752D01*
X65769610Y-99262943D01*
X65837229Y-99229133D01*
X65938657Y-99229133D01*
X66006276Y-99262943D01*
X66040086Y-99296752D01*
X66073895Y-99364371D01*
X66073895Y-99634847D01*
X66411990Y-98891038D02*
X66411990Y-98755800D01*
X66378181Y-98688181D01*
X66344371Y-98654371D01*
X66242943Y-98586752D01*
X66107705Y-98552943D01*
X65837229Y-98552943D01*
X65769610Y-98586752D01*
X65735800Y-98620562D01*
X65701990Y-98688181D01*
X65701990Y-98823419D01*
X65735800Y-98891038D01*
X65769610Y-98924847D01*
X65837229Y-98958657D01*
X66006276Y-98958657D01*
X66073895Y-98924847D01*
X66107705Y-98891038D01*
X66141514Y-98823419D01*
X66141514Y-98688181D01*
X66107705Y-98620562D01*
X66073895Y-98586752D01*
X66006276Y-98552943D01*
X40945572Y-93031190D02*
X40708905Y-92693095D01*
X40539858Y-93031190D02*
X40539858Y-92321190D01*
X40810334Y-92321190D01*
X40877953Y-92355000D01*
X40911762Y-92388810D01*
X40945572Y-92456429D01*
X40945572Y-92557857D01*
X40911762Y-92625476D01*
X40877953Y-92659286D01*
X40810334Y-92693095D01*
X40539858Y-92693095D01*
X41621762Y-93031190D02*
X41216048Y-93031190D01*
X41418905Y-93031190D02*
X41418905Y-92321190D01*
X41351286Y-92422619D01*
X41283667Y-92490238D01*
X41216048Y-92524048D01*
X42297952Y-93031190D02*
X41892238Y-93031190D01*
X42095095Y-93031190D02*
X42095095Y-92321190D01*
X42027476Y-92422619D01*
X41959857Y-92490238D01*
X41892238Y-92524048D01*
X69459990Y-99186228D02*
X69121895Y-99422895D01*
X69459990Y-99591942D02*
X68749990Y-99591942D01*
X68749990Y-99321466D01*
X68783800Y-99253847D01*
X68817610Y-99220038D01*
X68885229Y-99186228D01*
X68986657Y-99186228D01*
X69054276Y-99220038D01*
X69088086Y-99253847D01*
X69121895Y-99321466D01*
X69121895Y-99591942D01*
X69459990Y-98510038D02*
X69459990Y-98915752D01*
X69459990Y-98712895D02*
X68749990Y-98712895D01*
X68851419Y-98780514D01*
X68919038Y-98848133D01*
X68952848Y-98915752D01*
X68749990Y-98273371D02*
X68749990Y-97833848D01*
X69020467Y-98070514D01*
X69020467Y-97969086D01*
X69054276Y-97901467D01*
X69088086Y-97867657D01*
X69155705Y-97833848D01*
X69324752Y-97833848D01*
X69392371Y-97867657D01*
X69426181Y-97901467D01*
X69459990Y-97969086D01*
X69459990Y-98171943D01*
X69426181Y-98239562D01*
X69392371Y-98273371D01*
X71237990Y-99186228D02*
X70899895Y-99422895D01*
X71237990Y-99591942D02*
X70527990Y-99591942D01*
X70527990Y-99321466D01*
X70561800Y-99253847D01*
X70595610Y-99220038D01*
X70663229Y-99186228D01*
X70764657Y-99186228D01*
X70832276Y-99220038D01*
X70866086Y-99253847D01*
X70899895Y-99321466D01*
X70899895Y-99591942D01*
X71237990Y-98510038D02*
X71237990Y-98915752D01*
X71237990Y-98712895D02*
X70527990Y-98712895D01*
X70629419Y-98780514D01*
X70697038Y-98848133D01*
X70730848Y-98915752D01*
X70764657Y-97901467D02*
X71237990Y-97901467D01*
X70494181Y-98070514D02*
X71001324Y-98239562D01*
X71001324Y-97800038D01*
X73015990Y-99186228D02*
X72677895Y-99422895D01*
X73015990Y-99591942D02*
X72305990Y-99591942D01*
X72305990Y-99321466D01*
X72339800Y-99253847D01*
X72373610Y-99220038D01*
X72441229Y-99186228D01*
X72542657Y-99186228D01*
X72610276Y-99220038D01*
X72644086Y-99253847D01*
X72677895Y-99321466D01*
X72677895Y-99591942D01*
X73015990Y-98510038D02*
X73015990Y-98915752D01*
X73015990Y-98712895D02*
X72305990Y-98712895D01*
X72407419Y-98780514D01*
X72475038Y-98848133D01*
X72508848Y-98915752D01*
X72305990Y-97867657D02*
X72305990Y-98205752D01*
X72644086Y-98239562D01*
X72610276Y-98205752D01*
X72576467Y-98138133D01*
X72576467Y-97969086D01*
X72610276Y-97901467D01*
X72644086Y-97867657D01*
X72711705Y-97833848D01*
X72880752Y-97833848D01*
X72948371Y-97867657D01*
X72982181Y-97901467D01*
X73015990Y-97969086D01*
X73015990Y-98138133D01*
X72982181Y-98205752D01*
X72948371Y-98239562D01*
X55169572Y-93031190D02*
X54932905Y-92693095D01*
X54763858Y-93031190D02*
X54763858Y-92321190D01*
X55034334Y-92321190D01*
X55101953Y-92355000D01*
X55135762Y-92388810D01*
X55169572Y-92456429D01*
X55169572Y-92557857D01*
X55135762Y-92625476D01*
X55101953Y-92659286D01*
X55034334Y-92693095D01*
X54763858Y-92693095D01*
X55845762Y-93031190D02*
X55440048Y-93031190D01*
X55642905Y-93031190D02*
X55642905Y-92321190D01*
X55575286Y-92422619D01*
X55507667Y-92490238D01*
X55440048Y-92524048D01*
X56082429Y-92321190D02*
X56555762Y-92321190D01*
X56251476Y-93031190D01*
X76063990Y-99186228D02*
X75725895Y-99422895D01*
X76063990Y-99591942D02*
X75353990Y-99591942D01*
X75353990Y-99321466D01*
X75387800Y-99253847D01*
X75421610Y-99220038D01*
X75489229Y-99186228D01*
X75590657Y-99186228D01*
X75658276Y-99220038D01*
X75692086Y-99253847D01*
X75725895Y-99321466D01*
X75725895Y-99591942D01*
X76063990Y-98510038D02*
X76063990Y-98915752D01*
X76063990Y-98712895D02*
X75353990Y-98712895D01*
X75455419Y-98780514D01*
X75523038Y-98848133D01*
X75556848Y-98915752D01*
X76063990Y-98171943D02*
X76063990Y-98036705D01*
X76030181Y-97969086D01*
X75996371Y-97935276D01*
X75894943Y-97867657D01*
X75759705Y-97833848D01*
X75489229Y-97833848D01*
X75421610Y-97867657D01*
X75387800Y-97901467D01*
X75353990Y-97969086D01*
X75353990Y-98104324D01*
X75387800Y-98171943D01*
X75421610Y-98205752D01*
X75489229Y-98239562D01*
X75658276Y-98239562D01*
X75725895Y-98205752D01*
X75759705Y-98171943D01*
X75793514Y-98104324D01*
X75793514Y-97969086D01*
X75759705Y-97901467D01*
X75725895Y-97867657D01*
X75658276Y-97833848D01*
X77841990Y-99186228D02*
X77503895Y-99422895D01*
X77841990Y-99591942D02*
X77131990Y-99591942D01*
X77131990Y-99321466D01*
X77165800Y-99253847D01*
X77199610Y-99220038D01*
X77267229Y-99186228D01*
X77368657Y-99186228D01*
X77436276Y-99220038D01*
X77470086Y-99253847D01*
X77503895Y-99321466D01*
X77503895Y-99591942D01*
X77199610Y-98915752D02*
X77165800Y-98881942D01*
X77131990Y-98814323D01*
X77131990Y-98645276D01*
X77165800Y-98577657D01*
X77199610Y-98543847D01*
X77267229Y-98510038D01*
X77334848Y-98510038D01*
X77436276Y-98543847D01*
X77841990Y-98949561D01*
X77841990Y-98510038D01*
X77131990Y-98070514D02*
X77131990Y-98002895D01*
X77165800Y-97935276D01*
X77199610Y-97901467D01*
X77267229Y-97867657D01*
X77402467Y-97833848D01*
X77571514Y-97833848D01*
X77706752Y-97867657D01*
X77774371Y-97901467D01*
X77808181Y-97935276D01*
X77841990Y-98002895D01*
X77841990Y-98070514D01*
X77808181Y-98138133D01*
X77774371Y-98171943D01*
X77706752Y-98205752D01*
X77571514Y-98239562D01*
X77402467Y-98239562D01*
X77267229Y-98205752D01*
X77199610Y-98171943D01*
X77165800Y-98138133D01*
X77131990Y-98070514D01*
X79619990Y-99186228D02*
X79281895Y-99422895D01*
X79619990Y-99591942D02*
X78909990Y-99591942D01*
X78909990Y-99321466D01*
X78943800Y-99253847D01*
X78977610Y-99220038D01*
X79045229Y-99186228D01*
X79146657Y-99186228D01*
X79214276Y-99220038D01*
X79248086Y-99253847D01*
X79281895Y-99321466D01*
X79281895Y-99591942D01*
X78977610Y-98915752D02*
X78943800Y-98881942D01*
X78909990Y-98814323D01*
X78909990Y-98645276D01*
X78943800Y-98577657D01*
X78977610Y-98543847D01*
X79045229Y-98510038D01*
X79112848Y-98510038D01*
X79214276Y-98543847D01*
X79619990Y-98949561D01*
X79619990Y-98510038D01*
X79619990Y-97833848D02*
X79619990Y-98239562D01*
X79619990Y-98036705D02*
X78909990Y-98036705D01*
X79011419Y-98104324D01*
X79079038Y-98171943D01*
X79112848Y-98239562D01*
X69393572Y-93031190D02*
X69156905Y-92693095D01*
X68987858Y-93031190D02*
X68987858Y-92321190D01*
X69258334Y-92321190D01*
X69325953Y-92355000D01*
X69359762Y-92388810D01*
X69393572Y-92456429D01*
X69393572Y-92557857D01*
X69359762Y-92625476D01*
X69325953Y-92659286D01*
X69258334Y-92693095D01*
X68987858Y-92693095D01*
X69664048Y-92388810D02*
X69697858Y-92355000D01*
X69765477Y-92321190D01*
X69934524Y-92321190D01*
X70002143Y-92355000D01*
X70035953Y-92388810D01*
X70069762Y-92456429D01*
X70069762Y-92524048D01*
X70035953Y-92625476D01*
X69630239Y-93031190D01*
X70069762Y-93031190D01*
X70306429Y-92321190D02*
X70745952Y-92321190D01*
X70509286Y-92591667D01*
X70610714Y-92591667D01*
X70678333Y-92625476D01*
X70712143Y-92659286D01*
X70745952Y-92726905D01*
X70745952Y-92895952D01*
X70712143Y-92963571D01*
X70678333Y-92997381D01*
X70610714Y-93031190D01*
X70407857Y-93031190D01*
X70340238Y-92997381D01*
X70306429Y-92963571D01*
X82667990Y-99186228D02*
X82329895Y-99422895D01*
X82667990Y-99591942D02*
X81957990Y-99591942D01*
X81957990Y-99321466D01*
X81991800Y-99253847D01*
X82025610Y-99220038D01*
X82093229Y-99186228D01*
X82194657Y-99186228D01*
X82262276Y-99220038D01*
X82296086Y-99253847D01*
X82329895Y-99321466D01*
X82329895Y-99591942D01*
X82025610Y-98915752D02*
X81991800Y-98881942D01*
X81957990Y-98814323D01*
X81957990Y-98645276D01*
X81991800Y-98577657D01*
X82025610Y-98543847D01*
X82093229Y-98510038D01*
X82160848Y-98510038D01*
X82262276Y-98543847D01*
X82667990Y-98949561D01*
X82667990Y-98510038D01*
X81957990Y-97867657D02*
X81957990Y-98205752D01*
X82296086Y-98239562D01*
X82262276Y-98205752D01*
X82228467Y-98138133D01*
X82228467Y-97969086D01*
X82262276Y-97901467D01*
X82296086Y-97867657D01*
X82363705Y-97833848D01*
X82532752Y-97833848D01*
X82600371Y-97867657D01*
X82634181Y-97901467D01*
X82667990Y-97969086D01*
X82667990Y-98138133D01*
X82634181Y-98205752D01*
X82600371Y-98239562D01*
X84445990Y-99186228D02*
X84107895Y-99422895D01*
X84445990Y-99591942D02*
X83735990Y-99591942D01*
X83735990Y-99321466D01*
X83769800Y-99253847D01*
X83803610Y-99220038D01*
X83871229Y-99186228D01*
X83972657Y-99186228D01*
X84040276Y-99220038D01*
X84074086Y-99253847D01*
X84107895Y-99321466D01*
X84107895Y-99591942D01*
X83803610Y-98915752D02*
X83769800Y-98881942D01*
X83735990Y-98814323D01*
X83735990Y-98645276D01*
X83769800Y-98577657D01*
X83803610Y-98543847D01*
X83871229Y-98510038D01*
X83938848Y-98510038D01*
X84040276Y-98543847D01*
X84445990Y-98949561D01*
X84445990Y-98510038D01*
X83735990Y-97901467D02*
X83735990Y-98036705D01*
X83769800Y-98104324D01*
X83803610Y-98138133D01*
X83905038Y-98205752D01*
X84040276Y-98239562D01*
X84310752Y-98239562D01*
X84378371Y-98205752D01*
X84412181Y-98171943D01*
X84445990Y-98104324D01*
X84445990Y-97969086D01*
X84412181Y-97901467D01*
X84378371Y-97867657D01*
X84310752Y-97833848D01*
X84141705Y-97833848D01*
X84074086Y-97867657D01*
X84040276Y-97901467D01*
X84006467Y-97969086D01*
X84006467Y-98104324D01*
X84040276Y-98171943D01*
X84074086Y-98205752D01*
X84141705Y-98239562D01*
X86223990Y-99186228D02*
X85885895Y-99422895D01*
X86223990Y-99591942D02*
X85513990Y-99591942D01*
X85513990Y-99321466D01*
X85547800Y-99253847D01*
X85581610Y-99220038D01*
X85649229Y-99186228D01*
X85750657Y-99186228D01*
X85818276Y-99220038D01*
X85852086Y-99253847D01*
X85885895Y-99321466D01*
X85885895Y-99591942D01*
X85581610Y-98915752D02*
X85547800Y-98881942D01*
X85513990Y-98814323D01*
X85513990Y-98645276D01*
X85547800Y-98577657D01*
X85581610Y-98543847D01*
X85649229Y-98510038D01*
X85716848Y-98510038D01*
X85818276Y-98543847D01*
X86223990Y-98949561D01*
X86223990Y-98510038D01*
X85513990Y-98273371D02*
X85513990Y-97800038D01*
X86223990Y-98104324D01*
X83617572Y-93285190D02*
X83380905Y-92947095D01*
X83211858Y-93285190D02*
X83211858Y-92575190D01*
X83482334Y-92575190D01*
X83549953Y-92609000D01*
X83583762Y-92642810D01*
X83617572Y-92710429D01*
X83617572Y-92811857D01*
X83583762Y-92879476D01*
X83549953Y-92913286D01*
X83482334Y-92947095D01*
X83211858Y-92947095D01*
X83888048Y-92642810D02*
X83921858Y-92609000D01*
X83989477Y-92575190D01*
X84158524Y-92575190D01*
X84226143Y-92609000D01*
X84259953Y-92642810D01*
X84293762Y-92710429D01*
X84293762Y-92778048D01*
X84259953Y-92879476D01*
X83854239Y-93285190D01*
X84293762Y-93285190D01*
X84631857Y-93285190D02*
X84767095Y-93285190D01*
X84834714Y-93251381D01*
X84868524Y-93217571D01*
X84936143Y-93116143D01*
X84969952Y-92980905D01*
X84969952Y-92710429D01*
X84936143Y-92642810D01*
X84902333Y-92609000D01*
X84834714Y-92575190D01*
X84699476Y-92575190D01*
X84631857Y-92609000D01*
X84598048Y-92642810D01*
X84564238Y-92710429D01*
X84564238Y-92879476D01*
X84598048Y-92947095D01*
X84631857Y-92980905D01*
X84699476Y-93014714D01*
X84834714Y-93014714D01*
X84902333Y-92980905D01*
X84936143Y-92947095D01*
X84969952Y-92879476D01*
X89271990Y-99186228D02*
X88933895Y-99422895D01*
X89271990Y-99591942D02*
X88561990Y-99591942D01*
X88561990Y-99321466D01*
X88595800Y-99253847D01*
X88629610Y-99220038D01*
X88697229Y-99186228D01*
X88798657Y-99186228D01*
X88866276Y-99220038D01*
X88900086Y-99253847D01*
X88933895Y-99321466D01*
X88933895Y-99591942D01*
X88561990Y-98949561D02*
X88561990Y-98510038D01*
X88832467Y-98746704D01*
X88832467Y-98645276D01*
X88866276Y-98577657D01*
X88900086Y-98543847D01*
X88967705Y-98510038D01*
X89136752Y-98510038D01*
X89204371Y-98543847D01*
X89238181Y-98577657D01*
X89271990Y-98645276D01*
X89271990Y-98848133D01*
X89238181Y-98915752D01*
X89204371Y-98949561D01*
X89271990Y-97833848D02*
X89271990Y-98239562D01*
X89271990Y-98036705D02*
X88561990Y-98036705D01*
X88663419Y-98104324D01*
X88731038Y-98171943D01*
X88764848Y-98239562D01*
X91049990Y-99186228D02*
X90711895Y-99422895D01*
X91049990Y-99591942D02*
X90339990Y-99591942D01*
X90339990Y-99321466D01*
X90373800Y-99253847D01*
X90407610Y-99220038D01*
X90475229Y-99186228D01*
X90576657Y-99186228D01*
X90644276Y-99220038D01*
X90678086Y-99253847D01*
X90711895Y-99321466D01*
X90711895Y-99591942D01*
X90339990Y-98949561D02*
X90339990Y-98510038D01*
X90610467Y-98746704D01*
X90610467Y-98645276D01*
X90644276Y-98577657D01*
X90678086Y-98543847D01*
X90745705Y-98510038D01*
X90914752Y-98510038D01*
X90982371Y-98543847D01*
X91016181Y-98577657D01*
X91049990Y-98645276D01*
X91049990Y-98848133D01*
X91016181Y-98915752D01*
X90982371Y-98949561D01*
X90407610Y-98239562D02*
X90373800Y-98205752D01*
X90339990Y-98138133D01*
X90339990Y-97969086D01*
X90373800Y-97901467D01*
X90407610Y-97867657D01*
X90475229Y-97833848D01*
X90542848Y-97833848D01*
X90644276Y-97867657D01*
X91049990Y-98273371D01*
X91049990Y-97833848D01*
X92827990Y-99186228D02*
X92489895Y-99422895D01*
X92827990Y-99591942D02*
X92117990Y-99591942D01*
X92117990Y-99321466D01*
X92151800Y-99253847D01*
X92185610Y-99220038D01*
X92253229Y-99186228D01*
X92354657Y-99186228D01*
X92422276Y-99220038D01*
X92456086Y-99253847D01*
X92489895Y-99321466D01*
X92489895Y-99591942D01*
X92117990Y-98949561D02*
X92117990Y-98510038D01*
X92388467Y-98746704D01*
X92388467Y-98645276D01*
X92422276Y-98577657D01*
X92456086Y-98543847D01*
X92523705Y-98510038D01*
X92692752Y-98510038D01*
X92760371Y-98543847D01*
X92794181Y-98577657D01*
X92827990Y-98645276D01*
X92827990Y-98848133D01*
X92794181Y-98915752D01*
X92760371Y-98949561D01*
X92117990Y-98273371D02*
X92117990Y-97833848D01*
X92388467Y-98070514D01*
X92388467Y-97969086D01*
X92422276Y-97901467D01*
X92456086Y-97867657D01*
X92523705Y-97833848D01*
X92692752Y-97833848D01*
X92760371Y-97867657D01*
X92794181Y-97901467D01*
X92827990Y-97969086D01*
X92827990Y-98171943D01*
X92794181Y-98239562D01*
X92760371Y-98273371D01*
X97841572Y-93285190D02*
X97604905Y-92947095D01*
X97435858Y-93285190D02*
X97435858Y-92575190D01*
X97706334Y-92575190D01*
X97773953Y-92609000D01*
X97807762Y-92642810D01*
X97841572Y-92710429D01*
X97841572Y-92811857D01*
X97807762Y-92879476D01*
X97773953Y-92913286D01*
X97706334Y-92947095D01*
X97435858Y-92947095D01*
X98078239Y-92575190D02*
X98517762Y-92575190D01*
X98281096Y-92845667D01*
X98382524Y-92845667D01*
X98450143Y-92879476D01*
X98483953Y-92913286D01*
X98517762Y-92980905D01*
X98517762Y-93149952D01*
X98483953Y-93217571D01*
X98450143Y-93251381D01*
X98382524Y-93285190D01*
X98179667Y-93285190D01*
X98112048Y-93251381D01*
X98078239Y-93217571D01*
X99160143Y-92575190D02*
X98822048Y-92575190D01*
X98788238Y-92913286D01*
X98822048Y-92879476D01*
X98889667Y-92845667D01*
X99058714Y-92845667D01*
X99126333Y-92879476D01*
X99160143Y-92913286D01*
X99193952Y-92980905D01*
X99193952Y-93149952D01*
X99160143Y-93217571D01*
X99126333Y-93251381D01*
X99058714Y-93285190D01*
X98889667Y-93285190D01*
X98822048Y-93251381D01*
X98788238Y-93217571D01*
X95875990Y-99186228D02*
X95537895Y-99422895D01*
X95875990Y-99591942D02*
X95165990Y-99591942D01*
X95165990Y-99321466D01*
X95199800Y-99253847D01*
X95233610Y-99220038D01*
X95301229Y-99186228D01*
X95402657Y-99186228D01*
X95470276Y-99220038D01*
X95504086Y-99253847D01*
X95537895Y-99321466D01*
X95537895Y-99591942D01*
X95165990Y-98949561D02*
X95165990Y-98510038D01*
X95436467Y-98746704D01*
X95436467Y-98645276D01*
X95470276Y-98577657D01*
X95504086Y-98543847D01*
X95571705Y-98510038D01*
X95740752Y-98510038D01*
X95808371Y-98543847D01*
X95842181Y-98577657D01*
X95875990Y-98645276D01*
X95875990Y-98848133D01*
X95842181Y-98915752D01*
X95808371Y-98949561D01*
X95165990Y-98273371D02*
X95165990Y-97800038D01*
X95875990Y-98104324D01*
X97653990Y-99186228D02*
X97315895Y-99422895D01*
X97653990Y-99591942D02*
X96943990Y-99591942D01*
X96943990Y-99321466D01*
X96977800Y-99253847D01*
X97011610Y-99220038D01*
X97079229Y-99186228D01*
X97180657Y-99186228D01*
X97248276Y-99220038D01*
X97282086Y-99253847D01*
X97315895Y-99321466D01*
X97315895Y-99591942D01*
X96943990Y-98949561D02*
X96943990Y-98510038D01*
X97214467Y-98746704D01*
X97214467Y-98645276D01*
X97248276Y-98577657D01*
X97282086Y-98543847D01*
X97349705Y-98510038D01*
X97518752Y-98510038D01*
X97586371Y-98543847D01*
X97620181Y-98577657D01*
X97653990Y-98645276D01*
X97653990Y-98848133D01*
X97620181Y-98915752D01*
X97586371Y-98949561D01*
X97248276Y-98104324D02*
X97214467Y-98171943D01*
X97180657Y-98205752D01*
X97113038Y-98239562D01*
X97079229Y-98239562D01*
X97011610Y-98205752D01*
X96977800Y-98171943D01*
X96943990Y-98104324D01*
X96943990Y-97969086D01*
X96977800Y-97901467D01*
X97011610Y-97867657D01*
X97079229Y-97833848D01*
X97113038Y-97833848D01*
X97180657Y-97867657D01*
X97214467Y-97901467D01*
X97248276Y-97969086D01*
X97248276Y-98104324D01*
X97282086Y-98171943D01*
X97315895Y-98205752D01*
X97383514Y-98239562D01*
X97518752Y-98239562D01*
X97586371Y-98205752D01*
X97620181Y-98171943D01*
X97653990Y-98104324D01*
X97653990Y-97969086D01*
X97620181Y-97901467D01*
X97586371Y-97867657D01*
X97518752Y-97833848D01*
X97383514Y-97833848D01*
X97315895Y-97867657D01*
X97282086Y-97901467D01*
X97248276Y-97969086D01*
X99431990Y-99186228D02*
X99093895Y-99422895D01*
X99431990Y-99591942D02*
X98721990Y-99591942D01*
X98721990Y-99321466D01*
X98755800Y-99253847D01*
X98789610Y-99220038D01*
X98857229Y-99186228D01*
X98958657Y-99186228D01*
X99026276Y-99220038D01*
X99060086Y-99253847D01*
X99093895Y-99321466D01*
X99093895Y-99591942D01*
X98721990Y-98949561D02*
X98721990Y-98510038D01*
X98992467Y-98746704D01*
X98992467Y-98645276D01*
X99026276Y-98577657D01*
X99060086Y-98543847D01*
X99127705Y-98510038D01*
X99296752Y-98510038D01*
X99364371Y-98543847D01*
X99398181Y-98577657D01*
X99431990Y-98645276D01*
X99431990Y-98848133D01*
X99398181Y-98915752D01*
X99364371Y-98949561D01*
X99431990Y-98171943D02*
X99431990Y-98036705D01*
X99398181Y-97969086D01*
X99364371Y-97935276D01*
X99262943Y-97867657D01*
X99127705Y-97833848D01*
X98857229Y-97833848D01*
X98789610Y-97867657D01*
X98755800Y-97901467D01*
X98721990Y-97969086D01*
X98721990Y-98104324D01*
X98755800Y-98171943D01*
X98789610Y-98205752D01*
X98857229Y-98239562D01*
X99026276Y-98239562D01*
X99093895Y-98205752D01*
X99127705Y-98171943D01*
X99161514Y-98104324D01*
X99161514Y-97969086D01*
X99127705Y-97901467D01*
X99093895Y-97867657D01*
X99026276Y-97833848D01*
X112065572Y-93285190D02*
X111828905Y-92947095D01*
X111659858Y-93285190D02*
X111659858Y-92575190D01*
X111930334Y-92575190D01*
X111997953Y-92609000D01*
X112031762Y-92642810D01*
X112065572Y-92710429D01*
X112065572Y-92811857D01*
X112031762Y-92879476D01*
X111997953Y-92913286D01*
X111930334Y-92947095D01*
X111659858Y-92947095D01*
X112674143Y-92811857D02*
X112674143Y-93285190D01*
X112505096Y-92541381D02*
X112336048Y-93048524D01*
X112775572Y-93048524D01*
X113417952Y-93285190D02*
X113012238Y-93285190D01*
X113215095Y-93285190D02*
X113215095Y-92575190D01*
X113147476Y-92676619D01*
X113079857Y-92744238D01*
X113012238Y-92778048D01*
X116891572Y-107001190D02*
X116654905Y-106663095D01*
X116485858Y-107001190D02*
X116485858Y-106291190D01*
X116756334Y-106291190D01*
X116823953Y-106325000D01*
X116857762Y-106358810D01*
X116891572Y-106426429D01*
X116891572Y-106527857D01*
X116857762Y-106595476D01*
X116823953Y-106629286D01*
X116756334Y-106663095D01*
X116485858Y-106663095D01*
X117533953Y-106291190D02*
X117195858Y-106291190D01*
X117162048Y-106629286D01*
X117195858Y-106595476D01*
X117263477Y-106561667D01*
X117432524Y-106561667D01*
X117500143Y-106595476D01*
X117533953Y-106629286D01*
X117567762Y-106696905D01*
X117567762Y-106865952D01*
X117533953Y-106933571D01*
X117500143Y-106967381D01*
X117432524Y-107001190D01*
X117263477Y-107001190D01*
X117195858Y-106967381D01*
X117162048Y-106933571D01*
X118007286Y-106291190D02*
X118074905Y-106291190D01*
X118142524Y-106325000D01*
X118176333Y-106358810D01*
X118210143Y-106426429D01*
X118243952Y-106561667D01*
X118243952Y-106730714D01*
X118210143Y-106865952D01*
X118176333Y-106933571D01*
X118142524Y-106967381D01*
X118074905Y-107001190D01*
X118007286Y-107001190D01*
X117939667Y-106967381D01*
X117905857Y-106933571D01*
X117872048Y-106865952D01*
X117838238Y-106730714D01*
X117838238Y-106561667D01*
X117872048Y-106426429D01*
X117905857Y-106358810D01*
X117939667Y-106325000D01*
X118007286Y-106291190D01*
X102921572Y-111227571D02*
X102887762Y-111261381D01*
X102786334Y-111295190D01*
X102718715Y-111295190D01*
X102617286Y-111261381D01*
X102549667Y-111193762D01*
X102515858Y-111126143D01*
X102482048Y-110990905D01*
X102482048Y-110889476D01*
X102515858Y-110754238D01*
X102549667Y-110686619D01*
X102617286Y-110619000D01*
X102718715Y-110585190D01*
X102786334Y-110585190D01*
X102887762Y-110619000D01*
X102921572Y-110652810D01*
X103597762Y-111295190D02*
X103192048Y-111295190D01*
X103394905Y-111295190D02*
X103394905Y-110585190D01*
X103327286Y-110686619D01*
X103259667Y-110754238D01*
X103192048Y-110788048D01*
X104240143Y-110585190D02*
X103902048Y-110585190D01*
X103868238Y-110923286D01*
X103902048Y-110889476D01*
X103969667Y-110855667D01*
X104138714Y-110855667D01*
X104206333Y-110889476D01*
X104240143Y-110923286D01*
X104273952Y-110990905D01*
X104273952Y-111159952D01*
X104240143Y-111227571D01*
X104206333Y-111261381D01*
X104138714Y-111295190D01*
X103969667Y-111295190D01*
X103902048Y-111261381D01*
X103868238Y-111227571D01*
X121903953Y-102937190D02*
X121903953Y-102227190D01*
X122073000Y-102227190D01*
X122174429Y-102261000D01*
X122242048Y-102328619D01*
X122275857Y-102396238D01*
X122309667Y-102531476D01*
X122309667Y-102632905D01*
X122275857Y-102768143D01*
X122242048Y-102835762D01*
X122174429Y-102903381D01*
X122073000Y-102937190D01*
X121903953Y-102937190D01*
X122985857Y-102937190D02*
X122580143Y-102937190D01*
X122783000Y-102937190D02*
X122783000Y-102227190D01*
X122715381Y-102328619D01*
X122647762Y-102396238D01*
X122580143Y-102430048D01*
X121903953Y-104969190D02*
X121903953Y-104259190D01*
X122073000Y-104259190D01*
X122174429Y-104293000D01*
X122242048Y-104360619D01*
X122275857Y-104428238D01*
X122309667Y-104563476D01*
X122309667Y-104664905D01*
X122275857Y-104800143D01*
X122242048Y-104867762D01*
X122174429Y-104935381D01*
X122073000Y-104969190D01*
X121903953Y-104969190D01*
X122580143Y-104326810D02*
X122613953Y-104293000D01*
X122681572Y-104259190D01*
X122850619Y-104259190D01*
X122918238Y-104293000D01*
X122952048Y-104326810D01*
X122985857Y-104394429D01*
X122985857Y-104462048D01*
X122952048Y-104563476D01*
X122546334Y-104969190D01*
X122985857Y-104969190D01*
X45449953Y-93031190D02*
X45449953Y-92321190D01*
X45619000Y-92321190D01*
X45720429Y-92355000D01*
X45788048Y-92422619D01*
X45821857Y-92490238D01*
X45855667Y-92625476D01*
X45855667Y-92726905D01*
X45821857Y-92862143D01*
X45788048Y-92929762D01*
X45720429Y-92997381D01*
X45619000Y-93031190D01*
X45449953Y-93031190D01*
X46464238Y-92557857D02*
X46464238Y-93031190D01*
X46295191Y-92287381D02*
X46126143Y-92794524D01*
X46565667Y-92794524D01*
X59673953Y-93051190D02*
X59673953Y-92341190D01*
X59843000Y-92341190D01*
X59944429Y-92375000D01*
X60012048Y-92442619D01*
X60045857Y-92510238D01*
X60079667Y-92645476D01*
X60079667Y-92746905D01*
X60045857Y-92882143D01*
X60012048Y-92949762D01*
X59944429Y-93017381D01*
X59843000Y-93051190D01*
X59673953Y-93051190D01*
X60688238Y-92341190D02*
X60553000Y-92341190D01*
X60485381Y-92375000D01*
X60451572Y-92408810D01*
X60383953Y-92510238D01*
X60350143Y-92645476D01*
X60350143Y-92915952D01*
X60383953Y-92983571D01*
X60417762Y-93017381D01*
X60485381Y-93051190D01*
X60620619Y-93051190D01*
X60688238Y-93017381D01*
X60722048Y-92983571D01*
X60755857Y-92915952D01*
X60755857Y-92746905D01*
X60722048Y-92679286D01*
X60688238Y-92645476D01*
X60620619Y-92611667D01*
X60485381Y-92611667D01*
X60417762Y-92645476D01*
X60383953Y-92679286D01*
X60350143Y-92746905D01*
X73897953Y-93051190D02*
X73897953Y-92341190D01*
X74067000Y-92341190D01*
X74168429Y-92375000D01*
X74236048Y-92442619D01*
X74269857Y-92510238D01*
X74303667Y-92645476D01*
X74303667Y-92746905D01*
X74269857Y-92882143D01*
X74236048Y-92949762D01*
X74168429Y-93017381D01*
X74067000Y-93051190D01*
X73897953Y-93051190D01*
X74709381Y-92645476D02*
X74641762Y-92611667D01*
X74607953Y-92577857D01*
X74574143Y-92510238D01*
X74574143Y-92476429D01*
X74607953Y-92408810D01*
X74641762Y-92375000D01*
X74709381Y-92341190D01*
X74844619Y-92341190D01*
X74912238Y-92375000D01*
X74946048Y-92408810D01*
X74979857Y-92476429D01*
X74979857Y-92510238D01*
X74946048Y-92577857D01*
X74912238Y-92611667D01*
X74844619Y-92645476D01*
X74709381Y-92645476D01*
X74641762Y-92679286D01*
X74607953Y-92713095D01*
X74574143Y-92780714D01*
X74574143Y-92915952D01*
X74607953Y-92983571D01*
X74641762Y-93017381D01*
X74709381Y-93051190D01*
X74844619Y-93051190D01*
X74912238Y-93017381D01*
X74946048Y-92983571D01*
X74979857Y-92915952D01*
X74979857Y-92780714D01*
X74946048Y-92713095D01*
X74912238Y-92679286D01*
X74844619Y-92645476D01*
X87783858Y-93305190D02*
X87783858Y-92595190D01*
X87952905Y-92595190D01*
X88054334Y-92629000D01*
X88121953Y-92696619D01*
X88155762Y-92764238D01*
X88189572Y-92899476D01*
X88189572Y-93000905D01*
X88155762Y-93136143D01*
X88121953Y-93203762D01*
X88054334Y-93271381D01*
X87952905Y-93305190D01*
X87783858Y-93305190D01*
X88865762Y-93305190D02*
X88460048Y-93305190D01*
X88662905Y-93305190D02*
X88662905Y-92595190D01*
X88595286Y-92696619D01*
X88527667Y-92764238D01*
X88460048Y-92798048D01*
X89305286Y-92595190D02*
X89372905Y-92595190D01*
X89440524Y-92629000D01*
X89474333Y-92662810D01*
X89508143Y-92730429D01*
X89541952Y-92865667D01*
X89541952Y-93034714D01*
X89508143Y-93169952D01*
X89474333Y-93237571D01*
X89440524Y-93271381D01*
X89372905Y-93305190D01*
X89305286Y-93305190D01*
X89237667Y-93271381D01*
X89203857Y-93237571D01*
X89170048Y-93169952D01*
X89136238Y-93034714D01*
X89136238Y-92865667D01*
X89170048Y-92730429D01*
X89203857Y-92662810D01*
X89237667Y-92629000D01*
X89305286Y-92595190D01*
X102007858Y-93305190D02*
X102007858Y-92595190D01*
X102176905Y-92595190D01*
X102278334Y-92629000D01*
X102345953Y-92696619D01*
X102379762Y-92764238D01*
X102413572Y-92899476D01*
X102413572Y-93000905D01*
X102379762Y-93136143D01*
X102345953Y-93203762D01*
X102278334Y-93271381D01*
X102176905Y-93305190D01*
X102007858Y-93305190D01*
X103089762Y-93305190D02*
X102684048Y-93305190D01*
X102886905Y-93305190D02*
X102886905Y-92595190D01*
X102819286Y-92696619D01*
X102751667Y-92764238D01*
X102684048Y-92798048D01*
X103360238Y-92662810D02*
X103394048Y-92629000D01*
X103461667Y-92595190D01*
X103630714Y-92595190D01*
X103698333Y-92629000D01*
X103732143Y-92662810D01*
X103765952Y-92730429D01*
X103765952Y-92798048D01*
X103732143Y-92899476D01*
X103326429Y-93305190D01*
X103765952Y-93305190D01*
X116231858Y-93305190D02*
X116231858Y-92595190D01*
X116400905Y-92595190D01*
X116502334Y-92629000D01*
X116569953Y-92696619D01*
X116603762Y-92764238D01*
X116637572Y-92899476D01*
X116637572Y-93000905D01*
X116603762Y-93136143D01*
X116569953Y-93203762D01*
X116502334Y-93271381D01*
X116400905Y-93305190D01*
X116231858Y-93305190D01*
X117313762Y-93305190D02*
X116908048Y-93305190D01*
X117110905Y-93305190D02*
X117110905Y-92595190D01*
X117043286Y-92696619D01*
X116975667Y-92764238D01*
X116908048Y-92798048D01*
X117922333Y-92831857D02*
X117922333Y-93305190D01*
X117753286Y-92561381D02*
X117584238Y-93068524D01*
X118023762Y-93068524D01*
X121565858Y-109033190D02*
X121565858Y-108323190D01*
X121734905Y-108323190D01*
X121836334Y-108357000D01*
X121903953Y-108424619D01*
X121937762Y-108492238D01*
X121971572Y-108627476D01*
X121971572Y-108728905D01*
X121937762Y-108864143D01*
X121903953Y-108931762D01*
X121836334Y-108999381D01*
X121734905Y-109033190D01*
X121565858Y-109033190D01*
X122647762Y-109033190D02*
X122242048Y-109033190D01*
X122444905Y-109033190D02*
X122444905Y-108323190D01*
X122377286Y-108424619D01*
X122309667Y-108492238D01*
X122242048Y-108526048D01*
X123290143Y-108323190D02*
X122952048Y-108323190D01*
X122918238Y-108661286D01*
X122952048Y-108627476D01*
X123019667Y-108593667D01*
X123188714Y-108593667D01*
X123256333Y-108627476D01*
X123290143Y-108661286D01*
X123323952Y-108728905D01*
X123323952Y-108897952D01*
X123290143Y-108965571D01*
X123256333Y-108999381D01*
X123188714Y-109033190D01*
X123019667Y-109033190D01*
X122952048Y-108999381D01*
X122918238Y-108965571D01*
X121565858Y-107001190D02*
X121565858Y-106291190D01*
X121734905Y-106291190D01*
X121836334Y-106325000D01*
X121903953Y-106392619D01*
X121937762Y-106460238D01*
X121971572Y-106595476D01*
X121971572Y-106696905D01*
X121937762Y-106832143D01*
X121903953Y-106899762D01*
X121836334Y-106967381D01*
X121734905Y-107001190D01*
X121565858Y-107001190D01*
X122647762Y-107001190D02*
X122242048Y-107001190D01*
X122444905Y-107001190D02*
X122444905Y-106291190D01*
X122377286Y-106392619D01*
X122309667Y-106460238D01*
X122242048Y-106494048D01*
X123256333Y-106291190D02*
X123121095Y-106291190D01*
X123053476Y-106325000D01*
X123019667Y-106358810D01*
X122952048Y-106460238D01*
X122918238Y-106595476D01*
X122918238Y-106865952D01*
X122952048Y-106933571D01*
X122985857Y-106967381D01*
X123053476Y-107001190D01*
X123188714Y-107001190D01*
X123256333Y-106967381D01*
X123290143Y-106933571D01*
X123323952Y-106865952D01*
X123323952Y-106696905D01*
X123290143Y-106629286D01*
X123256333Y-106595476D01*
X123188714Y-106561667D01*
X123053476Y-106561667D01*
X122985857Y-106595476D01*
X122952048Y-106629286D01*
X122918238Y-106696905D01*
X57032953Y-85717190D02*
X57032953Y-86291952D01*
X57066762Y-86359571D01*
X57100572Y-86393381D01*
X57168191Y-86427190D01*
X57303429Y-86427190D01*
X57371048Y-86393381D01*
X57404857Y-86359571D01*
X57438667Y-86291952D01*
X57438667Y-85717190D01*
X58148667Y-86427190D02*
X57742953Y-86427190D01*
X57945810Y-86427190D02*
X57945810Y-85717190D01*
X57878191Y-85818619D01*
X57810572Y-85886238D01*
X57742953Y-85920048D01*
X58385334Y-85717190D02*
X58858667Y-85717190D01*
X58554381Y-86427190D01*
X71256953Y-85717190D02*
X71256953Y-86291952D01*
X71290762Y-86359571D01*
X71324572Y-86393381D01*
X71392191Y-86427190D01*
X71527429Y-86427190D01*
X71595048Y-86393381D01*
X71628857Y-86359571D01*
X71662667Y-86291952D01*
X71662667Y-85717190D01*
X72372667Y-86427190D02*
X71966953Y-86427190D01*
X72169810Y-86427190D02*
X72169810Y-85717190D01*
X72102191Y-85818619D01*
X72034572Y-85886238D01*
X71966953Y-85920048D01*
X72778381Y-86021476D02*
X72710762Y-85987667D01*
X72676953Y-85953857D01*
X72643143Y-85886238D01*
X72643143Y-85852429D01*
X72676953Y-85784810D01*
X72710762Y-85751000D01*
X72778381Y-85717190D01*
X72913619Y-85717190D01*
X72981238Y-85751000D01*
X73015048Y-85784810D01*
X73048857Y-85852429D01*
X73048857Y-85886238D01*
X73015048Y-85953857D01*
X72981238Y-85987667D01*
X72913619Y-86021476D01*
X72778381Y-86021476D01*
X72710762Y-86055286D01*
X72676953Y-86089095D01*
X72643143Y-86156714D01*
X72643143Y-86291952D01*
X72676953Y-86359571D01*
X72710762Y-86393381D01*
X72778381Y-86427190D01*
X72913619Y-86427190D01*
X72981238Y-86393381D01*
X73015048Y-86359571D01*
X73048857Y-86291952D01*
X73048857Y-86156714D01*
X73015048Y-86089095D01*
X72981238Y-86055286D01*
X72913619Y-86021476D01*
X85480953Y-85717190D02*
X85480953Y-86291952D01*
X85514762Y-86359571D01*
X85548572Y-86393381D01*
X85616191Y-86427190D01*
X85751429Y-86427190D01*
X85819048Y-86393381D01*
X85852857Y-86359571D01*
X85886667Y-86291952D01*
X85886667Y-85717190D01*
X86596667Y-86427190D02*
X86190953Y-86427190D01*
X86393810Y-86427190D02*
X86393810Y-85717190D01*
X86326191Y-85818619D01*
X86258572Y-85886238D01*
X86190953Y-85920048D01*
X86934762Y-86427190D02*
X87070000Y-86427190D01*
X87137619Y-86393381D01*
X87171429Y-86359571D01*
X87239048Y-86258143D01*
X87272857Y-86122905D01*
X87272857Y-85852429D01*
X87239048Y-85784810D01*
X87205238Y-85751000D01*
X87137619Y-85717190D01*
X87002381Y-85717190D01*
X86934762Y-85751000D01*
X86900953Y-85784810D01*
X86867143Y-85852429D01*
X86867143Y-86021476D01*
X86900953Y-86089095D01*
X86934762Y-86122905D01*
X87002381Y-86156714D01*
X87137619Y-86156714D01*
X87205238Y-86122905D01*
X87239048Y-86089095D01*
X87272857Y-86021476D01*
X99704953Y-85717190D02*
X99704953Y-86291952D01*
X99738762Y-86359571D01*
X99772572Y-86393381D01*
X99840191Y-86427190D01*
X99975429Y-86427190D01*
X100043048Y-86393381D01*
X100076857Y-86359571D01*
X100110667Y-86291952D01*
X100110667Y-85717190D01*
X100414953Y-85784810D02*
X100448763Y-85751000D01*
X100516382Y-85717190D01*
X100685429Y-85717190D01*
X100753048Y-85751000D01*
X100786858Y-85784810D01*
X100820667Y-85852429D01*
X100820667Y-85920048D01*
X100786858Y-86021476D01*
X100381144Y-86427190D01*
X100820667Y-86427190D01*
X101260191Y-85717190D02*
X101327810Y-85717190D01*
X101395429Y-85751000D01*
X101429238Y-85784810D01*
X101463048Y-85852429D01*
X101496857Y-85987667D01*
X101496857Y-86156714D01*
X101463048Y-86291952D01*
X101429238Y-86359571D01*
X101395429Y-86393381D01*
X101327810Y-86427190D01*
X101260191Y-86427190D01*
X101192572Y-86393381D01*
X101158762Y-86359571D01*
X101124953Y-86291952D01*
X101091143Y-86156714D01*
X101091143Y-85987667D01*
X101124953Y-85852429D01*
X101158762Y-85784810D01*
X101192572Y-85751000D01*
X101260191Y-85717190D01*
X113928953Y-85717190D02*
X113928953Y-86291952D01*
X113962762Y-86359571D01*
X113996572Y-86393381D01*
X114064191Y-86427190D01*
X114199429Y-86427190D01*
X114267048Y-86393381D01*
X114300857Y-86359571D01*
X114334667Y-86291952D01*
X114334667Y-85717190D01*
X114638953Y-85784810D02*
X114672763Y-85751000D01*
X114740382Y-85717190D01*
X114909429Y-85717190D01*
X114977048Y-85751000D01*
X115010858Y-85784810D01*
X115044667Y-85852429D01*
X115044667Y-85920048D01*
X115010858Y-86021476D01*
X114605144Y-86427190D01*
X115044667Y-86427190D01*
X115720857Y-86427190D02*
X115315143Y-86427190D01*
X115518000Y-86427190D02*
X115518000Y-85717190D01*
X115450381Y-85818619D01*
X115382762Y-85886238D01*
X115315143Y-85920048D01*
X94895371Y-122343133D02*
X94929181Y-122376943D01*
X94962990Y-122478371D01*
X94962990Y-122545990D01*
X94929181Y-122647419D01*
X94861562Y-122715038D01*
X94793943Y-122748847D01*
X94658705Y-122782657D01*
X94557276Y-122782657D01*
X94422038Y-122748847D01*
X94354419Y-122715038D01*
X94286800Y-122647419D01*
X94252990Y-122545990D01*
X94252990Y-122478371D01*
X94286800Y-122376943D01*
X94320610Y-122343133D01*
X94252990Y-121700752D02*
X94252990Y-122038847D01*
X94591086Y-122072657D01*
X94557276Y-122038847D01*
X94523467Y-121971228D01*
X94523467Y-121802181D01*
X94557276Y-121734562D01*
X94591086Y-121700752D01*
X94658705Y-121666943D01*
X94827752Y-121666943D01*
X94895371Y-121700752D01*
X94929181Y-121734562D01*
X94962990Y-121802181D01*
X94962990Y-121971228D01*
X94929181Y-122038847D01*
X94895371Y-122072657D01*
X97468467Y-113231371D02*
X97434657Y-113265181D01*
X97333229Y-113298990D01*
X97265610Y-113298990D01*
X97164181Y-113265181D01*
X97096562Y-113197562D01*
X97062753Y-113129943D01*
X97028943Y-112994705D01*
X97028943Y-112893276D01*
X97062753Y-112758038D01*
X97096562Y-112690419D01*
X97164181Y-112622800D01*
X97265610Y-112588990D01*
X97333229Y-112588990D01*
X97434657Y-112622800D01*
X97468467Y-112656610D01*
X98077038Y-112588990D02*
X97941800Y-112588990D01*
X97874181Y-112622800D01*
X97840372Y-112656610D01*
X97772753Y-112758038D01*
X97738943Y-112893276D01*
X97738943Y-113163752D01*
X97772753Y-113231371D01*
X97806562Y-113265181D01*
X97874181Y-113298990D01*
X98009419Y-113298990D01*
X98077038Y-113265181D01*
X98110848Y-113231371D01*
X98144657Y-113163752D01*
X98144657Y-112994705D01*
X98110848Y-112927086D01*
X98077038Y-112893276D01*
X98009419Y-112859467D01*
X97874181Y-112859467D01*
X97806562Y-112893276D01*
X97772753Y-112927086D01*
X97738943Y-112994705D01*
X61213571Y-100956333D02*
X61247381Y-100990143D01*
X61281190Y-101091571D01*
X61281190Y-101159190D01*
X61247381Y-101260619D01*
X61179762Y-101328238D01*
X61112143Y-101362047D01*
X60976905Y-101395857D01*
X60875476Y-101395857D01*
X60740238Y-101362047D01*
X60672619Y-101328238D01*
X60605000Y-101260619D01*
X60571190Y-101159190D01*
X60571190Y-101091571D01*
X60605000Y-100990143D01*
X60638810Y-100956333D01*
X60571190Y-100719666D02*
X60571190Y-100246333D01*
X61281190Y-100550619D01*
X67817571Y-101210333D02*
X67851381Y-101244143D01*
X67885190Y-101345571D01*
X67885190Y-101413190D01*
X67851381Y-101514619D01*
X67783762Y-101582238D01*
X67716143Y-101616047D01*
X67580905Y-101649857D01*
X67479476Y-101649857D01*
X67344238Y-101616047D01*
X67276619Y-101582238D01*
X67209000Y-101514619D01*
X67175190Y-101413190D01*
X67175190Y-101345571D01*
X67209000Y-101244143D01*
X67242810Y-101210333D01*
X67479476Y-100804619D02*
X67445667Y-100872238D01*
X67411857Y-100906047D01*
X67344238Y-100939857D01*
X67310429Y-100939857D01*
X67242810Y-100906047D01*
X67209000Y-100872238D01*
X67175190Y-100804619D01*
X67175190Y-100669381D01*
X67209000Y-100601762D01*
X67242810Y-100567952D01*
X67310429Y-100534143D01*
X67344238Y-100534143D01*
X67411857Y-100567952D01*
X67445667Y-100601762D01*
X67479476Y-100669381D01*
X67479476Y-100804619D01*
X67513286Y-100872238D01*
X67547095Y-100906047D01*
X67614714Y-100939857D01*
X67749952Y-100939857D01*
X67817571Y-100906047D01*
X67851381Y-100872238D01*
X67885190Y-100804619D01*
X67885190Y-100669381D01*
X67851381Y-100601762D01*
X67817571Y-100567952D01*
X67749952Y-100534143D01*
X67614714Y-100534143D01*
X67547095Y-100567952D01*
X67513286Y-100601762D01*
X67479476Y-100669381D01*
X74421571Y-101210333D02*
X74455381Y-101244143D01*
X74489190Y-101345571D01*
X74489190Y-101413190D01*
X74455381Y-101514619D01*
X74387762Y-101582238D01*
X74320143Y-101616047D01*
X74184905Y-101649857D01*
X74083476Y-101649857D01*
X73948238Y-101616047D01*
X73880619Y-101582238D01*
X73813000Y-101514619D01*
X73779190Y-101413190D01*
X73779190Y-101345571D01*
X73813000Y-101244143D01*
X73846810Y-101210333D01*
X74489190Y-100872238D02*
X74489190Y-100737000D01*
X74455381Y-100669381D01*
X74421571Y-100635571D01*
X74320143Y-100567952D01*
X74184905Y-100534143D01*
X73914429Y-100534143D01*
X73846810Y-100567952D01*
X73813000Y-100601762D01*
X73779190Y-100669381D01*
X73779190Y-100804619D01*
X73813000Y-100872238D01*
X73846810Y-100906047D01*
X73914429Y-100939857D01*
X74083476Y-100939857D01*
X74151095Y-100906047D01*
X74184905Y-100872238D01*
X74218714Y-100804619D01*
X74218714Y-100669381D01*
X74184905Y-100601762D01*
X74151095Y-100567952D01*
X74083476Y-100534143D01*
X81025571Y-101294428D02*
X81059381Y-101328238D01*
X81093190Y-101429666D01*
X81093190Y-101497285D01*
X81059381Y-101598714D01*
X80991762Y-101666333D01*
X80924143Y-101700142D01*
X80788905Y-101733952D01*
X80687476Y-101733952D01*
X80552238Y-101700142D01*
X80484619Y-101666333D01*
X80417000Y-101598714D01*
X80383190Y-101497285D01*
X80383190Y-101429666D01*
X80417000Y-101328238D01*
X80450810Y-101294428D01*
X81093190Y-100618238D02*
X81093190Y-101023952D01*
X81093190Y-100821095D02*
X80383190Y-100821095D01*
X80484619Y-100888714D01*
X80552238Y-100956333D01*
X80586048Y-101023952D01*
X80383190Y-100178714D02*
X80383190Y-100111095D01*
X80417000Y-100043476D01*
X80450810Y-100009667D01*
X80518429Y-99975857D01*
X80653667Y-99942048D01*
X80822714Y-99942048D01*
X80957952Y-99975857D01*
X81025571Y-100009667D01*
X81059381Y-100043476D01*
X81093190Y-100111095D01*
X81093190Y-100178714D01*
X81059381Y-100246333D01*
X81025571Y-100280143D01*
X80957952Y-100313952D01*
X80822714Y-100347762D01*
X80653667Y-100347762D01*
X80518429Y-100313952D01*
X80450810Y-100280143D01*
X80417000Y-100246333D01*
X80383190Y-100178714D01*
X87629571Y-101294428D02*
X87663381Y-101328238D01*
X87697190Y-101429666D01*
X87697190Y-101497285D01*
X87663381Y-101598714D01*
X87595762Y-101666333D01*
X87528143Y-101700142D01*
X87392905Y-101733952D01*
X87291476Y-101733952D01*
X87156238Y-101700142D01*
X87088619Y-101666333D01*
X87021000Y-101598714D01*
X86987190Y-101497285D01*
X86987190Y-101429666D01*
X87021000Y-101328238D01*
X87054810Y-101294428D01*
X87697190Y-100618238D02*
X87697190Y-101023952D01*
X87697190Y-100821095D02*
X86987190Y-100821095D01*
X87088619Y-100888714D01*
X87156238Y-100956333D01*
X87190048Y-101023952D01*
X87697190Y-99942048D02*
X87697190Y-100347762D01*
X87697190Y-100144905D02*
X86987190Y-100144905D01*
X87088619Y-100212524D01*
X87156238Y-100280143D01*
X87190048Y-100347762D01*
X94233571Y-101294428D02*
X94267381Y-101328238D01*
X94301190Y-101429666D01*
X94301190Y-101497285D01*
X94267381Y-101598714D01*
X94199762Y-101666333D01*
X94132143Y-101700142D01*
X93996905Y-101733952D01*
X93895476Y-101733952D01*
X93760238Y-101700142D01*
X93692619Y-101666333D01*
X93625000Y-101598714D01*
X93591190Y-101497285D01*
X93591190Y-101429666D01*
X93625000Y-101328238D01*
X93658810Y-101294428D01*
X94301190Y-100618238D02*
X94301190Y-101023952D01*
X94301190Y-100821095D02*
X93591190Y-100821095D01*
X93692619Y-100888714D01*
X93760238Y-100956333D01*
X93794048Y-101023952D01*
X93658810Y-100347762D02*
X93625000Y-100313952D01*
X93591190Y-100246333D01*
X93591190Y-100077286D01*
X93625000Y-100009667D01*
X93658810Y-99975857D01*
X93726429Y-99942048D01*
X93794048Y-99942048D01*
X93895476Y-99975857D01*
X94301190Y-100381571D01*
X94301190Y-99942048D01*
X108965571Y-121868428D02*
X108999381Y-121902238D01*
X109033190Y-122003666D01*
X109033190Y-122071285D01*
X108999381Y-122172714D01*
X108931762Y-122240333D01*
X108864143Y-122274142D01*
X108728905Y-122307952D01*
X108627476Y-122307952D01*
X108492238Y-122274142D01*
X108424619Y-122240333D01*
X108357000Y-122172714D01*
X108323190Y-122071285D01*
X108323190Y-122003666D01*
X108357000Y-121902238D01*
X108390810Y-121868428D01*
X109033190Y-121192238D02*
X109033190Y-121597952D01*
X109033190Y-121395095D02*
X108323190Y-121395095D01*
X108424619Y-121462714D01*
X108492238Y-121530333D01*
X108526048Y-121597952D01*
X108559857Y-120583667D02*
X109033190Y-120583667D01*
X108289381Y-120752714D02*
X108796524Y-120921762D01*
X108796524Y-120482238D01*
X117229667Y-102937190D02*
X116993000Y-102599095D01*
X116823953Y-102937190D02*
X116823953Y-102227190D01*
X117094429Y-102227190D01*
X117162048Y-102261000D01*
X117195857Y-102294810D01*
X117229667Y-102362429D01*
X117229667Y-102463857D01*
X117195857Y-102531476D01*
X117162048Y-102565286D01*
X117094429Y-102599095D01*
X116823953Y-102599095D01*
X117838238Y-102463857D02*
X117838238Y-102937190D01*
X117669191Y-102193381D02*
X117500143Y-102700524D01*
X117939667Y-102700524D01*
X117229667Y-104969190D02*
X116993000Y-104631095D01*
X116823953Y-104969190D02*
X116823953Y-104259190D01*
X117094429Y-104259190D01*
X117162048Y-104293000D01*
X117195857Y-104326810D01*
X117229667Y-104394429D01*
X117229667Y-104495857D01*
X117195857Y-104563476D01*
X117162048Y-104597286D01*
X117094429Y-104631095D01*
X116823953Y-104631095D01*
X117872048Y-104259190D02*
X117533953Y-104259190D01*
X117500143Y-104597286D01*
X117533953Y-104563476D01*
X117601572Y-104529667D01*
X117770619Y-104529667D01*
X117838238Y-104563476D01*
X117872048Y-104597286D01*
X117905857Y-104664905D01*
X117905857Y-104833952D01*
X117872048Y-104901571D01*
X117838238Y-104935381D01*
X117770619Y-104969190D01*
X117601572Y-104969190D01*
X117533953Y-104935381D01*
X117500143Y-104901571D01*
X61027190Y-113232428D02*
X60689095Y-113469095D01*
X61027190Y-113638142D02*
X60317190Y-113638142D01*
X60317190Y-113367666D01*
X60351000Y-113300047D01*
X60384810Y-113266238D01*
X60452429Y-113232428D01*
X60553857Y-113232428D01*
X60621476Y-113266238D01*
X60655286Y-113300047D01*
X60689095Y-113367666D01*
X60689095Y-113638142D01*
X60553857Y-112623857D02*
X61027190Y-112623857D01*
X60283381Y-112792904D02*
X60790524Y-112961952D01*
X60790524Y-112522428D01*
X60317190Y-112319571D02*
X60317190Y-111880048D01*
X60587667Y-112116714D01*
X60587667Y-112015286D01*
X60621476Y-111947667D01*
X60655286Y-111913857D01*
X60722905Y-111880048D01*
X60891952Y-111880048D01*
X60959571Y-111913857D01*
X60993381Y-111947667D01*
X61027190Y-112015286D01*
X61027190Y-112218143D01*
X60993381Y-112285762D01*
X60959571Y-112319571D01*
X67885190Y-113232428D02*
X67547095Y-113469095D01*
X67885190Y-113638142D02*
X67175190Y-113638142D01*
X67175190Y-113367666D01*
X67209000Y-113300047D01*
X67242810Y-113266238D01*
X67310429Y-113232428D01*
X67411857Y-113232428D01*
X67479476Y-113266238D01*
X67513286Y-113300047D01*
X67547095Y-113367666D01*
X67547095Y-113638142D01*
X67411857Y-112623857D02*
X67885190Y-112623857D01*
X67141381Y-112792904D02*
X67648524Y-112961952D01*
X67648524Y-112522428D01*
X67411857Y-111947667D02*
X67885190Y-111947667D01*
X67141381Y-112116714D02*
X67648524Y-112285762D01*
X67648524Y-111846238D01*
X74489190Y-113232428D02*
X74151095Y-113469095D01*
X74489190Y-113638142D02*
X73779190Y-113638142D01*
X73779190Y-113367666D01*
X73813000Y-113300047D01*
X73846810Y-113266238D01*
X73914429Y-113232428D01*
X74015857Y-113232428D01*
X74083476Y-113266238D01*
X74117286Y-113300047D01*
X74151095Y-113367666D01*
X74151095Y-113638142D01*
X74015857Y-112623857D02*
X74489190Y-112623857D01*
X73745381Y-112792904D02*
X74252524Y-112961952D01*
X74252524Y-112522428D01*
X73779190Y-111913857D02*
X73779190Y-112251952D01*
X74117286Y-112285762D01*
X74083476Y-112251952D01*
X74049667Y-112184333D01*
X74049667Y-112015286D01*
X74083476Y-111947667D01*
X74117286Y-111913857D01*
X74184905Y-111880048D01*
X74353952Y-111880048D01*
X74421571Y-111913857D01*
X74455381Y-111947667D01*
X74489190Y-112015286D01*
X74489190Y-112184333D01*
X74455381Y-112251952D01*
X74421571Y-112285762D01*
X81093190Y-113232428D02*
X80755095Y-113469095D01*
X81093190Y-113638142D02*
X80383190Y-113638142D01*
X80383190Y-113367666D01*
X80417000Y-113300047D01*
X80450810Y-113266238D01*
X80518429Y-113232428D01*
X80619857Y-113232428D01*
X80687476Y-113266238D01*
X80721286Y-113300047D01*
X80755095Y-113367666D01*
X80755095Y-113638142D01*
X80619857Y-112623857D02*
X81093190Y-112623857D01*
X80349381Y-112792904D02*
X80856524Y-112961952D01*
X80856524Y-112522428D01*
X80383190Y-111947667D02*
X80383190Y-112082905D01*
X80417000Y-112150524D01*
X80450810Y-112184333D01*
X80552238Y-112251952D01*
X80687476Y-112285762D01*
X80957952Y-112285762D01*
X81025571Y-112251952D01*
X81059381Y-112218143D01*
X81093190Y-112150524D01*
X81093190Y-112015286D01*
X81059381Y-111947667D01*
X81025571Y-111913857D01*
X80957952Y-111880048D01*
X80788905Y-111880048D01*
X80721286Y-111913857D01*
X80687476Y-111947667D01*
X80653667Y-112015286D01*
X80653667Y-112150524D01*
X80687476Y-112218143D01*
X80721286Y-112251952D01*
X80788905Y-112285762D01*
X87697190Y-112724428D02*
X87359095Y-112961095D01*
X87697190Y-113130142D02*
X86987190Y-113130142D01*
X86987190Y-112859666D01*
X87021000Y-112792047D01*
X87054810Y-112758238D01*
X87122429Y-112724428D01*
X87223857Y-112724428D01*
X87291476Y-112758238D01*
X87325286Y-112792047D01*
X87359095Y-112859666D01*
X87359095Y-113130142D01*
X87223857Y-112115857D02*
X87697190Y-112115857D01*
X86953381Y-112284904D02*
X87460524Y-112453952D01*
X87460524Y-112014428D01*
X86987190Y-111811571D02*
X86987190Y-111338238D01*
X87697190Y-111642524D01*
X94301190Y-112724428D02*
X93963095Y-112961095D01*
X94301190Y-113130142D02*
X93591190Y-113130142D01*
X93591190Y-112859666D01*
X93625000Y-112792047D01*
X93658810Y-112758238D01*
X93726429Y-112724428D01*
X93827857Y-112724428D01*
X93895476Y-112758238D01*
X93929286Y-112792047D01*
X93963095Y-112859666D01*
X93963095Y-113130142D01*
X93827857Y-112115857D02*
X94301190Y-112115857D01*
X93557381Y-112284904D02*
X94064524Y-112453952D01*
X94064524Y-112014428D01*
X93895476Y-111642524D02*
X93861667Y-111710143D01*
X93827857Y-111743952D01*
X93760238Y-111777762D01*
X93726429Y-111777762D01*
X93658810Y-111743952D01*
X93625000Y-111710143D01*
X93591190Y-111642524D01*
X93591190Y-111507286D01*
X93625000Y-111439667D01*
X93658810Y-111405857D01*
X93726429Y-111372048D01*
X93760238Y-111372048D01*
X93827857Y-111405857D01*
X93861667Y-111439667D01*
X93895476Y-111507286D01*
X93895476Y-111642524D01*
X93929286Y-111710143D01*
X93963095Y-111743952D01*
X94030714Y-111777762D01*
X94165952Y-111777762D01*
X94233571Y-111743952D01*
X94267381Y-111710143D01*
X94301190Y-111642524D01*
X94301190Y-111507286D01*
X94267381Y-111439667D01*
X94233571Y-111405857D01*
X94165952Y-111372048D01*
X94030714Y-111372048D01*
X93963095Y-111405857D01*
X93929286Y-111439667D01*
X93895476Y-111507286D01*
X116891572Y-109033190D02*
X116654905Y-108695095D01*
X116485858Y-109033190D02*
X116485858Y-108323190D01*
X116756334Y-108323190D01*
X116823953Y-108357000D01*
X116857762Y-108390810D01*
X116891572Y-108458429D01*
X116891572Y-108559857D01*
X116857762Y-108627476D01*
X116823953Y-108661286D01*
X116756334Y-108695095D01*
X116485858Y-108695095D01*
X117500143Y-108559857D02*
X117500143Y-109033190D01*
X117331096Y-108289381D02*
X117162048Y-108796524D01*
X117601572Y-108796524D01*
X117905857Y-109033190D02*
X118041095Y-109033190D01*
X118108714Y-108999381D01*
X118142524Y-108965571D01*
X118210143Y-108864143D01*
X118243952Y-108728905D01*
X118243952Y-108458429D01*
X118210143Y-108390810D01*
X118176333Y-108357000D01*
X118108714Y-108323190D01*
X117973476Y-108323190D01*
X117905857Y-108357000D01*
X117872048Y-108390810D01*
X117838238Y-108458429D01*
X117838238Y-108627476D01*
X117872048Y-108695095D01*
X117905857Y-108728905D01*
X117973476Y-108762714D01*
X118108714Y-108762714D01*
X118176333Y-108728905D01*
X118210143Y-108695095D01*
X118243952Y-108627476D01*
X56269667Y-102361571D02*
X56235857Y-102395381D01*
X56134429Y-102429190D01*
X56066810Y-102429190D01*
X55965381Y-102395381D01*
X55897762Y-102327762D01*
X55863953Y-102260143D01*
X55830143Y-102124905D01*
X55830143Y-102023476D01*
X55863953Y-101888238D01*
X55897762Y-101820619D01*
X55965381Y-101753000D01*
X56066810Y-101719190D01*
X56134429Y-101719190D01*
X56235857Y-101753000D01*
X56269667Y-101786810D01*
X56945857Y-102429190D02*
X56540143Y-102429190D01*
X56743000Y-102429190D02*
X56743000Y-101719190D01*
X56675381Y-101820619D01*
X56607762Y-101888238D01*
X56540143Y-101922048D01*
X55761667Y-105477190D02*
X55525000Y-105139095D01*
X55355953Y-105477190D02*
X55355953Y-104767190D01*
X55626429Y-104767190D01*
X55694048Y-104801000D01*
X55727857Y-104834810D01*
X55761667Y-104902429D01*
X55761667Y-105003857D01*
X55727857Y-105071476D01*
X55694048Y-105105286D01*
X55626429Y-105139095D01*
X55355953Y-105139095D01*
X56437857Y-105477190D02*
X56032143Y-105477190D01*
X56235000Y-105477190D02*
X56235000Y-104767190D01*
X56167381Y-104868619D01*
X56099762Y-104936238D01*
X56032143Y-104970048D01*
X55761667Y-108525190D02*
X55525000Y-108187095D01*
X55355953Y-108525190D02*
X55355953Y-107815190D01*
X55626429Y-107815190D01*
X55694048Y-107849000D01*
X55727857Y-107882810D01*
X55761667Y-107950429D01*
X55761667Y-108051857D01*
X55727857Y-108119476D01*
X55694048Y-108153286D01*
X55626429Y-108187095D01*
X55355953Y-108187095D01*
X56370238Y-107815190D02*
X56235000Y-107815190D01*
X56167381Y-107849000D01*
X56133572Y-107882810D01*
X56065953Y-107984238D01*
X56032143Y-108119476D01*
X56032143Y-108389952D01*
X56065953Y-108457571D01*
X56099762Y-108491381D01*
X56167381Y-108525190D01*
X56302619Y-108525190D01*
X56370238Y-108491381D01*
X56404048Y-108457571D01*
X56437857Y-108389952D01*
X56437857Y-108220905D01*
X56404048Y-108153286D01*
X56370238Y-108119476D01*
X56302619Y-108085667D01*
X56167381Y-108085667D01*
X56099762Y-108119476D01*
X56065953Y-108153286D01*
X56032143Y-108220905D01*
M02*
