G04 (created by PCBNEW (25-Oct-2014 BZR 4029)-stable) date Wed 10 Jun 2015 01:49:49 AM EDT*
%MOIN*%
G04 Gerber Fmt 3.4, Leading zero omitted, Abs format*
%FSLAX34Y34*%
G01*
G70*
G90*
G04 APERTURE LIST*
%ADD10C,0.00590551*%
%ADD11C,0.0708661*%
%ADD12R,0.07X0.07*%
%ADD13C,0.07*%
%ADD14C,0.15*%
%ADD15R,0.1378X0.1378*%
%ADD16C,0.055*%
%ADD17R,0.055X0.055*%
%ADD18C,0.035*%
%ADD19C,0.045*%
%ADD20C,0.03*%
%ADD21C,0.016*%
%ADD22C,0.012*%
%ADD23C,0.024*%
%ADD24C,0.04*%
%ADD25C,0.01*%
G04 APERTURE END LIST*
G54D10*
G54D11*
X16450Y-13700D03*
X15950Y-14700D03*
X15450Y-13700D03*
X14950Y-14700D03*
G54D12*
X20200Y-26000D03*
G54D13*
X20200Y-28000D03*
G54D14*
X11400Y-28400D03*
X11400Y-26400D03*
X11400Y-22400D03*
X11400Y-20400D03*
G54D15*
X14800Y-25359D03*
X14800Y-27721D03*
X16650Y-26540D03*
G54D11*
X22050Y-13700D03*
X21550Y-14700D03*
X21050Y-13700D03*
X20550Y-14700D03*
X27650Y-13700D03*
X27150Y-14700D03*
X26650Y-13700D03*
X26150Y-14700D03*
X33250Y-13700D03*
X32750Y-14700D03*
X32250Y-13700D03*
X31750Y-14700D03*
X38850Y-13700D03*
X38350Y-14700D03*
X37850Y-13700D03*
X37350Y-14700D03*
X44450Y-13700D03*
X43950Y-14700D03*
X43450Y-13700D03*
X42950Y-14700D03*
G54D16*
X17900Y-15800D03*
X15900Y-15800D03*
X23500Y-15800D03*
X21500Y-15800D03*
X29100Y-15800D03*
X27100Y-15800D03*
X34700Y-15800D03*
X32700Y-15800D03*
X40300Y-15800D03*
X38300Y-15800D03*
X45900Y-15800D03*
X43900Y-15800D03*
G54D17*
X48200Y-28700D03*
G54D16*
X48200Y-27700D03*
X48200Y-26700D03*
X48200Y-25700D03*
G54D18*
X45200Y-19200D03*
G54D19*
X14600Y-22400D03*
X14600Y-21400D03*
X14600Y-21900D03*
G54D20*
X24650Y-24500D03*
X36200Y-27800D03*
X38900Y-26700D03*
X18700Y-17400D03*
X36600Y-28200D03*
X24150Y-24800D03*
X36600Y-26500D03*
X27900Y-24500D03*
X24300Y-17400D03*
X38900Y-27100D03*
X28400Y-26500D03*
X26900Y-24500D03*
X36600Y-27400D03*
X27500Y-24800D03*
X42000Y-23750D03*
X31100Y-24500D03*
X39450Y-26000D03*
X29900Y-17400D03*
X38900Y-27500D03*
X30700Y-26000D03*
X30100Y-24500D03*
X36200Y-26100D03*
X30600Y-24700D03*
X34300Y-24500D03*
X39600Y-24750D03*
X35500Y-17400D03*
X39300Y-27500D03*
X33300Y-24500D03*
X33900Y-25400D03*
X33800Y-24700D03*
X39900Y-24400D03*
X38700Y-24400D03*
X37500Y-24500D03*
X41100Y-17400D03*
X39700Y-27500D03*
X36200Y-25400D03*
X36500Y-24500D03*
X37000Y-24700D03*
X39300Y-24400D03*
X46100Y-18300D03*
X40300Y-27500D03*
X39000Y-24750D03*
X36700Y-25400D03*
X45300Y-24000D03*
X41100Y-28700D03*
X42100Y-25900D03*
X41800Y-26200D03*
X41700Y-27200D03*
X45300Y-24800D03*
X34500Y-27000D03*
X40300Y-28200D03*
X13900Y-16200D03*
X45800Y-28900D03*
X45300Y-28900D03*
X45800Y-28400D03*
X45200Y-23200D03*
X45500Y-22900D03*
X45200Y-22600D03*
X45500Y-22300D03*
X45200Y-22000D03*
X45500Y-21700D03*
X45200Y-21400D03*
X45500Y-21100D03*
X45200Y-20800D03*
X24000Y-28600D03*
X23700Y-28300D03*
X24000Y-28000D03*
X23700Y-27700D03*
X24000Y-27400D03*
X23700Y-27100D03*
X24000Y-26800D03*
X23700Y-26500D03*
X24000Y-26200D03*
X23700Y-25900D03*
X18200Y-28300D03*
X18500Y-28000D03*
X18200Y-27700D03*
X18500Y-27400D03*
X18200Y-27100D03*
X18500Y-26800D03*
X18200Y-26500D03*
X18500Y-26200D03*
X18200Y-25900D03*
X22200Y-22100D03*
X15100Y-16100D03*
X20700Y-16100D03*
X26300Y-16100D03*
X31900Y-16100D03*
X43100Y-16100D03*
X37500Y-16100D03*
X45100Y-16100D03*
X39500Y-16100D03*
X33900Y-16100D03*
X28300Y-16100D03*
X17100Y-16100D03*
X22700Y-16100D03*
X38000Y-19700D03*
X34900Y-19700D03*
X31500Y-19700D03*
X28500Y-19700D03*
X25300Y-19700D03*
X41900Y-16200D03*
X36300Y-16200D03*
X30700Y-16200D03*
X25100Y-16200D03*
X19500Y-16200D03*
G54D18*
X15700Y-21700D03*
X13000Y-23300D03*
G54D19*
X18700Y-24300D03*
G54D20*
X45000Y-27400D03*
X36450Y-22493D03*
X33250Y-22493D03*
X30050Y-22493D03*
X26850Y-22493D03*
X23650Y-22493D03*
X42600Y-27600D03*
X44500Y-21100D03*
X48500Y-18600D03*
X31500Y-20700D03*
X25100Y-20700D03*
X28300Y-20700D03*
X34700Y-20700D03*
X41100Y-20700D03*
X37900Y-20700D03*
X38400Y-26700D03*
X36200Y-26900D03*
X34400Y-25400D03*
X33800Y-27000D03*
X21600Y-23000D03*
X20200Y-22600D03*
X20600Y-22600D03*
G54D21*
X45200Y-19200D02*
X45200Y-17300D01*
X45900Y-16600D02*
X45900Y-15800D01*
X45200Y-17300D02*
X45900Y-16600D01*
G54D22*
X45900Y-16200D02*
X45900Y-15800D01*
G54D23*
X40900Y-29100D02*
X43900Y-29100D01*
G54D24*
X43900Y-29100D02*
X45000Y-28000D01*
X45000Y-28000D02*
X45000Y-27400D01*
G54D23*
X40300Y-29100D02*
X40900Y-29100D01*
G54D24*
X23200Y-29100D02*
X40300Y-29100D01*
X22700Y-28600D02*
X23200Y-29100D01*
X22700Y-25200D02*
X22700Y-28600D01*
X21800Y-24300D02*
X22700Y-25200D01*
X18700Y-24300D02*
X21800Y-24300D01*
X45000Y-27400D02*
X45000Y-27600D01*
G54D22*
X48500Y-20600D02*
X48600Y-20700D01*
X48500Y-18600D02*
X48500Y-20600D01*
G54D10*
G36*
X48850Y-16520D02*
X45427Y-16520D01*
X45427Y-16519D01*
X45503Y-16447D01*
X45563Y-16363D01*
X45605Y-16268D01*
X45628Y-16166D01*
X45630Y-16048D01*
X45609Y-15946D01*
X45570Y-15849D01*
X45512Y-15763D01*
X45439Y-15689D01*
X45353Y-15631D01*
X45257Y-15591D01*
X45155Y-15570D01*
X45051Y-15569D01*
X44949Y-15589D01*
X44853Y-15628D01*
X44766Y-15684D01*
X44692Y-15757D01*
X44633Y-15843D01*
X44592Y-15938D01*
X44570Y-16040D01*
X44569Y-16144D01*
X44588Y-16246D01*
X44626Y-16343D01*
X44682Y-16430D01*
X44754Y-16505D01*
X44775Y-16520D01*
X43427Y-16520D01*
X43427Y-16519D01*
X43503Y-16447D01*
X43562Y-16363D01*
X43578Y-16374D01*
X43696Y-16425D01*
X43822Y-16453D01*
X43950Y-16456D01*
X44076Y-16433D01*
X44196Y-16387D01*
X44305Y-16318D01*
X44398Y-16230D01*
X44472Y-16125D01*
X44524Y-16007D01*
X44552Y-15882D01*
X44555Y-15735D01*
X44530Y-15609D01*
X44481Y-15491D01*
X44410Y-15384D01*
X44345Y-15318D01*
X44404Y-15281D01*
X44508Y-15182D01*
X44591Y-15064D01*
X44650Y-14932D01*
X44682Y-14792D01*
X44684Y-14627D01*
X44656Y-14486D01*
X44626Y-14414D01*
X44648Y-14410D01*
X44782Y-14358D01*
X44904Y-14281D01*
X45008Y-14182D01*
X45091Y-14064D01*
X45150Y-13932D01*
X45182Y-13792D01*
X45184Y-13627D01*
X45156Y-13486D01*
X45101Y-13353D01*
X45021Y-13233D01*
X44920Y-13131D01*
X44800Y-13050D01*
X44668Y-12995D01*
X44527Y-12966D01*
X44383Y-12965D01*
X44241Y-12992D01*
X44108Y-13046D01*
X43987Y-13124D01*
X43950Y-13161D01*
X43920Y-13131D01*
X43800Y-13050D01*
X43668Y-12995D01*
X43527Y-12966D01*
X43383Y-12965D01*
X43241Y-12992D01*
X43108Y-13046D01*
X42987Y-13124D01*
X42884Y-13225D01*
X42803Y-13344D01*
X42746Y-13476D01*
X42716Y-13617D01*
X42714Y-13761D01*
X42740Y-13903D01*
X42773Y-13986D01*
X42741Y-13992D01*
X42608Y-14046D01*
X42487Y-14124D01*
X42384Y-14225D01*
X42303Y-14344D01*
X42246Y-14476D01*
X42216Y-14617D01*
X42214Y-14761D01*
X42240Y-14903D01*
X42293Y-15037D01*
X42371Y-15158D01*
X42471Y-15261D01*
X42590Y-15344D01*
X42721Y-15401D01*
X42862Y-15432D01*
X43006Y-15435D01*
X43148Y-15410D01*
X43282Y-15358D01*
X43404Y-15281D01*
X43449Y-15238D01*
X43471Y-15261D01*
X43498Y-15280D01*
X43487Y-15287D01*
X43395Y-15376D01*
X43323Y-15482D01*
X43273Y-15598D01*
X43257Y-15591D01*
X43155Y-15570D01*
X43051Y-15569D01*
X42949Y-15589D01*
X42853Y-15628D01*
X42766Y-15684D01*
X42692Y-15757D01*
X42633Y-15843D01*
X42592Y-15938D01*
X42570Y-16040D01*
X42569Y-16144D01*
X42588Y-16246D01*
X42626Y-16343D01*
X42682Y-16430D01*
X42754Y-16505D01*
X42775Y-16520D01*
X42322Y-16520D01*
X42363Y-16463D01*
X42405Y-16368D01*
X42428Y-16266D01*
X42430Y-16148D01*
X42409Y-16046D01*
X42370Y-15949D01*
X42312Y-15863D01*
X42239Y-15789D01*
X42153Y-15731D01*
X42057Y-15691D01*
X41955Y-15670D01*
X41851Y-15669D01*
X41749Y-15689D01*
X41653Y-15728D01*
X41566Y-15784D01*
X41492Y-15857D01*
X41433Y-15943D01*
X41392Y-16038D01*
X41370Y-16140D01*
X41369Y-16244D01*
X41388Y-16346D01*
X41426Y-16443D01*
X41475Y-16520D01*
X39827Y-16520D01*
X39827Y-16519D01*
X39903Y-16447D01*
X39963Y-16363D01*
X40005Y-16268D01*
X40028Y-16166D01*
X40030Y-16048D01*
X40009Y-15946D01*
X39970Y-15849D01*
X39912Y-15763D01*
X39839Y-15689D01*
X39753Y-15631D01*
X39657Y-15591D01*
X39555Y-15570D01*
X39451Y-15569D01*
X39349Y-15589D01*
X39253Y-15628D01*
X39166Y-15684D01*
X39092Y-15757D01*
X39033Y-15843D01*
X38992Y-15938D01*
X38970Y-16040D01*
X38969Y-16144D01*
X38988Y-16246D01*
X39026Y-16343D01*
X39082Y-16430D01*
X39154Y-16505D01*
X39175Y-16520D01*
X37827Y-16520D01*
X37827Y-16519D01*
X37903Y-16447D01*
X37962Y-16363D01*
X37978Y-16374D01*
X38096Y-16425D01*
X38222Y-16453D01*
X38350Y-16456D01*
X38476Y-16433D01*
X38596Y-16387D01*
X38705Y-16318D01*
X38798Y-16230D01*
X38872Y-16125D01*
X38924Y-16007D01*
X38952Y-15882D01*
X38955Y-15735D01*
X38930Y-15609D01*
X38881Y-15491D01*
X38810Y-15384D01*
X38745Y-15318D01*
X38804Y-15281D01*
X38908Y-15182D01*
X38991Y-15064D01*
X39050Y-14932D01*
X39082Y-14792D01*
X39084Y-14627D01*
X39056Y-14486D01*
X39026Y-14414D01*
X39048Y-14410D01*
X39182Y-14358D01*
X39304Y-14281D01*
X39408Y-14182D01*
X39491Y-14064D01*
X39550Y-13932D01*
X39582Y-13792D01*
X39584Y-13627D01*
X39556Y-13486D01*
X39501Y-13353D01*
X39421Y-13233D01*
X39320Y-13131D01*
X39200Y-13050D01*
X39068Y-12995D01*
X38927Y-12966D01*
X38783Y-12965D01*
X38641Y-12992D01*
X38508Y-13046D01*
X38387Y-13124D01*
X38350Y-13161D01*
X38320Y-13131D01*
X38200Y-13050D01*
X38068Y-12995D01*
X37927Y-12966D01*
X37783Y-12965D01*
X37641Y-12992D01*
X37508Y-13046D01*
X37387Y-13124D01*
X37284Y-13225D01*
X37203Y-13344D01*
X37146Y-13476D01*
X37116Y-13617D01*
X37114Y-13761D01*
X37140Y-13903D01*
X37173Y-13986D01*
X37141Y-13992D01*
X37008Y-14046D01*
X36887Y-14124D01*
X36784Y-14225D01*
X36703Y-14344D01*
X36646Y-14476D01*
X36616Y-14617D01*
X36614Y-14761D01*
X36640Y-14903D01*
X36693Y-15037D01*
X36771Y-15158D01*
X36871Y-15261D01*
X36990Y-15344D01*
X37121Y-15401D01*
X37262Y-15432D01*
X37406Y-15435D01*
X37548Y-15410D01*
X37682Y-15358D01*
X37804Y-15281D01*
X37849Y-15238D01*
X37871Y-15261D01*
X37898Y-15280D01*
X37887Y-15287D01*
X37795Y-15376D01*
X37723Y-15482D01*
X37673Y-15598D01*
X37657Y-15591D01*
X37555Y-15570D01*
X37451Y-15569D01*
X37349Y-15589D01*
X37253Y-15628D01*
X37166Y-15684D01*
X37092Y-15757D01*
X37033Y-15843D01*
X36992Y-15938D01*
X36970Y-16040D01*
X36969Y-16144D01*
X36988Y-16246D01*
X37026Y-16343D01*
X37082Y-16430D01*
X37154Y-16505D01*
X37175Y-16520D01*
X36722Y-16520D01*
X36763Y-16463D01*
X36805Y-16368D01*
X36828Y-16266D01*
X36830Y-16148D01*
X36809Y-16046D01*
X36770Y-15949D01*
X36712Y-15863D01*
X36639Y-15789D01*
X36553Y-15731D01*
X36457Y-15691D01*
X36355Y-15670D01*
X36251Y-15669D01*
X36149Y-15689D01*
X36053Y-15728D01*
X35966Y-15784D01*
X35892Y-15857D01*
X35833Y-15943D01*
X35792Y-16038D01*
X35770Y-16140D01*
X35769Y-16244D01*
X35788Y-16346D01*
X35826Y-16443D01*
X35875Y-16520D01*
X34227Y-16520D01*
X34227Y-16519D01*
X34303Y-16447D01*
X34363Y-16363D01*
X34405Y-16268D01*
X34428Y-16166D01*
X34430Y-16048D01*
X34409Y-15946D01*
X34370Y-15849D01*
X34312Y-15763D01*
X34239Y-15689D01*
X34153Y-15631D01*
X34057Y-15591D01*
X33955Y-15570D01*
X33851Y-15569D01*
X33749Y-15589D01*
X33653Y-15628D01*
X33566Y-15684D01*
X33492Y-15757D01*
X33433Y-15843D01*
X33392Y-15938D01*
X33370Y-16040D01*
X33369Y-16144D01*
X33388Y-16246D01*
X33426Y-16343D01*
X33482Y-16430D01*
X33554Y-16505D01*
X33575Y-16520D01*
X32227Y-16520D01*
X32227Y-16519D01*
X32303Y-16447D01*
X32362Y-16363D01*
X32378Y-16374D01*
X32496Y-16425D01*
X32622Y-16453D01*
X32750Y-16456D01*
X32876Y-16433D01*
X32996Y-16387D01*
X33105Y-16318D01*
X33198Y-16230D01*
X33272Y-16125D01*
X33324Y-16007D01*
X33352Y-15882D01*
X33355Y-15735D01*
X33330Y-15609D01*
X33281Y-15491D01*
X33210Y-15384D01*
X33145Y-15318D01*
X33204Y-15281D01*
X33308Y-15182D01*
X33391Y-15064D01*
X33450Y-14932D01*
X33482Y-14792D01*
X33484Y-14627D01*
X33456Y-14486D01*
X33426Y-14414D01*
X33448Y-14410D01*
X33582Y-14358D01*
X33704Y-14281D01*
X33808Y-14182D01*
X33891Y-14064D01*
X33950Y-13932D01*
X33982Y-13792D01*
X33984Y-13627D01*
X33956Y-13486D01*
X33901Y-13353D01*
X33821Y-13233D01*
X33720Y-13131D01*
X33600Y-13050D01*
X33468Y-12995D01*
X33327Y-12966D01*
X33183Y-12965D01*
X33041Y-12992D01*
X32908Y-13046D01*
X32787Y-13124D01*
X32750Y-13161D01*
X32720Y-13131D01*
X32600Y-13050D01*
X32468Y-12995D01*
X32327Y-12966D01*
X32183Y-12965D01*
X32041Y-12992D01*
X31908Y-13046D01*
X31787Y-13124D01*
X31684Y-13225D01*
X31603Y-13344D01*
X31546Y-13476D01*
X31516Y-13617D01*
X31514Y-13761D01*
X31540Y-13903D01*
X31573Y-13986D01*
X31541Y-13992D01*
X31408Y-14046D01*
X31287Y-14124D01*
X31184Y-14225D01*
X31103Y-14344D01*
X31046Y-14476D01*
X31016Y-14617D01*
X31014Y-14761D01*
X31040Y-14903D01*
X31093Y-15037D01*
X31171Y-15158D01*
X31271Y-15261D01*
X31390Y-15344D01*
X31521Y-15401D01*
X31662Y-15432D01*
X31806Y-15435D01*
X31948Y-15410D01*
X32082Y-15358D01*
X32204Y-15281D01*
X32249Y-15238D01*
X32271Y-15261D01*
X32298Y-15280D01*
X32287Y-15287D01*
X32195Y-15376D01*
X32123Y-15482D01*
X32073Y-15598D01*
X32057Y-15591D01*
X31955Y-15570D01*
X31851Y-15569D01*
X31749Y-15589D01*
X31653Y-15628D01*
X31566Y-15684D01*
X31492Y-15757D01*
X31433Y-15843D01*
X31392Y-15938D01*
X31370Y-16040D01*
X31369Y-16144D01*
X31388Y-16246D01*
X31426Y-16343D01*
X31482Y-16430D01*
X31554Y-16505D01*
X31575Y-16520D01*
X31122Y-16520D01*
X31163Y-16463D01*
X31205Y-16368D01*
X31228Y-16266D01*
X31230Y-16148D01*
X31209Y-16046D01*
X31170Y-15949D01*
X31112Y-15863D01*
X31039Y-15789D01*
X30953Y-15731D01*
X30857Y-15691D01*
X30755Y-15670D01*
X30651Y-15669D01*
X30549Y-15689D01*
X30453Y-15728D01*
X30366Y-15784D01*
X30292Y-15857D01*
X30233Y-15943D01*
X30192Y-16038D01*
X30170Y-16140D01*
X30169Y-16244D01*
X30188Y-16346D01*
X30226Y-16443D01*
X30275Y-16520D01*
X28627Y-16520D01*
X28627Y-16519D01*
X28703Y-16447D01*
X28763Y-16363D01*
X28805Y-16268D01*
X28828Y-16166D01*
X28830Y-16048D01*
X28809Y-15946D01*
X28770Y-15849D01*
X28712Y-15763D01*
X28639Y-15689D01*
X28553Y-15631D01*
X28457Y-15591D01*
X28355Y-15570D01*
X28251Y-15569D01*
X28149Y-15589D01*
X28053Y-15628D01*
X27966Y-15684D01*
X27892Y-15757D01*
X27833Y-15843D01*
X27792Y-15938D01*
X27770Y-16040D01*
X27769Y-16144D01*
X27788Y-16246D01*
X27826Y-16343D01*
X27882Y-16430D01*
X27954Y-16505D01*
X27975Y-16520D01*
X26627Y-16520D01*
X26627Y-16519D01*
X26703Y-16447D01*
X26762Y-16363D01*
X26778Y-16374D01*
X26896Y-16425D01*
X27022Y-16453D01*
X27150Y-16456D01*
X27276Y-16433D01*
X27396Y-16387D01*
X27505Y-16318D01*
X27598Y-16230D01*
X27672Y-16125D01*
X27724Y-16007D01*
X27752Y-15882D01*
X27755Y-15735D01*
X27730Y-15609D01*
X27681Y-15491D01*
X27610Y-15384D01*
X27545Y-15318D01*
X27604Y-15281D01*
X27708Y-15182D01*
X27791Y-15064D01*
X27850Y-14932D01*
X27882Y-14792D01*
X27884Y-14627D01*
X27856Y-14486D01*
X27826Y-14414D01*
X27848Y-14410D01*
X27982Y-14358D01*
X28104Y-14281D01*
X28208Y-14182D01*
X28291Y-14064D01*
X28350Y-13932D01*
X28382Y-13792D01*
X28384Y-13627D01*
X28356Y-13486D01*
X28301Y-13353D01*
X28221Y-13233D01*
X28120Y-13131D01*
X28000Y-13050D01*
X27868Y-12995D01*
X27727Y-12966D01*
X27583Y-12965D01*
X27441Y-12992D01*
X27308Y-13046D01*
X27187Y-13124D01*
X27150Y-13161D01*
X27120Y-13131D01*
X27000Y-13050D01*
X26868Y-12995D01*
X26727Y-12966D01*
X26583Y-12965D01*
X26441Y-12992D01*
X26308Y-13046D01*
X26187Y-13124D01*
X26084Y-13225D01*
X26003Y-13344D01*
X25946Y-13476D01*
X25916Y-13617D01*
X25914Y-13761D01*
X25940Y-13903D01*
X25973Y-13986D01*
X25941Y-13992D01*
X25808Y-14046D01*
X25687Y-14124D01*
X25584Y-14225D01*
X25503Y-14344D01*
X25446Y-14476D01*
X25416Y-14617D01*
X25414Y-14761D01*
X25440Y-14903D01*
X25493Y-15037D01*
X25571Y-15158D01*
X25671Y-15261D01*
X25790Y-15344D01*
X25921Y-15401D01*
X26062Y-15432D01*
X26206Y-15435D01*
X26348Y-15410D01*
X26482Y-15358D01*
X26604Y-15281D01*
X26649Y-15238D01*
X26671Y-15261D01*
X26698Y-15280D01*
X26687Y-15287D01*
X26595Y-15376D01*
X26523Y-15482D01*
X26473Y-15598D01*
X26457Y-15591D01*
X26355Y-15570D01*
X26251Y-15569D01*
X26149Y-15589D01*
X26053Y-15628D01*
X25966Y-15684D01*
X25892Y-15757D01*
X25833Y-15843D01*
X25792Y-15938D01*
X25770Y-16040D01*
X25769Y-16144D01*
X25788Y-16246D01*
X25826Y-16343D01*
X25882Y-16430D01*
X25954Y-16505D01*
X25975Y-16520D01*
X25522Y-16520D01*
X25563Y-16463D01*
X25605Y-16368D01*
X25628Y-16266D01*
X25630Y-16148D01*
X25609Y-16046D01*
X25570Y-15949D01*
X25512Y-15863D01*
X25439Y-15789D01*
X25353Y-15731D01*
X25257Y-15691D01*
X25155Y-15670D01*
X25051Y-15669D01*
X24949Y-15689D01*
X24853Y-15728D01*
X24766Y-15784D01*
X24692Y-15857D01*
X24633Y-15943D01*
X24592Y-16038D01*
X24570Y-16140D01*
X24569Y-16244D01*
X24588Y-16346D01*
X24626Y-16443D01*
X24675Y-16520D01*
X23027Y-16520D01*
X23027Y-16519D01*
X23103Y-16447D01*
X23163Y-16363D01*
X23205Y-16268D01*
X23228Y-16166D01*
X23230Y-16048D01*
X23209Y-15946D01*
X23170Y-15849D01*
X23112Y-15763D01*
X23039Y-15689D01*
X22953Y-15631D01*
X22857Y-15591D01*
X22755Y-15570D01*
X22651Y-15569D01*
X22549Y-15589D01*
X22453Y-15628D01*
X22366Y-15684D01*
X22292Y-15757D01*
X22233Y-15843D01*
X22192Y-15938D01*
X22170Y-16040D01*
X22169Y-16144D01*
X22188Y-16246D01*
X22226Y-16343D01*
X22282Y-16430D01*
X22354Y-16505D01*
X22375Y-16520D01*
X21027Y-16520D01*
X21027Y-16519D01*
X21103Y-16447D01*
X21162Y-16363D01*
X21178Y-16374D01*
X21296Y-16425D01*
X21422Y-16453D01*
X21550Y-16456D01*
X21676Y-16433D01*
X21796Y-16387D01*
X21905Y-16318D01*
X21998Y-16230D01*
X22072Y-16125D01*
X22124Y-16007D01*
X22152Y-15882D01*
X22155Y-15735D01*
X22130Y-15609D01*
X22081Y-15491D01*
X22010Y-15384D01*
X21945Y-15318D01*
X22004Y-15281D01*
X22108Y-15182D01*
X22191Y-15064D01*
X22250Y-14932D01*
X22282Y-14792D01*
X22284Y-14627D01*
X22256Y-14486D01*
X22226Y-14414D01*
X22248Y-14410D01*
X22382Y-14358D01*
X22504Y-14281D01*
X22608Y-14182D01*
X22691Y-14064D01*
X22750Y-13932D01*
X22782Y-13792D01*
X22784Y-13627D01*
X22756Y-13486D01*
X22701Y-13353D01*
X22621Y-13233D01*
X22520Y-13131D01*
X22400Y-13050D01*
X22268Y-12995D01*
X22127Y-12966D01*
X21983Y-12965D01*
X21841Y-12992D01*
X21708Y-13046D01*
X21587Y-13124D01*
X21550Y-13161D01*
X21520Y-13131D01*
X21400Y-13050D01*
X21268Y-12995D01*
X21127Y-12966D01*
X20983Y-12965D01*
X20841Y-12992D01*
X20708Y-13046D01*
X20587Y-13124D01*
X20484Y-13225D01*
X20403Y-13344D01*
X20346Y-13476D01*
X20316Y-13617D01*
X20314Y-13761D01*
X20340Y-13903D01*
X20373Y-13986D01*
X20341Y-13992D01*
X20208Y-14046D01*
X20087Y-14124D01*
X19984Y-14225D01*
X19903Y-14344D01*
X19846Y-14476D01*
X19816Y-14617D01*
X19814Y-14761D01*
X19840Y-14903D01*
X19893Y-15037D01*
X19971Y-15158D01*
X20071Y-15261D01*
X20190Y-15344D01*
X20321Y-15401D01*
X20462Y-15432D01*
X20606Y-15435D01*
X20748Y-15410D01*
X20882Y-15358D01*
X21004Y-15281D01*
X21049Y-15238D01*
X21071Y-15261D01*
X21098Y-15280D01*
X21087Y-15287D01*
X20995Y-15376D01*
X20923Y-15482D01*
X20873Y-15598D01*
X20857Y-15591D01*
X20755Y-15570D01*
X20651Y-15569D01*
X20549Y-15589D01*
X20453Y-15628D01*
X20366Y-15684D01*
X20292Y-15757D01*
X20233Y-15843D01*
X20192Y-15938D01*
X20170Y-16040D01*
X20169Y-16144D01*
X20188Y-16246D01*
X20226Y-16343D01*
X20282Y-16430D01*
X20354Y-16505D01*
X20375Y-16520D01*
X19922Y-16520D01*
X19963Y-16463D01*
X20005Y-16368D01*
X20028Y-16266D01*
X20030Y-16148D01*
X20009Y-16046D01*
X19970Y-15949D01*
X19912Y-15863D01*
X19839Y-15789D01*
X19753Y-15731D01*
X19657Y-15691D01*
X19555Y-15670D01*
X19451Y-15669D01*
X19349Y-15689D01*
X19253Y-15728D01*
X19166Y-15784D01*
X19092Y-15857D01*
X19033Y-15943D01*
X18992Y-16038D01*
X18970Y-16140D01*
X18969Y-16244D01*
X18988Y-16346D01*
X19026Y-16443D01*
X19075Y-16520D01*
X17427Y-16520D01*
X17427Y-16519D01*
X17503Y-16447D01*
X17563Y-16363D01*
X17605Y-16268D01*
X17628Y-16166D01*
X17630Y-16048D01*
X17609Y-15946D01*
X17570Y-15849D01*
X17512Y-15763D01*
X17439Y-15689D01*
X17353Y-15631D01*
X17257Y-15591D01*
X17184Y-15576D01*
X17184Y-13627D01*
X17156Y-13486D01*
X17101Y-13353D01*
X17021Y-13233D01*
X16920Y-13131D01*
X16800Y-13050D01*
X16668Y-12995D01*
X16527Y-12966D01*
X16383Y-12965D01*
X16241Y-12992D01*
X16108Y-13046D01*
X15987Y-13124D01*
X15950Y-13161D01*
X15920Y-13131D01*
X15800Y-13050D01*
X15668Y-12995D01*
X15527Y-12966D01*
X15383Y-12965D01*
X15241Y-12992D01*
X15108Y-13046D01*
X14987Y-13124D01*
X14884Y-13225D01*
X14803Y-13344D01*
X14746Y-13476D01*
X14716Y-13617D01*
X14714Y-13761D01*
X14740Y-13903D01*
X14773Y-13986D01*
X14741Y-13992D01*
X14608Y-14046D01*
X14487Y-14124D01*
X14384Y-14225D01*
X14303Y-14344D01*
X14246Y-14476D01*
X14216Y-14617D01*
X14214Y-14761D01*
X14240Y-14903D01*
X14293Y-15037D01*
X14371Y-15158D01*
X14471Y-15261D01*
X14590Y-15344D01*
X14721Y-15401D01*
X14862Y-15432D01*
X15006Y-15435D01*
X15148Y-15410D01*
X15282Y-15358D01*
X15404Y-15281D01*
X15449Y-15238D01*
X15471Y-15261D01*
X15498Y-15280D01*
X15487Y-15287D01*
X15395Y-15376D01*
X15323Y-15482D01*
X15273Y-15598D01*
X15257Y-15591D01*
X15155Y-15570D01*
X15051Y-15569D01*
X14949Y-15589D01*
X14853Y-15628D01*
X14766Y-15684D01*
X14692Y-15757D01*
X14633Y-15843D01*
X14592Y-15938D01*
X14570Y-16040D01*
X14569Y-16144D01*
X14588Y-16246D01*
X14626Y-16343D01*
X14682Y-16430D01*
X14754Y-16505D01*
X14840Y-16564D01*
X14935Y-16606D01*
X15036Y-16628D01*
X15140Y-16630D01*
X15243Y-16612D01*
X15340Y-16575D01*
X15427Y-16519D01*
X15503Y-16447D01*
X15562Y-16363D01*
X15578Y-16374D01*
X15696Y-16425D01*
X15822Y-16453D01*
X15950Y-16456D01*
X16076Y-16433D01*
X16196Y-16387D01*
X16305Y-16318D01*
X16398Y-16230D01*
X16472Y-16125D01*
X16524Y-16007D01*
X16552Y-15882D01*
X16555Y-15735D01*
X16530Y-15609D01*
X16481Y-15491D01*
X16410Y-15384D01*
X16345Y-15318D01*
X16404Y-15281D01*
X16508Y-15182D01*
X16591Y-15064D01*
X16650Y-14932D01*
X16682Y-14792D01*
X16684Y-14627D01*
X16656Y-14486D01*
X16626Y-14414D01*
X16648Y-14410D01*
X16782Y-14358D01*
X16904Y-14281D01*
X17008Y-14182D01*
X17091Y-14064D01*
X17150Y-13932D01*
X17182Y-13792D01*
X17184Y-13627D01*
X17184Y-15576D01*
X17155Y-15570D01*
X17051Y-15569D01*
X16949Y-15589D01*
X16853Y-15628D01*
X16766Y-15684D01*
X16692Y-15757D01*
X16633Y-15843D01*
X16592Y-15938D01*
X16570Y-16040D01*
X16569Y-16144D01*
X16588Y-16246D01*
X16626Y-16343D01*
X16682Y-16430D01*
X16754Y-16505D01*
X16840Y-16564D01*
X16935Y-16606D01*
X17036Y-16628D01*
X17120Y-16630D01*
X17120Y-24880D01*
X18520Y-24880D01*
X18628Y-24903D01*
X18746Y-24906D01*
X18863Y-24885D01*
X18877Y-24880D01*
X21120Y-24880D01*
X21120Y-25474D01*
X21120Y-29100D01*
X20930Y-29100D01*
X20930Y-27928D01*
X20902Y-27787D01*
X20847Y-27655D01*
X20768Y-27536D01*
X20667Y-27434D01*
X20548Y-27354D01*
X20416Y-27299D01*
X20276Y-27270D01*
X20133Y-27269D01*
X19992Y-27296D01*
X19860Y-27349D01*
X19740Y-27428D01*
X19638Y-27528D01*
X19557Y-27646D01*
X19500Y-27778D01*
X19471Y-27918D01*
X19469Y-28061D01*
X19494Y-28202D01*
X19547Y-28335D01*
X19625Y-28455D01*
X19724Y-28558D01*
X19842Y-28640D01*
X19973Y-28697D01*
X20113Y-28728D01*
X20256Y-28731D01*
X20397Y-28706D01*
X20530Y-28654D01*
X20651Y-28578D01*
X20755Y-28479D01*
X20837Y-28362D01*
X20896Y-28231D01*
X20927Y-28091D01*
X20930Y-27928D01*
X20930Y-29100D01*
X19030Y-29100D01*
X19030Y-27948D01*
X19009Y-27846D01*
X18970Y-27749D01*
X18937Y-27699D01*
X18963Y-27663D01*
X19005Y-27568D01*
X19028Y-27466D01*
X19030Y-27348D01*
X19009Y-27246D01*
X18970Y-27149D01*
X18937Y-27099D01*
X18963Y-27063D01*
X19005Y-26968D01*
X19028Y-26866D01*
X19030Y-26748D01*
X19009Y-26646D01*
X18970Y-26549D01*
X18937Y-26499D01*
X18963Y-26463D01*
X19005Y-26368D01*
X19028Y-26266D01*
X19030Y-26148D01*
X19009Y-26046D01*
X18970Y-25949D01*
X18912Y-25863D01*
X18839Y-25789D01*
X18753Y-25731D01*
X18693Y-25706D01*
X18670Y-25649D01*
X18612Y-25563D01*
X18539Y-25489D01*
X18453Y-25431D01*
X18357Y-25391D01*
X18255Y-25370D01*
X18151Y-25369D01*
X18049Y-25389D01*
X17953Y-25428D01*
X17866Y-25484D01*
X17792Y-25557D01*
X17733Y-25643D01*
X17698Y-25725D01*
X17676Y-25671D01*
X17634Y-25609D01*
X17582Y-25556D01*
X17520Y-25515D01*
X17451Y-25486D01*
X17378Y-25471D01*
X17304Y-25470D01*
X16255Y-25470D01*
X16255Y-21645D01*
X16233Y-21538D01*
X16192Y-21438D01*
X16132Y-21347D01*
X16055Y-21270D01*
X15965Y-21209D01*
X15864Y-21167D01*
X15758Y-21145D01*
X15649Y-21144D01*
X15542Y-21165D01*
X15441Y-21205D01*
X15350Y-21265D01*
X15272Y-21341D01*
X15211Y-21431D01*
X15168Y-21531D01*
X15145Y-21637D01*
X15144Y-21746D01*
X15163Y-21853D01*
X15203Y-21954D01*
X15262Y-22046D01*
X15338Y-22124D01*
X15427Y-22186D01*
X15527Y-22230D01*
X15633Y-22253D01*
X15742Y-22256D01*
X15849Y-22237D01*
X15951Y-22197D01*
X16043Y-22139D01*
X16122Y-22064D01*
X16184Y-21975D01*
X16229Y-21876D01*
X16253Y-21769D01*
X16255Y-21645D01*
X16255Y-25470D01*
X15923Y-25470D01*
X15869Y-25481D01*
X15869Y-24632D01*
X15854Y-24559D01*
X15826Y-24490D01*
X15784Y-24428D01*
X15732Y-24375D01*
X15670Y-24334D01*
X15601Y-24305D01*
X15528Y-24290D01*
X15454Y-24289D01*
X14430Y-24289D01*
X14430Y-16148D01*
X14409Y-16046D01*
X14370Y-15949D01*
X14312Y-15863D01*
X14239Y-15789D01*
X14153Y-15731D01*
X14057Y-15691D01*
X13955Y-15670D01*
X13851Y-15669D01*
X13749Y-15689D01*
X13653Y-15728D01*
X13566Y-15784D01*
X13492Y-15857D01*
X13433Y-15943D01*
X13392Y-16038D01*
X13370Y-16140D01*
X13369Y-16244D01*
X13388Y-16346D01*
X13426Y-16443D01*
X13482Y-16530D01*
X13554Y-16605D01*
X13640Y-16664D01*
X13735Y-16706D01*
X13836Y-16728D01*
X13940Y-16730D01*
X14043Y-16712D01*
X14140Y-16675D01*
X14227Y-16619D01*
X14303Y-16547D01*
X14363Y-16463D01*
X14405Y-16368D01*
X14428Y-16266D01*
X14430Y-16148D01*
X14430Y-24289D01*
X14073Y-24289D01*
X14000Y-24304D01*
X13931Y-24332D01*
X13869Y-24374D01*
X13816Y-24426D01*
X13775Y-24488D01*
X13746Y-24557D01*
X13731Y-24630D01*
X13730Y-24704D01*
X13730Y-26085D01*
X13745Y-26158D01*
X13773Y-26227D01*
X13815Y-26289D01*
X13867Y-26342D01*
X13929Y-26383D01*
X13998Y-26412D01*
X14071Y-26427D01*
X14145Y-26428D01*
X15526Y-26428D01*
X15580Y-26417D01*
X15580Y-26662D01*
X15528Y-26652D01*
X15454Y-26651D01*
X14073Y-26651D01*
X14000Y-26666D01*
X13931Y-26694D01*
X13869Y-26736D01*
X13816Y-26788D01*
X13775Y-26850D01*
X13746Y-26919D01*
X13731Y-26992D01*
X13730Y-27066D01*
X13730Y-28447D01*
X13745Y-28520D01*
X13773Y-28589D01*
X13815Y-28651D01*
X13867Y-28704D01*
X13929Y-28745D01*
X13998Y-28774D01*
X14071Y-28789D01*
X14145Y-28790D01*
X15526Y-28790D01*
X15599Y-28775D01*
X15668Y-28747D01*
X15730Y-28705D01*
X15783Y-28653D01*
X15824Y-28591D01*
X15853Y-28522D01*
X15868Y-28449D01*
X15869Y-28375D01*
X15869Y-27598D01*
X15921Y-27608D01*
X15995Y-27609D01*
X17376Y-27609D01*
X17449Y-27594D01*
X17518Y-27566D01*
X17580Y-27524D01*
X17633Y-27472D01*
X17674Y-27410D01*
X17703Y-27341D01*
X17711Y-27305D01*
X17726Y-27343D01*
X17762Y-27400D01*
X17733Y-27443D01*
X17692Y-27538D01*
X17670Y-27640D01*
X17669Y-27744D01*
X17688Y-27846D01*
X17726Y-27943D01*
X17762Y-28000D01*
X17733Y-28043D01*
X17692Y-28138D01*
X17670Y-28240D01*
X17669Y-28344D01*
X17688Y-28446D01*
X17726Y-28543D01*
X17782Y-28630D01*
X17854Y-28705D01*
X17940Y-28764D01*
X18035Y-28806D01*
X18136Y-28828D01*
X18240Y-28830D01*
X18343Y-28812D01*
X18440Y-28775D01*
X18527Y-28719D01*
X18603Y-28647D01*
X18663Y-28563D01*
X18694Y-28493D01*
X18740Y-28475D01*
X18827Y-28419D01*
X18903Y-28347D01*
X18963Y-28263D01*
X19005Y-28168D01*
X19028Y-28066D01*
X19030Y-27948D01*
X19030Y-29100D01*
X13555Y-29100D01*
X13555Y-23245D01*
X13533Y-23138D01*
X13492Y-23038D01*
X13432Y-22947D01*
X13355Y-22870D01*
X13265Y-22809D01*
X13164Y-22767D01*
X13058Y-22745D01*
X12949Y-22744D01*
X12842Y-22765D01*
X12741Y-22805D01*
X12650Y-22865D01*
X12572Y-22941D01*
X12511Y-23031D01*
X12468Y-23131D01*
X12445Y-23237D01*
X12444Y-23346D01*
X12463Y-23453D01*
X12503Y-23554D01*
X12562Y-23646D01*
X12638Y-23724D01*
X12727Y-23786D01*
X12827Y-23830D01*
X12933Y-23853D01*
X13042Y-23856D01*
X13149Y-23837D01*
X13251Y-23797D01*
X13343Y-23739D01*
X13422Y-23664D01*
X13484Y-23575D01*
X13529Y-23476D01*
X13553Y-23369D01*
X13555Y-23245D01*
X13555Y-29100D01*
X12288Y-29100D01*
X12387Y-28960D01*
X12477Y-28758D01*
X12526Y-28542D01*
X12530Y-28289D01*
X12487Y-28071D01*
X12402Y-27866D01*
X12279Y-27682D01*
X12123Y-27525D01*
X11940Y-27401D01*
X11934Y-27398D01*
X12099Y-27294D01*
X12259Y-27141D01*
X12387Y-26960D01*
X12477Y-26758D01*
X12526Y-26542D01*
X12530Y-26289D01*
X12487Y-26071D01*
X12402Y-25866D01*
X12279Y-25682D01*
X12123Y-25525D01*
X11940Y-25401D01*
X11735Y-25315D01*
X11518Y-25270D01*
X11297Y-25269D01*
X11079Y-25310D01*
X10873Y-25393D01*
X10688Y-25515D01*
X10530Y-25670D01*
X10404Y-25852D01*
X10399Y-25865D01*
X10399Y-22933D01*
X10510Y-23105D01*
X10664Y-23264D01*
X10846Y-23391D01*
X11049Y-23479D01*
X11265Y-23527D01*
X11487Y-23532D01*
X11705Y-23493D01*
X11911Y-23413D01*
X12099Y-23294D01*
X12259Y-23141D01*
X12387Y-22960D01*
X12477Y-22758D01*
X12526Y-22542D01*
X12530Y-22289D01*
X12487Y-22071D01*
X12402Y-21866D01*
X12279Y-21682D01*
X12123Y-21525D01*
X11940Y-21401D01*
X11934Y-21398D01*
X12099Y-21294D01*
X12259Y-21141D01*
X12387Y-20960D01*
X12477Y-20758D01*
X12526Y-20542D01*
X12530Y-20289D01*
X12487Y-20071D01*
X12402Y-19866D01*
X12279Y-19682D01*
X12123Y-19525D01*
X11940Y-19401D01*
X11735Y-19315D01*
X11518Y-19270D01*
X11297Y-19269D01*
X11079Y-19310D01*
X10873Y-19393D01*
X10688Y-19515D01*
X10530Y-19670D01*
X10404Y-19852D01*
X10399Y-19865D01*
X10399Y-13598D01*
X10405Y-13613D01*
X10547Y-13834D01*
X10729Y-14022D01*
X10944Y-14172D01*
X11185Y-14277D01*
X11441Y-14333D01*
X11703Y-14338D01*
X11961Y-14293D01*
X12205Y-14198D01*
X12426Y-14058D01*
X12616Y-13877D01*
X12767Y-13663D01*
X12874Y-13423D01*
X12932Y-13168D01*
X12936Y-12868D01*
X12885Y-12611D01*
X12785Y-12369D01*
X12640Y-12151D01*
X12455Y-11965D01*
X12238Y-11818D01*
X11997Y-11717D01*
X11740Y-11664D01*
X11478Y-11662D01*
X11220Y-11711D01*
X10977Y-11810D01*
X10758Y-11953D01*
X10571Y-12136D01*
X10423Y-12353D01*
X10399Y-12408D01*
X10399Y-10399D01*
X13078Y-10399D01*
X13064Y-10409D01*
X12922Y-10547D01*
X12810Y-10711D01*
X12732Y-10893D01*
X12691Y-11086D01*
X12688Y-11284D01*
X12724Y-11479D01*
X12797Y-11663D01*
X12904Y-11830D01*
X13042Y-11972D01*
X13204Y-12085D01*
X13386Y-12165D01*
X13579Y-12207D01*
X13777Y-12211D01*
X13972Y-12177D01*
X14157Y-12105D01*
X14324Y-11999D01*
X14468Y-11863D01*
X14582Y-11701D01*
X14662Y-11520D01*
X14706Y-11327D01*
X14709Y-11100D01*
X14671Y-10906D01*
X14596Y-10723D01*
X14486Y-10558D01*
X14346Y-10418D01*
X14319Y-10399D01*
X17078Y-10399D01*
X17064Y-10409D01*
X16922Y-10547D01*
X16810Y-10711D01*
X16732Y-10893D01*
X16691Y-11086D01*
X16688Y-11284D01*
X16724Y-11479D01*
X16797Y-11663D01*
X16904Y-11830D01*
X17042Y-11972D01*
X17204Y-12085D01*
X17386Y-12165D01*
X17579Y-12207D01*
X17777Y-12211D01*
X17972Y-12177D01*
X18157Y-12105D01*
X18324Y-11999D01*
X18468Y-11863D01*
X18498Y-11820D01*
X18504Y-11830D01*
X18642Y-11972D01*
X18804Y-12085D01*
X18986Y-12165D01*
X19179Y-12207D01*
X19377Y-12211D01*
X19572Y-12177D01*
X19757Y-12105D01*
X19924Y-11999D01*
X20068Y-11863D01*
X20182Y-11701D01*
X20262Y-11520D01*
X20306Y-11327D01*
X20309Y-11100D01*
X20271Y-10906D01*
X20196Y-10723D01*
X20086Y-10558D01*
X19946Y-10418D01*
X19919Y-10399D01*
X22678Y-10399D01*
X22664Y-10409D01*
X22522Y-10547D01*
X22410Y-10711D01*
X22332Y-10893D01*
X22291Y-11086D01*
X22288Y-11284D01*
X22324Y-11479D01*
X22397Y-11663D01*
X22504Y-11830D01*
X22642Y-11972D01*
X22804Y-12085D01*
X22986Y-12165D01*
X23179Y-12207D01*
X23377Y-12211D01*
X23572Y-12177D01*
X23757Y-12105D01*
X23924Y-11999D01*
X24068Y-11863D01*
X24098Y-11820D01*
X24104Y-11830D01*
X24242Y-11972D01*
X24404Y-12085D01*
X24586Y-12165D01*
X24779Y-12207D01*
X24977Y-12211D01*
X25172Y-12177D01*
X25357Y-12105D01*
X25524Y-11999D01*
X25668Y-11863D01*
X25782Y-11701D01*
X25862Y-11520D01*
X25906Y-11327D01*
X25909Y-11100D01*
X25871Y-10906D01*
X25796Y-10723D01*
X25686Y-10558D01*
X25546Y-10418D01*
X25519Y-10399D01*
X28278Y-10399D01*
X28264Y-10409D01*
X28122Y-10547D01*
X28010Y-10711D01*
X27932Y-10893D01*
X27891Y-11086D01*
X27888Y-11284D01*
X27924Y-11479D01*
X27997Y-11663D01*
X28104Y-11830D01*
X28242Y-11972D01*
X28404Y-12085D01*
X28586Y-12165D01*
X28779Y-12207D01*
X28977Y-12211D01*
X29172Y-12177D01*
X29357Y-12105D01*
X29524Y-11999D01*
X29668Y-11863D01*
X29698Y-11820D01*
X29704Y-11830D01*
X29842Y-11972D01*
X30004Y-12085D01*
X30186Y-12165D01*
X30379Y-12207D01*
X30577Y-12211D01*
X30772Y-12177D01*
X30957Y-12105D01*
X31124Y-11999D01*
X31268Y-11863D01*
X31382Y-11701D01*
X31462Y-11520D01*
X31506Y-11327D01*
X31509Y-11100D01*
X31471Y-10906D01*
X31396Y-10723D01*
X31286Y-10558D01*
X31146Y-10418D01*
X31119Y-10399D01*
X33878Y-10399D01*
X33864Y-10409D01*
X33722Y-10547D01*
X33610Y-10711D01*
X33532Y-10893D01*
X33491Y-11086D01*
X33488Y-11284D01*
X33524Y-11479D01*
X33597Y-11663D01*
X33704Y-11830D01*
X33842Y-11972D01*
X34004Y-12085D01*
X34186Y-12165D01*
X34379Y-12207D01*
X34577Y-12211D01*
X34772Y-12177D01*
X34957Y-12105D01*
X35124Y-11999D01*
X35268Y-11863D01*
X35298Y-11820D01*
X35304Y-11830D01*
X35442Y-11972D01*
X35604Y-12085D01*
X35786Y-12165D01*
X35979Y-12207D01*
X36177Y-12211D01*
X36372Y-12177D01*
X36557Y-12105D01*
X36724Y-11999D01*
X36868Y-11863D01*
X36982Y-11701D01*
X37062Y-11520D01*
X37106Y-11327D01*
X37109Y-11100D01*
X37071Y-10906D01*
X36996Y-10723D01*
X36886Y-10558D01*
X36746Y-10418D01*
X36719Y-10399D01*
X39478Y-10399D01*
X39464Y-10409D01*
X39322Y-10547D01*
X39210Y-10711D01*
X39132Y-10893D01*
X39091Y-11086D01*
X39088Y-11284D01*
X39124Y-11479D01*
X39197Y-11663D01*
X39304Y-11830D01*
X39442Y-11972D01*
X39604Y-12085D01*
X39786Y-12165D01*
X39979Y-12207D01*
X40177Y-12211D01*
X40372Y-12177D01*
X40557Y-12105D01*
X40724Y-11999D01*
X40868Y-11863D01*
X40898Y-11820D01*
X40904Y-11830D01*
X41042Y-11972D01*
X41204Y-12085D01*
X41386Y-12165D01*
X41579Y-12207D01*
X41777Y-12211D01*
X41972Y-12177D01*
X42157Y-12105D01*
X42324Y-11999D01*
X42468Y-11863D01*
X42582Y-11701D01*
X42662Y-11520D01*
X42706Y-11327D01*
X42709Y-11100D01*
X42671Y-10906D01*
X42596Y-10723D01*
X42486Y-10558D01*
X42346Y-10418D01*
X42319Y-10399D01*
X45078Y-10399D01*
X45064Y-10409D01*
X44922Y-10547D01*
X44810Y-10711D01*
X44732Y-10893D01*
X44691Y-11086D01*
X44688Y-11284D01*
X44724Y-11479D01*
X44797Y-11663D01*
X44904Y-11830D01*
X45042Y-11972D01*
X45204Y-12085D01*
X45386Y-12165D01*
X45579Y-12207D01*
X45777Y-12211D01*
X45972Y-12177D01*
X46157Y-12105D01*
X46324Y-11999D01*
X46468Y-11863D01*
X46582Y-11701D01*
X46662Y-11520D01*
X46706Y-11327D01*
X46709Y-11100D01*
X46671Y-10906D01*
X46596Y-10723D01*
X46486Y-10558D01*
X46346Y-10418D01*
X46319Y-10399D01*
X48850Y-10399D01*
X48850Y-12166D01*
X48840Y-12151D01*
X48655Y-11965D01*
X48438Y-11818D01*
X48197Y-11717D01*
X47940Y-11664D01*
X47678Y-11662D01*
X47420Y-11711D01*
X47177Y-11810D01*
X46958Y-11953D01*
X46771Y-12136D01*
X46623Y-12353D01*
X46520Y-12593D01*
X46465Y-12850D01*
X46461Y-13112D01*
X46509Y-13370D01*
X46605Y-13613D01*
X46747Y-13834D01*
X46929Y-14022D01*
X47144Y-14172D01*
X47385Y-14277D01*
X47641Y-14333D01*
X47903Y-14338D01*
X48161Y-14293D01*
X48405Y-14198D01*
X48626Y-14058D01*
X48816Y-13877D01*
X48850Y-13829D01*
X48850Y-16520D01*
X48850Y-16520D01*
G37*
G54D21*
X48850Y-16520D02*
X45427Y-16520D01*
X45427Y-16519D01*
X45503Y-16447D01*
X45563Y-16363D01*
X45605Y-16268D01*
X45628Y-16166D01*
X45630Y-16048D01*
X45609Y-15946D01*
X45570Y-15849D01*
X45512Y-15763D01*
X45439Y-15689D01*
X45353Y-15631D01*
X45257Y-15591D01*
X45155Y-15570D01*
X45051Y-15569D01*
X44949Y-15589D01*
X44853Y-15628D01*
X44766Y-15684D01*
X44692Y-15757D01*
X44633Y-15843D01*
X44592Y-15938D01*
X44570Y-16040D01*
X44569Y-16144D01*
X44588Y-16246D01*
X44626Y-16343D01*
X44682Y-16430D01*
X44754Y-16505D01*
X44775Y-16520D01*
X43427Y-16520D01*
X43427Y-16519D01*
X43503Y-16447D01*
X43562Y-16363D01*
X43578Y-16374D01*
X43696Y-16425D01*
X43822Y-16453D01*
X43950Y-16456D01*
X44076Y-16433D01*
X44196Y-16387D01*
X44305Y-16318D01*
X44398Y-16230D01*
X44472Y-16125D01*
X44524Y-16007D01*
X44552Y-15882D01*
X44555Y-15735D01*
X44530Y-15609D01*
X44481Y-15491D01*
X44410Y-15384D01*
X44345Y-15318D01*
X44404Y-15281D01*
X44508Y-15182D01*
X44591Y-15064D01*
X44650Y-14932D01*
X44682Y-14792D01*
X44684Y-14627D01*
X44656Y-14486D01*
X44626Y-14414D01*
X44648Y-14410D01*
X44782Y-14358D01*
X44904Y-14281D01*
X45008Y-14182D01*
X45091Y-14064D01*
X45150Y-13932D01*
X45182Y-13792D01*
X45184Y-13627D01*
X45156Y-13486D01*
X45101Y-13353D01*
X45021Y-13233D01*
X44920Y-13131D01*
X44800Y-13050D01*
X44668Y-12995D01*
X44527Y-12966D01*
X44383Y-12965D01*
X44241Y-12992D01*
X44108Y-13046D01*
X43987Y-13124D01*
X43950Y-13161D01*
X43920Y-13131D01*
X43800Y-13050D01*
X43668Y-12995D01*
X43527Y-12966D01*
X43383Y-12965D01*
X43241Y-12992D01*
X43108Y-13046D01*
X42987Y-13124D01*
X42884Y-13225D01*
X42803Y-13344D01*
X42746Y-13476D01*
X42716Y-13617D01*
X42714Y-13761D01*
X42740Y-13903D01*
X42773Y-13986D01*
X42741Y-13992D01*
X42608Y-14046D01*
X42487Y-14124D01*
X42384Y-14225D01*
X42303Y-14344D01*
X42246Y-14476D01*
X42216Y-14617D01*
X42214Y-14761D01*
X42240Y-14903D01*
X42293Y-15037D01*
X42371Y-15158D01*
X42471Y-15261D01*
X42590Y-15344D01*
X42721Y-15401D01*
X42862Y-15432D01*
X43006Y-15435D01*
X43148Y-15410D01*
X43282Y-15358D01*
X43404Y-15281D01*
X43449Y-15238D01*
X43471Y-15261D01*
X43498Y-15280D01*
X43487Y-15287D01*
X43395Y-15376D01*
X43323Y-15482D01*
X43273Y-15598D01*
X43257Y-15591D01*
X43155Y-15570D01*
X43051Y-15569D01*
X42949Y-15589D01*
X42853Y-15628D01*
X42766Y-15684D01*
X42692Y-15757D01*
X42633Y-15843D01*
X42592Y-15938D01*
X42570Y-16040D01*
X42569Y-16144D01*
X42588Y-16246D01*
X42626Y-16343D01*
X42682Y-16430D01*
X42754Y-16505D01*
X42775Y-16520D01*
X42322Y-16520D01*
X42363Y-16463D01*
X42405Y-16368D01*
X42428Y-16266D01*
X42430Y-16148D01*
X42409Y-16046D01*
X42370Y-15949D01*
X42312Y-15863D01*
X42239Y-15789D01*
X42153Y-15731D01*
X42057Y-15691D01*
X41955Y-15670D01*
X41851Y-15669D01*
X41749Y-15689D01*
X41653Y-15728D01*
X41566Y-15784D01*
X41492Y-15857D01*
X41433Y-15943D01*
X41392Y-16038D01*
X41370Y-16140D01*
X41369Y-16244D01*
X41388Y-16346D01*
X41426Y-16443D01*
X41475Y-16520D01*
X39827Y-16520D01*
X39827Y-16519D01*
X39903Y-16447D01*
X39963Y-16363D01*
X40005Y-16268D01*
X40028Y-16166D01*
X40030Y-16048D01*
X40009Y-15946D01*
X39970Y-15849D01*
X39912Y-15763D01*
X39839Y-15689D01*
X39753Y-15631D01*
X39657Y-15591D01*
X39555Y-15570D01*
X39451Y-15569D01*
X39349Y-15589D01*
X39253Y-15628D01*
X39166Y-15684D01*
X39092Y-15757D01*
X39033Y-15843D01*
X38992Y-15938D01*
X38970Y-16040D01*
X38969Y-16144D01*
X38988Y-16246D01*
X39026Y-16343D01*
X39082Y-16430D01*
X39154Y-16505D01*
X39175Y-16520D01*
X37827Y-16520D01*
X37827Y-16519D01*
X37903Y-16447D01*
X37962Y-16363D01*
X37978Y-16374D01*
X38096Y-16425D01*
X38222Y-16453D01*
X38350Y-16456D01*
X38476Y-16433D01*
X38596Y-16387D01*
X38705Y-16318D01*
X38798Y-16230D01*
X38872Y-16125D01*
X38924Y-16007D01*
X38952Y-15882D01*
X38955Y-15735D01*
X38930Y-15609D01*
X38881Y-15491D01*
X38810Y-15384D01*
X38745Y-15318D01*
X38804Y-15281D01*
X38908Y-15182D01*
X38991Y-15064D01*
X39050Y-14932D01*
X39082Y-14792D01*
X39084Y-14627D01*
X39056Y-14486D01*
X39026Y-14414D01*
X39048Y-14410D01*
X39182Y-14358D01*
X39304Y-14281D01*
X39408Y-14182D01*
X39491Y-14064D01*
X39550Y-13932D01*
X39582Y-13792D01*
X39584Y-13627D01*
X39556Y-13486D01*
X39501Y-13353D01*
X39421Y-13233D01*
X39320Y-13131D01*
X39200Y-13050D01*
X39068Y-12995D01*
X38927Y-12966D01*
X38783Y-12965D01*
X38641Y-12992D01*
X38508Y-13046D01*
X38387Y-13124D01*
X38350Y-13161D01*
X38320Y-13131D01*
X38200Y-13050D01*
X38068Y-12995D01*
X37927Y-12966D01*
X37783Y-12965D01*
X37641Y-12992D01*
X37508Y-13046D01*
X37387Y-13124D01*
X37284Y-13225D01*
X37203Y-13344D01*
X37146Y-13476D01*
X37116Y-13617D01*
X37114Y-13761D01*
X37140Y-13903D01*
X37173Y-13986D01*
X37141Y-13992D01*
X37008Y-14046D01*
X36887Y-14124D01*
X36784Y-14225D01*
X36703Y-14344D01*
X36646Y-14476D01*
X36616Y-14617D01*
X36614Y-14761D01*
X36640Y-14903D01*
X36693Y-15037D01*
X36771Y-15158D01*
X36871Y-15261D01*
X36990Y-15344D01*
X37121Y-15401D01*
X37262Y-15432D01*
X37406Y-15435D01*
X37548Y-15410D01*
X37682Y-15358D01*
X37804Y-15281D01*
X37849Y-15238D01*
X37871Y-15261D01*
X37898Y-15280D01*
X37887Y-15287D01*
X37795Y-15376D01*
X37723Y-15482D01*
X37673Y-15598D01*
X37657Y-15591D01*
X37555Y-15570D01*
X37451Y-15569D01*
X37349Y-15589D01*
X37253Y-15628D01*
X37166Y-15684D01*
X37092Y-15757D01*
X37033Y-15843D01*
X36992Y-15938D01*
X36970Y-16040D01*
X36969Y-16144D01*
X36988Y-16246D01*
X37026Y-16343D01*
X37082Y-16430D01*
X37154Y-16505D01*
X37175Y-16520D01*
X36722Y-16520D01*
X36763Y-16463D01*
X36805Y-16368D01*
X36828Y-16266D01*
X36830Y-16148D01*
X36809Y-16046D01*
X36770Y-15949D01*
X36712Y-15863D01*
X36639Y-15789D01*
X36553Y-15731D01*
X36457Y-15691D01*
X36355Y-15670D01*
X36251Y-15669D01*
X36149Y-15689D01*
X36053Y-15728D01*
X35966Y-15784D01*
X35892Y-15857D01*
X35833Y-15943D01*
X35792Y-16038D01*
X35770Y-16140D01*
X35769Y-16244D01*
X35788Y-16346D01*
X35826Y-16443D01*
X35875Y-16520D01*
X34227Y-16520D01*
X34227Y-16519D01*
X34303Y-16447D01*
X34363Y-16363D01*
X34405Y-16268D01*
X34428Y-16166D01*
X34430Y-16048D01*
X34409Y-15946D01*
X34370Y-15849D01*
X34312Y-15763D01*
X34239Y-15689D01*
X34153Y-15631D01*
X34057Y-15591D01*
X33955Y-15570D01*
X33851Y-15569D01*
X33749Y-15589D01*
X33653Y-15628D01*
X33566Y-15684D01*
X33492Y-15757D01*
X33433Y-15843D01*
X33392Y-15938D01*
X33370Y-16040D01*
X33369Y-16144D01*
X33388Y-16246D01*
X33426Y-16343D01*
X33482Y-16430D01*
X33554Y-16505D01*
X33575Y-16520D01*
X32227Y-16520D01*
X32227Y-16519D01*
X32303Y-16447D01*
X32362Y-16363D01*
X32378Y-16374D01*
X32496Y-16425D01*
X32622Y-16453D01*
X32750Y-16456D01*
X32876Y-16433D01*
X32996Y-16387D01*
X33105Y-16318D01*
X33198Y-16230D01*
X33272Y-16125D01*
X33324Y-16007D01*
X33352Y-15882D01*
X33355Y-15735D01*
X33330Y-15609D01*
X33281Y-15491D01*
X33210Y-15384D01*
X33145Y-15318D01*
X33204Y-15281D01*
X33308Y-15182D01*
X33391Y-15064D01*
X33450Y-14932D01*
X33482Y-14792D01*
X33484Y-14627D01*
X33456Y-14486D01*
X33426Y-14414D01*
X33448Y-14410D01*
X33582Y-14358D01*
X33704Y-14281D01*
X33808Y-14182D01*
X33891Y-14064D01*
X33950Y-13932D01*
X33982Y-13792D01*
X33984Y-13627D01*
X33956Y-13486D01*
X33901Y-13353D01*
X33821Y-13233D01*
X33720Y-13131D01*
X33600Y-13050D01*
X33468Y-12995D01*
X33327Y-12966D01*
X33183Y-12965D01*
X33041Y-12992D01*
X32908Y-13046D01*
X32787Y-13124D01*
X32750Y-13161D01*
X32720Y-13131D01*
X32600Y-13050D01*
X32468Y-12995D01*
X32327Y-12966D01*
X32183Y-12965D01*
X32041Y-12992D01*
X31908Y-13046D01*
X31787Y-13124D01*
X31684Y-13225D01*
X31603Y-13344D01*
X31546Y-13476D01*
X31516Y-13617D01*
X31514Y-13761D01*
X31540Y-13903D01*
X31573Y-13986D01*
X31541Y-13992D01*
X31408Y-14046D01*
X31287Y-14124D01*
X31184Y-14225D01*
X31103Y-14344D01*
X31046Y-14476D01*
X31016Y-14617D01*
X31014Y-14761D01*
X31040Y-14903D01*
X31093Y-15037D01*
X31171Y-15158D01*
X31271Y-15261D01*
X31390Y-15344D01*
X31521Y-15401D01*
X31662Y-15432D01*
X31806Y-15435D01*
X31948Y-15410D01*
X32082Y-15358D01*
X32204Y-15281D01*
X32249Y-15238D01*
X32271Y-15261D01*
X32298Y-15280D01*
X32287Y-15287D01*
X32195Y-15376D01*
X32123Y-15482D01*
X32073Y-15598D01*
X32057Y-15591D01*
X31955Y-15570D01*
X31851Y-15569D01*
X31749Y-15589D01*
X31653Y-15628D01*
X31566Y-15684D01*
X31492Y-15757D01*
X31433Y-15843D01*
X31392Y-15938D01*
X31370Y-16040D01*
X31369Y-16144D01*
X31388Y-16246D01*
X31426Y-16343D01*
X31482Y-16430D01*
X31554Y-16505D01*
X31575Y-16520D01*
X31122Y-16520D01*
X31163Y-16463D01*
X31205Y-16368D01*
X31228Y-16266D01*
X31230Y-16148D01*
X31209Y-16046D01*
X31170Y-15949D01*
X31112Y-15863D01*
X31039Y-15789D01*
X30953Y-15731D01*
X30857Y-15691D01*
X30755Y-15670D01*
X30651Y-15669D01*
X30549Y-15689D01*
X30453Y-15728D01*
X30366Y-15784D01*
X30292Y-15857D01*
X30233Y-15943D01*
X30192Y-16038D01*
X30170Y-16140D01*
X30169Y-16244D01*
X30188Y-16346D01*
X30226Y-16443D01*
X30275Y-16520D01*
X28627Y-16520D01*
X28627Y-16519D01*
X28703Y-16447D01*
X28763Y-16363D01*
X28805Y-16268D01*
X28828Y-16166D01*
X28830Y-16048D01*
X28809Y-15946D01*
X28770Y-15849D01*
X28712Y-15763D01*
X28639Y-15689D01*
X28553Y-15631D01*
X28457Y-15591D01*
X28355Y-15570D01*
X28251Y-15569D01*
X28149Y-15589D01*
X28053Y-15628D01*
X27966Y-15684D01*
X27892Y-15757D01*
X27833Y-15843D01*
X27792Y-15938D01*
X27770Y-16040D01*
X27769Y-16144D01*
X27788Y-16246D01*
X27826Y-16343D01*
X27882Y-16430D01*
X27954Y-16505D01*
X27975Y-16520D01*
X26627Y-16520D01*
X26627Y-16519D01*
X26703Y-16447D01*
X26762Y-16363D01*
X26778Y-16374D01*
X26896Y-16425D01*
X27022Y-16453D01*
X27150Y-16456D01*
X27276Y-16433D01*
X27396Y-16387D01*
X27505Y-16318D01*
X27598Y-16230D01*
X27672Y-16125D01*
X27724Y-16007D01*
X27752Y-15882D01*
X27755Y-15735D01*
X27730Y-15609D01*
X27681Y-15491D01*
X27610Y-15384D01*
X27545Y-15318D01*
X27604Y-15281D01*
X27708Y-15182D01*
X27791Y-15064D01*
X27850Y-14932D01*
X27882Y-14792D01*
X27884Y-14627D01*
X27856Y-14486D01*
X27826Y-14414D01*
X27848Y-14410D01*
X27982Y-14358D01*
X28104Y-14281D01*
X28208Y-14182D01*
X28291Y-14064D01*
X28350Y-13932D01*
X28382Y-13792D01*
X28384Y-13627D01*
X28356Y-13486D01*
X28301Y-13353D01*
X28221Y-13233D01*
X28120Y-13131D01*
X28000Y-13050D01*
X27868Y-12995D01*
X27727Y-12966D01*
X27583Y-12965D01*
X27441Y-12992D01*
X27308Y-13046D01*
X27187Y-13124D01*
X27150Y-13161D01*
X27120Y-13131D01*
X27000Y-13050D01*
X26868Y-12995D01*
X26727Y-12966D01*
X26583Y-12965D01*
X26441Y-12992D01*
X26308Y-13046D01*
X26187Y-13124D01*
X26084Y-13225D01*
X26003Y-13344D01*
X25946Y-13476D01*
X25916Y-13617D01*
X25914Y-13761D01*
X25940Y-13903D01*
X25973Y-13986D01*
X25941Y-13992D01*
X25808Y-14046D01*
X25687Y-14124D01*
X25584Y-14225D01*
X25503Y-14344D01*
X25446Y-14476D01*
X25416Y-14617D01*
X25414Y-14761D01*
X25440Y-14903D01*
X25493Y-15037D01*
X25571Y-15158D01*
X25671Y-15261D01*
X25790Y-15344D01*
X25921Y-15401D01*
X26062Y-15432D01*
X26206Y-15435D01*
X26348Y-15410D01*
X26482Y-15358D01*
X26604Y-15281D01*
X26649Y-15238D01*
X26671Y-15261D01*
X26698Y-15280D01*
X26687Y-15287D01*
X26595Y-15376D01*
X26523Y-15482D01*
X26473Y-15598D01*
X26457Y-15591D01*
X26355Y-15570D01*
X26251Y-15569D01*
X26149Y-15589D01*
X26053Y-15628D01*
X25966Y-15684D01*
X25892Y-15757D01*
X25833Y-15843D01*
X25792Y-15938D01*
X25770Y-16040D01*
X25769Y-16144D01*
X25788Y-16246D01*
X25826Y-16343D01*
X25882Y-16430D01*
X25954Y-16505D01*
X25975Y-16520D01*
X25522Y-16520D01*
X25563Y-16463D01*
X25605Y-16368D01*
X25628Y-16266D01*
X25630Y-16148D01*
X25609Y-16046D01*
X25570Y-15949D01*
X25512Y-15863D01*
X25439Y-15789D01*
X25353Y-15731D01*
X25257Y-15691D01*
X25155Y-15670D01*
X25051Y-15669D01*
X24949Y-15689D01*
X24853Y-15728D01*
X24766Y-15784D01*
X24692Y-15857D01*
X24633Y-15943D01*
X24592Y-16038D01*
X24570Y-16140D01*
X24569Y-16244D01*
X24588Y-16346D01*
X24626Y-16443D01*
X24675Y-16520D01*
X23027Y-16520D01*
X23027Y-16519D01*
X23103Y-16447D01*
X23163Y-16363D01*
X23205Y-16268D01*
X23228Y-16166D01*
X23230Y-16048D01*
X23209Y-15946D01*
X23170Y-15849D01*
X23112Y-15763D01*
X23039Y-15689D01*
X22953Y-15631D01*
X22857Y-15591D01*
X22755Y-15570D01*
X22651Y-15569D01*
X22549Y-15589D01*
X22453Y-15628D01*
X22366Y-15684D01*
X22292Y-15757D01*
X22233Y-15843D01*
X22192Y-15938D01*
X22170Y-16040D01*
X22169Y-16144D01*
X22188Y-16246D01*
X22226Y-16343D01*
X22282Y-16430D01*
X22354Y-16505D01*
X22375Y-16520D01*
X21027Y-16520D01*
X21027Y-16519D01*
X21103Y-16447D01*
X21162Y-16363D01*
X21178Y-16374D01*
X21296Y-16425D01*
X21422Y-16453D01*
X21550Y-16456D01*
X21676Y-16433D01*
X21796Y-16387D01*
X21905Y-16318D01*
X21998Y-16230D01*
X22072Y-16125D01*
X22124Y-16007D01*
X22152Y-15882D01*
X22155Y-15735D01*
X22130Y-15609D01*
X22081Y-15491D01*
X22010Y-15384D01*
X21945Y-15318D01*
X22004Y-15281D01*
X22108Y-15182D01*
X22191Y-15064D01*
X22250Y-14932D01*
X22282Y-14792D01*
X22284Y-14627D01*
X22256Y-14486D01*
X22226Y-14414D01*
X22248Y-14410D01*
X22382Y-14358D01*
X22504Y-14281D01*
X22608Y-14182D01*
X22691Y-14064D01*
X22750Y-13932D01*
X22782Y-13792D01*
X22784Y-13627D01*
X22756Y-13486D01*
X22701Y-13353D01*
X22621Y-13233D01*
X22520Y-13131D01*
X22400Y-13050D01*
X22268Y-12995D01*
X22127Y-12966D01*
X21983Y-12965D01*
X21841Y-12992D01*
X21708Y-13046D01*
X21587Y-13124D01*
X21550Y-13161D01*
X21520Y-13131D01*
X21400Y-13050D01*
X21268Y-12995D01*
X21127Y-12966D01*
X20983Y-12965D01*
X20841Y-12992D01*
X20708Y-13046D01*
X20587Y-13124D01*
X20484Y-13225D01*
X20403Y-13344D01*
X20346Y-13476D01*
X20316Y-13617D01*
X20314Y-13761D01*
X20340Y-13903D01*
X20373Y-13986D01*
X20341Y-13992D01*
X20208Y-14046D01*
X20087Y-14124D01*
X19984Y-14225D01*
X19903Y-14344D01*
X19846Y-14476D01*
X19816Y-14617D01*
X19814Y-14761D01*
X19840Y-14903D01*
X19893Y-15037D01*
X19971Y-15158D01*
X20071Y-15261D01*
X20190Y-15344D01*
X20321Y-15401D01*
X20462Y-15432D01*
X20606Y-15435D01*
X20748Y-15410D01*
X20882Y-15358D01*
X21004Y-15281D01*
X21049Y-15238D01*
X21071Y-15261D01*
X21098Y-15280D01*
X21087Y-15287D01*
X20995Y-15376D01*
X20923Y-15482D01*
X20873Y-15598D01*
X20857Y-15591D01*
X20755Y-15570D01*
X20651Y-15569D01*
X20549Y-15589D01*
X20453Y-15628D01*
X20366Y-15684D01*
X20292Y-15757D01*
X20233Y-15843D01*
X20192Y-15938D01*
X20170Y-16040D01*
X20169Y-16144D01*
X20188Y-16246D01*
X20226Y-16343D01*
X20282Y-16430D01*
X20354Y-16505D01*
X20375Y-16520D01*
X19922Y-16520D01*
X19963Y-16463D01*
X20005Y-16368D01*
X20028Y-16266D01*
X20030Y-16148D01*
X20009Y-16046D01*
X19970Y-15949D01*
X19912Y-15863D01*
X19839Y-15789D01*
X19753Y-15731D01*
X19657Y-15691D01*
X19555Y-15670D01*
X19451Y-15669D01*
X19349Y-15689D01*
X19253Y-15728D01*
X19166Y-15784D01*
X19092Y-15857D01*
X19033Y-15943D01*
X18992Y-16038D01*
X18970Y-16140D01*
X18969Y-16244D01*
X18988Y-16346D01*
X19026Y-16443D01*
X19075Y-16520D01*
X17427Y-16520D01*
X17427Y-16519D01*
X17503Y-16447D01*
X17563Y-16363D01*
X17605Y-16268D01*
X17628Y-16166D01*
X17630Y-16048D01*
X17609Y-15946D01*
X17570Y-15849D01*
X17512Y-15763D01*
X17439Y-15689D01*
X17353Y-15631D01*
X17257Y-15591D01*
X17184Y-15576D01*
X17184Y-13627D01*
X17156Y-13486D01*
X17101Y-13353D01*
X17021Y-13233D01*
X16920Y-13131D01*
X16800Y-13050D01*
X16668Y-12995D01*
X16527Y-12966D01*
X16383Y-12965D01*
X16241Y-12992D01*
X16108Y-13046D01*
X15987Y-13124D01*
X15950Y-13161D01*
X15920Y-13131D01*
X15800Y-13050D01*
X15668Y-12995D01*
X15527Y-12966D01*
X15383Y-12965D01*
X15241Y-12992D01*
X15108Y-13046D01*
X14987Y-13124D01*
X14884Y-13225D01*
X14803Y-13344D01*
X14746Y-13476D01*
X14716Y-13617D01*
X14714Y-13761D01*
X14740Y-13903D01*
X14773Y-13986D01*
X14741Y-13992D01*
X14608Y-14046D01*
X14487Y-14124D01*
X14384Y-14225D01*
X14303Y-14344D01*
X14246Y-14476D01*
X14216Y-14617D01*
X14214Y-14761D01*
X14240Y-14903D01*
X14293Y-15037D01*
X14371Y-15158D01*
X14471Y-15261D01*
X14590Y-15344D01*
X14721Y-15401D01*
X14862Y-15432D01*
X15006Y-15435D01*
X15148Y-15410D01*
X15282Y-15358D01*
X15404Y-15281D01*
X15449Y-15238D01*
X15471Y-15261D01*
X15498Y-15280D01*
X15487Y-15287D01*
X15395Y-15376D01*
X15323Y-15482D01*
X15273Y-15598D01*
X15257Y-15591D01*
X15155Y-15570D01*
X15051Y-15569D01*
X14949Y-15589D01*
X14853Y-15628D01*
X14766Y-15684D01*
X14692Y-15757D01*
X14633Y-15843D01*
X14592Y-15938D01*
X14570Y-16040D01*
X14569Y-16144D01*
X14588Y-16246D01*
X14626Y-16343D01*
X14682Y-16430D01*
X14754Y-16505D01*
X14840Y-16564D01*
X14935Y-16606D01*
X15036Y-16628D01*
X15140Y-16630D01*
X15243Y-16612D01*
X15340Y-16575D01*
X15427Y-16519D01*
X15503Y-16447D01*
X15562Y-16363D01*
X15578Y-16374D01*
X15696Y-16425D01*
X15822Y-16453D01*
X15950Y-16456D01*
X16076Y-16433D01*
X16196Y-16387D01*
X16305Y-16318D01*
X16398Y-16230D01*
X16472Y-16125D01*
X16524Y-16007D01*
X16552Y-15882D01*
X16555Y-15735D01*
X16530Y-15609D01*
X16481Y-15491D01*
X16410Y-15384D01*
X16345Y-15318D01*
X16404Y-15281D01*
X16508Y-15182D01*
X16591Y-15064D01*
X16650Y-14932D01*
X16682Y-14792D01*
X16684Y-14627D01*
X16656Y-14486D01*
X16626Y-14414D01*
X16648Y-14410D01*
X16782Y-14358D01*
X16904Y-14281D01*
X17008Y-14182D01*
X17091Y-14064D01*
X17150Y-13932D01*
X17182Y-13792D01*
X17184Y-13627D01*
X17184Y-15576D01*
X17155Y-15570D01*
X17051Y-15569D01*
X16949Y-15589D01*
X16853Y-15628D01*
X16766Y-15684D01*
X16692Y-15757D01*
X16633Y-15843D01*
X16592Y-15938D01*
X16570Y-16040D01*
X16569Y-16144D01*
X16588Y-16246D01*
X16626Y-16343D01*
X16682Y-16430D01*
X16754Y-16505D01*
X16840Y-16564D01*
X16935Y-16606D01*
X17036Y-16628D01*
X17120Y-16630D01*
X17120Y-24880D01*
X18520Y-24880D01*
X18628Y-24903D01*
X18746Y-24906D01*
X18863Y-24885D01*
X18877Y-24880D01*
X21120Y-24880D01*
X21120Y-25474D01*
X21120Y-29100D01*
X20930Y-29100D01*
X20930Y-27928D01*
X20902Y-27787D01*
X20847Y-27655D01*
X20768Y-27536D01*
X20667Y-27434D01*
X20548Y-27354D01*
X20416Y-27299D01*
X20276Y-27270D01*
X20133Y-27269D01*
X19992Y-27296D01*
X19860Y-27349D01*
X19740Y-27428D01*
X19638Y-27528D01*
X19557Y-27646D01*
X19500Y-27778D01*
X19471Y-27918D01*
X19469Y-28061D01*
X19494Y-28202D01*
X19547Y-28335D01*
X19625Y-28455D01*
X19724Y-28558D01*
X19842Y-28640D01*
X19973Y-28697D01*
X20113Y-28728D01*
X20256Y-28731D01*
X20397Y-28706D01*
X20530Y-28654D01*
X20651Y-28578D01*
X20755Y-28479D01*
X20837Y-28362D01*
X20896Y-28231D01*
X20927Y-28091D01*
X20930Y-27928D01*
X20930Y-29100D01*
X19030Y-29100D01*
X19030Y-27948D01*
X19009Y-27846D01*
X18970Y-27749D01*
X18937Y-27699D01*
X18963Y-27663D01*
X19005Y-27568D01*
X19028Y-27466D01*
X19030Y-27348D01*
X19009Y-27246D01*
X18970Y-27149D01*
X18937Y-27099D01*
X18963Y-27063D01*
X19005Y-26968D01*
X19028Y-26866D01*
X19030Y-26748D01*
X19009Y-26646D01*
X18970Y-26549D01*
X18937Y-26499D01*
X18963Y-26463D01*
X19005Y-26368D01*
X19028Y-26266D01*
X19030Y-26148D01*
X19009Y-26046D01*
X18970Y-25949D01*
X18912Y-25863D01*
X18839Y-25789D01*
X18753Y-25731D01*
X18693Y-25706D01*
X18670Y-25649D01*
X18612Y-25563D01*
X18539Y-25489D01*
X18453Y-25431D01*
X18357Y-25391D01*
X18255Y-25370D01*
X18151Y-25369D01*
X18049Y-25389D01*
X17953Y-25428D01*
X17866Y-25484D01*
X17792Y-25557D01*
X17733Y-25643D01*
X17698Y-25725D01*
X17676Y-25671D01*
X17634Y-25609D01*
X17582Y-25556D01*
X17520Y-25515D01*
X17451Y-25486D01*
X17378Y-25471D01*
X17304Y-25470D01*
X16255Y-25470D01*
X16255Y-21645D01*
X16233Y-21538D01*
X16192Y-21438D01*
X16132Y-21347D01*
X16055Y-21270D01*
X15965Y-21209D01*
X15864Y-21167D01*
X15758Y-21145D01*
X15649Y-21144D01*
X15542Y-21165D01*
X15441Y-21205D01*
X15350Y-21265D01*
X15272Y-21341D01*
X15211Y-21431D01*
X15168Y-21531D01*
X15145Y-21637D01*
X15144Y-21746D01*
X15163Y-21853D01*
X15203Y-21954D01*
X15262Y-22046D01*
X15338Y-22124D01*
X15427Y-22186D01*
X15527Y-22230D01*
X15633Y-22253D01*
X15742Y-22256D01*
X15849Y-22237D01*
X15951Y-22197D01*
X16043Y-22139D01*
X16122Y-22064D01*
X16184Y-21975D01*
X16229Y-21876D01*
X16253Y-21769D01*
X16255Y-21645D01*
X16255Y-25470D01*
X15923Y-25470D01*
X15869Y-25481D01*
X15869Y-24632D01*
X15854Y-24559D01*
X15826Y-24490D01*
X15784Y-24428D01*
X15732Y-24375D01*
X15670Y-24334D01*
X15601Y-24305D01*
X15528Y-24290D01*
X15454Y-24289D01*
X14430Y-24289D01*
X14430Y-16148D01*
X14409Y-16046D01*
X14370Y-15949D01*
X14312Y-15863D01*
X14239Y-15789D01*
X14153Y-15731D01*
X14057Y-15691D01*
X13955Y-15670D01*
X13851Y-15669D01*
X13749Y-15689D01*
X13653Y-15728D01*
X13566Y-15784D01*
X13492Y-15857D01*
X13433Y-15943D01*
X13392Y-16038D01*
X13370Y-16140D01*
X13369Y-16244D01*
X13388Y-16346D01*
X13426Y-16443D01*
X13482Y-16530D01*
X13554Y-16605D01*
X13640Y-16664D01*
X13735Y-16706D01*
X13836Y-16728D01*
X13940Y-16730D01*
X14043Y-16712D01*
X14140Y-16675D01*
X14227Y-16619D01*
X14303Y-16547D01*
X14363Y-16463D01*
X14405Y-16368D01*
X14428Y-16266D01*
X14430Y-16148D01*
X14430Y-24289D01*
X14073Y-24289D01*
X14000Y-24304D01*
X13931Y-24332D01*
X13869Y-24374D01*
X13816Y-24426D01*
X13775Y-24488D01*
X13746Y-24557D01*
X13731Y-24630D01*
X13730Y-24704D01*
X13730Y-26085D01*
X13745Y-26158D01*
X13773Y-26227D01*
X13815Y-26289D01*
X13867Y-26342D01*
X13929Y-26383D01*
X13998Y-26412D01*
X14071Y-26427D01*
X14145Y-26428D01*
X15526Y-26428D01*
X15580Y-26417D01*
X15580Y-26662D01*
X15528Y-26652D01*
X15454Y-26651D01*
X14073Y-26651D01*
X14000Y-26666D01*
X13931Y-26694D01*
X13869Y-26736D01*
X13816Y-26788D01*
X13775Y-26850D01*
X13746Y-26919D01*
X13731Y-26992D01*
X13730Y-27066D01*
X13730Y-28447D01*
X13745Y-28520D01*
X13773Y-28589D01*
X13815Y-28651D01*
X13867Y-28704D01*
X13929Y-28745D01*
X13998Y-28774D01*
X14071Y-28789D01*
X14145Y-28790D01*
X15526Y-28790D01*
X15599Y-28775D01*
X15668Y-28747D01*
X15730Y-28705D01*
X15783Y-28653D01*
X15824Y-28591D01*
X15853Y-28522D01*
X15868Y-28449D01*
X15869Y-28375D01*
X15869Y-27598D01*
X15921Y-27608D01*
X15995Y-27609D01*
X17376Y-27609D01*
X17449Y-27594D01*
X17518Y-27566D01*
X17580Y-27524D01*
X17633Y-27472D01*
X17674Y-27410D01*
X17703Y-27341D01*
X17711Y-27305D01*
X17726Y-27343D01*
X17762Y-27400D01*
X17733Y-27443D01*
X17692Y-27538D01*
X17670Y-27640D01*
X17669Y-27744D01*
X17688Y-27846D01*
X17726Y-27943D01*
X17762Y-28000D01*
X17733Y-28043D01*
X17692Y-28138D01*
X17670Y-28240D01*
X17669Y-28344D01*
X17688Y-28446D01*
X17726Y-28543D01*
X17782Y-28630D01*
X17854Y-28705D01*
X17940Y-28764D01*
X18035Y-28806D01*
X18136Y-28828D01*
X18240Y-28830D01*
X18343Y-28812D01*
X18440Y-28775D01*
X18527Y-28719D01*
X18603Y-28647D01*
X18663Y-28563D01*
X18694Y-28493D01*
X18740Y-28475D01*
X18827Y-28419D01*
X18903Y-28347D01*
X18963Y-28263D01*
X19005Y-28168D01*
X19028Y-28066D01*
X19030Y-27948D01*
X19030Y-29100D01*
X13555Y-29100D01*
X13555Y-23245D01*
X13533Y-23138D01*
X13492Y-23038D01*
X13432Y-22947D01*
X13355Y-22870D01*
X13265Y-22809D01*
X13164Y-22767D01*
X13058Y-22745D01*
X12949Y-22744D01*
X12842Y-22765D01*
X12741Y-22805D01*
X12650Y-22865D01*
X12572Y-22941D01*
X12511Y-23031D01*
X12468Y-23131D01*
X12445Y-23237D01*
X12444Y-23346D01*
X12463Y-23453D01*
X12503Y-23554D01*
X12562Y-23646D01*
X12638Y-23724D01*
X12727Y-23786D01*
X12827Y-23830D01*
X12933Y-23853D01*
X13042Y-23856D01*
X13149Y-23837D01*
X13251Y-23797D01*
X13343Y-23739D01*
X13422Y-23664D01*
X13484Y-23575D01*
X13529Y-23476D01*
X13553Y-23369D01*
X13555Y-23245D01*
X13555Y-29100D01*
X12288Y-29100D01*
X12387Y-28960D01*
X12477Y-28758D01*
X12526Y-28542D01*
X12530Y-28289D01*
X12487Y-28071D01*
X12402Y-27866D01*
X12279Y-27682D01*
X12123Y-27525D01*
X11940Y-27401D01*
X11934Y-27398D01*
X12099Y-27294D01*
X12259Y-27141D01*
X12387Y-26960D01*
X12477Y-26758D01*
X12526Y-26542D01*
X12530Y-26289D01*
X12487Y-26071D01*
X12402Y-25866D01*
X12279Y-25682D01*
X12123Y-25525D01*
X11940Y-25401D01*
X11735Y-25315D01*
X11518Y-25270D01*
X11297Y-25269D01*
X11079Y-25310D01*
X10873Y-25393D01*
X10688Y-25515D01*
X10530Y-25670D01*
X10404Y-25852D01*
X10399Y-25865D01*
X10399Y-22933D01*
X10510Y-23105D01*
X10664Y-23264D01*
X10846Y-23391D01*
X11049Y-23479D01*
X11265Y-23527D01*
X11487Y-23532D01*
X11705Y-23493D01*
X11911Y-23413D01*
X12099Y-23294D01*
X12259Y-23141D01*
X12387Y-22960D01*
X12477Y-22758D01*
X12526Y-22542D01*
X12530Y-22289D01*
X12487Y-22071D01*
X12402Y-21866D01*
X12279Y-21682D01*
X12123Y-21525D01*
X11940Y-21401D01*
X11934Y-21398D01*
X12099Y-21294D01*
X12259Y-21141D01*
X12387Y-20960D01*
X12477Y-20758D01*
X12526Y-20542D01*
X12530Y-20289D01*
X12487Y-20071D01*
X12402Y-19866D01*
X12279Y-19682D01*
X12123Y-19525D01*
X11940Y-19401D01*
X11735Y-19315D01*
X11518Y-19270D01*
X11297Y-19269D01*
X11079Y-19310D01*
X10873Y-19393D01*
X10688Y-19515D01*
X10530Y-19670D01*
X10404Y-19852D01*
X10399Y-19865D01*
X10399Y-13598D01*
X10405Y-13613D01*
X10547Y-13834D01*
X10729Y-14022D01*
X10944Y-14172D01*
X11185Y-14277D01*
X11441Y-14333D01*
X11703Y-14338D01*
X11961Y-14293D01*
X12205Y-14198D01*
X12426Y-14058D01*
X12616Y-13877D01*
X12767Y-13663D01*
X12874Y-13423D01*
X12932Y-13168D01*
X12936Y-12868D01*
X12885Y-12611D01*
X12785Y-12369D01*
X12640Y-12151D01*
X12455Y-11965D01*
X12238Y-11818D01*
X11997Y-11717D01*
X11740Y-11664D01*
X11478Y-11662D01*
X11220Y-11711D01*
X10977Y-11810D01*
X10758Y-11953D01*
X10571Y-12136D01*
X10423Y-12353D01*
X10399Y-12408D01*
X10399Y-10399D01*
X13078Y-10399D01*
X13064Y-10409D01*
X12922Y-10547D01*
X12810Y-10711D01*
X12732Y-10893D01*
X12691Y-11086D01*
X12688Y-11284D01*
X12724Y-11479D01*
X12797Y-11663D01*
X12904Y-11830D01*
X13042Y-11972D01*
X13204Y-12085D01*
X13386Y-12165D01*
X13579Y-12207D01*
X13777Y-12211D01*
X13972Y-12177D01*
X14157Y-12105D01*
X14324Y-11999D01*
X14468Y-11863D01*
X14582Y-11701D01*
X14662Y-11520D01*
X14706Y-11327D01*
X14709Y-11100D01*
X14671Y-10906D01*
X14596Y-10723D01*
X14486Y-10558D01*
X14346Y-10418D01*
X14319Y-10399D01*
X17078Y-10399D01*
X17064Y-10409D01*
X16922Y-10547D01*
X16810Y-10711D01*
X16732Y-10893D01*
X16691Y-11086D01*
X16688Y-11284D01*
X16724Y-11479D01*
X16797Y-11663D01*
X16904Y-11830D01*
X17042Y-11972D01*
X17204Y-12085D01*
X17386Y-12165D01*
X17579Y-12207D01*
X17777Y-12211D01*
X17972Y-12177D01*
X18157Y-12105D01*
X18324Y-11999D01*
X18468Y-11863D01*
X18498Y-11820D01*
X18504Y-11830D01*
X18642Y-11972D01*
X18804Y-12085D01*
X18986Y-12165D01*
X19179Y-12207D01*
X19377Y-12211D01*
X19572Y-12177D01*
X19757Y-12105D01*
X19924Y-11999D01*
X20068Y-11863D01*
X20182Y-11701D01*
X20262Y-11520D01*
X20306Y-11327D01*
X20309Y-11100D01*
X20271Y-10906D01*
X20196Y-10723D01*
X20086Y-10558D01*
X19946Y-10418D01*
X19919Y-10399D01*
X22678Y-10399D01*
X22664Y-10409D01*
X22522Y-10547D01*
X22410Y-10711D01*
X22332Y-10893D01*
X22291Y-11086D01*
X22288Y-11284D01*
X22324Y-11479D01*
X22397Y-11663D01*
X22504Y-11830D01*
X22642Y-11972D01*
X22804Y-12085D01*
X22986Y-12165D01*
X23179Y-12207D01*
X23377Y-12211D01*
X23572Y-12177D01*
X23757Y-12105D01*
X23924Y-11999D01*
X24068Y-11863D01*
X24098Y-11820D01*
X24104Y-11830D01*
X24242Y-11972D01*
X24404Y-12085D01*
X24586Y-12165D01*
X24779Y-12207D01*
X24977Y-12211D01*
X25172Y-12177D01*
X25357Y-12105D01*
X25524Y-11999D01*
X25668Y-11863D01*
X25782Y-11701D01*
X25862Y-11520D01*
X25906Y-11327D01*
X25909Y-11100D01*
X25871Y-10906D01*
X25796Y-10723D01*
X25686Y-10558D01*
X25546Y-10418D01*
X25519Y-10399D01*
X28278Y-10399D01*
X28264Y-10409D01*
X28122Y-10547D01*
X28010Y-10711D01*
X27932Y-10893D01*
X27891Y-11086D01*
X27888Y-11284D01*
X27924Y-11479D01*
X27997Y-11663D01*
X28104Y-11830D01*
X28242Y-11972D01*
X28404Y-12085D01*
X28586Y-12165D01*
X28779Y-12207D01*
X28977Y-12211D01*
X29172Y-12177D01*
X29357Y-12105D01*
X29524Y-11999D01*
X29668Y-11863D01*
X29698Y-11820D01*
X29704Y-11830D01*
X29842Y-11972D01*
X30004Y-12085D01*
X30186Y-12165D01*
X30379Y-12207D01*
X30577Y-12211D01*
X30772Y-12177D01*
X30957Y-12105D01*
X31124Y-11999D01*
X31268Y-11863D01*
X31382Y-11701D01*
X31462Y-11520D01*
X31506Y-11327D01*
X31509Y-11100D01*
X31471Y-10906D01*
X31396Y-10723D01*
X31286Y-10558D01*
X31146Y-10418D01*
X31119Y-10399D01*
X33878Y-10399D01*
X33864Y-10409D01*
X33722Y-10547D01*
X33610Y-10711D01*
X33532Y-10893D01*
X33491Y-11086D01*
X33488Y-11284D01*
X33524Y-11479D01*
X33597Y-11663D01*
X33704Y-11830D01*
X33842Y-11972D01*
X34004Y-12085D01*
X34186Y-12165D01*
X34379Y-12207D01*
X34577Y-12211D01*
X34772Y-12177D01*
X34957Y-12105D01*
X35124Y-11999D01*
X35268Y-11863D01*
X35298Y-11820D01*
X35304Y-11830D01*
X35442Y-11972D01*
X35604Y-12085D01*
X35786Y-12165D01*
X35979Y-12207D01*
X36177Y-12211D01*
X36372Y-12177D01*
X36557Y-12105D01*
X36724Y-11999D01*
X36868Y-11863D01*
X36982Y-11701D01*
X37062Y-11520D01*
X37106Y-11327D01*
X37109Y-11100D01*
X37071Y-10906D01*
X36996Y-10723D01*
X36886Y-10558D01*
X36746Y-10418D01*
X36719Y-10399D01*
X39478Y-10399D01*
X39464Y-10409D01*
X39322Y-10547D01*
X39210Y-10711D01*
X39132Y-10893D01*
X39091Y-11086D01*
X39088Y-11284D01*
X39124Y-11479D01*
X39197Y-11663D01*
X39304Y-11830D01*
X39442Y-11972D01*
X39604Y-12085D01*
X39786Y-12165D01*
X39979Y-12207D01*
X40177Y-12211D01*
X40372Y-12177D01*
X40557Y-12105D01*
X40724Y-11999D01*
X40868Y-11863D01*
X40898Y-11820D01*
X40904Y-11830D01*
X41042Y-11972D01*
X41204Y-12085D01*
X41386Y-12165D01*
X41579Y-12207D01*
X41777Y-12211D01*
X41972Y-12177D01*
X42157Y-12105D01*
X42324Y-11999D01*
X42468Y-11863D01*
X42582Y-11701D01*
X42662Y-11520D01*
X42706Y-11327D01*
X42709Y-11100D01*
X42671Y-10906D01*
X42596Y-10723D01*
X42486Y-10558D01*
X42346Y-10418D01*
X42319Y-10399D01*
X45078Y-10399D01*
X45064Y-10409D01*
X44922Y-10547D01*
X44810Y-10711D01*
X44732Y-10893D01*
X44691Y-11086D01*
X44688Y-11284D01*
X44724Y-11479D01*
X44797Y-11663D01*
X44904Y-11830D01*
X45042Y-11972D01*
X45204Y-12085D01*
X45386Y-12165D01*
X45579Y-12207D01*
X45777Y-12211D01*
X45972Y-12177D01*
X46157Y-12105D01*
X46324Y-11999D01*
X46468Y-11863D01*
X46582Y-11701D01*
X46662Y-11520D01*
X46706Y-11327D01*
X46709Y-11100D01*
X46671Y-10906D01*
X46596Y-10723D01*
X46486Y-10558D01*
X46346Y-10418D01*
X46319Y-10399D01*
X48850Y-10399D01*
X48850Y-12166D01*
X48840Y-12151D01*
X48655Y-11965D01*
X48438Y-11818D01*
X48197Y-11717D01*
X47940Y-11664D01*
X47678Y-11662D01*
X47420Y-11711D01*
X47177Y-11810D01*
X46958Y-11953D01*
X46771Y-12136D01*
X46623Y-12353D01*
X46520Y-12593D01*
X46465Y-12850D01*
X46461Y-13112D01*
X46509Y-13370D01*
X46605Y-13613D01*
X46747Y-13834D01*
X46929Y-14022D01*
X47144Y-14172D01*
X47385Y-14277D01*
X47641Y-14333D01*
X47903Y-14338D01*
X48161Y-14293D01*
X48405Y-14198D01*
X48626Y-14058D01*
X48816Y-13877D01*
X48850Y-13829D01*
X48850Y-16520D01*
G54D10*
G36*
X49020Y-29270D02*
X48685Y-29270D01*
X48685Y-27603D01*
X48685Y-26603D01*
X48685Y-25603D01*
X48611Y-25425D01*
X48475Y-25289D01*
X48296Y-25215D01*
X48103Y-25214D01*
X47925Y-25288D01*
X47789Y-25424D01*
X47715Y-25603D01*
X47714Y-25796D01*
X47788Y-25974D01*
X47924Y-26110D01*
X48103Y-26184D01*
X48296Y-26185D01*
X48474Y-26111D01*
X48610Y-25975D01*
X48684Y-25796D01*
X48685Y-25603D01*
X48685Y-26603D01*
X48611Y-26425D01*
X48475Y-26289D01*
X48296Y-26215D01*
X48103Y-26214D01*
X47925Y-26288D01*
X47789Y-26424D01*
X47715Y-26603D01*
X47714Y-26796D01*
X47788Y-26974D01*
X47924Y-27110D01*
X48103Y-27184D01*
X48296Y-27185D01*
X48474Y-27111D01*
X48610Y-26975D01*
X48684Y-26796D01*
X48685Y-26603D01*
X48685Y-27603D01*
X48611Y-27425D01*
X48475Y-27289D01*
X48296Y-27215D01*
X48103Y-27214D01*
X47925Y-27288D01*
X47789Y-27424D01*
X47715Y-27603D01*
X47714Y-27796D01*
X47788Y-27974D01*
X47924Y-28110D01*
X48103Y-28184D01*
X48296Y-28185D01*
X48474Y-28111D01*
X48610Y-27975D01*
X48684Y-27796D01*
X48685Y-27603D01*
X48685Y-29270D01*
X46253Y-29270D01*
X46253Y-27388D01*
X46194Y-27246D01*
X46085Y-27137D01*
X45943Y-27078D01*
X45789Y-27077D01*
X45660Y-27131D01*
X45660Y-24728D01*
X45660Y-23928D01*
X45605Y-23796D01*
X45504Y-23694D01*
X45371Y-23640D01*
X45228Y-23639D01*
X45096Y-23694D01*
X44994Y-23795D01*
X44940Y-23928D01*
X44939Y-24071D01*
X44994Y-24203D01*
X45095Y-24305D01*
X45228Y-24359D01*
X45371Y-24360D01*
X45503Y-24305D01*
X45605Y-24204D01*
X45659Y-24071D01*
X45660Y-23928D01*
X45660Y-24728D01*
X45605Y-24596D01*
X45504Y-24494D01*
X45371Y-24440D01*
X45228Y-24439D01*
X45096Y-24494D01*
X44994Y-24595D01*
X44940Y-24728D01*
X44939Y-24871D01*
X44994Y-25003D01*
X45095Y-25105D01*
X45228Y-25159D01*
X45371Y-25160D01*
X45503Y-25105D01*
X45605Y-25004D01*
X45659Y-24871D01*
X45660Y-24728D01*
X45660Y-27131D01*
X45647Y-27136D01*
X45538Y-27245D01*
X45479Y-27387D01*
X45478Y-27541D01*
X45537Y-27683D01*
X45646Y-27792D01*
X45788Y-27851D01*
X45942Y-27852D01*
X46084Y-27793D01*
X46193Y-27684D01*
X46252Y-27542D01*
X46253Y-27388D01*
X46253Y-29270D01*
X46160Y-29270D01*
X46160Y-28828D01*
X46105Y-28696D01*
X46059Y-28650D01*
X46105Y-28604D01*
X46159Y-28471D01*
X46160Y-28328D01*
X46105Y-28196D01*
X46004Y-28094D01*
X45871Y-28040D01*
X45728Y-28039D01*
X45596Y-28094D01*
X45494Y-28195D01*
X45440Y-28328D01*
X45439Y-28471D01*
X45488Y-28588D01*
X45371Y-28540D01*
X45228Y-28539D01*
X45096Y-28594D01*
X44994Y-28695D01*
X44940Y-28828D01*
X44939Y-28971D01*
X44994Y-29103D01*
X45095Y-29205D01*
X45228Y-29259D01*
X45371Y-29260D01*
X45503Y-29205D01*
X45549Y-29159D01*
X45595Y-29205D01*
X45728Y-29259D01*
X45871Y-29260D01*
X46003Y-29205D01*
X46105Y-29104D01*
X46159Y-28971D01*
X46160Y-28828D01*
X46160Y-29270D01*
X44309Y-29270D01*
X45289Y-28289D01*
X45378Y-28156D01*
X45410Y-28000D01*
X45410Y-27600D01*
X45410Y-27400D01*
X45378Y-27243D01*
X45289Y-27110D01*
X45156Y-27021D01*
X45000Y-26990D01*
X44843Y-27021D01*
X44710Y-27110D01*
X44621Y-27243D01*
X44590Y-27400D01*
X44590Y-27600D01*
X44590Y-27830D01*
X44521Y-27899D01*
X44521Y-27388D01*
X44462Y-27246D01*
X44353Y-27137D01*
X44211Y-27078D01*
X44057Y-27077D01*
X43915Y-27136D01*
X43806Y-27245D01*
X43747Y-27387D01*
X43746Y-27541D01*
X43805Y-27683D01*
X43914Y-27792D01*
X44056Y-27851D01*
X44210Y-27852D01*
X44352Y-27793D01*
X44461Y-27684D01*
X44520Y-27542D01*
X44521Y-27388D01*
X44521Y-27899D01*
X43650Y-28770D01*
X42460Y-28770D01*
X42460Y-25828D01*
X42405Y-25696D01*
X42360Y-25650D01*
X42360Y-23678D01*
X42305Y-23546D01*
X42204Y-23444D01*
X42071Y-23390D01*
X41928Y-23389D01*
X41796Y-23444D01*
X41694Y-23545D01*
X41640Y-23678D01*
X41639Y-23821D01*
X41694Y-23953D01*
X41795Y-24055D01*
X41928Y-24109D01*
X42071Y-24110D01*
X42203Y-24055D01*
X42305Y-23954D01*
X42359Y-23821D01*
X42360Y-23678D01*
X42360Y-25650D01*
X42304Y-25594D01*
X42171Y-25540D01*
X42028Y-25539D01*
X41896Y-25594D01*
X41794Y-25695D01*
X41740Y-25828D01*
X41740Y-25839D01*
X41728Y-25839D01*
X41596Y-25894D01*
X41494Y-25995D01*
X41440Y-26128D01*
X41439Y-26271D01*
X41494Y-26403D01*
X41595Y-26505D01*
X41728Y-26559D01*
X41871Y-26560D01*
X42003Y-26505D01*
X42105Y-26404D01*
X42159Y-26271D01*
X42159Y-26260D01*
X42171Y-26260D01*
X42303Y-26205D01*
X42405Y-26104D01*
X42459Y-25971D01*
X42460Y-25828D01*
X42460Y-28770D01*
X42060Y-28770D01*
X42060Y-27128D01*
X42005Y-26996D01*
X41904Y-26894D01*
X41771Y-26840D01*
X41628Y-26839D01*
X41496Y-26894D01*
X41394Y-26995D01*
X41340Y-27128D01*
X41339Y-27271D01*
X41394Y-27403D01*
X41495Y-27505D01*
X41628Y-27559D01*
X41771Y-27560D01*
X41903Y-27505D01*
X42005Y-27404D01*
X42059Y-27271D01*
X42060Y-27128D01*
X42060Y-28770D01*
X41459Y-28770D01*
X41460Y-28628D01*
X41405Y-28496D01*
X41304Y-28394D01*
X41171Y-28340D01*
X41028Y-28339D01*
X40896Y-28394D01*
X40794Y-28495D01*
X40740Y-28628D01*
X40739Y-28770D01*
X40660Y-28770D01*
X40660Y-28128D01*
X40605Y-27996D01*
X40504Y-27894D01*
X40395Y-27849D01*
X40503Y-27805D01*
X40605Y-27704D01*
X40659Y-27571D01*
X40660Y-27428D01*
X40605Y-27296D01*
X40504Y-27194D01*
X40371Y-27140D01*
X40260Y-27139D01*
X40260Y-24328D01*
X40205Y-24196D01*
X40104Y-24094D01*
X39971Y-24040D01*
X39828Y-24039D01*
X39696Y-24094D01*
X39599Y-24190D01*
X39504Y-24094D01*
X39371Y-24040D01*
X39228Y-24039D01*
X39096Y-24094D01*
X38999Y-24190D01*
X38904Y-24094D01*
X38771Y-24040D01*
X38628Y-24039D01*
X38496Y-24094D01*
X38394Y-24195D01*
X38340Y-24328D01*
X38339Y-24471D01*
X38394Y-24603D01*
X38495Y-24705D01*
X38628Y-24759D01*
X38639Y-24759D01*
X38639Y-24821D01*
X38694Y-24953D01*
X38795Y-25055D01*
X38928Y-25109D01*
X39071Y-25110D01*
X39203Y-25055D01*
X39300Y-24959D01*
X39395Y-25055D01*
X39528Y-25109D01*
X39671Y-25110D01*
X39803Y-25055D01*
X39905Y-24954D01*
X39959Y-24821D01*
X39959Y-24760D01*
X39971Y-24760D01*
X40103Y-24705D01*
X40205Y-24604D01*
X40259Y-24471D01*
X40260Y-24328D01*
X40260Y-27139D01*
X40228Y-27139D01*
X40096Y-27194D01*
X39999Y-27290D01*
X39904Y-27194D01*
X39810Y-27155D01*
X39810Y-25928D01*
X39755Y-25796D01*
X39654Y-25694D01*
X39521Y-25640D01*
X39378Y-25639D01*
X39246Y-25694D01*
X39144Y-25795D01*
X39090Y-25928D01*
X39089Y-26071D01*
X39144Y-26203D01*
X39245Y-26305D01*
X39378Y-26359D01*
X39521Y-26360D01*
X39653Y-26305D01*
X39755Y-26204D01*
X39809Y-26071D01*
X39810Y-25928D01*
X39810Y-27155D01*
X39771Y-27140D01*
X39628Y-27139D01*
X39499Y-27193D01*
X39371Y-27140D01*
X39259Y-27139D01*
X39260Y-27028D01*
X39206Y-26899D01*
X39259Y-26771D01*
X39260Y-26628D01*
X39205Y-26496D01*
X39104Y-26394D01*
X38971Y-26340D01*
X38828Y-26339D01*
X38696Y-26394D01*
X38594Y-26495D01*
X38540Y-26628D01*
X38539Y-26771D01*
X38593Y-26900D01*
X38540Y-27028D01*
X38539Y-27171D01*
X38593Y-27300D01*
X38540Y-27428D01*
X38539Y-27571D01*
X38594Y-27703D01*
X38695Y-27805D01*
X38828Y-27859D01*
X38971Y-27860D01*
X39100Y-27806D01*
X39228Y-27859D01*
X39371Y-27860D01*
X39500Y-27806D01*
X39628Y-27859D01*
X39771Y-27860D01*
X39903Y-27805D01*
X40000Y-27709D01*
X40095Y-27805D01*
X40204Y-27850D01*
X40096Y-27894D01*
X39994Y-27995D01*
X39940Y-28128D01*
X39939Y-28271D01*
X39994Y-28403D01*
X40095Y-28505D01*
X40228Y-28559D01*
X40371Y-28560D01*
X40503Y-28505D01*
X40605Y-28404D01*
X40659Y-28271D01*
X40660Y-28128D01*
X40660Y-28770D01*
X40529Y-28770D01*
X40456Y-28721D01*
X40300Y-28690D01*
X37860Y-28690D01*
X37860Y-24428D01*
X37805Y-24296D01*
X37704Y-24194D01*
X37571Y-24140D01*
X37428Y-24139D01*
X37296Y-24194D01*
X37194Y-24295D01*
X37161Y-24377D01*
X37071Y-24340D01*
X36928Y-24339D01*
X36838Y-24377D01*
X36805Y-24296D01*
X36704Y-24194D01*
X36571Y-24140D01*
X36428Y-24139D01*
X36296Y-24194D01*
X36194Y-24295D01*
X36140Y-24428D01*
X36139Y-24571D01*
X36194Y-24703D01*
X36295Y-24805D01*
X36428Y-24859D01*
X36571Y-24860D01*
X36661Y-24822D01*
X36694Y-24903D01*
X36795Y-25005D01*
X36928Y-25059D01*
X37071Y-25060D01*
X37203Y-25005D01*
X37305Y-24904D01*
X37338Y-24822D01*
X37428Y-24859D01*
X37571Y-24860D01*
X37703Y-24805D01*
X37805Y-24704D01*
X37859Y-24571D01*
X37860Y-24428D01*
X37860Y-28690D01*
X37060Y-28690D01*
X37060Y-25328D01*
X37005Y-25196D01*
X36904Y-25094D01*
X36771Y-25040D01*
X36628Y-25039D01*
X36496Y-25094D01*
X36450Y-25140D01*
X36404Y-25094D01*
X36271Y-25040D01*
X36128Y-25039D01*
X35996Y-25094D01*
X35894Y-25195D01*
X35840Y-25328D01*
X35839Y-25471D01*
X35894Y-25603D01*
X35995Y-25705D01*
X36104Y-25750D01*
X35996Y-25794D01*
X35894Y-25895D01*
X35840Y-26028D01*
X35839Y-26171D01*
X35894Y-26303D01*
X35995Y-26405D01*
X36128Y-26459D01*
X36240Y-26460D01*
X36239Y-26571D01*
X36294Y-26703D01*
X36395Y-26805D01*
X36528Y-26859D01*
X36671Y-26860D01*
X36803Y-26805D01*
X36905Y-26704D01*
X36959Y-26571D01*
X36960Y-26428D01*
X36905Y-26296D01*
X36804Y-26194D01*
X36671Y-26140D01*
X36559Y-26139D01*
X36560Y-26028D01*
X36505Y-25896D01*
X36404Y-25794D01*
X36295Y-25749D01*
X36403Y-25705D01*
X36449Y-25659D01*
X36495Y-25705D01*
X36628Y-25759D01*
X36771Y-25760D01*
X36903Y-25705D01*
X37005Y-25604D01*
X37059Y-25471D01*
X37060Y-25328D01*
X37060Y-28690D01*
X36960Y-28690D01*
X36960Y-28128D01*
X36905Y-27996D01*
X36804Y-27894D01*
X36671Y-27840D01*
X36559Y-27839D01*
X36560Y-27759D01*
X36671Y-27760D01*
X36803Y-27705D01*
X36905Y-27604D01*
X36959Y-27471D01*
X36960Y-27328D01*
X36905Y-27196D01*
X36804Y-27094D01*
X36671Y-27040D01*
X36528Y-27039D01*
X36396Y-27094D01*
X36294Y-27195D01*
X36240Y-27328D01*
X36239Y-27440D01*
X36128Y-27439D01*
X35996Y-27494D01*
X35894Y-27595D01*
X35840Y-27728D01*
X35839Y-27871D01*
X35894Y-28003D01*
X35995Y-28105D01*
X36128Y-28159D01*
X36240Y-28160D01*
X36239Y-28271D01*
X36294Y-28403D01*
X36395Y-28505D01*
X36528Y-28559D01*
X36671Y-28560D01*
X36803Y-28505D01*
X36905Y-28404D01*
X36959Y-28271D01*
X36960Y-28128D01*
X36960Y-28690D01*
X34860Y-28690D01*
X34860Y-26928D01*
X34805Y-26796D01*
X34704Y-26694D01*
X34660Y-26676D01*
X34660Y-24428D01*
X34605Y-24296D01*
X34504Y-24194D01*
X34371Y-24140D01*
X34228Y-24139D01*
X34096Y-24194D01*
X33994Y-24295D01*
X33961Y-24377D01*
X33871Y-24340D01*
X33728Y-24339D01*
X33638Y-24377D01*
X33605Y-24296D01*
X33504Y-24194D01*
X33371Y-24140D01*
X33228Y-24139D01*
X33096Y-24194D01*
X32994Y-24295D01*
X32940Y-24428D01*
X32939Y-24571D01*
X32994Y-24703D01*
X33095Y-24805D01*
X33228Y-24859D01*
X33371Y-24860D01*
X33461Y-24822D01*
X33494Y-24903D01*
X33595Y-25005D01*
X33728Y-25059D01*
X33780Y-25059D01*
X33696Y-25094D01*
X33594Y-25195D01*
X33540Y-25328D01*
X33539Y-25471D01*
X33594Y-25603D01*
X33695Y-25705D01*
X33828Y-25759D01*
X33971Y-25760D01*
X34103Y-25705D01*
X34205Y-25604D01*
X34259Y-25471D01*
X34260Y-25328D01*
X34205Y-25196D01*
X34104Y-25094D01*
X33971Y-25040D01*
X33919Y-25040D01*
X34003Y-25005D01*
X34105Y-24904D01*
X34138Y-24822D01*
X34228Y-24859D01*
X34371Y-24860D01*
X34503Y-24805D01*
X34605Y-24704D01*
X34659Y-24571D01*
X34660Y-24428D01*
X34660Y-26676D01*
X34571Y-26640D01*
X34428Y-26639D01*
X34296Y-26694D01*
X34194Y-26795D01*
X34140Y-26928D01*
X34139Y-27071D01*
X34194Y-27203D01*
X34295Y-27305D01*
X34428Y-27359D01*
X34571Y-27360D01*
X34703Y-27305D01*
X34805Y-27204D01*
X34859Y-27071D01*
X34860Y-26928D01*
X34860Y-28690D01*
X31460Y-28690D01*
X31460Y-24428D01*
X31405Y-24296D01*
X31304Y-24194D01*
X31171Y-24140D01*
X31028Y-24139D01*
X30896Y-24194D01*
X30794Y-24295D01*
X30761Y-24377D01*
X30671Y-24340D01*
X30528Y-24339D01*
X30438Y-24377D01*
X30405Y-24296D01*
X30304Y-24194D01*
X30171Y-24140D01*
X30028Y-24139D01*
X29896Y-24194D01*
X29794Y-24295D01*
X29740Y-24428D01*
X29739Y-24571D01*
X29794Y-24703D01*
X29895Y-24805D01*
X30028Y-24859D01*
X30171Y-24860D01*
X30261Y-24822D01*
X30294Y-24903D01*
X30395Y-25005D01*
X30528Y-25059D01*
X30671Y-25060D01*
X30803Y-25005D01*
X30905Y-24904D01*
X30938Y-24822D01*
X31028Y-24859D01*
X31171Y-24860D01*
X31303Y-24805D01*
X31405Y-24704D01*
X31459Y-24571D01*
X31460Y-24428D01*
X31460Y-28690D01*
X31060Y-28690D01*
X31060Y-25928D01*
X31005Y-25796D01*
X30904Y-25694D01*
X30771Y-25640D01*
X30628Y-25639D01*
X30496Y-25694D01*
X30394Y-25795D01*
X30340Y-25928D01*
X30339Y-26071D01*
X30394Y-26203D01*
X30495Y-26305D01*
X30628Y-26359D01*
X30771Y-26360D01*
X30903Y-26305D01*
X31005Y-26204D01*
X31059Y-26071D01*
X31060Y-25928D01*
X31060Y-28690D01*
X28760Y-28690D01*
X28760Y-26428D01*
X28705Y-26296D01*
X28604Y-26194D01*
X28471Y-26140D01*
X28328Y-26139D01*
X28260Y-26168D01*
X28260Y-24428D01*
X28205Y-24296D01*
X28104Y-24194D01*
X27971Y-24140D01*
X27828Y-24139D01*
X27696Y-24194D01*
X27594Y-24295D01*
X27540Y-24428D01*
X27540Y-24440D01*
X27428Y-24439D01*
X27296Y-24494D01*
X27259Y-24530D01*
X27260Y-24428D01*
X27205Y-24296D01*
X27104Y-24194D01*
X26971Y-24140D01*
X26828Y-24139D01*
X26696Y-24194D01*
X26594Y-24295D01*
X26540Y-24428D01*
X26539Y-24571D01*
X26594Y-24703D01*
X26695Y-24805D01*
X26828Y-24859D01*
X26971Y-24860D01*
X27103Y-24805D01*
X27140Y-24769D01*
X27139Y-24871D01*
X27194Y-25003D01*
X27295Y-25105D01*
X27428Y-25159D01*
X27571Y-25160D01*
X27703Y-25105D01*
X27805Y-25004D01*
X27859Y-24871D01*
X27859Y-24859D01*
X27971Y-24860D01*
X28103Y-24805D01*
X28205Y-24704D01*
X28259Y-24571D01*
X28260Y-24428D01*
X28260Y-26168D01*
X28196Y-26194D01*
X28094Y-26295D01*
X28040Y-26428D01*
X28039Y-26571D01*
X28094Y-26703D01*
X28195Y-26805D01*
X28328Y-26859D01*
X28471Y-26860D01*
X28603Y-26805D01*
X28705Y-26704D01*
X28759Y-26571D01*
X28760Y-26428D01*
X28760Y-28690D01*
X27306Y-28690D01*
X27306Y-26741D01*
X27108Y-26261D01*
X26740Y-25893D01*
X26260Y-25693D01*
X25741Y-25693D01*
X25261Y-25891D01*
X25010Y-26142D01*
X25010Y-24428D01*
X24955Y-24296D01*
X24854Y-24194D01*
X24721Y-24140D01*
X24578Y-24139D01*
X24446Y-24194D01*
X24344Y-24295D01*
X24290Y-24428D01*
X24290Y-24468D01*
X24221Y-24440D01*
X24078Y-24439D01*
X23946Y-24494D01*
X23844Y-24595D01*
X23790Y-24728D01*
X23789Y-24871D01*
X23844Y-25003D01*
X23945Y-25105D01*
X24078Y-25159D01*
X24221Y-25160D01*
X24353Y-25105D01*
X24455Y-25004D01*
X24509Y-24871D01*
X24509Y-24831D01*
X24578Y-24859D01*
X24721Y-24860D01*
X24853Y-24805D01*
X24955Y-24704D01*
X25009Y-24571D01*
X25010Y-24428D01*
X25010Y-26142D01*
X24893Y-26259D01*
X24693Y-26739D01*
X24693Y-27258D01*
X24891Y-27738D01*
X25259Y-28106D01*
X25739Y-28306D01*
X26258Y-28306D01*
X26738Y-28108D01*
X27106Y-27740D01*
X27306Y-27260D01*
X27306Y-26741D01*
X27306Y-28690D01*
X24352Y-28690D01*
X24359Y-28671D01*
X24360Y-28528D01*
X24305Y-28396D01*
X24209Y-28299D01*
X24305Y-28204D01*
X24359Y-28071D01*
X24360Y-27928D01*
X24305Y-27796D01*
X24209Y-27699D01*
X24305Y-27604D01*
X24359Y-27471D01*
X24360Y-27328D01*
X24305Y-27196D01*
X24209Y-27099D01*
X24305Y-27004D01*
X24359Y-26871D01*
X24360Y-26728D01*
X24305Y-26596D01*
X24209Y-26499D01*
X24305Y-26404D01*
X24359Y-26271D01*
X24360Y-26128D01*
X24305Y-25996D01*
X24204Y-25894D01*
X24071Y-25840D01*
X24060Y-25840D01*
X24060Y-25828D01*
X24005Y-25696D01*
X23904Y-25594D01*
X23771Y-25540D01*
X23628Y-25539D01*
X23496Y-25594D01*
X23394Y-25695D01*
X23340Y-25828D01*
X23339Y-25971D01*
X23394Y-26103D01*
X23490Y-26200D01*
X23394Y-26295D01*
X23340Y-26428D01*
X23339Y-26571D01*
X23394Y-26703D01*
X23490Y-26800D01*
X23394Y-26895D01*
X23340Y-27028D01*
X23339Y-27171D01*
X23394Y-27303D01*
X23490Y-27400D01*
X23394Y-27495D01*
X23340Y-27628D01*
X23339Y-27771D01*
X23394Y-27903D01*
X23490Y-28000D01*
X23394Y-28095D01*
X23340Y-28228D01*
X23339Y-28371D01*
X23394Y-28503D01*
X23495Y-28605D01*
X23628Y-28659D01*
X23639Y-28659D01*
X23639Y-28671D01*
X23647Y-28690D01*
X23369Y-28690D01*
X23110Y-28430D01*
X23110Y-25200D01*
X23078Y-25043D01*
X23078Y-25043D01*
X22989Y-24910D01*
X22560Y-24480D01*
X22560Y-22028D01*
X22505Y-21896D01*
X22404Y-21794D01*
X22271Y-21740D01*
X22128Y-21739D01*
X21996Y-21794D01*
X21894Y-21895D01*
X21840Y-22028D01*
X21839Y-22171D01*
X21894Y-22303D01*
X21995Y-22405D01*
X22128Y-22459D01*
X22271Y-22460D01*
X22403Y-22405D01*
X22505Y-22304D01*
X22559Y-22171D01*
X22560Y-22028D01*
X22560Y-24480D01*
X22450Y-24370D01*
X22450Y-23750D01*
X18248Y-23750D01*
X18151Y-20450D01*
X45104Y-20450D01*
X44996Y-20494D01*
X44894Y-20595D01*
X44840Y-20728D01*
X44839Y-20871D01*
X44894Y-21003D01*
X44990Y-21100D01*
X44894Y-21195D01*
X44840Y-21328D01*
X44839Y-21471D01*
X44894Y-21603D01*
X44990Y-21700D01*
X44894Y-21795D01*
X44840Y-21928D01*
X44839Y-22071D01*
X44894Y-22203D01*
X44990Y-22300D01*
X44894Y-22395D01*
X44840Y-22528D01*
X44839Y-22671D01*
X44894Y-22803D01*
X44990Y-22900D01*
X44894Y-22995D01*
X44840Y-23128D01*
X44839Y-23271D01*
X44894Y-23403D01*
X44995Y-23505D01*
X45128Y-23559D01*
X45271Y-23560D01*
X45403Y-23505D01*
X45505Y-23404D01*
X45559Y-23271D01*
X45559Y-23260D01*
X45571Y-23260D01*
X45703Y-23205D01*
X45805Y-23104D01*
X45859Y-22971D01*
X45860Y-22828D01*
X45805Y-22696D01*
X45709Y-22599D01*
X45805Y-22504D01*
X45859Y-22371D01*
X45860Y-22228D01*
X45805Y-22096D01*
X45709Y-21999D01*
X45805Y-21904D01*
X45859Y-21771D01*
X45860Y-21628D01*
X45805Y-21496D01*
X45709Y-21399D01*
X45805Y-21304D01*
X45859Y-21171D01*
X45860Y-21028D01*
X45805Y-20896D01*
X45704Y-20794D01*
X45571Y-20740D01*
X45560Y-20740D01*
X45560Y-20728D01*
X45505Y-20596D01*
X45404Y-20494D01*
X45295Y-20450D01*
X49020Y-20450D01*
X49020Y-21632D01*
X48908Y-21361D01*
X48540Y-20993D01*
X48060Y-20793D01*
X47541Y-20793D01*
X47061Y-20991D01*
X46693Y-21359D01*
X46493Y-21839D01*
X46493Y-22358D01*
X46691Y-22838D01*
X47059Y-23206D01*
X47539Y-23406D01*
X48058Y-23406D01*
X48538Y-23208D01*
X48906Y-22840D01*
X49020Y-22567D01*
X49020Y-29270D01*
X49020Y-29270D01*
G37*
G54D25*
X49020Y-29270D02*
X48685Y-29270D01*
X48685Y-27603D01*
X48685Y-26603D01*
X48685Y-25603D01*
X48611Y-25425D01*
X48475Y-25289D01*
X48296Y-25215D01*
X48103Y-25214D01*
X47925Y-25288D01*
X47789Y-25424D01*
X47715Y-25603D01*
X47714Y-25796D01*
X47788Y-25974D01*
X47924Y-26110D01*
X48103Y-26184D01*
X48296Y-26185D01*
X48474Y-26111D01*
X48610Y-25975D01*
X48684Y-25796D01*
X48685Y-25603D01*
X48685Y-26603D01*
X48611Y-26425D01*
X48475Y-26289D01*
X48296Y-26215D01*
X48103Y-26214D01*
X47925Y-26288D01*
X47789Y-26424D01*
X47715Y-26603D01*
X47714Y-26796D01*
X47788Y-26974D01*
X47924Y-27110D01*
X48103Y-27184D01*
X48296Y-27185D01*
X48474Y-27111D01*
X48610Y-26975D01*
X48684Y-26796D01*
X48685Y-26603D01*
X48685Y-27603D01*
X48611Y-27425D01*
X48475Y-27289D01*
X48296Y-27215D01*
X48103Y-27214D01*
X47925Y-27288D01*
X47789Y-27424D01*
X47715Y-27603D01*
X47714Y-27796D01*
X47788Y-27974D01*
X47924Y-28110D01*
X48103Y-28184D01*
X48296Y-28185D01*
X48474Y-28111D01*
X48610Y-27975D01*
X48684Y-27796D01*
X48685Y-27603D01*
X48685Y-29270D01*
X46253Y-29270D01*
X46253Y-27388D01*
X46194Y-27246D01*
X46085Y-27137D01*
X45943Y-27078D01*
X45789Y-27077D01*
X45660Y-27131D01*
X45660Y-24728D01*
X45660Y-23928D01*
X45605Y-23796D01*
X45504Y-23694D01*
X45371Y-23640D01*
X45228Y-23639D01*
X45096Y-23694D01*
X44994Y-23795D01*
X44940Y-23928D01*
X44939Y-24071D01*
X44994Y-24203D01*
X45095Y-24305D01*
X45228Y-24359D01*
X45371Y-24360D01*
X45503Y-24305D01*
X45605Y-24204D01*
X45659Y-24071D01*
X45660Y-23928D01*
X45660Y-24728D01*
X45605Y-24596D01*
X45504Y-24494D01*
X45371Y-24440D01*
X45228Y-24439D01*
X45096Y-24494D01*
X44994Y-24595D01*
X44940Y-24728D01*
X44939Y-24871D01*
X44994Y-25003D01*
X45095Y-25105D01*
X45228Y-25159D01*
X45371Y-25160D01*
X45503Y-25105D01*
X45605Y-25004D01*
X45659Y-24871D01*
X45660Y-24728D01*
X45660Y-27131D01*
X45647Y-27136D01*
X45538Y-27245D01*
X45479Y-27387D01*
X45478Y-27541D01*
X45537Y-27683D01*
X45646Y-27792D01*
X45788Y-27851D01*
X45942Y-27852D01*
X46084Y-27793D01*
X46193Y-27684D01*
X46252Y-27542D01*
X46253Y-27388D01*
X46253Y-29270D01*
X46160Y-29270D01*
X46160Y-28828D01*
X46105Y-28696D01*
X46059Y-28650D01*
X46105Y-28604D01*
X46159Y-28471D01*
X46160Y-28328D01*
X46105Y-28196D01*
X46004Y-28094D01*
X45871Y-28040D01*
X45728Y-28039D01*
X45596Y-28094D01*
X45494Y-28195D01*
X45440Y-28328D01*
X45439Y-28471D01*
X45488Y-28588D01*
X45371Y-28540D01*
X45228Y-28539D01*
X45096Y-28594D01*
X44994Y-28695D01*
X44940Y-28828D01*
X44939Y-28971D01*
X44994Y-29103D01*
X45095Y-29205D01*
X45228Y-29259D01*
X45371Y-29260D01*
X45503Y-29205D01*
X45549Y-29159D01*
X45595Y-29205D01*
X45728Y-29259D01*
X45871Y-29260D01*
X46003Y-29205D01*
X46105Y-29104D01*
X46159Y-28971D01*
X46160Y-28828D01*
X46160Y-29270D01*
X44309Y-29270D01*
X45289Y-28289D01*
X45378Y-28156D01*
X45410Y-28000D01*
X45410Y-27600D01*
X45410Y-27400D01*
X45378Y-27243D01*
X45289Y-27110D01*
X45156Y-27021D01*
X45000Y-26990D01*
X44843Y-27021D01*
X44710Y-27110D01*
X44621Y-27243D01*
X44590Y-27400D01*
X44590Y-27600D01*
X44590Y-27830D01*
X44521Y-27899D01*
X44521Y-27388D01*
X44462Y-27246D01*
X44353Y-27137D01*
X44211Y-27078D01*
X44057Y-27077D01*
X43915Y-27136D01*
X43806Y-27245D01*
X43747Y-27387D01*
X43746Y-27541D01*
X43805Y-27683D01*
X43914Y-27792D01*
X44056Y-27851D01*
X44210Y-27852D01*
X44352Y-27793D01*
X44461Y-27684D01*
X44520Y-27542D01*
X44521Y-27388D01*
X44521Y-27899D01*
X43650Y-28770D01*
X42460Y-28770D01*
X42460Y-25828D01*
X42405Y-25696D01*
X42360Y-25650D01*
X42360Y-23678D01*
X42305Y-23546D01*
X42204Y-23444D01*
X42071Y-23390D01*
X41928Y-23389D01*
X41796Y-23444D01*
X41694Y-23545D01*
X41640Y-23678D01*
X41639Y-23821D01*
X41694Y-23953D01*
X41795Y-24055D01*
X41928Y-24109D01*
X42071Y-24110D01*
X42203Y-24055D01*
X42305Y-23954D01*
X42359Y-23821D01*
X42360Y-23678D01*
X42360Y-25650D01*
X42304Y-25594D01*
X42171Y-25540D01*
X42028Y-25539D01*
X41896Y-25594D01*
X41794Y-25695D01*
X41740Y-25828D01*
X41740Y-25839D01*
X41728Y-25839D01*
X41596Y-25894D01*
X41494Y-25995D01*
X41440Y-26128D01*
X41439Y-26271D01*
X41494Y-26403D01*
X41595Y-26505D01*
X41728Y-26559D01*
X41871Y-26560D01*
X42003Y-26505D01*
X42105Y-26404D01*
X42159Y-26271D01*
X42159Y-26260D01*
X42171Y-26260D01*
X42303Y-26205D01*
X42405Y-26104D01*
X42459Y-25971D01*
X42460Y-25828D01*
X42460Y-28770D01*
X42060Y-28770D01*
X42060Y-27128D01*
X42005Y-26996D01*
X41904Y-26894D01*
X41771Y-26840D01*
X41628Y-26839D01*
X41496Y-26894D01*
X41394Y-26995D01*
X41340Y-27128D01*
X41339Y-27271D01*
X41394Y-27403D01*
X41495Y-27505D01*
X41628Y-27559D01*
X41771Y-27560D01*
X41903Y-27505D01*
X42005Y-27404D01*
X42059Y-27271D01*
X42060Y-27128D01*
X42060Y-28770D01*
X41459Y-28770D01*
X41460Y-28628D01*
X41405Y-28496D01*
X41304Y-28394D01*
X41171Y-28340D01*
X41028Y-28339D01*
X40896Y-28394D01*
X40794Y-28495D01*
X40740Y-28628D01*
X40739Y-28770D01*
X40660Y-28770D01*
X40660Y-28128D01*
X40605Y-27996D01*
X40504Y-27894D01*
X40395Y-27849D01*
X40503Y-27805D01*
X40605Y-27704D01*
X40659Y-27571D01*
X40660Y-27428D01*
X40605Y-27296D01*
X40504Y-27194D01*
X40371Y-27140D01*
X40260Y-27139D01*
X40260Y-24328D01*
X40205Y-24196D01*
X40104Y-24094D01*
X39971Y-24040D01*
X39828Y-24039D01*
X39696Y-24094D01*
X39599Y-24190D01*
X39504Y-24094D01*
X39371Y-24040D01*
X39228Y-24039D01*
X39096Y-24094D01*
X38999Y-24190D01*
X38904Y-24094D01*
X38771Y-24040D01*
X38628Y-24039D01*
X38496Y-24094D01*
X38394Y-24195D01*
X38340Y-24328D01*
X38339Y-24471D01*
X38394Y-24603D01*
X38495Y-24705D01*
X38628Y-24759D01*
X38639Y-24759D01*
X38639Y-24821D01*
X38694Y-24953D01*
X38795Y-25055D01*
X38928Y-25109D01*
X39071Y-25110D01*
X39203Y-25055D01*
X39300Y-24959D01*
X39395Y-25055D01*
X39528Y-25109D01*
X39671Y-25110D01*
X39803Y-25055D01*
X39905Y-24954D01*
X39959Y-24821D01*
X39959Y-24760D01*
X39971Y-24760D01*
X40103Y-24705D01*
X40205Y-24604D01*
X40259Y-24471D01*
X40260Y-24328D01*
X40260Y-27139D01*
X40228Y-27139D01*
X40096Y-27194D01*
X39999Y-27290D01*
X39904Y-27194D01*
X39810Y-27155D01*
X39810Y-25928D01*
X39755Y-25796D01*
X39654Y-25694D01*
X39521Y-25640D01*
X39378Y-25639D01*
X39246Y-25694D01*
X39144Y-25795D01*
X39090Y-25928D01*
X39089Y-26071D01*
X39144Y-26203D01*
X39245Y-26305D01*
X39378Y-26359D01*
X39521Y-26360D01*
X39653Y-26305D01*
X39755Y-26204D01*
X39809Y-26071D01*
X39810Y-25928D01*
X39810Y-27155D01*
X39771Y-27140D01*
X39628Y-27139D01*
X39499Y-27193D01*
X39371Y-27140D01*
X39259Y-27139D01*
X39260Y-27028D01*
X39206Y-26899D01*
X39259Y-26771D01*
X39260Y-26628D01*
X39205Y-26496D01*
X39104Y-26394D01*
X38971Y-26340D01*
X38828Y-26339D01*
X38696Y-26394D01*
X38594Y-26495D01*
X38540Y-26628D01*
X38539Y-26771D01*
X38593Y-26900D01*
X38540Y-27028D01*
X38539Y-27171D01*
X38593Y-27300D01*
X38540Y-27428D01*
X38539Y-27571D01*
X38594Y-27703D01*
X38695Y-27805D01*
X38828Y-27859D01*
X38971Y-27860D01*
X39100Y-27806D01*
X39228Y-27859D01*
X39371Y-27860D01*
X39500Y-27806D01*
X39628Y-27859D01*
X39771Y-27860D01*
X39903Y-27805D01*
X40000Y-27709D01*
X40095Y-27805D01*
X40204Y-27850D01*
X40096Y-27894D01*
X39994Y-27995D01*
X39940Y-28128D01*
X39939Y-28271D01*
X39994Y-28403D01*
X40095Y-28505D01*
X40228Y-28559D01*
X40371Y-28560D01*
X40503Y-28505D01*
X40605Y-28404D01*
X40659Y-28271D01*
X40660Y-28128D01*
X40660Y-28770D01*
X40529Y-28770D01*
X40456Y-28721D01*
X40300Y-28690D01*
X37860Y-28690D01*
X37860Y-24428D01*
X37805Y-24296D01*
X37704Y-24194D01*
X37571Y-24140D01*
X37428Y-24139D01*
X37296Y-24194D01*
X37194Y-24295D01*
X37161Y-24377D01*
X37071Y-24340D01*
X36928Y-24339D01*
X36838Y-24377D01*
X36805Y-24296D01*
X36704Y-24194D01*
X36571Y-24140D01*
X36428Y-24139D01*
X36296Y-24194D01*
X36194Y-24295D01*
X36140Y-24428D01*
X36139Y-24571D01*
X36194Y-24703D01*
X36295Y-24805D01*
X36428Y-24859D01*
X36571Y-24860D01*
X36661Y-24822D01*
X36694Y-24903D01*
X36795Y-25005D01*
X36928Y-25059D01*
X37071Y-25060D01*
X37203Y-25005D01*
X37305Y-24904D01*
X37338Y-24822D01*
X37428Y-24859D01*
X37571Y-24860D01*
X37703Y-24805D01*
X37805Y-24704D01*
X37859Y-24571D01*
X37860Y-24428D01*
X37860Y-28690D01*
X37060Y-28690D01*
X37060Y-25328D01*
X37005Y-25196D01*
X36904Y-25094D01*
X36771Y-25040D01*
X36628Y-25039D01*
X36496Y-25094D01*
X36450Y-25140D01*
X36404Y-25094D01*
X36271Y-25040D01*
X36128Y-25039D01*
X35996Y-25094D01*
X35894Y-25195D01*
X35840Y-25328D01*
X35839Y-25471D01*
X35894Y-25603D01*
X35995Y-25705D01*
X36104Y-25750D01*
X35996Y-25794D01*
X35894Y-25895D01*
X35840Y-26028D01*
X35839Y-26171D01*
X35894Y-26303D01*
X35995Y-26405D01*
X36128Y-26459D01*
X36240Y-26460D01*
X36239Y-26571D01*
X36294Y-26703D01*
X36395Y-26805D01*
X36528Y-26859D01*
X36671Y-26860D01*
X36803Y-26805D01*
X36905Y-26704D01*
X36959Y-26571D01*
X36960Y-26428D01*
X36905Y-26296D01*
X36804Y-26194D01*
X36671Y-26140D01*
X36559Y-26139D01*
X36560Y-26028D01*
X36505Y-25896D01*
X36404Y-25794D01*
X36295Y-25749D01*
X36403Y-25705D01*
X36449Y-25659D01*
X36495Y-25705D01*
X36628Y-25759D01*
X36771Y-25760D01*
X36903Y-25705D01*
X37005Y-25604D01*
X37059Y-25471D01*
X37060Y-25328D01*
X37060Y-28690D01*
X36960Y-28690D01*
X36960Y-28128D01*
X36905Y-27996D01*
X36804Y-27894D01*
X36671Y-27840D01*
X36559Y-27839D01*
X36560Y-27759D01*
X36671Y-27760D01*
X36803Y-27705D01*
X36905Y-27604D01*
X36959Y-27471D01*
X36960Y-27328D01*
X36905Y-27196D01*
X36804Y-27094D01*
X36671Y-27040D01*
X36528Y-27039D01*
X36396Y-27094D01*
X36294Y-27195D01*
X36240Y-27328D01*
X36239Y-27440D01*
X36128Y-27439D01*
X35996Y-27494D01*
X35894Y-27595D01*
X35840Y-27728D01*
X35839Y-27871D01*
X35894Y-28003D01*
X35995Y-28105D01*
X36128Y-28159D01*
X36240Y-28160D01*
X36239Y-28271D01*
X36294Y-28403D01*
X36395Y-28505D01*
X36528Y-28559D01*
X36671Y-28560D01*
X36803Y-28505D01*
X36905Y-28404D01*
X36959Y-28271D01*
X36960Y-28128D01*
X36960Y-28690D01*
X34860Y-28690D01*
X34860Y-26928D01*
X34805Y-26796D01*
X34704Y-26694D01*
X34660Y-26676D01*
X34660Y-24428D01*
X34605Y-24296D01*
X34504Y-24194D01*
X34371Y-24140D01*
X34228Y-24139D01*
X34096Y-24194D01*
X33994Y-24295D01*
X33961Y-24377D01*
X33871Y-24340D01*
X33728Y-24339D01*
X33638Y-24377D01*
X33605Y-24296D01*
X33504Y-24194D01*
X33371Y-24140D01*
X33228Y-24139D01*
X33096Y-24194D01*
X32994Y-24295D01*
X32940Y-24428D01*
X32939Y-24571D01*
X32994Y-24703D01*
X33095Y-24805D01*
X33228Y-24859D01*
X33371Y-24860D01*
X33461Y-24822D01*
X33494Y-24903D01*
X33595Y-25005D01*
X33728Y-25059D01*
X33780Y-25059D01*
X33696Y-25094D01*
X33594Y-25195D01*
X33540Y-25328D01*
X33539Y-25471D01*
X33594Y-25603D01*
X33695Y-25705D01*
X33828Y-25759D01*
X33971Y-25760D01*
X34103Y-25705D01*
X34205Y-25604D01*
X34259Y-25471D01*
X34260Y-25328D01*
X34205Y-25196D01*
X34104Y-25094D01*
X33971Y-25040D01*
X33919Y-25040D01*
X34003Y-25005D01*
X34105Y-24904D01*
X34138Y-24822D01*
X34228Y-24859D01*
X34371Y-24860D01*
X34503Y-24805D01*
X34605Y-24704D01*
X34659Y-24571D01*
X34660Y-24428D01*
X34660Y-26676D01*
X34571Y-26640D01*
X34428Y-26639D01*
X34296Y-26694D01*
X34194Y-26795D01*
X34140Y-26928D01*
X34139Y-27071D01*
X34194Y-27203D01*
X34295Y-27305D01*
X34428Y-27359D01*
X34571Y-27360D01*
X34703Y-27305D01*
X34805Y-27204D01*
X34859Y-27071D01*
X34860Y-26928D01*
X34860Y-28690D01*
X31460Y-28690D01*
X31460Y-24428D01*
X31405Y-24296D01*
X31304Y-24194D01*
X31171Y-24140D01*
X31028Y-24139D01*
X30896Y-24194D01*
X30794Y-24295D01*
X30761Y-24377D01*
X30671Y-24340D01*
X30528Y-24339D01*
X30438Y-24377D01*
X30405Y-24296D01*
X30304Y-24194D01*
X30171Y-24140D01*
X30028Y-24139D01*
X29896Y-24194D01*
X29794Y-24295D01*
X29740Y-24428D01*
X29739Y-24571D01*
X29794Y-24703D01*
X29895Y-24805D01*
X30028Y-24859D01*
X30171Y-24860D01*
X30261Y-24822D01*
X30294Y-24903D01*
X30395Y-25005D01*
X30528Y-25059D01*
X30671Y-25060D01*
X30803Y-25005D01*
X30905Y-24904D01*
X30938Y-24822D01*
X31028Y-24859D01*
X31171Y-24860D01*
X31303Y-24805D01*
X31405Y-24704D01*
X31459Y-24571D01*
X31460Y-24428D01*
X31460Y-28690D01*
X31060Y-28690D01*
X31060Y-25928D01*
X31005Y-25796D01*
X30904Y-25694D01*
X30771Y-25640D01*
X30628Y-25639D01*
X30496Y-25694D01*
X30394Y-25795D01*
X30340Y-25928D01*
X30339Y-26071D01*
X30394Y-26203D01*
X30495Y-26305D01*
X30628Y-26359D01*
X30771Y-26360D01*
X30903Y-26305D01*
X31005Y-26204D01*
X31059Y-26071D01*
X31060Y-25928D01*
X31060Y-28690D01*
X28760Y-28690D01*
X28760Y-26428D01*
X28705Y-26296D01*
X28604Y-26194D01*
X28471Y-26140D01*
X28328Y-26139D01*
X28260Y-26168D01*
X28260Y-24428D01*
X28205Y-24296D01*
X28104Y-24194D01*
X27971Y-24140D01*
X27828Y-24139D01*
X27696Y-24194D01*
X27594Y-24295D01*
X27540Y-24428D01*
X27540Y-24440D01*
X27428Y-24439D01*
X27296Y-24494D01*
X27259Y-24530D01*
X27260Y-24428D01*
X27205Y-24296D01*
X27104Y-24194D01*
X26971Y-24140D01*
X26828Y-24139D01*
X26696Y-24194D01*
X26594Y-24295D01*
X26540Y-24428D01*
X26539Y-24571D01*
X26594Y-24703D01*
X26695Y-24805D01*
X26828Y-24859D01*
X26971Y-24860D01*
X27103Y-24805D01*
X27140Y-24769D01*
X27139Y-24871D01*
X27194Y-25003D01*
X27295Y-25105D01*
X27428Y-25159D01*
X27571Y-25160D01*
X27703Y-25105D01*
X27805Y-25004D01*
X27859Y-24871D01*
X27859Y-24859D01*
X27971Y-24860D01*
X28103Y-24805D01*
X28205Y-24704D01*
X28259Y-24571D01*
X28260Y-24428D01*
X28260Y-26168D01*
X28196Y-26194D01*
X28094Y-26295D01*
X28040Y-26428D01*
X28039Y-26571D01*
X28094Y-26703D01*
X28195Y-26805D01*
X28328Y-26859D01*
X28471Y-26860D01*
X28603Y-26805D01*
X28705Y-26704D01*
X28759Y-26571D01*
X28760Y-26428D01*
X28760Y-28690D01*
X27306Y-28690D01*
X27306Y-26741D01*
X27108Y-26261D01*
X26740Y-25893D01*
X26260Y-25693D01*
X25741Y-25693D01*
X25261Y-25891D01*
X25010Y-26142D01*
X25010Y-24428D01*
X24955Y-24296D01*
X24854Y-24194D01*
X24721Y-24140D01*
X24578Y-24139D01*
X24446Y-24194D01*
X24344Y-24295D01*
X24290Y-24428D01*
X24290Y-24468D01*
X24221Y-24440D01*
X24078Y-24439D01*
X23946Y-24494D01*
X23844Y-24595D01*
X23790Y-24728D01*
X23789Y-24871D01*
X23844Y-25003D01*
X23945Y-25105D01*
X24078Y-25159D01*
X24221Y-25160D01*
X24353Y-25105D01*
X24455Y-25004D01*
X24509Y-24871D01*
X24509Y-24831D01*
X24578Y-24859D01*
X24721Y-24860D01*
X24853Y-24805D01*
X24955Y-24704D01*
X25009Y-24571D01*
X25010Y-24428D01*
X25010Y-26142D01*
X24893Y-26259D01*
X24693Y-26739D01*
X24693Y-27258D01*
X24891Y-27738D01*
X25259Y-28106D01*
X25739Y-28306D01*
X26258Y-28306D01*
X26738Y-28108D01*
X27106Y-27740D01*
X27306Y-27260D01*
X27306Y-26741D01*
X27306Y-28690D01*
X24352Y-28690D01*
X24359Y-28671D01*
X24360Y-28528D01*
X24305Y-28396D01*
X24209Y-28299D01*
X24305Y-28204D01*
X24359Y-28071D01*
X24360Y-27928D01*
X24305Y-27796D01*
X24209Y-27699D01*
X24305Y-27604D01*
X24359Y-27471D01*
X24360Y-27328D01*
X24305Y-27196D01*
X24209Y-27099D01*
X24305Y-27004D01*
X24359Y-26871D01*
X24360Y-26728D01*
X24305Y-26596D01*
X24209Y-26499D01*
X24305Y-26404D01*
X24359Y-26271D01*
X24360Y-26128D01*
X24305Y-25996D01*
X24204Y-25894D01*
X24071Y-25840D01*
X24060Y-25840D01*
X24060Y-25828D01*
X24005Y-25696D01*
X23904Y-25594D01*
X23771Y-25540D01*
X23628Y-25539D01*
X23496Y-25594D01*
X23394Y-25695D01*
X23340Y-25828D01*
X23339Y-25971D01*
X23394Y-26103D01*
X23490Y-26200D01*
X23394Y-26295D01*
X23340Y-26428D01*
X23339Y-26571D01*
X23394Y-26703D01*
X23490Y-26800D01*
X23394Y-26895D01*
X23340Y-27028D01*
X23339Y-27171D01*
X23394Y-27303D01*
X23490Y-27400D01*
X23394Y-27495D01*
X23340Y-27628D01*
X23339Y-27771D01*
X23394Y-27903D01*
X23490Y-28000D01*
X23394Y-28095D01*
X23340Y-28228D01*
X23339Y-28371D01*
X23394Y-28503D01*
X23495Y-28605D01*
X23628Y-28659D01*
X23639Y-28659D01*
X23639Y-28671D01*
X23647Y-28690D01*
X23369Y-28690D01*
X23110Y-28430D01*
X23110Y-25200D01*
X23078Y-25043D01*
X23078Y-25043D01*
X22989Y-24910D01*
X22560Y-24480D01*
X22560Y-22028D01*
X22505Y-21896D01*
X22404Y-21794D01*
X22271Y-21740D01*
X22128Y-21739D01*
X21996Y-21794D01*
X21894Y-21895D01*
X21840Y-22028D01*
X21839Y-22171D01*
X21894Y-22303D01*
X21995Y-22405D01*
X22128Y-22459D01*
X22271Y-22460D01*
X22403Y-22405D01*
X22505Y-22304D01*
X22559Y-22171D01*
X22560Y-22028D01*
X22560Y-24480D01*
X22450Y-24370D01*
X22450Y-23750D01*
X18248Y-23750D01*
X18151Y-20450D01*
X45104Y-20450D01*
X44996Y-20494D01*
X44894Y-20595D01*
X44840Y-20728D01*
X44839Y-20871D01*
X44894Y-21003D01*
X44990Y-21100D01*
X44894Y-21195D01*
X44840Y-21328D01*
X44839Y-21471D01*
X44894Y-21603D01*
X44990Y-21700D01*
X44894Y-21795D01*
X44840Y-21928D01*
X44839Y-22071D01*
X44894Y-22203D01*
X44990Y-22300D01*
X44894Y-22395D01*
X44840Y-22528D01*
X44839Y-22671D01*
X44894Y-22803D01*
X44990Y-22900D01*
X44894Y-22995D01*
X44840Y-23128D01*
X44839Y-23271D01*
X44894Y-23403D01*
X44995Y-23505D01*
X45128Y-23559D01*
X45271Y-23560D01*
X45403Y-23505D01*
X45505Y-23404D01*
X45559Y-23271D01*
X45559Y-23260D01*
X45571Y-23260D01*
X45703Y-23205D01*
X45805Y-23104D01*
X45859Y-22971D01*
X45860Y-22828D01*
X45805Y-22696D01*
X45709Y-22599D01*
X45805Y-22504D01*
X45859Y-22371D01*
X45860Y-22228D01*
X45805Y-22096D01*
X45709Y-21999D01*
X45805Y-21904D01*
X45859Y-21771D01*
X45860Y-21628D01*
X45805Y-21496D01*
X45709Y-21399D01*
X45805Y-21304D01*
X45859Y-21171D01*
X45860Y-21028D01*
X45805Y-20896D01*
X45704Y-20794D01*
X45571Y-20740D01*
X45560Y-20740D01*
X45560Y-20728D01*
X45505Y-20596D01*
X45404Y-20494D01*
X45295Y-20450D01*
X49020Y-20450D01*
X49020Y-21632D01*
X48908Y-21361D01*
X48540Y-20993D01*
X48060Y-20793D01*
X47541Y-20793D01*
X47061Y-20991D01*
X46693Y-21359D01*
X46493Y-21839D01*
X46493Y-22358D01*
X46691Y-22838D01*
X47059Y-23206D01*
X47539Y-23406D01*
X48058Y-23406D01*
X48538Y-23208D01*
X48906Y-22840D01*
X49020Y-22567D01*
X49020Y-29270D01*
M02*
