G04 (created by PCBNEW (25-Oct-2014 BZR 4029)-stable) date Wed 10 Jun 2015 01:49:49 AM EDT*
%MOIN*%
G04 Gerber Fmt 3.4, Leading zero omitted, Abs format*
%FSLAX34Y34*%
G01*
G70*
G90*
G04 APERTURE LIST*
%ADD10C,0.00590551*%
%ADD11C,0.0708661*%
%ADD12R,0.07X0.07*%
%ADD13C,0.07*%
%ADD14C,0.15*%
%ADD15R,0.1378X0.1378*%
%ADD16C,0.055*%
%ADD17R,0.055X0.055*%
%ADD18C,0.035*%
%ADD19C,0.045*%
%ADD20C,0.03*%
%ADD21C,0.01*%
G04 APERTURE END LIST*
G54D10*
G54D11*
X16450Y-13700D03*
X15950Y-14700D03*
X15450Y-13700D03*
X14950Y-14700D03*
G54D12*
X20200Y-26000D03*
G54D13*
X20200Y-28000D03*
G54D14*
X11400Y-28400D03*
X11400Y-26400D03*
X11400Y-22400D03*
X11400Y-20400D03*
G54D15*
X14800Y-25359D03*
X14800Y-27721D03*
X16650Y-26540D03*
G54D11*
X22050Y-13700D03*
X21550Y-14700D03*
X21050Y-13700D03*
X20550Y-14700D03*
X27650Y-13700D03*
X27150Y-14700D03*
X26650Y-13700D03*
X26150Y-14700D03*
X33250Y-13700D03*
X32750Y-14700D03*
X32250Y-13700D03*
X31750Y-14700D03*
X38850Y-13700D03*
X38350Y-14700D03*
X37850Y-13700D03*
X37350Y-14700D03*
X44450Y-13700D03*
X43950Y-14700D03*
X43450Y-13700D03*
X42950Y-14700D03*
G54D16*
X17900Y-15800D03*
X15900Y-15800D03*
X23500Y-15800D03*
X21500Y-15800D03*
X29100Y-15800D03*
X27100Y-15800D03*
X34700Y-15800D03*
X32700Y-15800D03*
X40300Y-15800D03*
X38300Y-15800D03*
X45900Y-15800D03*
X43900Y-15800D03*
G54D17*
X48200Y-28700D03*
G54D16*
X48200Y-27700D03*
X48200Y-26700D03*
X48200Y-25700D03*
G54D18*
X45200Y-19200D03*
G54D19*
X14600Y-22400D03*
X14600Y-21400D03*
X14600Y-21900D03*
G54D20*
X24650Y-24500D03*
X36200Y-27800D03*
X38900Y-26700D03*
X18700Y-17400D03*
X36600Y-28200D03*
X24150Y-24800D03*
X36600Y-26500D03*
X27900Y-24500D03*
X24300Y-17400D03*
X38900Y-27100D03*
X28400Y-26500D03*
X26900Y-24500D03*
X36600Y-27400D03*
X27500Y-24800D03*
X42000Y-23750D03*
X31100Y-24500D03*
X39450Y-26000D03*
X29900Y-17400D03*
X38900Y-27500D03*
X30700Y-26000D03*
X30100Y-24500D03*
X36200Y-26100D03*
X30600Y-24700D03*
X34300Y-24500D03*
X39600Y-24750D03*
X35500Y-17400D03*
X39300Y-27500D03*
X33300Y-24500D03*
X33900Y-25400D03*
X33800Y-24700D03*
X39900Y-24400D03*
X38700Y-24400D03*
X37500Y-24500D03*
X41100Y-17400D03*
X39700Y-27500D03*
X36200Y-25400D03*
X36500Y-24500D03*
X37000Y-24700D03*
X39300Y-24400D03*
X46100Y-18300D03*
X40300Y-27500D03*
X39000Y-24750D03*
X36700Y-25400D03*
X45300Y-24000D03*
X41100Y-28700D03*
X42100Y-25900D03*
X41800Y-26200D03*
X41700Y-27200D03*
X45300Y-24800D03*
X34500Y-27000D03*
X40300Y-28200D03*
X13900Y-16200D03*
X45800Y-28900D03*
X45300Y-28900D03*
X45800Y-28400D03*
X45200Y-23200D03*
X45500Y-22900D03*
X45200Y-22600D03*
X45500Y-22300D03*
X45200Y-22000D03*
X45500Y-21700D03*
X45200Y-21400D03*
X45500Y-21100D03*
X45200Y-20800D03*
X24000Y-28600D03*
X23700Y-28300D03*
X24000Y-28000D03*
X23700Y-27700D03*
X24000Y-27400D03*
X23700Y-27100D03*
X24000Y-26800D03*
X23700Y-26500D03*
X24000Y-26200D03*
X23700Y-25900D03*
X18200Y-28300D03*
X18500Y-28000D03*
X18200Y-27700D03*
X18500Y-27400D03*
X18200Y-27100D03*
X18500Y-26800D03*
X18200Y-26500D03*
X18500Y-26200D03*
X18200Y-25900D03*
X22200Y-22100D03*
X15100Y-16100D03*
X20700Y-16100D03*
X26300Y-16100D03*
X31900Y-16100D03*
X43100Y-16100D03*
X37500Y-16100D03*
X45100Y-16100D03*
X39500Y-16100D03*
X33900Y-16100D03*
X28300Y-16100D03*
X17100Y-16100D03*
X22700Y-16100D03*
X38000Y-19700D03*
X34900Y-19700D03*
X31500Y-19700D03*
X28500Y-19700D03*
X25300Y-19700D03*
X41900Y-16200D03*
X36300Y-16200D03*
X30700Y-16200D03*
X25100Y-16200D03*
X19500Y-16200D03*
G54D18*
X15700Y-21700D03*
X13000Y-23300D03*
G54D19*
X18700Y-24300D03*
G54D20*
X45000Y-27400D03*
X36450Y-22493D03*
X33250Y-22493D03*
X30050Y-22493D03*
X26850Y-22493D03*
X23650Y-22493D03*
X42600Y-27600D03*
X44500Y-21100D03*
X48500Y-18600D03*
X31500Y-20700D03*
X25100Y-20700D03*
X28300Y-20700D03*
X34700Y-20700D03*
X41100Y-20700D03*
X37900Y-20700D03*
X38400Y-26700D03*
X36200Y-26900D03*
X34400Y-25400D03*
X33800Y-27000D03*
X21600Y-23000D03*
X20200Y-22600D03*
X20600Y-22600D03*
G54D10*
G36*
X49020Y-29270D02*
X48685Y-29270D01*
X48685Y-27603D01*
X48685Y-25603D01*
X48611Y-25425D01*
X48475Y-25289D01*
X48296Y-25215D01*
X48103Y-25214D01*
X47925Y-25288D01*
X47789Y-25424D01*
X47715Y-25603D01*
X47714Y-25796D01*
X47788Y-25974D01*
X47924Y-26110D01*
X48103Y-26184D01*
X48296Y-26185D01*
X48474Y-26111D01*
X48610Y-25975D01*
X48684Y-25796D01*
X48685Y-25603D01*
X48685Y-27603D01*
X48611Y-27425D01*
X48475Y-27289D01*
X48296Y-27215D01*
X48103Y-27214D01*
X47925Y-27288D01*
X47789Y-27424D01*
X47715Y-27603D01*
X47714Y-27796D01*
X47788Y-27974D01*
X47924Y-28110D01*
X48103Y-28184D01*
X48296Y-28185D01*
X48474Y-28111D01*
X48610Y-27975D01*
X48684Y-27796D01*
X48685Y-27603D01*
X48685Y-29270D01*
X48685Y-29270D01*
X48685Y-28933D01*
X48685Y-28383D01*
X48653Y-28306D01*
X48594Y-28247D01*
X48516Y-28215D01*
X48433Y-28214D01*
X47883Y-28214D01*
X47806Y-28246D01*
X47747Y-28305D01*
X47715Y-28383D01*
X47714Y-28466D01*
X47714Y-29016D01*
X47746Y-29093D01*
X47805Y-29152D01*
X47883Y-29184D01*
X47966Y-29185D01*
X48516Y-29185D01*
X48593Y-29153D01*
X48652Y-29094D01*
X48684Y-29016D01*
X48685Y-28933D01*
X48685Y-29270D01*
X46460Y-29270D01*
X46460Y-18228D01*
X46405Y-18096D01*
X46385Y-18076D01*
X46385Y-15703D01*
X46311Y-15525D01*
X46175Y-15389D01*
X45996Y-15315D01*
X45803Y-15314D01*
X45625Y-15388D01*
X45489Y-15524D01*
X45415Y-15703D01*
X45414Y-15896D01*
X45488Y-16074D01*
X45624Y-16210D01*
X45803Y-16284D01*
X45996Y-16285D01*
X46174Y-16211D01*
X46310Y-16075D01*
X46384Y-15896D01*
X46385Y-15703D01*
X46385Y-18076D01*
X46304Y-17994D01*
X46171Y-17940D01*
X46028Y-17939D01*
X45896Y-17994D01*
X45794Y-18095D01*
X45740Y-18228D01*
X45739Y-18371D01*
X45794Y-18503D01*
X45895Y-18605D01*
X46028Y-18659D01*
X46171Y-18660D01*
X46303Y-18605D01*
X46405Y-18504D01*
X46459Y-18371D01*
X46460Y-18228D01*
X46460Y-29270D01*
X46253Y-29270D01*
X46253Y-27388D01*
X46194Y-27246D01*
X46085Y-27137D01*
X45943Y-27078D01*
X45789Y-27077D01*
X45660Y-27131D01*
X45660Y-24728D01*
X45660Y-23928D01*
X45605Y-23796D01*
X45585Y-23776D01*
X45585Y-19123D01*
X45526Y-18982D01*
X45418Y-18873D01*
X45276Y-18815D01*
X45123Y-18814D01*
X44982Y-18873D01*
X44873Y-18981D01*
X44815Y-19123D01*
X44814Y-19276D01*
X44873Y-19417D01*
X44981Y-19526D01*
X45123Y-19584D01*
X45276Y-19585D01*
X45417Y-19526D01*
X45526Y-19418D01*
X45584Y-19276D01*
X45585Y-19123D01*
X45585Y-23776D01*
X45504Y-23694D01*
X45371Y-23640D01*
X45228Y-23639D01*
X45096Y-23694D01*
X44994Y-23795D01*
X44940Y-23928D01*
X44939Y-24071D01*
X44994Y-24203D01*
X45095Y-24305D01*
X45228Y-24359D01*
X45371Y-24360D01*
X45503Y-24305D01*
X45605Y-24204D01*
X45659Y-24071D01*
X45660Y-23928D01*
X45660Y-24728D01*
X45605Y-24596D01*
X45504Y-24494D01*
X45371Y-24440D01*
X45228Y-24439D01*
X45096Y-24494D01*
X44994Y-24595D01*
X44940Y-24728D01*
X44939Y-24871D01*
X44994Y-25003D01*
X45095Y-25105D01*
X45228Y-25159D01*
X45371Y-25160D01*
X45503Y-25105D01*
X45605Y-25004D01*
X45659Y-24871D01*
X45660Y-24728D01*
X45660Y-27131D01*
X45647Y-27136D01*
X45538Y-27245D01*
X45479Y-27387D01*
X45478Y-27541D01*
X45537Y-27683D01*
X45646Y-27792D01*
X45788Y-27851D01*
X45942Y-27852D01*
X46084Y-27793D01*
X46193Y-27684D01*
X46252Y-27542D01*
X46253Y-27388D01*
X46253Y-29270D01*
X45360Y-29270D01*
X45360Y-27328D01*
X45305Y-27196D01*
X45204Y-27094D01*
X45071Y-27040D01*
X44928Y-27039D01*
X44860Y-27068D01*
X44860Y-21028D01*
X44805Y-20896D01*
X44704Y-20794D01*
X44571Y-20740D01*
X44514Y-20740D01*
X44514Y-14588D01*
X44428Y-14380D01*
X44270Y-14221D01*
X44062Y-14135D01*
X43838Y-14135D01*
X43794Y-14153D01*
X43928Y-14020D01*
X44014Y-13812D01*
X44014Y-13588D01*
X43928Y-13380D01*
X43770Y-13221D01*
X43562Y-13135D01*
X43338Y-13135D01*
X43130Y-13221D01*
X42971Y-13379D01*
X42885Y-13587D01*
X42885Y-13811D01*
X42971Y-14019D01*
X43105Y-14153D01*
X43062Y-14135D01*
X42838Y-14135D01*
X42630Y-14221D01*
X42540Y-14311D01*
X42540Y-11033D01*
X42412Y-10724D01*
X42176Y-10488D01*
X41867Y-10360D01*
X41533Y-10359D01*
X41224Y-10487D01*
X40988Y-10723D01*
X40899Y-10936D01*
X40812Y-10724D01*
X40576Y-10488D01*
X40267Y-10360D01*
X39933Y-10359D01*
X39624Y-10487D01*
X39388Y-10723D01*
X39260Y-11032D01*
X39259Y-11366D01*
X39387Y-11675D01*
X39623Y-11911D01*
X39932Y-12039D01*
X40266Y-12040D01*
X40575Y-11912D01*
X40811Y-11676D01*
X40900Y-11463D01*
X40987Y-11675D01*
X41223Y-11911D01*
X41532Y-12039D01*
X41866Y-12040D01*
X42175Y-11912D01*
X42411Y-11676D01*
X42539Y-11367D01*
X42540Y-11033D01*
X42540Y-14311D01*
X42471Y-14379D01*
X42385Y-14587D01*
X42385Y-14811D01*
X42471Y-15019D01*
X42629Y-15178D01*
X42837Y-15264D01*
X43061Y-15264D01*
X43269Y-15178D01*
X43428Y-15020D01*
X43449Y-14967D01*
X43471Y-15019D01*
X43629Y-15178D01*
X43837Y-15264D01*
X44061Y-15264D01*
X44269Y-15178D01*
X44428Y-15020D01*
X44514Y-14812D01*
X44514Y-14588D01*
X44514Y-20740D01*
X44428Y-20739D01*
X44385Y-20757D01*
X44385Y-15703D01*
X44311Y-15525D01*
X44175Y-15389D01*
X43996Y-15315D01*
X43803Y-15314D01*
X43625Y-15388D01*
X43489Y-15524D01*
X43415Y-15703D01*
X43414Y-15896D01*
X43488Y-16074D01*
X43624Y-16210D01*
X43803Y-16284D01*
X43996Y-16285D01*
X44174Y-16211D01*
X44310Y-16075D01*
X44384Y-15896D01*
X44385Y-15703D01*
X44385Y-20757D01*
X44296Y-20794D01*
X44194Y-20895D01*
X44140Y-21028D01*
X44139Y-21171D01*
X44194Y-21303D01*
X44295Y-21405D01*
X44428Y-21459D01*
X44571Y-21460D01*
X44703Y-21405D01*
X44805Y-21304D01*
X44859Y-21171D01*
X44860Y-21028D01*
X44860Y-27068D01*
X44796Y-27094D01*
X44694Y-27195D01*
X44640Y-27328D01*
X44639Y-27471D01*
X44694Y-27603D01*
X44795Y-27705D01*
X44928Y-27759D01*
X45071Y-27760D01*
X45203Y-27705D01*
X45305Y-27604D01*
X45359Y-27471D01*
X45360Y-27328D01*
X45360Y-29270D01*
X44521Y-29270D01*
X44521Y-27388D01*
X44462Y-27246D01*
X44353Y-27137D01*
X44211Y-27078D01*
X44057Y-27077D01*
X43915Y-27136D01*
X43806Y-27245D01*
X43747Y-27387D01*
X43746Y-27541D01*
X43805Y-27683D01*
X43914Y-27792D01*
X44056Y-27851D01*
X44210Y-27852D01*
X44352Y-27793D01*
X44461Y-27684D01*
X44520Y-27542D01*
X44521Y-27388D01*
X44521Y-29270D01*
X42960Y-29270D01*
X42960Y-27528D01*
X42905Y-27396D01*
X42804Y-27294D01*
X42671Y-27240D01*
X42528Y-27239D01*
X42460Y-27268D01*
X42460Y-25828D01*
X42405Y-25696D01*
X42360Y-25650D01*
X42360Y-23678D01*
X42305Y-23546D01*
X42204Y-23444D01*
X42071Y-23390D01*
X41928Y-23389D01*
X41796Y-23444D01*
X41694Y-23545D01*
X41640Y-23678D01*
X41639Y-23821D01*
X41694Y-23953D01*
X41795Y-24055D01*
X41928Y-24109D01*
X42071Y-24110D01*
X42203Y-24055D01*
X42305Y-23954D01*
X42359Y-23821D01*
X42360Y-23678D01*
X42360Y-25650D01*
X42304Y-25594D01*
X42171Y-25540D01*
X42028Y-25539D01*
X41896Y-25594D01*
X41794Y-25695D01*
X41740Y-25828D01*
X41740Y-25839D01*
X41728Y-25839D01*
X41596Y-25894D01*
X41494Y-25995D01*
X41460Y-26079D01*
X41460Y-20628D01*
X41460Y-17328D01*
X41405Y-17196D01*
X41304Y-17094D01*
X41171Y-17040D01*
X41028Y-17039D01*
X40896Y-17094D01*
X40794Y-17195D01*
X40785Y-17219D01*
X40785Y-15703D01*
X40711Y-15525D01*
X40575Y-15389D01*
X40396Y-15315D01*
X40203Y-15314D01*
X40025Y-15388D01*
X39889Y-15524D01*
X39815Y-15703D01*
X39814Y-15896D01*
X39888Y-16074D01*
X40024Y-16210D01*
X40203Y-16284D01*
X40396Y-16285D01*
X40574Y-16211D01*
X40710Y-16075D01*
X40784Y-15896D01*
X40785Y-15703D01*
X40785Y-17219D01*
X40740Y-17328D01*
X40739Y-17471D01*
X40794Y-17603D01*
X40895Y-17705D01*
X41028Y-17759D01*
X41171Y-17760D01*
X41303Y-17705D01*
X41405Y-17604D01*
X41459Y-17471D01*
X41460Y-17328D01*
X41460Y-20628D01*
X41405Y-20496D01*
X41304Y-20394D01*
X41171Y-20340D01*
X41028Y-20339D01*
X40896Y-20394D01*
X40794Y-20495D01*
X40740Y-20628D01*
X40739Y-20771D01*
X40794Y-20903D01*
X40895Y-21005D01*
X41028Y-21059D01*
X41171Y-21060D01*
X41303Y-21005D01*
X41405Y-20904D01*
X41459Y-20771D01*
X41460Y-20628D01*
X41460Y-26079D01*
X41440Y-26128D01*
X41439Y-26271D01*
X41494Y-26403D01*
X41595Y-26505D01*
X41728Y-26559D01*
X41871Y-26560D01*
X42003Y-26505D01*
X42105Y-26404D01*
X42159Y-26271D01*
X42159Y-26260D01*
X42171Y-26260D01*
X42303Y-26205D01*
X42405Y-26104D01*
X42459Y-25971D01*
X42460Y-25828D01*
X42460Y-27268D01*
X42396Y-27294D01*
X42294Y-27395D01*
X42240Y-27528D01*
X42239Y-27671D01*
X42294Y-27803D01*
X42395Y-27905D01*
X42528Y-27959D01*
X42671Y-27960D01*
X42803Y-27905D01*
X42905Y-27804D01*
X42959Y-27671D01*
X42960Y-27528D01*
X42960Y-29270D01*
X42060Y-29270D01*
X42060Y-27128D01*
X42005Y-26996D01*
X41904Y-26894D01*
X41771Y-26840D01*
X41628Y-26839D01*
X41496Y-26894D01*
X41394Y-26995D01*
X41340Y-27128D01*
X41339Y-27271D01*
X41394Y-27403D01*
X41495Y-27505D01*
X41628Y-27559D01*
X41771Y-27560D01*
X41903Y-27505D01*
X42005Y-27404D01*
X42059Y-27271D01*
X42060Y-27128D01*
X42060Y-29270D01*
X41460Y-29270D01*
X41460Y-28628D01*
X41405Y-28496D01*
X41304Y-28394D01*
X41171Y-28340D01*
X41028Y-28339D01*
X40896Y-28394D01*
X40794Y-28495D01*
X40740Y-28628D01*
X40739Y-28771D01*
X40794Y-28903D01*
X40895Y-29005D01*
X41028Y-29059D01*
X41171Y-29060D01*
X41303Y-29005D01*
X41405Y-28904D01*
X41459Y-28771D01*
X41460Y-28628D01*
X41460Y-29270D01*
X40660Y-29270D01*
X40660Y-28128D01*
X40605Y-27996D01*
X40504Y-27894D01*
X40395Y-27849D01*
X40503Y-27805D01*
X40605Y-27704D01*
X40659Y-27571D01*
X40660Y-27428D01*
X40605Y-27296D01*
X40504Y-27194D01*
X40371Y-27140D01*
X40260Y-27139D01*
X40260Y-24328D01*
X40205Y-24196D01*
X40104Y-24094D01*
X39971Y-24040D01*
X39828Y-24039D01*
X39696Y-24094D01*
X39599Y-24190D01*
X39504Y-24094D01*
X39371Y-24040D01*
X39228Y-24039D01*
X39096Y-24094D01*
X38999Y-24190D01*
X38914Y-24105D01*
X38914Y-14588D01*
X38828Y-14380D01*
X38670Y-14221D01*
X38462Y-14135D01*
X38238Y-14135D01*
X38194Y-14153D01*
X38328Y-14020D01*
X38414Y-13812D01*
X38414Y-13588D01*
X38328Y-13380D01*
X38170Y-13221D01*
X37962Y-13135D01*
X37738Y-13135D01*
X37530Y-13221D01*
X37371Y-13379D01*
X37285Y-13587D01*
X37285Y-13811D01*
X37371Y-14019D01*
X37505Y-14153D01*
X37462Y-14135D01*
X37238Y-14135D01*
X37030Y-14221D01*
X36940Y-14311D01*
X36940Y-11033D01*
X36812Y-10724D01*
X36576Y-10488D01*
X36267Y-10360D01*
X35933Y-10359D01*
X35624Y-10487D01*
X35388Y-10723D01*
X35299Y-10936D01*
X35212Y-10724D01*
X34976Y-10488D01*
X34667Y-10360D01*
X34333Y-10359D01*
X34024Y-10487D01*
X33788Y-10723D01*
X33660Y-11032D01*
X33659Y-11366D01*
X33787Y-11675D01*
X34023Y-11911D01*
X34332Y-12039D01*
X34666Y-12040D01*
X34975Y-11912D01*
X35211Y-11676D01*
X35300Y-11463D01*
X35387Y-11675D01*
X35623Y-11911D01*
X35932Y-12039D01*
X36266Y-12040D01*
X36575Y-11912D01*
X36811Y-11676D01*
X36939Y-11367D01*
X36940Y-11033D01*
X36940Y-14311D01*
X36871Y-14379D01*
X36785Y-14587D01*
X36785Y-14811D01*
X36871Y-15019D01*
X37029Y-15178D01*
X37237Y-15264D01*
X37461Y-15264D01*
X37669Y-15178D01*
X37828Y-15020D01*
X37849Y-14967D01*
X37871Y-15019D01*
X38029Y-15178D01*
X38237Y-15264D01*
X38461Y-15264D01*
X38669Y-15178D01*
X38828Y-15020D01*
X38914Y-14812D01*
X38914Y-14588D01*
X38914Y-24105D01*
X38904Y-24094D01*
X38785Y-24045D01*
X38785Y-15703D01*
X38711Y-15525D01*
X38575Y-15389D01*
X38396Y-15315D01*
X38203Y-15314D01*
X38025Y-15388D01*
X37889Y-15524D01*
X37815Y-15703D01*
X37814Y-15896D01*
X37888Y-16074D01*
X38024Y-16210D01*
X38203Y-16284D01*
X38396Y-16285D01*
X38574Y-16211D01*
X38710Y-16075D01*
X38784Y-15896D01*
X38785Y-15703D01*
X38785Y-24045D01*
X38771Y-24040D01*
X38628Y-24039D01*
X38496Y-24094D01*
X38394Y-24195D01*
X38340Y-24328D01*
X38339Y-24471D01*
X38394Y-24603D01*
X38495Y-24705D01*
X38628Y-24759D01*
X38639Y-24759D01*
X38639Y-24821D01*
X38694Y-24953D01*
X38795Y-25055D01*
X38928Y-25109D01*
X39071Y-25110D01*
X39203Y-25055D01*
X39300Y-24959D01*
X39395Y-25055D01*
X39528Y-25109D01*
X39671Y-25110D01*
X39803Y-25055D01*
X39905Y-24954D01*
X39959Y-24821D01*
X39959Y-24760D01*
X39971Y-24760D01*
X40103Y-24705D01*
X40205Y-24604D01*
X40259Y-24471D01*
X40260Y-24328D01*
X40260Y-27139D01*
X40228Y-27139D01*
X40096Y-27194D01*
X39999Y-27290D01*
X39904Y-27194D01*
X39810Y-27155D01*
X39810Y-25928D01*
X39755Y-25796D01*
X39654Y-25694D01*
X39521Y-25640D01*
X39378Y-25639D01*
X39246Y-25694D01*
X39144Y-25795D01*
X39090Y-25928D01*
X39089Y-26071D01*
X39144Y-26203D01*
X39245Y-26305D01*
X39378Y-26359D01*
X39521Y-26360D01*
X39653Y-26305D01*
X39755Y-26204D01*
X39809Y-26071D01*
X39810Y-25928D01*
X39810Y-27155D01*
X39771Y-27140D01*
X39628Y-27139D01*
X39499Y-27193D01*
X39371Y-27140D01*
X39259Y-27139D01*
X39260Y-27028D01*
X39206Y-26899D01*
X39259Y-26771D01*
X39260Y-26628D01*
X39205Y-26496D01*
X39104Y-26394D01*
X38971Y-26340D01*
X38828Y-26339D01*
X38696Y-26394D01*
X38650Y-26440D01*
X38604Y-26394D01*
X38471Y-26340D01*
X38328Y-26339D01*
X38260Y-26368D01*
X38260Y-20628D01*
X38205Y-20496D01*
X38104Y-20394D01*
X37971Y-20340D01*
X37828Y-20339D01*
X37696Y-20394D01*
X37594Y-20495D01*
X37540Y-20628D01*
X37539Y-20771D01*
X37594Y-20903D01*
X37695Y-21005D01*
X37828Y-21059D01*
X37971Y-21060D01*
X38103Y-21005D01*
X38205Y-20904D01*
X38259Y-20771D01*
X38260Y-20628D01*
X38260Y-26368D01*
X38196Y-26394D01*
X38094Y-26495D01*
X38040Y-26628D01*
X38039Y-26771D01*
X38094Y-26903D01*
X38195Y-27005D01*
X38328Y-27059D01*
X38471Y-27060D01*
X38540Y-27031D01*
X38539Y-27171D01*
X38593Y-27300D01*
X38540Y-27428D01*
X38539Y-27571D01*
X38594Y-27703D01*
X38695Y-27805D01*
X38828Y-27859D01*
X38971Y-27860D01*
X39100Y-27806D01*
X39228Y-27859D01*
X39371Y-27860D01*
X39500Y-27806D01*
X39628Y-27859D01*
X39771Y-27860D01*
X39903Y-27805D01*
X40000Y-27709D01*
X40095Y-27805D01*
X40204Y-27850D01*
X40096Y-27894D01*
X39994Y-27995D01*
X39940Y-28128D01*
X39939Y-28271D01*
X39994Y-28403D01*
X40095Y-28505D01*
X40228Y-28559D01*
X40371Y-28560D01*
X40503Y-28505D01*
X40605Y-28404D01*
X40659Y-28271D01*
X40660Y-28128D01*
X40660Y-29270D01*
X37860Y-29270D01*
X37860Y-24428D01*
X37805Y-24296D01*
X37704Y-24194D01*
X37571Y-24140D01*
X37428Y-24139D01*
X37296Y-24194D01*
X37194Y-24295D01*
X37161Y-24377D01*
X37071Y-24340D01*
X36928Y-24339D01*
X36838Y-24377D01*
X36810Y-24307D01*
X36810Y-22422D01*
X36755Y-22290D01*
X36654Y-22188D01*
X36521Y-22133D01*
X36378Y-22133D01*
X36246Y-22188D01*
X36144Y-22289D01*
X36090Y-22421D01*
X36089Y-22564D01*
X36144Y-22697D01*
X36245Y-22798D01*
X36378Y-22853D01*
X36521Y-22853D01*
X36653Y-22799D01*
X36755Y-22697D01*
X36809Y-22565D01*
X36810Y-22422D01*
X36810Y-24307D01*
X36805Y-24296D01*
X36704Y-24194D01*
X36571Y-24140D01*
X36428Y-24139D01*
X36296Y-24194D01*
X36194Y-24295D01*
X36140Y-24428D01*
X36139Y-24571D01*
X36194Y-24703D01*
X36295Y-24805D01*
X36428Y-24859D01*
X36571Y-24860D01*
X36661Y-24822D01*
X36694Y-24903D01*
X36795Y-25005D01*
X36928Y-25059D01*
X37071Y-25060D01*
X37203Y-25005D01*
X37305Y-24904D01*
X37338Y-24822D01*
X37428Y-24859D01*
X37571Y-24860D01*
X37703Y-24805D01*
X37805Y-24704D01*
X37859Y-24571D01*
X37860Y-24428D01*
X37860Y-29270D01*
X37060Y-29270D01*
X37060Y-25328D01*
X37005Y-25196D01*
X36904Y-25094D01*
X36771Y-25040D01*
X36628Y-25039D01*
X36496Y-25094D01*
X36450Y-25140D01*
X36404Y-25094D01*
X36271Y-25040D01*
X36128Y-25039D01*
X35996Y-25094D01*
X35894Y-25195D01*
X35860Y-25279D01*
X35860Y-17328D01*
X35805Y-17196D01*
X35704Y-17094D01*
X35571Y-17040D01*
X35428Y-17039D01*
X35296Y-17094D01*
X35194Y-17195D01*
X35185Y-17219D01*
X35185Y-15703D01*
X35111Y-15525D01*
X34975Y-15389D01*
X34796Y-15315D01*
X34603Y-15314D01*
X34425Y-15388D01*
X34289Y-15524D01*
X34215Y-15703D01*
X34214Y-15896D01*
X34288Y-16074D01*
X34424Y-16210D01*
X34603Y-16284D01*
X34796Y-16285D01*
X34974Y-16211D01*
X35110Y-16075D01*
X35184Y-15896D01*
X35185Y-15703D01*
X35185Y-17219D01*
X35140Y-17328D01*
X35139Y-17471D01*
X35194Y-17603D01*
X35295Y-17705D01*
X35428Y-17759D01*
X35571Y-17760D01*
X35703Y-17705D01*
X35805Y-17604D01*
X35859Y-17471D01*
X35860Y-17328D01*
X35860Y-25279D01*
X35840Y-25328D01*
X35839Y-25471D01*
X35894Y-25603D01*
X35995Y-25705D01*
X36104Y-25750D01*
X35996Y-25794D01*
X35894Y-25895D01*
X35840Y-26028D01*
X35839Y-26171D01*
X35894Y-26303D01*
X35995Y-26405D01*
X36128Y-26459D01*
X36240Y-26460D01*
X36239Y-26540D01*
X36128Y-26539D01*
X35996Y-26594D01*
X35894Y-26695D01*
X35840Y-26828D01*
X35839Y-26971D01*
X35894Y-27103D01*
X35995Y-27205D01*
X36128Y-27259D01*
X36268Y-27260D01*
X36240Y-27328D01*
X36239Y-27440D01*
X36128Y-27439D01*
X35996Y-27494D01*
X35894Y-27595D01*
X35840Y-27728D01*
X35839Y-27871D01*
X35894Y-28003D01*
X35995Y-28105D01*
X36128Y-28159D01*
X36240Y-28160D01*
X36239Y-28271D01*
X36294Y-28403D01*
X36395Y-28505D01*
X36528Y-28559D01*
X36671Y-28560D01*
X36803Y-28505D01*
X36905Y-28404D01*
X36959Y-28271D01*
X36960Y-28128D01*
X36905Y-27996D01*
X36804Y-27894D01*
X36671Y-27840D01*
X36559Y-27839D01*
X36560Y-27759D01*
X36671Y-27760D01*
X36803Y-27705D01*
X36905Y-27604D01*
X36959Y-27471D01*
X36960Y-27328D01*
X36905Y-27196D01*
X36804Y-27094D01*
X36671Y-27040D01*
X36531Y-27039D01*
X36559Y-26971D01*
X36560Y-26859D01*
X36671Y-26860D01*
X36803Y-26805D01*
X36905Y-26704D01*
X36959Y-26571D01*
X36960Y-26428D01*
X36905Y-26296D01*
X36804Y-26194D01*
X36671Y-26140D01*
X36559Y-26139D01*
X36560Y-26028D01*
X36505Y-25896D01*
X36404Y-25794D01*
X36295Y-25749D01*
X36403Y-25705D01*
X36449Y-25659D01*
X36495Y-25705D01*
X36628Y-25759D01*
X36771Y-25760D01*
X36903Y-25705D01*
X37005Y-25604D01*
X37059Y-25471D01*
X37060Y-25328D01*
X37060Y-29270D01*
X35060Y-29270D01*
X35060Y-20628D01*
X35005Y-20496D01*
X34904Y-20394D01*
X34771Y-20340D01*
X34628Y-20339D01*
X34496Y-20394D01*
X34394Y-20495D01*
X34340Y-20628D01*
X34339Y-20771D01*
X34394Y-20903D01*
X34495Y-21005D01*
X34628Y-21059D01*
X34771Y-21060D01*
X34903Y-21005D01*
X35005Y-20904D01*
X35059Y-20771D01*
X35060Y-20628D01*
X35060Y-29270D01*
X34860Y-29270D01*
X34860Y-26928D01*
X34805Y-26796D01*
X34760Y-26750D01*
X34760Y-25328D01*
X34705Y-25196D01*
X34604Y-25094D01*
X34471Y-25040D01*
X34328Y-25039D01*
X34196Y-25094D01*
X34150Y-25140D01*
X34104Y-25094D01*
X33971Y-25040D01*
X33919Y-25040D01*
X34003Y-25005D01*
X34105Y-24904D01*
X34138Y-24822D01*
X34228Y-24859D01*
X34371Y-24860D01*
X34503Y-24805D01*
X34605Y-24704D01*
X34659Y-24571D01*
X34660Y-24428D01*
X34605Y-24296D01*
X34504Y-24194D01*
X34371Y-24140D01*
X34228Y-24139D01*
X34096Y-24194D01*
X33994Y-24295D01*
X33961Y-24377D01*
X33871Y-24340D01*
X33728Y-24339D01*
X33638Y-24377D01*
X33610Y-24307D01*
X33610Y-22422D01*
X33555Y-22290D01*
X33454Y-22188D01*
X33321Y-22133D01*
X33314Y-22133D01*
X33314Y-14588D01*
X33228Y-14380D01*
X33070Y-14221D01*
X32862Y-14135D01*
X32638Y-14135D01*
X32594Y-14153D01*
X32728Y-14020D01*
X32814Y-13812D01*
X32814Y-13588D01*
X32728Y-13380D01*
X32570Y-13221D01*
X32362Y-13135D01*
X32138Y-13135D01*
X31930Y-13221D01*
X31771Y-13379D01*
X31685Y-13587D01*
X31685Y-13811D01*
X31771Y-14019D01*
X31905Y-14153D01*
X31862Y-14135D01*
X31638Y-14135D01*
X31430Y-14221D01*
X31340Y-14311D01*
X31340Y-11033D01*
X31212Y-10724D01*
X30976Y-10488D01*
X30667Y-10360D01*
X30333Y-10359D01*
X30024Y-10487D01*
X29788Y-10723D01*
X29699Y-10936D01*
X29612Y-10724D01*
X29376Y-10488D01*
X29067Y-10360D01*
X28733Y-10359D01*
X28424Y-10487D01*
X28188Y-10723D01*
X28060Y-11032D01*
X28059Y-11366D01*
X28187Y-11675D01*
X28423Y-11911D01*
X28732Y-12039D01*
X29066Y-12040D01*
X29375Y-11912D01*
X29611Y-11676D01*
X29700Y-11463D01*
X29787Y-11675D01*
X30023Y-11911D01*
X30332Y-12039D01*
X30666Y-12040D01*
X30975Y-11912D01*
X31211Y-11676D01*
X31339Y-11367D01*
X31340Y-11033D01*
X31340Y-14311D01*
X31271Y-14379D01*
X31185Y-14587D01*
X31185Y-14811D01*
X31271Y-15019D01*
X31429Y-15178D01*
X31637Y-15264D01*
X31861Y-15264D01*
X32069Y-15178D01*
X32228Y-15020D01*
X32249Y-14967D01*
X32271Y-15019D01*
X32429Y-15178D01*
X32637Y-15264D01*
X32861Y-15264D01*
X33069Y-15178D01*
X33228Y-15020D01*
X33314Y-14812D01*
X33314Y-14588D01*
X33314Y-22133D01*
X33185Y-22133D01*
X33185Y-15703D01*
X33111Y-15525D01*
X32975Y-15389D01*
X32796Y-15315D01*
X32603Y-15314D01*
X32425Y-15388D01*
X32289Y-15524D01*
X32215Y-15703D01*
X32214Y-15896D01*
X32288Y-16074D01*
X32424Y-16210D01*
X32603Y-16284D01*
X32796Y-16285D01*
X32974Y-16211D01*
X33110Y-16075D01*
X33184Y-15896D01*
X33185Y-15703D01*
X33185Y-22133D01*
X33178Y-22133D01*
X33046Y-22188D01*
X32944Y-22289D01*
X32890Y-22421D01*
X32889Y-22564D01*
X32944Y-22697D01*
X33045Y-22798D01*
X33178Y-22853D01*
X33321Y-22853D01*
X33453Y-22799D01*
X33555Y-22697D01*
X33609Y-22565D01*
X33610Y-22422D01*
X33610Y-24307D01*
X33605Y-24296D01*
X33504Y-24194D01*
X33371Y-24140D01*
X33228Y-24139D01*
X33096Y-24194D01*
X32994Y-24295D01*
X32940Y-24428D01*
X32939Y-24571D01*
X32994Y-24703D01*
X33095Y-24805D01*
X33228Y-24859D01*
X33371Y-24860D01*
X33461Y-24822D01*
X33494Y-24903D01*
X33595Y-25005D01*
X33728Y-25059D01*
X33780Y-25059D01*
X33696Y-25094D01*
X33594Y-25195D01*
X33540Y-25328D01*
X33539Y-25471D01*
X33594Y-25603D01*
X33695Y-25705D01*
X33828Y-25759D01*
X33971Y-25760D01*
X34103Y-25705D01*
X34149Y-25659D01*
X34195Y-25705D01*
X34328Y-25759D01*
X34471Y-25760D01*
X34603Y-25705D01*
X34705Y-25604D01*
X34759Y-25471D01*
X34760Y-25328D01*
X34760Y-26750D01*
X34704Y-26694D01*
X34571Y-26640D01*
X34428Y-26639D01*
X34296Y-26694D01*
X34194Y-26795D01*
X34149Y-26904D01*
X34105Y-26796D01*
X34004Y-26694D01*
X33871Y-26640D01*
X33728Y-26639D01*
X33596Y-26694D01*
X33494Y-26795D01*
X33440Y-26928D01*
X33439Y-27071D01*
X33494Y-27203D01*
X33595Y-27305D01*
X33728Y-27359D01*
X33871Y-27360D01*
X34003Y-27305D01*
X34105Y-27204D01*
X34150Y-27095D01*
X34194Y-27203D01*
X34295Y-27305D01*
X34428Y-27359D01*
X34571Y-27360D01*
X34703Y-27305D01*
X34805Y-27204D01*
X34859Y-27071D01*
X34860Y-26928D01*
X34860Y-29270D01*
X31860Y-29270D01*
X31860Y-20628D01*
X31805Y-20496D01*
X31704Y-20394D01*
X31571Y-20340D01*
X31428Y-20339D01*
X31296Y-20394D01*
X31194Y-20495D01*
X31140Y-20628D01*
X31139Y-20771D01*
X31194Y-20903D01*
X31295Y-21005D01*
X31428Y-21059D01*
X31571Y-21060D01*
X31703Y-21005D01*
X31805Y-20904D01*
X31859Y-20771D01*
X31860Y-20628D01*
X31860Y-29270D01*
X31460Y-29270D01*
X31460Y-24428D01*
X31405Y-24296D01*
X31304Y-24194D01*
X31171Y-24140D01*
X31028Y-24139D01*
X30896Y-24194D01*
X30794Y-24295D01*
X30761Y-24377D01*
X30671Y-24340D01*
X30528Y-24339D01*
X30438Y-24377D01*
X30410Y-24307D01*
X30410Y-22422D01*
X30355Y-22290D01*
X30260Y-22194D01*
X30260Y-17328D01*
X30205Y-17196D01*
X30104Y-17094D01*
X29971Y-17040D01*
X29828Y-17039D01*
X29696Y-17094D01*
X29594Y-17195D01*
X29585Y-17219D01*
X29585Y-15703D01*
X29511Y-15525D01*
X29375Y-15389D01*
X29196Y-15315D01*
X29003Y-15314D01*
X28825Y-15388D01*
X28689Y-15524D01*
X28615Y-15703D01*
X28614Y-15896D01*
X28688Y-16074D01*
X28824Y-16210D01*
X29003Y-16284D01*
X29196Y-16285D01*
X29374Y-16211D01*
X29510Y-16075D01*
X29584Y-15896D01*
X29585Y-15703D01*
X29585Y-17219D01*
X29540Y-17328D01*
X29539Y-17471D01*
X29594Y-17603D01*
X29695Y-17705D01*
X29828Y-17759D01*
X29971Y-17760D01*
X30103Y-17705D01*
X30205Y-17604D01*
X30259Y-17471D01*
X30260Y-17328D01*
X30260Y-22194D01*
X30254Y-22188D01*
X30121Y-22133D01*
X29978Y-22133D01*
X29846Y-22188D01*
X29744Y-22289D01*
X29690Y-22421D01*
X29689Y-22564D01*
X29744Y-22697D01*
X29845Y-22798D01*
X29978Y-22853D01*
X30121Y-22853D01*
X30253Y-22799D01*
X30355Y-22697D01*
X30409Y-22565D01*
X30410Y-22422D01*
X30410Y-24307D01*
X30405Y-24296D01*
X30304Y-24194D01*
X30171Y-24140D01*
X30028Y-24139D01*
X29896Y-24194D01*
X29794Y-24295D01*
X29740Y-24428D01*
X29739Y-24571D01*
X29794Y-24703D01*
X29895Y-24805D01*
X30028Y-24859D01*
X30171Y-24860D01*
X30261Y-24822D01*
X30294Y-24903D01*
X30395Y-25005D01*
X30528Y-25059D01*
X30671Y-25060D01*
X30803Y-25005D01*
X30905Y-24904D01*
X30938Y-24822D01*
X31028Y-24859D01*
X31171Y-24860D01*
X31303Y-24805D01*
X31405Y-24704D01*
X31459Y-24571D01*
X31460Y-24428D01*
X31460Y-29270D01*
X31060Y-29270D01*
X31060Y-25928D01*
X31005Y-25796D01*
X30904Y-25694D01*
X30771Y-25640D01*
X30628Y-25639D01*
X30496Y-25694D01*
X30394Y-25795D01*
X30340Y-25928D01*
X30339Y-26071D01*
X30394Y-26203D01*
X30495Y-26305D01*
X30628Y-26359D01*
X30771Y-26360D01*
X30903Y-26305D01*
X31005Y-26204D01*
X31059Y-26071D01*
X31060Y-25928D01*
X31060Y-29270D01*
X28760Y-29270D01*
X28760Y-26428D01*
X28705Y-26296D01*
X28660Y-26250D01*
X28660Y-20628D01*
X28605Y-20496D01*
X28504Y-20394D01*
X28371Y-20340D01*
X28228Y-20339D01*
X28096Y-20394D01*
X27994Y-20495D01*
X27940Y-20628D01*
X27939Y-20771D01*
X27994Y-20903D01*
X28095Y-21005D01*
X28228Y-21059D01*
X28371Y-21060D01*
X28503Y-21005D01*
X28605Y-20904D01*
X28659Y-20771D01*
X28660Y-20628D01*
X28660Y-26250D01*
X28604Y-26194D01*
X28471Y-26140D01*
X28328Y-26139D01*
X28260Y-26168D01*
X28260Y-24428D01*
X28205Y-24296D01*
X28104Y-24194D01*
X27971Y-24140D01*
X27828Y-24139D01*
X27714Y-24187D01*
X27714Y-14588D01*
X27628Y-14380D01*
X27470Y-14221D01*
X27262Y-14135D01*
X27038Y-14135D01*
X26994Y-14153D01*
X27128Y-14020D01*
X27214Y-13812D01*
X27214Y-13588D01*
X27128Y-13380D01*
X26970Y-13221D01*
X26762Y-13135D01*
X26538Y-13135D01*
X26330Y-13221D01*
X26171Y-13379D01*
X26085Y-13587D01*
X26085Y-13811D01*
X26171Y-14019D01*
X26305Y-14153D01*
X26262Y-14135D01*
X26038Y-14135D01*
X25830Y-14221D01*
X25740Y-14311D01*
X25740Y-11033D01*
X25612Y-10724D01*
X25376Y-10488D01*
X25067Y-10360D01*
X24733Y-10359D01*
X24424Y-10487D01*
X24188Y-10723D01*
X24099Y-10936D01*
X24012Y-10724D01*
X23776Y-10488D01*
X23467Y-10360D01*
X23133Y-10359D01*
X22824Y-10487D01*
X22588Y-10723D01*
X22460Y-11032D01*
X22459Y-11366D01*
X22587Y-11675D01*
X22823Y-11911D01*
X23132Y-12039D01*
X23466Y-12040D01*
X23775Y-11912D01*
X24011Y-11676D01*
X24100Y-11463D01*
X24187Y-11675D01*
X24423Y-11911D01*
X24732Y-12039D01*
X25066Y-12040D01*
X25375Y-11912D01*
X25611Y-11676D01*
X25739Y-11367D01*
X25740Y-11033D01*
X25740Y-14311D01*
X25671Y-14379D01*
X25585Y-14587D01*
X25585Y-14811D01*
X25671Y-15019D01*
X25829Y-15178D01*
X26037Y-15264D01*
X26261Y-15264D01*
X26469Y-15178D01*
X26628Y-15020D01*
X26649Y-14967D01*
X26671Y-15019D01*
X26829Y-15178D01*
X27037Y-15264D01*
X27261Y-15264D01*
X27469Y-15178D01*
X27628Y-15020D01*
X27714Y-14812D01*
X27714Y-14588D01*
X27714Y-24187D01*
X27696Y-24194D01*
X27594Y-24295D01*
X27585Y-24319D01*
X27585Y-15703D01*
X27511Y-15525D01*
X27375Y-15389D01*
X27196Y-15315D01*
X27003Y-15314D01*
X26825Y-15388D01*
X26689Y-15524D01*
X26615Y-15703D01*
X26614Y-15896D01*
X26688Y-16074D01*
X26824Y-16210D01*
X27003Y-16284D01*
X27196Y-16285D01*
X27374Y-16211D01*
X27510Y-16075D01*
X27584Y-15896D01*
X27585Y-15703D01*
X27585Y-24319D01*
X27540Y-24428D01*
X27540Y-24440D01*
X27428Y-24439D01*
X27296Y-24494D01*
X27259Y-24530D01*
X27260Y-24428D01*
X27210Y-24307D01*
X27210Y-22422D01*
X27155Y-22290D01*
X27054Y-22188D01*
X26921Y-22133D01*
X26778Y-22133D01*
X26646Y-22188D01*
X26544Y-22289D01*
X26490Y-22421D01*
X26489Y-22564D01*
X26544Y-22697D01*
X26645Y-22798D01*
X26778Y-22853D01*
X26921Y-22853D01*
X27053Y-22799D01*
X27155Y-22697D01*
X27209Y-22565D01*
X27210Y-22422D01*
X27210Y-24307D01*
X27205Y-24296D01*
X27104Y-24194D01*
X26971Y-24140D01*
X26828Y-24139D01*
X26696Y-24194D01*
X26594Y-24295D01*
X26540Y-24428D01*
X26539Y-24571D01*
X26594Y-24703D01*
X26695Y-24805D01*
X26828Y-24859D01*
X26971Y-24860D01*
X27103Y-24805D01*
X27140Y-24769D01*
X27139Y-24871D01*
X27194Y-25003D01*
X27295Y-25105D01*
X27428Y-25159D01*
X27571Y-25160D01*
X27703Y-25105D01*
X27805Y-25004D01*
X27859Y-24871D01*
X27859Y-24859D01*
X27971Y-24860D01*
X28103Y-24805D01*
X28205Y-24704D01*
X28259Y-24571D01*
X28260Y-24428D01*
X28260Y-26168D01*
X28196Y-26194D01*
X28094Y-26295D01*
X28040Y-26428D01*
X28039Y-26571D01*
X28094Y-26703D01*
X28195Y-26805D01*
X28328Y-26859D01*
X28471Y-26860D01*
X28603Y-26805D01*
X28705Y-26704D01*
X28759Y-26571D01*
X28760Y-26428D01*
X28760Y-29270D01*
X27306Y-29270D01*
X27306Y-26741D01*
X27108Y-26261D01*
X26740Y-25893D01*
X26260Y-25693D01*
X25741Y-25693D01*
X25460Y-25809D01*
X25460Y-20628D01*
X25405Y-20496D01*
X25304Y-20394D01*
X25171Y-20340D01*
X25028Y-20339D01*
X24896Y-20394D01*
X24794Y-20495D01*
X24740Y-20628D01*
X24739Y-20771D01*
X24794Y-20903D01*
X24895Y-21005D01*
X25028Y-21059D01*
X25171Y-21060D01*
X25303Y-21005D01*
X25405Y-20904D01*
X25459Y-20771D01*
X25460Y-20628D01*
X25460Y-25809D01*
X25261Y-25891D01*
X25010Y-26142D01*
X25010Y-24428D01*
X24955Y-24296D01*
X24854Y-24194D01*
X24721Y-24140D01*
X24660Y-24140D01*
X24660Y-17328D01*
X24605Y-17196D01*
X24504Y-17094D01*
X24371Y-17040D01*
X24228Y-17039D01*
X24096Y-17094D01*
X23994Y-17195D01*
X23985Y-17219D01*
X23985Y-15703D01*
X23911Y-15525D01*
X23775Y-15389D01*
X23596Y-15315D01*
X23403Y-15314D01*
X23225Y-15388D01*
X23089Y-15524D01*
X23015Y-15703D01*
X23014Y-15896D01*
X23088Y-16074D01*
X23224Y-16210D01*
X23403Y-16284D01*
X23596Y-16285D01*
X23774Y-16211D01*
X23910Y-16075D01*
X23984Y-15896D01*
X23985Y-15703D01*
X23985Y-17219D01*
X23940Y-17328D01*
X23939Y-17471D01*
X23994Y-17603D01*
X24095Y-17705D01*
X24228Y-17759D01*
X24371Y-17760D01*
X24503Y-17705D01*
X24605Y-17604D01*
X24659Y-17471D01*
X24660Y-17328D01*
X24660Y-24140D01*
X24578Y-24139D01*
X24446Y-24194D01*
X24344Y-24295D01*
X24290Y-24428D01*
X24290Y-24468D01*
X24221Y-24440D01*
X24078Y-24439D01*
X24010Y-24468D01*
X24010Y-22422D01*
X23955Y-22290D01*
X23854Y-22188D01*
X23721Y-22133D01*
X23578Y-22133D01*
X23446Y-22188D01*
X23344Y-22289D01*
X23290Y-22421D01*
X23289Y-22564D01*
X23344Y-22697D01*
X23445Y-22798D01*
X23578Y-22853D01*
X23721Y-22853D01*
X23853Y-22799D01*
X23955Y-22697D01*
X24009Y-22565D01*
X24010Y-22422D01*
X24010Y-24468D01*
X23946Y-24494D01*
X23844Y-24595D01*
X23790Y-24728D01*
X23789Y-24871D01*
X23844Y-25003D01*
X23945Y-25105D01*
X24078Y-25159D01*
X24221Y-25160D01*
X24353Y-25105D01*
X24455Y-25004D01*
X24509Y-24871D01*
X24509Y-24831D01*
X24578Y-24859D01*
X24721Y-24860D01*
X24853Y-24805D01*
X24955Y-24704D01*
X25009Y-24571D01*
X25010Y-24428D01*
X25010Y-26142D01*
X24893Y-26259D01*
X24693Y-26739D01*
X24693Y-27258D01*
X24891Y-27738D01*
X25259Y-28106D01*
X25739Y-28306D01*
X26258Y-28306D01*
X26738Y-28108D01*
X27106Y-27740D01*
X27306Y-27260D01*
X27306Y-26741D01*
X27306Y-29270D01*
X22114Y-29270D01*
X22114Y-14588D01*
X22028Y-14380D01*
X21870Y-14221D01*
X21662Y-14135D01*
X21438Y-14135D01*
X21394Y-14153D01*
X21528Y-14020D01*
X21614Y-13812D01*
X21614Y-13588D01*
X21528Y-13380D01*
X21370Y-13221D01*
X21162Y-13135D01*
X20938Y-13135D01*
X20730Y-13221D01*
X20571Y-13379D01*
X20485Y-13587D01*
X20485Y-13811D01*
X20571Y-14019D01*
X20705Y-14153D01*
X20662Y-14135D01*
X20438Y-14135D01*
X20230Y-14221D01*
X20140Y-14311D01*
X20140Y-11033D01*
X20012Y-10724D01*
X19776Y-10488D01*
X19467Y-10360D01*
X19133Y-10359D01*
X18824Y-10487D01*
X18588Y-10723D01*
X18499Y-10936D01*
X18412Y-10724D01*
X18176Y-10488D01*
X17867Y-10360D01*
X17533Y-10359D01*
X17224Y-10487D01*
X16988Y-10723D01*
X16860Y-11032D01*
X16859Y-11366D01*
X16987Y-11675D01*
X17223Y-11911D01*
X17532Y-12039D01*
X17866Y-12040D01*
X18175Y-11912D01*
X18411Y-11676D01*
X18500Y-11463D01*
X18587Y-11675D01*
X18823Y-11911D01*
X19132Y-12039D01*
X19466Y-12040D01*
X19775Y-11912D01*
X20011Y-11676D01*
X20139Y-11367D01*
X20140Y-11033D01*
X20140Y-14311D01*
X20071Y-14379D01*
X19985Y-14587D01*
X19985Y-14811D01*
X20071Y-15019D01*
X20229Y-15178D01*
X20437Y-15264D01*
X20661Y-15264D01*
X20869Y-15178D01*
X21028Y-15020D01*
X21049Y-14967D01*
X21071Y-15019D01*
X21229Y-15178D01*
X21437Y-15264D01*
X21661Y-15264D01*
X21869Y-15178D01*
X22028Y-15020D01*
X22114Y-14812D01*
X22114Y-14588D01*
X22114Y-29270D01*
X21985Y-29270D01*
X21985Y-15703D01*
X21911Y-15525D01*
X21775Y-15389D01*
X21596Y-15315D01*
X21403Y-15314D01*
X21225Y-15388D01*
X21089Y-15524D01*
X21015Y-15703D01*
X21014Y-15896D01*
X21088Y-16074D01*
X21224Y-16210D01*
X21403Y-16284D01*
X21596Y-16285D01*
X21774Y-16211D01*
X21910Y-16075D01*
X21984Y-15896D01*
X21985Y-15703D01*
X21985Y-29270D01*
X21960Y-29270D01*
X21960Y-22928D01*
X21905Y-22796D01*
X21804Y-22694D01*
X21671Y-22640D01*
X21528Y-22639D01*
X21396Y-22694D01*
X21294Y-22795D01*
X21240Y-22928D01*
X21239Y-23071D01*
X21294Y-23203D01*
X21395Y-23305D01*
X21528Y-23359D01*
X21671Y-23360D01*
X21803Y-23305D01*
X21905Y-23204D01*
X21959Y-23071D01*
X21960Y-22928D01*
X21960Y-29270D01*
X20960Y-29270D01*
X20960Y-22528D01*
X20905Y-22396D01*
X20804Y-22294D01*
X20671Y-22240D01*
X20528Y-22239D01*
X20399Y-22293D01*
X20271Y-22240D01*
X20128Y-22239D01*
X19996Y-22294D01*
X19894Y-22395D01*
X19840Y-22528D01*
X19839Y-22671D01*
X19894Y-22803D01*
X19995Y-22905D01*
X20128Y-22959D01*
X20271Y-22960D01*
X20400Y-22906D01*
X20528Y-22959D01*
X20671Y-22960D01*
X20803Y-22905D01*
X20905Y-22804D01*
X20959Y-22671D01*
X20960Y-22528D01*
X20960Y-29270D01*
X20760Y-29270D01*
X20760Y-26308D01*
X20760Y-25608D01*
X20728Y-25531D01*
X20669Y-25472D01*
X20591Y-25440D01*
X20508Y-25439D01*
X19808Y-25439D01*
X19731Y-25471D01*
X19672Y-25530D01*
X19640Y-25608D01*
X19639Y-25691D01*
X19639Y-26391D01*
X19671Y-26468D01*
X19730Y-26527D01*
X19808Y-26559D01*
X19891Y-26560D01*
X20591Y-26560D01*
X20668Y-26528D01*
X20727Y-26469D01*
X20759Y-26391D01*
X20760Y-26308D01*
X20760Y-29270D01*
X19135Y-29270D01*
X19135Y-24213D01*
X19068Y-24053D01*
X19060Y-24044D01*
X19060Y-17328D01*
X19005Y-17196D01*
X18904Y-17094D01*
X18771Y-17040D01*
X18628Y-17039D01*
X18496Y-17094D01*
X18394Y-17195D01*
X18385Y-17219D01*
X18385Y-15703D01*
X18311Y-15525D01*
X18175Y-15389D01*
X17996Y-15315D01*
X17803Y-15314D01*
X17625Y-15388D01*
X17489Y-15524D01*
X17415Y-15703D01*
X17414Y-15896D01*
X17488Y-16074D01*
X17624Y-16210D01*
X17803Y-16284D01*
X17996Y-16285D01*
X18174Y-16211D01*
X18310Y-16075D01*
X18384Y-15896D01*
X18385Y-15703D01*
X18385Y-17219D01*
X18340Y-17328D01*
X18339Y-17471D01*
X18394Y-17603D01*
X18495Y-17705D01*
X18628Y-17759D01*
X18771Y-17760D01*
X18903Y-17705D01*
X19005Y-17604D01*
X19059Y-17471D01*
X19060Y-17328D01*
X19060Y-24044D01*
X18946Y-23931D01*
X18786Y-23865D01*
X18613Y-23864D01*
X18453Y-23931D01*
X18331Y-24053D01*
X18265Y-24213D01*
X18264Y-24386D01*
X18331Y-24546D01*
X18453Y-24668D01*
X18613Y-24734D01*
X18786Y-24735D01*
X18946Y-24668D01*
X19068Y-24546D01*
X19134Y-24386D01*
X19135Y-24213D01*
X19135Y-29270D01*
X16514Y-29270D01*
X16514Y-14588D01*
X16428Y-14380D01*
X16270Y-14221D01*
X16062Y-14135D01*
X15838Y-14135D01*
X15794Y-14153D01*
X15928Y-14020D01*
X16014Y-13812D01*
X16014Y-13588D01*
X15928Y-13380D01*
X15770Y-13221D01*
X15562Y-13135D01*
X15338Y-13135D01*
X15130Y-13221D01*
X14971Y-13379D01*
X14885Y-13587D01*
X14885Y-13811D01*
X14971Y-14019D01*
X15105Y-14153D01*
X15062Y-14135D01*
X14838Y-14135D01*
X14630Y-14221D01*
X14540Y-14311D01*
X14540Y-11033D01*
X14412Y-10724D01*
X14176Y-10488D01*
X13867Y-10360D01*
X13533Y-10359D01*
X13224Y-10487D01*
X12988Y-10723D01*
X12860Y-11032D01*
X12859Y-11366D01*
X12987Y-11675D01*
X13223Y-11911D01*
X13532Y-12039D01*
X13866Y-12040D01*
X14175Y-11912D01*
X14411Y-11676D01*
X14539Y-11367D01*
X14540Y-11033D01*
X14540Y-14311D01*
X14471Y-14379D01*
X14385Y-14587D01*
X14385Y-14811D01*
X14471Y-15019D01*
X14629Y-15178D01*
X14837Y-15264D01*
X15061Y-15264D01*
X15269Y-15178D01*
X15428Y-15020D01*
X15449Y-14967D01*
X15471Y-15019D01*
X15629Y-15178D01*
X15837Y-15264D01*
X16061Y-15264D01*
X16269Y-15178D01*
X16428Y-15020D01*
X16514Y-14812D01*
X16514Y-14588D01*
X16514Y-29270D01*
X16385Y-29270D01*
X16385Y-15703D01*
X16311Y-15525D01*
X16175Y-15389D01*
X15996Y-15315D01*
X15803Y-15314D01*
X15625Y-15388D01*
X15489Y-15524D01*
X15415Y-15703D01*
X15414Y-15896D01*
X15488Y-16074D01*
X15624Y-16210D01*
X15803Y-16284D01*
X15996Y-16285D01*
X16174Y-16211D01*
X16310Y-16075D01*
X16384Y-15896D01*
X16385Y-15703D01*
X16385Y-29270D01*
X16085Y-29270D01*
X16085Y-21623D01*
X16026Y-21482D01*
X15918Y-21373D01*
X15776Y-21315D01*
X15623Y-21314D01*
X15482Y-21373D01*
X15373Y-21481D01*
X15315Y-21623D01*
X15314Y-21776D01*
X15373Y-21917D01*
X15481Y-22026D01*
X15623Y-22084D01*
X15776Y-22085D01*
X15917Y-22026D01*
X16026Y-21918D01*
X16084Y-21776D01*
X16085Y-21623D01*
X16085Y-29270D01*
X15699Y-29270D01*
X15699Y-26006D01*
X15699Y-24628D01*
X15667Y-24551D01*
X15608Y-24492D01*
X15530Y-24460D01*
X15447Y-24459D01*
X15035Y-24459D01*
X15035Y-22313D01*
X14968Y-22153D01*
X14965Y-22150D01*
X14968Y-22146D01*
X15034Y-21986D01*
X15035Y-21813D01*
X14968Y-21653D01*
X14965Y-21650D01*
X14968Y-21646D01*
X15034Y-21486D01*
X15035Y-21313D01*
X14968Y-21153D01*
X14846Y-21031D01*
X14686Y-20965D01*
X14513Y-20964D01*
X14353Y-21031D01*
X14231Y-21153D01*
X14165Y-21313D01*
X14164Y-21486D01*
X14231Y-21646D01*
X14234Y-21649D01*
X14231Y-21653D01*
X14165Y-21813D01*
X14164Y-21986D01*
X14231Y-22146D01*
X14234Y-22149D01*
X14231Y-22153D01*
X14165Y-22313D01*
X14164Y-22486D01*
X14231Y-22646D01*
X14353Y-22768D01*
X14513Y-22834D01*
X14686Y-22835D01*
X14846Y-22768D01*
X14968Y-22646D01*
X15034Y-22486D01*
X15035Y-22313D01*
X15035Y-24459D01*
X14069Y-24459D01*
X13992Y-24491D01*
X13933Y-24550D01*
X13901Y-24628D01*
X13900Y-24711D01*
X13900Y-26089D01*
X13932Y-26166D01*
X13991Y-26225D01*
X14069Y-26257D01*
X14152Y-26258D01*
X15530Y-26258D01*
X15607Y-26226D01*
X15666Y-26167D01*
X15698Y-26089D01*
X15699Y-26006D01*
X15699Y-29270D01*
X13385Y-29270D01*
X13385Y-23223D01*
X13326Y-23082D01*
X13218Y-22973D01*
X13076Y-22915D01*
X12923Y-22914D01*
X12906Y-22922D01*
X12906Y-12741D01*
X12708Y-12261D01*
X12340Y-11893D01*
X11860Y-11693D01*
X11341Y-11693D01*
X10861Y-11891D01*
X10493Y-12259D01*
X10293Y-12739D01*
X10293Y-13258D01*
X10491Y-13738D01*
X10859Y-14106D01*
X11339Y-14306D01*
X11858Y-14306D01*
X12338Y-14108D01*
X12706Y-13740D01*
X12906Y-13260D01*
X12906Y-12741D01*
X12906Y-22922D01*
X12782Y-22973D01*
X12673Y-23081D01*
X12615Y-23223D01*
X12614Y-23376D01*
X12673Y-23517D01*
X12781Y-23626D01*
X12923Y-23684D01*
X13076Y-23685D01*
X13217Y-23626D01*
X13326Y-23518D01*
X13384Y-23376D01*
X13385Y-23223D01*
X13385Y-29270D01*
X11807Y-29270D01*
X11943Y-29214D01*
X12213Y-28944D01*
X12359Y-28591D01*
X12360Y-28209D01*
X12360Y-26209D01*
X12360Y-22209D01*
X12360Y-20209D01*
X12214Y-19856D01*
X11944Y-19586D01*
X11591Y-19440D01*
X11209Y-19439D01*
X10856Y-19585D01*
X10586Y-19855D01*
X10440Y-20208D01*
X10439Y-20590D01*
X10585Y-20943D01*
X10855Y-21213D01*
X11208Y-21359D01*
X11590Y-21360D01*
X11943Y-21214D01*
X12213Y-20944D01*
X12359Y-20591D01*
X12360Y-20209D01*
X12360Y-22209D01*
X12214Y-21856D01*
X11944Y-21586D01*
X11591Y-21440D01*
X11209Y-21439D01*
X10856Y-21585D01*
X10586Y-21855D01*
X10440Y-22208D01*
X10439Y-22590D01*
X10585Y-22943D01*
X10855Y-23213D01*
X11208Y-23359D01*
X11590Y-23360D01*
X11943Y-23214D01*
X12213Y-22944D01*
X12359Y-22591D01*
X12360Y-22209D01*
X12360Y-26209D01*
X12214Y-25856D01*
X11944Y-25586D01*
X11591Y-25440D01*
X11209Y-25439D01*
X10856Y-25585D01*
X10586Y-25855D01*
X10440Y-26208D01*
X10439Y-26590D01*
X10585Y-26943D01*
X10855Y-27213D01*
X11208Y-27359D01*
X11590Y-27360D01*
X11943Y-27214D01*
X12213Y-26944D01*
X12359Y-26591D01*
X12360Y-26209D01*
X12360Y-28209D01*
X12214Y-27856D01*
X11944Y-27586D01*
X11591Y-27440D01*
X11209Y-27439D01*
X10856Y-27585D01*
X10586Y-27855D01*
X10440Y-28208D01*
X10439Y-28590D01*
X10585Y-28943D01*
X10855Y-29213D01*
X10992Y-29270D01*
X10229Y-29270D01*
X10229Y-10229D01*
X49020Y-10229D01*
X49020Y-12532D01*
X48908Y-12261D01*
X48540Y-11893D01*
X48060Y-11693D01*
X47541Y-11693D01*
X47061Y-11891D01*
X46693Y-12259D01*
X46540Y-12627D01*
X46540Y-11033D01*
X46412Y-10724D01*
X46176Y-10488D01*
X45867Y-10360D01*
X45533Y-10359D01*
X45224Y-10487D01*
X44988Y-10723D01*
X44860Y-11032D01*
X44859Y-11366D01*
X44987Y-11675D01*
X45223Y-11911D01*
X45532Y-12039D01*
X45866Y-12040D01*
X46175Y-11912D01*
X46411Y-11676D01*
X46539Y-11367D01*
X46540Y-11033D01*
X46540Y-12627D01*
X46493Y-12739D01*
X46493Y-13258D01*
X46691Y-13738D01*
X47059Y-14106D01*
X47539Y-14306D01*
X48058Y-14306D01*
X48538Y-14108D01*
X48906Y-13740D01*
X49020Y-13467D01*
X49020Y-21632D01*
X48908Y-21361D01*
X48860Y-21312D01*
X48860Y-18528D01*
X48805Y-18396D01*
X48704Y-18294D01*
X48571Y-18240D01*
X48428Y-18239D01*
X48296Y-18294D01*
X48194Y-18395D01*
X48140Y-18528D01*
X48139Y-18671D01*
X48194Y-18803D01*
X48295Y-18905D01*
X48428Y-18959D01*
X48571Y-18960D01*
X48703Y-18905D01*
X48805Y-18804D01*
X48859Y-18671D01*
X48860Y-18528D01*
X48860Y-21312D01*
X48540Y-20993D01*
X48060Y-20793D01*
X47541Y-20793D01*
X47061Y-20991D01*
X46693Y-21359D01*
X46493Y-21839D01*
X46493Y-22358D01*
X46691Y-22838D01*
X47059Y-23206D01*
X47539Y-23406D01*
X48058Y-23406D01*
X48538Y-23208D01*
X48906Y-22840D01*
X49020Y-22567D01*
X49020Y-29270D01*
X49020Y-29270D01*
G37*
G54D21*
X49020Y-29270D02*
X48685Y-29270D01*
X48685Y-27603D01*
X48685Y-25603D01*
X48611Y-25425D01*
X48475Y-25289D01*
X48296Y-25215D01*
X48103Y-25214D01*
X47925Y-25288D01*
X47789Y-25424D01*
X47715Y-25603D01*
X47714Y-25796D01*
X47788Y-25974D01*
X47924Y-26110D01*
X48103Y-26184D01*
X48296Y-26185D01*
X48474Y-26111D01*
X48610Y-25975D01*
X48684Y-25796D01*
X48685Y-25603D01*
X48685Y-27603D01*
X48611Y-27425D01*
X48475Y-27289D01*
X48296Y-27215D01*
X48103Y-27214D01*
X47925Y-27288D01*
X47789Y-27424D01*
X47715Y-27603D01*
X47714Y-27796D01*
X47788Y-27974D01*
X47924Y-28110D01*
X48103Y-28184D01*
X48296Y-28185D01*
X48474Y-28111D01*
X48610Y-27975D01*
X48684Y-27796D01*
X48685Y-27603D01*
X48685Y-29270D01*
X48685Y-29270D01*
X48685Y-28933D01*
X48685Y-28383D01*
X48653Y-28306D01*
X48594Y-28247D01*
X48516Y-28215D01*
X48433Y-28214D01*
X47883Y-28214D01*
X47806Y-28246D01*
X47747Y-28305D01*
X47715Y-28383D01*
X47714Y-28466D01*
X47714Y-29016D01*
X47746Y-29093D01*
X47805Y-29152D01*
X47883Y-29184D01*
X47966Y-29185D01*
X48516Y-29185D01*
X48593Y-29153D01*
X48652Y-29094D01*
X48684Y-29016D01*
X48685Y-28933D01*
X48685Y-29270D01*
X46460Y-29270D01*
X46460Y-18228D01*
X46405Y-18096D01*
X46385Y-18076D01*
X46385Y-15703D01*
X46311Y-15525D01*
X46175Y-15389D01*
X45996Y-15315D01*
X45803Y-15314D01*
X45625Y-15388D01*
X45489Y-15524D01*
X45415Y-15703D01*
X45414Y-15896D01*
X45488Y-16074D01*
X45624Y-16210D01*
X45803Y-16284D01*
X45996Y-16285D01*
X46174Y-16211D01*
X46310Y-16075D01*
X46384Y-15896D01*
X46385Y-15703D01*
X46385Y-18076D01*
X46304Y-17994D01*
X46171Y-17940D01*
X46028Y-17939D01*
X45896Y-17994D01*
X45794Y-18095D01*
X45740Y-18228D01*
X45739Y-18371D01*
X45794Y-18503D01*
X45895Y-18605D01*
X46028Y-18659D01*
X46171Y-18660D01*
X46303Y-18605D01*
X46405Y-18504D01*
X46459Y-18371D01*
X46460Y-18228D01*
X46460Y-29270D01*
X46253Y-29270D01*
X46253Y-27388D01*
X46194Y-27246D01*
X46085Y-27137D01*
X45943Y-27078D01*
X45789Y-27077D01*
X45660Y-27131D01*
X45660Y-24728D01*
X45660Y-23928D01*
X45605Y-23796D01*
X45585Y-23776D01*
X45585Y-19123D01*
X45526Y-18982D01*
X45418Y-18873D01*
X45276Y-18815D01*
X45123Y-18814D01*
X44982Y-18873D01*
X44873Y-18981D01*
X44815Y-19123D01*
X44814Y-19276D01*
X44873Y-19417D01*
X44981Y-19526D01*
X45123Y-19584D01*
X45276Y-19585D01*
X45417Y-19526D01*
X45526Y-19418D01*
X45584Y-19276D01*
X45585Y-19123D01*
X45585Y-23776D01*
X45504Y-23694D01*
X45371Y-23640D01*
X45228Y-23639D01*
X45096Y-23694D01*
X44994Y-23795D01*
X44940Y-23928D01*
X44939Y-24071D01*
X44994Y-24203D01*
X45095Y-24305D01*
X45228Y-24359D01*
X45371Y-24360D01*
X45503Y-24305D01*
X45605Y-24204D01*
X45659Y-24071D01*
X45660Y-23928D01*
X45660Y-24728D01*
X45605Y-24596D01*
X45504Y-24494D01*
X45371Y-24440D01*
X45228Y-24439D01*
X45096Y-24494D01*
X44994Y-24595D01*
X44940Y-24728D01*
X44939Y-24871D01*
X44994Y-25003D01*
X45095Y-25105D01*
X45228Y-25159D01*
X45371Y-25160D01*
X45503Y-25105D01*
X45605Y-25004D01*
X45659Y-24871D01*
X45660Y-24728D01*
X45660Y-27131D01*
X45647Y-27136D01*
X45538Y-27245D01*
X45479Y-27387D01*
X45478Y-27541D01*
X45537Y-27683D01*
X45646Y-27792D01*
X45788Y-27851D01*
X45942Y-27852D01*
X46084Y-27793D01*
X46193Y-27684D01*
X46252Y-27542D01*
X46253Y-27388D01*
X46253Y-29270D01*
X45360Y-29270D01*
X45360Y-27328D01*
X45305Y-27196D01*
X45204Y-27094D01*
X45071Y-27040D01*
X44928Y-27039D01*
X44860Y-27068D01*
X44860Y-21028D01*
X44805Y-20896D01*
X44704Y-20794D01*
X44571Y-20740D01*
X44514Y-20740D01*
X44514Y-14588D01*
X44428Y-14380D01*
X44270Y-14221D01*
X44062Y-14135D01*
X43838Y-14135D01*
X43794Y-14153D01*
X43928Y-14020D01*
X44014Y-13812D01*
X44014Y-13588D01*
X43928Y-13380D01*
X43770Y-13221D01*
X43562Y-13135D01*
X43338Y-13135D01*
X43130Y-13221D01*
X42971Y-13379D01*
X42885Y-13587D01*
X42885Y-13811D01*
X42971Y-14019D01*
X43105Y-14153D01*
X43062Y-14135D01*
X42838Y-14135D01*
X42630Y-14221D01*
X42540Y-14311D01*
X42540Y-11033D01*
X42412Y-10724D01*
X42176Y-10488D01*
X41867Y-10360D01*
X41533Y-10359D01*
X41224Y-10487D01*
X40988Y-10723D01*
X40899Y-10936D01*
X40812Y-10724D01*
X40576Y-10488D01*
X40267Y-10360D01*
X39933Y-10359D01*
X39624Y-10487D01*
X39388Y-10723D01*
X39260Y-11032D01*
X39259Y-11366D01*
X39387Y-11675D01*
X39623Y-11911D01*
X39932Y-12039D01*
X40266Y-12040D01*
X40575Y-11912D01*
X40811Y-11676D01*
X40900Y-11463D01*
X40987Y-11675D01*
X41223Y-11911D01*
X41532Y-12039D01*
X41866Y-12040D01*
X42175Y-11912D01*
X42411Y-11676D01*
X42539Y-11367D01*
X42540Y-11033D01*
X42540Y-14311D01*
X42471Y-14379D01*
X42385Y-14587D01*
X42385Y-14811D01*
X42471Y-15019D01*
X42629Y-15178D01*
X42837Y-15264D01*
X43061Y-15264D01*
X43269Y-15178D01*
X43428Y-15020D01*
X43449Y-14967D01*
X43471Y-15019D01*
X43629Y-15178D01*
X43837Y-15264D01*
X44061Y-15264D01*
X44269Y-15178D01*
X44428Y-15020D01*
X44514Y-14812D01*
X44514Y-14588D01*
X44514Y-20740D01*
X44428Y-20739D01*
X44385Y-20757D01*
X44385Y-15703D01*
X44311Y-15525D01*
X44175Y-15389D01*
X43996Y-15315D01*
X43803Y-15314D01*
X43625Y-15388D01*
X43489Y-15524D01*
X43415Y-15703D01*
X43414Y-15896D01*
X43488Y-16074D01*
X43624Y-16210D01*
X43803Y-16284D01*
X43996Y-16285D01*
X44174Y-16211D01*
X44310Y-16075D01*
X44384Y-15896D01*
X44385Y-15703D01*
X44385Y-20757D01*
X44296Y-20794D01*
X44194Y-20895D01*
X44140Y-21028D01*
X44139Y-21171D01*
X44194Y-21303D01*
X44295Y-21405D01*
X44428Y-21459D01*
X44571Y-21460D01*
X44703Y-21405D01*
X44805Y-21304D01*
X44859Y-21171D01*
X44860Y-21028D01*
X44860Y-27068D01*
X44796Y-27094D01*
X44694Y-27195D01*
X44640Y-27328D01*
X44639Y-27471D01*
X44694Y-27603D01*
X44795Y-27705D01*
X44928Y-27759D01*
X45071Y-27760D01*
X45203Y-27705D01*
X45305Y-27604D01*
X45359Y-27471D01*
X45360Y-27328D01*
X45360Y-29270D01*
X44521Y-29270D01*
X44521Y-27388D01*
X44462Y-27246D01*
X44353Y-27137D01*
X44211Y-27078D01*
X44057Y-27077D01*
X43915Y-27136D01*
X43806Y-27245D01*
X43747Y-27387D01*
X43746Y-27541D01*
X43805Y-27683D01*
X43914Y-27792D01*
X44056Y-27851D01*
X44210Y-27852D01*
X44352Y-27793D01*
X44461Y-27684D01*
X44520Y-27542D01*
X44521Y-27388D01*
X44521Y-29270D01*
X42960Y-29270D01*
X42960Y-27528D01*
X42905Y-27396D01*
X42804Y-27294D01*
X42671Y-27240D01*
X42528Y-27239D01*
X42460Y-27268D01*
X42460Y-25828D01*
X42405Y-25696D01*
X42360Y-25650D01*
X42360Y-23678D01*
X42305Y-23546D01*
X42204Y-23444D01*
X42071Y-23390D01*
X41928Y-23389D01*
X41796Y-23444D01*
X41694Y-23545D01*
X41640Y-23678D01*
X41639Y-23821D01*
X41694Y-23953D01*
X41795Y-24055D01*
X41928Y-24109D01*
X42071Y-24110D01*
X42203Y-24055D01*
X42305Y-23954D01*
X42359Y-23821D01*
X42360Y-23678D01*
X42360Y-25650D01*
X42304Y-25594D01*
X42171Y-25540D01*
X42028Y-25539D01*
X41896Y-25594D01*
X41794Y-25695D01*
X41740Y-25828D01*
X41740Y-25839D01*
X41728Y-25839D01*
X41596Y-25894D01*
X41494Y-25995D01*
X41460Y-26079D01*
X41460Y-20628D01*
X41460Y-17328D01*
X41405Y-17196D01*
X41304Y-17094D01*
X41171Y-17040D01*
X41028Y-17039D01*
X40896Y-17094D01*
X40794Y-17195D01*
X40785Y-17219D01*
X40785Y-15703D01*
X40711Y-15525D01*
X40575Y-15389D01*
X40396Y-15315D01*
X40203Y-15314D01*
X40025Y-15388D01*
X39889Y-15524D01*
X39815Y-15703D01*
X39814Y-15896D01*
X39888Y-16074D01*
X40024Y-16210D01*
X40203Y-16284D01*
X40396Y-16285D01*
X40574Y-16211D01*
X40710Y-16075D01*
X40784Y-15896D01*
X40785Y-15703D01*
X40785Y-17219D01*
X40740Y-17328D01*
X40739Y-17471D01*
X40794Y-17603D01*
X40895Y-17705D01*
X41028Y-17759D01*
X41171Y-17760D01*
X41303Y-17705D01*
X41405Y-17604D01*
X41459Y-17471D01*
X41460Y-17328D01*
X41460Y-20628D01*
X41405Y-20496D01*
X41304Y-20394D01*
X41171Y-20340D01*
X41028Y-20339D01*
X40896Y-20394D01*
X40794Y-20495D01*
X40740Y-20628D01*
X40739Y-20771D01*
X40794Y-20903D01*
X40895Y-21005D01*
X41028Y-21059D01*
X41171Y-21060D01*
X41303Y-21005D01*
X41405Y-20904D01*
X41459Y-20771D01*
X41460Y-20628D01*
X41460Y-26079D01*
X41440Y-26128D01*
X41439Y-26271D01*
X41494Y-26403D01*
X41595Y-26505D01*
X41728Y-26559D01*
X41871Y-26560D01*
X42003Y-26505D01*
X42105Y-26404D01*
X42159Y-26271D01*
X42159Y-26260D01*
X42171Y-26260D01*
X42303Y-26205D01*
X42405Y-26104D01*
X42459Y-25971D01*
X42460Y-25828D01*
X42460Y-27268D01*
X42396Y-27294D01*
X42294Y-27395D01*
X42240Y-27528D01*
X42239Y-27671D01*
X42294Y-27803D01*
X42395Y-27905D01*
X42528Y-27959D01*
X42671Y-27960D01*
X42803Y-27905D01*
X42905Y-27804D01*
X42959Y-27671D01*
X42960Y-27528D01*
X42960Y-29270D01*
X42060Y-29270D01*
X42060Y-27128D01*
X42005Y-26996D01*
X41904Y-26894D01*
X41771Y-26840D01*
X41628Y-26839D01*
X41496Y-26894D01*
X41394Y-26995D01*
X41340Y-27128D01*
X41339Y-27271D01*
X41394Y-27403D01*
X41495Y-27505D01*
X41628Y-27559D01*
X41771Y-27560D01*
X41903Y-27505D01*
X42005Y-27404D01*
X42059Y-27271D01*
X42060Y-27128D01*
X42060Y-29270D01*
X41460Y-29270D01*
X41460Y-28628D01*
X41405Y-28496D01*
X41304Y-28394D01*
X41171Y-28340D01*
X41028Y-28339D01*
X40896Y-28394D01*
X40794Y-28495D01*
X40740Y-28628D01*
X40739Y-28771D01*
X40794Y-28903D01*
X40895Y-29005D01*
X41028Y-29059D01*
X41171Y-29060D01*
X41303Y-29005D01*
X41405Y-28904D01*
X41459Y-28771D01*
X41460Y-28628D01*
X41460Y-29270D01*
X40660Y-29270D01*
X40660Y-28128D01*
X40605Y-27996D01*
X40504Y-27894D01*
X40395Y-27849D01*
X40503Y-27805D01*
X40605Y-27704D01*
X40659Y-27571D01*
X40660Y-27428D01*
X40605Y-27296D01*
X40504Y-27194D01*
X40371Y-27140D01*
X40260Y-27139D01*
X40260Y-24328D01*
X40205Y-24196D01*
X40104Y-24094D01*
X39971Y-24040D01*
X39828Y-24039D01*
X39696Y-24094D01*
X39599Y-24190D01*
X39504Y-24094D01*
X39371Y-24040D01*
X39228Y-24039D01*
X39096Y-24094D01*
X38999Y-24190D01*
X38914Y-24105D01*
X38914Y-14588D01*
X38828Y-14380D01*
X38670Y-14221D01*
X38462Y-14135D01*
X38238Y-14135D01*
X38194Y-14153D01*
X38328Y-14020D01*
X38414Y-13812D01*
X38414Y-13588D01*
X38328Y-13380D01*
X38170Y-13221D01*
X37962Y-13135D01*
X37738Y-13135D01*
X37530Y-13221D01*
X37371Y-13379D01*
X37285Y-13587D01*
X37285Y-13811D01*
X37371Y-14019D01*
X37505Y-14153D01*
X37462Y-14135D01*
X37238Y-14135D01*
X37030Y-14221D01*
X36940Y-14311D01*
X36940Y-11033D01*
X36812Y-10724D01*
X36576Y-10488D01*
X36267Y-10360D01*
X35933Y-10359D01*
X35624Y-10487D01*
X35388Y-10723D01*
X35299Y-10936D01*
X35212Y-10724D01*
X34976Y-10488D01*
X34667Y-10360D01*
X34333Y-10359D01*
X34024Y-10487D01*
X33788Y-10723D01*
X33660Y-11032D01*
X33659Y-11366D01*
X33787Y-11675D01*
X34023Y-11911D01*
X34332Y-12039D01*
X34666Y-12040D01*
X34975Y-11912D01*
X35211Y-11676D01*
X35300Y-11463D01*
X35387Y-11675D01*
X35623Y-11911D01*
X35932Y-12039D01*
X36266Y-12040D01*
X36575Y-11912D01*
X36811Y-11676D01*
X36939Y-11367D01*
X36940Y-11033D01*
X36940Y-14311D01*
X36871Y-14379D01*
X36785Y-14587D01*
X36785Y-14811D01*
X36871Y-15019D01*
X37029Y-15178D01*
X37237Y-15264D01*
X37461Y-15264D01*
X37669Y-15178D01*
X37828Y-15020D01*
X37849Y-14967D01*
X37871Y-15019D01*
X38029Y-15178D01*
X38237Y-15264D01*
X38461Y-15264D01*
X38669Y-15178D01*
X38828Y-15020D01*
X38914Y-14812D01*
X38914Y-14588D01*
X38914Y-24105D01*
X38904Y-24094D01*
X38785Y-24045D01*
X38785Y-15703D01*
X38711Y-15525D01*
X38575Y-15389D01*
X38396Y-15315D01*
X38203Y-15314D01*
X38025Y-15388D01*
X37889Y-15524D01*
X37815Y-15703D01*
X37814Y-15896D01*
X37888Y-16074D01*
X38024Y-16210D01*
X38203Y-16284D01*
X38396Y-16285D01*
X38574Y-16211D01*
X38710Y-16075D01*
X38784Y-15896D01*
X38785Y-15703D01*
X38785Y-24045D01*
X38771Y-24040D01*
X38628Y-24039D01*
X38496Y-24094D01*
X38394Y-24195D01*
X38340Y-24328D01*
X38339Y-24471D01*
X38394Y-24603D01*
X38495Y-24705D01*
X38628Y-24759D01*
X38639Y-24759D01*
X38639Y-24821D01*
X38694Y-24953D01*
X38795Y-25055D01*
X38928Y-25109D01*
X39071Y-25110D01*
X39203Y-25055D01*
X39300Y-24959D01*
X39395Y-25055D01*
X39528Y-25109D01*
X39671Y-25110D01*
X39803Y-25055D01*
X39905Y-24954D01*
X39959Y-24821D01*
X39959Y-24760D01*
X39971Y-24760D01*
X40103Y-24705D01*
X40205Y-24604D01*
X40259Y-24471D01*
X40260Y-24328D01*
X40260Y-27139D01*
X40228Y-27139D01*
X40096Y-27194D01*
X39999Y-27290D01*
X39904Y-27194D01*
X39810Y-27155D01*
X39810Y-25928D01*
X39755Y-25796D01*
X39654Y-25694D01*
X39521Y-25640D01*
X39378Y-25639D01*
X39246Y-25694D01*
X39144Y-25795D01*
X39090Y-25928D01*
X39089Y-26071D01*
X39144Y-26203D01*
X39245Y-26305D01*
X39378Y-26359D01*
X39521Y-26360D01*
X39653Y-26305D01*
X39755Y-26204D01*
X39809Y-26071D01*
X39810Y-25928D01*
X39810Y-27155D01*
X39771Y-27140D01*
X39628Y-27139D01*
X39499Y-27193D01*
X39371Y-27140D01*
X39259Y-27139D01*
X39260Y-27028D01*
X39206Y-26899D01*
X39259Y-26771D01*
X39260Y-26628D01*
X39205Y-26496D01*
X39104Y-26394D01*
X38971Y-26340D01*
X38828Y-26339D01*
X38696Y-26394D01*
X38650Y-26440D01*
X38604Y-26394D01*
X38471Y-26340D01*
X38328Y-26339D01*
X38260Y-26368D01*
X38260Y-20628D01*
X38205Y-20496D01*
X38104Y-20394D01*
X37971Y-20340D01*
X37828Y-20339D01*
X37696Y-20394D01*
X37594Y-20495D01*
X37540Y-20628D01*
X37539Y-20771D01*
X37594Y-20903D01*
X37695Y-21005D01*
X37828Y-21059D01*
X37971Y-21060D01*
X38103Y-21005D01*
X38205Y-20904D01*
X38259Y-20771D01*
X38260Y-20628D01*
X38260Y-26368D01*
X38196Y-26394D01*
X38094Y-26495D01*
X38040Y-26628D01*
X38039Y-26771D01*
X38094Y-26903D01*
X38195Y-27005D01*
X38328Y-27059D01*
X38471Y-27060D01*
X38540Y-27031D01*
X38539Y-27171D01*
X38593Y-27300D01*
X38540Y-27428D01*
X38539Y-27571D01*
X38594Y-27703D01*
X38695Y-27805D01*
X38828Y-27859D01*
X38971Y-27860D01*
X39100Y-27806D01*
X39228Y-27859D01*
X39371Y-27860D01*
X39500Y-27806D01*
X39628Y-27859D01*
X39771Y-27860D01*
X39903Y-27805D01*
X40000Y-27709D01*
X40095Y-27805D01*
X40204Y-27850D01*
X40096Y-27894D01*
X39994Y-27995D01*
X39940Y-28128D01*
X39939Y-28271D01*
X39994Y-28403D01*
X40095Y-28505D01*
X40228Y-28559D01*
X40371Y-28560D01*
X40503Y-28505D01*
X40605Y-28404D01*
X40659Y-28271D01*
X40660Y-28128D01*
X40660Y-29270D01*
X37860Y-29270D01*
X37860Y-24428D01*
X37805Y-24296D01*
X37704Y-24194D01*
X37571Y-24140D01*
X37428Y-24139D01*
X37296Y-24194D01*
X37194Y-24295D01*
X37161Y-24377D01*
X37071Y-24340D01*
X36928Y-24339D01*
X36838Y-24377D01*
X36810Y-24307D01*
X36810Y-22422D01*
X36755Y-22290D01*
X36654Y-22188D01*
X36521Y-22133D01*
X36378Y-22133D01*
X36246Y-22188D01*
X36144Y-22289D01*
X36090Y-22421D01*
X36089Y-22564D01*
X36144Y-22697D01*
X36245Y-22798D01*
X36378Y-22853D01*
X36521Y-22853D01*
X36653Y-22799D01*
X36755Y-22697D01*
X36809Y-22565D01*
X36810Y-22422D01*
X36810Y-24307D01*
X36805Y-24296D01*
X36704Y-24194D01*
X36571Y-24140D01*
X36428Y-24139D01*
X36296Y-24194D01*
X36194Y-24295D01*
X36140Y-24428D01*
X36139Y-24571D01*
X36194Y-24703D01*
X36295Y-24805D01*
X36428Y-24859D01*
X36571Y-24860D01*
X36661Y-24822D01*
X36694Y-24903D01*
X36795Y-25005D01*
X36928Y-25059D01*
X37071Y-25060D01*
X37203Y-25005D01*
X37305Y-24904D01*
X37338Y-24822D01*
X37428Y-24859D01*
X37571Y-24860D01*
X37703Y-24805D01*
X37805Y-24704D01*
X37859Y-24571D01*
X37860Y-24428D01*
X37860Y-29270D01*
X37060Y-29270D01*
X37060Y-25328D01*
X37005Y-25196D01*
X36904Y-25094D01*
X36771Y-25040D01*
X36628Y-25039D01*
X36496Y-25094D01*
X36450Y-25140D01*
X36404Y-25094D01*
X36271Y-25040D01*
X36128Y-25039D01*
X35996Y-25094D01*
X35894Y-25195D01*
X35860Y-25279D01*
X35860Y-17328D01*
X35805Y-17196D01*
X35704Y-17094D01*
X35571Y-17040D01*
X35428Y-17039D01*
X35296Y-17094D01*
X35194Y-17195D01*
X35185Y-17219D01*
X35185Y-15703D01*
X35111Y-15525D01*
X34975Y-15389D01*
X34796Y-15315D01*
X34603Y-15314D01*
X34425Y-15388D01*
X34289Y-15524D01*
X34215Y-15703D01*
X34214Y-15896D01*
X34288Y-16074D01*
X34424Y-16210D01*
X34603Y-16284D01*
X34796Y-16285D01*
X34974Y-16211D01*
X35110Y-16075D01*
X35184Y-15896D01*
X35185Y-15703D01*
X35185Y-17219D01*
X35140Y-17328D01*
X35139Y-17471D01*
X35194Y-17603D01*
X35295Y-17705D01*
X35428Y-17759D01*
X35571Y-17760D01*
X35703Y-17705D01*
X35805Y-17604D01*
X35859Y-17471D01*
X35860Y-17328D01*
X35860Y-25279D01*
X35840Y-25328D01*
X35839Y-25471D01*
X35894Y-25603D01*
X35995Y-25705D01*
X36104Y-25750D01*
X35996Y-25794D01*
X35894Y-25895D01*
X35840Y-26028D01*
X35839Y-26171D01*
X35894Y-26303D01*
X35995Y-26405D01*
X36128Y-26459D01*
X36240Y-26460D01*
X36239Y-26540D01*
X36128Y-26539D01*
X35996Y-26594D01*
X35894Y-26695D01*
X35840Y-26828D01*
X35839Y-26971D01*
X35894Y-27103D01*
X35995Y-27205D01*
X36128Y-27259D01*
X36268Y-27260D01*
X36240Y-27328D01*
X36239Y-27440D01*
X36128Y-27439D01*
X35996Y-27494D01*
X35894Y-27595D01*
X35840Y-27728D01*
X35839Y-27871D01*
X35894Y-28003D01*
X35995Y-28105D01*
X36128Y-28159D01*
X36240Y-28160D01*
X36239Y-28271D01*
X36294Y-28403D01*
X36395Y-28505D01*
X36528Y-28559D01*
X36671Y-28560D01*
X36803Y-28505D01*
X36905Y-28404D01*
X36959Y-28271D01*
X36960Y-28128D01*
X36905Y-27996D01*
X36804Y-27894D01*
X36671Y-27840D01*
X36559Y-27839D01*
X36560Y-27759D01*
X36671Y-27760D01*
X36803Y-27705D01*
X36905Y-27604D01*
X36959Y-27471D01*
X36960Y-27328D01*
X36905Y-27196D01*
X36804Y-27094D01*
X36671Y-27040D01*
X36531Y-27039D01*
X36559Y-26971D01*
X36560Y-26859D01*
X36671Y-26860D01*
X36803Y-26805D01*
X36905Y-26704D01*
X36959Y-26571D01*
X36960Y-26428D01*
X36905Y-26296D01*
X36804Y-26194D01*
X36671Y-26140D01*
X36559Y-26139D01*
X36560Y-26028D01*
X36505Y-25896D01*
X36404Y-25794D01*
X36295Y-25749D01*
X36403Y-25705D01*
X36449Y-25659D01*
X36495Y-25705D01*
X36628Y-25759D01*
X36771Y-25760D01*
X36903Y-25705D01*
X37005Y-25604D01*
X37059Y-25471D01*
X37060Y-25328D01*
X37060Y-29270D01*
X35060Y-29270D01*
X35060Y-20628D01*
X35005Y-20496D01*
X34904Y-20394D01*
X34771Y-20340D01*
X34628Y-20339D01*
X34496Y-20394D01*
X34394Y-20495D01*
X34340Y-20628D01*
X34339Y-20771D01*
X34394Y-20903D01*
X34495Y-21005D01*
X34628Y-21059D01*
X34771Y-21060D01*
X34903Y-21005D01*
X35005Y-20904D01*
X35059Y-20771D01*
X35060Y-20628D01*
X35060Y-29270D01*
X34860Y-29270D01*
X34860Y-26928D01*
X34805Y-26796D01*
X34760Y-26750D01*
X34760Y-25328D01*
X34705Y-25196D01*
X34604Y-25094D01*
X34471Y-25040D01*
X34328Y-25039D01*
X34196Y-25094D01*
X34150Y-25140D01*
X34104Y-25094D01*
X33971Y-25040D01*
X33919Y-25040D01*
X34003Y-25005D01*
X34105Y-24904D01*
X34138Y-24822D01*
X34228Y-24859D01*
X34371Y-24860D01*
X34503Y-24805D01*
X34605Y-24704D01*
X34659Y-24571D01*
X34660Y-24428D01*
X34605Y-24296D01*
X34504Y-24194D01*
X34371Y-24140D01*
X34228Y-24139D01*
X34096Y-24194D01*
X33994Y-24295D01*
X33961Y-24377D01*
X33871Y-24340D01*
X33728Y-24339D01*
X33638Y-24377D01*
X33610Y-24307D01*
X33610Y-22422D01*
X33555Y-22290D01*
X33454Y-22188D01*
X33321Y-22133D01*
X33314Y-22133D01*
X33314Y-14588D01*
X33228Y-14380D01*
X33070Y-14221D01*
X32862Y-14135D01*
X32638Y-14135D01*
X32594Y-14153D01*
X32728Y-14020D01*
X32814Y-13812D01*
X32814Y-13588D01*
X32728Y-13380D01*
X32570Y-13221D01*
X32362Y-13135D01*
X32138Y-13135D01*
X31930Y-13221D01*
X31771Y-13379D01*
X31685Y-13587D01*
X31685Y-13811D01*
X31771Y-14019D01*
X31905Y-14153D01*
X31862Y-14135D01*
X31638Y-14135D01*
X31430Y-14221D01*
X31340Y-14311D01*
X31340Y-11033D01*
X31212Y-10724D01*
X30976Y-10488D01*
X30667Y-10360D01*
X30333Y-10359D01*
X30024Y-10487D01*
X29788Y-10723D01*
X29699Y-10936D01*
X29612Y-10724D01*
X29376Y-10488D01*
X29067Y-10360D01*
X28733Y-10359D01*
X28424Y-10487D01*
X28188Y-10723D01*
X28060Y-11032D01*
X28059Y-11366D01*
X28187Y-11675D01*
X28423Y-11911D01*
X28732Y-12039D01*
X29066Y-12040D01*
X29375Y-11912D01*
X29611Y-11676D01*
X29700Y-11463D01*
X29787Y-11675D01*
X30023Y-11911D01*
X30332Y-12039D01*
X30666Y-12040D01*
X30975Y-11912D01*
X31211Y-11676D01*
X31339Y-11367D01*
X31340Y-11033D01*
X31340Y-14311D01*
X31271Y-14379D01*
X31185Y-14587D01*
X31185Y-14811D01*
X31271Y-15019D01*
X31429Y-15178D01*
X31637Y-15264D01*
X31861Y-15264D01*
X32069Y-15178D01*
X32228Y-15020D01*
X32249Y-14967D01*
X32271Y-15019D01*
X32429Y-15178D01*
X32637Y-15264D01*
X32861Y-15264D01*
X33069Y-15178D01*
X33228Y-15020D01*
X33314Y-14812D01*
X33314Y-14588D01*
X33314Y-22133D01*
X33185Y-22133D01*
X33185Y-15703D01*
X33111Y-15525D01*
X32975Y-15389D01*
X32796Y-15315D01*
X32603Y-15314D01*
X32425Y-15388D01*
X32289Y-15524D01*
X32215Y-15703D01*
X32214Y-15896D01*
X32288Y-16074D01*
X32424Y-16210D01*
X32603Y-16284D01*
X32796Y-16285D01*
X32974Y-16211D01*
X33110Y-16075D01*
X33184Y-15896D01*
X33185Y-15703D01*
X33185Y-22133D01*
X33178Y-22133D01*
X33046Y-22188D01*
X32944Y-22289D01*
X32890Y-22421D01*
X32889Y-22564D01*
X32944Y-22697D01*
X33045Y-22798D01*
X33178Y-22853D01*
X33321Y-22853D01*
X33453Y-22799D01*
X33555Y-22697D01*
X33609Y-22565D01*
X33610Y-22422D01*
X33610Y-24307D01*
X33605Y-24296D01*
X33504Y-24194D01*
X33371Y-24140D01*
X33228Y-24139D01*
X33096Y-24194D01*
X32994Y-24295D01*
X32940Y-24428D01*
X32939Y-24571D01*
X32994Y-24703D01*
X33095Y-24805D01*
X33228Y-24859D01*
X33371Y-24860D01*
X33461Y-24822D01*
X33494Y-24903D01*
X33595Y-25005D01*
X33728Y-25059D01*
X33780Y-25059D01*
X33696Y-25094D01*
X33594Y-25195D01*
X33540Y-25328D01*
X33539Y-25471D01*
X33594Y-25603D01*
X33695Y-25705D01*
X33828Y-25759D01*
X33971Y-25760D01*
X34103Y-25705D01*
X34149Y-25659D01*
X34195Y-25705D01*
X34328Y-25759D01*
X34471Y-25760D01*
X34603Y-25705D01*
X34705Y-25604D01*
X34759Y-25471D01*
X34760Y-25328D01*
X34760Y-26750D01*
X34704Y-26694D01*
X34571Y-26640D01*
X34428Y-26639D01*
X34296Y-26694D01*
X34194Y-26795D01*
X34149Y-26904D01*
X34105Y-26796D01*
X34004Y-26694D01*
X33871Y-26640D01*
X33728Y-26639D01*
X33596Y-26694D01*
X33494Y-26795D01*
X33440Y-26928D01*
X33439Y-27071D01*
X33494Y-27203D01*
X33595Y-27305D01*
X33728Y-27359D01*
X33871Y-27360D01*
X34003Y-27305D01*
X34105Y-27204D01*
X34150Y-27095D01*
X34194Y-27203D01*
X34295Y-27305D01*
X34428Y-27359D01*
X34571Y-27360D01*
X34703Y-27305D01*
X34805Y-27204D01*
X34859Y-27071D01*
X34860Y-26928D01*
X34860Y-29270D01*
X31860Y-29270D01*
X31860Y-20628D01*
X31805Y-20496D01*
X31704Y-20394D01*
X31571Y-20340D01*
X31428Y-20339D01*
X31296Y-20394D01*
X31194Y-20495D01*
X31140Y-20628D01*
X31139Y-20771D01*
X31194Y-20903D01*
X31295Y-21005D01*
X31428Y-21059D01*
X31571Y-21060D01*
X31703Y-21005D01*
X31805Y-20904D01*
X31859Y-20771D01*
X31860Y-20628D01*
X31860Y-29270D01*
X31460Y-29270D01*
X31460Y-24428D01*
X31405Y-24296D01*
X31304Y-24194D01*
X31171Y-24140D01*
X31028Y-24139D01*
X30896Y-24194D01*
X30794Y-24295D01*
X30761Y-24377D01*
X30671Y-24340D01*
X30528Y-24339D01*
X30438Y-24377D01*
X30410Y-24307D01*
X30410Y-22422D01*
X30355Y-22290D01*
X30260Y-22194D01*
X30260Y-17328D01*
X30205Y-17196D01*
X30104Y-17094D01*
X29971Y-17040D01*
X29828Y-17039D01*
X29696Y-17094D01*
X29594Y-17195D01*
X29585Y-17219D01*
X29585Y-15703D01*
X29511Y-15525D01*
X29375Y-15389D01*
X29196Y-15315D01*
X29003Y-15314D01*
X28825Y-15388D01*
X28689Y-15524D01*
X28615Y-15703D01*
X28614Y-15896D01*
X28688Y-16074D01*
X28824Y-16210D01*
X29003Y-16284D01*
X29196Y-16285D01*
X29374Y-16211D01*
X29510Y-16075D01*
X29584Y-15896D01*
X29585Y-15703D01*
X29585Y-17219D01*
X29540Y-17328D01*
X29539Y-17471D01*
X29594Y-17603D01*
X29695Y-17705D01*
X29828Y-17759D01*
X29971Y-17760D01*
X30103Y-17705D01*
X30205Y-17604D01*
X30259Y-17471D01*
X30260Y-17328D01*
X30260Y-22194D01*
X30254Y-22188D01*
X30121Y-22133D01*
X29978Y-22133D01*
X29846Y-22188D01*
X29744Y-22289D01*
X29690Y-22421D01*
X29689Y-22564D01*
X29744Y-22697D01*
X29845Y-22798D01*
X29978Y-22853D01*
X30121Y-22853D01*
X30253Y-22799D01*
X30355Y-22697D01*
X30409Y-22565D01*
X30410Y-22422D01*
X30410Y-24307D01*
X30405Y-24296D01*
X30304Y-24194D01*
X30171Y-24140D01*
X30028Y-24139D01*
X29896Y-24194D01*
X29794Y-24295D01*
X29740Y-24428D01*
X29739Y-24571D01*
X29794Y-24703D01*
X29895Y-24805D01*
X30028Y-24859D01*
X30171Y-24860D01*
X30261Y-24822D01*
X30294Y-24903D01*
X30395Y-25005D01*
X30528Y-25059D01*
X30671Y-25060D01*
X30803Y-25005D01*
X30905Y-24904D01*
X30938Y-24822D01*
X31028Y-24859D01*
X31171Y-24860D01*
X31303Y-24805D01*
X31405Y-24704D01*
X31459Y-24571D01*
X31460Y-24428D01*
X31460Y-29270D01*
X31060Y-29270D01*
X31060Y-25928D01*
X31005Y-25796D01*
X30904Y-25694D01*
X30771Y-25640D01*
X30628Y-25639D01*
X30496Y-25694D01*
X30394Y-25795D01*
X30340Y-25928D01*
X30339Y-26071D01*
X30394Y-26203D01*
X30495Y-26305D01*
X30628Y-26359D01*
X30771Y-26360D01*
X30903Y-26305D01*
X31005Y-26204D01*
X31059Y-26071D01*
X31060Y-25928D01*
X31060Y-29270D01*
X28760Y-29270D01*
X28760Y-26428D01*
X28705Y-26296D01*
X28660Y-26250D01*
X28660Y-20628D01*
X28605Y-20496D01*
X28504Y-20394D01*
X28371Y-20340D01*
X28228Y-20339D01*
X28096Y-20394D01*
X27994Y-20495D01*
X27940Y-20628D01*
X27939Y-20771D01*
X27994Y-20903D01*
X28095Y-21005D01*
X28228Y-21059D01*
X28371Y-21060D01*
X28503Y-21005D01*
X28605Y-20904D01*
X28659Y-20771D01*
X28660Y-20628D01*
X28660Y-26250D01*
X28604Y-26194D01*
X28471Y-26140D01*
X28328Y-26139D01*
X28260Y-26168D01*
X28260Y-24428D01*
X28205Y-24296D01*
X28104Y-24194D01*
X27971Y-24140D01*
X27828Y-24139D01*
X27714Y-24187D01*
X27714Y-14588D01*
X27628Y-14380D01*
X27470Y-14221D01*
X27262Y-14135D01*
X27038Y-14135D01*
X26994Y-14153D01*
X27128Y-14020D01*
X27214Y-13812D01*
X27214Y-13588D01*
X27128Y-13380D01*
X26970Y-13221D01*
X26762Y-13135D01*
X26538Y-13135D01*
X26330Y-13221D01*
X26171Y-13379D01*
X26085Y-13587D01*
X26085Y-13811D01*
X26171Y-14019D01*
X26305Y-14153D01*
X26262Y-14135D01*
X26038Y-14135D01*
X25830Y-14221D01*
X25740Y-14311D01*
X25740Y-11033D01*
X25612Y-10724D01*
X25376Y-10488D01*
X25067Y-10360D01*
X24733Y-10359D01*
X24424Y-10487D01*
X24188Y-10723D01*
X24099Y-10936D01*
X24012Y-10724D01*
X23776Y-10488D01*
X23467Y-10360D01*
X23133Y-10359D01*
X22824Y-10487D01*
X22588Y-10723D01*
X22460Y-11032D01*
X22459Y-11366D01*
X22587Y-11675D01*
X22823Y-11911D01*
X23132Y-12039D01*
X23466Y-12040D01*
X23775Y-11912D01*
X24011Y-11676D01*
X24100Y-11463D01*
X24187Y-11675D01*
X24423Y-11911D01*
X24732Y-12039D01*
X25066Y-12040D01*
X25375Y-11912D01*
X25611Y-11676D01*
X25739Y-11367D01*
X25740Y-11033D01*
X25740Y-14311D01*
X25671Y-14379D01*
X25585Y-14587D01*
X25585Y-14811D01*
X25671Y-15019D01*
X25829Y-15178D01*
X26037Y-15264D01*
X26261Y-15264D01*
X26469Y-15178D01*
X26628Y-15020D01*
X26649Y-14967D01*
X26671Y-15019D01*
X26829Y-15178D01*
X27037Y-15264D01*
X27261Y-15264D01*
X27469Y-15178D01*
X27628Y-15020D01*
X27714Y-14812D01*
X27714Y-14588D01*
X27714Y-24187D01*
X27696Y-24194D01*
X27594Y-24295D01*
X27585Y-24319D01*
X27585Y-15703D01*
X27511Y-15525D01*
X27375Y-15389D01*
X27196Y-15315D01*
X27003Y-15314D01*
X26825Y-15388D01*
X26689Y-15524D01*
X26615Y-15703D01*
X26614Y-15896D01*
X26688Y-16074D01*
X26824Y-16210D01*
X27003Y-16284D01*
X27196Y-16285D01*
X27374Y-16211D01*
X27510Y-16075D01*
X27584Y-15896D01*
X27585Y-15703D01*
X27585Y-24319D01*
X27540Y-24428D01*
X27540Y-24440D01*
X27428Y-24439D01*
X27296Y-24494D01*
X27259Y-24530D01*
X27260Y-24428D01*
X27210Y-24307D01*
X27210Y-22422D01*
X27155Y-22290D01*
X27054Y-22188D01*
X26921Y-22133D01*
X26778Y-22133D01*
X26646Y-22188D01*
X26544Y-22289D01*
X26490Y-22421D01*
X26489Y-22564D01*
X26544Y-22697D01*
X26645Y-22798D01*
X26778Y-22853D01*
X26921Y-22853D01*
X27053Y-22799D01*
X27155Y-22697D01*
X27209Y-22565D01*
X27210Y-22422D01*
X27210Y-24307D01*
X27205Y-24296D01*
X27104Y-24194D01*
X26971Y-24140D01*
X26828Y-24139D01*
X26696Y-24194D01*
X26594Y-24295D01*
X26540Y-24428D01*
X26539Y-24571D01*
X26594Y-24703D01*
X26695Y-24805D01*
X26828Y-24859D01*
X26971Y-24860D01*
X27103Y-24805D01*
X27140Y-24769D01*
X27139Y-24871D01*
X27194Y-25003D01*
X27295Y-25105D01*
X27428Y-25159D01*
X27571Y-25160D01*
X27703Y-25105D01*
X27805Y-25004D01*
X27859Y-24871D01*
X27859Y-24859D01*
X27971Y-24860D01*
X28103Y-24805D01*
X28205Y-24704D01*
X28259Y-24571D01*
X28260Y-24428D01*
X28260Y-26168D01*
X28196Y-26194D01*
X28094Y-26295D01*
X28040Y-26428D01*
X28039Y-26571D01*
X28094Y-26703D01*
X28195Y-26805D01*
X28328Y-26859D01*
X28471Y-26860D01*
X28603Y-26805D01*
X28705Y-26704D01*
X28759Y-26571D01*
X28760Y-26428D01*
X28760Y-29270D01*
X27306Y-29270D01*
X27306Y-26741D01*
X27108Y-26261D01*
X26740Y-25893D01*
X26260Y-25693D01*
X25741Y-25693D01*
X25460Y-25809D01*
X25460Y-20628D01*
X25405Y-20496D01*
X25304Y-20394D01*
X25171Y-20340D01*
X25028Y-20339D01*
X24896Y-20394D01*
X24794Y-20495D01*
X24740Y-20628D01*
X24739Y-20771D01*
X24794Y-20903D01*
X24895Y-21005D01*
X25028Y-21059D01*
X25171Y-21060D01*
X25303Y-21005D01*
X25405Y-20904D01*
X25459Y-20771D01*
X25460Y-20628D01*
X25460Y-25809D01*
X25261Y-25891D01*
X25010Y-26142D01*
X25010Y-24428D01*
X24955Y-24296D01*
X24854Y-24194D01*
X24721Y-24140D01*
X24660Y-24140D01*
X24660Y-17328D01*
X24605Y-17196D01*
X24504Y-17094D01*
X24371Y-17040D01*
X24228Y-17039D01*
X24096Y-17094D01*
X23994Y-17195D01*
X23985Y-17219D01*
X23985Y-15703D01*
X23911Y-15525D01*
X23775Y-15389D01*
X23596Y-15315D01*
X23403Y-15314D01*
X23225Y-15388D01*
X23089Y-15524D01*
X23015Y-15703D01*
X23014Y-15896D01*
X23088Y-16074D01*
X23224Y-16210D01*
X23403Y-16284D01*
X23596Y-16285D01*
X23774Y-16211D01*
X23910Y-16075D01*
X23984Y-15896D01*
X23985Y-15703D01*
X23985Y-17219D01*
X23940Y-17328D01*
X23939Y-17471D01*
X23994Y-17603D01*
X24095Y-17705D01*
X24228Y-17759D01*
X24371Y-17760D01*
X24503Y-17705D01*
X24605Y-17604D01*
X24659Y-17471D01*
X24660Y-17328D01*
X24660Y-24140D01*
X24578Y-24139D01*
X24446Y-24194D01*
X24344Y-24295D01*
X24290Y-24428D01*
X24290Y-24468D01*
X24221Y-24440D01*
X24078Y-24439D01*
X24010Y-24468D01*
X24010Y-22422D01*
X23955Y-22290D01*
X23854Y-22188D01*
X23721Y-22133D01*
X23578Y-22133D01*
X23446Y-22188D01*
X23344Y-22289D01*
X23290Y-22421D01*
X23289Y-22564D01*
X23344Y-22697D01*
X23445Y-22798D01*
X23578Y-22853D01*
X23721Y-22853D01*
X23853Y-22799D01*
X23955Y-22697D01*
X24009Y-22565D01*
X24010Y-22422D01*
X24010Y-24468D01*
X23946Y-24494D01*
X23844Y-24595D01*
X23790Y-24728D01*
X23789Y-24871D01*
X23844Y-25003D01*
X23945Y-25105D01*
X24078Y-25159D01*
X24221Y-25160D01*
X24353Y-25105D01*
X24455Y-25004D01*
X24509Y-24871D01*
X24509Y-24831D01*
X24578Y-24859D01*
X24721Y-24860D01*
X24853Y-24805D01*
X24955Y-24704D01*
X25009Y-24571D01*
X25010Y-24428D01*
X25010Y-26142D01*
X24893Y-26259D01*
X24693Y-26739D01*
X24693Y-27258D01*
X24891Y-27738D01*
X25259Y-28106D01*
X25739Y-28306D01*
X26258Y-28306D01*
X26738Y-28108D01*
X27106Y-27740D01*
X27306Y-27260D01*
X27306Y-26741D01*
X27306Y-29270D01*
X22114Y-29270D01*
X22114Y-14588D01*
X22028Y-14380D01*
X21870Y-14221D01*
X21662Y-14135D01*
X21438Y-14135D01*
X21394Y-14153D01*
X21528Y-14020D01*
X21614Y-13812D01*
X21614Y-13588D01*
X21528Y-13380D01*
X21370Y-13221D01*
X21162Y-13135D01*
X20938Y-13135D01*
X20730Y-13221D01*
X20571Y-13379D01*
X20485Y-13587D01*
X20485Y-13811D01*
X20571Y-14019D01*
X20705Y-14153D01*
X20662Y-14135D01*
X20438Y-14135D01*
X20230Y-14221D01*
X20140Y-14311D01*
X20140Y-11033D01*
X20012Y-10724D01*
X19776Y-10488D01*
X19467Y-10360D01*
X19133Y-10359D01*
X18824Y-10487D01*
X18588Y-10723D01*
X18499Y-10936D01*
X18412Y-10724D01*
X18176Y-10488D01*
X17867Y-10360D01*
X17533Y-10359D01*
X17224Y-10487D01*
X16988Y-10723D01*
X16860Y-11032D01*
X16859Y-11366D01*
X16987Y-11675D01*
X17223Y-11911D01*
X17532Y-12039D01*
X17866Y-12040D01*
X18175Y-11912D01*
X18411Y-11676D01*
X18500Y-11463D01*
X18587Y-11675D01*
X18823Y-11911D01*
X19132Y-12039D01*
X19466Y-12040D01*
X19775Y-11912D01*
X20011Y-11676D01*
X20139Y-11367D01*
X20140Y-11033D01*
X20140Y-14311D01*
X20071Y-14379D01*
X19985Y-14587D01*
X19985Y-14811D01*
X20071Y-15019D01*
X20229Y-15178D01*
X20437Y-15264D01*
X20661Y-15264D01*
X20869Y-15178D01*
X21028Y-15020D01*
X21049Y-14967D01*
X21071Y-15019D01*
X21229Y-15178D01*
X21437Y-15264D01*
X21661Y-15264D01*
X21869Y-15178D01*
X22028Y-15020D01*
X22114Y-14812D01*
X22114Y-14588D01*
X22114Y-29270D01*
X21985Y-29270D01*
X21985Y-15703D01*
X21911Y-15525D01*
X21775Y-15389D01*
X21596Y-15315D01*
X21403Y-15314D01*
X21225Y-15388D01*
X21089Y-15524D01*
X21015Y-15703D01*
X21014Y-15896D01*
X21088Y-16074D01*
X21224Y-16210D01*
X21403Y-16284D01*
X21596Y-16285D01*
X21774Y-16211D01*
X21910Y-16075D01*
X21984Y-15896D01*
X21985Y-15703D01*
X21985Y-29270D01*
X21960Y-29270D01*
X21960Y-22928D01*
X21905Y-22796D01*
X21804Y-22694D01*
X21671Y-22640D01*
X21528Y-22639D01*
X21396Y-22694D01*
X21294Y-22795D01*
X21240Y-22928D01*
X21239Y-23071D01*
X21294Y-23203D01*
X21395Y-23305D01*
X21528Y-23359D01*
X21671Y-23360D01*
X21803Y-23305D01*
X21905Y-23204D01*
X21959Y-23071D01*
X21960Y-22928D01*
X21960Y-29270D01*
X20960Y-29270D01*
X20960Y-22528D01*
X20905Y-22396D01*
X20804Y-22294D01*
X20671Y-22240D01*
X20528Y-22239D01*
X20399Y-22293D01*
X20271Y-22240D01*
X20128Y-22239D01*
X19996Y-22294D01*
X19894Y-22395D01*
X19840Y-22528D01*
X19839Y-22671D01*
X19894Y-22803D01*
X19995Y-22905D01*
X20128Y-22959D01*
X20271Y-22960D01*
X20400Y-22906D01*
X20528Y-22959D01*
X20671Y-22960D01*
X20803Y-22905D01*
X20905Y-22804D01*
X20959Y-22671D01*
X20960Y-22528D01*
X20960Y-29270D01*
X20760Y-29270D01*
X20760Y-26308D01*
X20760Y-25608D01*
X20728Y-25531D01*
X20669Y-25472D01*
X20591Y-25440D01*
X20508Y-25439D01*
X19808Y-25439D01*
X19731Y-25471D01*
X19672Y-25530D01*
X19640Y-25608D01*
X19639Y-25691D01*
X19639Y-26391D01*
X19671Y-26468D01*
X19730Y-26527D01*
X19808Y-26559D01*
X19891Y-26560D01*
X20591Y-26560D01*
X20668Y-26528D01*
X20727Y-26469D01*
X20759Y-26391D01*
X20760Y-26308D01*
X20760Y-29270D01*
X19135Y-29270D01*
X19135Y-24213D01*
X19068Y-24053D01*
X19060Y-24044D01*
X19060Y-17328D01*
X19005Y-17196D01*
X18904Y-17094D01*
X18771Y-17040D01*
X18628Y-17039D01*
X18496Y-17094D01*
X18394Y-17195D01*
X18385Y-17219D01*
X18385Y-15703D01*
X18311Y-15525D01*
X18175Y-15389D01*
X17996Y-15315D01*
X17803Y-15314D01*
X17625Y-15388D01*
X17489Y-15524D01*
X17415Y-15703D01*
X17414Y-15896D01*
X17488Y-16074D01*
X17624Y-16210D01*
X17803Y-16284D01*
X17996Y-16285D01*
X18174Y-16211D01*
X18310Y-16075D01*
X18384Y-15896D01*
X18385Y-15703D01*
X18385Y-17219D01*
X18340Y-17328D01*
X18339Y-17471D01*
X18394Y-17603D01*
X18495Y-17705D01*
X18628Y-17759D01*
X18771Y-17760D01*
X18903Y-17705D01*
X19005Y-17604D01*
X19059Y-17471D01*
X19060Y-17328D01*
X19060Y-24044D01*
X18946Y-23931D01*
X18786Y-23865D01*
X18613Y-23864D01*
X18453Y-23931D01*
X18331Y-24053D01*
X18265Y-24213D01*
X18264Y-24386D01*
X18331Y-24546D01*
X18453Y-24668D01*
X18613Y-24734D01*
X18786Y-24735D01*
X18946Y-24668D01*
X19068Y-24546D01*
X19134Y-24386D01*
X19135Y-24213D01*
X19135Y-29270D01*
X16514Y-29270D01*
X16514Y-14588D01*
X16428Y-14380D01*
X16270Y-14221D01*
X16062Y-14135D01*
X15838Y-14135D01*
X15794Y-14153D01*
X15928Y-14020D01*
X16014Y-13812D01*
X16014Y-13588D01*
X15928Y-13380D01*
X15770Y-13221D01*
X15562Y-13135D01*
X15338Y-13135D01*
X15130Y-13221D01*
X14971Y-13379D01*
X14885Y-13587D01*
X14885Y-13811D01*
X14971Y-14019D01*
X15105Y-14153D01*
X15062Y-14135D01*
X14838Y-14135D01*
X14630Y-14221D01*
X14540Y-14311D01*
X14540Y-11033D01*
X14412Y-10724D01*
X14176Y-10488D01*
X13867Y-10360D01*
X13533Y-10359D01*
X13224Y-10487D01*
X12988Y-10723D01*
X12860Y-11032D01*
X12859Y-11366D01*
X12987Y-11675D01*
X13223Y-11911D01*
X13532Y-12039D01*
X13866Y-12040D01*
X14175Y-11912D01*
X14411Y-11676D01*
X14539Y-11367D01*
X14540Y-11033D01*
X14540Y-14311D01*
X14471Y-14379D01*
X14385Y-14587D01*
X14385Y-14811D01*
X14471Y-15019D01*
X14629Y-15178D01*
X14837Y-15264D01*
X15061Y-15264D01*
X15269Y-15178D01*
X15428Y-15020D01*
X15449Y-14967D01*
X15471Y-15019D01*
X15629Y-15178D01*
X15837Y-15264D01*
X16061Y-15264D01*
X16269Y-15178D01*
X16428Y-15020D01*
X16514Y-14812D01*
X16514Y-14588D01*
X16514Y-29270D01*
X16385Y-29270D01*
X16385Y-15703D01*
X16311Y-15525D01*
X16175Y-15389D01*
X15996Y-15315D01*
X15803Y-15314D01*
X15625Y-15388D01*
X15489Y-15524D01*
X15415Y-15703D01*
X15414Y-15896D01*
X15488Y-16074D01*
X15624Y-16210D01*
X15803Y-16284D01*
X15996Y-16285D01*
X16174Y-16211D01*
X16310Y-16075D01*
X16384Y-15896D01*
X16385Y-15703D01*
X16385Y-29270D01*
X16085Y-29270D01*
X16085Y-21623D01*
X16026Y-21482D01*
X15918Y-21373D01*
X15776Y-21315D01*
X15623Y-21314D01*
X15482Y-21373D01*
X15373Y-21481D01*
X15315Y-21623D01*
X15314Y-21776D01*
X15373Y-21917D01*
X15481Y-22026D01*
X15623Y-22084D01*
X15776Y-22085D01*
X15917Y-22026D01*
X16026Y-21918D01*
X16084Y-21776D01*
X16085Y-21623D01*
X16085Y-29270D01*
X15699Y-29270D01*
X15699Y-26006D01*
X15699Y-24628D01*
X15667Y-24551D01*
X15608Y-24492D01*
X15530Y-24460D01*
X15447Y-24459D01*
X15035Y-24459D01*
X15035Y-22313D01*
X14968Y-22153D01*
X14965Y-22150D01*
X14968Y-22146D01*
X15034Y-21986D01*
X15035Y-21813D01*
X14968Y-21653D01*
X14965Y-21650D01*
X14968Y-21646D01*
X15034Y-21486D01*
X15035Y-21313D01*
X14968Y-21153D01*
X14846Y-21031D01*
X14686Y-20965D01*
X14513Y-20964D01*
X14353Y-21031D01*
X14231Y-21153D01*
X14165Y-21313D01*
X14164Y-21486D01*
X14231Y-21646D01*
X14234Y-21649D01*
X14231Y-21653D01*
X14165Y-21813D01*
X14164Y-21986D01*
X14231Y-22146D01*
X14234Y-22149D01*
X14231Y-22153D01*
X14165Y-22313D01*
X14164Y-22486D01*
X14231Y-22646D01*
X14353Y-22768D01*
X14513Y-22834D01*
X14686Y-22835D01*
X14846Y-22768D01*
X14968Y-22646D01*
X15034Y-22486D01*
X15035Y-22313D01*
X15035Y-24459D01*
X14069Y-24459D01*
X13992Y-24491D01*
X13933Y-24550D01*
X13901Y-24628D01*
X13900Y-24711D01*
X13900Y-26089D01*
X13932Y-26166D01*
X13991Y-26225D01*
X14069Y-26257D01*
X14152Y-26258D01*
X15530Y-26258D01*
X15607Y-26226D01*
X15666Y-26167D01*
X15698Y-26089D01*
X15699Y-26006D01*
X15699Y-29270D01*
X13385Y-29270D01*
X13385Y-23223D01*
X13326Y-23082D01*
X13218Y-22973D01*
X13076Y-22915D01*
X12923Y-22914D01*
X12906Y-22922D01*
X12906Y-12741D01*
X12708Y-12261D01*
X12340Y-11893D01*
X11860Y-11693D01*
X11341Y-11693D01*
X10861Y-11891D01*
X10493Y-12259D01*
X10293Y-12739D01*
X10293Y-13258D01*
X10491Y-13738D01*
X10859Y-14106D01*
X11339Y-14306D01*
X11858Y-14306D01*
X12338Y-14108D01*
X12706Y-13740D01*
X12906Y-13260D01*
X12906Y-12741D01*
X12906Y-22922D01*
X12782Y-22973D01*
X12673Y-23081D01*
X12615Y-23223D01*
X12614Y-23376D01*
X12673Y-23517D01*
X12781Y-23626D01*
X12923Y-23684D01*
X13076Y-23685D01*
X13217Y-23626D01*
X13326Y-23518D01*
X13384Y-23376D01*
X13385Y-23223D01*
X13385Y-29270D01*
X11807Y-29270D01*
X11943Y-29214D01*
X12213Y-28944D01*
X12359Y-28591D01*
X12360Y-28209D01*
X12360Y-26209D01*
X12360Y-22209D01*
X12360Y-20209D01*
X12214Y-19856D01*
X11944Y-19586D01*
X11591Y-19440D01*
X11209Y-19439D01*
X10856Y-19585D01*
X10586Y-19855D01*
X10440Y-20208D01*
X10439Y-20590D01*
X10585Y-20943D01*
X10855Y-21213D01*
X11208Y-21359D01*
X11590Y-21360D01*
X11943Y-21214D01*
X12213Y-20944D01*
X12359Y-20591D01*
X12360Y-20209D01*
X12360Y-22209D01*
X12214Y-21856D01*
X11944Y-21586D01*
X11591Y-21440D01*
X11209Y-21439D01*
X10856Y-21585D01*
X10586Y-21855D01*
X10440Y-22208D01*
X10439Y-22590D01*
X10585Y-22943D01*
X10855Y-23213D01*
X11208Y-23359D01*
X11590Y-23360D01*
X11943Y-23214D01*
X12213Y-22944D01*
X12359Y-22591D01*
X12360Y-22209D01*
X12360Y-26209D01*
X12214Y-25856D01*
X11944Y-25586D01*
X11591Y-25440D01*
X11209Y-25439D01*
X10856Y-25585D01*
X10586Y-25855D01*
X10440Y-26208D01*
X10439Y-26590D01*
X10585Y-26943D01*
X10855Y-27213D01*
X11208Y-27359D01*
X11590Y-27360D01*
X11943Y-27214D01*
X12213Y-26944D01*
X12359Y-26591D01*
X12360Y-26209D01*
X12360Y-28209D01*
X12214Y-27856D01*
X11944Y-27586D01*
X11591Y-27440D01*
X11209Y-27439D01*
X10856Y-27585D01*
X10586Y-27855D01*
X10440Y-28208D01*
X10439Y-28590D01*
X10585Y-28943D01*
X10855Y-29213D01*
X10992Y-29270D01*
X10229Y-29270D01*
X10229Y-10229D01*
X49020Y-10229D01*
X49020Y-12532D01*
X48908Y-12261D01*
X48540Y-11893D01*
X48060Y-11693D01*
X47541Y-11693D01*
X47061Y-11891D01*
X46693Y-12259D01*
X46540Y-12627D01*
X46540Y-11033D01*
X46412Y-10724D01*
X46176Y-10488D01*
X45867Y-10360D01*
X45533Y-10359D01*
X45224Y-10487D01*
X44988Y-10723D01*
X44860Y-11032D01*
X44859Y-11366D01*
X44987Y-11675D01*
X45223Y-11911D01*
X45532Y-12039D01*
X45866Y-12040D01*
X46175Y-11912D01*
X46411Y-11676D01*
X46539Y-11367D01*
X46540Y-11033D01*
X46540Y-12627D01*
X46493Y-12739D01*
X46493Y-13258D01*
X46691Y-13738D01*
X47059Y-14106D01*
X47539Y-14306D01*
X48058Y-14306D01*
X48538Y-14108D01*
X48906Y-13740D01*
X49020Y-13467D01*
X49020Y-21632D01*
X48908Y-21361D01*
X48860Y-21312D01*
X48860Y-18528D01*
X48805Y-18396D01*
X48704Y-18294D01*
X48571Y-18240D01*
X48428Y-18239D01*
X48296Y-18294D01*
X48194Y-18395D01*
X48140Y-18528D01*
X48139Y-18671D01*
X48194Y-18803D01*
X48295Y-18905D01*
X48428Y-18959D01*
X48571Y-18960D01*
X48703Y-18905D01*
X48805Y-18804D01*
X48859Y-18671D01*
X48860Y-18528D01*
X48860Y-21312D01*
X48540Y-20993D01*
X48060Y-20793D01*
X47541Y-20793D01*
X47061Y-20991D01*
X46693Y-21359D01*
X46493Y-21839D01*
X46493Y-22358D01*
X46691Y-22838D01*
X47059Y-23206D01*
X47539Y-23406D01*
X48058Y-23406D01*
X48538Y-23208D01*
X48906Y-22840D01*
X49020Y-22567D01*
X49020Y-29270D01*
M02*
