G04 #@! TF.FileFunction,Soldermask,Top*
%FSLAX46Y46*%
G04 Gerber Fmt 4.6, Leading zero omitted, Abs format (unit mm)*
G04 Created by KiCad (PCBNEW 4.0.2+dfsg1-stable) date Sun 12 Jun 2016 04:00:05 PM EDT*
%MOMM*%
G01*
G04 APERTURE LIST*
%ADD10C,0.150000*%
%ADD11R,0.500380X2.301240*%
%ADD12R,1.998980X2.499360*%
%ADD13C,1.100000*%
%ADD14R,3.657600X2.032000*%
%ADD15R,1.016000X2.032000*%
%ADD16R,1.778000X1.778000*%
%ADD17C,1.778000*%
%ADD18R,1.600000X2.000000*%
%ADD19R,0.500000X0.900000*%
%ADD20C,3.200000*%
%ADD21C,1.800000*%
%ADD22R,0.599440X1.399540*%
%ADD23C,3.810000*%
%ADD24R,0.800100X1.000760*%
%ADD25C,1.397000*%
%ADD26R,1.143000X0.508000*%
%ADD27R,0.850000X0.540000*%
%ADD28R,0.540000X0.850000*%
%ADD29R,1.397000X1.397000*%
%ADD30R,3.500120X3.500120*%
%ADD31R,0.500000X0.600000*%
%ADD32R,1.000000X1.250000*%
%ADD33R,0.600000X0.500000*%
%ADD34R,0.800000X0.750000*%
%ADD35R,0.797560X0.797560*%
%ADD36R,0.600000X0.400000*%
%ADD37R,0.400000X0.600000*%
%ADD38R,0.900000X0.500000*%
G04 APERTURE END LIST*
D10*
D11*
X106730800Y-66781680D03*
X107530900Y-66781680D03*
X108331000Y-66781680D03*
X109131100Y-66781680D03*
X109931200Y-66781680D03*
D12*
X103880920Y-66880740D03*
X103880920Y-72379840D03*
X112781080Y-66880740D03*
X112781080Y-72379840D03*
D13*
X106131360Y-69380100D03*
X110530640Y-69380100D03*
D14*
X98298000Y-51054000D03*
D15*
X98298000Y-57658000D03*
X100584000Y-57658000D03*
X96012000Y-57658000D03*
D16*
X46355000Y-66040000D03*
D17*
X46355000Y-71120000D03*
D18*
X104648000Y-54516000D03*
X104648000Y-49116000D03*
D19*
X50280000Y-73660000D03*
X48780000Y-73660000D03*
D20*
X39243000Y-28448000D03*
X29083000Y-28448000D03*
D21*
X36068000Y-34798000D03*
X34798000Y-37338000D03*
X33528000Y-34798000D03*
X32258000Y-37338000D03*
D22*
X81661000Y-54737000D03*
X81661000Y-60071000D03*
X82931000Y-54737000D03*
X84201000Y-54737000D03*
X85471000Y-54737000D03*
X82931000Y-60071000D03*
X84201000Y-60071000D03*
X85471000Y-60071000D03*
D23*
X28956000Y-72136000D03*
X28956000Y-67056000D03*
X28956000Y-56896000D03*
X28956000Y-51816000D03*
D24*
X29591000Y-42247820D03*
X28638500Y-40048180D03*
X30543500Y-40048180D03*
D14*
X37084000Y-52578000D03*
D15*
X37084000Y-59182000D03*
X39370000Y-59182000D03*
X34798000Y-59182000D03*
D20*
X53467000Y-28448000D03*
X43307000Y-28448000D03*
D21*
X50292000Y-34798000D03*
X49022000Y-37338000D03*
X47752000Y-34798000D03*
X46482000Y-37338000D03*
D20*
X67691000Y-28448000D03*
X57531000Y-28448000D03*
D21*
X64516000Y-34798000D03*
X63246000Y-37338000D03*
X61976000Y-34798000D03*
X60706000Y-37338000D03*
D20*
X81915000Y-28448000D03*
X71755000Y-28448000D03*
D21*
X78740000Y-34798000D03*
X77470000Y-37338000D03*
X76200000Y-34798000D03*
X74930000Y-37338000D03*
D20*
X96139000Y-28448000D03*
X85979000Y-28448000D03*
D21*
X92964000Y-34798000D03*
X91694000Y-37338000D03*
X90424000Y-34798000D03*
X89154000Y-37338000D03*
D20*
X110363000Y-28448000D03*
X100203000Y-28448000D03*
D21*
X107188000Y-34798000D03*
X105918000Y-37338000D03*
X104648000Y-34798000D03*
X103378000Y-37338000D03*
D25*
X39751000Y-40132000D03*
X34671000Y-40132000D03*
X53975000Y-40132000D03*
X48895000Y-40132000D03*
X68199000Y-40132000D03*
X63119000Y-40132000D03*
X82423000Y-40132000D03*
X77343000Y-40132000D03*
X96647000Y-40132000D03*
X91567000Y-40132000D03*
X110871000Y-40132000D03*
X105791000Y-40132000D03*
D26*
X78486000Y-65024000D03*
X78486000Y-66294000D03*
X78486000Y-67564000D03*
X78486000Y-68834000D03*
X78486000Y-70104000D03*
X78486000Y-71374000D03*
X78486000Y-72644000D03*
X83820000Y-72644000D03*
X83820000Y-71374000D03*
X83820000Y-70104000D03*
X83820000Y-68834000D03*
X83820000Y-67564000D03*
X83820000Y-66294000D03*
X83820000Y-65024000D03*
D22*
X55245000Y-54737000D03*
X55245000Y-60071000D03*
X56515000Y-54737000D03*
X57785000Y-54737000D03*
X59055000Y-54737000D03*
X56515000Y-60071000D03*
X57785000Y-60071000D03*
X59055000Y-60071000D03*
X61849000Y-54737000D03*
X61849000Y-60071000D03*
X63119000Y-54737000D03*
X64389000Y-54737000D03*
X65659000Y-54737000D03*
X63119000Y-60071000D03*
X64389000Y-60071000D03*
X65659000Y-60071000D03*
D24*
X43815000Y-42247820D03*
X42862500Y-40048180D03*
X44767500Y-40048180D03*
D22*
X68453000Y-54737000D03*
X68453000Y-60071000D03*
X69723000Y-54737000D03*
X70993000Y-54737000D03*
X72263000Y-54737000D03*
X69723000Y-60071000D03*
X70993000Y-60071000D03*
X72263000Y-60071000D03*
D24*
X58039000Y-42247820D03*
X57086500Y-40048180D03*
X58991500Y-40048180D03*
D22*
X75057000Y-54737000D03*
X75057000Y-60071000D03*
X76327000Y-54737000D03*
X77597000Y-54737000D03*
X78867000Y-54737000D03*
X76327000Y-60071000D03*
X77597000Y-60071000D03*
X78867000Y-60071000D03*
D24*
X72263000Y-42247820D03*
X71310500Y-40048180D03*
X73215500Y-40048180D03*
X86487000Y-42247820D03*
X85534500Y-40048180D03*
X87439500Y-40048180D03*
D22*
X88265000Y-54737000D03*
X88265000Y-60071000D03*
X89535000Y-54737000D03*
X90805000Y-54737000D03*
X92075000Y-54737000D03*
X89535000Y-60071000D03*
X90805000Y-60071000D03*
X92075000Y-60071000D03*
D24*
X100711000Y-42247820D03*
X99758500Y-40048180D03*
X101663500Y-40048180D03*
D27*
X91483000Y-72269000D03*
X91483000Y-71469000D03*
X91483000Y-70669000D03*
X91483000Y-69869000D03*
X91483000Y-69069000D03*
X91483000Y-68269000D03*
X91483000Y-67469000D03*
X91483000Y-66669000D03*
X91483000Y-66669000D03*
X91483000Y-67469000D03*
X91483000Y-68269000D03*
X91483000Y-69069000D03*
X91483000Y-69869000D03*
X91483000Y-70669000D03*
X91483000Y-71469000D03*
X91483000Y-72269000D03*
X91483000Y-72269000D03*
X91483000Y-71469000D03*
X91483000Y-70669000D03*
X91483000Y-69869000D03*
X91483000Y-69069000D03*
X91483000Y-68269000D03*
X91483000Y-67469000D03*
X91483000Y-66669000D03*
X91483000Y-66669000D03*
X91483000Y-67469000D03*
X91483000Y-68269000D03*
X91483000Y-69069000D03*
X91483000Y-69869000D03*
X91483000Y-70669000D03*
X91483000Y-71469000D03*
X91483000Y-72269000D03*
D28*
X92958000Y-73744000D03*
X93758000Y-73744000D03*
X94558000Y-73744000D03*
X95358000Y-73744000D03*
X96158000Y-73744000D03*
X96958000Y-73744000D03*
X97758000Y-73744000D03*
X98558000Y-73744000D03*
D27*
X100033000Y-72269000D03*
X100033000Y-71469000D03*
X100033000Y-70669000D03*
X100033000Y-69869000D03*
X100033000Y-69069000D03*
X100033000Y-68269000D03*
X100033000Y-67469000D03*
X100033000Y-66669000D03*
D28*
X98558000Y-65194000D03*
X97758000Y-65194000D03*
X96958000Y-65194000D03*
X96158000Y-65194000D03*
X95358000Y-65194000D03*
X94558000Y-65194000D03*
X93758000Y-65194000D03*
X92958000Y-65194000D03*
D29*
X105410000Y-61976000D03*
D25*
X107950000Y-61976000D03*
X110490000Y-61976000D03*
X113030000Y-61976000D03*
D30*
X37592000Y-64411860D03*
X37592000Y-70411340D03*
X42291000Y-67411600D03*
D31*
X41656000Y-55414000D03*
X41656000Y-54314000D03*
D32*
X103648000Y-56769000D03*
X105648000Y-56769000D03*
X103648000Y-59055000D03*
X105648000Y-59055000D03*
D31*
X85979000Y-72348000D03*
X85979000Y-73448000D03*
D33*
X89874000Y-65151000D03*
X90974000Y-65151000D03*
D31*
X53848000Y-54398000D03*
X53848000Y-53298000D03*
X60452000Y-54398000D03*
X60452000Y-53298000D03*
X67056000Y-54398000D03*
X67056000Y-53298000D03*
X73660000Y-54398000D03*
X73660000Y-53298000D03*
X80264000Y-54398000D03*
X80264000Y-53298000D03*
X86868000Y-54398000D03*
X86868000Y-53298000D03*
X41656000Y-57108000D03*
X41656000Y-58208000D03*
D33*
X101261000Y-73533000D03*
X100161000Y-73533000D03*
D34*
X101334000Y-60198000D03*
X99834000Y-60198000D03*
D35*
X112763300Y-53594000D03*
X111264700Y-53594000D03*
X112763300Y-55499000D03*
X111264700Y-55499000D03*
X37719000Y-42430700D03*
X37719000Y-43929300D03*
X32639000Y-42430700D03*
X32639000Y-43929300D03*
X51943000Y-42430700D03*
X51943000Y-43929300D03*
X46863000Y-42430700D03*
X46863000Y-43929300D03*
X66167000Y-42430700D03*
X66167000Y-43929300D03*
X61087000Y-42430700D03*
X61087000Y-43929300D03*
X80391000Y-42430700D03*
X80391000Y-43929300D03*
X75311000Y-42430700D03*
X75311000Y-43929300D03*
X94615000Y-42430700D03*
X94615000Y-43929300D03*
X89535000Y-42430700D03*
X89535000Y-43929300D03*
X108839000Y-42430700D03*
X108839000Y-43929300D03*
X103759000Y-42430700D03*
X103759000Y-43929300D03*
X112763300Y-59309000D03*
X111264700Y-59309000D03*
X112763300Y-57404000D03*
X111264700Y-57404000D03*
D36*
X41656000Y-52774000D03*
X41656000Y-51874000D03*
D19*
X101334000Y-62738000D03*
X99834000Y-62738000D03*
D37*
X108643000Y-53594000D03*
X109543000Y-53594000D03*
X108643000Y-55499000D03*
X109543000Y-55499000D03*
D36*
X40259000Y-42730000D03*
X40259000Y-43630000D03*
D38*
X55372000Y-51066000D03*
X55372000Y-52566000D03*
X57150000Y-52566000D03*
X57150000Y-51066000D03*
X58928000Y-51066000D03*
X58928000Y-52566000D03*
X35179000Y-42430000D03*
X35179000Y-43930000D03*
D36*
X54483000Y-42730000D03*
X54483000Y-43630000D03*
D38*
X61976000Y-51066000D03*
X61976000Y-52566000D03*
X63754000Y-52566000D03*
X63754000Y-51066000D03*
X65532000Y-51066000D03*
X65532000Y-52566000D03*
X49403000Y-42430000D03*
X49403000Y-43930000D03*
D36*
X68707000Y-42730000D03*
X68707000Y-43630000D03*
D38*
X68580000Y-51066000D03*
X68580000Y-52566000D03*
X70358000Y-52566000D03*
X70358000Y-51066000D03*
X72136000Y-51066000D03*
X72136000Y-52566000D03*
X63627000Y-42430000D03*
X63627000Y-43930000D03*
D36*
X82931000Y-42730000D03*
X82931000Y-43630000D03*
D38*
X75184000Y-51066000D03*
X75184000Y-52566000D03*
X76962000Y-52566000D03*
X76962000Y-51066000D03*
X78740000Y-51066000D03*
X78740000Y-52566000D03*
X77851000Y-42430000D03*
X77851000Y-43930000D03*
D36*
X97155000Y-42730000D03*
X97155000Y-43630000D03*
D38*
X81788000Y-51066000D03*
X81788000Y-52566000D03*
X83566000Y-52566000D03*
X83566000Y-51066000D03*
X85344000Y-51066000D03*
X85344000Y-52566000D03*
X92075000Y-42430000D03*
X92075000Y-43930000D03*
D36*
X111379000Y-42730000D03*
X111379000Y-43630000D03*
D38*
X88392000Y-51066000D03*
X88392000Y-52566000D03*
X90170000Y-52566000D03*
X90170000Y-51066000D03*
X91948000Y-51066000D03*
X91948000Y-52566000D03*
X106299000Y-42430000D03*
X106299000Y-43930000D03*
D36*
X41656000Y-60648000D03*
X41656000Y-59748000D03*
X53594000Y-60256000D03*
X53594000Y-61156000D03*
X60452000Y-60256000D03*
X60452000Y-61156000D03*
X67056000Y-60256000D03*
X67056000Y-61156000D03*
X73660000Y-60256000D03*
X73660000Y-61156000D03*
X80264000Y-60256000D03*
X80264000Y-61156000D03*
X86868000Y-60256000D03*
X86868000Y-61156000D03*
D37*
X108643000Y-59309000D03*
X109543000Y-59309000D03*
D19*
X108343000Y-57404000D03*
X109843000Y-57404000D03*
M02*
