G04 #@! TF.FileFunction,Legend,Top*
%FSLAX46Y46*%
G04 Gerber Fmt 4.6, Leading zero omitted, Abs format (unit mm)*
G04 Created by KiCad (PCBNEW 4.0.2+dfsg1-stable) date Sun 12 Jun 2016 04:00:05 PM EDT*
%MOMM*%
G01*
G04 APERTURE LIST*
%ADD10C,0.150000*%
%ADD11C,0.228600*%
%ADD12C,0.100000*%
%ADD13C,0.381000*%
%ADD14C,0.203200*%
%ADD15C,0.127000*%
%ADD16C,0.304800*%
%ADD17C,0.078740*%
%ADD18C,0.076200*%
G04 APERTURE END LIST*
D10*
D11*
X106711715Y-45660571D02*
X106426001Y-45660571D01*
X106283144Y-45732000D01*
X106211715Y-45803429D01*
X106068858Y-46017714D01*
X105997429Y-46303429D01*
X105997429Y-46874857D01*
X106068858Y-47017714D01*
X106140286Y-47089143D01*
X106283144Y-47160571D01*
X106568858Y-47160571D01*
X106711715Y-47089143D01*
X106783144Y-47017714D01*
X106854572Y-46874857D01*
X106854572Y-46517714D01*
X106783144Y-46374857D01*
X106711715Y-46303429D01*
X106568858Y-46232000D01*
X106283144Y-46232000D01*
X106140286Y-46303429D01*
X106068858Y-46374857D01*
X105997429Y-46517714D01*
D12*
X103132000Y-45316000D02*
X103132000Y-45782667D01*
X102965333Y-45049333D02*
X102798666Y-45549333D01*
X103232000Y-45549333D01*
X103598667Y-45382667D02*
X103532000Y-45349333D01*
X103498667Y-45316000D01*
X103465333Y-45249333D01*
X103465333Y-45216000D01*
X103498667Y-45149333D01*
X103532000Y-45116000D01*
X103598667Y-45082667D01*
X103732000Y-45082667D01*
X103798667Y-45116000D01*
X103832000Y-45149333D01*
X103865333Y-45216000D01*
X103865333Y-45249333D01*
X103832000Y-45316000D01*
X103798667Y-45349333D01*
X103732000Y-45382667D01*
X103598667Y-45382667D01*
X103532000Y-45416000D01*
X103498667Y-45449333D01*
X103465333Y-45516000D01*
X103465333Y-45649333D01*
X103498667Y-45716000D01*
X103532000Y-45749333D01*
X103598667Y-45782667D01*
X103732000Y-45782667D01*
X103798667Y-45749333D01*
X103832000Y-45716000D01*
X103865333Y-45649333D01*
X103865333Y-45516000D01*
X103832000Y-45449333D01*
X103798667Y-45416000D01*
X103732000Y-45382667D01*
X104065334Y-45082667D02*
X104298667Y-45782667D01*
X104532000Y-45082667D01*
X108449334Y-45416000D02*
X108682667Y-45416000D01*
X108782667Y-45782667D02*
X108449334Y-45782667D01*
X108449334Y-45082667D01*
X108782667Y-45082667D01*
X109082667Y-45782667D02*
X109082667Y-45082667D01*
X109482667Y-45782667D01*
X109482667Y-45082667D01*
D11*
X92559144Y-45660571D02*
X91844858Y-45660571D01*
X91773429Y-46374857D01*
X91844858Y-46303429D01*
X91987715Y-46232000D01*
X92344858Y-46232000D01*
X92487715Y-46303429D01*
X92559144Y-46374857D01*
X92630572Y-46517714D01*
X92630572Y-46874857D01*
X92559144Y-47017714D01*
X92487715Y-47089143D01*
X92344858Y-47160571D01*
X91987715Y-47160571D01*
X91844858Y-47089143D01*
X91773429Y-47017714D01*
D12*
X94225334Y-45416000D02*
X94458667Y-45416000D01*
X94558667Y-45782667D02*
X94225334Y-45782667D01*
X94225334Y-45082667D01*
X94558667Y-45082667D01*
X94858667Y-45782667D02*
X94858667Y-45082667D01*
X95258667Y-45782667D01*
X95258667Y-45082667D01*
X80001334Y-45416000D02*
X80234667Y-45416000D01*
X80334667Y-45782667D02*
X80001334Y-45782667D01*
X80001334Y-45082667D01*
X80334667Y-45082667D01*
X80634667Y-45782667D02*
X80634667Y-45082667D01*
X81034667Y-45782667D01*
X81034667Y-45082667D01*
X88908000Y-45316000D02*
X88908000Y-45782667D01*
X88741333Y-45049333D02*
X88574666Y-45549333D01*
X89008000Y-45549333D01*
X89374667Y-45382667D02*
X89308000Y-45349333D01*
X89274667Y-45316000D01*
X89241333Y-45249333D01*
X89241333Y-45216000D01*
X89274667Y-45149333D01*
X89308000Y-45116000D01*
X89374667Y-45082667D01*
X89508000Y-45082667D01*
X89574667Y-45116000D01*
X89608000Y-45149333D01*
X89641333Y-45216000D01*
X89641333Y-45249333D01*
X89608000Y-45316000D01*
X89574667Y-45349333D01*
X89508000Y-45382667D01*
X89374667Y-45382667D01*
X89308000Y-45416000D01*
X89274667Y-45449333D01*
X89241333Y-45516000D01*
X89241333Y-45649333D01*
X89274667Y-45716000D01*
X89308000Y-45749333D01*
X89374667Y-45782667D01*
X89508000Y-45782667D01*
X89574667Y-45749333D01*
X89608000Y-45716000D01*
X89641333Y-45649333D01*
X89641333Y-45516000D01*
X89608000Y-45449333D01*
X89574667Y-45416000D01*
X89508000Y-45382667D01*
X89841334Y-45082667D02*
X90074667Y-45782667D01*
X90308000Y-45082667D01*
D11*
X78517715Y-46160571D02*
X78517715Y-47160571D01*
X78160572Y-45589143D02*
X77803429Y-46660571D01*
X78732001Y-46660571D01*
X63254001Y-45660571D02*
X64182572Y-45660571D01*
X63682572Y-46232000D01*
X63896858Y-46232000D01*
X64039715Y-46303429D01*
X64111144Y-46374857D01*
X64182572Y-46517714D01*
X64182572Y-46874857D01*
X64111144Y-47017714D01*
X64039715Y-47089143D01*
X63896858Y-47160571D01*
X63468286Y-47160571D01*
X63325429Y-47089143D01*
X63254001Y-47017714D01*
D12*
X46236000Y-45316000D02*
X46236000Y-45782667D01*
X46069333Y-45049333D02*
X45902666Y-45549333D01*
X46336000Y-45549333D01*
X46702667Y-45382667D02*
X46636000Y-45349333D01*
X46602667Y-45316000D01*
X46569333Y-45249333D01*
X46569333Y-45216000D01*
X46602667Y-45149333D01*
X46636000Y-45116000D01*
X46702667Y-45082667D01*
X46836000Y-45082667D01*
X46902667Y-45116000D01*
X46936000Y-45149333D01*
X46969333Y-45216000D01*
X46969333Y-45249333D01*
X46936000Y-45316000D01*
X46902667Y-45349333D01*
X46836000Y-45382667D01*
X46702667Y-45382667D01*
X46636000Y-45416000D01*
X46602667Y-45449333D01*
X46569333Y-45516000D01*
X46569333Y-45649333D01*
X46602667Y-45716000D01*
X46636000Y-45749333D01*
X46702667Y-45782667D01*
X46836000Y-45782667D01*
X46902667Y-45749333D01*
X46936000Y-45716000D01*
X46969333Y-45649333D01*
X46969333Y-45516000D01*
X46936000Y-45449333D01*
X46902667Y-45416000D01*
X46836000Y-45382667D01*
X47169334Y-45082667D02*
X47402667Y-45782667D01*
X47636000Y-45082667D01*
X51553334Y-45416000D02*
X51786667Y-45416000D01*
X51886667Y-45782667D02*
X51553334Y-45782667D01*
X51553334Y-45082667D01*
X51886667Y-45082667D01*
X52186667Y-45782667D02*
X52186667Y-45082667D01*
X52586667Y-45782667D01*
X52586667Y-45082667D01*
D13*
X103632000Y-60706000D02*
X103632000Y-63246000D01*
D12*
X60460000Y-45316000D02*
X60460000Y-45782667D01*
X60293333Y-45049333D02*
X60126666Y-45549333D01*
X60560000Y-45549333D01*
X60926667Y-45382667D02*
X60860000Y-45349333D01*
X60826667Y-45316000D01*
X60793333Y-45249333D01*
X60793333Y-45216000D01*
X60826667Y-45149333D01*
X60860000Y-45116000D01*
X60926667Y-45082667D01*
X61060000Y-45082667D01*
X61126667Y-45116000D01*
X61160000Y-45149333D01*
X61193333Y-45216000D01*
X61193333Y-45249333D01*
X61160000Y-45316000D01*
X61126667Y-45349333D01*
X61060000Y-45382667D01*
X60926667Y-45382667D01*
X60860000Y-45416000D01*
X60826667Y-45449333D01*
X60793333Y-45516000D01*
X60793333Y-45649333D01*
X60826667Y-45716000D01*
X60860000Y-45749333D01*
X60926667Y-45782667D01*
X61060000Y-45782667D01*
X61126667Y-45749333D01*
X61160000Y-45716000D01*
X61193333Y-45649333D01*
X61193333Y-45516000D01*
X61160000Y-45449333D01*
X61126667Y-45416000D01*
X61060000Y-45382667D01*
X61393334Y-45082667D02*
X61626667Y-45782667D01*
X61860000Y-45082667D01*
X65777334Y-45416000D02*
X66010667Y-45416000D01*
X66110667Y-45782667D02*
X65777334Y-45782667D01*
X65777334Y-45082667D01*
X66110667Y-45082667D01*
X66410667Y-45782667D02*
X66410667Y-45082667D01*
X66810667Y-45782667D01*
X66810667Y-45082667D01*
X74684000Y-45316000D02*
X74684000Y-45782667D01*
X74517333Y-45049333D02*
X74350666Y-45549333D01*
X74784000Y-45549333D01*
X75150667Y-45382667D02*
X75084000Y-45349333D01*
X75050667Y-45316000D01*
X75017333Y-45249333D01*
X75017333Y-45216000D01*
X75050667Y-45149333D01*
X75084000Y-45116000D01*
X75150667Y-45082667D01*
X75284000Y-45082667D01*
X75350667Y-45116000D01*
X75384000Y-45149333D01*
X75417333Y-45216000D01*
X75417333Y-45249333D01*
X75384000Y-45316000D01*
X75350667Y-45349333D01*
X75284000Y-45382667D01*
X75150667Y-45382667D01*
X75084000Y-45416000D01*
X75050667Y-45449333D01*
X75017333Y-45516000D01*
X75017333Y-45649333D01*
X75050667Y-45716000D01*
X75084000Y-45749333D01*
X75150667Y-45782667D01*
X75284000Y-45782667D01*
X75350667Y-45749333D01*
X75384000Y-45716000D01*
X75417333Y-45649333D01*
X75417333Y-45516000D01*
X75384000Y-45449333D01*
X75350667Y-45416000D01*
X75284000Y-45382667D01*
X75617334Y-45082667D02*
X75850667Y-45782667D01*
X76084000Y-45082667D01*
X37329334Y-45416000D02*
X37562667Y-45416000D01*
X37662667Y-45782667D02*
X37329334Y-45782667D01*
X37329334Y-45082667D01*
X37662667Y-45082667D01*
X37962667Y-45782667D02*
X37962667Y-45082667D01*
X38362667Y-45782667D01*
X38362667Y-45082667D01*
X32012000Y-45316000D02*
X32012000Y-45782667D01*
X31845333Y-45049333D02*
X31678666Y-45549333D01*
X32112000Y-45549333D01*
X32478667Y-45382667D02*
X32412000Y-45349333D01*
X32378667Y-45316000D01*
X32345333Y-45249333D01*
X32345333Y-45216000D01*
X32378667Y-45149333D01*
X32412000Y-45116000D01*
X32478667Y-45082667D01*
X32612000Y-45082667D01*
X32678667Y-45116000D01*
X32712000Y-45149333D01*
X32745333Y-45216000D01*
X32745333Y-45249333D01*
X32712000Y-45316000D01*
X32678667Y-45349333D01*
X32612000Y-45382667D01*
X32478667Y-45382667D01*
X32412000Y-45416000D01*
X32378667Y-45449333D01*
X32345333Y-45516000D01*
X32345333Y-45649333D01*
X32378667Y-45716000D01*
X32412000Y-45749333D01*
X32478667Y-45782667D01*
X32612000Y-45782667D01*
X32678667Y-45749333D01*
X32712000Y-45716000D01*
X32745333Y-45649333D01*
X32745333Y-45516000D01*
X32712000Y-45449333D01*
X32678667Y-45416000D01*
X32612000Y-45382667D01*
X32945334Y-45082667D02*
X33178667Y-45782667D01*
X33412000Y-45082667D01*
D11*
X49101429Y-45803429D02*
X49172858Y-45732000D01*
X49315715Y-45660571D01*
X49672858Y-45660571D01*
X49815715Y-45732000D01*
X49887144Y-45803429D01*
X49958572Y-45946286D01*
X49958572Y-46089143D01*
X49887144Y-46303429D01*
X49030001Y-47160571D01*
X49958572Y-47160571D01*
X35734572Y-47160571D02*
X34877429Y-47160571D01*
X35306001Y-47160571D02*
X35306001Y-45660571D01*
X35163144Y-45874857D01*
X35020286Y-46017714D01*
X34877429Y-46089143D01*
D13*
X104480360Y-73830180D02*
X112181640Y-73830180D01*
X104480360Y-74830940D02*
X112181640Y-74830940D01*
X112181640Y-74830940D02*
X112181640Y-65631060D01*
X112181640Y-65631060D02*
X104480360Y-65631060D01*
X104480360Y-65631060D02*
X104480360Y-74830940D01*
D14*
X94742000Y-55880000D02*
X94742000Y-58928000D01*
X94742000Y-58928000D02*
X101854000Y-58928000D01*
X101854000Y-58928000D02*
X101854000Y-55880000D01*
X94742000Y-52832000D02*
X94742000Y-52070000D01*
X94742000Y-52070000D02*
X96266000Y-49784000D01*
X96266000Y-49784000D02*
X100330000Y-49784000D01*
X100330000Y-49784000D02*
X101854000Y-52070000D01*
X101854000Y-52070000D02*
X101854000Y-52832000D01*
D10*
X51435000Y-74930000D02*
X51435000Y-62230000D01*
X51435000Y-62230000D02*
X76835000Y-62230000D01*
X76835000Y-62230000D02*
X76835000Y-74930000D01*
X76835000Y-74930000D02*
X51435000Y-74930000D01*
X51435000Y-66040000D02*
X46355000Y-66040000D01*
X46355000Y-71120000D02*
X51435000Y-71120000D01*
X105348000Y-50416000D02*
X105348000Y-53216000D01*
X105348000Y-53216000D02*
X103948000Y-53216000D01*
X103948000Y-53216000D02*
X103948000Y-50416000D01*
X103948000Y-50416000D02*
X105348000Y-50416000D01*
X106398000Y-54816000D02*
X105748000Y-54816000D01*
X102898000Y-54816000D02*
X103548000Y-54816000D01*
X103548000Y-48816000D02*
X102898000Y-48816000D01*
X106398000Y-48816000D02*
X105748000Y-48816000D01*
X106398000Y-54816000D02*
X106398000Y-48816000D01*
X102898000Y-48816000D02*
X102898000Y-54816000D01*
X49030000Y-72985000D02*
X50030000Y-72985000D01*
X50030000Y-74335000D02*
X49030000Y-74335000D01*
X40763000Y-38608000D02*
X27563000Y-38608000D01*
X27563000Y-38608000D02*
X27563000Y-20598000D01*
X27563000Y-20598000D02*
X40763000Y-20598000D01*
X40763000Y-20598000D02*
X40763000Y-38608000D01*
D15*
X80899000Y-59182000D02*
X80899000Y-59309000D01*
X80899000Y-59309000D02*
X86233000Y-59309000D01*
X86233000Y-55499000D02*
X80899000Y-55499000D01*
X80899000Y-55499000D02*
X80899000Y-59182000D01*
X80899000Y-56896000D02*
X81407000Y-56896000D01*
X81407000Y-56896000D02*
X81407000Y-57912000D01*
X81407000Y-57912000D02*
X80899000Y-57912000D01*
X86233000Y-55499000D02*
X86233000Y-59309000D01*
D16*
X26416000Y-74676000D02*
X26416000Y-49276000D01*
X26416000Y-49276000D02*
X31496000Y-49276000D01*
X31496000Y-49276000D02*
X31496000Y-74676000D01*
X31496000Y-74676000D02*
X26416000Y-74676000D01*
X26416000Y-67056000D02*
X31496000Y-67056000D01*
X26416000Y-56896000D02*
X31496000Y-56896000D01*
D17*
X30926090Y-40797480D02*
G75*
G03X30926090Y-40797480I-159070J0D01*
G01*
X28321000Y-41656000D02*
X28321000Y-40640000D01*
X30924500Y-41656000D02*
X30924500Y-40640000D01*
X28321000Y-40640000D02*
X30924500Y-40640000D01*
X30924500Y-41656000D02*
X28321000Y-41656000D01*
D14*
X33528000Y-57404000D02*
X33528000Y-60452000D01*
X33528000Y-60452000D02*
X40640000Y-60452000D01*
X40640000Y-60452000D02*
X40640000Y-57404000D01*
X33528000Y-54356000D02*
X33528000Y-53594000D01*
X33528000Y-53594000D02*
X35052000Y-51308000D01*
X35052000Y-51308000D02*
X39116000Y-51308000D01*
X39116000Y-51308000D02*
X40640000Y-53594000D01*
X40640000Y-53594000D02*
X40640000Y-54356000D01*
D10*
X54987000Y-38608000D02*
X41787000Y-38608000D01*
X41787000Y-38608000D02*
X41787000Y-20598000D01*
X41787000Y-20598000D02*
X54987000Y-20598000D01*
X54987000Y-20598000D02*
X54987000Y-38608000D01*
X69211000Y-38608000D02*
X56011000Y-38608000D01*
X56011000Y-38608000D02*
X56011000Y-20598000D01*
X56011000Y-20598000D02*
X69211000Y-20598000D01*
X69211000Y-20598000D02*
X69211000Y-38608000D01*
X83435000Y-38608000D02*
X70235000Y-38608000D01*
X70235000Y-38608000D02*
X70235000Y-20598000D01*
X70235000Y-20598000D02*
X83435000Y-20598000D01*
X83435000Y-20598000D02*
X83435000Y-38608000D01*
X97659000Y-38608000D02*
X84459000Y-38608000D01*
X84459000Y-38608000D02*
X84459000Y-20598000D01*
X84459000Y-20598000D02*
X97659000Y-20598000D01*
X97659000Y-20598000D02*
X97659000Y-38608000D01*
X111883000Y-38608000D02*
X98683000Y-38608000D01*
X98683000Y-38608000D02*
X98683000Y-20598000D01*
X98683000Y-20598000D02*
X111883000Y-20598000D01*
X111883000Y-20598000D02*
X111883000Y-38608000D01*
D16*
X40767000Y-41148000D02*
X33655000Y-41148000D01*
X33655000Y-41148000D02*
X33655000Y-39116000D01*
X33655000Y-39116000D02*
X40767000Y-39116000D01*
X40767000Y-39116000D02*
X40767000Y-41148000D01*
X40767000Y-40640000D02*
X40259000Y-41148000D01*
X54991000Y-41148000D02*
X47879000Y-41148000D01*
X47879000Y-41148000D02*
X47879000Y-39116000D01*
X47879000Y-39116000D02*
X54991000Y-39116000D01*
X54991000Y-39116000D02*
X54991000Y-41148000D01*
X54991000Y-40640000D02*
X54483000Y-41148000D01*
X69215000Y-41148000D02*
X62103000Y-41148000D01*
X62103000Y-41148000D02*
X62103000Y-39116000D01*
X62103000Y-39116000D02*
X69215000Y-39116000D01*
X69215000Y-39116000D02*
X69215000Y-41148000D01*
X69215000Y-40640000D02*
X68707000Y-41148000D01*
X83439000Y-41148000D02*
X76327000Y-41148000D01*
X76327000Y-41148000D02*
X76327000Y-39116000D01*
X76327000Y-39116000D02*
X83439000Y-39116000D01*
X83439000Y-39116000D02*
X83439000Y-41148000D01*
X83439000Y-40640000D02*
X82931000Y-41148000D01*
X97663000Y-41148000D02*
X90551000Y-41148000D01*
X90551000Y-41148000D02*
X90551000Y-39116000D01*
X90551000Y-39116000D02*
X97663000Y-39116000D01*
X97663000Y-39116000D02*
X97663000Y-41148000D01*
X97663000Y-40640000D02*
X97155000Y-41148000D01*
X111887000Y-41148000D02*
X104775000Y-41148000D01*
X104775000Y-41148000D02*
X104775000Y-39116000D01*
X104775000Y-39116000D02*
X111887000Y-39116000D01*
X111887000Y-39116000D02*
X111887000Y-41148000D01*
X111887000Y-40640000D02*
X111379000Y-41148000D01*
D14*
X83058000Y-64008000D02*
X83058000Y-73660000D01*
X83058000Y-73660000D02*
X79248000Y-73660000D01*
X79248000Y-73660000D02*
X79248000Y-64008000D01*
X79248000Y-64008000D02*
X83058000Y-64008000D01*
X81788000Y-64008000D02*
X81788000Y-64770000D01*
X81788000Y-64770000D02*
X80772000Y-64770000D01*
X80772000Y-64770000D02*
X80772000Y-64008000D01*
D15*
X54483000Y-59182000D02*
X54483000Y-59309000D01*
X54483000Y-59309000D02*
X59817000Y-59309000D01*
X59817000Y-55499000D02*
X54483000Y-55499000D01*
X54483000Y-55499000D02*
X54483000Y-59182000D01*
X54483000Y-56896000D02*
X54991000Y-56896000D01*
X54991000Y-56896000D02*
X54991000Y-57912000D01*
X54991000Y-57912000D02*
X54483000Y-57912000D01*
X59817000Y-55499000D02*
X59817000Y-59309000D01*
X61087000Y-59182000D02*
X61087000Y-59309000D01*
X61087000Y-59309000D02*
X66421000Y-59309000D01*
X66421000Y-55499000D02*
X61087000Y-55499000D01*
X61087000Y-55499000D02*
X61087000Y-59182000D01*
X61087000Y-56896000D02*
X61595000Y-56896000D01*
X61595000Y-56896000D02*
X61595000Y-57912000D01*
X61595000Y-57912000D02*
X61087000Y-57912000D01*
X66421000Y-55499000D02*
X66421000Y-59309000D01*
D17*
X45150090Y-40797480D02*
G75*
G03X45150090Y-40797480I-159070J0D01*
G01*
X42545000Y-41656000D02*
X42545000Y-40640000D01*
X45148500Y-41656000D02*
X45148500Y-40640000D01*
X42545000Y-40640000D02*
X45148500Y-40640000D01*
X45148500Y-41656000D02*
X42545000Y-41656000D01*
D15*
X67691000Y-59182000D02*
X67691000Y-59309000D01*
X67691000Y-59309000D02*
X73025000Y-59309000D01*
X73025000Y-55499000D02*
X67691000Y-55499000D01*
X67691000Y-55499000D02*
X67691000Y-59182000D01*
X67691000Y-56896000D02*
X68199000Y-56896000D01*
X68199000Y-56896000D02*
X68199000Y-57912000D01*
X68199000Y-57912000D02*
X67691000Y-57912000D01*
X73025000Y-55499000D02*
X73025000Y-59309000D01*
D17*
X59374090Y-40797480D02*
G75*
G03X59374090Y-40797480I-159070J0D01*
G01*
X56769000Y-41656000D02*
X56769000Y-40640000D01*
X59372500Y-41656000D02*
X59372500Y-40640000D01*
X56769000Y-40640000D02*
X59372500Y-40640000D01*
X59372500Y-41656000D02*
X56769000Y-41656000D01*
D15*
X74295000Y-59182000D02*
X74295000Y-59309000D01*
X74295000Y-59309000D02*
X79629000Y-59309000D01*
X79629000Y-55499000D02*
X74295000Y-55499000D01*
X74295000Y-55499000D02*
X74295000Y-59182000D01*
X74295000Y-56896000D02*
X74803000Y-56896000D01*
X74803000Y-56896000D02*
X74803000Y-57912000D01*
X74803000Y-57912000D02*
X74295000Y-57912000D01*
X79629000Y-55499000D02*
X79629000Y-59309000D01*
D17*
X73598090Y-40797480D02*
G75*
G03X73598090Y-40797480I-159070J0D01*
G01*
X70993000Y-41656000D02*
X70993000Y-40640000D01*
X73596500Y-41656000D02*
X73596500Y-40640000D01*
X70993000Y-40640000D02*
X73596500Y-40640000D01*
X73596500Y-41656000D02*
X70993000Y-41656000D01*
X87822090Y-40797480D02*
G75*
G03X87822090Y-40797480I-159070J0D01*
G01*
X85217000Y-41656000D02*
X85217000Y-40640000D01*
X87820500Y-41656000D02*
X87820500Y-40640000D01*
X85217000Y-40640000D02*
X87820500Y-40640000D01*
X87820500Y-41656000D02*
X85217000Y-41656000D01*
D15*
X87503000Y-59182000D02*
X87503000Y-59309000D01*
X87503000Y-59309000D02*
X92837000Y-59309000D01*
X92837000Y-55499000D02*
X87503000Y-55499000D01*
X87503000Y-55499000D02*
X87503000Y-59182000D01*
X87503000Y-56896000D02*
X88011000Y-56896000D01*
X88011000Y-56896000D02*
X88011000Y-57912000D01*
X88011000Y-57912000D02*
X87503000Y-57912000D01*
X92837000Y-55499000D02*
X92837000Y-59309000D01*
D17*
X102046090Y-40797480D02*
G75*
G03X102046090Y-40797480I-159070J0D01*
G01*
X99441000Y-41656000D02*
X99441000Y-40640000D01*
X102044500Y-41656000D02*
X102044500Y-40640000D01*
X99441000Y-40640000D02*
X102044500Y-40640000D01*
X102044500Y-41656000D02*
X99441000Y-41656000D01*
D14*
X92356940Y-72969120D02*
X92257880Y-72870060D01*
X93657420Y-66969640D02*
G75*
G03X93657420Y-66969640I-398780J0D01*
G01*
X92257880Y-72870060D02*
X92257880Y-66067940D01*
X92257880Y-66067940D02*
X92356940Y-65968880D01*
X92356940Y-65968880D02*
X99159060Y-65968880D01*
X99159060Y-65968880D02*
X99258120Y-66067940D01*
X99258120Y-66067940D02*
X99258120Y-72870060D01*
X99258120Y-72870060D02*
X99159060Y-72969120D01*
X99159060Y-72969120D02*
X92356940Y-72969120D01*
D16*
X104140000Y-60706000D02*
X104140000Y-60706000D01*
X104140000Y-63246000D02*
X104140000Y-60706000D01*
X104140000Y-60706000D02*
X104140000Y-60706000D01*
X104140000Y-60706000D02*
X114300000Y-60706000D01*
X114300000Y-60706000D02*
X114300000Y-63246000D01*
X114300000Y-63246000D02*
X104140000Y-63246000D01*
X106680000Y-63246000D02*
X106680000Y-60706000D01*
D10*
X33091120Y-74612500D02*
X42092880Y-74612500D01*
X33091120Y-78112620D02*
X42092880Y-78112620D01*
X42092880Y-78112620D02*
X42092880Y-63611760D01*
X42092880Y-63611760D02*
X33091120Y-63611760D01*
X33091120Y-63611760D02*
X33091120Y-78112620D01*
X41181000Y-54614000D02*
X41181000Y-55114000D01*
X42131000Y-55114000D02*
X42131000Y-54614000D01*
X105148000Y-55919000D02*
X104148000Y-55919000D01*
X104148000Y-57619000D02*
X105148000Y-57619000D01*
X105148000Y-58205000D02*
X104148000Y-58205000D01*
X104148000Y-59905000D02*
X105148000Y-59905000D01*
X86454000Y-73148000D02*
X86454000Y-72648000D01*
X85504000Y-72648000D02*
X85504000Y-73148000D01*
X90674000Y-64676000D02*
X90174000Y-64676000D01*
X90174000Y-65626000D02*
X90674000Y-65626000D01*
X53373000Y-53598000D02*
X53373000Y-54098000D01*
X54323000Y-54098000D02*
X54323000Y-53598000D01*
X59977000Y-53598000D02*
X59977000Y-54098000D01*
X60927000Y-54098000D02*
X60927000Y-53598000D01*
X66581000Y-53598000D02*
X66581000Y-54098000D01*
X67531000Y-54098000D02*
X67531000Y-53598000D01*
X73185000Y-53598000D02*
X73185000Y-54098000D01*
X74135000Y-54098000D02*
X74135000Y-53598000D01*
X79789000Y-53598000D02*
X79789000Y-54098000D01*
X80739000Y-54098000D02*
X80739000Y-53598000D01*
X86393000Y-53598000D02*
X86393000Y-54098000D01*
X87343000Y-54098000D02*
X87343000Y-53598000D01*
X42131000Y-57908000D02*
X42131000Y-57408000D01*
X41181000Y-57408000D02*
X41181000Y-57908000D01*
X100461000Y-74008000D02*
X100961000Y-74008000D01*
X100961000Y-73058000D02*
X100461000Y-73058000D01*
X100934000Y-60798000D02*
X100234000Y-60798000D01*
X100234000Y-59598000D02*
X100934000Y-59598000D01*
X110914000Y-54144000D02*
X112814000Y-54144000D01*
X110914000Y-53044000D02*
X112814000Y-53044000D01*
X111814000Y-53594000D02*
X112264000Y-53594000D01*
X111764000Y-53344000D02*
X111764000Y-53844000D01*
X111764000Y-53594000D02*
X112014000Y-53344000D01*
X112014000Y-53344000D02*
X112014000Y-53844000D01*
X112014000Y-53844000D02*
X111764000Y-53594000D01*
X110914000Y-56049000D02*
X112814000Y-56049000D01*
X110914000Y-54949000D02*
X112814000Y-54949000D01*
X111814000Y-55499000D02*
X112264000Y-55499000D01*
X111764000Y-55249000D02*
X111764000Y-55749000D01*
X111764000Y-55499000D02*
X112014000Y-55249000D01*
X112014000Y-55249000D02*
X112014000Y-55749000D01*
X112014000Y-55749000D02*
X111764000Y-55499000D01*
X38269000Y-44280000D02*
X38269000Y-42380000D01*
X37169000Y-44280000D02*
X37169000Y-42380000D01*
X37719000Y-43380000D02*
X37719000Y-42930000D01*
X37469000Y-43430000D02*
X37969000Y-43430000D01*
X37719000Y-43430000D02*
X37469000Y-43180000D01*
X37469000Y-43180000D02*
X37969000Y-43180000D01*
X37969000Y-43180000D02*
X37719000Y-43430000D01*
X33189000Y-44280000D02*
X33189000Y-42380000D01*
X32089000Y-44280000D02*
X32089000Y-42380000D01*
X32639000Y-43380000D02*
X32639000Y-42930000D01*
X32389000Y-43430000D02*
X32889000Y-43430000D01*
X32639000Y-43430000D02*
X32389000Y-43180000D01*
X32389000Y-43180000D02*
X32889000Y-43180000D01*
X32889000Y-43180000D02*
X32639000Y-43430000D01*
X52493000Y-44280000D02*
X52493000Y-42380000D01*
X51393000Y-44280000D02*
X51393000Y-42380000D01*
X51943000Y-43380000D02*
X51943000Y-42930000D01*
X51693000Y-43430000D02*
X52193000Y-43430000D01*
X51943000Y-43430000D02*
X51693000Y-43180000D01*
X51693000Y-43180000D02*
X52193000Y-43180000D01*
X52193000Y-43180000D02*
X51943000Y-43430000D01*
X47413000Y-44280000D02*
X47413000Y-42380000D01*
X46313000Y-44280000D02*
X46313000Y-42380000D01*
X46863000Y-43380000D02*
X46863000Y-42930000D01*
X46613000Y-43430000D02*
X47113000Y-43430000D01*
X46863000Y-43430000D02*
X46613000Y-43180000D01*
X46613000Y-43180000D02*
X47113000Y-43180000D01*
X47113000Y-43180000D02*
X46863000Y-43430000D01*
X66717000Y-44280000D02*
X66717000Y-42380000D01*
X65617000Y-44280000D02*
X65617000Y-42380000D01*
X66167000Y-43380000D02*
X66167000Y-42930000D01*
X65917000Y-43430000D02*
X66417000Y-43430000D01*
X66167000Y-43430000D02*
X65917000Y-43180000D01*
X65917000Y-43180000D02*
X66417000Y-43180000D01*
X66417000Y-43180000D02*
X66167000Y-43430000D01*
X61637000Y-44280000D02*
X61637000Y-42380000D01*
X60537000Y-44280000D02*
X60537000Y-42380000D01*
X61087000Y-43380000D02*
X61087000Y-42930000D01*
X60837000Y-43430000D02*
X61337000Y-43430000D01*
X61087000Y-43430000D02*
X60837000Y-43180000D01*
X60837000Y-43180000D02*
X61337000Y-43180000D01*
X61337000Y-43180000D02*
X61087000Y-43430000D01*
X80941000Y-44280000D02*
X80941000Y-42380000D01*
X79841000Y-44280000D02*
X79841000Y-42380000D01*
X80391000Y-43380000D02*
X80391000Y-42930000D01*
X80141000Y-43430000D02*
X80641000Y-43430000D01*
X80391000Y-43430000D02*
X80141000Y-43180000D01*
X80141000Y-43180000D02*
X80641000Y-43180000D01*
X80641000Y-43180000D02*
X80391000Y-43430000D01*
X75861000Y-44280000D02*
X75861000Y-42380000D01*
X74761000Y-44280000D02*
X74761000Y-42380000D01*
X75311000Y-43380000D02*
X75311000Y-42930000D01*
X75061000Y-43430000D02*
X75561000Y-43430000D01*
X75311000Y-43430000D02*
X75061000Y-43180000D01*
X75061000Y-43180000D02*
X75561000Y-43180000D01*
X75561000Y-43180000D02*
X75311000Y-43430000D01*
X95165000Y-44280000D02*
X95165000Y-42380000D01*
X94065000Y-44280000D02*
X94065000Y-42380000D01*
X94615000Y-43380000D02*
X94615000Y-42930000D01*
X94365000Y-43430000D02*
X94865000Y-43430000D01*
X94615000Y-43430000D02*
X94365000Y-43180000D01*
X94365000Y-43180000D02*
X94865000Y-43180000D01*
X94865000Y-43180000D02*
X94615000Y-43430000D01*
X90085000Y-44280000D02*
X90085000Y-42380000D01*
X88985000Y-44280000D02*
X88985000Y-42380000D01*
X89535000Y-43380000D02*
X89535000Y-42930000D01*
X89285000Y-43430000D02*
X89785000Y-43430000D01*
X89535000Y-43430000D02*
X89285000Y-43180000D01*
X89285000Y-43180000D02*
X89785000Y-43180000D01*
X89785000Y-43180000D02*
X89535000Y-43430000D01*
X109389000Y-44280000D02*
X109389000Y-42380000D01*
X108289000Y-44280000D02*
X108289000Y-42380000D01*
X108839000Y-43380000D02*
X108839000Y-42930000D01*
X108589000Y-43430000D02*
X109089000Y-43430000D01*
X108839000Y-43430000D02*
X108589000Y-43180000D01*
X108589000Y-43180000D02*
X109089000Y-43180000D01*
X109089000Y-43180000D02*
X108839000Y-43430000D01*
X104309000Y-44280000D02*
X104309000Y-42380000D01*
X103209000Y-44280000D02*
X103209000Y-42380000D01*
X103759000Y-43380000D02*
X103759000Y-42930000D01*
X103509000Y-43430000D02*
X104009000Y-43430000D01*
X103759000Y-43430000D02*
X103509000Y-43180000D01*
X103509000Y-43180000D02*
X104009000Y-43180000D01*
X104009000Y-43180000D02*
X103759000Y-43430000D01*
X110914000Y-59859000D02*
X112814000Y-59859000D01*
X110914000Y-58759000D02*
X112814000Y-58759000D01*
X111814000Y-59309000D02*
X112264000Y-59309000D01*
X111764000Y-59059000D02*
X111764000Y-59559000D01*
X111764000Y-59309000D02*
X112014000Y-59059000D01*
X112014000Y-59059000D02*
X112014000Y-59559000D01*
X112014000Y-59559000D02*
X111764000Y-59309000D01*
X110914000Y-57954000D02*
X112814000Y-57954000D01*
X110914000Y-56854000D02*
X112814000Y-56854000D01*
X111814000Y-57404000D02*
X112264000Y-57404000D01*
X111764000Y-57154000D02*
X111764000Y-57654000D01*
X111764000Y-57404000D02*
X112014000Y-57154000D01*
X112014000Y-57154000D02*
X112014000Y-57654000D01*
X112014000Y-57654000D02*
X111764000Y-57404000D01*
X41131000Y-52074000D02*
X41131000Y-52574000D01*
X42181000Y-52574000D02*
X42181000Y-52074000D01*
X100084000Y-62063000D02*
X101084000Y-62063000D01*
X101084000Y-63413000D02*
X100084000Y-63413000D01*
X109343000Y-53069000D02*
X108843000Y-53069000D01*
X108843000Y-54119000D02*
X109343000Y-54119000D01*
X109343000Y-54974000D02*
X108843000Y-54974000D01*
X108843000Y-56024000D02*
X109343000Y-56024000D01*
X40784000Y-43430000D02*
X40784000Y-42930000D01*
X39734000Y-42930000D02*
X39734000Y-43430000D01*
X54697000Y-52316000D02*
X54697000Y-51316000D01*
X56047000Y-51316000D02*
X56047000Y-52316000D01*
X57825000Y-51316000D02*
X57825000Y-52316000D01*
X56475000Y-52316000D02*
X56475000Y-51316000D01*
X58253000Y-52316000D02*
X58253000Y-51316000D01*
X59603000Y-51316000D02*
X59603000Y-52316000D01*
X34504000Y-43680000D02*
X34504000Y-42680000D01*
X35854000Y-42680000D02*
X35854000Y-43680000D01*
X55008000Y-43430000D02*
X55008000Y-42930000D01*
X53958000Y-42930000D02*
X53958000Y-43430000D01*
X61301000Y-52316000D02*
X61301000Y-51316000D01*
X62651000Y-51316000D02*
X62651000Y-52316000D01*
X64429000Y-51316000D02*
X64429000Y-52316000D01*
X63079000Y-52316000D02*
X63079000Y-51316000D01*
X64857000Y-52316000D02*
X64857000Y-51316000D01*
X66207000Y-51316000D02*
X66207000Y-52316000D01*
X48728000Y-43680000D02*
X48728000Y-42680000D01*
X50078000Y-42680000D02*
X50078000Y-43680000D01*
X69232000Y-43430000D02*
X69232000Y-42930000D01*
X68182000Y-42930000D02*
X68182000Y-43430000D01*
X67905000Y-52316000D02*
X67905000Y-51316000D01*
X69255000Y-51316000D02*
X69255000Y-52316000D01*
X71033000Y-51316000D02*
X71033000Y-52316000D01*
X69683000Y-52316000D02*
X69683000Y-51316000D01*
X71461000Y-52316000D02*
X71461000Y-51316000D01*
X72811000Y-51316000D02*
X72811000Y-52316000D01*
X62952000Y-43680000D02*
X62952000Y-42680000D01*
X64302000Y-42680000D02*
X64302000Y-43680000D01*
X83456000Y-43430000D02*
X83456000Y-42930000D01*
X82406000Y-42930000D02*
X82406000Y-43430000D01*
X74509000Y-52316000D02*
X74509000Y-51316000D01*
X75859000Y-51316000D02*
X75859000Y-52316000D01*
X77637000Y-51316000D02*
X77637000Y-52316000D01*
X76287000Y-52316000D02*
X76287000Y-51316000D01*
X78065000Y-52316000D02*
X78065000Y-51316000D01*
X79415000Y-51316000D02*
X79415000Y-52316000D01*
X77176000Y-43680000D02*
X77176000Y-42680000D01*
X78526000Y-42680000D02*
X78526000Y-43680000D01*
X97680000Y-43430000D02*
X97680000Y-42930000D01*
X96630000Y-42930000D02*
X96630000Y-43430000D01*
X81113000Y-52316000D02*
X81113000Y-51316000D01*
X82463000Y-51316000D02*
X82463000Y-52316000D01*
X84241000Y-51316000D02*
X84241000Y-52316000D01*
X82891000Y-52316000D02*
X82891000Y-51316000D01*
X84669000Y-52316000D02*
X84669000Y-51316000D01*
X86019000Y-51316000D02*
X86019000Y-52316000D01*
X91400000Y-43680000D02*
X91400000Y-42680000D01*
X92750000Y-42680000D02*
X92750000Y-43680000D01*
X111904000Y-43430000D02*
X111904000Y-42930000D01*
X110854000Y-42930000D02*
X110854000Y-43430000D01*
X87717000Y-52316000D02*
X87717000Y-51316000D01*
X89067000Y-51316000D02*
X89067000Y-52316000D01*
X90845000Y-51316000D02*
X90845000Y-52316000D01*
X89495000Y-52316000D02*
X89495000Y-51316000D01*
X91273000Y-52316000D02*
X91273000Y-51316000D01*
X92623000Y-51316000D02*
X92623000Y-52316000D01*
X105624000Y-43680000D02*
X105624000Y-42680000D01*
X106974000Y-42680000D02*
X106974000Y-43680000D01*
X41131000Y-59948000D02*
X41131000Y-60448000D01*
X42181000Y-60448000D02*
X42181000Y-59948000D01*
X54119000Y-60956000D02*
X54119000Y-60456000D01*
X53069000Y-60456000D02*
X53069000Y-60956000D01*
X60977000Y-60956000D02*
X60977000Y-60456000D01*
X59927000Y-60456000D02*
X59927000Y-60956000D01*
X67581000Y-60956000D02*
X67581000Y-60456000D01*
X66531000Y-60456000D02*
X66531000Y-60956000D01*
X74185000Y-60956000D02*
X74185000Y-60456000D01*
X73135000Y-60456000D02*
X73135000Y-60956000D01*
X80789000Y-60956000D02*
X80789000Y-60456000D01*
X79739000Y-60456000D02*
X79739000Y-60956000D01*
X87393000Y-60956000D02*
X87393000Y-60456000D01*
X86343000Y-60456000D02*
X86343000Y-60956000D01*
X109343000Y-58784000D02*
X108843000Y-58784000D01*
X108843000Y-59834000D02*
X109343000Y-59834000D01*
X109593000Y-58079000D02*
X108593000Y-58079000D01*
X108593000Y-56729000D02*
X109593000Y-56729000D01*
D18*
X111531400Y-65024000D02*
X111497534Y-65057867D01*
X111395934Y-65091733D01*
X111328200Y-65091733D01*
X111226600Y-65057867D01*
X111158867Y-64990133D01*
X111125000Y-64922400D01*
X111091134Y-64786933D01*
X111091134Y-64685333D01*
X111125000Y-64549867D01*
X111158867Y-64482133D01*
X111226600Y-64414400D01*
X111328200Y-64380533D01*
X111395934Y-64380533D01*
X111497534Y-64414400D01*
X111531400Y-64448267D01*
X111971667Y-64380533D02*
X112107134Y-64380533D01*
X112174867Y-64414400D01*
X112242600Y-64482133D01*
X112276467Y-64617600D01*
X112276467Y-64854667D01*
X112242600Y-64990133D01*
X112174867Y-65057867D01*
X112107134Y-65091733D01*
X111971667Y-65091733D01*
X111903934Y-65057867D01*
X111836200Y-64990133D01*
X111802334Y-64854667D01*
X111802334Y-64617600D01*
X111836200Y-64482133D01*
X111903934Y-64414400D01*
X111971667Y-64380533D01*
X112581267Y-65091733D02*
X112581267Y-64380533D01*
X112987667Y-65091733D01*
X112987667Y-64380533D01*
X113292468Y-64448267D02*
X113326334Y-64414400D01*
X113394068Y-64380533D01*
X113563401Y-64380533D01*
X113631134Y-64414400D01*
X113665001Y-64448267D01*
X113698868Y-64516000D01*
X113698868Y-64583733D01*
X113665001Y-64685333D01*
X113258601Y-65091733D01*
X113698868Y-65091733D01*
X97756133Y-48378533D02*
X97756133Y-48954267D01*
X97790000Y-49022000D01*
X97823867Y-49055867D01*
X97891600Y-49089733D01*
X98027067Y-49089733D01*
X98094800Y-49055867D01*
X98128667Y-49022000D01*
X98162533Y-48954267D01*
X98162533Y-48378533D01*
X98873734Y-49089733D02*
X98467334Y-49089733D01*
X98670534Y-49089733D02*
X98670534Y-48378533D01*
X98602800Y-48480133D01*
X98535067Y-48547867D01*
X98467334Y-48581733D01*
X46736000Y-68698533D02*
X46769867Y-68732399D01*
X46803733Y-68833999D01*
X46803733Y-68901733D01*
X46769867Y-69003333D01*
X46702133Y-69071066D01*
X46634400Y-69104933D01*
X46498933Y-69138799D01*
X46397333Y-69138799D01*
X46261867Y-69104933D01*
X46194133Y-69071066D01*
X46126400Y-69003333D01*
X46092533Y-68901733D01*
X46092533Y-68833999D01*
X46126400Y-68732399D01*
X46160267Y-68698533D01*
X46092533Y-68461466D02*
X46092533Y-68021199D01*
X46363467Y-68258266D01*
X46363467Y-68156666D01*
X46397333Y-68088933D01*
X46431200Y-68055066D01*
X46498933Y-68021199D01*
X46668267Y-68021199D01*
X46736000Y-68055066D01*
X46769867Y-68088933D01*
X46803733Y-68156666D01*
X46803733Y-68359866D01*
X46769867Y-68427599D01*
X46736000Y-68461466D01*
X102395867Y-50732266D02*
X102429733Y-50630666D01*
X102429733Y-50461333D01*
X102395867Y-50393600D01*
X102362000Y-50359733D01*
X102294267Y-50325866D01*
X102226533Y-50325866D01*
X102158800Y-50359733D01*
X102124933Y-50393600D01*
X102091067Y-50461333D01*
X102057200Y-50596800D01*
X102023333Y-50664533D01*
X101989467Y-50698400D01*
X101921733Y-50732266D01*
X101854000Y-50732266D01*
X101786267Y-50698400D01*
X101752400Y-50664533D01*
X101718533Y-50596800D01*
X101718533Y-50427466D01*
X101752400Y-50325866D01*
X101718533Y-50088800D02*
X102429733Y-49919467D01*
X101921733Y-49784000D01*
X102429733Y-49648533D01*
X101718533Y-49479200D01*
X102429733Y-48835733D02*
X102429733Y-49242133D01*
X102429733Y-49038933D02*
X101718533Y-49038933D01*
X101820133Y-49106667D01*
X101887867Y-49174400D01*
X101921733Y-49242133D01*
X47125467Y-73981733D02*
X46888401Y-73643067D01*
X46719067Y-73981733D02*
X46719067Y-73270533D01*
X46990001Y-73270533D01*
X47057734Y-73304400D01*
X47091601Y-73338267D01*
X47125467Y-73406000D01*
X47125467Y-73507600D01*
X47091601Y-73575333D01*
X47057734Y-73609200D01*
X46990001Y-73643067D01*
X46719067Y-73643067D01*
X47396401Y-73338267D02*
X47430267Y-73304400D01*
X47498001Y-73270533D01*
X47667334Y-73270533D01*
X47735067Y-73304400D01*
X47768934Y-73338267D01*
X47802801Y-73406000D01*
X47802801Y-73473733D01*
X47768934Y-73575333D01*
X47362534Y-73981733D01*
X47802801Y-73981733D01*
X79874533Y-58284533D02*
X80450267Y-58284533D01*
X80518000Y-58250666D01*
X80551867Y-58216799D01*
X80585733Y-58149066D01*
X80585733Y-58013599D01*
X80551867Y-57945866D01*
X80518000Y-57911999D01*
X80450267Y-57878133D01*
X79874533Y-57878133D01*
X80585733Y-57166932D02*
X80585733Y-57573332D01*
X80585733Y-57370132D02*
X79874533Y-57370132D01*
X79976133Y-57437866D01*
X80043867Y-57505599D01*
X80077733Y-57573332D01*
X79942267Y-56895999D02*
X79908400Y-56862133D01*
X79874533Y-56794399D01*
X79874533Y-56625066D01*
X79908400Y-56557333D01*
X79942267Y-56523466D01*
X80010000Y-56489599D01*
X80077733Y-56489599D01*
X80179333Y-56523466D01*
X80585733Y-56929866D01*
X80585733Y-56489599D01*
X28820533Y-47125466D02*
X28820533Y-47464133D01*
X29159200Y-47497999D01*
X29125333Y-47464133D01*
X29091467Y-47396399D01*
X29091467Y-47227066D01*
X29125333Y-47159333D01*
X29159200Y-47125466D01*
X29226933Y-47091599D01*
X29396267Y-47091599D01*
X29464000Y-47125466D01*
X29497867Y-47159333D01*
X29531733Y-47227066D01*
X29531733Y-47396399D01*
X29497867Y-47464133D01*
X29464000Y-47497999D01*
X29328533Y-46820666D02*
X29328533Y-46482000D01*
X29531733Y-46888400D02*
X28820533Y-46651333D01*
X29531733Y-46414266D01*
X30725533Y-43213867D02*
X31301267Y-43213867D01*
X31369000Y-43180000D01*
X31402867Y-43146133D01*
X31436733Y-43078400D01*
X31436733Y-42942933D01*
X31402867Y-42875200D01*
X31369000Y-42841333D01*
X31301267Y-42807467D01*
X30725533Y-42807467D01*
X30725533Y-42130133D02*
X30725533Y-42468800D01*
X31064200Y-42502666D01*
X31030333Y-42468800D01*
X30996467Y-42401066D01*
X30996467Y-42231733D01*
X31030333Y-42164000D01*
X31064200Y-42130133D01*
X31131933Y-42096266D01*
X31301267Y-42096266D01*
X31369000Y-42130133D01*
X31402867Y-42164000D01*
X31436733Y-42231733D01*
X31436733Y-42401066D01*
X31402867Y-42468800D01*
X31369000Y-42502666D01*
X37016267Y-50935467D02*
X36948533Y-50901600D01*
X36880800Y-50833867D01*
X36779200Y-50732267D01*
X36711467Y-50698400D01*
X36643733Y-50698400D01*
X36677600Y-50867733D02*
X36609867Y-50833867D01*
X36542133Y-50766133D01*
X36508267Y-50630667D01*
X36508267Y-50393600D01*
X36542133Y-50258133D01*
X36609867Y-50190400D01*
X36677600Y-50156533D01*
X36813067Y-50156533D01*
X36880800Y-50190400D01*
X36948533Y-50258133D01*
X36982400Y-50393600D01*
X36982400Y-50630667D01*
X36948533Y-50766133D01*
X36880800Y-50833867D01*
X36813067Y-50867733D01*
X36677600Y-50867733D01*
X37659734Y-50867733D02*
X37253334Y-50867733D01*
X37456534Y-50867733D02*
X37456534Y-50156533D01*
X37388800Y-50258133D01*
X37321067Y-50325867D01*
X37253334Y-50359733D01*
X36753800Y-40453733D02*
X36516734Y-40115067D01*
X36347400Y-40453733D02*
X36347400Y-39742533D01*
X36618334Y-39742533D01*
X36686067Y-39776400D01*
X36719934Y-39810267D01*
X36753800Y-39878000D01*
X36753800Y-39979600D01*
X36719934Y-40047333D01*
X36686067Y-40081200D01*
X36618334Y-40115067D01*
X36347400Y-40115067D01*
X37431134Y-40453733D02*
X37024734Y-40453733D01*
X37227934Y-40453733D02*
X37227934Y-39742533D01*
X37160200Y-39844133D01*
X37092467Y-39911867D01*
X37024734Y-39945733D01*
X37871400Y-39742533D02*
X37939133Y-39742533D01*
X38006867Y-39776400D01*
X38040733Y-39810267D01*
X38074600Y-39878000D01*
X38108467Y-40013467D01*
X38108467Y-40182800D01*
X38074600Y-40318267D01*
X38040733Y-40386000D01*
X38006867Y-40419867D01*
X37939133Y-40453733D01*
X37871400Y-40453733D01*
X37803667Y-40419867D01*
X37769800Y-40386000D01*
X37735933Y-40318267D01*
X37702067Y-40182800D01*
X37702067Y-40013467D01*
X37735933Y-39878000D01*
X37769800Y-39810267D01*
X37803667Y-39776400D01*
X37871400Y-39742533D01*
X50977800Y-40453733D02*
X50740734Y-40115067D01*
X50571400Y-40453733D02*
X50571400Y-39742533D01*
X50842334Y-39742533D01*
X50910067Y-39776400D01*
X50943934Y-39810267D01*
X50977800Y-39878000D01*
X50977800Y-39979600D01*
X50943934Y-40047333D01*
X50910067Y-40081200D01*
X50842334Y-40115067D01*
X50571400Y-40115067D01*
X51655134Y-40453733D02*
X51248734Y-40453733D01*
X51451934Y-40453733D02*
X51451934Y-39742533D01*
X51384200Y-39844133D01*
X51316467Y-39911867D01*
X51248734Y-39945733D01*
X52264733Y-39742533D02*
X52129267Y-39742533D01*
X52061533Y-39776400D01*
X52027667Y-39810267D01*
X51959933Y-39911867D01*
X51926067Y-40047333D01*
X51926067Y-40318267D01*
X51959933Y-40386000D01*
X51993800Y-40419867D01*
X52061533Y-40453733D01*
X52197000Y-40453733D01*
X52264733Y-40419867D01*
X52298600Y-40386000D01*
X52332467Y-40318267D01*
X52332467Y-40148933D01*
X52298600Y-40081200D01*
X52264733Y-40047333D01*
X52197000Y-40013467D01*
X52061533Y-40013467D01*
X51993800Y-40047333D01*
X51959933Y-40081200D01*
X51926067Y-40148933D01*
X65201800Y-40453733D02*
X64964734Y-40115067D01*
X64795400Y-40453733D02*
X64795400Y-39742533D01*
X65066334Y-39742533D01*
X65134067Y-39776400D01*
X65167934Y-39810267D01*
X65201800Y-39878000D01*
X65201800Y-39979600D01*
X65167934Y-40047333D01*
X65134067Y-40081200D01*
X65066334Y-40115067D01*
X64795400Y-40115067D01*
X65472734Y-39810267D02*
X65506600Y-39776400D01*
X65574334Y-39742533D01*
X65743667Y-39742533D01*
X65811400Y-39776400D01*
X65845267Y-39810267D01*
X65879134Y-39878000D01*
X65879134Y-39945733D01*
X65845267Y-40047333D01*
X65438867Y-40453733D01*
X65879134Y-40453733D01*
X66150067Y-39810267D02*
X66183933Y-39776400D01*
X66251667Y-39742533D01*
X66421000Y-39742533D01*
X66488733Y-39776400D01*
X66522600Y-39810267D01*
X66556467Y-39878000D01*
X66556467Y-39945733D01*
X66522600Y-40047333D01*
X66116200Y-40453733D01*
X66556467Y-40453733D01*
X79425800Y-40453733D02*
X79188734Y-40115067D01*
X79019400Y-40453733D02*
X79019400Y-39742533D01*
X79290334Y-39742533D01*
X79358067Y-39776400D01*
X79391934Y-39810267D01*
X79425800Y-39878000D01*
X79425800Y-39979600D01*
X79391934Y-40047333D01*
X79358067Y-40081200D01*
X79290334Y-40115067D01*
X79019400Y-40115067D01*
X79696734Y-39810267D02*
X79730600Y-39776400D01*
X79798334Y-39742533D01*
X79967667Y-39742533D01*
X80035400Y-39776400D01*
X80069267Y-39810267D01*
X80103134Y-39878000D01*
X80103134Y-39945733D01*
X80069267Y-40047333D01*
X79662867Y-40453733D01*
X80103134Y-40453733D01*
X80509533Y-40047333D02*
X80441800Y-40013467D01*
X80407933Y-39979600D01*
X80374067Y-39911867D01*
X80374067Y-39878000D01*
X80407933Y-39810267D01*
X80441800Y-39776400D01*
X80509533Y-39742533D01*
X80645000Y-39742533D01*
X80712733Y-39776400D01*
X80746600Y-39810267D01*
X80780467Y-39878000D01*
X80780467Y-39911867D01*
X80746600Y-39979600D01*
X80712733Y-40013467D01*
X80645000Y-40047333D01*
X80509533Y-40047333D01*
X80441800Y-40081200D01*
X80407933Y-40115067D01*
X80374067Y-40182800D01*
X80374067Y-40318267D01*
X80407933Y-40386000D01*
X80441800Y-40419867D01*
X80509533Y-40453733D01*
X80645000Y-40453733D01*
X80712733Y-40419867D01*
X80746600Y-40386000D01*
X80780467Y-40318267D01*
X80780467Y-40182800D01*
X80746600Y-40115067D01*
X80712733Y-40081200D01*
X80645000Y-40047333D01*
X93649800Y-40453733D02*
X93412734Y-40115067D01*
X93243400Y-40453733D02*
X93243400Y-39742533D01*
X93514334Y-39742533D01*
X93582067Y-39776400D01*
X93615934Y-39810267D01*
X93649800Y-39878000D01*
X93649800Y-39979600D01*
X93615934Y-40047333D01*
X93582067Y-40081200D01*
X93514334Y-40115067D01*
X93243400Y-40115067D01*
X93886867Y-39742533D02*
X94327134Y-39742533D01*
X94090067Y-40013467D01*
X94191667Y-40013467D01*
X94259400Y-40047333D01*
X94293267Y-40081200D01*
X94327134Y-40148933D01*
X94327134Y-40318267D01*
X94293267Y-40386000D01*
X94259400Y-40419867D01*
X94191667Y-40453733D01*
X93988467Y-40453733D01*
X93920734Y-40419867D01*
X93886867Y-40386000D01*
X94936733Y-39979600D02*
X94936733Y-40453733D01*
X94767400Y-39708667D02*
X94598067Y-40216667D01*
X95038333Y-40216667D01*
X107873800Y-40453733D02*
X107636734Y-40115067D01*
X107467400Y-40453733D02*
X107467400Y-39742533D01*
X107738334Y-39742533D01*
X107806067Y-39776400D01*
X107839934Y-39810267D01*
X107873800Y-39878000D01*
X107873800Y-39979600D01*
X107839934Y-40047333D01*
X107806067Y-40081200D01*
X107738334Y-40115067D01*
X107467400Y-40115067D01*
X108483400Y-39979600D02*
X108483400Y-40453733D01*
X108314067Y-39708667D02*
X108144734Y-40216667D01*
X108585000Y-40216667D01*
X108991400Y-39742533D02*
X109059133Y-39742533D01*
X109126867Y-39776400D01*
X109160733Y-39810267D01*
X109194600Y-39878000D01*
X109228467Y-40013467D01*
X109228467Y-40182800D01*
X109194600Y-40318267D01*
X109160733Y-40386000D01*
X109126867Y-40419867D01*
X109059133Y-40453733D01*
X108991400Y-40453733D01*
X108923667Y-40419867D01*
X108889800Y-40386000D01*
X108855933Y-40318267D01*
X108822067Y-40182800D01*
X108822067Y-40013467D01*
X108855933Y-39878000D01*
X108889800Y-39810267D01*
X108923667Y-39776400D01*
X108991400Y-39742533D01*
X83405133Y-63364533D02*
X83405133Y-63940267D01*
X83439000Y-64008000D01*
X83472867Y-64041867D01*
X83540600Y-64075733D01*
X83676067Y-64075733D01*
X83743800Y-64041867D01*
X83777667Y-64008000D01*
X83811533Y-63940267D01*
X83811533Y-63364533D01*
X84082467Y-63364533D02*
X84522734Y-63364533D01*
X84285667Y-63635467D01*
X84387267Y-63635467D01*
X84455000Y-63669333D01*
X84488867Y-63703200D01*
X84522734Y-63770933D01*
X84522734Y-63940267D01*
X84488867Y-64008000D01*
X84455000Y-64041867D01*
X84387267Y-64075733D01*
X84184067Y-64075733D01*
X84116334Y-64041867D01*
X84082467Y-64008000D01*
X53458533Y-57945867D02*
X54034267Y-57945867D01*
X54102000Y-57912000D01*
X54135867Y-57878133D01*
X54169733Y-57810400D01*
X54169733Y-57674933D01*
X54135867Y-57607200D01*
X54102000Y-57573333D01*
X54034267Y-57539467D01*
X53458533Y-57539467D01*
X53695600Y-56896000D02*
X54169733Y-56896000D01*
X53424667Y-57065333D02*
X53932667Y-57234666D01*
X53932667Y-56794400D01*
X60062533Y-57945867D02*
X60638267Y-57945867D01*
X60706000Y-57912000D01*
X60739867Y-57878133D01*
X60773733Y-57810400D01*
X60773733Y-57674933D01*
X60739867Y-57607200D01*
X60706000Y-57573333D01*
X60638267Y-57539467D01*
X60062533Y-57539467D01*
X60062533Y-56896000D02*
X60062533Y-57031466D01*
X60096400Y-57099200D01*
X60130267Y-57133066D01*
X60231867Y-57200800D01*
X60367333Y-57234666D01*
X60638267Y-57234666D01*
X60706000Y-57200800D01*
X60739867Y-57166933D01*
X60773733Y-57099200D01*
X60773733Y-56963733D01*
X60739867Y-56896000D01*
X60706000Y-56862133D01*
X60638267Y-56828266D01*
X60468933Y-56828266D01*
X60401200Y-56862133D01*
X60367333Y-56896000D01*
X60333467Y-56963733D01*
X60333467Y-57099200D01*
X60367333Y-57166933D01*
X60401200Y-57200800D01*
X60468933Y-57234666D01*
X44695533Y-43467867D02*
X45271267Y-43467867D01*
X45339000Y-43434000D01*
X45372867Y-43400133D01*
X45406733Y-43332400D01*
X45406733Y-43196933D01*
X45372867Y-43129200D01*
X45339000Y-43095333D01*
X45271267Y-43061467D01*
X44695533Y-43061467D01*
X44695533Y-42790533D02*
X44695533Y-42316400D01*
X45406733Y-42621200D01*
X66666533Y-57945867D02*
X67242267Y-57945867D01*
X67310000Y-57912000D01*
X67343867Y-57878133D01*
X67377733Y-57810400D01*
X67377733Y-57674933D01*
X67343867Y-57607200D01*
X67310000Y-57573333D01*
X67242267Y-57539467D01*
X66666533Y-57539467D01*
X66971333Y-57099200D02*
X66937467Y-57166933D01*
X66903600Y-57200800D01*
X66835867Y-57234666D01*
X66802000Y-57234666D01*
X66734267Y-57200800D01*
X66700400Y-57166933D01*
X66666533Y-57099200D01*
X66666533Y-56963733D01*
X66700400Y-56896000D01*
X66734267Y-56862133D01*
X66802000Y-56828266D01*
X66835867Y-56828266D01*
X66903600Y-56862133D01*
X66937467Y-56896000D01*
X66971333Y-56963733D01*
X66971333Y-57099200D01*
X67005200Y-57166933D01*
X67039067Y-57200800D01*
X67106800Y-57234666D01*
X67242267Y-57234666D01*
X67310000Y-57200800D01*
X67343867Y-57166933D01*
X67377733Y-57099200D01*
X67377733Y-56963733D01*
X67343867Y-56896000D01*
X67310000Y-56862133D01*
X67242267Y-56828266D01*
X67106800Y-56828266D01*
X67039067Y-56862133D01*
X67005200Y-56896000D01*
X66971333Y-56963733D01*
X58919533Y-43467867D02*
X59495267Y-43467867D01*
X59563000Y-43434000D01*
X59596867Y-43400133D01*
X59630733Y-43332400D01*
X59630733Y-43196933D01*
X59596867Y-43129200D01*
X59563000Y-43095333D01*
X59495267Y-43061467D01*
X58919533Y-43061467D01*
X59630733Y-42688933D02*
X59630733Y-42553466D01*
X59596867Y-42485733D01*
X59563000Y-42451866D01*
X59461400Y-42384133D01*
X59325933Y-42350266D01*
X59055000Y-42350266D01*
X58987267Y-42384133D01*
X58953400Y-42418000D01*
X58919533Y-42485733D01*
X58919533Y-42621200D01*
X58953400Y-42688933D01*
X58987267Y-42722800D01*
X59055000Y-42756666D01*
X59224333Y-42756666D01*
X59292067Y-42722800D01*
X59325933Y-42688933D01*
X59359800Y-42621200D01*
X59359800Y-42485733D01*
X59325933Y-42418000D01*
X59292067Y-42384133D01*
X59224333Y-42350266D01*
X73270533Y-58284533D02*
X73846267Y-58284533D01*
X73914000Y-58250666D01*
X73947867Y-58216799D01*
X73981733Y-58149066D01*
X73981733Y-58013599D01*
X73947867Y-57945866D01*
X73914000Y-57911999D01*
X73846267Y-57878133D01*
X73270533Y-57878133D01*
X73981733Y-57166932D02*
X73981733Y-57573332D01*
X73981733Y-57370132D02*
X73270533Y-57370132D01*
X73372133Y-57437866D01*
X73439867Y-57505599D01*
X73473733Y-57573332D01*
X73270533Y-56726666D02*
X73270533Y-56658933D01*
X73304400Y-56591199D01*
X73338267Y-56557333D01*
X73406000Y-56523466D01*
X73541467Y-56489599D01*
X73710800Y-56489599D01*
X73846267Y-56523466D01*
X73914000Y-56557333D01*
X73947867Y-56591199D01*
X73981733Y-56658933D01*
X73981733Y-56726666D01*
X73947867Y-56794399D01*
X73914000Y-56828266D01*
X73846267Y-56862133D01*
X73710800Y-56895999D01*
X73541467Y-56895999D01*
X73406000Y-56862133D01*
X73338267Y-56828266D01*
X73304400Y-56794399D01*
X73270533Y-56726666D01*
X73143533Y-43806533D02*
X73719267Y-43806533D01*
X73787000Y-43772666D01*
X73820867Y-43738799D01*
X73854733Y-43671066D01*
X73854733Y-43535599D01*
X73820867Y-43467866D01*
X73787000Y-43433999D01*
X73719267Y-43400133D01*
X73143533Y-43400133D01*
X73854733Y-42688932D02*
X73854733Y-43095332D01*
X73854733Y-42892132D02*
X73143533Y-42892132D01*
X73245133Y-42959866D01*
X73312867Y-43027599D01*
X73346733Y-43095332D01*
X73854733Y-42011599D02*
X73854733Y-42417999D01*
X73854733Y-42214799D02*
X73143533Y-42214799D01*
X73245133Y-42282533D01*
X73312867Y-42350266D01*
X73346733Y-42417999D01*
X87367533Y-44060533D02*
X87943267Y-44060533D01*
X88011000Y-44026666D01*
X88044867Y-43992799D01*
X88078733Y-43925066D01*
X88078733Y-43789599D01*
X88044867Y-43721866D01*
X88011000Y-43687999D01*
X87943267Y-43654133D01*
X87367533Y-43654133D01*
X88078733Y-42942932D02*
X88078733Y-43349332D01*
X88078733Y-43146132D02*
X87367533Y-43146132D01*
X87469133Y-43213866D01*
X87536867Y-43281599D01*
X87570733Y-43349332D01*
X87367533Y-42705866D02*
X87367533Y-42265599D01*
X87638467Y-42502666D01*
X87638467Y-42401066D01*
X87672333Y-42333333D01*
X87706200Y-42299466D01*
X87773933Y-42265599D01*
X87943267Y-42265599D01*
X88011000Y-42299466D01*
X88044867Y-42333333D01*
X88078733Y-42401066D01*
X88078733Y-42604266D01*
X88044867Y-42671999D01*
X88011000Y-42705866D01*
X86478533Y-58284533D02*
X87054267Y-58284533D01*
X87122000Y-58250666D01*
X87155867Y-58216799D01*
X87189733Y-58149066D01*
X87189733Y-58013599D01*
X87155867Y-57945866D01*
X87122000Y-57911999D01*
X87054267Y-57878133D01*
X86478533Y-57878133D01*
X87189733Y-57166932D02*
X87189733Y-57573332D01*
X87189733Y-57370132D02*
X86478533Y-57370132D01*
X86580133Y-57437866D01*
X86647867Y-57505599D01*
X86681733Y-57573332D01*
X86715600Y-56557333D02*
X87189733Y-56557333D01*
X86444667Y-56726666D02*
X86952667Y-56895999D01*
X86952667Y-56455733D01*
X101591533Y-44060533D02*
X102167267Y-44060533D01*
X102235000Y-44026666D01*
X102268867Y-43992799D01*
X102302733Y-43925066D01*
X102302733Y-43789599D01*
X102268867Y-43721866D01*
X102235000Y-43687999D01*
X102167267Y-43654133D01*
X101591533Y-43654133D01*
X102302733Y-42942932D02*
X102302733Y-43349332D01*
X102302733Y-43146132D02*
X101591533Y-43146132D01*
X101693133Y-43213866D01*
X101760867Y-43281599D01*
X101794733Y-43349332D01*
X101591533Y-42299466D02*
X101591533Y-42638133D01*
X101930200Y-42671999D01*
X101896333Y-42638133D01*
X101862467Y-42570399D01*
X101862467Y-42401066D01*
X101896333Y-42333333D01*
X101930200Y-42299466D01*
X101997933Y-42265599D01*
X102167267Y-42265599D01*
X102235000Y-42299466D01*
X102268867Y-42333333D01*
X102302733Y-42401066D01*
X102302733Y-42570399D01*
X102268867Y-42638133D01*
X102235000Y-42671999D01*
X90644133Y-73270533D02*
X90644133Y-73846267D01*
X90678000Y-73914000D01*
X90711867Y-73947867D01*
X90779600Y-73981733D01*
X90915067Y-73981733D01*
X90982800Y-73947867D01*
X91016667Y-73914000D01*
X91050533Y-73846267D01*
X91050533Y-73270533D01*
X91355334Y-73338267D02*
X91389200Y-73304400D01*
X91456934Y-73270533D01*
X91626267Y-73270533D01*
X91694000Y-73304400D01*
X91727867Y-73338267D01*
X91761734Y-73406000D01*
X91761734Y-73473733D01*
X91727867Y-73575333D01*
X91321467Y-73981733D01*
X91761734Y-73981733D01*
X40284400Y-63246000D02*
X40250534Y-63279867D01*
X40148934Y-63313733D01*
X40081200Y-63313733D01*
X39979600Y-63279867D01*
X39911867Y-63212133D01*
X39878000Y-63144400D01*
X39844134Y-63008933D01*
X39844134Y-62907333D01*
X39878000Y-62771867D01*
X39911867Y-62704133D01*
X39979600Y-62636400D01*
X40081200Y-62602533D01*
X40148934Y-62602533D01*
X40250534Y-62636400D01*
X40284400Y-62670267D01*
X40724667Y-62602533D02*
X40860134Y-62602533D01*
X40927867Y-62636400D01*
X40995600Y-62704133D01*
X41029467Y-62839600D01*
X41029467Y-63076667D01*
X40995600Y-63212133D01*
X40927867Y-63279867D01*
X40860134Y-63313733D01*
X40724667Y-63313733D01*
X40656934Y-63279867D01*
X40589200Y-63212133D01*
X40555334Y-63076667D01*
X40555334Y-62839600D01*
X40589200Y-62704133D01*
X40656934Y-62636400D01*
X40724667Y-62602533D01*
X41334267Y-63313733D02*
X41334267Y-62602533D01*
X41740667Y-63313733D01*
X41740667Y-62602533D01*
X42451868Y-63313733D02*
X42045468Y-63313733D01*
X42248668Y-63313733D02*
X42248668Y-62602533D01*
X42180934Y-62704133D01*
X42113201Y-62771867D01*
X42045468Y-62805733D01*
X43180000Y-54982533D02*
X43213867Y-55016399D01*
X43247733Y-55117999D01*
X43247733Y-55185733D01*
X43213867Y-55287333D01*
X43146133Y-55355066D01*
X43078400Y-55388933D01*
X42942933Y-55422799D01*
X42841333Y-55422799D01*
X42705867Y-55388933D01*
X42638133Y-55355066D01*
X42570400Y-55287333D01*
X42536533Y-55185733D01*
X42536533Y-55117999D01*
X42570400Y-55016399D01*
X42604267Y-54982533D01*
X43247733Y-54305199D02*
X43247733Y-54711599D01*
X43247733Y-54508399D02*
X42536533Y-54508399D01*
X42638133Y-54576133D01*
X42705867Y-54643866D01*
X42739733Y-54711599D01*
X102497467Y-55880000D02*
X102463601Y-55913867D01*
X102362001Y-55947733D01*
X102294267Y-55947733D01*
X102192667Y-55913867D01*
X102124934Y-55846133D01*
X102091067Y-55778400D01*
X102057201Y-55642933D01*
X102057201Y-55541333D01*
X102091067Y-55405867D01*
X102124934Y-55338133D01*
X102192667Y-55270400D01*
X102294267Y-55236533D01*
X102362001Y-55236533D01*
X102463601Y-55270400D01*
X102497467Y-55304267D01*
X102768401Y-55304267D02*
X102802267Y-55270400D01*
X102870001Y-55236533D01*
X103039334Y-55236533D01*
X103107067Y-55270400D01*
X103140934Y-55304267D01*
X103174801Y-55372000D01*
X103174801Y-55439733D01*
X103140934Y-55541333D01*
X102734534Y-55947733D01*
X103174801Y-55947733D01*
X102497467Y-58166000D02*
X102463601Y-58199867D01*
X102362001Y-58233733D01*
X102294267Y-58233733D01*
X102192667Y-58199867D01*
X102124934Y-58132133D01*
X102091067Y-58064400D01*
X102057201Y-57928933D01*
X102057201Y-57827333D01*
X102091067Y-57691867D01*
X102124934Y-57624133D01*
X102192667Y-57556400D01*
X102294267Y-57522533D01*
X102362001Y-57522533D01*
X102463601Y-57556400D01*
X102497467Y-57590267D01*
X103107067Y-57759600D02*
X103107067Y-58233733D01*
X102937734Y-57488667D02*
X102768401Y-57996667D01*
X103208667Y-57996667D01*
X86106000Y-71238533D02*
X86139867Y-71272399D01*
X86173733Y-71373999D01*
X86173733Y-71441733D01*
X86139867Y-71543333D01*
X86072133Y-71611066D01*
X86004400Y-71644933D01*
X85868933Y-71678799D01*
X85767333Y-71678799D01*
X85631867Y-71644933D01*
X85564133Y-71611066D01*
X85496400Y-71543333D01*
X85462533Y-71441733D01*
X85462533Y-71373999D01*
X85496400Y-71272399D01*
X85530267Y-71238533D01*
X85462533Y-70595066D02*
X85462533Y-70933733D01*
X85801200Y-70967599D01*
X85767333Y-70933733D01*
X85733467Y-70865999D01*
X85733467Y-70696666D01*
X85767333Y-70628933D01*
X85801200Y-70595066D01*
X85868933Y-70561199D01*
X86038267Y-70561199D01*
X86106000Y-70595066D01*
X86139867Y-70628933D01*
X86173733Y-70696666D01*
X86173733Y-70865999D01*
X86139867Y-70933733D01*
X86106000Y-70967599D01*
X88400467Y-65405000D02*
X88366601Y-65438867D01*
X88265001Y-65472733D01*
X88197267Y-65472733D01*
X88095667Y-65438867D01*
X88027934Y-65371133D01*
X87994067Y-65303400D01*
X87960201Y-65167933D01*
X87960201Y-65066333D01*
X87994067Y-64930867D01*
X88027934Y-64863133D01*
X88095667Y-64795400D01*
X88197267Y-64761533D01*
X88265001Y-64761533D01*
X88366601Y-64795400D01*
X88400467Y-64829267D01*
X89010067Y-64761533D02*
X88874601Y-64761533D01*
X88806867Y-64795400D01*
X88773001Y-64829267D01*
X88705267Y-64930867D01*
X88671401Y-65066333D01*
X88671401Y-65337267D01*
X88705267Y-65405000D01*
X88739134Y-65438867D01*
X88806867Y-65472733D01*
X88942334Y-65472733D01*
X89010067Y-65438867D01*
X89043934Y-65405000D01*
X89077801Y-65337267D01*
X89077801Y-65167933D01*
X89043934Y-65100200D01*
X89010067Y-65066333D01*
X88942334Y-65032467D01*
X88806867Y-65032467D01*
X88739134Y-65066333D01*
X88705267Y-65100200D01*
X88671401Y-65167933D01*
X54102000Y-51934533D02*
X54135867Y-51968399D01*
X54169733Y-52069999D01*
X54169733Y-52137733D01*
X54135867Y-52239333D01*
X54068133Y-52307066D01*
X54000400Y-52340933D01*
X53864933Y-52374799D01*
X53763333Y-52374799D01*
X53627867Y-52340933D01*
X53560133Y-52307066D01*
X53492400Y-52239333D01*
X53458533Y-52137733D01*
X53458533Y-52069999D01*
X53492400Y-51968399D01*
X53526267Y-51934533D01*
X53458533Y-51697466D02*
X53458533Y-51223333D01*
X54169733Y-51528133D01*
X60706000Y-51934533D02*
X60739867Y-51968399D01*
X60773733Y-52069999D01*
X60773733Y-52137733D01*
X60739867Y-52239333D01*
X60672133Y-52307066D01*
X60604400Y-52340933D01*
X60468933Y-52374799D01*
X60367333Y-52374799D01*
X60231867Y-52340933D01*
X60164133Y-52307066D01*
X60096400Y-52239333D01*
X60062533Y-52137733D01*
X60062533Y-52069999D01*
X60096400Y-51968399D01*
X60130267Y-51934533D01*
X60367333Y-51528133D02*
X60333467Y-51595866D01*
X60299600Y-51629733D01*
X60231867Y-51663599D01*
X60198000Y-51663599D01*
X60130267Y-51629733D01*
X60096400Y-51595866D01*
X60062533Y-51528133D01*
X60062533Y-51392666D01*
X60096400Y-51324933D01*
X60130267Y-51291066D01*
X60198000Y-51257199D01*
X60231867Y-51257199D01*
X60299600Y-51291066D01*
X60333467Y-51324933D01*
X60367333Y-51392666D01*
X60367333Y-51528133D01*
X60401200Y-51595866D01*
X60435067Y-51629733D01*
X60502800Y-51663599D01*
X60638267Y-51663599D01*
X60706000Y-51629733D01*
X60739867Y-51595866D01*
X60773733Y-51528133D01*
X60773733Y-51392666D01*
X60739867Y-51324933D01*
X60706000Y-51291066D01*
X60638267Y-51257199D01*
X60502800Y-51257199D01*
X60435067Y-51291066D01*
X60401200Y-51324933D01*
X60367333Y-51392666D01*
X67310000Y-51934533D02*
X67343867Y-51968399D01*
X67377733Y-52069999D01*
X67377733Y-52137733D01*
X67343867Y-52239333D01*
X67276133Y-52307066D01*
X67208400Y-52340933D01*
X67072933Y-52374799D01*
X66971333Y-52374799D01*
X66835867Y-52340933D01*
X66768133Y-52307066D01*
X66700400Y-52239333D01*
X66666533Y-52137733D01*
X66666533Y-52069999D01*
X66700400Y-51968399D01*
X66734267Y-51934533D01*
X67377733Y-51595866D02*
X67377733Y-51460399D01*
X67343867Y-51392666D01*
X67310000Y-51358799D01*
X67208400Y-51291066D01*
X67072933Y-51257199D01*
X66802000Y-51257199D01*
X66734267Y-51291066D01*
X66700400Y-51324933D01*
X66666533Y-51392666D01*
X66666533Y-51528133D01*
X66700400Y-51595866D01*
X66734267Y-51629733D01*
X66802000Y-51663599D01*
X66971333Y-51663599D01*
X67039067Y-51629733D01*
X67072933Y-51595866D01*
X67106800Y-51528133D01*
X67106800Y-51392666D01*
X67072933Y-51324933D01*
X67039067Y-51291066D01*
X66971333Y-51257199D01*
X73914000Y-52019200D02*
X73947867Y-52053066D01*
X73981733Y-52154666D01*
X73981733Y-52222400D01*
X73947867Y-52324000D01*
X73880133Y-52391733D01*
X73812400Y-52425600D01*
X73676933Y-52459466D01*
X73575333Y-52459466D01*
X73439867Y-52425600D01*
X73372133Y-52391733D01*
X73304400Y-52324000D01*
X73270533Y-52222400D01*
X73270533Y-52154666D01*
X73304400Y-52053066D01*
X73338267Y-52019200D01*
X73981733Y-51341866D02*
X73981733Y-51748266D01*
X73981733Y-51545066D02*
X73270533Y-51545066D01*
X73372133Y-51612800D01*
X73439867Y-51680533D01*
X73473733Y-51748266D01*
X73270533Y-50901600D02*
X73270533Y-50833867D01*
X73304400Y-50766133D01*
X73338267Y-50732267D01*
X73406000Y-50698400D01*
X73541467Y-50664533D01*
X73710800Y-50664533D01*
X73846267Y-50698400D01*
X73914000Y-50732267D01*
X73947867Y-50766133D01*
X73981733Y-50833867D01*
X73981733Y-50901600D01*
X73947867Y-50969333D01*
X73914000Y-51003200D01*
X73846267Y-51037067D01*
X73710800Y-51070933D01*
X73541467Y-51070933D01*
X73406000Y-51037067D01*
X73338267Y-51003200D01*
X73304400Y-50969333D01*
X73270533Y-50901600D01*
X80518000Y-51892200D02*
X80551867Y-51926066D01*
X80585733Y-52027666D01*
X80585733Y-52095400D01*
X80551867Y-52197000D01*
X80484133Y-52264733D01*
X80416400Y-52298600D01*
X80280933Y-52332466D01*
X80179333Y-52332466D01*
X80043867Y-52298600D01*
X79976133Y-52264733D01*
X79908400Y-52197000D01*
X79874533Y-52095400D01*
X79874533Y-52027666D01*
X79908400Y-51926066D01*
X79942267Y-51892200D01*
X80585733Y-51214866D02*
X80585733Y-51621266D01*
X80585733Y-51418066D02*
X79874533Y-51418066D01*
X79976133Y-51485800D01*
X80043867Y-51553533D01*
X80077733Y-51621266D01*
X80585733Y-50537533D02*
X80585733Y-50943933D01*
X80585733Y-50740733D02*
X79874533Y-50740733D01*
X79976133Y-50808467D01*
X80043867Y-50876200D01*
X80077733Y-50943933D01*
X87122000Y-52019200D02*
X87155867Y-52053066D01*
X87189733Y-52154666D01*
X87189733Y-52222400D01*
X87155867Y-52324000D01*
X87088133Y-52391733D01*
X87020400Y-52425600D01*
X86884933Y-52459466D01*
X86783333Y-52459466D01*
X86647867Y-52425600D01*
X86580133Y-52391733D01*
X86512400Y-52324000D01*
X86478533Y-52222400D01*
X86478533Y-52154666D01*
X86512400Y-52053066D01*
X86546267Y-52019200D01*
X87189733Y-51341866D02*
X87189733Y-51748266D01*
X87189733Y-51545066D02*
X86478533Y-51545066D01*
X86580133Y-51612800D01*
X86647867Y-51680533D01*
X86681733Y-51748266D01*
X86546267Y-51070933D02*
X86512400Y-51037067D01*
X86478533Y-50969333D01*
X86478533Y-50800000D01*
X86512400Y-50732267D01*
X86546267Y-50698400D01*
X86614000Y-50664533D01*
X86681733Y-50664533D01*
X86783333Y-50698400D01*
X87189733Y-51104800D01*
X87189733Y-50664533D01*
X43180000Y-58115200D02*
X43213867Y-58149066D01*
X43247733Y-58250666D01*
X43247733Y-58318400D01*
X43213867Y-58420000D01*
X43146133Y-58487733D01*
X43078400Y-58521600D01*
X42942933Y-58555466D01*
X42841333Y-58555466D01*
X42705867Y-58521600D01*
X42638133Y-58487733D01*
X42570400Y-58420000D01*
X42536533Y-58318400D01*
X42536533Y-58250666D01*
X42570400Y-58149066D01*
X42604267Y-58115200D01*
X43247733Y-57437866D02*
X43247733Y-57844266D01*
X43247733Y-57641066D02*
X42536533Y-57641066D01*
X42638133Y-57708800D01*
X42705867Y-57776533D01*
X42739733Y-57844266D01*
X42536533Y-57200800D02*
X42536533Y-56760533D01*
X42807467Y-56997600D01*
X42807467Y-56896000D01*
X42841333Y-56828267D01*
X42875200Y-56794400D01*
X42942933Y-56760533D01*
X43112267Y-56760533D01*
X43180000Y-56794400D01*
X43213867Y-56828267D01*
X43247733Y-56896000D01*
X43247733Y-57099200D01*
X43213867Y-57166933D01*
X43180000Y-57200800D01*
X101854000Y-72212200D02*
X101887867Y-72246066D01*
X101921733Y-72347666D01*
X101921733Y-72415400D01*
X101887867Y-72517000D01*
X101820133Y-72584733D01*
X101752400Y-72618600D01*
X101616933Y-72652466D01*
X101515333Y-72652466D01*
X101379867Y-72618600D01*
X101312133Y-72584733D01*
X101244400Y-72517000D01*
X101210533Y-72415400D01*
X101210533Y-72347666D01*
X101244400Y-72246066D01*
X101278267Y-72212200D01*
X101921733Y-71534866D02*
X101921733Y-71941266D01*
X101921733Y-71738066D02*
X101210533Y-71738066D01*
X101312133Y-71805800D01*
X101379867Y-71873533D01*
X101413733Y-71941266D01*
X101447600Y-70925267D02*
X101921733Y-70925267D01*
X101176667Y-71094600D02*
X101684667Y-71263933D01*
X101684667Y-70823667D01*
X97459800Y-60579000D02*
X97425934Y-60612867D01*
X97324334Y-60646733D01*
X97256600Y-60646733D01*
X97155000Y-60612867D01*
X97087267Y-60545133D01*
X97053400Y-60477400D01*
X97019534Y-60341933D01*
X97019534Y-60240333D01*
X97053400Y-60104867D01*
X97087267Y-60037133D01*
X97155000Y-59969400D01*
X97256600Y-59935533D01*
X97324334Y-59935533D01*
X97425934Y-59969400D01*
X97459800Y-60003267D01*
X98137134Y-60646733D02*
X97730734Y-60646733D01*
X97933934Y-60646733D02*
X97933934Y-59935533D01*
X97866200Y-60037133D01*
X97798467Y-60104867D01*
X97730734Y-60138733D01*
X98780600Y-59935533D02*
X98441933Y-59935533D01*
X98408067Y-60274200D01*
X98441933Y-60240333D01*
X98509667Y-60206467D01*
X98679000Y-60206467D01*
X98746733Y-60240333D01*
X98780600Y-60274200D01*
X98814467Y-60341933D01*
X98814467Y-60511267D01*
X98780600Y-60579000D01*
X98746733Y-60612867D01*
X98679000Y-60646733D01*
X98509667Y-60646733D01*
X98441933Y-60612867D01*
X98408067Y-60579000D01*
X118347067Y-53915733D02*
X118347067Y-53204533D01*
X118516401Y-53204533D01*
X118618001Y-53238400D01*
X118685734Y-53306133D01*
X118719601Y-53373867D01*
X118753467Y-53509333D01*
X118753467Y-53610933D01*
X118719601Y-53746400D01*
X118685734Y-53814133D01*
X118618001Y-53881867D01*
X118516401Y-53915733D01*
X118347067Y-53915733D01*
X119430801Y-53915733D02*
X119024401Y-53915733D01*
X119227601Y-53915733D02*
X119227601Y-53204533D01*
X119159867Y-53306133D01*
X119092134Y-53373867D01*
X119024401Y-53407733D01*
X118347067Y-55693733D02*
X118347067Y-54982533D01*
X118516401Y-54982533D01*
X118618001Y-55016400D01*
X118685734Y-55084133D01*
X118719601Y-55151867D01*
X118753467Y-55287333D01*
X118753467Y-55388933D01*
X118719601Y-55524400D01*
X118685734Y-55592133D01*
X118618001Y-55659867D01*
X118516401Y-55693733D01*
X118347067Y-55693733D01*
X119024401Y-55050267D02*
X119058267Y-55016400D01*
X119126001Y-54982533D01*
X119295334Y-54982533D01*
X119363067Y-55016400D01*
X119396934Y-55050267D01*
X119430801Y-55118000D01*
X119430801Y-55185733D01*
X119396934Y-55287333D01*
X118990534Y-55693733D01*
X119430801Y-55693733D01*
X36770733Y-43704933D02*
X36059533Y-43704933D01*
X36059533Y-43535599D01*
X36093400Y-43433999D01*
X36161133Y-43366266D01*
X36228867Y-43332399D01*
X36364333Y-43298533D01*
X36465933Y-43298533D01*
X36601400Y-43332399D01*
X36669133Y-43366266D01*
X36736867Y-43433999D01*
X36770733Y-43535599D01*
X36770733Y-43704933D01*
X36059533Y-43061466D02*
X36059533Y-42621199D01*
X36330467Y-42858266D01*
X36330467Y-42756666D01*
X36364333Y-42688933D01*
X36398200Y-42655066D01*
X36465933Y-42621199D01*
X36635267Y-42621199D01*
X36703000Y-42655066D01*
X36736867Y-42688933D01*
X36770733Y-42756666D01*
X36770733Y-42959866D01*
X36736867Y-43027599D01*
X36703000Y-43061466D01*
X34230733Y-43704933D02*
X33519533Y-43704933D01*
X33519533Y-43535599D01*
X33553400Y-43433999D01*
X33621133Y-43366266D01*
X33688867Y-43332399D01*
X33824333Y-43298533D01*
X33925933Y-43298533D01*
X34061400Y-43332399D01*
X34129133Y-43366266D01*
X34196867Y-43433999D01*
X34230733Y-43535599D01*
X34230733Y-43704933D01*
X33756600Y-42688933D02*
X34230733Y-42688933D01*
X33485667Y-42858266D02*
X33993667Y-43027599D01*
X33993667Y-42587333D01*
X50994733Y-43704933D02*
X50283533Y-43704933D01*
X50283533Y-43535599D01*
X50317400Y-43433999D01*
X50385133Y-43366266D01*
X50452867Y-43332399D01*
X50588333Y-43298533D01*
X50689933Y-43298533D01*
X50825400Y-43332399D01*
X50893133Y-43366266D01*
X50960867Y-43433999D01*
X50994733Y-43535599D01*
X50994733Y-43704933D01*
X50283533Y-42655066D02*
X50283533Y-42993733D01*
X50622200Y-43027599D01*
X50588333Y-42993733D01*
X50554467Y-42925999D01*
X50554467Y-42756666D01*
X50588333Y-42688933D01*
X50622200Y-42655066D01*
X50689933Y-42621199D01*
X50859267Y-42621199D01*
X50927000Y-42655066D01*
X50960867Y-42688933D01*
X50994733Y-42756666D01*
X50994733Y-42925999D01*
X50960867Y-42993733D01*
X50927000Y-43027599D01*
X48454733Y-43704933D02*
X47743533Y-43704933D01*
X47743533Y-43535599D01*
X47777400Y-43433999D01*
X47845133Y-43366266D01*
X47912867Y-43332399D01*
X48048333Y-43298533D01*
X48149933Y-43298533D01*
X48285400Y-43332399D01*
X48353133Y-43366266D01*
X48420867Y-43433999D01*
X48454733Y-43535599D01*
X48454733Y-43704933D01*
X47743533Y-42688933D02*
X47743533Y-42824399D01*
X47777400Y-42892133D01*
X47811267Y-42925999D01*
X47912867Y-42993733D01*
X48048333Y-43027599D01*
X48319267Y-43027599D01*
X48387000Y-42993733D01*
X48420867Y-42959866D01*
X48454733Y-42892133D01*
X48454733Y-42756666D01*
X48420867Y-42688933D01*
X48387000Y-42655066D01*
X48319267Y-42621199D01*
X48149933Y-42621199D01*
X48082200Y-42655066D01*
X48048333Y-42688933D01*
X48014467Y-42756666D01*
X48014467Y-42892133D01*
X48048333Y-42959866D01*
X48082200Y-42993733D01*
X48149933Y-43027599D01*
X65218733Y-43704933D02*
X64507533Y-43704933D01*
X64507533Y-43535599D01*
X64541400Y-43433999D01*
X64609133Y-43366266D01*
X64676867Y-43332399D01*
X64812333Y-43298533D01*
X64913933Y-43298533D01*
X65049400Y-43332399D01*
X65117133Y-43366266D01*
X65184867Y-43433999D01*
X65218733Y-43535599D01*
X65218733Y-43704933D01*
X64507533Y-43061466D02*
X64507533Y-42587333D01*
X65218733Y-42892133D01*
X62678733Y-43704933D02*
X61967533Y-43704933D01*
X61967533Y-43535599D01*
X62001400Y-43433999D01*
X62069133Y-43366266D01*
X62136867Y-43332399D01*
X62272333Y-43298533D01*
X62373933Y-43298533D01*
X62509400Y-43332399D01*
X62577133Y-43366266D01*
X62644867Y-43433999D01*
X62678733Y-43535599D01*
X62678733Y-43704933D01*
X62272333Y-42892133D02*
X62238467Y-42959866D01*
X62204600Y-42993733D01*
X62136867Y-43027599D01*
X62103000Y-43027599D01*
X62035267Y-42993733D01*
X62001400Y-42959866D01*
X61967533Y-42892133D01*
X61967533Y-42756666D01*
X62001400Y-42688933D01*
X62035267Y-42655066D01*
X62103000Y-42621199D01*
X62136867Y-42621199D01*
X62204600Y-42655066D01*
X62238467Y-42688933D01*
X62272333Y-42756666D01*
X62272333Y-42892133D01*
X62306200Y-42959866D01*
X62340067Y-42993733D01*
X62407800Y-43027599D01*
X62543267Y-43027599D01*
X62611000Y-42993733D01*
X62644867Y-42959866D01*
X62678733Y-42892133D01*
X62678733Y-42756666D01*
X62644867Y-42688933D01*
X62611000Y-42655066D01*
X62543267Y-42621199D01*
X62407800Y-42621199D01*
X62340067Y-42655066D01*
X62306200Y-42688933D01*
X62272333Y-42756666D01*
X79442733Y-43704933D02*
X78731533Y-43704933D01*
X78731533Y-43535599D01*
X78765400Y-43433999D01*
X78833133Y-43366266D01*
X78900867Y-43332399D01*
X79036333Y-43298533D01*
X79137933Y-43298533D01*
X79273400Y-43332399D01*
X79341133Y-43366266D01*
X79408867Y-43433999D01*
X79442733Y-43535599D01*
X79442733Y-43704933D01*
X79442733Y-42959866D02*
X79442733Y-42824399D01*
X79408867Y-42756666D01*
X79375000Y-42722799D01*
X79273400Y-42655066D01*
X79137933Y-42621199D01*
X78867000Y-42621199D01*
X78799267Y-42655066D01*
X78765400Y-42688933D01*
X78731533Y-42756666D01*
X78731533Y-42892133D01*
X78765400Y-42959866D01*
X78799267Y-42993733D01*
X78867000Y-43027599D01*
X79036333Y-43027599D01*
X79104067Y-42993733D01*
X79137933Y-42959866D01*
X79171800Y-42892133D01*
X79171800Y-42756666D01*
X79137933Y-42688933D01*
X79104067Y-42655066D01*
X79036333Y-42621199D01*
X76902733Y-44043600D02*
X76191533Y-44043600D01*
X76191533Y-43874266D01*
X76225400Y-43772666D01*
X76293133Y-43704933D01*
X76360867Y-43671066D01*
X76496333Y-43637200D01*
X76597933Y-43637200D01*
X76733400Y-43671066D01*
X76801133Y-43704933D01*
X76868867Y-43772666D01*
X76902733Y-43874266D01*
X76902733Y-44043600D01*
X76902733Y-42959866D02*
X76902733Y-43366266D01*
X76902733Y-43163066D02*
X76191533Y-43163066D01*
X76293133Y-43230800D01*
X76360867Y-43298533D01*
X76394733Y-43366266D01*
X76191533Y-42519600D02*
X76191533Y-42451867D01*
X76225400Y-42384133D01*
X76259267Y-42350267D01*
X76327000Y-42316400D01*
X76462467Y-42282533D01*
X76631800Y-42282533D01*
X76767267Y-42316400D01*
X76835000Y-42350267D01*
X76868867Y-42384133D01*
X76902733Y-42451867D01*
X76902733Y-42519600D01*
X76868867Y-42587333D01*
X76835000Y-42621200D01*
X76767267Y-42655067D01*
X76631800Y-42688933D01*
X76462467Y-42688933D01*
X76327000Y-42655067D01*
X76259267Y-42621200D01*
X76225400Y-42587333D01*
X76191533Y-42519600D01*
X93666733Y-44043600D02*
X92955533Y-44043600D01*
X92955533Y-43874266D01*
X92989400Y-43772666D01*
X93057133Y-43704933D01*
X93124867Y-43671066D01*
X93260333Y-43637200D01*
X93361933Y-43637200D01*
X93497400Y-43671066D01*
X93565133Y-43704933D01*
X93632867Y-43772666D01*
X93666733Y-43874266D01*
X93666733Y-44043600D01*
X93666733Y-42959866D02*
X93666733Y-43366266D01*
X93666733Y-43163066D02*
X92955533Y-43163066D01*
X93057133Y-43230800D01*
X93124867Y-43298533D01*
X93158733Y-43366266D01*
X93666733Y-42282533D02*
X93666733Y-42688933D01*
X93666733Y-42485733D02*
X92955533Y-42485733D01*
X93057133Y-42553467D01*
X93124867Y-42621200D01*
X93158733Y-42688933D01*
X91126733Y-44043600D02*
X90415533Y-44043600D01*
X90415533Y-43874266D01*
X90449400Y-43772666D01*
X90517133Y-43704933D01*
X90584867Y-43671066D01*
X90720333Y-43637200D01*
X90821933Y-43637200D01*
X90957400Y-43671066D01*
X91025133Y-43704933D01*
X91092867Y-43772666D01*
X91126733Y-43874266D01*
X91126733Y-44043600D01*
X91126733Y-42959866D02*
X91126733Y-43366266D01*
X91126733Y-43163066D02*
X90415533Y-43163066D01*
X90517133Y-43230800D01*
X90584867Y-43298533D01*
X90618733Y-43366266D01*
X90483267Y-42688933D02*
X90449400Y-42655067D01*
X90415533Y-42587333D01*
X90415533Y-42418000D01*
X90449400Y-42350267D01*
X90483267Y-42316400D01*
X90551000Y-42282533D01*
X90618733Y-42282533D01*
X90720333Y-42316400D01*
X91126733Y-42722800D01*
X91126733Y-42282533D01*
X107890733Y-44043600D02*
X107179533Y-44043600D01*
X107179533Y-43874266D01*
X107213400Y-43772666D01*
X107281133Y-43704933D01*
X107348867Y-43671066D01*
X107484333Y-43637200D01*
X107585933Y-43637200D01*
X107721400Y-43671066D01*
X107789133Y-43704933D01*
X107856867Y-43772666D01*
X107890733Y-43874266D01*
X107890733Y-44043600D01*
X107890733Y-42959866D02*
X107890733Y-43366266D01*
X107890733Y-43163066D02*
X107179533Y-43163066D01*
X107281133Y-43230800D01*
X107348867Y-43298533D01*
X107382733Y-43366266D01*
X107179533Y-42722800D02*
X107179533Y-42282533D01*
X107450467Y-42519600D01*
X107450467Y-42418000D01*
X107484333Y-42350267D01*
X107518200Y-42316400D01*
X107585933Y-42282533D01*
X107755267Y-42282533D01*
X107823000Y-42316400D01*
X107856867Y-42350267D01*
X107890733Y-42418000D01*
X107890733Y-42621200D01*
X107856867Y-42688933D01*
X107823000Y-42722800D01*
X105350733Y-44043600D02*
X104639533Y-44043600D01*
X104639533Y-43874266D01*
X104673400Y-43772666D01*
X104741133Y-43704933D01*
X104808867Y-43671066D01*
X104944333Y-43637200D01*
X105045933Y-43637200D01*
X105181400Y-43671066D01*
X105249133Y-43704933D01*
X105316867Y-43772666D01*
X105350733Y-43874266D01*
X105350733Y-44043600D01*
X105350733Y-42959866D02*
X105350733Y-43366266D01*
X105350733Y-43163066D02*
X104639533Y-43163066D01*
X104741133Y-43230800D01*
X104808867Y-43298533D01*
X104842733Y-43366266D01*
X104876600Y-42350267D02*
X105350733Y-42350267D01*
X104605667Y-42519600D02*
X105113667Y-42688933D01*
X105113667Y-42248667D01*
X118008400Y-59757733D02*
X118008400Y-59046533D01*
X118177734Y-59046533D01*
X118279334Y-59080400D01*
X118347067Y-59148133D01*
X118380934Y-59215867D01*
X118414800Y-59351333D01*
X118414800Y-59452933D01*
X118380934Y-59588400D01*
X118347067Y-59656133D01*
X118279334Y-59723867D01*
X118177734Y-59757733D01*
X118008400Y-59757733D01*
X119092134Y-59757733D02*
X118685734Y-59757733D01*
X118888934Y-59757733D02*
X118888934Y-59046533D01*
X118821200Y-59148133D01*
X118753467Y-59215867D01*
X118685734Y-59249733D01*
X119735600Y-59046533D02*
X119396933Y-59046533D01*
X119363067Y-59385200D01*
X119396933Y-59351333D01*
X119464667Y-59317467D01*
X119634000Y-59317467D01*
X119701733Y-59351333D01*
X119735600Y-59385200D01*
X119769467Y-59452933D01*
X119769467Y-59622267D01*
X119735600Y-59690000D01*
X119701733Y-59723867D01*
X119634000Y-59757733D01*
X119464667Y-59757733D01*
X119396933Y-59723867D01*
X119363067Y-59690000D01*
X118008400Y-57725733D02*
X118008400Y-57014533D01*
X118177734Y-57014533D01*
X118279334Y-57048400D01*
X118347067Y-57116133D01*
X118380934Y-57183867D01*
X118414800Y-57319333D01*
X118414800Y-57420933D01*
X118380934Y-57556400D01*
X118347067Y-57624133D01*
X118279334Y-57691867D01*
X118177734Y-57725733D01*
X118008400Y-57725733D01*
X119092134Y-57725733D02*
X118685734Y-57725733D01*
X118888934Y-57725733D02*
X118888934Y-57014533D01*
X118821200Y-57116133D01*
X118753467Y-57183867D01*
X118685734Y-57217733D01*
X119701733Y-57014533D02*
X119566267Y-57014533D01*
X119498533Y-57048400D01*
X119464667Y-57082267D01*
X119396933Y-57183867D01*
X119363067Y-57319333D01*
X119363067Y-57590267D01*
X119396933Y-57658000D01*
X119430800Y-57691867D01*
X119498533Y-57725733D01*
X119634000Y-57725733D01*
X119701733Y-57691867D01*
X119735600Y-57658000D01*
X119769467Y-57590267D01*
X119769467Y-57420933D01*
X119735600Y-57353200D01*
X119701733Y-57319333D01*
X119634000Y-57285467D01*
X119498533Y-57285467D01*
X119430800Y-57319333D01*
X119396933Y-57353200D01*
X119363067Y-57420933D01*
X43247733Y-52442533D02*
X42909067Y-52679599D01*
X43247733Y-52848933D02*
X42536533Y-52848933D01*
X42536533Y-52577999D01*
X42570400Y-52510266D01*
X42604267Y-52476399D01*
X42672000Y-52442533D01*
X42773600Y-52442533D01*
X42841333Y-52476399D01*
X42875200Y-52510266D01*
X42909067Y-52577999D01*
X42909067Y-52848933D01*
X43247733Y-51765199D02*
X43247733Y-52171599D01*
X43247733Y-51968399D02*
X42536533Y-51968399D01*
X42638133Y-52036133D01*
X42705867Y-52103866D01*
X42739733Y-52171599D01*
X98306467Y-63059733D02*
X98069401Y-62721067D01*
X97900067Y-63059733D02*
X97900067Y-62348533D01*
X98171001Y-62348533D01*
X98238734Y-62382400D01*
X98272601Y-62416267D01*
X98306467Y-62484000D01*
X98306467Y-62585600D01*
X98272601Y-62653333D01*
X98238734Y-62687200D01*
X98171001Y-62721067D01*
X97900067Y-62721067D01*
X98543534Y-62348533D02*
X98983801Y-62348533D01*
X98746734Y-62619467D01*
X98848334Y-62619467D01*
X98916067Y-62653333D01*
X98949934Y-62687200D01*
X98983801Y-62754933D01*
X98983801Y-62924267D01*
X98949934Y-62992000D01*
X98916067Y-63025867D01*
X98848334Y-63059733D01*
X98645134Y-63059733D01*
X98577401Y-63025867D01*
X98543534Y-62992000D01*
X115705467Y-53915733D02*
X115468401Y-53577067D01*
X115299067Y-53915733D02*
X115299067Y-53204533D01*
X115570001Y-53204533D01*
X115637734Y-53238400D01*
X115671601Y-53272267D01*
X115705467Y-53340000D01*
X115705467Y-53441600D01*
X115671601Y-53509333D01*
X115637734Y-53543200D01*
X115570001Y-53577067D01*
X115299067Y-53577067D01*
X116315067Y-53441600D02*
X116315067Y-53915733D01*
X116145734Y-53170667D02*
X115976401Y-53678667D01*
X116416667Y-53678667D01*
X115705467Y-55693733D02*
X115468401Y-55355067D01*
X115299067Y-55693733D02*
X115299067Y-54982533D01*
X115570001Y-54982533D01*
X115637734Y-55016400D01*
X115671601Y-55050267D01*
X115705467Y-55118000D01*
X115705467Y-55219600D01*
X115671601Y-55287333D01*
X115637734Y-55321200D01*
X115570001Y-55355067D01*
X115299067Y-55355067D01*
X116348934Y-54982533D02*
X116010267Y-54982533D01*
X115976401Y-55321200D01*
X116010267Y-55287333D01*
X116078001Y-55253467D01*
X116247334Y-55253467D01*
X116315067Y-55287333D01*
X116348934Y-55321200D01*
X116382801Y-55388933D01*
X116382801Y-55558267D01*
X116348934Y-55626000D01*
X116315067Y-55659867D01*
X116247334Y-55693733D01*
X116078001Y-55693733D01*
X116010267Y-55659867D01*
X115976401Y-55626000D01*
X41977733Y-43044533D02*
X41639067Y-43281599D01*
X41977733Y-43450933D02*
X41266533Y-43450933D01*
X41266533Y-43179999D01*
X41300400Y-43112266D01*
X41334267Y-43078399D01*
X41402000Y-43044533D01*
X41503600Y-43044533D01*
X41571333Y-43078399D01*
X41605200Y-43112266D01*
X41639067Y-43179999D01*
X41639067Y-43450933D01*
X41266533Y-42434933D02*
X41266533Y-42570399D01*
X41300400Y-42638133D01*
X41334267Y-42671999D01*
X41435867Y-42739733D01*
X41571333Y-42773599D01*
X41842267Y-42773599D01*
X41910000Y-42739733D01*
X41943867Y-42705866D01*
X41977733Y-42638133D01*
X41977733Y-42502666D01*
X41943867Y-42434933D01*
X41910000Y-42401066D01*
X41842267Y-42367199D01*
X41672933Y-42367199D01*
X41605200Y-42401066D01*
X41571333Y-42434933D01*
X41537467Y-42502666D01*
X41537467Y-42638133D01*
X41571333Y-42705866D01*
X41605200Y-42739733D01*
X41672933Y-42773599D01*
X55693733Y-49902533D02*
X55355067Y-50139599D01*
X55693733Y-50308933D02*
X54982533Y-50308933D01*
X54982533Y-50037999D01*
X55016400Y-49970266D01*
X55050267Y-49936399D01*
X55118000Y-49902533D01*
X55219600Y-49902533D01*
X55287333Y-49936399D01*
X55321200Y-49970266D01*
X55355067Y-50037999D01*
X55355067Y-50308933D01*
X54982533Y-49665466D02*
X54982533Y-49191333D01*
X55693733Y-49496133D01*
X57471733Y-49902533D02*
X57133067Y-50139599D01*
X57471733Y-50308933D02*
X56760533Y-50308933D01*
X56760533Y-50037999D01*
X56794400Y-49970266D01*
X56828267Y-49936399D01*
X56896000Y-49902533D01*
X56997600Y-49902533D01*
X57065333Y-49936399D01*
X57099200Y-49970266D01*
X57133067Y-50037999D01*
X57133067Y-50308933D01*
X57065333Y-49496133D02*
X57031467Y-49563866D01*
X56997600Y-49597733D01*
X56929867Y-49631599D01*
X56896000Y-49631599D01*
X56828267Y-49597733D01*
X56794400Y-49563866D01*
X56760533Y-49496133D01*
X56760533Y-49360666D01*
X56794400Y-49292933D01*
X56828267Y-49259066D01*
X56896000Y-49225199D01*
X56929867Y-49225199D01*
X56997600Y-49259066D01*
X57031467Y-49292933D01*
X57065333Y-49360666D01*
X57065333Y-49496133D01*
X57099200Y-49563866D01*
X57133067Y-49597733D01*
X57200800Y-49631599D01*
X57336267Y-49631599D01*
X57404000Y-49597733D01*
X57437867Y-49563866D01*
X57471733Y-49496133D01*
X57471733Y-49360666D01*
X57437867Y-49292933D01*
X57404000Y-49259066D01*
X57336267Y-49225199D01*
X57200800Y-49225199D01*
X57133067Y-49259066D01*
X57099200Y-49292933D01*
X57065333Y-49360666D01*
X59249733Y-49902533D02*
X58911067Y-50139599D01*
X59249733Y-50308933D02*
X58538533Y-50308933D01*
X58538533Y-50037999D01*
X58572400Y-49970266D01*
X58606267Y-49936399D01*
X58674000Y-49902533D01*
X58775600Y-49902533D01*
X58843333Y-49936399D01*
X58877200Y-49970266D01*
X58911067Y-50037999D01*
X58911067Y-50308933D01*
X59249733Y-49563866D02*
X59249733Y-49428399D01*
X59215867Y-49360666D01*
X59182000Y-49326799D01*
X59080400Y-49259066D01*
X58944933Y-49225199D01*
X58674000Y-49225199D01*
X58606267Y-49259066D01*
X58572400Y-49292933D01*
X58538533Y-49360666D01*
X58538533Y-49496133D01*
X58572400Y-49563866D01*
X58606267Y-49597733D01*
X58674000Y-49631599D01*
X58843333Y-49631599D01*
X58911067Y-49597733D01*
X58944933Y-49563866D01*
X58978800Y-49496133D01*
X58978800Y-49360666D01*
X58944933Y-49292933D01*
X58911067Y-49259066D01*
X58843333Y-49225199D01*
X39310733Y-43637200D02*
X38972067Y-43874266D01*
X39310733Y-44043600D02*
X38599533Y-44043600D01*
X38599533Y-43772666D01*
X38633400Y-43704933D01*
X38667267Y-43671066D01*
X38735000Y-43637200D01*
X38836600Y-43637200D01*
X38904333Y-43671066D01*
X38938200Y-43704933D01*
X38972067Y-43772666D01*
X38972067Y-44043600D01*
X39310733Y-42959866D02*
X39310733Y-43366266D01*
X39310733Y-43163066D02*
X38599533Y-43163066D01*
X38701133Y-43230800D01*
X38768867Y-43298533D01*
X38802733Y-43366266D01*
X39310733Y-42282533D02*
X39310733Y-42688933D01*
X39310733Y-42485733D02*
X38599533Y-42485733D01*
X38701133Y-42553467D01*
X38768867Y-42621200D01*
X38802733Y-42688933D01*
X56201733Y-43129200D02*
X55863067Y-43366266D01*
X56201733Y-43535600D02*
X55490533Y-43535600D01*
X55490533Y-43264666D01*
X55524400Y-43196933D01*
X55558267Y-43163066D01*
X55626000Y-43129200D01*
X55727600Y-43129200D01*
X55795333Y-43163066D01*
X55829200Y-43196933D01*
X55863067Y-43264666D01*
X55863067Y-43535600D01*
X56201733Y-42451866D02*
X56201733Y-42858266D01*
X56201733Y-42655066D02*
X55490533Y-42655066D01*
X55592133Y-42722800D01*
X55659867Y-42790533D01*
X55693733Y-42858266D01*
X55558267Y-42180933D02*
X55524400Y-42147067D01*
X55490533Y-42079333D01*
X55490533Y-41910000D01*
X55524400Y-41842267D01*
X55558267Y-41808400D01*
X55626000Y-41774533D01*
X55693733Y-41774533D01*
X55795333Y-41808400D01*
X56201733Y-42214800D01*
X56201733Y-41774533D01*
X62297733Y-49860200D02*
X61959067Y-50097266D01*
X62297733Y-50266600D02*
X61586533Y-50266600D01*
X61586533Y-49995666D01*
X61620400Y-49927933D01*
X61654267Y-49894066D01*
X61722000Y-49860200D01*
X61823600Y-49860200D01*
X61891333Y-49894066D01*
X61925200Y-49927933D01*
X61959067Y-49995666D01*
X61959067Y-50266600D01*
X62297733Y-49182866D02*
X62297733Y-49589266D01*
X62297733Y-49386066D02*
X61586533Y-49386066D01*
X61688133Y-49453800D01*
X61755867Y-49521533D01*
X61789733Y-49589266D01*
X61586533Y-48945800D02*
X61586533Y-48505533D01*
X61857467Y-48742600D01*
X61857467Y-48641000D01*
X61891333Y-48573267D01*
X61925200Y-48539400D01*
X61992933Y-48505533D01*
X62162267Y-48505533D01*
X62230000Y-48539400D01*
X62263867Y-48573267D01*
X62297733Y-48641000D01*
X62297733Y-48844200D01*
X62263867Y-48911933D01*
X62230000Y-48945800D01*
X64075733Y-49860200D02*
X63737067Y-50097266D01*
X64075733Y-50266600D02*
X63364533Y-50266600D01*
X63364533Y-49995666D01*
X63398400Y-49927933D01*
X63432267Y-49894066D01*
X63500000Y-49860200D01*
X63601600Y-49860200D01*
X63669333Y-49894066D01*
X63703200Y-49927933D01*
X63737067Y-49995666D01*
X63737067Y-50266600D01*
X64075733Y-49182866D02*
X64075733Y-49589266D01*
X64075733Y-49386066D02*
X63364533Y-49386066D01*
X63466133Y-49453800D01*
X63533867Y-49521533D01*
X63567733Y-49589266D01*
X63601600Y-48573267D02*
X64075733Y-48573267D01*
X63330667Y-48742600D02*
X63838667Y-48911933D01*
X63838667Y-48471667D01*
X65853733Y-49860200D02*
X65515067Y-50097266D01*
X65853733Y-50266600D02*
X65142533Y-50266600D01*
X65142533Y-49995666D01*
X65176400Y-49927933D01*
X65210267Y-49894066D01*
X65278000Y-49860200D01*
X65379600Y-49860200D01*
X65447333Y-49894066D01*
X65481200Y-49927933D01*
X65515067Y-49995666D01*
X65515067Y-50266600D01*
X65853733Y-49182866D02*
X65853733Y-49589266D01*
X65853733Y-49386066D02*
X65142533Y-49386066D01*
X65244133Y-49453800D01*
X65311867Y-49521533D01*
X65345733Y-49589266D01*
X65142533Y-48539400D02*
X65142533Y-48878067D01*
X65481200Y-48911933D01*
X65447333Y-48878067D01*
X65413467Y-48810333D01*
X65413467Y-48641000D01*
X65447333Y-48573267D01*
X65481200Y-48539400D01*
X65548933Y-48505533D01*
X65718267Y-48505533D01*
X65786000Y-48539400D01*
X65819867Y-48573267D01*
X65853733Y-48641000D01*
X65853733Y-48810333D01*
X65819867Y-48878067D01*
X65786000Y-48911933D01*
X53534733Y-43637200D02*
X53196067Y-43874266D01*
X53534733Y-44043600D02*
X52823533Y-44043600D01*
X52823533Y-43772666D01*
X52857400Y-43704933D01*
X52891267Y-43671066D01*
X52959000Y-43637200D01*
X53060600Y-43637200D01*
X53128333Y-43671066D01*
X53162200Y-43704933D01*
X53196067Y-43772666D01*
X53196067Y-44043600D01*
X53534733Y-42959866D02*
X53534733Y-43366266D01*
X53534733Y-43163066D02*
X52823533Y-43163066D01*
X52925133Y-43230800D01*
X52992867Y-43298533D01*
X53026733Y-43366266D01*
X52823533Y-42722800D02*
X52823533Y-42248667D01*
X53534733Y-42553467D01*
X70425733Y-43129200D02*
X70087067Y-43366266D01*
X70425733Y-43535600D02*
X69714533Y-43535600D01*
X69714533Y-43264666D01*
X69748400Y-43196933D01*
X69782267Y-43163066D01*
X69850000Y-43129200D01*
X69951600Y-43129200D01*
X70019333Y-43163066D01*
X70053200Y-43196933D01*
X70087067Y-43264666D01*
X70087067Y-43535600D01*
X70425733Y-42451866D02*
X70425733Y-42858266D01*
X70425733Y-42655066D02*
X69714533Y-42655066D01*
X69816133Y-42722800D01*
X69883867Y-42790533D01*
X69917733Y-42858266D01*
X70019333Y-42045467D02*
X69985467Y-42113200D01*
X69951600Y-42147067D01*
X69883867Y-42180933D01*
X69850000Y-42180933D01*
X69782267Y-42147067D01*
X69748400Y-42113200D01*
X69714533Y-42045467D01*
X69714533Y-41910000D01*
X69748400Y-41842267D01*
X69782267Y-41808400D01*
X69850000Y-41774533D01*
X69883867Y-41774533D01*
X69951600Y-41808400D01*
X69985467Y-41842267D01*
X70019333Y-41910000D01*
X70019333Y-42045467D01*
X70053200Y-42113200D01*
X70087067Y-42147067D01*
X70154800Y-42180933D01*
X70290267Y-42180933D01*
X70358000Y-42147067D01*
X70391867Y-42113200D01*
X70425733Y-42045467D01*
X70425733Y-41910000D01*
X70391867Y-41842267D01*
X70358000Y-41808400D01*
X70290267Y-41774533D01*
X70154800Y-41774533D01*
X70087067Y-41808400D01*
X70053200Y-41842267D01*
X70019333Y-41910000D01*
X68901733Y-49860200D02*
X68563067Y-50097266D01*
X68901733Y-50266600D02*
X68190533Y-50266600D01*
X68190533Y-49995666D01*
X68224400Y-49927933D01*
X68258267Y-49894066D01*
X68326000Y-49860200D01*
X68427600Y-49860200D01*
X68495333Y-49894066D01*
X68529200Y-49927933D01*
X68563067Y-49995666D01*
X68563067Y-50266600D01*
X68901733Y-49182866D02*
X68901733Y-49589266D01*
X68901733Y-49386066D02*
X68190533Y-49386066D01*
X68292133Y-49453800D01*
X68359867Y-49521533D01*
X68393733Y-49589266D01*
X68901733Y-48844200D02*
X68901733Y-48708733D01*
X68867867Y-48641000D01*
X68834000Y-48607133D01*
X68732400Y-48539400D01*
X68596933Y-48505533D01*
X68326000Y-48505533D01*
X68258267Y-48539400D01*
X68224400Y-48573267D01*
X68190533Y-48641000D01*
X68190533Y-48776467D01*
X68224400Y-48844200D01*
X68258267Y-48878067D01*
X68326000Y-48911933D01*
X68495333Y-48911933D01*
X68563067Y-48878067D01*
X68596933Y-48844200D01*
X68630800Y-48776467D01*
X68630800Y-48641000D01*
X68596933Y-48573267D01*
X68563067Y-48539400D01*
X68495333Y-48505533D01*
X70679733Y-49860200D02*
X70341067Y-50097266D01*
X70679733Y-50266600D02*
X69968533Y-50266600D01*
X69968533Y-49995666D01*
X70002400Y-49927933D01*
X70036267Y-49894066D01*
X70104000Y-49860200D01*
X70205600Y-49860200D01*
X70273333Y-49894066D01*
X70307200Y-49927933D01*
X70341067Y-49995666D01*
X70341067Y-50266600D01*
X70036267Y-49589266D02*
X70002400Y-49555400D01*
X69968533Y-49487666D01*
X69968533Y-49318333D01*
X70002400Y-49250600D01*
X70036267Y-49216733D01*
X70104000Y-49182866D01*
X70171733Y-49182866D01*
X70273333Y-49216733D01*
X70679733Y-49623133D01*
X70679733Y-49182866D01*
X69968533Y-48742600D02*
X69968533Y-48674867D01*
X70002400Y-48607133D01*
X70036267Y-48573267D01*
X70104000Y-48539400D01*
X70239467Y-48505533D01*
X70408800Y-48505533D01*
X70544267Y-48539400D01*
X70612000Y-48573267D01*
X70645867Y-48607133D01*
X70679733Y-48674867D01*
X70679733Y-48742600D01*
X70645867Y-48810333D01*
X70612000Y-48844200D01*
X70544267Y-48878067D01*
X70408800Y-48911933D01*
X70239467Y-48911933D01*
X70104000Y-48878067D01*
X70036267Y-48844200D01*
X70002400Y-48810333D01*
X69968533Y-48742600D01*
X72457733Y-49860200D02*
X72119067Y-50097266D01*
X72457733Y-50266600D02*
X71746533Y-50266600D01*
X71746533Y-49995666D01*
X71780400Y-49927933D01*
X71814267Y-49894066D01*
X71882000Y-49860200D01*
X71983600Y-49860200D01*
X72051333Y-49894066D01*
X72085200Y-49927933D01*
X72119067Y-49995666D01*
X72119067Y-50266600D01*
X71814267Y-49589266D02*
X71780400Y-49555400D01*
X71746533Y-49487666D01*
X71746533Y-49318333D01*
X71780400Y-49250600D01*
X71814267Y-49216733D01*
X71882000Y-49182866D01*
X71949733Y-49182866D01*
X72051333Y-49216733D01*
X72457733Y-49623133D01*
X72457733Y-49182866D01*
X72457733Y-48505533D02*
X72457733Y-48911933D01*
X72457733Y-48708733D02*
X71746533Y-48708733D01*
X71848133Y-48776467D01*
X71915867Y-48844200D01*
X71949733Y-48911933D01*
X67758733Y-43637200D02*
X67420067Y-43874266D01*
X67758733Y-44043600D02*
X67047533Y-44043600D01*
X67047533Y-43772666D01*
X67081400Y-43704933D01*
X67115267Y-43671066D01*
X67183000Y-43637200D01*
X67284600Y-43637200D01*
X67352333Y-43671066D01*
X67386200Y-43704933D01*
X67420067Y-43772666D01*
X67420067Y-44043600D01*
X67115267Y-43366266D02*
X67081400Y-43332400D01*
X67047533Y-43264666D01*
X67047533Y-43095333D01*
X67081400Y-43027600D01*
X67115267Y-42993733D01*
X67183000Y-42959866D01*
X67250733Y-42959866D01*
X67352333Y-42993733D01*
X67758733Y-43400133D01*
X67758733Y-42959866D01*
X67047533Y-42722800D02*
X67047533Y-42282533D01*
X67318467Y-42519600D01*
X67318467Y-42418000D01*
X67352333Y-42350267D01*
X67386200Y-42316400D01*
X67453933Y-42282533D01*
X67623267Y-42282533D01*
X67691000Y-42316400D01*
X67724867Y-42350267D01*
X67758733Y-42418000D01*
X67758733Y-42621200D01*
X67724867Y-42688933D01*
X67691000Y-42722800D01*
X84649733Y-43129200D02*
X84311067Y-43366266D01*
X84649733Y-43535600D02*
X83938533Y-43535600D01*
X83938533Y-43264666D01*
X83972400Y-43196933D01*
X84006267Y-43163066D01*
X84074000Y-43129200D01*
X84175600Y-43129200D01*
X84243333Y-43163066D01*
X84277200Y-43196933D01*
X84311067Y-43264666D01*
X84311067Y-43535600D01*
X84006267Y-42858266D02*
X83972400Y-42824400D01*
X83938533Y-42756666D01*
X83938533Y-42587333D01*
X83972400Y-42519600D01*
X84006267Y-42485733D01*
X84074000Y-42451866D01*
X84141733Y-42451866D01*
X84243333Y-42485733D01*
X84649733Y-42892133D01*
X84649733Y-42451866D01*
X84175600Y-41842267D02*
X84649733Y-41842267D01*
X83904667Y-42011600D02*
X84412667Y-42180933D01*
X84412667Y-41740667D01*
X75505733Y-49860200D02*
X75167067Y-50097266D01*
X75505733Y-50266600D02*
X74794533Y-50266600D01*
X74794533Y-49995666D01*
X74828400Y-49927933D01*
X74862267Y-49894066D01*
X74930000Y-49860200D01*
X75031600Y-49860200D01*
X75099333Y-49894066D01*
X75133200Y-49927933D01*
X75167067Y-49995666D01*
X75167067Y-50266600D01*
X74862267Y-49589266D02*
X74828400Y-49555400D01*
X74794533Y-49487666D01*
X74794533Y-49318333D01*
X74828400Y-49250600D01*
X74862267Y-49216733D01*
X74930000Y-49182866D01*
X74997733Y-49182866D01*
X75099333Y-49216733D01*
X75505733Y-49623133D01*
X75505733Y-49182866D01*
X74794533Y-48539400D02*
X74794533Y-48878067D01*
X75133200Y-48911933D01*
X75099333Y-48878067D01*
X75065467Y-48810333D01*
X75065467Y-48641000D01*
X75099333Y-48573267D01*
X75133200Y-48539400D01*
X75200933Y-48505533D01*
X75370267Y-48505533D01*
X75438000Y-48539400D01*
X75471867Y-48573267D01*
X75505733Y-48641000D01*
X75505733Y-48810333D01*
X75471867Y-48878067D01*
X75438000Y-48911933D01*
X77283733Y-49860200D02*
X76945067Y-50097266D01*
X77283733Y-50266600D02*
X76572533Y-50266600D01*
X76572533Y-49995666D01*
X76606400Y-49927933D01*
X76640267Y-49894066D01*
X76708000Y-49860200D01*
X76809600Y-49860200D01*
X76877333Y-49894066D01*
X76911200Y-49927933D01*
X76945067Y-49995666D01*
X76945067Y-50266600D01*
X76640267Y-49589266D02*
X76606400Y-49555400D01*
X76572533Y-49487666D01*
X76572533Y-49318333D01*
X76606400Y-49250600D01*
X76640267Y-49216733D01*
X76708000Y-49182866D01*
X76775733Y-49182866D01*
X76877333Y-49216733D01*
X77283733Y-49623133D01*
X77283733Y-49182866D01*
X76572533Y-48573267D02*
X76572533Y-48708733D01*
X76606400Y-48776467D01*
X76640267Y-48810333D01*
X76741867Y-48878067D01*
X76877333Y-48911933D01*
X77148267Y-48911933D01*
X77216000Y-48878067D01*
X77249867Y-48844200D01*
X77283733Y-48776467D01*
X77283733Y-48641000D01*
X77249867Y-48573267D01*
X77216000Y-48539400D01*
X77148267Y-48505533D01*
X76978933Y-48505533D01*
X76911200Y-48539400D01*
X76877333Y-48573267D01*
X76843467Y-48641000D01*
X76843467Y-48776467D01*
X76877333Y-48844200D01*
X76911200Y-48878067D01*
X76978933Y-48911933D01*
X79061733Y-49860200D02*
X78723067Y-50097266D01*
X79061733Y-50266600D02*
X78350533Y-50266600D01*
X78350533Y-49995666D01*
X78384400Y-49927933D01*
X78418267Y-49894066D01*
X78486000Y-49860200D01*
X78587600Y-49860200D01*
X78655333Y-49894066D01*
X78689200Y-49927933D01*
X78723067Y-49995666D01*
X78723067Y-50266600D01*
X78418267Y-49589266D02*
X78384400Y-49555400D01*
X78350533Y-49487666D01*
X78350533Y-49318333D01*
X78384400Y-49250600D01*
X78418267Y-49216733D01*
X78486000Y-49182866D01*
X78553733Y-49182866D01*
X78655333Y-49216733D01*
X79061733Y-49623133D01*
X79061733Y-49182866D01*
X78350533Y-48945800D02*
X78350533Y-48471667D01*
X79061733Y-48776467D01*
X81982733Y-43637200D02*
X81644067Y-43874266D01*
X81982733Y-44043600D02*
X81271533Y-44043600D01*
X81271533Y-43772666D01*
X81305400Y-43704933D01*
X81339267Y-43671066D01*
X81407000Y-43637200D01*
X81508600Y-43637200D01*
X81576333Y-43671066D01*
X81610200Y-43704933D01*
X81644067Y-43772666D01*
X81644067Y-44043600D01*
X81339267Y-43366266D02*
X81305400Y-43332400D01*
X81271533Y-43264666D01*
X81271533Y-43095333D01*
X81305400Y-43027600D01*
X81339267Y-42993733D01*
X81407000Y-42959866D01*
X81474733Y-42959866D01*
X81576333Y-42993733D01*
X81982733Y-43400133D01*
X81982733Y-42959866D01*
X81982733Y-42621200D02*
X81982733Y-42485733D01*
X81948867Y-42418000D01*
X81915000Y-42384133D01*
X81813400Y-42316400D01*
X81677933Y-42282533D01*
X81407000Y-42282533D01*
X81339267Y-42316400D01*
X81305400Y-42350267D01*
X81271533Y-42418000D01*
X81271533Y-42553467D01*
X81305400Y-42621200D01*
X81339267Y-42655067D01*
X81407000Y-42688933D01*
X81576333Y-42688933D01*
X81644067Y-42655067D01*
X81677933Y-42621200D01*
X81711800Y-42553467D01*
X81711800Y-42418000D01*
X81677933Y-42350267D01*
X81644067Y-42316400D01*
X81576333Y-42282533D01*
X98873733Y-43129200D02*
X98535067Y-43366266D01*
X98873733Y-43535600D02*
X98162533Y-43535600D01*
X98162533Y-43264666D01*
X98196400Y-43196933D01*
X98230267Y-43163066D01*
X98298000Y-43129200D01*
X98399600Y-43129200D01*
X98467333Y-43163066D01*
X98501200Y-43196933D01*
X98535067Y-43264666D01*
X98535067Y-43535600D01*
X98162533Y-42892133D02*
X98162533Y-42451866D01*
X98433467Y-42688933D01*
X98433467Y-42587333D01*
X98467333Y-42519600D01*
X98501200Y-42485733D01*
X98568933Y-42451866D01*
X98738267Y-42451866D01*
X98806000Y-42485733D01*
X98839867Y-42519600D01*
X98873733Y-42587333D01*
X98873733Y-42790533D01*
X98839867Y-42858266D01*
X98806000Y-42892133D01*
X98162533Y-42011600D02*
X98162533Y-41943867D01*
X98196400Y-41876133D01*
X98230267Y-41842267D01*
X98298000Y-41808400D01*
X98433467Y-41774533D01*
X98602800Y-41774533D01*
X98738267Y-41808400D01*
X98806000Y-41842267D01*
X98839867Y-41876133D01*
X98873733Y-41943867D01*
X98873733Y-42011600D01*
X98839867Y-42079333D01*
X98806000Y-42113200D01*
X98738267Y-42147067D01*
X98602800Y-42180933D01*
X98433467Y-42180933D01*
X98298000Y-42147067D01*
X98230267Y-42113200D01*
X98196400Y-42079333D01*
X98162533Y-42011600D01*
X82109733Y-49860200D02*
X81771067Y-50097266D01*
X82109733Y-50266600D02*
X81398533Y-50266600D01*
X81398533Y-49995666D01*
X81432400Y-49927933D01*
X81466267Y-49894066D01*
X81534000Y-49860200D01*
X81635600Y-49860200D01*
X81703333Y-49894066D01*
X81737200Y-49927933D01*
X81771067Y-49995666D01*
X81771067Y-50266600D01*
X81398533Y-49623133D02*
X81398533Y-49182866D01*
X81669467Y-49419933D01*
X81669467Y-49318333D01*
X81703333Y-49250600D01*
X81737200Y-49216733D01*
X81804933Y-49182866D01*
X81974267Y-49182866D01*
X82042000Y-49216733D01*
X82075867Y-49250600D01*
X82109733Y-49318333D01*
X82109733Y-49521533D01*
X82075867Y-49589266D01*
X82042000Y-49623133D01*
X82109733Y-48505533D02*
X82109733Y-48911933D01*
X82109733Y-48708733D02*
X81398533Y-48708733D01*
X81500133Y-48776467D01*
X81567867Y-48844200D01*
X81601733Y-48911933D01*
X83887733Y-49860200D02*
X83549067Y-50097266D01*
X83887733Y-50266600D02*
X83176533Y-50266600D01*
X83176533Y-49995666D01*
X83210400Y-49927933D01*
X83244267Y-49894066D01*
X83312000Y-49860200D01*
X83413600Y-49860200D01*
X83481333Y-49894066D01*
X83515200Y-49927933D01*
X83549067Y-49995666D01*
X83549067Y-50266600D01*
X83176533Y-49623133D02*
X83176533Y-49182866D01*
X83447467Y-49419933D01*
X83447467Y-49318333D01*
X83481333Y-49250600D01*
X83515200Y-49216733D01*
X83582933Y-49182866D01*
X83752267Y-49182866D01*
X83820000Y-49216733D01*
X83853867Y-49250600D01*
X83887733Y-49318333D01*
X83887733Y-49521533D01*
X83853867Y-49589266D01*
X83820000Y-49623133D01*
X83244267Y-48911933D02*
X83210400Y-48878067D01*
X83176533Y-48810333D01*
X83176533Y-48641000D01*
X83210400Y-48573267D01*
X83244267Y-48539400D01*
X83312000Y-48505533D01*
X83379733Y-48505533D01*
X83481333Y-48539400D01*
X83887733Y-48945800D01*
X83887733Y-48505533D01*
X85665733Y-49860200D02*
X85327067Y-50097266D01*
X85665733Y-50266600D02*
X84954533Y-50266600D01*
X84954533Y-49995666D01*
X84988400Y-49927933D01*
X85022267Y-49894066D01*
X85090000Y-49860200D01*
X85191600Y-49860200D01*
X85259333Y-49894066D01*
X85293200Y-49927933D01*
X85327067Y-49995666D01*
X85327067Y-50266600D01*
X84954533Y-49623133D02*
X84954533Y-49182866D01*
X85225467Y-49419933D01*
X85225467Y-49318333D01*
X85259333Y-49250600D01*
X85293200Y-49216733D01*
X85360933Y-49182866D01*
X85530267Y-49182866D01*
X85598000Y-49216733D01*
X85631867Y-49250600D01*
X85665733Y-49318333D01*
X85665733Y-49521533D01*
X85631867Y-49589266D01*
X85598000Y-49623133D01*
X84954533Y-48945800D02*
X84954533Y-48505533D01*
X85225467Y-48742600D01*
X85225467Y-48641000D01*
X85259333Y-48573267D01*
X85293200Y-48539400D01*
X85360933Y-48505533D01*
X85530267Y-48505533D01*
X85598000Y-48539400D01*
X85631867Y-48573267D01*
X85665733Y-48641000D01*
X85665733Y-48844200D01*
X85631867Y-48911933D01*
X85598000Y-48945800D01*
X96206733Y-43637200D02*
X95868067Y-43874266D01*
X96206733Y-44043600D02*
X95495533Y-44043600D01*
X95495533Y-43772666D01*
X95529400Y-43704933D01*
X95563267Y-43671066D01*
X95631000Y-43637200D01*
X95732600Y-43637200D01*
X95800333Y-43671066D01*
X95834200Y-43704933D01*
X95868067Y-43772666D01*
X95868067Y-44043600D01*
X95495533Y-43400133D02*
X95495533Y-42959866D01*
X95766467Y-43196933D01*
X95766467Y-43095333D01*
X95800333Y-43027600D01*
X95834200Y-42993733D01*
X95901933Y-42959866D01*
X96071267Y-42959866D01*
X96139000Y-42993733D01*
X96172867Y-43027600D01*
X96206733Y-43095333D01*
X96206733Y-43298533D01*
X96172867Y-43366266D01*
X96139000Y-43400133D01*
X95495533Y-42316400D02*
X95495533Y-42655067D01*
X95834200Y-42688933D01*
X95800333Y-42655067D01*
X95766467Y-42587333D01*
X95766467Y-42418000D01*
X95800333Y-42350267D01*
X95834200Y-42316400D01*
X95901933Y-42282533D01*
X96071267Y-42282533D01*
X96139000Y-42316400D01*
X96172867Y-42350267D01*
X96206733Y-42418000D01*
X96206733Y-42587333D01*
X96172867Y-42655067D01*
X96139000Y-42688933D01*
X113097733Y-43129200D02*
X112759067Y-43366266D01*
X113097733Y-43535600D02*
X112386533Y-43535600D01*
X112386533Y-43264666D01*
X112420400Y-43196933D01*
X112454267Y-43163066D01*
X112522000Y-43129200D01*
X112623600Y-43129200D01*
X112691333Y-43163066D01*
X112725200Y-43196933D01*
X112759067Y-43264666D01*
X112759067Y-43535600D01*
X112386533Y-42892133D02*
X112386533Y-42451866D01*
X112657467Y-42688933D01*
X112657467Y-42587333D01*
X112691333Y-42519600D01*
X112725200Y-42485733D01*
X112792933Y-42451866D01*
X112962267Y-42451866D01*
X113030000Y-42485733D01*
X113063867Y-42519600D01*
X113097733Y-42587333D01*
X113097733Y-42790533D01*
X113063867Y-42858266D01*
X113030000Y-42892133D01*
X112386533Y-41842267D02*
X112386533Y-41977733D01*
X112420400Y-42045467D01*
X112454267Y-42079333D01*
X112555867Y-42147067D01*
X112691333Y-42180933D01*
X112962267Y-42180933D01*
X113030000Y-42147067D01*
X113063867Y-42113200D01*
X113097733Y-42045467D01*
X113097733Y-41910000D01*
X113063867Y-41842267D01*
X113030000Y-41808400D01*
X112962267Y-41774533D01*
X112792933Y-41774533D01*
X112725200Y-41808400D01*
X112691333Y-41842267D01*
X112657467Y-41910000D01*
X112657467Y-42045467D01*
X112691333Y-42113200D01*
X112725200Y-42147067D01*
X112792933Y-42180933D01*
X88713733Y-49860200D02*
X88375067Y-50097266D01*
X88713733Y-50266600D02*
X88002533Y-50266600D01*
X88002533Y-49995666D01*
X88036400Y-49927933D01*
X88070267Y-49894066D01*
X88138000Y-49860200D01*
X88239600Y-49860200D01*
X88307333Y-49894066D01*
X88341200Y-49927933D01*
X88375067Y-49995666D01*
X88375067Y-50266600D01*
X88002533Y-49623133D02*
X88002533Y-49182866D01*
X88273467Y-49419933D01*
X88273467Y-49318333D01*
X88307333Y-49250600D01*
X88341200Y-49216733D01*
X88408933Y-49182866D01*
X88578267Y-49182866D01*
X88646000Y-49216733D01*
X88679867Y-49250600D01*
X88713733Y-49318333D01*
X88713733Y-49521533D01*
X88679867Y-49589266D01*
X88646000Y-49623133D01*
X88002533Y-48945800D02*
X88002533Y-48471667D01*
X88713733Y-48776467D01*
X90491733Y-49860200D02*
X90153067Y-50097266D01*
X90491733Y-50266600D02*
X89780533Y-50266600D01*
X89780533Y-49995666D01*
X89814400Y-49927933D01*
X89848267Y-49894066D01*
X89916000Y-49860200D01*
X90017600Y-49860200D01*
X90085333Y-49894066D01*
X90119200Y-49927933D01*
X90153067Y-49995666D01*
X90153067Y-50266600D01*
X89780533Y-49623133D02*
X89780533Y-49182866D01*
X90051467Y-49419933D01*
X90051467Y-49318333D01*
X90085333Y-49250600D01*
X90119200Y-49216733D01*
X90186933Y-49182866D01*
X90356267Y-49182866D01*
X90424000Y-49216733D01*
X90457867Y-49250600D01*
X90491733Y-49318333D01*
X90491733Y-49521533D01*
X90457867Y-49589266D01*
X90424000Y-49623133D01*
X90085333Y-48776467D02*
X90051467Y-48844200D01*
X90017600Y-48878067D01*
X89949867Y-48911933D01*
X89916000Y-48911933D01*
X89848267Y-48878067D01*
X89814400Y-48844200D01*
X89780533Y-48776467D01*
X89780533Y-48641000D01*
X89814400Y-48573267D01*
X89848267Y-48539400D01*
X89916000Y-48505533D01*
X89949867Y-48505533D01*
X90017600Y-48539400D01*
X90051467Y-48573267D01*
X90085333Y-48641000D01*
X90085333Y-48776467D01*
X90119200Y-48844200D01*
X90153067Y-48878067D01*
X90220800Y-48911933D01*
X90356267Y-48911933D01*
X90424000Y-48878067D01*
X90457867Y-48844200D01*
X90491733Y-48776467D01*
X90491733Y-48641000D01*
X90457867Y-48573267D01*
X90424000Y-48539400D01*
X90356267Y-48505533D01*
X90220800Y-48505533D01*
X90153067Y-48539400D01*
X90119200Y-48573267D01*
X90085333Y-48641000D01*
X92269733Y-49860200D02*
X91931067Y-50097266D01*
X92269733Y-50266600D02*
X91558533Y-50266600D01*
X91558533Y-49995666D01*
X91592400Y-49927933D01*
X91626267Y-49894066D01*
X91694000Y-49860200D01*
X91795600Y-49860200D01*
X91863333Y-49894066D01*
X91897200Y-49927933D01*
X91931067Y-49995666D01*
X91931067Y-50266600D01*
X91558533Y-49623133D02*
X91558533Y-49182866D01*
X91829467Y-49419933D01*
X91829467Y-49318333D01*
X91863333Y-49250600D01*
X91897200Y-49216733D01*
X91964933Y-49182866D01*
X92134267Y-49182866D01*
X92202000Y-49216733D01*
X92235867Y-49250600D01*
X92269733Y-49318333D01*
X92269733Y-49521533D01*
X92235867Y-49589266D01*
X92202000Y-49623133D01*
X92269733Y-48844200D02*
X92269733Y-48708733D01*
X92235867Y-48641000D01*
X92202000Y-48607133D01*
X92100400Y-48539400D01*
X91964933Y-48505533D01*
X91694000Y-48505533D01*
X91626267Y-48539400D01*
X91592400Y-48573267D01*
X91558533Y-48641000D01*
X91558533Y-48776467D01*
X91592400Y-48844200D01*
X91626267Y-48878067D01*
X91694000Y-48911933D01*
X91863333Y-48911933D01*
X91931067Y-48878067D01*
X91964933Y-48844200D01*
X91998800Y-48776467D01*
X91998800Y-48641000D01*
X91964933Y-48573267D01*
X91931067Y-48539400D01*
X91863333Y-48505533D01*
X110430733Y-43637200D02*
X110092067Y-43874266D01*
X110430733Y-44043600D02*
X109719533Y-44043600D01*
X109719533Y-43772666D01*
X109753400Y-43704933D01*
X109787267Y-43671066D01*
X109855000Y-43637200D01*
X109956600Y-43637200D01*
X110024333Y-43671066D01*
X110058200Y-43704933D01*
X110092067Y-43772666D01*
X110092067Y-44043600D01*
X109956600Y-43027600D02*
X110430733Y-43027600D01*
X109685667Y-43196933D02*
X110193667Y-43366266D01*
X110193667Y-42926000D01*
X110430733Y-42282533D02*
X110430733Y-42688933D01*
X110430733Y-42485733D02*
X109719533Y-42485733D01*
X109821133Y-42553467D01*
X109888867Y-42621200D01*
X109922733Y-42688933D01*
X43247733Y-60655200D02*
X42909067Y-60892266D01*
X43247733Y-61061600D02*
X42536533Y-61061600D01*
X42536533Y-60790666D01*
X42570400Y-60722933D01*
X42604267Y-60689066D01*
X42672000Y-60655200D01*
X42773600Y-60655200D01*
X42841333Y-60689066D01*
X42875200Y-60722933D01*
X42909067Y-60790666D01*
X42909067Y-61061600D01*
X42773600Y-60045600D02*
X43247733Y-60045600D01*
X42502667Y-60214933D02*
X43010667Y-60384266D01*
X43010667Y-59944000D01*
X42604267Y-59706933D02*
X42570400Y-59673067D01*
X42536533Y-59605333D01*
X42536533Y-59436000D01*
X42570400Y-59368267D01*
X42604267Y-59334400D01*
X42672000Y-59300533D01*
X42739733Y-59300533D01*
X42841333Y-59334400D01*
X43247733Y-59740800D01*
X43247733Y-59300533D01*
X53915733Y-63957200D02*
X53577067Y-64194266D01*
X53915733Y-64363600D02*
X53204533Y-64363600D01*
X53204533Y-64092666D01*
X53238400Y-64024933D01*
X53272267Y-63991066D01*
X53340000Y-63957200D01*
X53441600Y-63957200D01*
X53509333Y-63991066D01*
X53543200Y-64024933D01*
X53577067Y-64092666D01*
X53577067Y-64363600D01*
X53441600Y-63347600D02*
X53915733Y-63347600D01*
X53170667Y-63516933D02*
X53678667Y-63686266D01*
X53678667Y-63246000D01*
X53204533Y-63042800D02*
X53204533Y-62602533D01*
X53475467Y-62839600D01*
X53475467Y-62738000D01*
X53509333Y-62670267D01*
X53543200Y-62636400D01*
X53610933Y-62602533D01*
X53780267Y-62602533D01*
X53848000Y-62636400D01*
X53881867Y-62670267D01*
X53915733Y-62738000D01*
X53915733Y-62941200D01*
X53881867Y-63008933D01*
X53848000Y-63042800D01*
X60773733Y-63957200D02*
X60435067Y-64194266D01*
X60773733Y-64363600D02*
X60062533Y-64363600D01*
X60062533Y-64092666D01*
X60096400Y-64024933D01*
X60130267Y-63991066D01*
X60198000Y-63957200D01*
X60299600Y-63957200D01*
X60367333Y-63991066D01*
X60401200Y-64024933D01*
X60435067Y-64092666D01*
X60435067Y-64363600D01*
X60299600Y-63347600D02*
X60773733Y-63347600D01*
X60028667Y-63516933D02*
X60536667Y-63686266D01*
X60536667Y-63246000D01*
X60299600Y-62670267D02*
X60773733Y-62670267D01*
X60028667Y-62839600D02*
X60536667Y-63008933D01*
X60536667Y-62568667D01*
X67377733Y-63957200D02*
X67039067Y-64194266D01*
X67377733Y-64363600D02*
X66666533Y-64363600D01*
X66666533Y-64092666D01*
X66700400Y-64024933D01*
X66734267Y-63991066D01*
X66802000Y-63957200D01*
X66903600Y-63957200D01*
X66971333Y-63991066D01*
X67005200Y-64024933D01*
X67039067Y-64092666D01*
X67039067Y-64363600D01*
X66903600Y-63347600D02*
X67377733Y-63347600D01*
X66632667Y-63516933D02*
X67140667Y-63686266D01*
X67140667Y-63246000D01*
X66666533Y-62636400D02*
X66666533Y-62975067D01*
X67005200Y-63008933D01*
X66971333Y-62975067D01*
X66937467Y-62907333D01*
X66937467Y-62738000D01*
X66971333Y-62670267D01*
X67005200Y-62636400D01*
X67072933Y-62602533D01*
X67242267Y-62602533D01*
X67310000Y-62636400D01*
X67343867Y-62670267D01*
X67377733Y-62738000D01*
X67377733Y-62907333D01*
X67343867Y-62975067D01*
X67310000Y-63008933D01*
X73981733Y-63957200D02*
X73643067Y-64194266D01*
X73981733Y-64363600D02*
X73270533Y-64363600D01*
X73270533Y-64092666D01*
X73304400Y-64024933D01*
X73338267Y-63991066D01*
X73406000Y-63957200D01*
X73507600Y-63957200D01*
X73575333Y-63991066D01*
X73609200Y-64024933D01*
X73643067Y-64092666D01*
X73643067Y-64363600D01*
X73507600Y-63347600D02*
X73981733Y-63347600D01*
X73236667Y-63516933D02*
X73744667Y-63686266D01*
X73744667Y-63246000D01*
X73270533Y-62670267D02*
X73270533Y-62805733D01*
X73304400Y-62873467D01*
X73338267Y-62907333D01*
X73439867Y-62975067D01*
X73575333Y-63008933D01*
X73846267Y-63008933D01*
X73914000Y-62975067D01*
X73947867Y-62941200D01*
X73981733Y-62873467D01*
X73981733Y-62738000D01*
X73947867Y-62670267D01*
X73914000Y-62636400D01*
X73846267Y-62602533D01*
X73676933Y-62602533D01*
X73609200Y-62636400D01*
X73575333Y-62670267D01*
X73541467Y-62738000D01*
X73541467Y-62873467D01*
X73575333Y-62941200D01*
X73609200Y-62975067D01*
X73676933Y-63008933D01*
X80687333Y-63195200D02*
X80348667Y-63432266D01*
X80687333Y-63601600D02*
X79976133Y-63601600D01*
X79976133Y-63330666D01*
X80010000Y-63262933D01*
X80043867Y-63229066D01*
X80111600Y-63195200D01*
X80213200Y-63195200D01*
X80280933Y-63229066D01*
X80314800Y-63262933D01*
X80348667Y-63330666D01*
X80348667Y-63601600D01*
X80213200Y-62585600D02*
X80687333Y-62585600D01*
X79942267Y-62754933D02*
X80450267Y-62924266D01*
X80450267Y-62484000D01*
X79976133Y-62280800D02*
X79976133Y-61806667D01*
X80687333Y-62111467D01*
X87189733Y-63195200D02*
X86851067Y-63432266D01*
X87189733Y-63601600D02*
X86478533Y-63601600D01*
X86478533Y-63330666D01*
X86512400Y-63262933D01*
X86546267Y-63229066D01*
X86614000Y-63195200D01*
X86715600Y-63195200D01*
X86783333Y-63229066D01*
X86817200Y-63262933D01*
X86851067Y-63330666D01*
X86851067Y-63601600D01*
X86715600Y-62585600D02*
X87189733Y-62585600D01*
X86444667Y-62754933D02*
X86952667Y-62924266D01*
X86952667Y-62484000D01*
X86783333Y-62111467D02*
X86749467Y-62179200D01*
X86715600Y-62213067D01*
X86647867Y-62246933D01*
X86614000Y-62246933D01*
X86546267Y-62213067D01*
X86512400Y-62179200D01*
X86478533Y-62111467D01*
X86478533Y-61976000D01*
X86512400Y-61908267D01*
X86546267Y-61874400D01*
X86614000Y-61840533D01*
X86647867Y-61840533D01*
X86715600Y-61874400D01*
X86749467Y-61908267D01*
X86783333Y-61976000D01*
X86783333Y-62111467D01*
X86817200Y-62179200D01*
X86851067Y-62213067D01*
X86918800Y-62246933D01*
X87054267Y-62246933D01*
X87122000Y-62213067D01*
X87155867Y-62179200D01*
X87189733Y-62111467D01*
X87189733Y-61976000D01*
X87155867Y-61908267D01*
X87122000Y-61874400D01*
X87054267Y-61840533D01*
X86918800Y-61840533D01*
X86851067Y-61874400D01*
X86817200Y-61908267D01*
X86783333Y-61976000D01*
X115366800Y-59757733D02*
X115129734Y-59419067D01*
X114960400Y-59757733D02*
X114960400Y-59046533D01*
X115231334Y-59046533D01*
X115299067Y-59080400D01*
X115332934Y-59114267D01*
X115366800Y-59182000D01*
X115366800Y-59283600D01*
X115332934Y-59351333D01*
X115299067Y-59385200D01*
X115231334Y-59419067D01*
X114960400Y-59419067D01*
X115976400Y-59283600D02*
X115976400Y-59757733D01*
X115807067Y-59012667D02*
X115637734Y-59520667D01*
X116078000Y-59520667D01*
X116382800Y-59757733D02*
X116518267Y-59757733D01*
X116586000Y-59723867D01*
X116619867Y-59690000D01*
X116687600Y-59588400D01*
X116721467Y-59452933D01*
X116721467Y-59182000D01*
X116687600Y-59114267D01*
X116653733Y-59080400D01*
X116586000Y-59046533D01*
X116450533Y-59046533D01*
X116382800Y-59080400D01*
X116348933Y-59114267D01*
X116315067Y-59182000D01*
X116315067Y-59351333D01*
X116348933Y-59419067D01*
X116382800Y-59452933D01*
X116450533Y-59486800D01*
X116586000Y-59486800D01*
X116653733Y-59452933D01*
X116687600Y-59419067D01*
X116721467Y-59351333D01*
X115366800Y-57725733D02*
X115129734Y-57387067D01*
X114960400Y-57725733D02*
X114960400Y-57014533D01*
X115231334Y-57014533D01*
X115299067Y-57048400D01*
X115332934Y-57082267D01*
X115366800Y-57150000D01*
X115366800Y-57251600D01*
X115332934Y-57319333D01*
X115299067Y-57353200D01*
X115231334Y-57387067D01*
X114960400Y-57387067D01*
X116010267Y-57014533D02*
X115671600Y-57014533D01*
X115637734Y-57353200D01*
X115671600Y-57319333D01*
X115739334Y-57285467D01*
X115908667Y-57285467D01*
X115976400Y-57319333D01*
X116010267Y-57353200D01*
X116044134Y-57420933D01*
X116044134Y-57590267D01*
X116010267Y-57658000D01*
X115976400Y-57691867D01*
X115908667Y-57725733D01*
X115739334Y-57725733D01*
X115671600Y-57691867D01*
X115637734Y-57658000D01*
X116484400Y-57014533D02*
X116552133Y-57014533D01*
X116619867Y-57048400D01*
X116653733Y-57082267D01*
X116687600Y-57150000D01*
X116721467Y-57285467D01*
X116721467Y-57454800D01*
X116687600Y-57590267D01*
X116653733Y-57658000D01*
X116619867Y-57691867D01*
X116552133Y-57725733D01*
X116484400Y-57725733D01*
X116416667Y-57691867D01*
X116382800Y-57658000D01*
X116348933Y-57590267D01*
X116315067Y-57454800D01*
X116315067Y-57285467D01*
X116348933Y-57150000D01*
X116382800Y-57082267D01*
X116416667Y-57048400D01*
X116484400Y-57014533D01*
M02*
