M48
;DRILL file {Pcbnew (25-Oct-2014 BZR 4029)-stable} date Wed 10 Jun 2015 01:48:58 AM EDT
;FORMAT={-:-/ absolute / inch / decimal}
FMAT,2
INCH,TZ
T1C0.015
T2C0.025
T3C0.032
T4C0.035
T5C0.039
T6C0.040
T7C0.055
%
G90
G05
M72
T1
X1.3Y-2.33
X1.39Y-1.62
X1.51Y-1.61
X1.57Y-2.17
X1.71Y-1.61
X1.82Y-2.59
X1.82Y-2.65
X1.82Y-2.71
X1.82Y-2.77
X1.82Y-2.83
X1.85Y-2.62
X1.85Y-2.68
X1.85Y-2.74
X1.85Y-2.8
X1.87Y-1.74
X1.95Y-1.62
X2.02Y-2.26
X2.06Y-2.26
X2.07Y-1.61
X2.16Y-2.3
X2.22Y-2.21
X2.27Y-1.61
X2.365Y-2.2494
X2.37Y-2.59
X2.37Y-2.65
X2.37Y-2.71
X2.37Y-2.77
X2.37Y-2.83
X2.4Y-2.62
X2.4Y-2.68
X2.4Y-2.74
X2.4Y-2.8
X2.4Y-2.86
X2.415Y-2.48
X2.43Y-1.74
X2.465Y-2.45
X2.51Y-1.62
X2.51Y-2.07
X2.53Y-1.97
X2.63Y-1.61
X2.685Y-2.2494
X2.69Y-2.45
X2.75Y-2.48
X2.79Y-2.45
X2.83Y-1.61
X2.83Y-2.07
X2.84Y-2.65
X2.85Y-1.97
X2.99Y-1.74
X3.005Y-2.2494
X3.01Y-2.45
X3.06Y-2.47
X3.07Y-1.62
X3.07Y-2.6
X3.11Y-2.45
X3.15Y-1.97
X3.15Y-2.07
X3.19Y-1.61
X3.325Y-2.2494
X3.33Y-2.45
X3.38Y-2.47
X3.38Y-2.7
X3.39Y-1.61
X3.39Y-2.54
X3.43Y-2.45
X3.44Y-2.54
X3.45Y-2.7
X3.47Y-2.07
X3.49Y-1.97
X3.55Y-1.74
X3.62Y-2.54
X3.62Y-2.61
X3.62Y-2.69
X3.62Y-2.78
X3.63Y-1.62
X3.645Y-2.2494
X3.65Y-2.45
X3.66Y-2.65
X3.66Y-2.74
X3.66Y-2.82
X3.67Y-2.54
X3.7Y-2.47
X3.75Y-1.61
X3.75Y-2.45
X3.79Y-2.07
X3.8Y-1.97
X3.84Y-2.67
X3.87Y-2.44
X3.89Y-2.67
X3.89Y-2.71
X3.89Y-2.75
X3.9Y-2.475
X3.93Y-2.44
X3.93Y-2.75
X3.945Y-2.6
X3.95Y-1.61
X3.96Y-2.475
X3.97Y-2.75
X3.99Y-2.44
X4.03Y-2.75
X4.03Y-2.82
X4.11Y-1.74
X4.11Y-2.07
X4.11Y-2.87
X4.17Y-2.72
X4.18Y-2.62
X4.19Y-1.62
X4.2Y-2.375
X4.21Y-2.59
X4.26Y-2.76
X4.31Y-1.61
X4.45Y-2.11
X4.5Y-2.74
X4.51Y-1.61
X4.52Y-2.08
X4.52Y-2.14
X4.52Y-2.2
X4.52Y-2.26
X4.52Y-2.32
X4.53Y-2.4
X4.53Y-2.48
X4.53Y-2.89
X4.55Y-2.11
X4.55Y-2.17
X4.55Y-2.23
X4.55Y-2.29
X4.58Y-2.84
X4.58Y-2.89
X4.61Y-1.83
X4.85Y-1.86
T2
X1.46Y-2.14
X1.46Y-2.19
X1.46Y-2.24
X1.87Y-2.43
X4.52Y-1.92
T3
X1.59Y-1.58
X1.79Y-1.58
X2.15Y-1.58
X2.35Y-1.58
X2.71Y-1.58
X2.91Y-1.58
X3.27Y-1.58
X3.47Y-1.58
X3.83Y-1.58
X4.03Y-1.58
X4.39Y-1.58
X4.59Y-1.58
X4.82Y-2.57
X4.82Y-2.67
X4.82Y-2.77
X4.82Y-2.87
T4
X1.495Y-1.47
X1.545Y-1.37
X1.595Y-1.47
X1.645Y-1.37
X2.055Y-1.47
X2.105Y-1.37
X2.155Y-1.47
X2.205Y-1.37
X2.615Y-1.47
X2.665Y-1.37
X2.715Y-1.47
X2.765Y-1.37
X3.175Y-1.47
X3.225Y-1.37
X3.275Y-1.47
X3.325Y-1.37
X3.735Y-1.47
X3.785Y-1.37
X3.835Y-1.47
X3.885Y-1.37
X4.295Y-1.47
X4.345Y-1.37
X4.395Y-1.47
X4.445Y-1.37
T6
X2.02Y-2.6
X2.02Y-2.8
T7
X1.14Y-2.04
X1.14Y-2.24
X1.14Y-2.64
X1.14Y-2.84
T5
X1.4406Y-2.5359G85X1.5193Y-2.5359
G05
X1.4406Y-2.7721G85X1.5193Y-2.7721
G05
X1.665Y-2.6934G85X1.665Y-2.6147
G05
T0
M30
