G04 (created by PCBNEW (2013-mar-13)-testing) date Sat 31 Jan 2015 08:43:09 PM EST*
%MOIN*%
G04 Gerber Fmt 3.4, Leading zero omitted, Abs format*
%FSLAX34Y34*%
G01*
G70*
G90*
G04 APERTURE LIST*
%ADD10C,0.005906*%
%ADD11C,0.005118*%
%ADD12C,0.003900*%
%ADD13C,0.005000*%
%ADD14C,0.002600*%
%ADD15C,0.004000*%
%ADD16C,0.012000*%
%ADD17C,0.002800*%
%ADD18C,0.008000*%
G04 APERTURE END LIST*
G54D10*
G54D11*
X46728Y-45364D02*
X46728Y-45464D01*
X46885Y-45507D02*
X46885Y-45364D01*
X46585Y-45364D01*
X46585Y-45507D01*
X46885Y-45635D02*
X46685Y-45635D01*
X46742Y-45635D02*
X46714Y-45650D01*
X46700Y-45664D01*
X46685Y-45692D01*
X46685Y-45721D01*
X46885Y-45821D02*
X46685Y-45821D01*
X46585Y-45821D02*
X46600Y-45807D01*
X46614Y-45821D01*
X46600Y-45835D01*
X46585Y-45821D01*
X46614Y-45821D01*
X46871Y-46092D02*
X46885Y-46064D01*
X46885Y-46007D01*
X46871Y-45978D01*
X46857Y-45964D01*
X46828Y-45950D01*
X46742Y-45950D01*
X46714Y-45964D01*
X46700Y-45978D01*
X46685Y-46007D01*
X46685Y-46064D01*
X46700Y-46092D01*
X46585Y-46407D02*
X46885Y-46507D01*
X46585Y-46607D01*
X46885Y-46835D02*
X46728Y-46835D01*
X46700Y-46821D01*
X46685Y-46792D01*
X46685Y-46735D01*
X46700Y-46707D01*
X46871Y-46835D02*
X46885Y-46807D01*
X46885Y-46735D01*
X46871Y-46707D01*
X46842Y-46692D01*
X46814Y-46692D01*
X46785Y-46707D01*
X46771Y-46735D01*
X46771Y-46807D01*
X46757Y-46835D01*
X46685Y-46978D02*
X46885Y-46978D01*
X46714Y-46978D02*
X46700Y-46992D01*
X46685Y-47021D01*
X46685Y-47064D01*
X46700Y-47092D01*
X46728Y-47107D01*
X46885Y-47107D01*
X46800Y-47464D02*
X46800Y-47607D01*
X46885Y-47435D02*
X46585Y-47535D01*
X46885Y-47635D01*
X46885Y-47778D02*
X46871Y-47750D01*
X46842Y-47735D01*
X46585Y-47735D01*
X46885Y-47892D02*
X46585Y-47892D01*
X46700Y-47892D02*
X46685Y-47921D01*
X46685Y-47978D01*
X46700Y-48007D01*
X46714Y-48021D01*
X46742Y-48035D01*
X46828Y-48035D01*
X46857Y-48021D01*
X46871Y-48007D01*
X46885Y-47978D01*
X46885Y-47921D01*
X46871Y-47892D01*
X46871Y-48278D02*
X46885Y-48250D01*
X46885Y-48192D01*
X46871Y-48164D01*
X46842Y-48150D01*
X46728Y-48150D01*
X46700Y-48164D01*
X46685Y-48192D01*
X46685Y-48250D01*
X46700Y-48278D01*
X46728Y-48292D01*
X46757Y-48292D01*
X46785Y-48150D01*
X46885Y-48421D02*
X46685Y-48421D01*
X46742Y-48421D02*
X46714Y-48435D01*
X46700Y-48450D01*
X46685Y-48478D01*
X46685Y-48507D01*
X46685Y-48564D02*
X46685Y-48678D01*
X46585Y-48607D02*
X46842Y-48607D01*
X46871Y-48621D01*
X46885Y-48650D01*
X46885Y-48678D01*
X46385Y-43414D02*
X46085Y-43414D01*
X46085Y-43485D01*
X46100Y-43528D01*
X46128Y-43557D01*
X46157Y-43571D01*
X46214Y-43585D01*
X46257Y-43585D01*
X46314Y-43571D01*
X46342Y-43557D01*
X46371Y-43528D01*
X46385Y-43485D01*
X46385Y-43414D01*
X46385Y-43714D02*
X46185Y-43714D01*
X46085Y-43714D02*
X46100Y-43700D01*
X46114Y-43714D01*
X46100Y-43728D01*
X46085Y-43714D01*
X46114Y-43714D01*
X46185Y-43985D02*
X46428Y-43985D01*
X46457Y-43971D01*
X46471Y-43957D01*
X46485Y-43928D01*
X46485Y-43885D01*
X46471Y-43857D01*
X46371Y-43985D02*
X46385Y-43957D01*
X46385Y-43900D01*
X46371Y-43871D01*
X46357Y-43857D01*
X46328Y-43842D01*
X46242Y-43842D01*
X46214Y-43857D01*
X46200Y-43871D01*
X46185Y-43900D01*
X46185Y-43957D01*
X46200Y-43985D01*
X46385Y-44128D02*
X46185Y-44128D01*
X46085Y-44128D02*
X46100Y-44114D01*
X46114Y-44128D01*
X46100Y-44142D01*
X46085Y-44128D01*
X46114Y-44128D01*
X46185Y-44228D02*
X46185Y-44342D01*
X46085Y-44271D02*
X46342Y-44271D01*
X46371Y-44285D01*
X46385Y-44314D01*
X46385Y-44342D01*
X46385Y-44571D02*
X46228Y-44571D01*
X46200Y-44557D01*
X46185Y-44528D01*
X46185Y-44471D01*
X46200Y-44442D01*
X46371Y-44571D02*
X46385Y-44542D01*
X46385Y-44471D01*
X46371Y-44442D01*
X46342Y-44428D01*
X46314Y-44428D01*
X46285Y-44442D01*
X46271Y-44471D01*
X46271Y-44542D01*
X46257Y-44571D01*
X46385Y-44757D02*
X46371Y-44728D01*
X46342Y-44714D01*
X46085Y-44714D01*
X46385Y-45242D02*
X46385Y-45100D01*
X46085Y-45100D01*
X46228Y-45342D02*
X46228Y-45442D01*
X46385Y-45485D02*
X46385Y-45342D01*
X46085Y-45342D01*
X46085Y-45485D01*
X46385Y-45614D02*
X46085Y-45614D01*
X46085Y-45685D01*
X46100Y-45728D01*
X46128Y-45757D01*
X46157Y-45771D01*
X46214Y-45785D01*
X46257Y-45785D01*
X46314Y-45771D01*
X46342Y-45757D01*
X46371Y-45728D01*
X46385Y-45685D01*
X46385Y-45614D01*
X46371Y-46128D02*
X46385Y-46171D01*
X46385Y-46242D01*
X46371Y-46271D01*
X46357Y-46285D01*
X46328Y-46300D01*
X46300Y-46300D01*
X46271Y-46285D01*
X46257Y-46271D01*
X46242Y-46242D01*
X46228Y-46185D01*
X46214Y-46157D01*
X46200Y-46142D01*
X46171Y-46128D01*
X46142Y-46128D01*
X46114Y-46142D01*
X46100Y-46157D01*
X46085Y-46185D01*
X46085Y-46257D01*
X46100Y-46300D01*
X46185Y-46385D02*
X46185Y-46500D01*
X46085Y-46428D02*
X46342Y-46428D01*
X46371Y-46442D01*
X46385Y-46471D01*
X46385Y-46500D01*
X46385Y-46600D02*
X46185Y-46600D01*
X46242Y-46600D02*
X46214Y-46614D01*
X46200Y-46628D01*
X46185Y-46657D01*
X46185Y-46685D01*
X46385Y-46785D02*
X46185Y-46785D01*
X46085Y-46785D02*
X46100Y-46771D01*
X46114Y-46785D01*
X46100Y-46800D01*
X46085Y-46785D01*
X46114Y-46785D01*
X46185Y-46928D02*
X46485Y-46928D01*
X46200Y-46928D02*
X46185Y-46957D01*
X46185Y-47014D01*
X46200Y-47042D01*
X46214Y-47057D01*
X46242Y-47071D01*
X46328Y-47071D01*
X46357Y-47057D01*
X46371Y-47042D01*
X46385Y-47014D01*
X46385Y-46957D01*
X46371Y-46928D01*
X46385Y-47428D02*
X46085Y-47428D01*
X46085Y-47500D01*
X46100Y-47542D01*
X46128Y-47571D01*
X46157Y-47585D01*
X46214Y-47600D01*
X46257Y-47600D01*
X46314Y-47585D01*
X46342Y-47571D01*
X46371Y-47542D01*
X46385Y-47500D01*
X46385Y-47428D01*
X46385Y-47728D02*
X46185Y-47728D01*
X46242Y-47728D02*
X46214Y-47742D01*
X46200Y-47757D01*
X46185Y-47785D01*
X46185Y-47814D01*
X46385Y-47914D02*
X46185Y-47914D01*
X46085Y-47914D02*
X46100Y-47900D01*
X46114Y-47914D01*
X46100Y-47928D01*
X46085Y-47914D01*
X46114Y-47914D01*
X46185Y-48028D02*
X46385Y-48100D01*
X46185Y-48171D01*
X46371Y-48400D02*
X46385Y-48371D01*
X46385Y-48314D01*
X46371Y-48285D01*
X46342Y-48271D01*
X46228Y-48271D01*
X46200Y-48285D01*
X46185Y-48314D01*
X46185Y-48371D01*
X46200Y-48400D01*
X46228Y-48414D01*
X46257Y-48414D01*
X46285Y-48271D01*
X46385Y-48542D02*
X46185Y-48542D01*
X46242Y-48542D02*
X46214Y-48557D01*
X46200Y-48571D01*
X46185Y-48600D01*
X46185Y-48628D01*
X46885Y-43478D02*
X46685Y-43478D01*
X46742Y-43478D02*
X46714Y-43492D01*
X46700Y-43507D01*
X46685Y-43535D01*
X46685Y-43564D01*
X46871Y-43778D02*
X46885Y-43750D01*
X46885Y-43692D01*
X46871Y-43664D01*
X46842Y-43650D01*
X46728Y-43650D01*
X46700Y-43664D01*
X46685Y-43692D01*
X46685Y-43750D01*
X46700Y-43778D01*
X46728Y-43792D01*
X46757Y-43792D01*
X46785Y-43650D01*
X46685Y-43892D02*
X46885Y-43964D01*
X46685Y-44035D01*
X46585Y-44521D02*
X46585Y-44378D01*
X46728Y-44364D01*
X46714Y-44378D01*
X46700Y-44407D01*
X46700Y-44478D01*
X46714Y-44507D01*
X46728Y-44521D01*
X46757Y-44535D01*
X46828Y-44535D01*
X46857Y-44521D01*
X46871Y-44507D01*
X46885Y-44478D01*
X46885Y-44407D01*
X46871Y-44378D01*
X46857Y-44364D01*
X62714Y-47521D02*
X62485Y-47521D01*
X62507Y-46607D02*
X62521Y-46621D01*
X62564Y-46635D01*
X62592Y-46635D01*
X62635Y-46621D01*
X62664Y-46592D01*
X62678Y-46564D01*
X62692Y-46507D01*
X62692Y-46464D01*
X62678Y-46407D01*
X62664Y-46378D01*
X62635Y-46350D01*
X62592Y-46335D01*
X62564Y-46335D01*
X62521Y-46350D01*
X62507Y-46364D01*
X62678Y-45635D02*
X62678Y-45335D01*
X62607Y-45335D01*
X62564Y-45350D01*
X62535Y-45378D01*
X62521Y-45407D01*
X62507Y-45464D01*
X62507Y-45507D01*
X62521Y-45564D01*
X62535Y-45592D01*
X62564Y-45621D01*
X62607Y-45635D01*
X62678Y-45635D01*
X62714Y-44521D02*
X62485Y-44521D01*
X62600Y-44635D02*
X62600Y-44407D01*
X57449Y-48335D02*
X57449Y-48035D01*
X57335Y-48035D01*
X57307Y-48050D01*
X57292Y-48064D01*
X57278Y-48092D01*
X57278Y-48135D01*
X57292Y-48164D01*
X57307Y-48178D01*
X57335Y-48192D01*
X57449Y-48192D01*
X57178Y-48035D02*
X57107Y-48335D01*
X57049Y-48121D01*
X56992Y-48335D01*
X56921Y-48035D01*
X56635Y-48335D02*
X56735Y-48192D01*
X56807Y-48335D02*
X56807Y-48035D01*
X56692Y-48035D01*
X56664Y-48050D01*
X56650Y-48064D01*
X56635Y-48092D01*
X56635Y-48135D01*
X56650Y-48164D01*
X56664Y-48178D01*
X56692Y-48192D01*
X56807Y-48192D01*
X57457Y-43921D02*
X57414Y-43935D01*
X57342Y-43935D01*
X57314Y-43921D01*
X57299Y-43907D01*
X57285Y-43878D01*
X57285Y-43850D01*
X57299Y-43821D01*
X57314Y-43807D01*
X57342Y-43792D01*
X57399Y-43778D01*
X57428Y-43764D01*
X57442Y-43750D01*
X57457Y-43721D01*
X57457Y-43692D01*
X57442Y-43664D01*
X57428Y-43650D01*
X57399Y-43635D01*
X57328Y-43635D01*
X57285Y-43650D01*
X57185Y-43635D02*
X57114Y-43935D01*
X57057Y-43721D01*
X57000Y-43935D01*
X56928Y-43635D01*
X56814Y-43935D02*
X56814Y-43635D01*
X56742Y-43635D01*
X56700Y-43650D01*
X56671Y-43678D01*
X56657Y-43707D01*
X56642Y-43764D01*
X56642Y-43807D01*
X56657Y-43864D01*
X56671Y-43892D01*
X56700Y-43921D01*
X56742Y-43935D01*
X56814Y-43935D01*
X57264Y-46121D02*
X57221Y-46135D01*
X57149Y-46135D01*
X57121Y-46121D01*
X57107Y-46107D01*
X57092Y-46078D01*
X57092Y-46050D01*
X57107Y-46021D01*
X57121Y-46007D01*
X57149Y-45992D01*
X57207Y-45978D01*
X57235Y-45964D01*
X57249Y-45950D01*
X57264Y-45921D01*
X57264Y-45892D01*
X57249Y-45864D01*
X57235Y-45850D01*
X57207Y-45835D01*
X57135Y-45835D01*
X57092Y-45850D01*
X57007Y-45835D02*
X56835Y-45835D01*
X56921Y-46135D02*
X56921Y-45835D01*
X56735Y-46135D02*
X56735Y-45835D01*
X56635Y-46050D01*
X56535Y-45835D01*
X56535Y-46135D01*
X56421Y-45835D02*
X56235Y-45835D01*
X56335Y-45950D01*
X56292Y-45950D01*
X56264Y-45964D01*
X56249Y-45978D01*
X56235Y-46007D01*
X56235Y-46078D01*
X56249Y-46107D01*
X56264Y-46121D01*
X56292Y-46135D01*
X56378Y-46135D01*
X56407Y-46121D01*
X56421Y-46107D01*
X56121Y-45864D02*
X56107Y-45850D01*
X56078Y-45835D01*
X56007Y-45835D01*
X55978Y-45850D01*
X55964Y-45864D01*
X55950Y-45892D01*
X55950Y-45921D01*
X55964Y-45964D01*
X56135Y-46135D01*
X55950Y-46135D01*
X55721Y-45978D02*
X55821Y-45978D01*
X55821Y-46135D02*
X55821Y-45835D01*
X55678Y-45835D01*
X55507Y-45835D02*
X55478Y-45835D01*
X55450Y-45850D01*
X55435Y-45864D01*
X55421Y-45892D01*
X55407Y-45950D01*
X55407Y-46021D01*
X55421Y-46078D01*
X55435Y-46107D01*
X55450Y-46121D01*
X55478Y-46135D01*
X55507Y-46135D01*
X55535Y-46121D01*
X55550Y-46107D01*
X55564Y-46078D01*
X55578Y-46021D01*
X55578Y-45950D01*
X55564Y-45892D01*
X55550Y-45864D01*
X55535Y-45850D01*
X55507Y-45835D01*
X55307Y-45835D02*
X55121Y-45835D01*
X55221Y-45950D01*
X55178Y-45950D01*
X55150Y-45964D01*
X55135Y-45978D01*
X55121Y-46007D01*
X55121Y-46078D01*
X55135Y-46107D01*
X55150Y-46121D01*
X55178Y-46135D01*
X55264Y-46135D01*
X55292Y-46121D01*
X55307Y-46107D01*
X54935Y-45835D02*
X54907Y-45835D01*
X54878Y-45850D01*
X54864Y-45864D01*
X54850Y-45892D01*
X54835Y-45950D01*
X54835Y-46021D01*
X54850Y-46078D01*
X54864Y-46107D01*
X54878Y-46121D01*
X54907Y-46135D01*
X54935Y-46135D01*
X54964Y-46121D01*
X54978Y-46107D01*
X54992Y-46078D01*
X55007Y-46021D01*
X55007Y-45950D01*
X54992Y-45892D01*
X54978Y-45864D01*
X54964Y-45850D01*
X54935Y-45835D01*
X54707Y-46135D02*
X54707Y-45835D01*
X54535Y-46135D02*
X54664Y-45964D01*
X54535Y-45835D02*
X54707Y-46007D01*
X54278Y-45835D02*
X54335Y-45835D01*
X54364Y-45850D01*
X54378Y-45864D01*
X54407Y-45907D01*
X54421Y-45964D01*
X54421Y-46078D01*
X54407Y-46107D01*
X54392Y-46121D01*
X54364Y-46135D01*
X54307Y-46135D01*
X54278Y-46121D01*
X54264Y-46107D01*
X54250Y-46078D01*
X54250Y-46007D01*
X54264Y-45978D01*
X54278Y-45964D01*
X54307Y-45950D01*
X54364Y-45950D01*
X54392Y-45964D01*
X54407Y-45978D01*
X54421Y-46007D01*
X54164Y-45835D02*
X53992Y-45835D01*
X54078Y-46135D02*
X54078Y-45835D01*
X53764Y-45835D02*
X53821Y-45835D01*
X53850Y-45850D01*
X53864Y-45864D01*
X53892Y-45907D01*
X53907Y-45964D01*
X53907Y-46078D01*
X53892Y-46107D01*
X53878Y-46121D01*
X53850Y-46135D01*
X53792Y-46135D01*
X53764Y-46121D01*
X53750Y-46107D01*
X53735Y-46078D01*
X53735Y-46007D01*
X53750Y-45978D01*
X53764Y-45964D01*
X53792Y-45950D01*
X53850Y-45950D01*
X53878Y-45964D01*
X53892Y-45978D01*
X53907Y-46007D01*
G54D12*
X51601Y-44150D02*
X51201Y-44150D01*
X51201Y-44150D02*
X51201Y-44750D01*
X51201Y-44750D02*
X51601Y-44750D01*
X52198Y-44750D02*
X52598Y-44750D01*
X52598Y-44750D02*
X52598Y-44150D01*
X52598Y-44150D02*
X52198Y-44150D01*
G54D13*
X52200Y-44950D02*
X52250Y-44950D01*
X52250Y-44950D02*
X52250Y-47050D01*
X50750Y-47050D02*
X50750Y-44950D01*
X50750Y-44950D02*
X52200Y-44950D01*
X51300Y-44950D02*
X51300Y-45150D01*
X51300Y-45150D02*
X51700Y-45150D01*
X51700Y-45150D02*
X51700Y-44950D01*
X50750Y-47050D02*
X52250Y-47050D01*
G54D10*
X51460Y-47460D02*
X51460Y-47500D01*
X51500Y-47460D02*
X51500Y-47539D01*
X51539Y-47421D02*
X51539Y-47578D01*
X51578Y-47342D02*
X51421Y-47500D01*
X51421Y-47500D02*
X51578Y-47657D01*
X51578Y-47657D02*
X51578Y-47342D01*
G54D14*
X51323Y-47323D02*
X51323Y-47677D01*
X51323Y-47677D02*
X51166Y-47677D01*
X51166Y-47323D02*
X51166Y-47677D01*
X51323Y-47323D02*
X51166Y-47323D01*
X51834Y-47323D02*
X51834Y-47677D01*
X51834Y-47677D02*
X51677Y-47677D01*
X51677Y-47323D02*
X51677Y-47677D01*
X51834Y-47323D02*
X51677Y-47323D01*
G54D15*
X51323Y-47343D02*
X51677Y-47343D01*
X51323Y-47657D02*
X51677Y-47657D01*
G54D16*
X57500Y-42500D02*
X57500Y-42500D01*
X57500Y-43500D02*
X57500Y-42500D01*
X57500Y-42500D02*
X57500Y-42500D01*
X57500Y-42500D02*
X53500Y-42500D01*
X53500Y-42500D02*
X53500Y-43500D01*
X53500Y-43500D02*
X57500Y-43500D01*
X56500Y-43500D02*
X56500Y-42500D01*
X53500Y-49500D02*
X53500Y-49500D01*
X53500Y-48500D02*
X53500Y-49500D01*
X53500Y-49500D02*
X53500Y-49500D01*
X53500Y-49500D02*
X57500Y-49500D01*
X57500Y-49500D02*
X57500Y-48500D01*
X57500Y-48500D02*
X53500Y-48500D01*
X54500Y-48500D02*
X54500Y-49500D01*
G54D17*
X50300Y-44251D02*
X50300Y-44051D01*
X50300Y-44051D02*
X50600Y-44051D01*
X50600Y-44051D02*
X50600Y-44251D01*
X50300Y-44648D02*
X50300Y-44848D01*
X50300Y-44848D02*
X50600Y-44848D01*
X50600Y-44848D02*
X50600Y-44648D01*
X53851Y-44150D02*
X53651Y-44150D01*
X53651Y-44150D02*
X53651Y-43850D01*
X53651Y-43850D02*
X53851Y-43850D01*
X54248Y-44150D02*
X54448Y-44150D01*
X54448Y-44150D02*
X54448Y-43850D01*
X54448Y-43850D02*
X54248Y-43850D01*
X49350Y-45801D02*
X49350Y-45601D01*
X49350Y-45601D02*
X49650Y-45601D01*
X49650Y-45601D02*
X49650Y-45801D01*
X49350Y-46198D02*
X49350Y-46398D01*
X49350Y-46398D02*
X49650Y-46398D01*
X49650Y-46398D02*
X49650Y-46198D01*
X52450Y-47551D02*
X52450Y-47351D01*
X52450Y-47351D02*
X52750Y-47351D01*
X52750Y-47351D02*
X52750Y-47551D01*
X52450Y-47948D02*
X52450Y-48148D01*
X52450Y-48148D02*
X52750Y-48148D01*
X52750Y-48148D02*
X52750Y-47948D01*
X61150Y-46698D02*
X61150Y-46898D01*
X61150Y-46898D02*
X60850Y-46898D01*
X60850Y-46898D02*
X60850Y-46698D01*
X61150Y-46301D02*
X61150Y-46101D01*
X61150Y-46101D02*
X60850Y-46101D01*
X60850Y-46101D02*
X60850Y-46301D01*
X60850Y-45301D02*
X60850Y-45101D01*
X60850Y-45101D02*
X61150Y-45101D01*
X61150Y-45101D02*
X61150Y-45301D01*
X60850Y-45698D02*
X60850Y-45898D01*
X60850Y-45898D02*
X61150Y-45898D01*
X61150Y-45898D02*
X61150Y-45698D01*
G54D10*
X58118Y-47181D02*
X60481Y-47181D01*
X60481Y-47181D02*
X60481Y-44818D01*
X60481Y-44818D02*
X58118Y-44818D01*
X58118Y-44818D02*
X58118Y-47181D01*
X59988Y-46000D02*
G75*
G03X59988Y-46000I-688J0D01*
G74*
G01*
G54D18*
X53578Y-45972D02*
X53578Y-46027D01*
X55657Y-47391D02*
G75*
G03X55657Y-47391I-157J0D01*
G74*
G01*
X53578Y-46027D02*
X55472Y-47921D01*
X55472Y-47921D02*
X55527Y-47921D01*
X55527Y-47921D02*
X57421Y-46027D01*
X57421Y-46027D02*
X57421Y-45972D01*
X57421Y-45972D02*
X55527Y-44078D01*
X55527Y-44078D02*
X55472Y-44078D01*
X55472Y-44078D02*
X53578Y-45972D01*
G54D11*
X51950Y-44057D02*
X51964Y-44071D01*
X52007Y-44085D01*
X52035Y-44085D01*
X52078Y-44071D01*
X52107Y-44042D01*
X52121Y-44014D01*
X52135Y-43957D01*
X52135Y-43914D01*
X52121Y-43857D01*
X52107Y-43828D01*
X52078Y-43800D01*
X52035Y-43785D01*
X52007Y-43785D01*
X51964Y-43800D01*
X51950Y-43814D01*
X51807Y-44085D02*
X51750Y-44085D01*
X51721Y-44071D01*
X51707Y-44057D01*
X51678Y-44014D01*
X51664Y-43957D01*
X51664Y-43842D01*
X51678Y-43814D01*
X51692Y-43800D01*
X51721Y-43785D01*
X51778Y-43785D01*
X51807Y-43800D01*
X51821Y-43814D01*
X51835Y-43842D01*
X51835Y-43914D01*
X51821Y-43942D01*
X51807Y-43957D01*
X51778Y-43971D01*
X51721Y-43971D01*
X51692Y-43957D01*
X51678Y-43942D01*
X51664Y-43914D01*
X50478Y-47085D02*
X50478Y-47328D01*
X50464Y-47357D01*
X50450Y-47371D01*
X50421Y-47385D01*
X50364Y-47385D01*
X50335Y-47371D01*
X50321Y-47357D01*
X50307Y-47328D01*
X50307Y-47085D01*
X50007Y-47385D02*
X50178Y-47385D01*
X50092Y-47385D02*
X50092Y-47085D01*
X50121Y-47128D01*
X50150Y-47157D01*
X50178Y-47171D01*
X50885Y-47278D02*
X50585Y-47278D01*
X50585Y-47350D01*
X50600Y-47392D01*
X50628Y-47421D01*
X50657Y-47435D01*
X50714Y-47450D01*
X50757Y-47450D01*
X50814Y-47435D01*
X50842Y-47421D01*
X50871Y-47392D01*
X50885Y-47350D01*
X50885Y-47278D01*
X50885Y-47735D02*
X50885Y-47564D01*
X50885Y-47650D02*
X50585Y-47650D01*
X50628Y-47621D01*
X50657Y-47592D01*
X50671Y-47564D01*
X51692Y-48135D02*
X51835Y-48135D01*
X51835Y-47835D01*
X51592Y-47978D02*
X51492Y-47978D01*
X51450Y-48135D02*
X51592Y-48135D01*
X51592Y-47835D01*
X51450Y-47835D01*
X51321Y-48135D02*
X51321Y-47835D01*
X51250Y-47835D01*
X51207Y-47850D01*
X51178Y-47878D01*
X51164Y-47907D01*
X51150Y-47964D01*
X51150Y-48007D01*
X51164Y-48064D01*
X51178Y-48092D01*
X51207Y-48121D01*
X51250Y-48135D01*
X51321Y-48135D01*
X53385Y-42778D02*
X53085Y-42778D01*
X53085Y-42892D01*
X53100Y-42921D01*
X53114Y-42935D01*
X53142Y-42950D01*
X53185Y-42950D01*
X53214Y-42935D01*
X53228Y-42921D01*
X53242Y-42892D01*
X53242Y-42778D01*
X53185Y-43207D02*
X53385Y-43207D01*
X53071Y-43135D02*
X53285Y-43064D01*
X53285Y-43250D01*
X53385Y-48778D02*
X53085Y-48778D01*
X53085Y-48892D01*
X53100Y-48921D01*
X53114Y-48935D01*
X53142Y-48950D01*
X53185Y-48950D01*
X53214Y-48935D01*
X53228Y-48921D01*
X53242Y-48892D01*
X53242Y-48778D01*
X53114Y-49064D02*
X53100Y-49078D01*
X53085Y-49107D01*
X53085Y-49178D01*
X53100Y-49207D01*
X53114Y-49221D01*
X53142Y-49235D01*
X53171Y-49235D01*
X53214Y-49221D01*
X53385Y-49050D01*
X53385Y-49235D01*
X50207Y-44400D02*
X50221Y-44385D01*
X50235Y-44342D01*
X50235Y-44314D01*
X50221Y-44271D01*
X50192Y-44242D01*
X50164Y-44228D01*
X50107Y-44214D01*
X50064Y-44214D01*
X50007Y-44228D01*
X49978Y-44242D01*
X49950Y-44271D01*
X49935Y-44314D01*
X49935Y-44342D01*
X49950Y-44385D01*
X49964Y-44400D01*
X49964Y-44514D02*
X49950Y-44528D01*
X49935Y-44557D01*
X49935Y-44628D01*
X49950Y-44657D01*
X49964Y-44671D01*
X49992Y-44685D01*
X50021Y-44685D01*
X50064Y-44671D01*
X50235Y-44500D01*
X50235Y-44685D01*
X54000Y-44507D02*
X54014Y-44521D01*
X54057Y-44535D01*
X54085Y-44535D01*
X54128Y-44521D01*
X54157Y-44492D01*
X54171Y-44464D01*
X54185Y-44407D01*
X54185Y-44364D01*
X54171Y-44307D01*
X54157Y-44278D01*
X54128Y-44250D01*
X54085Y-44235D01*
X54057Y-44235D01*
X54014Y-44250D01*
X54000Y-44264D01*
X53828Y-44364D02*
X53857Y-44350D01*
X53871Y-44335D01*
X53885Y-44307D01*
X53885Y-44292D01*
X53871Y-44264D01*
X53857Y-44250D01*
X53828Y-44235D01*
X53771Y-44235D01*
X53742Y-44250D01*
X53728Y-44264D01*
X53714Y-44292D01*
X53714Y-44307D01*
X53728Y-44335D01*
X53742Y-44350D01*
X53771Y-44364D01*
X53828Y-44364D01*
X53857Y-44378D01*
X53871Y-44392D01*
X53885Y-44421D01*
X53885Y-44478D01*
X53871Y-44507D01*
X53857Y-44521D01*
X53828Y-44535D01*
X53771Y-44535D01*
X53742Y-44521D01*
X53728Y-44507D01*
X53714Y-44478D01*
X53714Y-44421D01*
X53728Y-44392D01*
X53742Y-44378D01*
X53771Y-44364D01*
X49285Y-45950D02*
X49142Y-45850D01*
X49285Y-45778D02*
X48985Y-45778D01*
X48985Y-45892D01*
X49000Y-45921D01*
X49014Y-45935D01*
X49042Y-45950D01*
X49085Y-45950D01*
X49114Y-45935D01*
X49128Y-45921D01*
X49142Y-45892D01*
X49142Y-45778D01*
X49285Y-46235D02*
X49285Y-46064D01*
X49285Y-46150D02*
X48985Y-46150D01*
X49028Y-46121D01*
X49057Y-46092D01*
X49071Y-46064D01*
X52385Y-47700D02*
X52242Y-47600D01*
X52385Y-47528D02*
X52085Y-47528D01*
X52085Y-47642D01*
X52100Y-47671D01*
X52114Y-47685D01*
X52142Y-47700D01*
X52185Y-47700D01*
X52214Y-47685D01*
X52228Y-47671D01*
X52242Y-47642D01*
X52242Y-47528D01*
X52185Y-47957D02*
X52385Y-47957D01*
X52071Y-47885D02*
X52285Y-47814D01*
X52285Y-48000D01*
X61135Y-47200D02*
X60992Y-47100D01*
X61135Y-47028D02*
X60835Y-47028D01*
X60835Y-47142D01*
X60850Y-47171D01*
X60864Y-47185D01*
X60892Y-47200D01*
X60935Y-47200D01*
X60964Y-47185D01*
X60978Y-47171D01*
X60992Y-47142D01*
X60992Y-47028D01*
X60835Y-47300D02*
X60835Y-47500D01*
X61135Y-47371D01*
X61135Y-44700D02*
X60992Y-44600D01*
X61135Y-44528D02*
X60835Y-44528D01*
X60835Y-44642D01*
X60850Y-44671D01*
X60864Y-44685D01*
X60892Y-44700D01*
X60935Y-44700D01*
X60964Y-44685D01*
X60978Y-44671D01*
X60992Y-44642D01*
X60992Y-44528D01*
X60964Y-44871D02*
X60950Y-44842D01*
X60935Y-44828D01*
X60907Y-44814D01*
X60892Y-44814D01*
X60864Y-44828D01*
X60850Y-44842D01*
X60835Y-44871D01*
X60835Y-44928D01*
X60850Y-44957D01*
X60864Y-44971D01*
X60892Y-44985D01*
X60907Y-44985D01*
X60935Y-44971D01*
X60950Y-44957D01*
X60964Y-44928D01*
X60964Y-44871D01*
X60978Y-44842D01*
X60992Y-44828D01*
X61021Y-44814D01*
X61078Y-44814D01*
X61107Y-44828D01*
X61121Y-44842D01*
X61135Y-44871D01*
X61135Y-44928D01*
X61121Y-44957D01*
X61107Y-44971D01*
X61078Y-44985D01*
X61021Y-44985D01*
X60992Y-44971D01*
X60978Y-44957D01*
X60964Y-44928D01*
X59699Y-44421D02*
X59657Y-44435D01*
X59585Y-44435D01*
X59557Y-44421D01*
X59542Y-44407D01*
X59528Y-44378D01*
X59528Y-44350D01*
X59542Y-44321D01*
X59557Y-44307D01*
X59585Y-44292D01*
X59642Y-44278D01*
X59671Y-44264D01*
X59685Y-44250D01*
X59699Y-44221D01*
X59699Y-44192D01*
X59685Y-44164D01*
X59671Y-44150D01*
X59642Y-44135D01*
X59571Y-44135D01*
X59528Y-44150D01*
X59428Y-44135D02*
X59357Y-44435D01*
X59299Y-44221D01*
X59242Y-44435D01*
X59171Y-44135D01*
X58900Y-44435D02*
X59071Y-44435D01*
X58985Y-44435D02*
X58985Y-44135D01*
X59014Y-44178D01*
X59042Y-44207D01*
X59071Y-44221D01*
X53295Y-45772D02*
X53467Y-45943D01*
X53477Y-45974D01*
X53477Y-45994D01*
X53467Y-46024D01*
X53426Y-46065D01*
X53396Y-46075D01*
X53376Y-46075D01*
X53345Y-46065D01*
X53174Y-45893D01*
X53093Y-45974D02*
X52962Y-46105D01*
X53113Y-46115D01*
X53083Y-46145D01*
X53073Y-46176D01*
X53073Y-46196D01*
X53083Y-46226D01*
X53133Y-46277D01*
X53164Y-46287D01*
X53184Y-46287D01*
X53214Y-46277D01*
X53275Y-46216D01*
X53285Y-46186D01*
X53285Y-46166D01*
M02*
