M48
;DRILL file {Pcbnew (2013-mar-13)-testing} date Sat 31 Jan 2015 08:43:11 PM EST
;FORMAT={-:-/ absolute / inch / decimal}
FMAT,2
INCH,TZ
T1C0.015
T2C0.035
T3C0.043
%
G90
G05
M72
T1
X4.45Y-4.3
X4.45Y-4.5
X4.45Y-4.55
X4.45Y-4.6
X4.45Y-4.65
X4.45Y-4.7
X4.45Y-4.9
X4.5Y-4.25
X4.5Y-4.95
X4.55Y-4.25
X4.55Y-4.95
X4.85Y-4.25
X4.85Y-4.43
X4.85Y-4.47
X4.85Y-4.95
X4.895Y-4.425
X4.895Y-4.47
X4.9Y-4.25
X4.9Y-4.95
X4.95Y-4.25
X4.95Y-4.95
X5.Y-4.25
X5.Y-4.95
X5.03Y-4.875
X5.05Y-4.25
X5.05Y-4.95
X5.085Y-4.875
X5.095Y-4.315
X5.1Y-4.25
X5.1Y-4.95
X5.115Y-4.585
X5.115Y-4.625
X5.115Y-4.665
X5.115Y-4.705
X5.15Y-4.25
X5.15Y-4.95
X5.2Y-4.25
X5.2Y-4.95
X5.32Y-4.765
X5.35Y-4.44
X5.365Y-4.765
X5.85Y-4.25
X5.9Y-4.95
X5.93Y-4.51
X5.93Y-4.56
X5.93Y-4.645
X5.93Y-4.69
X5.975Y-4.51
X5.975Y-4.56
X5.975Y-4.645
X5.975Y-4.69
X6.15Y-4.25
X6.15Y-4.95
X6.2Y-4.25
X6.2Y-4.95
X6.25Y-4.3
X6.25Y-4.35
X6.25Y-4.9
T2
X4.75Y-4.525
X4.75Y-4.625
X4.85Y-4.575
X4.85Y-4.675
T3
X6.2Y-4.45
X6.2Y-4.55
X6.2Y-4.65
X6.2Y-4.75
T0
M30
