G04 (created by PCBNEW (2013-mar-13)-testing) date Sat 31 Jan 2015 08:43:09 PM EST*
%MOIN*%
G04 Gerber Fmt 3.4, Leading zero omitted, Abs format*
%FSLAX34Y34*%
G01*
G70*
G90*
G04 APERTURE LIST*
%ADD10C,0.005906*%
%ADD11R,0.080000X0.144000*%
%ADD12R,0.080000X0.040000*%
%ADD13C,0.070866*%
%ADD14R,0.350000X0.420000*%
%ADD15R,0.090000X0.070000*%
%ADD16R,0.070866X0.070866*%
%ADD17R,0.216535X0.059055*%
%ADD18R,0.100000X0.050000*%
%ADD19R,0.021654X0.023622*%
%ADD20R,0.023622X0.021654*%
%ADD21R,0.055100X0.023600*%
%ADD22R,0.110200X0.157500*%
%ADD23R,0.098425X0.039370*%
%ADD24C,0.030000*%
%ADD25C,0.039370*%
%ADD26C,0.012000*%
%ADD27C,0.007992*%
%ADD28C,0.006000*%
G04 APERTURE END LIST*
G54D10*
G54D11*
X51700Y-43700D03*
G54D12*
X54300Y-43700D03*
X54300Y-42800D03*
X54300Y-44600D03*
G54D13*
X47500Y-45250D03*
X48500Y-45750D03*
X47500Y-46250D03*
X48500Y-46750D03*
G54D14*
X56650Y-47350D03*
G54D15*
X53200Y-46350D03*
X53200Y-48350D03*
G54D16*
X62000Y-44500D03*
G54D13*
X62000Y-45500D03*
X62000Y-46500D03*
X62000Y-47500D03*
G54D17*
X56800Y-44387D03*
X56800Y-42812D03*
G54D18*
X49750Y-44850D03*
X49750Y-43650D03*
G54D19*
X50913Y-45000D03*
X51386Y-45000D03*
G54D20*
X51100Y-47963D03*
X51100Y-48436D03*
X52250Y-47963D03*
X52250Y-48436D03*
X49450Y-47963D03*
X49450Y-48436D03*
X51650Y-47963D03*
X51650Y-48436D03*
X50550Y-48436D03*
X50550Y-47963D03*
X50000Y-47963D03*
X50000Y-48436D03*
G54D21*
X51937Y-45687D03*
X49837Y-45687D03*
X51937Y-46187D03*
X51937Y-46687D03*
X51937Y-47187D03*
X49837Y-46187D03*
X49837Y-46687D03*
X49837Y-47187D03*
G54D22*
X50887Y-46437D03*
G54D23*
X60688Y-47500D03*
X59311Y-47500D03*
X60688Y-44500D03*
X59311Y-44500D03*
G54D24*
X50950Y-43150D03*
X61500Y-49500D03*
X62500Y-49000D03*
X62000Y-49500D03*
X59000Y-49500D03*
X62500Y-43000D03*
X61500Y-42500D03*
X62000Y-42500D03*
X62500Y-43500D03*
X58500Y-42500D03*
X51500Y-42500D03*
X50500Y-42500D03*
X49500Y-42500D03*
X48500Y-42500D03*
X49000Y-42500D03*
X50000Y-42500D03*
X51000Y-42500D03*
X52000Y-42500D03*
X52000Y-49500D03*
X51000Y-49500D03*
X50000Y-49500D03*
X49000Y-49500D03*
X48500Y-49500D03*
X49500Y-49500D03*
X50500Y-49500D03*
X51500Y-49500D03*
X45000Y-49500D03*
X44500Y-46500D03*
X44500Y-45500D03*
X44500Y-45000D03*
X44500Y-46000D03*
X44500Y-47000D03*
X45500Y-49500D03*
X44500Y-49000D03*
X45500Y-42500D03*
X45000Y-42500D03*
X44500Y-43000D03*
X59300Y-45100D03*
X59750Y-45100D03*
X59300Y-45600D03*
X59750Y-45600D03*
X53500Y-44400D03*
X48950Y-44250D03*
X48950Y-44700D03*
X48500Y-44700D03*
X48500Y-44300D03*
X50300Y-48750D03*
X53650Y-47650D03*
X53200Y-47650D03*
X51150Y-47050D03*
X59300Y-46450D03*
X59750Y-46900D03*
X59750Y-46450D03*
X59300Y-46900D03*
X51150Y-46650D03*
X51150Y-46250D03*
X51150Y-45850D03*
X50850Y-48750D03*
G54D25*
X49750Y-44850D02*
X49250Y-45350D01*
X49250Y-45350D02*
X49250Y-46187D01*
X49837Y-46187D02*
X49250Y-46187D01*
X49250Y-46187D02*
X49062Y-46187D01*
X49062Y-46187D02*
X48500Y-46750D01*
G54D26*
X51700Y-43550D02*
X51300Y-43150D01*
X51300Y-43150D02*
X50950Y-43150D01*
X51700Y-43700D02*
X51700Y-43550D01*
G54D25*
X59300Y-45100D02*
X59750Y-45100D01*
X59750Y-45100D02*
X59550Y-45100D01*
X59750Y-45600D02*
X59300Y-45600D01*
X59750Y-45600D02*
X59750Y-45100D01*
X59300Y-45550D02*
X59300Y-45600D01*
G54D26*
X53700Y-44600D02*
X53500Y-44400D01*
X53700Y-44600D02*
X54300Y-44600D01*
G54D25*
X48950Y-44250D02*
X48700Y-44500D01*
X48500Y-44700D02*
X48950Y-44700D01*
X48900Y-44300D02*
X48500Y-44300D01*
X48950Y-44250D02*
X48900Y-44300D01*
X48500Y-44300D02*
X48500Y-44700D01*
X48950Y-44700D02*
X48950Y-44250D01*
X49550Y-43650D02*
X48950Y-44250D01*
X49750Y-43650D02*
X49550Y-43650D01*
G54D26*
X50000Y-48436D02*
X50300Y-48736D01*
X50300Y-48736D02*
X50300Y-48750D01*
X49450Y-48436D02*
X50000Y-48436D01*
X52250Y-48436D02*
X53113Y-48436D01*
X53113Y-48436D02*
X53200Y-48350D01*
G54D25*
X53650Y-47650D02*
X53200Y-47650D01*
X53200Y-47650D02*
X53200Y-48350D01*
G54D26*
X51100Y-48436D02*
X51413Y-48750D01*
X51936Y-48750D02*
X52250Y-48436D01*
X51413Y-48750D02*
X51936Y-48750D01*
G54D25*
X59311Y-44500D02*
X59550Y-44738D01*
X59550Y-44738D02*
X59550Y-45100D01*
X59311Y-47500D02*
X59550Y-47261D01*
X59550Y-47261D02*
X59550Y-46900D01*
X59550Y-46900D02*
X59550Y-46950D01*
X59550Y-46950D02*
X59550Y-46900D01*
X59300Y-46450D02*
X59500Y-46650D01*
X59750Y-46450D02*
X59750Y-46900D01*
X59750Y-46900D02*
X59550Y-46900D01*
X59300Y-46450D02*
X59750Y-46450D01*
X59500Y-46650D02*
X59550Y-46650D01*
X59311Y-47500D02*
X59300Y-47488D01*
X59300Y-47488D02*
X59300Y-46900D01*
X59550Y-46900D02*
X59300Y-46900D01*
X59300Y-46900D02*
X59300Y-46450D01*
X59300Y-45550D02*
X59500Y-45350D01*
X59550Y-45100D02*
X59300Y-45100D01*
X59300Y-45100D02*
X59300Y-45550D01*
X59311Y-45088D02*
X59300Y-45100D01*
X59311Y-44500D02*
X59311Y-45088D01*
X51937Y-46187D02*
X51137Y-46187D01*
X51137Y-46187D02*
X50887Y-46437D01*
G54D26*
X51025Y-46250D02*
X51150Y-46250D01*
G54D25*
X53200Y-46350D02*
X53037Y-46187D01*
X53037Y-46187D02*
X51937Y-46187D01*
G54D26*
X51100Y-47963D02*
X51336Y-48200D01*
X51413Y-48200D02*
X51650Y-48436D01*
X51336Y-48200D02*
X51413Y-48200D01*
X51937Y-47187D02*
X51812Y-47187D01*
X51013Y-47500D02*
X50550Y-47963D01*
X51500Y-47500D02*
X51013Y-47500D01*
X51812Y-47187D02*
X51500Y-47500D01*
X50000Y-47963D02*
X50550Y-47963D01*
X49837Y-47187D02*
X49837Y-47576D01*
X49837Y-47576D02*
X49450Y-47963D01*
X49837Y-45687D02*
X50062Y-45687D01*
X50463Y-45450D02*
X50913Y-45000D01*
X50300Y-45450D02*
X50463Y-45450D01*
X50062Y-45687D02*
X50300Y-45450D01*
X51937Y-46687D02*
X52137Y-46687D01*
X52250Y-47650D02*
X52250Y-47963D01*
X52350Y-47550D02*
X52250Y-47650D01*
X52350Y-46900D02*
X52350Y-47550D01*
X52137Y-46687D02*
X52350Y-46900D01*
X51650Y-47963D02*
X52250Y-47963D01*
X50550Y-48450D02*
X50550Y-48436D01*
X50850Y-48750D02*
X50550Y-48450D01*
G54D25*
X54300Y-42800D02*
X54312Y-42812D01*
X54312Y-42812D02*
X56800Y-42812D01*
G54D10*
G36*
X62860Y-48986D02*
X62792Y-49328D01*
X62769Y-49361D01*
X62769Y-48946D01*
X62728Y-48847D01*
X62653Y-48771D01*
X62553Y-48730D01*
X62446Y-48730D01*
X62347Y-48771D01*
X62271Y-48846D01*
X62230Y-48946D01*
X62230Y-49053D01*
X62271Y-49152D01*
X62346Y-49228D01*
X62446Y-49269D01*
X62553Y-49269D01*
X62652Y-49228D01*
X62728Y-49153D01*
X62769Y-49053D01*
X62769Y-48946D01*
X62769Y-49361D01*
X62606Y-49606D01*
X62328Y-49792D01*
X62269Y-49804D01*
X62269Y-49446D01*
X62228Y-49347D01*
X62153Y-49271D01*
X62053Y-49230D01*
X61946Y-49230D01*
X61847Y-49271D01*
X61771Y-49346D01*
X61749Y-49398D01*
X61728Y-49347D01*
X61653Y-49271D01*
X61553Y-49230D01*
X61446Y-49230D01*
X61347Y-49271D01*
X61271Y-49346D01*
X61230Y-49446D01*
X61230Y-49553D01*
X61271Y-49652D01*
X61346Y-49728D01*
X61446Y-49769D01*
X61553Y-49769D01*
X61652Y-49728D01*
X61728Y-49653D01*
X61750Y-49601D01*
X61771Y-49652D01*
X61846Y-49728D01*
X61946Y-49769D01*
X62053Y-49769D01*
X62152Y-49728D01*
X62228Y-49653D01*
X62269Y-49553D01*
X62269Y-49446D01*
X62269Y-49804D01*
X61986Y-49860D01*
X60614Y-49860D01*
X60598Y-49781D01*
X60577Y-49731D01*
X60577Y-49731D01*
X60469Y-49568D01*
X60469Y-49568D01*
X60431Y-49530D01*
X60431Y-49530D01*
X60268Y-49422D01*
X60218Y-49401D01*
X60027Y-49363D01*
X60027Y-49363D01*
X59972Y-49363D01*
X59972Y-49363D01*
X59781Y-49401D01*
X59731Y-49422D01*
X59568Y-49530D01*
X59568Y-49530D01*
X59530Y-49568D01*
X59530Y-49568D01*
X59422Y-49731D01*
X59401Y-49781D01*
X59385Y-49860D01*
X59269Y-49860D01*
X59269Y-49446D01*
X59228Y-49347D01*
X59153Y-49271D01*
X59053Y-49230D01*
X58946Y-49230D01*
X58847Y-49271D01*
X58771Y-49346D01*
X58730Y-49446D01*
X58730Y-49553D01*
X58771Y-49652D01*
X58846Y-49728D01*
X58946Y-49769D01*
X59053Y-49769D01*
X59152Y-49728D01*
X59228Y-49653D01*
X59269Y-49553D01*
X59269Y-49446D01*
X59269Y-49860D01*
X58042Y-49860D01*
X58042Y-44714D01*
X58042Y-44650D01*
X58042Y-44575D01*
X58042Y-44199D01*
X58042Y-44123D01*
X58042Y-44060D01*
X58018Y-44001D01*
X57973Y-43956D01*
X57914Y-43932D01*
X56996Y-43932D01*
X56956Y-43972D01*
X56956Y-44239D01*
X58002Y-44239D01*
X58042Y-44199D01*
X58042Y-44575D01*
X58002Y-44535D01*
X56956Y-44535D01*
X56956Y-44802D01*
X56996Y-44842D01*
X57914Y-44842D01*
X57973Y-44818D01*
X58018Y-44773D01*
X58042Y-44714D01*
X58042Y-49860D01*
X56643Y-49860D01*
X56643Y-44802D01*
X56643Y-44535D01*
X56643Y-44239D01*
X56643Y-43972D01*
X56603Y-43932D01*
X55685Y-43932D01*
X55626Y-43956D01*
X55581Y-44001D01*
X55557Y-44060D01*
X55557Y-44123D01*
X55557Y-44199D01*
X55597Y-44239D01*
X56643Y-44239D01*
X56643Y-44535D01*
X55597Y-44535D01*
X55557Y-44575D01*
X55557Y-44650D01*
X55557Y-44714D01*
X55581Y-44773D01*
X55626Y-44818D01*
X55685Y-44842D01*
X56603Y-44842D01*
X56643Y-44802D01*
X56643Y-49860D01*
X54819Y-49860D01*
X54819Y-44823D01*
X54819Y-44776D01*
X54819Y-44376D01*
X54819Y-43923D01*
X54819Y-43876D01*
X54819Y-43476D01*
X54801Y-43432D01*
X54767Y-43398D01*
X54723Y-43380D01*
X54676Y-43380D01*
X53876Y-43380D01*
X53832Y-43398D01*
X53798Y-43432D01*
X53780Y-43476D01*
X53780Y-43523D01*
X53780Y-43923D01*
X53798Y-43967D01*
X53832Y-44001D01*
X53876Y-44019D01*
X53923Y-44019D01*
X54723Y-44019D01*
X54767Y-44001D01*
X54801Y-43967D01*
X54819Y-43923D01*
X54819Y-44376D01*
X54801Y-44332D01*
X54767Y-44298D01*
X54723Y-44280D01*
X54676Y-44280D01*
X53876Y-44280D01*
X53832Y-44298D01*
X53798Y-44332D01*
X53780Y-44376D01*
X53780Y-44420D01*
X53774Y-44420D01*
X53769Y-44415D01*
X53769Y-44346D01*
X53728Y-44247D01*
X53653Y-44171D01*
X53553Y-44130D01*
X53446Y-44130D01*
X53347Y-44171D01*
X53271Y-44246D01*
X53230Y-44346D01*
X53230Y-44453D01*
X53271Y-44552D01*
X53346Y-44628D01*
X53446Y-44669D01*
X53515Y-44669D01*
X53572Y-44727D01*
X53631Y-44766D01*
X53631Y-44766D01*
X53700Y-44779D01*
X53780Y-44779D01*
X53780Y-44823D01*
X53798Y-44867D01*
X53832Y-44901D01*
X53876Y-44919D01*
X53923Y-44919D01*
X54723Y-44919D01*
X54767Y-44901D01*
X54801Y-44867D01*
X54819Y-44823D01*
X54819Y-49860D01*
X53966Y-49860D01*
X53966Y-47650D01*
X53942Y-47528D01*
X53873Y-47426D01*
X53771Y-47357D01*
X53650Y-47333D01*
X53200Y-47333D01*
X53078Y-47357D01*
X52976Y-47426D01*
X52907Y-47528D01*
X52883Y-47650D01*
X52883Y-47880D01*
X52726Y-47880D01*
X52682Y-47898D01*
X52648Y-47932D01*
X52630Y-47976D01*
X52630Y-48023D01*
X52630Y-48256D01*
X52466Y-48256D01*
X52436Y-48226D01*
X52391Y-48208D01*
X52344Y-48208D01*
X52108Y-48208D01*
X52063Y-48226D01*
X52030Y-48260D01*
X52012Y-48304D01*
X52012Y-48351D01*
X52012Y-48419D01*
X51887Y-48543D01*
X51887Y-48520D01*
X51887Y-48304D01*
X51869Y-48260D01*
X51836Y-48226D01*
X51791Y-48208D01*
X51744Y-48208D01*
X51676Y-48208D01*
X51660Y-48191D01*
X51791Y-48191D01*
X51836Y-48173D01*
X51866Y-48143D01*
X52033Y-48143D01*
X52063Y-48173D01*
X52108Y-48191D01*
X52155Y-48191D01*
X52391Y-48191D01*
X52436Y-48173D01*
X52469Y-48139D01*
X52487Y-48095D01*
X52487Y-48048D01*
X52487Y-47831D01*
X52469Y-47787D01*
X52436Y-47753D01*
X52429Y-47751D01*
X52429Y-47724D01*
X52477Y-47677D01*
X52516Y-47618D01*
X52516Y-47618D01*
X52529Y-47550D01*
X52529Y-46900D01*
X52516Y-46831D01*
X52477Y-46772D01*
X52332Y-46628D01*
X52332Y-46545D01*
X52315Y-46504D01*
X52630Y-46504D01*
X52630Y-46723D01*
X52648Y-46767D01*
X52682Y-46801D01*
X52726Y-46819D01*
X52773Y-46819D01*
X53673Y-46819D01*
X53717Y-46801D01*
X53751Y-46767D01*
X53769Y-46723D01*
X53769Y-46676D01*
X53769Y-45976D01*
X53751Y-45932D01*
X53717Y-45898D01*
X53673Y-45880D01*
X53626Y-45880D01*
X53083Y-45880D01*
X53037Y-45871D01*
X52359Y-45871D01*
X52372Y-45837D01*
X52372Y-45786D01*
X52372Y-45588D01*
X52372Y-45537D01*
X52348Y-45479D01*
X52303Y-45434D01*
X52269Y-45420D01*
X52269Y-42446D01*
X52228Y-42347D01*
X52153Y-42271D01*
X52053Y-42230D01*
X51946Y-42230D01*
X51847Y-42271D01*
X51771Y-42346D01*
X51749Y-42398D01*
X51728Y-42347D01*
X51653Y-42271D01*
X51553Y-42230D01*
X51446Y-42230D01*
X51347Y-42271D01*
X51271Y-42346D01*
X51249Y-42398D01*
X51228Y-42347D01*
X51153Y-42271D01*
X51053Y-42230D01*
X50946Y-42230D01*
X50847Y-42271D01*
X50771Y-42346D01*
X50749Y-42398D01*
X50728Y-42347D01*
X50653Y-42271D01*
X50553Y-42230D01*
X50446Y-42230D01*
X50347Y-42271D01*
X50271Y-42346D01*
X50249Y-42398D01*
X50228Y-42347D01*
X50153Y-42271D01*
X50053Y-42230D01*
X49946Y-42230D01*
X49847Y-42271D01*
X49771Y-42346D01*
X49749Y-42398D01*
X49728Y-42347D01*
X49653Y-42271D01*
X49553Y-42230D01*
X49446Y-42230D01*
X49347Y-42271D01*
X49271Y-42346D01*
X49249Y-42398D01*
X49228Y-42347D01*
X49153Y-42271D01*
X49053Y-42230D01*
X48946Y-42230D01*
X48847Y-42271D01*
X48771Y-42346D01*
X48749Y-42398D01*
X48728Y-42347D01*
X48653Y-42271D01*
X48553Y-42230D01*
X48446Y-42230D01*
X48347Y-42271D01*
X48271Y-42346D01*
X48230Y-42446D01*
X48230Y-42553D01*
X48271Y-42652D01*
X48346Y-42728D01*
X48446Y-42769D01*
X48553Y-42769D01*
X48652Y-42728D01*
X48728Y-42653D01*
X48750Y-42601D01*
X48771Y-42652D01*
X48846Y-42728D01*
X48946Y-42769D01*
X49053Y-42769D01*
X49152Y-42728D01*
X49228Y-42653D01*
X49250Y-42601D01*
X49271Y-42652D01*
X49346Y-42728D01*
X49446Y-42769D01*
X49553Y-42769D01*
X49652Y-42728D01*
X49728Y-42653D01*
X49750Y-42601D01*
X49771Y-42652D01*
X49846Y-42728D01*
X49946Y-42769D01*
X50053Y-42769D01*
X50152Y-42728D01*
X50228Y-42653D01*
X50250Y-42601D01*
X50271Y-42652D01*
X50346Y-42728D01*
X50446Y-42769D01*
X50553Y-42769D01*
X50652Y-42728D01*
X50728Y-42653D01*
X50750Y-42601D01*
X50771Y-42652D01*
X50846Y-42728D01*
X50946Y-42769D01*
X51053Y-42769D01*
X51152Y-42728D01*
X51228Y-42653D01*
X51250Y-42601D01*
X51271Y-42652D01*
X51346Y-42728D01*
X51446Y-42769D01*
X51553Y-42769D01*
X51652Y-42728D01*
X51728Y-42653D01*
X51750Y-42601D01*
X51771Y-42652D01*
X51846Y-42728D01*
X51946Y-42769D01*
X52053Y-42769D01*
X52152Y-42728D01*
X52228Y-42653D01*
X52269Y-42553D01*
X52269Y-42446D01*
X52269Y-45420D01*
X52244Y-45409D01*
X52219Y-45409D01*
X52219Y-44443D01*
X52219Y-44396D01*
X52219Y-42956D01*
X52201Y-42912D01*
X52167Y-42878D01*
X52123Y-42860D01*
X52076Y-42860D01*
X51276Y-42860D01*
X51232Y-42878D01*
X51198Y-42912D01*
X51180Y-42956D01*
X51180Y-42970D01*
X51151Y-42970D01*
X51103Y-42921D01*
X51003Y-42880D01*
X50896Y-42880D01*
X50797Y-42921D01*
X50721Y-42996D01*
X50680Y-43096D01*
X50680Y-43203D01*
X50721Y-43302D01*
X50796Y-43378D01*
X50896Y-43419D01*
X51003Y-43419D01*
X51102Y-43378D01*
X51151Y-43329D01*
X51180Y-43329D01*
X51180Y-44443D01*
X51198Y-44487D01*
X51232Y-44521D01*
X51276Y-44539D01*
X51323Y-44539D01*
X52123Y-44539D01*
X52167Y-44521D01*
X52201Y-44487D01*
X52219Y-44443D01*
X52219Y-45409D01*
X52181Y-45409D01*
X52115Y-45409D01*
X52075Y-45449D01*
X52075Y-45628D01*
X52332Y-45628D01*
X52372Y-45588D01*
X52372Y-45786D01*
X52332Y-45746D01*
X52075Y-45746D01*
X52075Y-45805D01*
X51799Y-45805D01*
X51799Y-45746D01*
X51772Y-45746D01*
X51772Y-45628D01*
X51799Y-45628D01*
X51799Y-45449D01*
X51759Y-45409D01*
X51693Y-45409D01*
X51654Y-45409D01*
X51654Y-45149D01*
X51654Y-45099D01*
X51654Y-44900D01*
X51654Y-44850D01*
X51630Y-44791D01*
X51585Y-44746D01*
X51526Y-44721D01*
X51480Y-44721D01*
X51440Y-44761D01*
X51440Y-44940D01*
X51614Y-44940D01*
X51654Y-44900D01*
X51654Y-45099D01*
X51614Y-45059D01*
X51440Y-45059D01*
X51440Y-45238D01*
X51480Y-45278D01*
X51526Y-45278D01*
X51585Y-45253D01*
X51630Y-45208D01*
X51654Y-45149D01*
X51654Y-45409D01*
X51630Y-45409D01*
X51571Y-45434D01*
X51526Y-45479D01*
X51504Y-45530D01*
X51501Y-45530D01*
X51501Y-45537D01*
X51501Y-45546D01*
X51462Y-45530D01*
X51414Y-45530D01*
X50637Y-45530D01*
X50930Y-45237D01*
X51045Y-45237D01*
X51089Y-45219D01*
X51123Y-45186D01*
X51128Y-45174D01*
X51142Y-45208D01*
X51187Y-45253D01*
X51246Y-45278D01*
X51292Y-45278D01*
X51332Y-45238D01*
X51332Y-45059D01*
X51277Y-45059D01*
X51277Y-44940D01*
X51332Y-44940D01*
X51332Y-44761D01*
X51292Y-44721D01*
X51246Y-44721D01*
X51187Y-44746D01*
X51142Y-44791D01*
X51128Y-44825D01*
X51123Y-44813D01*
X51089Y-44780D01*
X51045Y-44762D01*
X50998Y-44762D01*
X50781Y-44762D01*
X50737Y-44780D01*
X50703Y-44813D01*
X50685Y-44858D01*
X50685Y-44905D01*
X50685Y-44973D01*
X50389Y-45270D01*
X50300Y-45270D01*
X50231Y-45283D01*
X50172Y-45322D01*
X50045Y-45449D01*
X49598Y-45449D01*
X49828Y-45219D01*
X50273Y-45219D01*
X50317Y-45201D01*
X50351Y-45167D01*
X50369Y-45123D01*
X50369Y-45076D01*
X50369Y-44576D01*
X50351Y-44532D01*
X50317Y-44498D01*
X50273Y-44480D01*
X50226Y-44480D01*
X49266Y-44480D01*
X49266Y-44381D01*
X49628Y-44019D01*
X50273Y-44019D01*
X50317Y-44001D01*
X50351Y-43967D01*
X50369Y-43923D01*
X50369Y-43876D01*
X50369Y-43376D01*
X50351Y-43332D01*
X50317Y-43298D01*
X50273Y-43280D01*
X50226Y-43280D01*
X49226Y-43280D01*
X49182Y-43298D01*
X49148Y-43332D01*
X49130Y-43376D01*
X49130Y-43423D01*
X49130Y-43621D01*
X48768Y-43983D01*
X48500Y-43983D01*
X48378Y-44007D01*
X48276Y-44076D01*
X48207Y-44178D01*
X48183Y-44300D01*
X48183Y-44700D01*
X48207Y-44821D01*
X48276Y-44923D01*
X48378Y-44992D01*
X48500Y-45016D01*
X48950Y-45016D01*
X49071Y-44992D01*
X49130Y-44953D01*
X49130Y-45021D01*
X49026Y-45126D01*
X48957Y-45228D01*
X48933Y-45350D01*
X48933Y-45556D01*
X48902Y-45481D01*
X48768Y-45348D01*
X48594Y-45275D01*
X48406Y-45275D01*
X48231Y-45347D01*
X48098Y-45481D01*
X48025Y-45655D01*
X48025Y-45843D01*
X48097Y-46018D01*
X48231Y-46151D01*
X48405Y-46224D01*
X48577Y-46224D01*
X48526Y-46275D01*
X48406Y-46275D01*
X48231Y-46347D01*
X48098Y-46481D01*
X48025Y-46655D01*
X48025Y-46843D01*
X48097Y-47018D01*
X48231Y-47151D01*
X48405Y-47224D01*
X48593Y-47224D01*
X48768Y-47152D01*
X48901Y-47018D01*
X48974Y-46844D01*
X48974Y-46723D01*
X49193Y-46504D01*
X49250Y-46504D01*
X49459Y-46504D01*
X49442Y-46545D01*
X49442Y-46593D01*
X49442Y-46829D01*
X49460Y-46873D01*
X49493Y-46907D01*
X49538Y-46925D01*
X49585Y-46925D01*
X50136Y-46925D01*
X50180Y-46907D01*
X50214Y-46873D01*
X50216Y-46868D01*
X50216Y-47006D01*
X50214Y-47001D01*
X50180Y-46968D01*
X50136Y-46949D01*
X50089Y-46949D01*
X49538Y-46949D01*
X49493Y-46968D01*
X49460Y-47001D01*
X49442Y-47045D01*
X49442Y-47093D01*
X49442Y-47329D01*
X49460Y-47373D01*
X49493Y-47407D01*
X49538Y-47425D01*
X49585Y-47425D01*
X49657Y-47425D01*
X49657Y-47501D01*
X49423Y-47735D01*
X49308Y-47735D01*
X49263Y-47753D01*
X49230Y-47787D01*
X49212Y-47831D01*
X49212Y-47879D01*
X49212Y-48095D01*
X49230Y-48139D01*
X49263Y-48173D01*
X49308Y-48191D01*
X49355Y-48191D01*
X49591Y-48191D01*
X49636Y-48173D01*
X49669Y-48139D01*
X49687Y-48095D01*
X49687Y-48048D01*
X49687Y-47980D01*
X49762Y-47906D01*
X49762Y-48095D01*
X49780Y-48139D01*
X49813Y-48173D01*
X49858Y-48191D01*
X49905Y-48191D01*
X50141Y-48191D01*
X50186Y-48173D01*
X50216Y-48143D01*
X50333Y-48143D01*
X50363Y-48173D01*
X50408Y-48191D01*
X50455Y-48191D01*
X50691Y-48191D01*
X50736Y-48173D01*
X50769Y-48139D01*
X50787Y-48095D01*
X50787Y-48048D01*
X50787Y-47980D01*
X50862Y-47906D01*
X50862Y-48095D01*
X50880Y-48139D01*
X50913Y-48173D01*
X50958Y-48191D01*
X51005Y-48191D01*
X51073Y-48191D01*
X51089Y-48208D01*
X50958Y-48208D01*
X50913Y-48226D01*
X50880Y-48260D01*
X50862Y-48304D01*
X50862Y-48351D01*
X50862Y-48480D01*
X50834Y-48480D01*
X50787Y-48433D01*
X50787Y-48304D01*
X50769Y-48260D01*
X50736Y-48226D01*
X50691Y-48208D01*
X50644Y-48208D01*
X50408Y-48208D01*
X50363Y-48226D01*
X50330Y-48260D01*
X50312Y-48304D01*
X50312Y-48351D01*
X50312Y-48480D01*
X50298Y-48480D01*
X50237Y-48419D01*
X50237Y-48304D01*
X50219Y-48260D01*
X50186Y-48226D01*
X50141Y-48208D01*
X50094Y-48208D01*
X49858Y-48208D01*
X49813Y-48226D01*
X49783Y-48256D01*
X49666Y-48256D01*
X49636Y-48226D01*
X49591Y-48208D01*
X49544Y-48208D01*
X49308Y-48208D01*
X49263Y-48226D01*
X49230Y-48260D01*
X49212Y-48304D01*
X49212Y-48351D01*
X49212Y-48568D01*
X49230Y-48612D01*
X49263Y-48646D01*
X49308Y-48664D01*
X49355Y-48664D01*
X49591Y-48664D01*
X49636Y-48646D01*
X49666Y-48616D01*
X49783Y-48616D01*
X49813Y-48646D01*
X49858Y-48664D01*
X49905Y-48664D01*
X49973Y-48664D01*
X50030Y-48720D01*
X50030Y-48803D01*
X50071Y-48902D01*
X50146Y-48978D01*
X50246Y-49019D01*
X50353Y-49019D01*
X50452Y-48978D01*
X50528Y-48903D01*
X50569Y-48803D01*
X50569Y-48724D01*
X50580Y-48734D01*
X50580Y-48803D01*
X50621Y-48902D01*
X50696Y-48978D01*
X50796Y-49019D01*
X50903Y-49019D01*
X51002Y-48978D01*
X51078Y-48903D01*
X51119Y-48803D01*
X51119Y-48710D01*
X51286Y-48877D01*
X51344Y-48916D01*
X51344Y-48916D01*
X51413Y-48929D01*
X51936Y-48929D01*
X52005Y-48916D01*
X52063Y-48877D01*
X52276Y-48664D01*
X52391Y-48664D01*
X52436Y-48646D01*
X52466Y-48616D01*
X52630Y-48616D01*
X52630Y-48723D01*
X52648Y-48767D01*
X52682Y-48801D01*
X52726Y-48819D01*
X52773Y-48819D01*
X53673Y-48819D01*
X53717Y-48801D01*
X53751Y-48767D01*
X53769Y-48723D01*
X53769Y-48676D01*
X53769Y-47976D01*
X53757Y-47945D01*
X53771Y-47942D01*
X53873Y-47873D01*
X53942Y-47771D01*
X53966Y-47650D01*
X53966Y-49860D01*
X52269Y-49860D01*
X52269Y-49446D01*
X52228Y-49347D01*
X52153Y-49271D01*
X52053Y-49230D01*
X51946Y-49230D01*
X51847Y-49271D01*
X51771Y-49346D01*
X51749Y-49398D01*
X51728Y-49347D01*
X51653Y-49271D01*
X51553Y-49230D01*
X51446Y-49230D01*
X51347Y-49271D01*
X51271Y-49346D01*
X51249Y-49398D01*
X51228Y-49347D01*
X51153Y-49271D01*
X51053Y-49230D01*
X50946Y-49230D01*
X50847Y-49271D01*
X50771Y-49346D01*
X50749Y-49398D01*
X50728Y-49347D01*
X50653Y-49271D01*
X50553Y-49230D01*
X50446Y-49230D01*
X50347Y-49271D01*
X50271Y-49346D01*
X50249Y-49398D01*
X50228Y-49347D01*
X50153Y-49271D01*
X50053Y-49230D01*
X49946Y-49230D01*
X49847Y-49271D01*
X49771Y-49346D01*
X49749Y-49398D01*
X49728Y-49347D01*
X49653Y-49271D01*
X49553Y-49230D01*
X49446Y-49230D01*
X49347Y-49271D01*
X49271Y-49346D01*
X49249Y-49398D01*
X49228Y-49347D01*
X49153Y-49271D01*
X49053Y-49230D01*
X48946Y-49230D01*
X48847Y-49271D01*
X48771Y-49346D01*
X48749Y-49398D01*
X48728Y-49347D01*
X48653Y-49271D01*
X48553Y-49230D01*
X48446Y-49230D01*
X48347Y-49271D01*
X48271Y-49346D01*
X48230Y-49446D01*
X48230Y-49553D01*
X48271Y-49652D01*
X48346Y-49728D01*
X48446Y-49769D01*
X48553Y-49769D01*
X48652Y-49728D01*
X48728Y-49653D01*
X48750Y-49601D01*
X48771Y-49652D01*
X48846Y-49728D01*
X48946Y-49769D01*
X49053Y-49769D01*
X49152Y-49728D01*
X49228Y-49653D01*
X49250Y-49601D01*
X49271Y-49652D01*
X49346Y-49728D01*
X49446Y-49769D01*
X49553Y-49769D01*
X49652Y-49728D01*
X49728Y-49653D01*
X49750Y-49601D01*
X49771Y-49652D01*
X49846Y-49728D01*
X49946Y-49769D01*
X50053Y-49769D01*
X50152Y-49728D01*
X50228Y-49653D01*
X50250Y-49601D01*
X50271Y-49652D01*
X50346Y-49728D01*
X50446Y-49769D01*
X50553Y-49769D01*
X50652Y-49728D01*
X50728Y-49653D01*
X50750Y-49601D01*
X50771Y-49652D01*
X50846Y-49728D01*
X50946Y-49769D01*
X51053Y-49769D01*
X51152Y-49728D01*
X51228Y-49653D01*
X51250Y-49601D01*
X51271Y-49652D01*
X51346Y-49728D01*
X51446Y-49769D01*
X51553Y-49769D01*
X51652Y-49728D01*
X51728Y-49653D01*
X51750Y-49601D01*
X51771Y-49652D01*
X51846Y-49728D01*
X51946Y-49769D01*
X52053Y-49769D01*
X52152Y-49728D01*
X52228Y-49653D01*
X52269Y-49553D01*
X52269Y-49446D01*
X52269Y-49860D01*
X47974Y-49860D01*
X47974Y-46156D01*
X47974Y-45156D01*
X47902Y-44981D01*
X47768Y-44848D01*
X47594Y-44775D01*
X47406Y-44775D01*
X47231Y-44847D01*
X47098Y-44981D01*
X47025Y-45155D01*
X47025Y-45343D01*
X47097Y-45518D01*
X47231Y-45651D01*
X47405Y-45724D01*
X47593Y-45724D01*
X47768Y-45652D01*
X47901Y-45518D01*
X47974Y-45344D01*
X47974Y-45156D01*
X47974Y-46156D01*
X47902Y-45981D01*
X47768Y-45848D01*
X47594Y-45775D01*
X47406Y-45775D01*
X47231Y-45847D01*
X47098Y-45981D01*
X47025Y-46155D01*
X47025Y-46343D01*
X47097Y-46518D01*
X47231Y-46651D01*
X47405Y-46724D01*
X47593Y-46724D01*
X47768Y-46652D01*
X47901Y-46518D01*
X47974Y-46344D01*
X47974Y-46156D01*
X47974Y-49860D01*
X47614Y-49860D01*
X47598Y-49781D01*
X47577Y-49731D01*
X47577Y-49731D01*
X47469Y-49568D01*
X47469Y-49568D01*
X47431Y-49530D01*
X47431Y-49530D01*
X47268Y-49422D01*
X47218Y-49401D01*
X47027Y-49363D01*
X47027Y-49363D01*
X46972Y-49363D01*
X46972Y-49363D01*
X46781Y-49401D01*
X46731Y-49422D01*
X46568Y-49530D01*
X46568Y-49530D01*
X46530Y-49568D01*
X46530Y-49568D01*
X46422Y-49731D01*
X46401Y-49781D01*
X46385Y-49860D01*
X45769Y-49860D01*
X45769Y-49446D01*
X45769Y-42446D01*
X45728Y-42347D01*
X45653Y-42271D01*
X45553Y-42230D01*
X45446Y-42230D01*
X45347Y-42271D01*
X45271Y-42346D01*
X45249Y-42398D01*
X45228Y-42347D01*
X45153Y-42271D01*
X45053Y-42230D01*
X44946Y-42230D01*
X44847Y-42271D01*
X44771Y-42346D01*
X44730Y-42446D01*
X44730Y-42553D01*
X44771Y-42652D01*
X44846Y-42728D01*
X44946Y-42769D01*
X45053Y-42769D01*
X45152Y-42728D01*
X45228Y-42653D01*
X45250Y-42601D01*
X45271Y-42652D01*
X45346Y-42728D01*
X45446Y-42769D01*
X45553Y-42769D01*
X45652Y-42728D01*
X45728Y-42653D01*
X45769Y-42553D01*
X45769Y-42446D01*
X45769Y-49446D01*
X45749Y-49398D01*
X45749Y-47851D01*
X45749Y-43851D01*
X45636Y-43575D01*
X45425Y-43364D01*
X45149Y-43250D01*
X44851Y-43250D01*
X44769Y-43283D01*
X44769Y-42946D01*
X44728Y-42847D01*
X44653Y-42771D01*
X44553Y-42730D01*
X44446Y-42730D01*
X44347Y-42771D01*
X44271Y-42846D01*
X44230Y-42946D01*
X44230Y-43053D01*
X44271Y-43152D01*
X44346Y-43228D01*
X44446Y-43269D01*
X44553Y-43269D01*
X44652Y-43228D01*
X44728Y-43153D01*
X44769Y-43053D01*
X44769Y-42946D01*
X44769Y-43283D01*
X44575Y-43363D01*
X44364Y-43574D01*
X44250Y-43850D01*
X44250Y-44148D01*
X44363Y-44424D01*
X44574Y-44635D01*
X44850Y-44749D01*
X45148Y-44749D01*
X45424Y-44636D01*
X45635Y-44425D01*
X45749Y-44149D01*
X45749Y-43851D01*
X45749Y-47851D01*
X45636Y-47575D01*
X45425Y-47364D01*
X45149Y-47250D01*
X44851Y-47250D01*
X44769Y-47283D01*
X44769Y-46946D01*
X44728Y-46847D01*
X44653Y-46771D01*
X44601Y-46749D01*
X44652Y-46728D01*
X44728Y-46653D01*
X44769Y-46553D01*
X44769Y-46446D01*
X44728Y-46347D01*
X44653Y-46271D01*
X44601Y-46249D01*
X44652Y-46228D01*
X44728Y-46153D01*
X44769Y-46053D01*
X44769Y-45946D01*
X44728Y-45847D01*
X44653Y-45771D01*
X44601Y-45749D01*
X44652Y-45728D01*
X44728Y-45653D01*
X44769Y-45553D01*
X44769Y-45446D01*
X44728Y-45347D01*
X44653Y-45271D01*
X44601Y-45249D01*
X44652Y-45228D01*
X44728Y-45153D01*
X44769Y-45053D01*
X44769Y-44946D01*
X44728Y-44847D01*
X44653Y-44771D01*
X44553Y-44730D01*
X44446Y-44730D01*
X44347Y-44771D01*
X44271Y-44846D01*
X44230Y-44946D01*
X44230Y-45053D01*
X44271Y-45152D01*
X44346Y-45228D01*
X44398Y-45250D01*
X44347Y-45271D01*
X44271Y-45346D01*
X44230Y-45446D01*
X44230Y-45553D01*
X44271Y-45652D01*
X44346Y-45728D01*
X44398Y-45750D01*
X44347Y-45771D01*
X44271Y-45846D01*
X44230Y-45946D01*
X44230Y-46053D01*
X44271Y-46152D01*
X44346Y-46228D01*
X44398Y-46250D01*
X44347Y-46271D01*
X44271Y-46346D01*
X44230Y-46446D01*
X44230Y-46553D01*
X44271Y-46652D01*
X44346Y-46728D01*
X44398Y-46750D01*
X44347Y-46771D01*
X44271Y-46846D01*
X44230Y-46946D01*
X44230Y-47053D01*
X44271Y-47152D01*
X44346Y-47228D01*
X44446Y-47269D01*
X44553Y-47269D01*
X44652Y-47228D01*
X44728Y-47153D01*
X44769Y-47053D01*
X44769Y-46946D01*
X44769Y-47283D01*
X44575Y-47363D01*
X44364Y-47574D01*
X44250Y-47850D01*
X44250Y-48148D01*
X44363Y-48424D01*
X44574Y-48635D01*
X44850Y-48749D01*
X45148Y-48749D01*
X45424Y-48636D01*
X45635Y-48425D01*
X45749Y-48149D01*
X45749Y-47851D01*
X45749Y-49398D01*
X45728Y-49347D01*
X45653Y-49271D01*
X45553Y-49230D01*
X45446Y-49230D01*
X45347Y-49271D01*
X45271Y-49346D01*
X45249Y-49398D01*
X45228Y-49347D01*
X45153Y-49271D01*
X45053Y-49230D01*
X44946Y-49230D01*
X44847Y-49271D01*
X44771Y-49346D01*
X44769Y-49350D01*
X44769Y-48946D01*
X44728Y-48847D01*
X44653Y-48771D01*
X44553Y-48730D01*
X44446Y-48730D01*
X44347Y-48771D01*
X44271Y-48846D01*
X44230Y-48946D01*
X44230Y-49053D01*
X44271Y-49152D01*
X44346Y-49228D01*
X44446Y-49269D01*
X44553Y-49269D01*
X44652Y-49228D01*
X44728Y-49153D01*
X44769Y-49053D01*
X44769Y-48946D01*
X44769Y-49350D01*
X44730Y-49446D01*
X44730Y-49553D01*
X44771Y-49652D01*
X44846Y-49728D01*
X44946Y-49769D01*
X45053Y-49769D01*
X45152Y-49728D01*
X45228Y-49653D01*
X45250Y-49601D01*
X45271Y-49652D01*
X45346Y-49728D01*
X45446Y-49769D01*
X45553Y-49769D01*
X45652Y-49728D01*
X45728Y-49653D01*
X45769Y-49553D01*
X45769Y-49446D01*
X45769Y-49860D01*
X45013Y-49860D01*
X44671Y-49792D01*
X44393Y-49606D01*
X44207Y-49328D01*
X44139Y-48986D01*
X44139Y-43013D01*
X44207Y-42671D01*
X44393Y-42393D01*
X44671Y-42207D01*
X45013Y-42139D01*
X46385Y-42139D01*
X46401Y-42218D01*
X46422Y-42268D01*
X46530Y-42431D01*
X46530Y-42431D01*
X46568Y-42469D01*
X46568Y-42469D01*
X46731Y-42577D01*
X46731Y-42577D01*
X46781Y-42598D01*
X46972Y-42636D01*
X46972Y-42636D01*
X47027Y-42636D01*
X47027Y-42636D01*
X47218Y-42598D01*
X47268Y-42577D01*
X47431Y-42469D01*
X47431Y-42469D01*
X47469Y-42431D01*
X47469Y-42431D01*
X47577Y-42268D01*
X47577Y-42268D01*
X47598Y-42218D01*
X47614Y-42139D01*
X56380Y-42139D01*
X56380Y-42397D01*
X55693Y-42397D01*
X55649Y-42415D01*
X55615Y-42449D01*
X55597Y-42493D01*
X55597Y-42495D01*
X54761Y-42495D01*
X54723Y-42480D01*
X54676Y-42480D01*
X53876Y-42480D01*
X53832Y-42498D01*
X53798Y-42532D01*
X53780Y-42576D01*
X53780Y-42623D01*
X53780Y-43023D01*
X53798Y-43067D01*
X53832Y-43101D01*
X53876Y-43119D01*
X53923Y-43119D01*
X54265Y-43119D01*
X54312Y-43129D01*
X55597Y-43129D01*
X55597Y-43131D01*
X55615Y-43175D01*
X55649Y-43209D01*
X55693Y-43227D01*
X55741Y-43227D01*
X56380Y-43227D01*
X56380Y-43619D01*
X58950Y-43619D01*
X59513Y-44183D01*
X59311Y-44183D01*
X58795Y-44183D01*
X58750Y-44201D01*
X58717Y-44235D01*
X58699Y-44279D01*
X58699Y-44326D01*
X58699Y-44720D01*
X58717Y-44764D01*
X58750Y-44798D01*
X58795Y-44816D01*
X58842Y-44816D01*
X58994Y-44816D01*
X58994Y-45044D01*
X58983Y-45100D01*
X58983Y-45550D01*
X58983Y-45600D01*
X59007Y-45721D01*
X59076Y-45823D01*
X59178Y-45892D01*
X59300Y-45916D01*
X59750Y-45916D01*
X59871Y-45892D01*
X59880Y-45886D01*
X59880Y-46163D01*
X59871Y-46157D01*
X59750Y-46133D01*
X59300Y-46133D01*
X59178Y-46157D01*
X59076Y-46226D01*
X59007Y-46328D01*
X58983Y-46450D01*
X58983Y-46900D01*
X58983Y-47183D01*
X58795Y-47183D01*
X58750Y-47201D01*
X58717Y-47235D01*
X58699Y-47279D01*
X58699Y-47326D01*
X58699Y-47720D01*
X58717Y-47764D01*
X58750Y-47798D01*
X58795Y-47816D01*
X58842Y-47816D01*
X59826Y-47816D01*
X59871Y-47798D01*
X59880Y-47789D01*
X59880Y-48119D01*
X62860Y-48119D01*
X62860Y-48986D01*
X62860Y-48986D01*
G37*
G54D27*
X62860Y-48986D02*
X62792Y-49328D01*
X62769Y-49361D01*
X62769Y-48946D01*
X62728Y-48847D01*
X62653Y-48771D01*
X62553Y-48730D01*
X62446Y-48730D01*
X62347Y-48771D01*
X62271Y-48846D01*
X62230Y-48946D01*
X62230Y-49053D01*
X62271Y-49152D01*
X62346Y-49228D01*
X62446Y-49269D01*
X62553Y-49269D01*
X62652Y-49228D01*
X62728Y-49153D01*
X62769Y-49053D01*
X62769Y-48946D01*
X62769Y-49361D01*
X62606Y-49606D01*
X62328Y-49792D01*
X62269Y-49804D01*
X62269Y-49446D01*
X62228Y-49347D01*
X62153Y-49271D01*
X62053Y-49230D01*
X61946Y-49230D01*
X61847Y-49271D01*
X61771Y-49346D01*
X61749Y-49398D01*
X61728Y-49347D01*
X61653Y-49271D01*
X61553Y-49230D01*
X61446Y-49230D01*
X61347Y-49271D01*
X61271Y-49346D01*
X61230Y-49446D01*
X61230Y-49553D01*
X61271Y-49652D01*
X61346Y-49728D01*
X61446Y-49769D01*
X61553Y-49769D01*
X61652Y-49728D01*
X61728Y-49653D01*
X61750Y-49601D01*
X61771Y-49652D01*
X61846Y-49728D01*
X61946Y-49769D01*
X62053Y-49769D01*
X62152Y-49728D01*
X62228Y-49653D01*
X62269Y-49553D01*
X62269Y-49446D01*
X62269Y-49804D01*
X61986Y-49860D01*
X60614Y-49860D01*
X60598Y-49781D01*
X60577Y-49731D01*
X60577Y-49731D01*
X60469Y-49568D01*
X60469Y-49568D01*
X60431Y-49530D01*
X60431Y-49530D01*
X60268Y-49422D01*
X60218Y-49401D01*
X60027Y-49363D01*
X60027Y-49363D01*
X59972Y-49363D01*
X59972Y-49363D01*
X59781Y-49401D01*
X59731Y-49422D01*
X59568Y-49530D01*
X59568Y-49530D01*
X59530Y-49568D01*
X59530Y-49568D01*
X59422Y-49731D01*
X59401Y-49781D01*
X59385Y-49860D01*
X59269Y-49860D01*
X59269Y-49446D01*
X59228Y-49347D01*
X59153Y-49271D01*
X59053Y-49230D01*
X58946Y-49230D01*
X58847Y-49271D01*
X58771Y-49346D01*
X58730Y-49446D01*
X58730Y-49553D01*
X58771Y-49652D01*
X58846Y-49728D01*
X58946Y-49769D01*
X59053Y-49769D01*
X59152Y-49728D01*
X59228Y-49653D01*
X59269Y-49553D01*
X59269Y-49446D01*
X59269Y-49860D01*
X58042Y-49860D01*
X58042Y-44714D01*
X58042Y-44650D01*
X58042Y-44575D01*
X58042Y-44199D01*
X58042Y-44123D01*
X58042Y-44060D01*
X58018Y-44001D01*
X57973Y-43956D01*
X57914Y-43932D01*
X56996Y-43932D01*
X56956Y-43972D01*
X56956Y-44239D01*
X58002Y-44239D01*
X58042Y-44199D01*
X58042Y-44575D01*
X58002Y-44535D01*
X56956Y-44535D01*
X56956Y-44802D01*
X56996Y-44842D01*
X57914Y-44842D01*
X57973Y-44818D01*
X58018Y-44773D01*
X58042Y-44714D01*
X58042Y-49860D01*
X56643Y-49860D01*
X56643Y-44802D01*
X56643Y-44535D01*
X56643Y-44239D01*
X56643Y-43972D01*
X56603Y-43932D01*
X55685Y-43932D01*
X55626Y-43956D01*
X55581Y-44001D01*
X55557Y-44060D01*
X55557Y-44123D01*
X55557Y-44199D01*
X55597Y-44239D01*
X56643Y-44239D01*
X56643Y-44535D01*
X55597Y-44535D01*
X55557Y-44575D01*
X55557Y-44650D01*
X55557Y-44714D01*
X55581Y-44773D01*
X55626Y-44818D01*
X55685Y-44842D01*
X56603Y-44842D01*
X56643Y-44802D01*
X56643Y-49860D01*
X54819Y-49860D01*
X54819Y-44823D01*
X54819Y-44776D01*
X54819Y-44376D01*
X54819Y-43923D01*
X54819Y-43876D01*
X54819Y-43476D01*
X54801Y-43432D01*
X54767Y-43398D01*
X54723Y-43380D01*
X54676Y-43380D01*
X53876Y-43380D01*
X53832Y-43398D01*
X53798Y-43432D01*
X53780Y-43476D01*
X53780Y-43523D01*
X53780Y-43923D01*
X53798Y-43967D01*
X53832Y-44001D01*
X53876Y-44019D01*
X53923Y-44019D01*
X54723Y-44019D01*
X54767Y-44001D01*
X54801Y-43967D01*
X54819Y-43923D01*
X54819Y-44376D01*
X54801Y-44332D01*
X54767Y-44298D01*
X54723Y-44280D01*
X54676Y-44280D01*
X53876Y-44280D01*
X53832Y-44298D01*
X53798Y-44332D01*
X53780Y-44376D01*
X53780Y-44420D01*
X53774Y-44420D01*
X53769Y-44415D01*
X53769Y-44346D01*
X53728Y-44247D01*
X53653Y-44171D01*
X53553Y-44130D01*
X53446Y-44130D01*
X53347Y-44171D01*
X53271Y-44246D01*
X53230Y-44346D01*
X53230Y-44453D01*
X53271Y-44552D01*
X53346Y-44628D01*
X53446Y-44669D01*
X53515Y-44669D01*
X53572Y-44727D01*
X53631Y-44766D01*
X53631Y-44766D01*
X53700Y-44779D01*
X53780Y-44779D01*
X53780Y-44823D01*
X53798Y-44867D01*
X53832Y-44901D01*
X53876Y-44919D01*
X53923Y-44919D01*
X54723Y-44919D01*
X54767Y-44901D01*
X54801Y-44867D01*
X54819Y-44823D01*
X54819Y-49860D01*
X53966Y-49860D01*
X53966Y-47650D01*
X53942Y-47528D01*
X53873Y-47426D01*
X53771Y-47357D01*
X53650Y-47333D01*
X53200Y-47333D01*
X53078Y-47357D01*
X52976Y-47426D01*
X52907Y-47528D01*
X52883Y-47650D01*
X52883Y-47880D01*
X52726Y-47880D01*
X52682Y-47898D01*
X52648Y-47932D01*
X52630Y-47976D01*
X52630Y-48023D01*
X52630Y-48256D01*
X52466Y-48256D01*
X52436Y-48226D01*
X52391Y-48208D01*
X52344Y-48208D01*
X52108Y-48208D01*
X52063Y-48226D01*
X52030Y-48260D01*
X52012Y-48304D01*
X52012Y-48351D01*
X52012Y-48419D01*
X51887Y-48543D01*
X51887Y-48520D01*
X51887Y-48304D01*
X51869Y-48260D01*
X51836Y-48226D01*
X51791Y-48208D01*
X51744Y-48208D01*
X51676Y-48208D01*
X51660Y-48191D01*
X51791Y-48191D01*
X51836Y-48173D01*
X51866Y-48143D01*
X52033Y-48143D01*
X52063Y-48173D01*
X52108Y-48191D01*
X52155Y-48191D01*
X52391Y-48191D01*
X52436Y-48173D01*
X52469Y-48139D01*
X52487Y-48095D01*
X52487Y-48048D01*
X52487Y-47831D01*
X52469Y-47787D01*
X52436Y-47753D01*
X52429Y-47751D01*
X52429Y-47724D01*
X52477Y-47677D01*
X52516Y-47618D01*
X52516Y-47618D01*
X52529Y-47550D01*
X52529Y-46900D01*
X52516Y-46831D01*
X52477Y-46772D01*
X52332Y-46628D01*
X52332Y-46545D01*
X52315Y-46504D01*
X52630Y-46504D01*
X52630Y-46723D01*
X52648Y-46767D01*
X52682Y-46801D01*
X52726Y-46819D01*
X52773Y-46819D01*
X53673Y-46819D01*
X53717Y-46801D01*
X53751Y-46767D01*
X53769Y-46723D01*
X53769Y-46676D01*
X53769Y-45976D01*
X53751Y-45932D01*
X53717Y-45898D01*
X53673Y-45880D01*
X53626Y-45880D01*
X53083Y-45880D01*
X53037Y-45871D01*
X52359Y-45871D01*
X52372Y-45837D01*
X52372Y-45786D01*
X52372Y-45588D01*
X52372Y-45537D01*
X52348Y-45479D01*
X52303Y-45434D01*
X52269Y-45420D01*
X52269Y-42446D01*
X52228Y-42347D01*
X52153Y-42271D01*
X52053Y-42230D01*
X51946Y-42230D01*
X51847Y-42271D01*
X51771Y-42346D01*
X51749Y-42398D01*
X51728Y-42347D01*
X51653Y-42271D01*
X51553Y-42230D01*
X51446Y-42230D01*
X51347Y-42271D01*
X51271Y-42346D01*
X51249Y-42398D01*
X51228Y-42347D01*
X51153Y-42271D01*
X51053Y-42230D01*
X50946Y-42230D01*
X50847Y-42271D01*
X50771Y-42346D01*
X50749Y-42398D01*
X50728Y-42347D01*
X50653Y-42271D01*
X50553Y-42230D01*
X50446Y-42230D01*
X50347Y-42271D01*
X50271Y-42346D01*
X50249Y-42398D01*
X50228Y-42347D01*
X50153Y-42271D01*
X50053Y-42230D01*
X49946Y-42230D01*
X49847Y-42271D01*
X49771Y-42346D01*
X49749Y-42398D01*
X49728Y-42347D01*
X49653Y-42271D01*
X49553Y-42230D01*
X49446Y-42230D01*
X49347Y-42271D01*
X49271Y-42346D01*
X49249Y-42398D01*
X49228Y-42347D01*
X49153Y-42271D01*
X49053Y-42230D01*
X48946Y-42230D01*
X48847Y-42271D01*
X48771Y-42346D01*
X48749Y-42398D01*
X48728Y-42347D01*
X48653Y-42271D01*
X48553Y-42230D01*
X48446Y-42230D01*
X48347Y-42271D01*
X48271Y-42346D01*
X48230Y-42446D01*
X48230Y-42553D01*
X48271Y-42652D01*
X48346Y-42728D01*
X48446Y-42769D01*
X48553Y-42769D01*
X48652Y-42728D01*
X48728Y-42653D01*
X48750Y-42601D01*
X48771Y-42652D01*
X48846Y-42728D01*
X48946Y-42769D01*
X49053Y-42769D01*
X49152Y-42728D01*
X49228Y-42653D01*
X49250Y-42601D01*
X49271Y-42652D01*
X49346Y-42728D01*
X49446Y-42769D01*
X49553Y-42769D01*
X49652Y-42728D01*
X49728Y-42653D01*
X49750Y-42601D01*
X49771Y-42652D01*
X49846Y-42728D01*
X49946Y-42769D01*
X50053Y-42769D01*
X50152Y-42728D01*
X50228Y-42653D01*
X50250Y-42601D01*
X50271Y-42652D01*
X50346Y-42728D01*
X50446Y-42769D01*
X50553Y-42769D01*
X50652Y-42728D01*
X50728Y-42653D01*
X50750Y-42601D01*
X50771Y-42652D01*
X50846Y-42728D01*
X50946Y-42769D01*
X51053Y-42769D01*
X51152Y-42728D01*
X51228Y-42653D01*
X51250Y-42601D01*
X51271Y-42652D01*
X51346Y-42728D01*
X51446Y-42769D01*
X51553Y-42769D01*
X51652Y-42728D01*
X51728Y-42653D01*
X51750Y-42601D01*
X51771Y-42652D01*
X51846Y-42728D01*
X51946Y-42769D01*
X52053Y-42769D01*
X52152Y-42728D01*
X52228Y-42653D01*
X52269Y-42553D01*
X52269Y-42446D01*
X52269Y-45420D01*
X52244Y-45409D01*
X52219Y-45409D01*
X52219Y-44443D01*
X52219Y-44396D01*
X52219Y-42956D01*
X52201Y-42912D01*
X52167Y-42878D01*
X52123Y-42860D01*
X52076Y-42860D01*
X51276Y-42860D01*
X51232Y-42878D01*
X51198Y-42912D01*
X51180Y-42956D01*
X51180Y-42970D01*
X51151Y-42970D01*
X51103Y-42921D01*
X51003Y-42880D01*
X50896Y-42880D01*
X50797Y-42921D01*
X50721Y-42996D01*
X50680Y-43096D01*
X50680Y-43203D01*
X50721Y-43302D01*
X50796Y-43378D01*
X50896Y-43419D01*
X51003Y-43419D01*
X51102Y-43378D01*
X51151Y-43329D01*
X51180Y-43329D01*
X51180Y-44443D01*
X51198Y-44487D01*
X51232Y-44521D01*
X51276Y-44539D01*
X51323Y-44539D01*
X52123Y-44539D01*
X52167Y-44521D01*
X52201Y-44487D01*
X52219Y-44443D01*
X52219Y-45409D01*
X52181Y-45409D01*
X52115Y-45409D01*
X52075Y-45449D01*
X52075Y-45628D01*
X52332Y-45628D01*
X52372Y-45588D01*
X52372Y-45786D01*
X52332Y-45746D01*
X52075Y-45746D01*
X52075Y-45805D01*
X51799Y-45805D01*
X51799Y-45746D01*
X51772Y-45746D01*
X51772Y-45628D01*
X51799Y-45628D01*
X51799Y-45449D01*
X51759Y-45409D01*
X51693Y-45409D01*
X51654Y-45409D01*
X51654Y-45149D01*
X51654Y-45099D01*
X51654Y-44900D01*
X51654Y-44850D01*
X51630Y-44791D01*
X51585Y-44746D01*
X51526Y-44721D01*
X51480Y-44721D01*
X51440Y-44761D01*
X51440Y-44940D01*
X51614Y-44940D01*
X51654Y-44900D01*
X51654Y-45099D01*
X51614Y-45059D01*
X51440Y-45059D01*
X51440Y-45238D01*
X51480Y-45278D01*
X51526Y-45278D01*
X51585Y-45253D01*
X51630Y-45208D01*
X51654Y-45149D01*
X51654Y-45409D01*
X51630Y-45409D01*
X51571Y-45434D01*
X51526Y-45479D01*
X51504Y-45530D01*
X51501Y-45530D01*
X51501Y-45537D01*
X51501Y-45546D01*
X51462Y-45530D01*
X51414Y-45530D01*
X50637Y-45530D01*
X50930Y-45237D01*
X51045Y-45237D01*
X51089Y-45219D01*
X51123Y-45186D01*
X51128Y-45174D01*
X51142Y-45208D01*
X51187Y-45253D01*
X51246Y-45278D01*
X51292Y-45278D01*
X51332Y-45238D01*
X51332Y-45059D01*
X51277Y-45059D01*
X51277Y-44940D01*
X51332Y-44940D01*
X51332Y-44761D01*
X51292Y-44721D01*
X51246Y-44721D01*
X51187Y-44746D01*
X51142Y-44791D01*
X51128Y-44825D01*
X51123Y-44813D01*
X51089Y-44780D01*
X51045Y-44762D01*
X50998Y-44762D01*
X50781Y-44762D01*
X50737Y-44780D01*
X50703Y-44813D01*
X50685Y-44858D01*
X50685Y-44905D01*
X50685Y-44973D01*
X50389Y-45270D01*
X50300Y-45270D01*
X50231Y-45283D01*
X50172Y-45322D01*
X50045Y-45449D01*
X49598Y-45449D01*
X49828Y-45219D01*
X50273Y-45219D01*
X50317Y-45201D01*
X50351Y-45167D01*
X50369Y-45123D01*
X50369Y-45076D01*
X50369Y-44576D01*
X50351Y-44532D01*
X50317Y-44498D01*
X50273Y-44480D01*
X50226Y-44480D01*
X49266Y-44480D01*
X49266Y-44381D01*
X49628Y-44019D01*
X50273Y-44019D01*
X50317Y-44001D01*
X50351Y-43967D01*
X50369Y-43923D01*
X50369Y-43876D01*
X50369Y-43376D01*
X50351Y-43332D01*
X50317Y-43298D01*
X50273Y-43280D01*
X50226Y-43280D01*
X49226Y-43280D01*
X49182Y-43298D01*
X49148Y-43332D01*
X49130Y-43376D01*
X49130Y-43423D01*
X49130Y-43621D01*
X48768Y-43983D01*
X48500Y-43983D01*
X48378Y-44007D01*
X48276Y-44076D01*
X48207Y-44178D01*
X48183Y-44300D01*
X48183Y-44700D01*
X48207Y-44821D01*
X48276Y-44923D01*
X48378Y-44992D01*
X48500Y-45016D01*
X48950Y-45016D01*
X49071Y-44992D01*
X49130Y-44953D01*
X49130Y-45021D01*
X49026Y-45126D01*
X48957Y-45228D01*
X48933Y-45350D01*
X48933Y-45556D01*
X48902Y-45481D01*
X48768Y-45348D01*
X48594Y-45275D01*
X48406Y-45275D01*
X48231Y-45347D01*
X48098Y-45481D01*
X48025Y-45655D01*
X48025Y-45843D01*
X48097Y-46018D01*
X48231Y-46151D01*
X48405Y-46224D01*
X48577Y-46224D01*
X48526Y-46275D01*
X48406Y-46275D01*
X48231Y-46347D01*
X48098Y-46481D01*
X48025Y-46655D01*
X48025Y-46843D01*
X48097Y-47018D01*
X48231Y-47151D01*
X48405Y-47224D01*
X48593Y-47224D01*
X48768Y-47152D01*
X48901Y-47018D01*
X48974Y-46844D01*
X48974Y-46723D01*
X49193Y-46504D01*
X49250Y-46504D01*
X49459Y-46504D01*
X49442Y-46545D01*
X49442Y-46593D01*
X49442Y-46829D01*
X49460Y-46873D01*
X49493Y-46907D01*
X49538Y-46925D01*
X49585Y-46925D01*
X50136Y-46925D01*
X50180Y-46907D01*
X50214Y-46873D01*
X50216Y-46868D01*
X50216Y-47006D01*
X50214Y-47001D01*
X50180Y-46968D01*
X50136Y-46949D01*
X50089Y-46949D01*
X49538Y-46949D01*
X49493Y-46968D01*
X49460Y-47001D01*
X49442Y-47045D01*
X49442Y-47093D01*
X49442Y-47329D01*
X49460Y-47373D01*
X49493Y-47407D01*
X49538Y-47425D01*
X49585Y-47425D01*
X49657Y-47425D01*
X49657Y-47501D01*
X49423Y-47735D01*
X49308Y-47735D01*
X49263Y-47753D01*
X49230Y-47787D01*
X49212Y-47831D01*
X49212Y-47879D01*
X49212Y-48095D01*
X49230Y-48139D01*
X49263Y-48173D01*
X49308Y-48191D01*
X49355Y-48191D01*
X49591Y-48191D01*
X49636Y-48173D01*
X49669Y-48139D01*
X49687Y-48095D01*
X49687Y-48048D01*
X49687Y-47980D01*
X49762Y-47906D01*
X49762Y-48095D01*
X49780Y-48139D01*
X49813Y-48173D01*
X49858Y-48191D01*
X49905Y-48191D01*
X50141Y-48191D01*
X50186Y-48173D01*
X50216Y-48143D01*
X50333Y-48143D01*
X50363Y-48173D01*
X50408Y-48191D01*
X50455Y-48191D01*
X50691Y-48191D01*
X50736Y-48173D01*
X50769Y-48139D01*
X50787Y-48095D01*
X50787Y-48048D01*
X50787Y-47980D01*
X50862Y-47906D01*
X50862Y-48095D01*
X50880Y-48139D01*
X50913Y-48173D01*
X50958Y-48191D01*
X51005Y-48191D01*
X51073Y-48191D01*
X51089Y-48208D01*
X50958Y-48208D01*
X50913Y-48226D01*
X50880Y-48260D01*
X50862Y-48304D01*
X50862Y-48351D01*
X50862Y-48480D01*
X50834Y-48480D01*
X50787Y-48433D01*
X50787Y-48304D01*
X50769Y-48260D01*
X50736Y-48226D01*
X50691Y-48208D01*
X50644Y-48208D01*
X50408Y-48208D01*
X50363Y-48226D01*
X50330Y-48260D01*
X50312Y-48304D01*
X50312Y-48351D01*
X50312Y-48480D01*
X50298Y-48480D01*
X50237Y-48419D01*
X50237Y-48304D01*
X50219Y-48260D01*
X50186Y-48226D01*
X50141Y-48208D01*
X50094Y-48208D01*
X49858Y-48208D01*
X49813Y-48226D01*
X49783Y-48256D01*
X49666Y-48256D01*
X49636Y-48226D01*
X49591Y-48208D01*
X49544Y-48208D01*
X49308Y-48208D01*
X49263Y-48226D01*
X49230Y-48260D01*
X49212Y-48304D01*
X49212Y-48351D01*
X49212Y-48568D01*
X49230Y-48612D01*
X49263Y-48646D01*
X49308Y-48664D01*
X49355Y-48664D01*
X49591Y-48664D01*
X49636Y-48646D01*
X49666Y-48616D01*
X49783Y-48616D01*
X49813Y-48646D01*
X49858Y-48664D01*
X49905Y-48664D01*
X49973Y-48664D01*
X50030Y-48720D01*
X50030Y-48803D01*
X50071Y-48902D01*
X50146Y-48978D01*
X50246Y-49019D01*
X50353Y-49019D01*
X50452Y-48978D01*
X50528Y-48903D01*
X50569Y-48803D01*
X50569Y-48724D01*
X50580Y-48734D01*
X50580Y-48803D01*
X50621Y-48902D01*
X50696Y-48978D01*
X50796Y-49019D01*
X50903Y-49019D01*
X51002Y-48978D01*
X51078Y-48903D01*
X51119Y-48803D01*
X51119Y-48710D01*
X51286Y-48877D01*
X51344Y-48916D01*
X51344Y-48916D01*
X51413Y-48929D01*
X51936Y-48929D01*
X52005Y-48916D01*
X52063Y-48877D01*
X52276Y-48664D01*
X52391Y-48664D01*
X52436Y-48646D01*
X52466Y-48616D01*
X52630Y-48616D01*
X52630Y-48723D01*
X52648Y-48767D01*
X52682Y-48801D01*
X52726Y-48819D01*
X52773Y-48819D01*
X53673Y-48819D01*
X53717Y-48801D01*
X53751Y-48767D01*
X53769Y-48723D01*
X53769Y-48676D01*
X53769Y-47976D01*
X53757Y-47945D01*
X53771Y-47942D01*
X53873Y-47873D01*
X53942Y-47771D01*
X53966Y-47650D01*
X53966Y-49860D01*
X52269Y-49860D01*
X52269Y-49446D01*
X52228Y-49347D01*
X52153Y-49271D01*
X52053Y-49230D01*
X51946Y-49230D01*
X51847Y-49271D01*
X51771Y-49346D01*
X51749Y-49398D01*
X51728Y-49347D01*
X51653Y-49271D01*
X51553Y-49230D01*
X51446Y-49230D01*
X51347Y-49271D01*
X51271Y-49346D01*
X51249Y-49398D01*
X51228Y-49347D01*
X51153Y-49271D01*
X51053Y-49230D01*
X50946Y-49230D01*
X50847Y-49271D01*
X50771Y-49346D01*
X50749Y-49398D01*
X50728Y-49347D01*
X50653Y-49271D01*
X50553Y-49230D01*
X50446Y-49230D01*
X50347Y-49271D01*
X50271Y-49346D01*
X50249Y-49398D01*
X50228Y-49347D01*
X50153Y-49271D01*
X50053Y-49230D01*
X49946Y-49230D01*
X49847Y-49271D01*
X49771Y-49346D01*
X49749Y-49398D01*
X49728Y-49347D01*
X49653Y-49271D01*
X49553Y-49230D01*
X49446Y-49230D01*
X49347Y-49271D01*
X49271Y-49346D01*
X49249Y-49398D01*
X49228Y-49347D01*
X49153Y-49271D01*
X49053Y-49230D01*
X48946Y-49230D01*
X48847Y-49271D01*
X48771Y-49346D01*
X48749Y-49398D01*
X48728Y-49347D01*
X48653Y-49271D01*
X48553Y-49230D01*
X48446Y-49230D01*
X48347Y-49271D01*
X48271Y-49346D01*
X48230Y-49446D01*
X48230Y-49553D01*
X48271Y-49652D01*
X48346Y-49728D01*
X48446Y-49769D01*
X48553Y-49769D01*
X48652Y-49728D01*
X48728Y-49653D01*
X48750Y-49601D01*
X48771Y-49652D01*
X48846Y-49728D01*
X48946Y-49769D01*
X49053Y-49769D01*
X49152Y-49728D01*
X49228Y-49653D01*
X49250Y-49601D01*
X49271Y-49652D01*
X49346Y-49728D01*
X49446Y-49769D01*
X49553Y-49769D01*
X49652Y-49728D01*
X49728Y-49653D01*
X49750Y-49601D01*
X49771Y-49652D01*
X49846Y-49728D01*
X49946Y-49769D01*
X50053Y-49769D01*
X50152Y-49728D01*
X50228Y-49653D01*
X50250Y-49601D01*
X50271Y-49652D01*
X50346Y-49728D01*
X50446Y-49769D01*
X50553Y-49769D01*
X50652Y-49728D01*
X50728Y-49653D01*
X50750Y-49601D01*
X50771Y-49652D01*
X50846Y-49728D01*
X50946Y-49769D01*
X51053Y-49769D01*
X51152Y-49728D01*
X51228Y-49653D01*
X51250Y-49601D01*
X51271Y-49652D01*
X51346Y-49728D01*
X51446Y-49769D01*
X51553Y-49769D01*
X51652Y-49728D01*
X51728Y-49653D01*
X51750Y-49601D01*
X51771Y-49652D01*
X51846Y-49728D01*
X51946Y-49769D01*
X52053Y-49769D01*
X52152Y-49728D01*
X52228Y-49653D01*
X52269Y-49553D01*
X52269Y-49446D01*
X52269Y-49860D01*
X47974Y-49860D01*
X47974Y-46156D01*
X47974Y-45156D01*
X47902Y-44981D01*
X47768Y-44848D01*
X47594Y-44775D01*
X47406Y-44775D01*
X47231Y-44847D01*
X47098Y-44981D01*
X47025Y-45155D01*
X47025Y-45343D01*
X47097Y-45518D01*
X47231Y-45651D01*
X47405Y-45724D01*
X47593Y-45724D01*
X47768Y-45652D01*
X47901Y-45518D01*
X47974Y-45344D01*
X47974Y-45156D01*
X47974Y-46156D01*
X47902Y-45981D01*
X47768Y-45848D01*
X47594Y-45775D01*
X47406Y-45775D01*
X47231Y-45847D01*
X47098Y-45981D01*
X47025Y-46155D01*
X47025Y-46343D01*
X47097Y-46518D01*
X47231Y-46651D01*
X47405Y-46724D01*
X47593Y-46724D01*
X47768Y-46652D01*
X47901Y-46518D01*
X47974Y-46344D01*
X47974Y-46156D01*
X47974Y-49860D01*
X47614Y-49860D01*
X47598Y-49781D01*
X47577Y-49731D01*
X47577Y-49731D01*
X47469Y-49568D01*
X47469Y-49568D01*
X47431Y-49530D01*
X47431Y-49530D01*
X47268Y-49422D01*
X47218Y-49401D01*
X47027Y-49363D01*
X47027Y-49363D01*
X46972Y-49363D01*
X46972Y-49363D01*
X46781Y-49401D01*
X46731Y-49422D01*
X46568Y-49530D01*
X46568Y-49530D01*
X46530Y-49568D01*
X46530Y-49568D01*
X46422Y-49731D01*
X46401Y-49781D01*
X46385Y-49860D01*
X45769Y-49860D01*
X45769Y-49446D01*
X45769Y-42446D01*
X45728Y-42347D01*
X45653Y-42271D01*
X45553Y-42230D01*
X45446Y-42230D01*
X45347Y-42271D01*
X45271Y-42346D01*
X45249Y-42398D01*
X45228Y-42347D01*
X45153Y-42271D01*
X45053Y-42230D01*
X44946Y-42230D01*
X44847Y-42271D01*
X44771Y-42346D01*
X44730Y-42446D01*
X44730Y-42553D01*
X44771Y-42652D01*
X44846Y-42728D01*
X44946Y-42769D01*
X45053Y-42769D01*
X45152Y-42728D01*
X45228Y-42653D01*
X45250Y-42601D01*
X45271Y-42652D01*
X45346Y-42728D01*
X45446Y-42769D01*
X45553Y-42769D01*
X45652Y-42728D01*
X45728Y-42653D01*
X45769Y-42553D01*
X45769Y-42446D01*
X45769Y-49446D01*
X45749Y-49398D01*
X45749Y-47851D01*
X45749Y-43851D01*
X45636Y-43575D01*
X45425Y-43364D01*
X45149Y-43250D01*
X44851Y-43250D01*
X44769Y-43283D01*
X44769Y-42946D01*
X44728Y-42847D01*
X44653Y-42771D01*
X44553Y-42730D01*
X44446Y-42730D01*
X44347Y-42771D01*
X44271Y-42846D01*
X44230Y-42946D01*
X44230Y-43053D01*
X44271Y-43152D01*
X44346Y-43228D01*
X44446Y-43269D01*
X44553Y-43269D01*
X44652Y-43228D01*
X44728Y-43153D01*
X44769Y-43053D01*
X44769Y-42946D01*
X44769Y-43283D01*
X44575Y-43363D01*
X44364Y-43574D01*
X44250Y-43850D01*
X44250Y-44148D01*
X44363Y-44424D01*
X44574Y-44635D01*
X44850Y-44749D01*
X45148Y-44749D01*
X45424Y-44636D01*
X45635Y-44425D01*
X45749Y-44149D01*
X45749Y-43851D01*
X45749Y-47851D01*
X45636Y-47575D01*
X45425Y-47364D01*
X45149Y-47250D01*
X44851Y-47250D01*
X44769Y-47283D01*
X44769Y-46946D01*
X44728Y-46847D01*
X44653Y-46771D01*
X44601Y-46749D01*
X44652Y-46728D01*
X44728Y-46653D01*
X44769Y-46553D01*
X44769Y-46446D01*
X44728Y-46347D01*
X44653Y-46271D01*
X44601Y-46249D01*
X44652Y-46228D01*
X44728Y-46153D01*
X44769Y-46053D01*
X44769Y-45946D01*
X44728Y-45847D01*
X44653Y-45771D01*
X44601Y-45749D01*
X44652Y-45728D01*
X44728Y-45653D01*
X44769Y-45553D01*
X44769Y-45446D01*
X44728Y-45347D01*
X44653Y-45271D01*
X44601Y-45249D01*
X44652Y-45228D01*
X44728Y-45153D01*
X44769Y-45053D01*
X44769Y-44946D01*
X44728Y-44847D01*
X44653Y-44771D01*
X44553Y-44730D01*
X44446Y-44730D01*
X44347Y-44771D01*
X44271Y-44846D01*
X44230Y-44946D01*
X44230Y-45053D01*
X44271Y-45152D01*
X44346Y-45228D01*
X44398Y-45250D01*
X44347Y-45271D01*
X44271Y-45346D01*
X44230Y-45446D01*
X44230Y-45553D01*
X44271Y-45652D01*
X44346Y-45728D01*
X44398Y-45750D01*
X44347Y-45771D01*
X44271Y-45846D01*
X44230Y-45946D01*
X44230Y-46053D01*
X44271Y-46152D01*
X44346Y-46228D01*
X44398Y-46250D01*
X44347Y-46271D01*
X44271Y-46346D01*
X44230Y-46446D01*
X44230Y-46553D01*
X44271Y-46652D01*
X44346Y-46728D01*
X44398Y-46750D01*
X44347Y-46771D01*
X44271Y-46846D01*
X44230Y-46946D01*
X44230Y-47053D01*
X44271Y-47152D01*
X44346Y-47228D01*
X44446Y-47269D01*
X44553Y-47269D01*
X44652Y-47228D01*
X44728Y-47153D01*
X44769Y-47053D01*
X44769Y-46946D01*
X44769Y-47283D01*
X44575Y-47363D01*
X44364Y-47574D01*
X44250Y-47850D01*
X44250Y-48148D01*
X44363Y-48424D01*
X44574Y-48635D01*
X44850Y-48749D01*
X45148Y-48749D01*
X45424Y-48636D01*
X45635Y-48425D01*
X45749Y-48149D01*
X45749Y-47851D01*
X45749Y-49398D01*
X45728Y-49347D01*
X45653Y-49271D01*
X45553Y-49230D01*
X45446Y-49230D01*
X45347Y-49271D01*
X45271Y-49346D01*
X45249Y-49398D01*
X45228Y-49347D01*
X45153Y-49271D01*
X45053Y-49230D01*
X44946Y-49230D01*
X44847Y-49271D01*
X44771Y-49346D01*
X44769Y-49350D01*
X44769Y-48946D01*
X44728Y-48847D01*
X44653Y-48771D01*
X44553Y-48730D01*
X44446Y-48730D01*
X44347Y-48771D01*
X44271Y-48846D01*
X44230Y-48946D01*
X44230Y-49053D01*
X44271Y-49152D01*
X44346Y-49228D01*
X44446Y-49269D01*
X44553Y-49269D01*
X44652Y-49228D01*
X44728Y-49153D01*
X44769Y-49053D01*
X44769Y-48946D01*
X44769Y-49350D01*
X44730Y-49446D01*
X44730Y-49553D01*
X44771Y-49652D01*
X44846Y-49728D01*
X44946Y-49769D01*
X45053Y-49769D01*
X45152Y-49728D01*
X45228Y-49653D01*
X45250Y-49601D01*
X45271Y-49652D01*
X45346Y-49728D01*
X45446Y-49769D01*
X45553Y-49769D01*
X45652Y-49728D01*
X45728Y-49653D01*
X45769Y-49553D01*
X45769Y-49446D01*
X45769Y-49860D01*
X45013Y-49860D01*
X44671Y-49792D01*
X44393Y-49606D01*
X44207Y-49328D01*
X44139Y-48986D01*
X44139Y-43013D01*
X44207Y-42671D01*
X44393Y-42393D01*
X44671Y-42207D01*
X45013Y-42139D01*
X46385Y-42139D01*
X46401Y-42218D01*
X46422Y-42268D01*
X46530Y-42431D01*
X46530Y-42431D01*
X46568Y-42469D01*
X46568Y-42469D01*
X46731Y-42577D01*
X46731Y-42577D01*
X46781Y-42598D01*
X46972Y-42636D01*
X46972Y-42636D01*
X47027Y-42636D01*
X47027Y-42636D01*
X47218Y-42598D01*
X47268Y-42577D01*
X47431Y-42469D01*
X47431Y-42469D01*
X47469Y-42431D01*
X47469Y-42431D01*
X47577Y-42268D01*
X47577Y-42268D01*
X47598Y-42218D01*
X47614Y-42139D01*
X56380Y-42139D01*
X56380Y-42397D01*
X55693Y-42397D01*
X55649Y-42415D01*
X55615Y-42449D01*
X55597Y-42493D01*
X55597Y-42495D01*
X54761Y-42495D01*
X54723Y-42480D01*
X54676Y-42480D01*
X53876Y-42480D01*
X53832Y-42498D01*
X53798Y-42532D01*
X53780Y-42576D01*
X53780Y-42623D01*
X53780Y-43023D01*
X53798Y-43067D01*
X53832Y-43101D01*
X53876Y-43119D01*
X53923Y-43119D01*
X54265Y-43119D01*
X54312Y-43129D01*
X55597Y-43129D01*
X55597Y-43131D01*
X55615Y-43175D01*
X55649Y-43209D01*
X55693Y-43227D01*
X55741Y-43227D01*
X56380Y-43227D01*
X56380Y-43619D01*
X58950Y-43619D01*
X59513Y-44183D01*
X59311Y-44183D01*
X58795Y-44183D01*
X58750Y-44201D01*
X58717Y-44235D01*
X58699Y-44279D01*
X58699Y-44326D01*
X58699Y-44720D01*
X58717Y-44764D01*
X58750Y-44798D01*
X58795Y-44816D01*
X58842Y-44816D01*
X58994Y-44816D01*
X58994Y-45044D01*
X58983Y-45100D01*
X58983Y-45550D01*
X58983Y-45600D01*
X59007Y-45721D01*
X59076Y-45823D01*
X59178Y-45892D01*
X59300Y-45916D01*
X59750Y-45916D01*
X59871Y-45892D01*
X59880Y-45886D01*
X59880Y-46163D01*
X59871Y-46157D01*
X59750Y-46133D01*
X59300Y-46133D01*
X59178Y-46157D01*
X59076Y-46226D01*
X59007Y-46328D01*
X58983Y-46450D01*
X58983Y-46900D01*
X58983Y-47183D01*
X58795Y-47183D01*
X58750Y-47201D01*
X58717Y-47235D01*
X58699Y-47279D01*
X58699Y-47326D01*
X58699Y-47720D01*
X58717Y-47764D01*
X58750Y-47798D01*
X58795Y-47816D01*
X58842Y-47816D01*
X59826Y-47816D01*
X59871Y-47798D01*
X59880Y-47789D01*
X59880Y-48119D01*
X62860Y-48119D01*
X62860Y-48986D01*
G54D10*
G36*
X62870Y-47970D02*
X62760Y-47970D01*
X62760Y-43448D01*
X62720Y-43352D01*
X62647Y-43279D01*
X62575Y-43249D01*
X62647Y-43220D01*
X62720Y-43147D01*
X62759Y-43051D01*
X62760Y-42948D01*
X62720Y-42852D01*
X62647Y-42779D01*
X62551Y-42740D01*
X62448Y-42739D01*
X62352Y-42779D01*
X62279Y-42852D01*
X62260Y-42899D01*
X62260Y-42448D01*
X62220Y-42352D01*
X62147Y-42279D01*
X62051Y-42240D01*
X61948Y-42239D01*
X61852Y-42279D01*
X61779Y-42352D01*
X61749Y-42424D01*
X61720Y-42352D01*
X61647Y-42279D01*
X61551Y-42240D01*
X61448Y-42239D01*
X61352Y-42279D01*
X61279Y-42352D01*
X61240Y-42448D01*
X61239Y-42551D01*
X61279Y-42647D01*
X61352Y-42720D01*
X61448Y-42759D01*
X61551Y-42760D01*
X61647Y-42720D01*
X61720Y-42647D01*
X61750Y-42575D01*
X61779Y-42647D01*
X61852Y-42720D01*
X61948Y-42759D01*
X62051Y-42760D01*
X62147Y-42720D01*
X62220Y-42647D01*
X62259Y-42551D01*
X62260Y-42448D01*
X62260Y-42899D01*
X62240Y-42948D01*
X62239Y-43051D01*
X62279Y-43147D01*
X62352Y-43220D01*
X62424Y-43250D01*
X62352Y-43279D01*
X62279Y-43352D01*
X62240Y-43448D01*
X62239Y-43551D01*
X62279Y-43647D01*
X62352Y-43720D01*
X62448Y-43759D01*
X62551Y-43760D01*
X62647Y-43720D01*
X62720Y-43647D01*
X62759Y-43551D01*
X62760Y-43448D01*
X62760Y-47970D01*
X62504Y-47970D01*
X62504Y-44884D01*
X62504Y-44714D01*
X62504Y-44285D01*
X62504Y-44115D01*
X62481Y-44060D01*
X62439Y-44018D01*
X62384Y-43995D01*
X62324Y-43995D01*
X62214Y-43995D01*
X62177Y-44033D01*
X62177Y-44322D01*
X62466Y-44322D01*
X62504Y-44285D01*
X62504Y-44714D01*
X62466Y-44677D01*
X62177Y-44677D01*
X62177Y-44966D01*
X62214Y-45004D01*
X62324Y-45004D01*
X62384Y-45004D01*
X62439Y-44981D01*
X62481Y-44939D01*
X62504Y-44884D01*
X62504Y-47970D01*
X62464Y-47970D01*
X62464Y-47408D01*
X62464Y-46408D01*
X62464Y-45408D01*
X62393Y-45237D01*
X62263Y-45106D01*
X62092Y-45035D01*
X61908Y-45035D01*
X61822Y-45070D01*
X61822Y-44966D01*
X61822Y-44677D01*
X61822Y-44322D01*
X61822Y-44033D01*
X61785Y-43995D01*
X61675Y-43995D01*
X61615Y-43995D01*
X61560Y-44018D01*
X61518Y-44060D01*
X61495Y-44115D01*
X61495Y-44285D01*
X61533Y-44322D01*
X61822Y-44322D01*
X61822Y-44677D01*
X61533Y-44677D01*
X61495Y-44714D01*
X61495Y-44884D01*
X61518Y-44939D01*
X61560Y-44981D01*
X61615Y-45004D01*
X61675Y-45004D01*
X61785Y-45004D01*
X61822Y-44966D01*
X61822Y-45070D01*
X61737Y-45106D01*
X61606Y-45236D01*
X61535Y-45407D01*
X61535Y-45591D01*
X61606Y-45762D01*
X61736Y-45893D01*
X61907Y-45964D01*
X62091Y-45964D01*
X62262Y-45893D01*
X62393Y-45763D01*
X62464Y-45592D01*
X62464Y-45408D01*
X62464Y-46408D01*
X62393Y-46237D01*
X62263Y-46106D01*
X62092Y-46035D01*
X61908Y-46035D01*
X61737Y-46106D01*
X61606Y-46236D01*
X61535Y-46407D01*
X61535Y-46591D01*
X61606Y-46762D01*
X61736Y-46893D01*
X61907Y-46964D01*
X62091Y-46964D01*
X62262Y-46893D01*
X62393Y-46763D01*
X62464Y-46592D01*
X62464Y-46408D01*
X62464Y-47408D01*
X62393Y-47237D01*
X62263Y-47106D01*
X62092Y-47035D01*
X61908Y-47035D01*
X61737Y-47106D01*
X61606Y-47236D01*
X61535Y-47407D01*
X61535Y-47591D01*
X61606Y-47762D01*
X61736Y-47893D01*
X61907Y-47964D01*
X62091Y-47964D01*
X62262Y-47893D01*
X62393Y-47763D01*
X62464Y-47592D01*
X62464Y-47408D01*
X62464Y-47970D01*
X61331Y-47970D01*
X61331Y-47726D01*
X61331Y-47666D01*
X61331Y-47635D01*
X61331Y-47364D01*
X61331Y-47333D01*
X61331Y-47273D01*
X61331Y-44726D01*
X61331Y-44666D01*
X61331Y-44635D01*
X61331Y-44364D01*
X61331Y-44333D01*
X61331Y-44273D01*
X61308Y-44218D01*
X61266Y-44175D01*
X61210Y-44153D01*
X60972Y-44153D01*
X60935Y-44190D01*
X60935Y-44401D01*
X61293Y-44401D01*
X61331Y-44364D01*
X61331Y-44635D01*
X61293Y-44598D01*
X60935Y-44598D01*
X60935Y-44809D01*
X60972Y-44846D01*
X61210Y-44846D01*
X61266Y-44824D01*
X61308Y-44781D01*
X61331Y-44726D01*
X61331Y-47273D01*
X61308Y-47218D01*
X61266Y-47175D01*
X61210Y-47153D01*
X60972Y-47153D01*
X60935Y-47190D01*
X60935Y-47401D01*
X61293Y-47401D01*
X61331Y-47364D01*
X61331Y-47635D01*
X61293Y-47598D01*
X60935Y-47598D01*
X60935Y-47809D01*
X60972Y-47846D01*
X61210Y-47846D01*
X61266Y-47824D01*
X61308Y-47781D01*
X61331Y-47726D01*
X61331Y-47970D01*
X60442Y-47970D01*
X60442Y-47809D01*
X60442Y-47598D01*
X60442Y-47401D01*
X60442Y-47190D01*
X60442Y-44809D01*
X60442Y-44598D01*
X60442Y-44401D01*
X60442Y-44190D01*
X60405Y-44153D01*
X60166Y-44153D01*
X60111Y-44175D01*
X60069Y-44218D01*
X60046Y-44273D01*
X60046Y-44333D01*
X60046Y-44364D01*
X60084Y-44401D01*
X60442Y-44401D01*
X60442Y-44598D01*
X60084Y-44598D01*
X60046Y-44635D01*
X60046Y-44666D01*
X60046Y-44726D01*
X60069Y-44781D01*
X60111Y-44824D01*
X60166Y-44846D01*
X60405Y-44846D01*
X60442Y-44809D01*
X60442Y-47190D01*
X60405Y-47153D01*
X60166Y-47153D01*
X60111Y-47175D01*
X60069Y-47218D01*
X60046Y-47273D01*
X60046Y-47333D01*
X60046Y-47364D01*
X60084Y-47401D01*
X60442Y-47401D01*
X60442Y-47598D01*
X60084Y-47598D01*
X60046Y-47635D01*
X60046Y-47666D01*
X60046Y-47726D01*
X60069Y-47781D01*
X60111Y-47824D01*
X60166Y-47846D01*
X60405Y-47846D01*
X60442Y-47809D01*
X60442Y-47970D01*
X60030Y-47970D01*
X60030Y-47022D01*
X60033Y-47017D01*
X60056Y-46900D01*
X60056Y-46450D01*
X60033Y-46332D01*
X60030Y-46327D01*
X60030Y-45722D01*
X60033Y-45717D01*
X60056Y-45600D01*
X60056Y-45100D01*
X60033Y-44982D01*
X60030Y-44977D01*
X60030Y-44487D01*
X59913Y-44370D01*
X59913Y-44281D01*
X59896Y-44240D01*
X59865Y-44209D01*
X59825Y-44193D01*
X59781Y-44193D01*
X59735Y-44193D01*
X59012Y-43470D01*
X58760Y-43470D01*
X58760Y-42448D01*
X58720Y-42352D01*
X58647Y-42279D01*
X58551Y-42240D01*
X58448Y-42239D01*
X58352Y-42279D01*
X58279Y-42352D01*
X58240Y-42448D01*
X58239Y-42551D01*
X58279Y-42647D01*
X58352Y-42720D01*
X58448Y-42759D01*
X58551Y-42760D01*
X58647Y-42720D01*
X58720Y-42647D01*
X58759Y-42551D01*
X58760Y-42448D01*
X58760Y-43470D01*
X58032Y-43470D01*
X58032Y-43137D01*
X58032Y-43078D01*
X58032Y-42997D01*
X58032Y-42627D01*
X58032Y-42547D01*
X58032Y-42487D01*
X58009Y-42432D01*
X57967Y-42390D01*
X57912Y-42367D01*
X57201Y-42367D01*
X57163Y-42404D01*
X57163Y-42664D01*
X57995Y-42664D01*
X58032Y-42627D01*
X58032Y-42997D01*
X57995Y-42960D01*
X57163Y-42960D01*
X57163Y-43220D01*
X57201Y-43257D01*
X57912Y-43257D01*
X57967Y-43235D01*
X58009Y-43192D01*
X58032Y-43137D01*
X58032Y-43470D01*
X56530Y-43470D01*
X56530Y-42129D01*
X59393Y-42129D01*
X59410Y-42216D01*
X59430Y-42263D01*
X59538Y-42425D01*
X59538Y-42425D01*
X59574Y-42461D01*
X59736Y-42569D01*
X59783Y-42589D01*
X59974Y-42627D01*
X60025Y-42627D01*
X60025Y-42627D01*
X60216Y-42589D01*
X60263Y-42569D01*
X60263Y-42569D01*
X60425Y-42461D01*
X60425Y-42461D01*
X60461Y-42425D01*
X60569Y-42263D01*
X60589Y-42216D01*
X60606Y-42129D01*
X61987Y-42129D01*
X62332Y-42198D01*
X62613Y-42386D01*
X62801Y-42667D01*
X62870Y-43012D01*
X62870Y-47970D01*
X62870Y-47970D01*
G37*
G54D28*
X62870Y-47970D02*
X62760Y-47970D01*
X62760Y-43448D01*
X62720Y-43352D01*
X62647Y-43279D01*
X62575Y-43249D01*
X62647Y-43220D01*
X62720Y-43147D01*
X62759Y-43051D01*
X62760Y-42948D01*
X62720Y-42852D01*
X62647Y-42779D01*
X62551Y-42740D01*
X62448Y-42739D01*
X62352Y-42779D01*
X62279Y-42852D01*
X62260Y-42899D01*
X62260Y-42448D01*
X62220Y-42352D01*
X62147Y-42279D01*
X62051Y-42240D01*
X61948Y-42239D01*
X61852Y-42279D01*
X61779Y-42352D01*
X61749Y-42424D01*
X61720Y-42352D01*
X61647Y-42279D01*
X61551Y-42240D01*
X61448Y-42239D01*
X61352Y-42279D01*
X61279Y-42352D01*
X61240Y-42448D01*
X61239Y-42551D01*
X61279Y-42647D01*
X61352Y-42720D01*
X61448Y-42759D01*
X61551Y-42760D01*
X61647Y-42720D01*
X61720Y-42647D01*
X61750Y-42575D01*
X61779Y-42647D01*
X61852Y-42720D01*
X61948Y-42759D01*
X62051Y-42760D01*
X62147Y-42720D01*
X62220Y-42647D01*
X62259Y-42551D01*
X62260Y-42448D01*
X62260Y-42899D01*
X62240Y-42948D01*
X62239Y-43051D01*
X62279Y-43147D01*
X62352Y-43220D01*
X62424Y-43250D01*
X62352Y-43279D01*
X62279Y-43352D01*
X62240Y-43448D01*
X62239Y-43551D01*
X62279Y-43647D01*
X62352Y-43720D01*
X62448Y-43759D01*
X62551Y-43760D01*
X62647Y-43720D01*
X62720Y-43647D01*
X62759Y-43551D01*
X62760Y-43448D01*
X62760Y-47970D01*
X62504Y-47970D01*
X62504Y-44884D01*
X62504Y-44714D01*
X62504Y-44285D01*
X62504Y-44115D01*
X62481Y-44060D01*
X62439Y-44018D01*
X62384Y-43995D01*
X62324Y-43995D01*
X62214Y-43995D01*
X62177Y-44033D01*
X62177Y-44322D01*
X62466Y-44322D01*
X62504Y-44285D01*
X62504Y-44714D01*
X62466Y-44677D01*
X62177Y-44677D01*
X62177Y-44966D01*
X62214Y-45004D01*
X62324Y-45004D01*
X62384Y-45004D01*
X62439Y-44981D01*
X62481Y-44939D01*
X62504Y-44884D01*
X62504Y-47970D01*
X62464Y-47970D01*
X62464Y-47408D01*
X62464Y-46408D01*
X62464Y-45408D01*
X62393Y-45237D01*
X62263Y-45106D01*
X62092Y-45035D01*
X61908Y-45035D01*
X61822Y-45070D01*
X61822Y-44966D01*
X61822Y-44677D01*
X61822Y-44322D01*
X61822Y-44033D01*
X61785Y-43995D01*
X61675Y-43995D01*
X61615Y-43995D01*
X61560Y-44018D01*
X61518Y-44060D01*
X61495Y-44115D01*
X61495Y-44285D01*
X61533Y-44322D01*
X61822Y-44322D01*
X61822Y-44677D01*
X61533Y-44677D01*
X61495Y-44714D01*
X61495Y-44884D01*
X61518Y-44939D01*
X61560Y-44981D01*
X61615Y-45004D01*
X61675Y-45004D01*
X61785Y-45004D01*
X61822Y-44966D01*
X61822Y-45070D01*
X61737Y-45106D01*
X61606Y-45236D01*
X61535Y-45407D01*
X61535Y-45591D01*
X61606Y-45762D01*
X61736Y-45893D01*
X61907Y-45964D01*
X62091Y-45964D01*
X62262Y-45893D01*
X62393Y-45763D01*
X62464Y-45592D01*
X62464Y-45408D01*
X62464Y-46408D01*
X62393Y-46237D01*
X62263Y-46106D01*
X62092Y-46035D01*
X61908Y-46035D01*
X61737Y-46106D01*
X61606Y-46236D01*
X61535Y-46407D01*
X61535Y-46591D01*
X61606Y-46762D01*
X61736Y-46893D01*
X61907Y-46964D01*
X62091Y-46964D01*
X62262Y-46893D01*
X62393Y-46763D01*
X62464Y-46592D01*
X62464Y-46408D01*
X62464Y-47408D01*
X62393Y-47237D01*
X62263Y-47106D01*
X62092Y-47035D01*
X61908Y-47035D01*
X61737Y-47106D01*
X61606Y-47236D01*
X61535Y-47407D01*
X61535Y-47591D01*
X61606Y-47762D01*
X61736Y-47893D01*
X61907Y-47964D01*
X62091Y-47964D01*
X62262Y-47893D01*
X62393Y-47763D01*
X62464Y-47592D01*
X62464Y-47408D01*
X62464Y-47970D01*
X61331Y-47970D01*
X61331Y-47726D01*
X61331Y-47666D01*
X61331Y-47635D01*
X61331Y-47364D01*
X61331Y-47333D01*
X61331Y-47273D01*
X61331Y-44726D01*
X61331Y-44666D01*
X61331Y-44635D01*
X61331Y-44364D01*
X61331Y-44333D01*
X61331Y-44273D01*
X61308Y-44218D01*
X61266Y-44175D01*
X61210Y-44153D01*
X60972Y-44153D01*
X60935Y-44190D01*
X60935Y-44401D01*
X61293Y-44401D01*
X61331Y-44364D01*
X61331Y-44635D01*
X61293Y-44598D01*
X60935Y-44598D01*
X60935Y-44809D01*
X60972Y-44846D01*
X61210Y-44846D01*
X61266Y-44824D01*
X61308Y-44781D01*
X61331Y-44726D01*
X61331Y-47273D01*
X61308Y-47218D01*
X61266Y-47175D01*
X61210Y-47153D01*
X60972Y-47153D01*
X60935Y-47190D01*
X60935Y-47401D01*
X61293Y-47401D01*
X61331Y-47364D01*
X61331Y-47635D01*
X61293Y-47598D01*
X60935Y-47598D01*
X60935Y-47809D01*
X60972Y-47846D01*
X61210Y-47846D01*
X61266Y-47824D01*
X61308Y-47781D01*
X61331Y-47726D01*
X61331Y-47970D01*
X60442Y-47970D01*
X60442Y-47809D01*
X60442Y-47598D01*
X60442Y-47401D01*
X60442Y-47190D01*
X60442Y-44809D01*
X60442Y-44598D01*
X60442Y-44401D01*
X60442Y-44190D01*
X60405Y-44153D01*
X60166Y-44153D01*
X60111Y-44175D01*
X60069Y-44218D01*
X60046Y-44273D01*
X60046Y-44333D01*
X60046Y-44364D01*
X60084Y-44401D01*
X60442Y-44401D01*
X60442Y-44598D01*
X60084Y-44598D01*
X60046Y-44635D01*
X60046Y-44666D01*
X60046Y-44726D01*
X60069Y-44781D01*
X60111Y-44824D01*
X60166Y-44846D01*
X60405Y-44846D01*
X60442Y-44809D01*
X60442Y-47190D01*
X60405Y-47153D01*
X60166Y-47153D01*
X60111Y-47175D01*
X60069Y-47218D01*
X60046Y-47273D01*
X60046Y-47333D01*
X60046Y-47364D01*
X60084Y-47401D01*
X60442Y-47401D01*
X60442Y-47598D01*
X60084Y-47598D01*
X60046Y-47635D01*
X60046Y-47666D01*
X60046Y-47726D01*
X60069Y-47781D01*
X60111Y-47824D01*
X60166Y-47846D01*
X60405Y-47846D01*
X60442Y-47809D01*
X60442Y-47970D01*
X60030Y-47970D01*
X60030Y-47022D01*
X60033Y-47017D01*
X60056Y-46900D01*
X60056Y-46450D01*
X60033Y-46332D01*
X60030Y-46327D01*
X60030Y-45722D01*
X60033Y-45717D01*
X60056Y-45600D01*
X60056Y-45100D01*
X60033Y-44982D01*
X60030Y-44977D01*
X60030Y-44487D01*
X59913Y-44370D01*
X59913Y-44281D01*
X59896Y-44240D01*
X59865Y-44209D01*
X59825Y-44193D01*
X59781Y-44193D01*
X59735Y-44193D01*
X59012Y-43470D01*
X58760Y-43470D01*
X58760Y-42448D01*
X58720Y-42352D01*
X58647Y-42279D01*
X58551Y-42240D01*
X58448Y-42239D01*
X58352Y-42279D01*
X58279Y-42352D01*
X58240Y-42448D01*
X58239Y-42551D01*
X58279Y-42647D01*
X58352Y-42720D01*
X58448Y-42759D01*
X58551Y-42760D01*
X58647Y-42720D01*
X58720Y-42647D01*
X58759Y-42551D01*
X58760Y-42448D01*
X58760Y-43470D01*
X58032Y-43470D01*
X58032Y-43137D01*
X58032Y-43078D01*
X58032Y-42997D01*
X58032Y-42627D01*
X58032Y-42547D01*
X58032Y-42487D01*
X58009Y-42432D01*
X57967Y-42390D01*
X57912Y-42367D01*
X57201Y-42367D01*
X57163Y-42404D01*
X57163Y-42664D01*
X57995Y-42664D01*
X58032Y-42627D01*
X58032Y-42997D01*
X57995Y-42960D01*
X57163Y-42960D01*
X57163Y-43220D01*
X57201Y-43257D01*
X57912Y-43257D01*
X57967Y-43235D01*
X58009Y-43192D01*
X58032Y-43137D01*
X58032Y-43470D01*
X56530Y-43470D01*
X56530Y-42129D01*
X59393Y-42129D01*
X59410Y-42216D01*
X59430Y-42263D01*
X59538Y-42425D01*
X59538Y-42425D01*
X59574Y-42461D01*
X59736Y-42569D01*
X59783Y-42589D01*
X59974Y-42627D01*
X60025Y-42627D01*
X60025Y-42627D01*
X60216Y-42589D01*
X60263Y-42569D01*
X60263Y-42569D01*
X60425Y-42461D01*
X60425Y-42461D01*
X60461Y-42425D01*
X60569Y-42263D01*
X60589Y-42216D01*
X60606Y-42129D01*
X61987Y-42129D01*
X62332Y-42198D01*
X62613Y-42386D01*
X62801Y-42667D01*
X62870Y-43012D01*
X62870Y-47970D01*
M02*
