G04 (created by PCBNEW (25-Oct-2014 BZR 4029)-stable) date Wed 10 Jun 2015 01:49:49 AM EDT*
%MOIN*%
G04 Gerber Fmt 3.4, Leading zero omitted, Abs format*
%FSLAX34Y34*%
G01*
G70*
G90*
G04 APERTURE LIST*
%ADD10C,0.00590551*%
%ADD11C,0.125984*%
%ADD12C,0.0708661*%
%ADD13R,0.07X0.07*%
%ADD14C,0.07*%
%ADD15C,0.0354*%
%ADD16C,0.15*%
%ADD17R,0.1378X0.1378*%
%ADD18C,0.055*%
%ADD19R,0.055X0.055*%
G04 APERTURE END LIST*
G54D10*
G54D11*
X17700Y-11200D03*
X13700Y-11200D03*
G54D12*
X16450Y-13700D03*
X15950Y-14700D03*
X15450Y-13700D03*
X14950Y-14700D03*
G54D13*
X20200Y-26000D03*
G54D14*
X20200Y-28000D03*
G54D15*
X44134Y-27465D03*
X45866Y-27465D03*
G54D16*
X11400Y-28400D03*
X11400Y-26400D03*
X11400Y-22400D03*
X11400Y-20400D03*
G54D17*
X14800Y-25359D03*
X14800Y-27721D03*
X16650Y-26540D03*
G54D11*
X23300Y-11200D03*
X19300Y-11200D03*
G54D12*
X22050Y-13700D03*
X21550Y-14700D03*
X21050Y-13700D03*
X20550Y-14700D03*
G54D11*
X28900Y-11200D03*
X24900Y-11200D03*
G54D12*
X27650Y-13700D03*
X27150Y-14700D03*
X26650Y-13700D03*
X26150Y-14700D03*
G54D11*
X34500Y-11200D03*
X30500Y-11200D03*
G54D12*
X33250Y-13700D03*
X32750Y-14700D03*
X32250Y-13700D03*
X31750Y-14700D03*
G54D11*
X40100Y-11200D03*
X36100Y-11200D03*
G54D12*
X38850Y-13700D03*
X38350Y-14700D03*
X37850Y-13700D03*
X37350Y-14700D03*
G54D11*
X45700Y-11200D03*
X41700Y-11200D03*
G54D12*
X44450Y-13700D03*
X43950Y-14700D03*
X43450Y-13700D03*
X42950Y-14700D03*
G54D18*
X17900Y-15800D03*
X15900Y-15800D03*
X23500Y-15800D03*
X21500Y-15800D03*
X29100Y-15800D03*
X27100Y-15800D03*
X34700Y-15800D03*
X32700Y-15800D03*
X40300Y-15800D03*
X38300Y-15800D03*
X45900Y-15800D03*
X43900Y-15800D03*
G54D19*
X48200Y-28700D03*
G54D18*
X48200Y-27700D03*
X48200Y-26700D03*
X48200Y-25700D03*
M02*
