G04 (created by PCBNEW (25-Oct-2014 BZR 4029)-stable) date Wed 10 Jun 2015 01:49:49 AM EDT*
%MOIN*%
G04 Gerber Fmt 3.4, Leading zero omitted, Abs format*
%FSLAX34Y34*%
G01*
G70*
G90*
G04 APERTURE LIST*
%ADD10C,0.00590551*%
%ADD11C,0.015*%
%ADD12C,0.005*%
%ADD13C,0.009*%
%ADD14C,0.008*%
%ADD15C,0.012*%
%ADD16C,0.0031*%
%ADD17C,0.0039*%
%ADD18C,0.00511811*%
G04 APERTURE END LIST*
G54D10*
G54D11*
X47500Y-29000D02*
G75*
G03X47500Y-29000I-100J0D01*
G74*
G01*
G54D12*
X46357Y-25642D02*
X46414Y-25661D01*
X46509Y-25661D01*
X46547Y-25642D01*
X46566Y-25623D01*
X46585Y-25585D01*
X46585Y-25547D01*
X46566Y-25509D01*
X46547Y-25490D01*
X46509Y-25471D01*
X46433Y-25452D01*
X46395Y-25433D01*
X46376Y-25414D01*
X46357Y-25376D01*
X46357Y-25338D01*
X46376Y-25300D01*
X46395Y-25280D01*
X46433Y-25261D01*
X46528Y-25261D01*
X46585Y-25280D01*
X46719Y-25261D02*
X46814Y-25661D01*
X46890Y-25376D01*
X46966Y-25661D01*
X47061Y-25261D01*
X47214Y-25661D02*
X47214Y-25261D01*
X47309Y-25261D01*
X47366Y-25280D01*
X47404Y-25319D01*
X47423Y-25357D01*
X47442Y-25433D01*
X47442Y-25490D01*
X47423Y-25566D01*
X47404Y-25604D01*
X47366Y-25642D01*
X47309Y-25661D01*
X47214Y-25661D01*
G54D13*
X43812Y-18248D02*
X43700Y-18248D01*
X43643Y-18276D01*
X43615Y-18304D01*
X43559Y-18389D01*
X43531Y-18501D01*
X43531Y-18726D01*
X43559Y-18782D01*
X43587Y-18810D01*
X43643Y-18839D01*
X43756Y-18839D01*
X43812Y-18810D01*
X43840Y-18782D01*
X43868Y-18726D01*
X43868Y-18585D01*
X43840Y-18529D01*
X43812Y-18501D01*
X43756Y-18473D01*
X43643Y-18473D01*
X43587Y-18501D01*
X43559Y-18529D01*
X43531Y-18585D01*
X38240Y-18248D02*
X37959Y-18248D01*
X37931Y-18529D01*
X37959Y-18501D01*
X38015Y-18473D01*
X38156Y-18473D01*
X38212Y-18501D01*
X38240Y-18529D01*
X38268Y-18585D01*
X38268Y-18726D01*
X38240Y-18782D01*
X38212Y-18810D01*
X38156Y-18839D01*
X38015Y-18839D01*
X37959Y-18810D01*
X37931Y-18782D01*
X32612Y-18445D02*
X32612Y-18839D01*
X32471Y-18220D02*
X32331Y-18642D01*
X32696Y-18642D01*
X26703Y-18248D02*
X27068Y-18248D01*
X26871Y-18473D01*
X26956Y-18473D01*
X27012Y-18501D01*
X27040Y-18529D01*
X27068Y-18585D01*
X27068Y-18726D01*
X27040Y-18782D01*
X27012Y-18810D01*
X26956Y-18839D01*
X26787Y-18839D01*
X26731Y-18810D01*
X26703Y-18782D01*
X21131Y-18304D02*
X21159Y-18276D01*
X21215Y-18248D01*
X21356Y-18248D01*
X21412Y-18276D01*
X21440Y-18304D01*
X21468Y-18360D01*
X21468Y-18417D01*
X21440Y-18501D01*
X21103Y-18839D01*
X21468Y-18839D01*
X15868Y-18839D02*
X15531Y-18839D01*
X15700Y-18839D02*
X15700Y-18248D01*
X15643Y-18332D01*
X15587Y-18389D01*
X15531Y-18417D01*
G54D14*
X47439Y-17007D02*
X47439Y-17288D01*
X46848Y-17288D01*
X46848Y-16810D02*
X47326Y-16810D01*
X47382Y-16782D01*
X47410Y-16754D01*
X47439Y-16698D01*
X47439Y-16585D01*
X47410Y-16529D01*
X47382Y-16501D01*
X47326Y-16473D01*
X46848Y-16473D01*
X46848Y-16248D02*
X47439Y-15854D01*
X46848Y-15854D02*
X47439Y-16248D01*
X48345Y-17556D02*
X48064Y-17752D01*
X48345Y-17893D02*
X47755Y-17893D01*
X47755Y-17668D01*
X47783Y-17612D01*
X47811Y-17584D01*
X47867Y-17556D01*
X47952Y-17556D01*
X48008Y-17584D01*
X48036Y-17612D01*
X48064Y-17668D01*
X48064Y-17893D01*
X48345Y-17218D02*
X48317Y-17274D01*
X48289Y-17303D01*
X48233Y-17331D01*
X48064Y-17331D01*
X48008Y-17303D01*
X47980Y-17274D01*
X47952Y-17218D01*
X47952Y-17134D01*
X47980Y-17078D01*
X48008Y-17049D01*
X48064Y-17021D01*
X48233Y-17021D01*
X48289Y-17049D01*
X48317Y-17078D01*
X48345Y-17134D01*
X48345Y-17218D01*
X47952Y-16515D02*
X48345Y-16515D01*
X47952Y-16768D02*
X48261Y-16768D01*
X48317Y-16740D01*
X48345Y-16684D01*
X48345Y-16600D01*
X48317Y-16543D01*
X48289Y-16515D01*
X47952Y-16318D02*
X47952Y-16093D01*
X47755Y-16234D02*
X48261Y-16234D01*
X48317Y-16206D01*
X48345Y-16150D01*
X48345Y-16093D01*
X48317Y-15671D02*
X48345Y-15728D01*
X48345Y-15840D01*
X48317Y-15896D01*
X48261Y-15925D01*
X48036Y-15925D01*
X47980Y-15896D01*
X47952Y-15840D01*
X47952Y-15728D01*
X47980Y-15671D01*
X48036Y-15643D01*
X48092Y-15643D01*
X48148Y-15925D01*
X48345Y-15390D02*
X47952Y-15390D01*
X48064Y-15390D02*
X48008Y-15362D01*
X47980Y-15334D01*
X47952Y-15278D01*
X47952Y-15222D01*
G54D10*
X18298Y-15200D02*
X13101Y-15200D01*
X13101Y-15200D02*
X13101Y-8109D01*
X13101Y-8109D02*
X18298Y-8109D01*
X18298Y-8109D02*
X18298Y-15200D01*
X22200Y-28000D02*
X20700Y-28000D01*
X22200Y-26000D02*
X20700Y-26000D01*
X22200Y-24500D02*
X32200Y-24500D01*
X32200Y-24500D02*
X32200Y-29500D01*
X32200Y-29500D02*
X22200Y-29500D01*
X22200Y-29500D02*
X22200Y-24500D01*
G54D12*
X36150Y-23500D02*
X36150Y-23550D01*
X36150Y-23550D02*
X38250Y-23550D01*
X38250Y-22050D02*
X36150Y-22050D01*
X36150Y-22050D02*
X36150Y-23500D01*
X36150Y-22600D02*
X36350Y-22600D01*
X36350Y-22600D02*
X36350Y-23000D01*
X36350Y-23000D02*
X36150Y-23000D01*
X38250Y-22050D02*
X38250Y-23550D01*
G54D11*
X43484Y-29217D02*
X46516Y-29217D01*
X43484Y-29611D02*
X46516Y-29611D01*
X46516Y-29611D02*
X46516Y-25989D01*
X46516Y-25989D02*
X43484Y-25989D01*
X43484Y-25989D02*
X43484Y-29611D01*
G54D15*
X10400Y-29400D02*
X10400Y-19400D01*
X10400Y-19400D02*
X12400Y-19400D01*
X12400Y-19400D02*
X12400Y-29400D01*
X12400Y-29400D02*
X10400Y-29400D01*
X10400Y-26400D02*
X12400Y-26400D01*
X10400Y-22400D02*
X12400Y-22400D01*
G54D10*
X48478Y-24439D02*
X48360Y-24439D01*
X48360Y-24439D02*
X48478Y-24400D01*
X48478Y-24400D02*
X48321Y-24400D01*
X48557Y-24321D02*
X48242Y-24321D01*
X48557Y-24360D02*
X48281Y-24360D01*
X48636Y-24281D02*
X48163Y-24281D01*
X48163Y-24281D02*
X48400Y-24518D01*
X48400Y-24518D02*
X48636Y-24281D01*
G54D12*
X48650Y-23950D02*
X48650Y-24850D01*
X48650Y-24948D02*
X48150Y-24948D01*
X48150Y-24850D02*
X48150Y-23950D01*
X48150Y-23851D02*
X48650Y-23851D01*
G54D10*
X46878Y-24439D02*
X46760Y-24439D01*
X46760Y-24439D02*
X46878Y-24400D01*
X46878Y-24400D02*
X46721Y-24400D01*
X46957Y-24321D02*
X46642Y-24321D01*
X46957Y-24360D02*
X46681Y-24360D01*
X47036Y-24281D02*
X46563Y-24281D01*
X46563Y-24281D02*
X46800Y-24518D01*
X46800Y-24518D02*
X47036Y-24281D01*
G54D12*
X47050Y-23950D02*
X47050Y-24850D01*
X47050Y-24948D02*
X46550Y-24948D01*
X46550Y-24850D02*
X46550Y-23950D01*
X46550Y-23851D02*
X47050Y-23851D01*
X47350Y-24850D02*
X47350Y-23950D01*
X47350Y-23851D02*
X47850Y-23851D01*
X47850Y-23950D02*
X47850Y-24850D01*
X47850Y-24948D02*
X47350Y-24948D01*
X46250Y-23950D02*
X46250Y-24850D01*
X46250Y-24948D02*
X45750Y-24948D01*
X45750Y-24850D02*
X45750Y-23950D01*
X45750Y-23851D02*
X46250Y-23851D01*
G54D16*
X14425Y-16062D02*
G75*
G03X14425Y-16062I-62J0D01*
G74*
G01*
X13400Y-16400D02*
X13400Y-16000D01*
X14425Y-16400D02*
X14425Y-16000D01*
X13400Y-16000D02*
X14425Y-16000D01*
X14425Y-16400D02*
X13400Y-16400D01*
G54D14*
X13200Y-22600D02*
X13200Y-23800D01*
X13200Y-23800D02*
X16000Y-23800D01*
X16000Y-23800D02*
X16000Y-22600D01*
X13200Y-21400D02*
X13200Y-21100D01*
X13200Y-21100D02*
X13800Y-20200D01*
X13800Y-20200D02*
X15400Y-20200D01*
X15400Y-20200D02*
X16000Y-21100D01*
X16000Y-21100D02*
X16000Y-21400D01*
G54D12*
X17350Y-21650D02*
X17350Y-20750D01*
X17350Y-20651D02*
X17850Y-20651D01*
X17850Y-20750D02*
X17850Y-21650D01*
X17850Y-21748D02*
X17350Y-21748D01*
G54D17*
X21300Y-20901D02*
X21300Y-20501D01*
X21300Y-20501D02*
X21900Y-20501D01*
X21900Y-20501D02*
X21900Y-20901D01*
X21900Y-21498D02*
X21900Y-21898D01*
X21900Y-21898D02*
X21300Y-21898D01*
X21300Y-21898D02*
X21300Y-21498D01*
X21900Y-23298D02*
X21900Y-23698D01*
X21900Y-23698D02*
X21300Y-23698D01*
X21300Y-23698D02*
X21300Y-23298D01*
X21300Y-22701D02*
X21300Y-22301D01*
X21300Y-22301D02*
X21900Y-22301D01*
X21900Y-22301D02*
X21900Y-22701D01*
G54D12*
X35850Y-28750D02*
X36750Y-28750D01*
X36848Y-28750D02*
X36848Y-29250D01*
X36750Y-29250D02*
X35850Y-29250D01*
X35751Y-29250D02*
X35751Y-28750D01*
X42250Y-27550D02*
X42250Y-28450D01*
X42250Y-28548D02*
X41750Y-28548D01*
X41750Y-28450D02*
X41750Y-27550D01*
X41750Y-27451D02*
X42250Y-27451D01*
G54D11*
X13028Y-29375D02*
X16572Y-29375D01*
X13028Y-30753D02*
X16572Y-30753D01*
X16572Y-30753D02*
X16572Y-25044D01*
X16572Y-25044D02*
X13028Y-25044D01*
X13028Y-25044D02*
X13028Y-30753D01*
G54D10*
X17021Y-16960D02*
X17139Y-16960D01*
X17139Y-16960D02*
X17021Y-17000D01*
X17021Y-17000D02*
X17178Y-17000D01*
X16942Y-17078D02*
X17257Y-17078D01*
X16942Y-17039D02*
X17218Y-17039D01*
X16863Y-17118D02*
X17336Y-17118D01*
X17336Y-17118D02*
X17100Y-16881D01*
X17100Y-16881D02*
X16863Y-17118D01*
G54D12*
X16850Y-17450D02*
X16850Y-16550D01*
X16850Y-16451D02*
X17350Y-16451D01*
X17350Y-16550D02*
X17350Y-17450D01*
X17350Y-17548D02*
X16850Y-17548D01*
G54D10*
X15021Y-16960D02*
X15139Y-16960D01*
X15139Y-16960D02*
X15021Y-17000D01*
X15021Y-17000D02*
X15178Y-17000D01*
X14942Y-17078D02*
X15257Y-17078D01*
X14942Y-17039D02*
X15218Y-17039D01*
X14863Y-17118D02*
X15336Y-17118D01*
X15336Y-17118D02*
X15100Y-16881D01*
X15100Y-16881D02*
X14863Y-17118D01*
G54D12*
X14850Y-17450D02*
X14850Y-16550D01*
X14850Y-16451D02*
X15350Y-16451D01*
X15350Y-16550D02*
X15350Y-17450D01*
X15350Y-17548D02*
X14850Y-17548D01*
G54D10*
X22621Y-16960D02*
X22739Y-16960D01*
X22739Y-16960D02*
X22621Y-17000D01*
X22621Y-17000D02*
X22778Y-17000D01*
X22542Y-17078D02*
X22857Y-17078D01*
X22542Y-17039D02*
X22818Y-17039D01*
X22463Y-17118D02*
X22936Y-17118D01*
X22936Y-17118D02*
X22700Y-16881D01*
X22700Y-16881D02*
X22463Y-17118D01*
G54D12*
X22450Y-17450D02*
X22450Y-16550D01*
X22450Y-16451D02*
X22950Y-16451D01*
X22950Y-16550D02*
X22950Y-17450D01*
X22950Y-17548D02*
X22450Y-17548D01*
G54D10*
X20621Y-16960D02*
X20739Y-16960D01*
X20739Y-16960D02*
X20621Y-17000D01*
X20621Y-17000D02*
X20778Y-17000D01*
X20542Y-17078D02*
X20857Y-17078D01*
X20542Y-17039D02*
X20818Y-17039D01*
X20463Y-17118D02*
X20936Y-17118D01*
X20936Y-17118D02*
X20700Y-16881D01*
X20700Y-16881D02*
X20463Y-17118D01*
G54D12*
X20450Y-17450D02*
X20450Y-16550D01*
X20450Y-16451D02*
X20950Y-16451D01*
X20950Y-16550D02*
X20950Y-17450D01*
X20950Y-17548D02*
X20450Y-17548D01*
G54D10*
X28221Y-16960D02*
X28339Y-16960D01*
X28339Y-16960D02*
X28221Y-17000D01*
X28221Y-17000D02*
X28378Y-17000D01*
X28142Y-17078D02*
X28457Y-17078D01*
X28142Y-17039D02*
X28418Y-17039D01*
X28063Y-17118D02*
X28536Y-17118D01*
X28536Y-17118D02*
X28300Y-16881D01*
X28300Y-16881D02*
X28063Y-17118D01*
G54D12*
X28050Y-17450D02*
X28050Y-16550D01*
X28050Y-16451D02*
X28550Y-16451D01*
X28550Y-16550D02*
X28550Y-17450D01*
X28550Y-17548D02*
X28050Y-17548D01*
G54D10*
X26221Y-16960D02*
X26339Y-16960D01*
X26339Y-16960D02*
X26221Y-17000D01*
X26221Y-17000D02*
X26378Y-17000D01*
X26142Y-17078D02*
X26457Y-17078D01*
X26142Y-17039D02*
X26418Y-17039D01*
X26063Y-17118D02*
X26536Y-17118D01*
X26536Y-17118D02*
X26300Y-16881D01*
X26300Y-16881D02*
X26063Y-17118D01*
G54D12*
X26050Y-17450D02*
X26050Y-16550D01*
X26050Y-16451D02*
X26550Y-16451D01*
X26550Y-16550D02*
X26550Y-17450D01*
X26550Y-17548D02*
X26050Y-17548D01*
G54D10*
X33821Y-16960D02*
X33939Y-16960D01*
X33939Y-16960D02*
X33821Y-17000D01*
X33821Y-17000D02*
X33978Y-17000D01*
X33742Y-17078D02*
X34057Y-17078D01*
X33742Y-17039D02*
X34018Y-17039D01*
X33663Y-17118D02*
X34136Y-17118D01*
X34136Y-17118D02*
X33900Y-16881D01*
X33900Y-16881D02*
X33663Y-17118D01*
G54D12*
X33650Y-17450D02*
X33650Y-16550D01*
X33650Y-16451D02*
X34150Y-16451D01*
X34150Y-16550D02*
X34150Y-17450D01*
X34150Y-17548D02*
X33650Y-17548D01*
G54D10*
X31821Y-16960D02*
X31939Y-16960D01*
X31939Y-16960D02*
X31821Y-17000D01*
X31821Y-17000D02*
X31978Y-17000D01*
X31742Y-17078D02*
X32057Y-17078D01*
X31742Y-17039D02*
X32018Y-17039D01*
X31663Y-17118D02*
X32136Y-17118D01*
X32136Y-17118D02*
X31900Y-16881D01*
X31900Y-16881D02*
X31663Y-17118D01*
G54D12*
X31650Y-17450D02*
X31650Y-16550D01*
X31650Y-16451D02*
X32150Y-16451D01*
X32150Y-16550D02*
X32150Y-17450D01*
X32150Y-17548D02*
X31650Y-17548D01*
G54D10*
X39421Y-16960D02*
X39539Y-16960D01*
X39539Y-16960D02*
X39421Y-17000D01*
X39421Y-17000D02*
X39578Y-17000D01*
X39342Y-17078D02*
X39657Y-17078D01*
X39342Y-17039D02*
X39618Y-17039D01*
X39263Y-17118D02*
X39736Y-17118D01*
X39736Y-17118D02*
X39500Y-16881D01*
X39500Y-16881D02*
X39263Y-17118D01*
G54D12*
X39250Y-17450D02*
X39250Y-16550D01*
X39250Y-16451D02*
X39750Y-16451D01*
X39750Y-16550D02*
X39750Y-17450D01*
X39750Y-17548D02*
X39250Y-17548D01*
G54D10*
X37421Y-16960D02*
X37539Y-16960D01*
X37539Y-16960D02*
X37421Y-17000D01*
X37421Y-17000D02*
X37578Y-17000D01*
X37342Y-17078D02*
X37657Y-17078D01*
X37342Y-17039D02*
X37618Y-17039D01*
X37263Y-17118D02*
X37736Y-17118D01*
X37736Y-17118D02*
X37500Y-16881D01*
X37500Y-16881D02*
X37263Y-17118D01*
G54D12*
X37250Y-17450D02*
X37250Y-16550D01*
X37250Y-16451D02*
X37750Y-16451D01*
X37750Y-16550D02*
X37750Y-17450D01*
X37750Y-17548D02*
X37250Y-17548D01*
G54D10*
X45021Y-16960D02*
X45139Y-16960D01*
X45139Y-16960D02*
X45021Y-17000D01*
X45021Y-17000D02*
X45178Y-17000D01*
X44942Y-17078D02*
X45257Y-17078D01*
X44942Y-17039D02*
X45218Y-17039D01*
X44863Y-17118D02*
X45336Y-17118D01*
X45336Y-17118D02*
X45100Y-16881D01*
X45100Y-16881D02*
X44863Y-17118D01*
G54D12*
X44850Y-17450D02*
X44850Y-16550D01*
X44850Y-16451D02*
X45350Y-16451D01*
X45350Y-16550D02*
X45350Y-17450D01*
X45350Y-17548D02*
X44850Y-17548D01*
G54D10*
X43021Y-16960D02*
X43139Y-16960D01*
X43139Y-16960D02*
X43021Y-17000D01*
X43021Y-17000D02*
X43178Y-17000D01*
X42942Y-17078D02*
X43257Y-17078D01*
X42942Y-17039D02*
X43218Y-17039D01*
X42863Y-17118D02*
X43336Y-17118D01*
X43336Y-17118D02*
X43100Y-16881D01*
X43100Y-16881D02*
X42863Y-17118D01*
G54D12*
X42850Y-17450D02*
X42850Y-16550D01*
X42850Y-16451D02*
X43350Y-16451D01*
X43350Y-16550D02*
X43350Y-17450D01*
X43350Y-17548D02*
X42850Y-17548D01*
G54D10*
X23898Y-15200D02*
X18701Y-15200D01*
X18701Y-15200D02*
X18701Y-8109D01*
X18701Y-8109D02*
X23898Y-8109D01*
X23898Y-8109D02*
X23898Y-15200D01*
X29498Y-15200D02*
X24301Y-15200D01*
X24301Y-15200D02*
X24301Y-8109D01*
X24301Y-8109D02*
X29498Y-8109D01*
X29498Y-8109D02*
X29498Y-15200D01*
X35098Y-15200D02*
X29901Y-15200D01*
X29901Y-15200D02*
X29901Y-8109D01*
X29901Y-8109D02*
X35098Y-8109D01*
X35098Y-8109D02*
X35098Y-15200D01*
X40698Y-15200D02*
X35501Y-15200D01*
X35501Y-15200D02*
X35501Y-8109D01*
X35501Y-8109D02*
X40698Y-8109D01*
X40698Y-8109D02*
X40698Y-15200D01*
X46298Y-15200D02*
X41101Y-15200D01*
X41101Y-15200D02*
X41101Y-8109D01*
X41101Y-8109D02*
X46298Y-8109D01*
X46298Y-8109D02*
X46298Y-15200D01*
G54D12*
X16350Y-21650D02*
X16350Y-20750D01*
X16350Y-20651D02*
X16850Y-20651D01*
X16850Y-20750D02*
X16850Y-21650D01*
X16850Y-21748D02*
X16350Y-21748D01*
X16350Y-23650D02*
X16350Y-22750D01*
X16350Y-22651D02*
X16850Y-22651D01*
X16850Y-22750D02*
X16850Y-23650D01*
X16850Y-23748D02*
X16350Y-23748D01*
X44050Y-25050D02*
X43150Y-25050D01*
X43051Y-25050D02*
X43051Y-24550D01*
X43150Y-24550D02*
X44050Y-24550D01*
X44148Y-24550D02*
X44148Y-25050D01*
X17850Y-17450D02*
X17850Y-16550D01*
X17850Y-16451D02*
X18350Y-16451D01*
X18350Y-16550D02*
X18350Y-17450D01*
X18350Y-17548D02*
X17850Y-17548D01*
X23050Y-20150D02*
X23050Y-21050D01*
X23050Y-21148D02*
X22550Y-21148D01*
X22550Y-21050D02*
X22550Y-20150D01*
X22550Y-20051D02*
X23050Y-20051D01*
X23550Y-21050D02*
X23550Y-20150D01*
X23550Y-20051D02*
X24050Y-20051D01*
X24050Y-20150D02*
X24050Y-21050D01*
X24050Y-21148D02*
X23550Y-21148D01*
X25050Y-20150D02*
X25050Y-21050D01*
X25050Y-21148D02*
X24550Y-21148D01*
X24550Y-21050D02*
X24550Y-20150D01*
X24550Y-20051D02*
X25050Y-20051D01*
G54D15*
X18300Y-16200D02*
X15500Y-16200D01*
X15500Y-16200D02*
X15500Y-15400D01*
X15500Y-15400D02*
X18300Y-15400D01*
X18300Y-15400D02*
X18300Y-16200D01*
X18300Y-16000D02*
X18100Y-16200D01*
G54D12*
X16350Y-16550D02*
X16350Y-17450D01*
X16350Y-17548D02*
X15850Y-17548D01*
X15850Y-17450D02*
X15850Y-16550D01*
X15850Y-16451D02*
X16350Y-16451D01*
X23450Y-17450D02*
X23450Y-16550D01*
X23450Y-16451D02*
X23950Y-16451D01*
X23950Y-16550D02*
X23950Y-17450D01*
X23950Y-17548D02*
X23450Y-17548D01*
X26250Y-20150D02*
X26250Y-21050D01*
X26250Y-21148D02*
X25750Y-21148D01*
X25750Y-21050D02*
X25750Y-20150D01*
X25750Y-20051D02*
X26250Y-20051D01*
X26750Y-21050D02*
X26750Y-20150D01*
X26750Y-20051D02*
X27250Y-20051D01*
X27250Y-20150D02*
X27250Y-21050D01*
X27250Y-21148D02*
X26750Y-21148D01*
X28250Y-20150D02*
X28250Y-21050D01*
X28250Y-21148D02*
X27750Y-21148D01*
X27750Y-21050D02*
X27750Y-20150D01*
X27750Y-20051D02*
X28250Y-20051D01*
G54D15*
X23900Y-16200D02*
X21100Y-16200D01*
X21100Y-16200D02*
X21100Y-15400D01*
X21100Y-15400D02*
X23900Y-15400D01*
X23900Y-15400D02*
X23900Y-16200D01*
X23900Y-16000D02*
X23700Y-16200D01*
G54D12*
X21950Y-16550D02*
X21950Y-17450D01*
X21950Y-17548D02*
X21450Y-17548D01*
X21450Y-17450D02*
X21450Y-16550D01*
X21450Y-16451D02*
X21950Y-16451D01*
X29050Y-17450D02*
X29050Y-16550D01*
X29050Y-16451D02*
X29550Y-16451D01*
X29550Y-16550D02*
X29550Y-17450D01*
X29550Y-17548D02*
X29050Y-17548D01*
X29450Y-20150D02*
X29450Y-21050D01*
X29450Y-21148D02*
X28950Y-21148D01*
X28950Y-21050D02*
X28950Y-20150D01*
X28950Y-20051D02*
X29450Y-20051D01*
X29950Y-21050D02*
X29950Y-20150D01*
X29950Y-20051D02*
X30450Y-20051D01*
X30450Y-20150D02*
X30450Y-21050D01*
X30450Y-21148D02*
X29950Y-21148D01*
X31450Y-20150D02*
X31450Y-21050D01*
X31450Y-21148D02*
X30950Y-21148D01*
X30950Y-21050D02*
X30950Y-20150D01*
X30950Y-20051D02*
X31450Y-20051D01*
G54D15*
X29500Y-16200D02*
X26700Y-16200D01*
X26700Y-16200D02*
X26700Y-15400D01*
X26700Y-15400D02*
X29500Y-15400D01*
X29500Y-15400D02*
X29500Y-16200D01*
X29500Y-16000D02*
X29300Y-16200D01*
G54D12*
X27550Y-16550D02*
X27550Y-17450D01*
X27550Y-17548D02*
X27050Y-17548D01*
X27050Y-17450D02*
X27050Y-16550D01*
X27050Y-16451D02*
X27550Y-16451D01*
X34650Y-17450D02*
X34650Y-16550D01*
X34650Y-16451D02*
X35150Y-16451D01*
X35150Y-16550D02*
X35150Y-17450D01*
X35150Y-17548D02*
X34650Y-17548D01*
X32650Y-20150D02*
X32650Y-21050D01*
X32650Y-21148D02*
X32150Y-21148D01*
X32150Y-21050D02*
X32150Y-20150D01*
X32150Y-20051D02*
X32650Y-20051D01*
X33150Y-21050D02*
X33150Y-20150D01*
X33150Y-20051D02*
X33650Y-20051D01*
X33650Y-20150D02*
X33650Y-21050D01*
X33650Y-21148D02*
X33150Y-21148D01*
X34650Y-20150D02*
X34650Y-21050D01*
X34650Y-21148D02*
X34150Y-21148D01*
X34150Y-21050D02*
X34150Y-20150D01*
X34150Y-20051D02*
X34650Y-20051D01*
G54D15*
X35100Y-16200D02*
X32300Y-16200D01*
X32300Y-16200D02*
X32300Y-15400D01*
X32300Y-15400D02*
X35100Y-15400D01*
X35100Y-15400D02*
X35100Y-16200D01*
X35100Y-16000D02*
X34900Y-16200D01*
G54D12*
X33150Y-16550D02*
X33150Y-17450D01*
X33150Y-17548D02*
X32650Y-17548D01*
X32650Y-17450D02*
X32650Y-16550D01*
X32650Y-16451D02*
X33150Y-16451D01*
X40250Y-17450D02*
X40250Y-16550D01*
X40250Y-16451D02*
X40750Y-16451D01*
X40750Y-16550D02*
X40750Y-17450D01*
X40750Y-17548D02*
X40250Y-17548D01*
X35850Y-20150D02*
X35850Y-21050D01*
X35850Y-21148D02*
X35350Y-21148D01*
X35350Y-21050D02*
X35350Y-20150D01*
X35350Y-20051D02*
X35850Y-20051D01*
X36350Y-21050D02*
X36350Y-20150D01*
X36350Y-20051D02*
X36850Y-20051D01*
X36850Y-20150D02*
X36850Y-21050D01*
X36850Y-21148D02*
X36350Y-21148D01*
X37850Y-20150D02*
X37850Y-21050D01*
X37850Y-21148D02*
X37350Y-21148D01*
X37350Y-21050D02*
X37350Y-20150D01*
X37350Y-20051D02*
X37850Y-20051D01*
G54D15*
X40700Y-16200D02*
X37900Y-16200D01*
X37900Y-16200D02*
X37900Y-15400D01*
X37900Y-15400D02*
X40700Y-15400D01*
X40700Y-15400D02*
X40700Y-16200D01*
X40700Y-16000D02*
X40500Y-16200D01*
G54D12*
X38750Y-16550D02*
X38750Y-17450D01*
X38750Y-17548D02*
X38250Y-17548D01*
X38250Y-17450D02*
X38250Y-16550D01*
X38250Y-16451D02*
X38750Y-16451D01*
X45850Y-17450D02*
X45850Y-16550D01*
X45850Y-16451D02*
X46350Y-16451D01*
X46350Y-16550D02*
X46350Y-17450D01*
X46350Y-17548D02*
X45850Y-17548D01*
X39050Y-20150D02*
X39050Y-21050D01*
X39050Y-21148D02*
X38550Y-21148D01*
X38550Y-21050D02*
X38550Y-20150D01*
X38550Y-20051D02*
X39050Y-20051D01*
X39550Y-21050D02*
X39550Y-20150D01*
X39550Y-20051D02*
X40050Y-20051D01*
X40050Y-20150D02*
X40050Y-21050D01*
X40050Y-21148D02*
X39550Y-21148D01*
X41050Y-20150D02*
X41050Y-21050D01*
X41050Y-21148D02*
X40550Y-21148D01*
X40550Y-21050D02*
X40550Y-20150D01*
X40550Y-20051D02*
X41050Y-20051D01*
G54D15*
X46300Y-16200D02*
X43500Y-16200D01*
X43500Y-16200D02*
X43500Y-15400D01*
X43500Y-15400D02*
X46300Y-15400D01*
X46300Y-15400D02*
X46300Y-16200D01*
X46300Y-16000D02*
X46100Y-16200D01*
G54D12*
X44350Y-16550D02*
X44350Y-17450D01*
X44350Y-17548D02*
X43850Y-17548D01*
X43850Y-17450D02*
X43850Y-16550D01*
X43850Y-16451D02*
X44350Y-16451D01*
X17350Y-23650D02*
X17350Y-22750D01*
X17350Y-22651D02*
X17850Y-22651D01*
X17850Y-22750D02*
X17850Y-23650D01*
X17850Y-23748D02*
X17350Y-23748D01*
X23050Y-23150D02*
X23050Y-24050D01*
X23050Y-24148D02*
X22550Y-24148D01*
X22550Y-24050D02*
X22550Y-23150D01*
X22550Y-23051D02*
X23050Y-23051D01*
X26250Y-23150D02*
X26250Y-24050D01*
X26250Y-24148D02*
X25750Y-24148D01*
X25750Y-24050D02*
X25750Y-23150D01*
X25750Y-23051D02*
X26250Y-23051D01*
X29450Y-23150D02*
X29450Y-24050D01*
X29450Y-24148D02*
X28950Y-24148D01*
X28950Y-24050D02*
X28950Y-23150D01*
X28950Y-23051D02*
X29450Y-23051D01*
X32650Y-23150D02*
X32650Y-24050D01*
X32650Y-24148D02*
X32150Y-24148D01*
X32150Y-24050D02*
X32150Y-23150D01*
X32150Y-23051D02*
X32650Y-23051D01*
X35850Y-23150D02*
X35850Y-24050D01*
X35850Y-24148D02*
X35350Y-24148D01*
X35350Y-24050D02*
X35350Y-23150D01*
X35350Y-23051D02*
X35850Y-23051D01*
X39050Y-23150D02*
X39050Y-24050D01*
X39050Y-24148D02*
X38550Y-24148D01*
X38550Y-24050D02*
X38550Y-23150D01*
X38550Y-23051D02*
X39050Y-23051D01*
G54D10*
X42418Y-20818D02*
X44781Y-20818D01*
X44781Y-20818D02*
X44781Y-23181D01*
X44781Y-23181D02*
X42418Y-23181D01*
X42418Y-23181D02*
X42418Y-20818D01*
X44288Y-22000D02*
G75*
G03X44288Y-22000I-688J0D01*
G74*
G01*
G54D14*
X18200Y-22600D02*
X18200Y-23800D01*
X18200Y-23800D02*
X21000Y-23800D01*
X21000Y-23800D02*
X21000Y-22600D01*
X18200Y-21400D02*
X18200Y-21100D01*
X18200Y-21100D02*
X18800Y-20200D01*
X18800Y-20200D02*
X20400Y-20200D01*
X20400Y-20200D02*
X21000Y-21100D01*
X21000Y-21100D02*
X21000Y-21400D01*
X34900Y-25100D02*
X34900Y-28900D01*
X34900Y-28900D02*
X33400Y-28900D01*
X33400Y-28900D02*
X33400Y-25100D01*
X33400Y-25100D02*
X34900Y-25100D01*
X34400Y-25100D02*
X34400Y-25400D01*
X34400Y-25400D02*
X34000Y-25400D01*
X34000Y-25400D02*
X34000Y-25100D01*
G54D12*
X23350Y-23500D02*
X23350Y-23550D01*
X23350Y-23550D02*
X25450Y-23550D01*
X25450Y-22050D02*
X23350Y-22050D01*
X23350Y-22050D02*
X23350Y-23500D01*
X23350Y-22600D02*
X23550Y-22600D01*
X23550Y-22600D02*
X23550Y-23000D01*
X23550Y-23000D02*
X23350Y-23000D01*
X25450Y-22050D02*
X25450Y-23550D01*
X26550Y-23500D02*
X26550Y-23550D01*
X26550Y-23550D02*
X28650Y-23550D01*
X28650Y-22050D02*
X26550Y-22050D01*
X26550Y-22050D02*
X26550Y-23500D01*
X26550Y-22600D02*
X26750Y-22600D01*
X26750Y-22600D02*
X26750Y-23000D01*
X26750Y-23000D02*
X26550Y-23000D01*
X28650Y-22050D02*
X28650Y-23550D01*
G54D16*
X20025Y-16062D02*
G75*
G03X20025Y-16062I-62J0D01*
G74*
G01*
X19000Y-16400D02*
X19000Y-16000D01*
X20025Y-16400D02*
X20025Y-16000D01*
X19000Y-16000D02*
X20025Y-16000D01*
X20025Y-16400D02*
X19000Y-16400D01*
G54D12*
X29750Y-23500D02*
X29750Y-23550D01*
X29750Y-23550D02*
X31850Y-23550D01*
X31850Y-22050D02*
X29750Y-22050D01*
X29750Y-22050D02*
X29750Y-23500D01*
X29750Y-22600D02*
X29950Y-22600D01*
X29950Y-22600D02*
X29950Y-23000D01*
X29950Y-23000D02*
X29750Y-23000D01*
X31850Y-22050D02*
X31850Y-23550D01*
G54D16*
X25625Y-16062D02*
G75*
G03X25625Y-16062I-62J0D01*
G74*
G01*
X24600Y-16400D02*
X24600Y-16000D01*
X25625Y-16400D02*
X25625Y-16000D01*
X24600Y-16000D02*
X25625Y-16000D01*
X25625Y-16400D02*
X24600Y-16400D01*
G54D12*
X32950Y-23500D02*
X32950Y-23550D01*
X32950Y-23550D02*
X35050Y-23550D01*
X35050Y-22050D02*
X32950Y-22050D01*
X32950Y-22050D02*
X32950Y-23500D01*
X32950Y-22600D02*
X33150Y-22600D01*
X33150Y-22600D02*
X33150Y-23000D01*
X33150Y-23000D02*
X32950Y-23000D01*
X35050Y-22050D02*
X35050Y-23550D01*
G54D16*
X31225Y-16062D02*
G75*
G03X31225Y-16062I-62J0D01*
G74*
G01*
X30200Y-16400D02*
X30200Y-16000D01*
X31225Y-16400D02*
X31225Y-16000D01*
X30200Y-16000D02*
X31225Y-16000D01*
X31225Y-16400D02*
X30200Y-16400D01*
X36825Y-16062D02*
G75*
G03X36825Y-16062I-62J0D01*
G74*
G01*
X35800Y-16400D02*
X35800Y-16000D01*
X36825Y-16400D02*
X36825Y-16000D01*
X35800Y-16000D02*
X36825Y-16000D01*
X36825Y-16400D02*
X35800Y-16400D01*
G54D12*
X39350Y-23500D02*
X39350Y-23550D01*
X39350Y-23550D02*
X41450Y-23550D01*
X41450Y-22050D02*
X39350Y-22050D01*
X39350Y-22050D02*
X39350Y-23500D01*
X39350Y-22600D02*
X39550Y-22600D01*
X39550Y-22600D02*
X39550Y-23000D01*
X39550Y-23000D02*
X39350Y-23000D01*
X41450Y-22050D02*
X41450Y-23550D01*
G54D16*
X42425Y-16062D02*
G75*
G03X42425Y-16062I-62J0D01*
G74*
G01*
X41400Y-16400D02*
X41400Y-16000D01*
X42425Y-16400D02*
X42425Y-16000D01*
X41400Y-16000D02*
X42425Y-16000D01*
X42425Y-16400D02*
X41400Y-16400D01*
G54D14*
X38061Y-28378D02*
X38022Y-28339D01*
X38573Y-26016D02*
G75*
G03X38573Y-26016I-157J0D01*
G74*
G01*
X38022Y-28339D02*
X38022Y-25661D01*
X38022Y-25661D02*
X38061Y-25622D01*
X38061Y-25622D02*
X40739Y-25622D01*
X40739Y-25622D02*
X40778Y-25661D01*
X40778Y-25661D02*
X40778Y-28339D01*
X40778Y-28339D02*
X40739Y-28378D01*
X40739Y-28378D02*
X38061Y-28378D01*
G54D10*
X48528Y-19639D02*
X48410Y-19639D01*
X48410Y-19639D02*
X48528Y-19600D01*
X48528Y-19600D02*
X48371Y-19600D01*
X48607Y-19521D02*
X48292Y-19521D01*
X48607Y-19560D02*
X48331Y-19560D01*
X48686Y-19481D02*
X48213Y-19481D01*
X48213Y-19481D02*
X48450Y-19718D01*
X48450Y-19718D02*
X48686Y-19481D01*
G54D12*
X48700Y-19150D02*
X48700Y-20050D01*
X48700Y-20148D02*
X48200Y-20148D01*
X48200Y-20050D02*
X48200Y-19150D01*
X48200Y-19051D02*
X48700Y-19051D01*
G54D10*
X46828Y-19639D02*
X46710Y-19639D01*
X46710Y-19639D02*
X46828Y-19600D01*
X46828Y-19600D02*
X46671Y-19600D01*
X46907Y-19521D02*
X46592Y-19521D01*
X46907Y-19560D02*
X46631Y-19560D01*
X46986Y-19481D02*
X46513Y-19481D01*
X46513Y-19481D02*
X46750Y-19718D01*
X46750Y-19718D02*
X46986Y-19481D01*
G54D12*
X47000Y-19150D02*
X47000Y-20050D01*
X47000Y-20148D02*
X46500Y-20148D01*
X46500Y-20050D02*
X46500Y-19150D01*
X46500Y-19051D02*
X47000Y-19051D01*
X47850Y-19150D02*
X47850Y-20050D01*
X47850Y-20148D02*
X47350Y-20148D01*
X47350Y-20050D02*
X47350Y-19150D01*
X47350Y-19051D02*
X47850Y-19051D01*
X46150Y-19150D02*
X46150Y-20050D01*
X46150Y-20148D02*
X45650Y-20148D01*
X45650Y-20050D02*
X45650Y-19150D01*
X45650Y-19051D02*
X46150Y-19051D01*
X22550Y-22550D02*
X22550Y-21650D01*
X22550Y-21551D02*
X23050Y-21551D01*
X23050Y-21650D02*
X23050Y-22550D01*
X23050Y-22648D02*
X22550Y-22648D01*
X25750Y-22550D02*
X25750Y-21650D01*
X25750Y-21551D02*
X26250Y-21551D01*
X26250Y-21650D02*
X26250Y-22550D01*
X26250Y-22648D02*
X25750Y-22648D01*
X28950Y-22550D02*
X28950Y-21650D01*
X28950Y-21551D02*
X29450Y-21551D01*
X29450Y-21650D02*
X29450Y-22550D01*
X29450Y-22648D02*
X28950Y-22648D01*
X32150Y-22550D02*
X32150Y-21650D01*
X32150Y-21551D02*
X32650Y-21551D01*
X32650Y-21650D02*
X32650Y-22550D01*
X32650Y-22648D02*
X32150Y-22648D01*
X35350Y-22550D02*
X35350Y-21650D01*
X35350Y-21551D02*
X35850Y-21551D01*
X35850Y-21650D02*
X35850Y-22550D01*
X35850Y-22648D02*
X35350Y-22648D01*
X38550Y-22550D02*
X38550Y-21650D01*
X38550Y-21551D02*
X39050Y-21551D01*
X39050Y-21650D02*
X39050Y-22550D01*
X39050Y-22648D02*
X38550Y-22648D01*
G54D15*
X47700Y-29200D02*
X47700Y-29200D01*
X48700Y-29200D02*
X47700Y-29200D01*
X47700Y-29200D02*
X47700Y-29200D01*
X47700Y-29200D02*
X47700Y-25200D01*
X47700Y-25200D02*
X48700Y-25200D01*
X48700Y-25200D02*
X48700Y-29200D01*
X48700Y-28200D02*
X47700Y-28200D01*
G54D18*
X19292Y-27050D02*
X19307Y-27064D01*
X19321Y-27107D01*
X19321Y-27135D01*
X19307Y-27178D01*
X19278Y-27207D01*
X19250Y-27221D01*
X19192Y-27235D01*
X19150Y-27235D01*
X19092Y-27221D01*
X19064Y-27207D01*
X19035Y-27178D01*
X19021Y-27135D01*
X19021Y-27107D01*
X19035Y-27064D01*
X19050Y-27050D01*
X19021Y-26950D02*
X19021Y-26764D01*
X19135Y-26864D01*
X19135Y-26821D01*
X19150Y-26792D01*
X19164Y-26778D01*
X19192Y-26764D01*
X19264Y-26764D01*
X19292Y-26778D01*
X19307Y-26792D01*
X19321Y-26821D01*
X19321Y-26907D01*
X19307Y-26935D01*
X19292Y-26950D01*
X36828Y-22621D02*
X36828Y-22864D01*
X36842Y-22892D01*
X36857Y-22907D01*
X36885Y-22921D01*
X36942Y-22921D01*
X36971Y-22907D01*
X36985Y-22892D01*
X37000Y-22864D01*
X37000Y-22621D01*
X37300Y-22921D02*
X37128Y-22921D01*
X37214Y-22921D02*
X37214Y-22621D01*
X37185Y-22664D01*
X37157Y-22692D01*
X37128Y-22707D01*
X37414Y-22650D02*
X37428Y-22635D01*
X37457Y-22621D01*
X37528Y-22621D01*
X37557Y-22635D01*
X37571Y-22650D01*
X37585Y-22678D01*
X37585Y-22707D01*
X37571Y-22750D01*
X37400Y-22921D01*
X37585Y-22921D01*
X44635Y-25692D02*
X44621Y-25707D01*
X44578Y-25721D01*
X44550Y-25721D01*
X44507Y-25707D01*
X44478Y-25678D01*
X44464Y-25650D01*
X44450Y-25592D01*
X44450Y-25550D01*
X44464Y-25492D01*
X44478Y-25464D01*
X44507Y-25435D01*
X44550Y-25421D01*
X44578Y-25421D01*
X44621Y-25435D01*
X44635Y-25450D01*
X44821Y-25421D02*
X44878Y-25421D01*
X44907Y-25435D01*
X44935Y-25464D01*
X44950Y-25521D01*
X44950Y-25621D01*
X44935Y-25678D01*
X44907Y-25707D01*
X44878Y-25721D01*
X44821Y-25721D01*
X44792Y-25707D01*
X44764Y-25678D01*
X44750Y-25621D01*
X44750Y-25521D01*
X44764Y-25464D01*
X44792Y-25435D01*
X44821Y-25421D01*
X45078Y-25721D02*
X45078Y-25421D01*
X45250Y-25721D01*
X45250Y-25421D01*
X45378Y-25450D02*
X45392Y-25435D01*
X45421Y-25421D01*
X45492Y-25421D01*
X45521Y-25435D01*
X45535Y-25450D01*
X45550Y-25478D01*
X45550Y-25507D01*
X45535Y-25550D01*
X45364Y-25721D01*
X45550Y-25721D01*
X11142Y-18614D02*
X11142Y-18900D01*
X11428Y-18928D01*
X11400Y-18900D01*
X11371Y-18842D01*
X11371Y-18700D01*
X11400Y-18642D01*
X11428Y-18614D01*
X11485Y-18585D01*
X11628Y-18585D01*
X11685Y-18614D01*
X11714Y-18642D01*
X11742Y-18700D01*
X11742Y-18842D01*
X11714Y-18900D01*
X11685Y-18928D01*
X11571Y-18357D02*
X11571Y-18071D01*
X11742Y-18414D02*
X11142Y-18214D01*
X11742Y-18014D01*
X48521Y-23621D02*
X48221Y-23621D01*
X48221Y-23550D01*
X48235Y-23507D01*
X48264Y-23478D01*
X48292Y-23464D01*
X48350Y-23450D01*
X48392Y-23450D01*
X48450Y-23464D01*
X48478Y-23478D01*
X48507Y-23507D01*
X48521Y-23550D01*
X48521Y-23621D01*
X48521Y-23164D02*
X48521Y-23335D01*
X48521Y-23250D02*
X48221Y-23250D01*
X48264Y-23278D01*
X48292Y-23307D01*
X48307Y-23335D01*
X47021Y-23621D02*
X46721Y-23621D01*
X46721Y-23550D01*
X46735Y-23507D01*
X46764Y-23478D01*
X46792Y-23464D01*
X46850Y-23450D01*
X46892Y-23450D01*
X46950Y-23464D01*
X46978Y-23478D01*
X47007Y-23507D01*
X47021Y-23550D01*
X47021Y-23621D01*
X46750Y-23335D02*
X46735Y-23321D01*
X46721Y-23292D01*
X46721Y-23221D01*
X46735Y-23192D01*
X46750Y-23178D01*
X46778Y-23164D01*
X46807Y-23164D01*
X46850Y-23178D01*
X47021Y-23350D01*
X47021Y-23164D01*
X47721Y-23450D02*
X47578Y-23550D01*
X47721Y-23621D02*
X47421Y-23621D01*
X47421Y-23507D01*
X47435Y-23478D01*
X47450Y-23464D01*
X47478Y-23450D01*
X47521Y-23450D01*
X47550Y-23464D01*
X47564Y-23478D01*
X47578Y-23507D01*
X47578Y-23621D01*
X47521Y-23192D02*
X47721Y-23192D01*
X47407Y-23264D02*
X47621Y-23335D01*
X47621Y-23150D01*
X46221Y-23450D02*
X46078Y-23550D01*
X46221Y-23621D02*
X45921Y-23621D01*
X45921Y-23507D01*
X45935Y-23478D01*
X45950Y-23464D01*
X45978Y-23450D01*
X46021Y-23450D01*
X46050Y-23464D01*
X46064Y-23478D01*
X46078Y-23507D01*
X46078Y-23621D01*
X45921Y-23178D02*
X45921Y-23321D01*
X46064Y-23335D01*
X46050Y-23321D01*
X46035Y-23292D01*
X46035Y-23221D01*
X46050Y-23192D01*
X46064Y-23178D01*
X46092Y-23164D01*
X46164Y-23164D01*
X46192Y-23178D01*
X46207Y-23192D01*
X46221Y-23221D01*
X46221Y-23292D01*
X46207Y-23321D01*
X46192Y-23335D01*
X13671Y-17021D02*
X13671Y-17264D01*
X13685Y-17292D01*
X13700Y-17307D01*
X13728Y-17321D01*
X13785Y-17321D01*
X13814Y-17307D01*
X13828Y-17292D01*
X13842Y-17264D01*
X13842Y-17021D01*
X14128Y-17021D02*
X13985Y-17021D01*
X13971Y-17164D01*
X13985Y-17150D01*
X14014Y-17135D01*
X14085Y-17135D01*
X14114Y-17150D01*
X14128Y-17164D01*
X14142Y-17192D01*
X14142Y-17264D01*
X14128Y-17292D01*
X14114Y-17307D01*
X14085Y-17321D01*
X14014Y-17321D01*
X13985Y-17307D01*
X13971Y-17292D01*
X14571Y-19950D02*
X14542Y-19935D01*
X14514Y-19907D01*
X14471Y-19864D01*
X14442Y-19850D01*
X14414Y-19850D01*
X14428Y-19921D02*
X14400Y-19907D01*
X14371Y-19878D01*
X14357Y-19821D01*
X14357Y-19721D01*
X14371Y-19664D01*
X14400Y-19635D01*
X14428Y-19621D01*
X14485Y-19621D01*
X14514Y-19635D01*
X14542Y-19664D01*
X14557Y-19721D01*
X14557Y-19821D01*
X14542Y-19878D01*
X14514Y-19907D01*
X14485Y-19921D01*
X14428Y-19921D01*
X14842Y-19921D02*
X14671Y-19921D01*
X14757Y-19921D02*
X14757Y-19621D01*
X14728Y-19664D01*
X14700Y-19692D01*
X14671Y-19707D01*
X17692Y-20250D02*
X17707Y-20264D01*
X17721Y-20307D01*
X17721Y-20335D01*
X17707Y-20378D01*
X17678Y-20407D01*
X17650Y-20421D01*
X17592Y-20435D01*
X17550Y-20435D01*
X17492Y-20421D01*
X17464Y-20407D01*
X17435Y-20378D01*
X17421Y-20335D01*
X17421Y-20307D01*
X17435Y-20264D01*
X17450Y-20250D01*
X17721Y-19964D02*
X17721Y-20135D01*
X17721Y-20050D02*
X17421Y-20050D01*
X17464Y-20078D01*
X17492Y-20107D01*
X17507Y-20135D01*
X21692Y-20250D02*
X21707Y-20264D01*
X21721Y-20307D01*
X21721Y-20335D01*
X21707Y-20378D01*
X21678Y-20407D01*
X21650Y-20421D01*
X21592Y-20435D01*
X21550Y-20435D01*
X21492Y-20421D01*
X21464Y-20407D01*
X21435Y-20378D01*
X21421Y-20335D01*
X21421Y-20307D01*
X21435Y-20264D01*
X21450Y-20250D01*
X21450Y-20135D02*
X21435Y-20121D01*
X21421Y-20092D01*
X21421Y-20021D01*
X21435Y-19992D01*
X21450Y-19978D01*
X21478Y-19964D01*
X21507Y-19964D01*
X21550Y-19978D01*
X21721Y-20150D01*
X21721Y-19964D01*
X21692Y-24150D02*
X21707Y-24164D01*
X21721Y-24207D01*
X21721Y-24235D01*
X21707Y-24278D01*
X21678Y-24307D01*
X21650Y-24321D01*
X21592Y-24335D01*
X21550Y-24335D01*
X21492Y-24321D01*
X21464Y-24307D01*
X21435Y-24278D01*
X21421Y-24235D01*
X21421Y-24207D01*
X21435Y-24164D01*
X21450Y-24150D01*
X21521Y-23892D02*
X21721Y-23892D01*
X21407Y-23964D02*
X21621Y-24035D01*
X21621Y-23850D01*
X37250Y-29092D02*
X37235Y-29107D01*
X37192Y-29121D01*
X37164Y-29121D01*
X37121Y-29107D01*
X37092Y-29078D01*
X37078Y-29050D01*
X37064Y-28992D01*
X37064Y-28950D01*
X37078Y-28892D01*
X37092Y-28864D01*
X37121Y-28835D01*
X37164Y-28821D01*
X37192Y-28821D01*
X37235Y-28835D01*
X37250Y-28850D01*
X37521Y-28821D02*
X37378Y-28821D01*
X37364Y-28964D01*
X37378Y-28950D01*
X37407Y-28935D01*
X37478Y-28935D01*
X37507Y-28950D01*
X37521Y-28964D01*
X37535Y-28992D01*
X37535Y-29064D01*
X37521Y-29092D01*
X37507Y-29107D01*
X37478Y-29121D01*
X37407Y-29121D01*
X37378Y-29107D01*
X37364Y-29092D01*
X42092Y-29050D02*
X42107Y-29064D01*
X42121Y-29107D01*
X42121Y-29135D01*
X42107Y-29178D01*
X42078Y-29207D01*
X42050Y-29221D01*
X41992Y-29235D01*
X41950Y-29235D01*
X41892Y-29221D01*
X41864Y-29207D01*
X41835Y-29178D01*
X41821Y-29135D01*
X41821Y-29107D01*
X41835Y-29064D01*
X41850Y-29050D01*
X41821Y-28792D02*
X41821Y-28850D01*
X41835Y-28878D01*
X41850Y-28892D01*
X41892Y-28921D01*
X41950Y-28935D01*
X42064Y-28935D01*
X42092Y-28921D01*
X42107Y-28907D01*
X42121Y-28878D01*
X42121Y-28821D01*
X42107Y-28792D01*
X42092Y-28778D01*
X42064Y-28764D01*
X41992Y-28764D01*
X41964Y-28778D01*
X41950Y-28792D01*
X41935Y-28821D01*
X41935Y-28878D01*
X41950Y-28907D01*
X41964Y-28921D01*
X41992Y-28935D01*
X17192Y-28764D02*
X17207Y-28778D01*
X17221Y-28821D01*
X17221Y-28850D01*
X17207Y-28892D01*
X17178Y-28921D01*
X17150Y-28935D01*
X17092Y-28950D01*
X17050Y-28950D01*
X16992Y-28935D01*
X16964Y-28921D01*
X16935Y-28892D01*
X16921Y-28850D01*
X16921Y-28821D01*
X16935Y-28778D01*
X16950Y-28764D01*
X16921Y-28578D02*
X16921Y-28521D01*
X16935Y-28492D01*
X16964Y-28464D01*
X17021Y-28450D01*
X17121Y-28450D01*
X17178Y-28464D01*
X17207Y-28492D01*
X17221Y-28521D01*
X17221Y-28578D01*
X17207Y-28607D01*
X17178Y-28635D01*
X17121Y-28650D01*
X17021Y-28650D01*
X16964Y-28635D01*
X16935Y-28607D01*
X16921Y-28578D01*
X17221Y-28321D02*
X16921Y-28321D01*
X17221Y-28150D01*
X16921Y-28150D01*
X17221Y-27850D02*
X17221Y-28021D01*
X17221Y-27935D02*
X16921Y-27935D01*
X16964Y-27964D01*
X16992Y-27992D01*
X17007Y-28021D01*
X16878Y-18021D02*
X16878Y-17721D01*
X16950Y-17721D01*
X16992Y-17735D01*
X17021Y-17764D01*
X17035Y-17792D01*
X17050Y-17850D01*
X17050Y-17892D01*
X17035Y-17950D01*
X17021Y-17978D01*
X16992Y-18007D01*
X16950Y-18021D01*
X16878Y-18021D01*
X17150Y-17721D02*
X17335Y-17721D01*
X17235Y-17835D01*
X17278Y-17835D01*
X17307Y-17850D01*
X17321Y-17864D01*
X17335Y-17892D01*
X17335Y-17964D01*
X17321Y-17992D01*
X17307Y-18007D01*
X17278Y-18021D01*
X17192Y-18021D01*
X17164Y-18007D01*
X17150Y-17992D01*
X14878Y-18021D02*
X14878Y-17721D01*
X14950Y-17721D01*
X14992Y-17735D01*
X15021Y-17764D01*
X15035Y-17792D01*
X15050Y-17850D01*
X15050Y-17892D01*
X15035Y-17950D01*
X15021Y-17978D01*
X14992Y-18007D01*
X14950Y-18021D01*
X14878Y-18021D01*
X15307Y-17821D02*
X15307Y-18021D01*
X15235Y-17707D02*
X15164Y-17921D01*
X15350Y-17921D01*
X22478Y-18021D02*
X22478Y-17721D01*
X22550Y-17721D01*
X22592Y-17735D01*
X22621Y-17764D01*
X22635Y-17792D01*
X22650Y-17850D01*
X22650Y-17892D01*
X22635Y-17950D01*
X22621Y-17978D01*
X22592Y-18007D01*
X22550Y-18021D01*
X22478Y-18021D01*
X22921Y-17721D02*
X22778Y-17721D01*
X22764Y-17864D01*
X22778Y-17850D01*
X22807Y-17835D01*
X22878Y-17835D01*
X22907Y-17850D01*
X22921Y-17864D01*
X22935Y-17892D01*
X22935Y-17964D01*
X22921Y-17992D01*
X22907Y-18007D01*
X22878Y-18021D01*
X22807Y-18021D01*
X22778Y-18007D01*
X22764Y-17992D01*
X20478Y-18021D02*
X20478Y-17721D01*
X20550Y-17721D01*
X20592Y-17735D01*
X20621Y-17764D01*
X20635Y-17792D01*
X20650Y-17850D01*
X20650Y-17892D01*
X20635Y-17950D01*
X20621Y-17978D01*
X20592Y-18007D01*
X20550Y-18021D01*
X20478Y-18021D01*
X20907Y-17721D02*
X20850Y-17721D01*
X20821Y-17735D01*
X20807Y-17750D01*
X20778Y-17792D01*
X20764Y-17850D01*
X20764Y-17964D01*
X20778Y-17992D01*
X20792Y-18007D01*
X20821Y-18021D01*
X20878Y-18021D01*
X20907Y-18007D01*
X20921Y-17992D01*
X20935Y-17964D01*
X20935Y-17892D01*
X20921Y-17864D01*
X20907Y-17850D01*
X20878Y-17835D01*
X20821Y-17835D01*
X20792Y-17850D01*
X20778Y-17864D01*
X20764Y-17892D01*
X28078Y-18021D02*
X28078Y-17721D01*
X28150Y-17721D01*
X28192Y-17735D01*
X28221Y-17764D01*
X28235Y-17792D01*
X28250Y-17850D01*
X28250Y-17892D01*
X28235Y-17950D01*
X28221Y-17978D01*
X28192Y-18007D01*
X28150Y-18021D01*
X28078Y-18021D01*
X28350Y-17721D02*
X28550Y-17721D01*
X28421Y-18021D01*
X26078Y-18021D02*
X26078Y-17721D01*
X26150Y-17721D01*
X26192Y-17735D01*
X26221Y-17764D01*
X26235Y-17792D01*
X26250Y-17850D01*
X26250Y-17892D01*
X26235Y-17950D01*
X26221Y-17978D01*
X26192Y-18007D01*
X26150Y-18021D01*
X26078Y-18021D01*
X26421Y-17850D02*
X26392Y-17835D01*
X26378Y-17821D01*
X26364Y-17792D01*
X26364Y-17778D01*
X26378Y-17750D01*
X26392Y-17735D01*
X26421Y-17721D01*
X26478Y-17721D01*
X26507Y-17735D01*
X26521Y-17750D01*
X26535Y-17778D01*
X26535Y-17792D01*
X26521Y-17821D01*
X26507Y-17835D01*
X26478Y-17850D01*
X26421Y-17850D01*
X26392Y-17864D01*
X26378Y-17878D01*
X26364Y-17907D01*
X26364Y-17964D01*
X26378Y-17992D01*
X26392Y-18007D01*
X26421Y-18021D01*
X26478Y-18021D01*
X26507Y-18007D01*
X26521Y-17992D01*
X26535Y-17964D01*
X26535Y-17907D01*
X26521Y-17878D01*
X26507Y-17864D01*
X26478Y-17850D01*
X33678Y-18021D02*
X33678Y-17721D01*
X33750Y-17721D01*
X33792Y-17735D01*
X33821Y-17764D01*
X33835Y-17792D01*
X33850Y-17850D01*
X33850Y-17892D01*
X33835Y-17950D01*
X33821Y-17978D01*
X33792Y-18007D01*
X33750Y-18021D01*
X33678Y-18021D01*
X33992Y-18021D02*
X34050Y-18021D01*
X34078Y-18007D01*
X34092Y-17992D01*
X34121Y-17950D01*
X34135Y-17892D01*
X34135Y-17778D01*
X34121Y-17750D01*
X34107Y-17735D01*
X34078Y-17721D01*
X34021Y-17721D01*
X33992Y-17735D01*
X33978Y-17750D01*
X33964Y-17778D01*
X33964Y-17850D01*
X33978Y-17878D01*
X33992Y-17892D01*
X34021Y-17907D01*
X34078Y-17907D01*
X34107Y-17892D01*
X34121Y-17878D01*
X34135Y-17850D01*
X31535Y-18021D02*
X31535Y-17721D01*
X31607Y-17721D01*
X31650Y-17735D01*
X31678Y-17764D01*
X31692Y-17792D01*
X31707Y-17850D01*
X31707Y-17892D01*
X31692Y-17950D01*
X31678Y-17978D01*
X31650Y-18007D01*
X31607Y-18021D01*
X31535Y-18021D01*
X31992Y-18021D02*
X31821Y-18021D01*
X31907Y-18021D02*
X31907Y-17721D01*
X31878Y-17764D01*
X31850Y-17792D01*
X31821Y-17807D01*
X32178Y-17721D02*
X32207Y-17721D01*
X32235Y-17735D01*
X32250Y-17750D01*
X32264Y-17778D01*
X32278Y-17835D01*
X32278Y-17907D01*
X32264Y-17964D01*
X32250Y-17992D01*
X32235Y-18007D01*
X32207Y-18021D01*
X32178Y-18021D01*
X32150Y-18007D01*
X32135Y-17992D01*
X32121Y-17964D01*
X32107Y-17907D01*
X32107Y-17835D01*
X32121Y-17778D01*
X32135Y-17750D01*
X32150Y-17735D01*
X32178Y-17721D01*
X39135Y-18021D02*
X39135Y-17721D01*
X39207Y-17721D01*
X39250Y-17735D01*
X39278Y-17764D01*
X39292Y-17792D01*
X39307Y-17850D01*
X39307Y-17892D01*
X39292Y-17950D01*
X39278Y-17978D01*
X39250Y-18007D01*
X39207Y-18021D01*
X39135Y-18021D01*
X39592Y-18021D02*
X39421Y-18021D01*
X39507Y-18021D02*
X39507Y-17721D01*
X39478Y-17764D01*
X39450Y-17792D01*
X39421Y-17807D01*
X39878Y-18021D02*
X39707Y-18021D01*
X39792Y-18021D02*
X39792Y-17721D01*
X39764Y-17764D01*
X39735Y-17792D01*
X39707Y-17807D01*
X37135Y-18021D02*
X37135Y-17721D01*
X37207Y-17721D01*
X37250Y-17735D01*
X37278Y-17764D01*
X37292Y-17792D01*
X37307Y-17850D01*
X37307Y-17892D01*
X37292Y-17950D01*
X37278Y-17978D01*
X37250Y-18007D01*
X37207Y-18021D01*
X37135Y-18021D01*
X37592Y-18021D02*
X37421Y-18021D01*
X37507Y-18021D02*
X37507Y-17721D01*
X37478Y-17764D01*
X37450Y-17792D01*
X37421Y-17807D01*
X37707Y-17750D02*
X37721Y-17735D01*
X37750Y-17721D01*
X37821Y-17721D01*
X37850Y-17735D01*
X37864Y-17750D01*
X37878Y-17778D01*
X37878Y-17807D01*
X37864Y-17850D01*
X37692Y-18021D01*
X37878Y-18021D01*
X44735Y-18021D02*
X44735Y-17721D01*
X44807Y-17721D01*
X44850Y-17735D01*
X44878Y-17764D01*
X44892Y-17792D01*
X44907Y-17850D01*
X44907Y-17892D01*
X44892Y-17950D01*
X44878Y-17978D01*
X44850Y-18007D01*
X44807Y-18021D01*
X44735Y-18021D01*
X45192Y-18021D02*
X45021Y-18021D01*
X45107Y-18021D02*
X45107Y-17721D01*
X45078Y-17764D01*
X45050Y-17792D01*
X45021Y-17807D01*
X45292Y-17721D02*
X45478Y-17721D01*
X45378Y-17835D01*
X45421Y-17835D01*
X45450Y-17850D01*
X45464Y-17864D01*
X45478Y-17892D01*
X45478Y-17964D01*
X45464Y-17992D01*
X45450Y-18007D01*
X45421Y-18021D01*
X45335Y-18021D01*
X45307Y-18007D01*
X45292Y-17992D01*
X42735Y-18021D02*
X42735Y-17721D01*
X42807Y-17721D01*
X42850Y-17735D01*
X42878Y-17764D01*
X42892Y-17792D01*
X42907Y-17850D01*
X42907Y-17892D01*
X42892Y-17950D01*
X42878Y-17978D01*
X42850Y-18007D01*
X42807Y-18021D01*
X42735Y-18021D01*
X43192Y-18021D02*
X43021Y-18021D01*
X43107Y-18021D02*
X43107Y-17721D01*
X43078Y-17764D01*
X43050Y-17792D01*
X43021Y-17807D01*
X43450Y-17821D02*
X43450Y-18021D01*
X43378Y-17707D02*
X43307Y-17921D01*
X43492Y-17921D01*
X16721Y-20250D02*
X16578Y-20350D01*
X16721Y-20421D02*
X16421Y-20421D01*
X16421Y-20307D01*
X16435Y-20278D01*
X16450Y-20264D01*
X16478Y-20250D01*
X16521Y-20250D01*
X16550Y-20264D01*
X16564Y-20278D01*
X16578Y-20307D01*
X16578Y-20421D01*
X16721Y-19964D02*
X16721Y-20135D01*
X16721Y-20050D02*
X16421Y-20050D01*
X16464Y-20078D01*
X16492Y-20107D01*
X16507Y-20135D01*
X16721Y-24250D02*
X16578Y-24350D01*
X16721Y-24421D02*
X16421Y-24421D01*
X16421Y-24307D01*
X16435Y-24278D01*
X16450Y-24264D01*
X16478Y-24250D01*
X16521Y-24250D01*
X16550Y-24264D01*
X16564Y-24278D01*
X16578Y-24307D01*
X16578Y-24421D01*
X16450Y-24135D02*
X16435Y-24121D01*
X16421Y-24092D01*
X16421Y-24021D01*
X16435Y-23992D01*
X16450Y-23978D01*
X16478Y-23964D01*
X16507Y-23964D01*
X16550Y-23978D01*
X16721Y-24150D01*
X16721Y-23964D01*
X42821Y-24850D02*
X42678Y-24950D01*
X42821Y-25021D02*
X42521Y-25021D01*
X42521Y-24907D01*
X42535Y-24878D01*
X42550Y-24864D01*
X42578Y-24850D01*
X42621Y-24850D01*
X42650Y-24864D01*
X42664Y-24878D01*
X42678Y-24907D01*
X42678Y-25021D01*
X42521Y-24750D02*
X42521Y-24564D01*
X42635Y-24664D01*
X42635Y-24621D01*
X42650Y-24592D01*
X42664Y-24578D01*
X42692Y-24564D01*
X42764Y-24564D01*
X42792Y-24578D01*
X42807Y-24592D01*
X42821Y-24621D01*
X42821Y-24707D01*
X42807Y-24735D01*
X42792Y-24750D01*
X18050Y-18021D02*
X17950Y-17878D01*
X17878Y-18021D02*
X17878Y-17721D01*
X17992Y-17721D01*
X18021Y-17735D01*
X18035Y-17750D01*
X18050Y-17778D01*
X18050Y-17821D01*
X18035Y-17850D01*
X18021Y-17864D01*
X17992Y-17878D01*
X17878Y-17878D01*
X18307Y-17721D02*
X18250Y-17721D01*
X18221Y-17735D01*
X18207Y-17750D01*
X18178Y-17792D01*
X18164Y-17850D01*
X18164Y-17964D01*
X18178Y-17992D01*
X18192Y-18007D01*
X18221Y-18021D01*
X18278Y-18021D01*
X18307Y-18007D01*
X18321Y-17992D01*
X18335Y-17964D01*
X18335Y-17892D01*
X18321Y-17864D01*
X18307Y-17850D01*
X18278Y-17835D01*
X18221Y-17835D01*
X18192Y-17850D01*
X18178Y-17864D01*
X18164Y-17892D01*
X22921Y-19650D02*
X22778Y-19750D01*
X22921Y-19821D02*
X22621Y-19821D01*
X22621Y-19707D01*
X22635Y-19678D01*
X22650Y-19664D01*
X22678Y-19650D01*
X22721Y-19650D01*
X22750Y-19664D01*
X22764Y-19678D01*
X22778Y-19707D01*
X22778Y-19821D01*
X22621Y-19550D02*
X22621Y-19350D01*
X22921Y-19478D01*
X23921Y-19650D02*
X23778Y-19750D01*
X23921Y-19821D02*
X23621Y-19821D01*
X23621Y-19707D01*
X23635Y-19678D01*
X23650Y-19664D01*
X23678Y-19650D01*
X23721Y-19650D01*
X23750Y-19664D01*
X23764Y-19678D01*
X23778Y-19707D01*
X23778Y-19821D01*
X23750Y-19478D02*
X23735Y-19507D01*
X23721Y-19521D01*
X23692Y-19535D01*
X23678Y-19535D01*
X23650Y-19521D01*
X23635Y-19507D01*
X23621Y-19478D01*
X23621Y-19421D01*
X23635Y-19392D01*
X23650Y-19378D01*
X23678Y-19364D01*
X23692Y-19364D01*
X23721Y-19378D01*
X23735Y-19392D01*
X23750Y-19421D01*
X23750Y-19478D01*
X23764Y-19507D01*
X23778Y-19521D01*
X23807Y-19535D01*
X23864Y-19535D01*
X23892Y-19521D01*
X23907Y-19507D01*
X23921Y-19478D01*
X23921Y-19421D01*
X23907Y-19392D01*
X23892Y-19378D01*
X23864Y-19364D01*
X23807Y-19364D01*
X23778Y-19378D01*
X23764Y-19392D01*
X23750Y-19421D01*
X24921Y-19650D02*
X24778Y-19750D01*
X24921Y-19821D02*
X24621Y-19821D01*
X24621Y-19707D01*
X24635Y-19678D01*
X24650Y-19664D01*
X24678Y-19650D01*
X24721Y-19650D01*
X24750Y-19664D01*
X24764Y-19678D01*
X24778Y-19707D01*
X24778Y-19821D01*
X24921Y-19507D02*
X24921Y-19450D01*
X24907Y-19421D01*
X24892Y-19407D01*
X24850Y-19378D01*
X24792Y-19364D01*
X24678Y-19364D01*
X24650Y-19378D01*
X24635Y-19392D01*
X24621Y-19421D01*
X24621Y-19478D01*
X24635Y-19507D01*
X24650Y-19521D01*
X24678Y-19535D01*
X24750Y-19535D01*
X24778Y-19521D01*
X24792Y-19507D01*
X24807Y-19478D01*
X24807Y-19421D01*
X24792Y-19392D01*
X24778Y-19378D01*
X24750Y-19364D01*
X16707Y-15921D02*
X16607Y-15778D01*
X16535Y-15921D02*
X16535Y-15621D01*
X16650Y-15621D01*
X16678Y-15635D01*
X16692Y-15650D01*
X16707Y-15678D01*
X16707Y-15721D01*
X16692Y-15750D01*
X16678Y-15764D01*
X16650Y-15778D01*
X16535Y-15778D01*
X16992Y-15921D02*
X16821Y-15921D01*
X16907Y-15921D02*
X16907Y-15621D01*
X16878Y-15664D01*
X16850Y-15692D01*
X16821Y-15707D01*
X17178Y-15621D02*
X17207Y-15621D01*
X17235Y-15635D01*
X17250Y-15650D01*
X17264Y-15678D01*
X17278Y-15735D01*
X17278Y-15807D01*
X17264Y-15864D01*
X17250Y-15892D01*
X17235Y-15907D01*
X17207Y-15921D01*
X17178Y-15921D01*
X17150Y-15907D01*
X17135Y-15892D01*
X17121Y-15864D01*
X17107Y-15807D01*
X17107Y-15735D01*
X17121Y-15678D01*
X17135Y-15650D01*
X17150Y-15635D01*
X17178Y-15621D01*
X15907Y-18021D02*
X15807Y-17878D01*
X15735Y-18021D02*
X15735Y-17721D01*
X15850Y-17721D01*
X15878Y-17735D01*
X15892Y-17750D01*
X15907Y-17778D01*
X15907Y-17821D01*
X15892Y-17850D01*
X15878Y-17864D01*
X15850Y-17878D01*
X15735Y-17878D01*
X16192Y-18021D02*
X16021Y-18021D01*
X16107Y-18021D02*
X16107Y-17721D01*
X16078Y-17764D01*
X16050Y-17792D01*
X16021Y-17807D01*
X16478Y-18021D02*
X16307Y-18021D01*
X16392Y-18021D02*
X16392Y-17721D01*
X16364Y-17764D01*
X16335Y-17792D01*
X16307Y-17807D01*
X23507Y-18021D02*
X23407Y-17878D01*
X23335Y-18021D02*
X23335Y-17721D01*
X23450Y-17721D01*
X23478Y-17735D01*
X23492Y-17750D01*
X23507Y-17778D01*
X23507Y-17821D01*
X23492Y-17850D01*
X23478Y-17864D01*
X23450Y-17878D01*
X23335Y-17878D01*
X23792Y-18021D02*
X23621Y-18021D01*
X23707Y-18021D02*
X23707Y-17721D01*
X23678Y-17764D01*
X23650Y-17792D01*
X23621Y-17807D01*
X23907Y-17750D02*
X23921Y-17735D01*
X23950Y-17721D01*
X24021Y-17721D01*
X24050Y-17735D01*
X24064Y-17750D01*
X24078Y-17778D01*
X24078Y-17807D01*
X24064Y-17850D01*
X23892Y-18021D01*
X24078Y-18021D01*
X26121Y-19692D02*
X25978Y-19792D01*
X26121Y-19864D02*
X25821Y-19864D01*
X25821Y-19750D01*
X25835Y-19721D01*
X25850Y-19707D01*
X25878Y-19692D01*
X25921Y-19692D01*
X25950Y-19707D01*
X25964Y-19721D01*
X25978Y-19750D01*
X25978Y-19864D01*
X26121Y-19407D02*
X26121Y-19578D01*
X26121Y-19492D02*
X25821Y-19492D01*
X25864Y-19521D01*
X25892Y-19550D01*
X25907Y-19578D01*
X25821Y-19307D02*
X25821Y-19121D01*
X25935Y-19221D01*
X25935Y-19178D01*
X25950Y-19150D01*
X25964Y-19135D01*
X25992Y-19121D01*
X26064Y-19121D01*
X26092Y-19135D01*
X26107Y-19150D01*
X26121Y-19178D01*
X26121Y-19264D01*
X26107Y-19292D01*
X26092Y-19307D01*
X27121Y-19692D02*
X26978Y-19792D01*
X27121Y-19864D02*
X26821Y-19864D01*
X26821Y-19750D01*
X26835Y-19721D01*
X26850Y-19707D01*
X26878Y-19692D01*
X26921Y-19692D01*
X26950Y-19707D01*
X26964Y-19721D01*
X26978Y-19750D01*
X26978Y-19864D01*
X27121Y-19407D02*
X27121Y-19578D01*
X27121Y-19492D02*
X26821Y-19492D01*
X26864Y-19521D01*
X26892Y-19550D01*
X26907Y-19578D01*
X26921Y-19150D02*
X27121Y-19150D01*
X26807Y-19221D02*
X27021Y-19292D01*
X27021Y-19107D01*
X28121Y-19692D02*
X27978Y-19792D01*
X28121Y-19864D02*
X27821Y-19864D01*
X27821Y-19750D01*
X27835Y-19721D01*
X27850Y-19707D01*
X27878Y-19692D01*
X27921Y-19692D01*
X27950Y-19707D01*
X27964Y-19721D01*
X27978Y-19750D01*
X27978Y-19864D01*
X28121Y-19407D02*
X28121Y-19578D01*
X28121Y-19492D02*
X27821Y-19492D01*
X27864Y-19521D01*
X27892Y-19550D01*
X27907Y-19578D01*
X27821Y-19135D02*
X27821Y-19278D01*
X27964Y-19292D01*
X27950Y-19278D01*
X27935Y-19250D01*
X27935Y-19178D01*
X27950Y-19150D01*
X27964Y-19135D01*
X27992Y-19121D01*
X28064Y-19121D01*
X28092Y-19135D01*
X28107Y-19150D01*
X28121Y-19178D01*
X28121Y-19250D01*
X28107Y-19278D01*
X28092Y-19292D01*
X22307Y-15921D02*
X22207Y-15778D01*
X22135Y-15921D02*
X22135Y-15621D01*
X22250Y-15621D01*
X22278Y-15635D01*
X22292Y-15650D01*
X22307Y-15678D01*
X22307Y-15721D01*
X22292Y-15750D01*
X22278Y-15764D01*
X22250Y-15778D01*
X22135Y-15778D01*
X22592Y-15921D02*
X22421Y-15921D01*
X22507Y-15921D02*
X22507Y-15621D01*
X22478Y-15664D01*
X22450Y-15692D01*
X22421Y-15707D01*
X22850Y-15621D02*
X22792Y-15621D01*
X22764Y-15635D01*
X22750Y-15650D01*
X22721Y-15692D01*
X22707Y-15750D01*
X22707Y-15864D01*
X22721Y-15892D01*
X22735Y-15907D01*
X22764Y-15921D01*
X22821Y-15921D01*
X22850Y-15907D01*
X22864Y-15892D01*
X22878Y-15864D01*
X22878Y-15792D01*
X22864Y-15764D01*
X22850Y-15750D01*
X22821Y-15735D01*
X22764Y-15735D01*
X22735Y-15750D01*
X22721Y-15764D01*
X22707Y-15792D01*
X21507Y-18021D02*
X21407Y-17878D01*
X21335Y-18021D02*
X21335Y-17721D01*
X21450Y-17721D01*
X21478Y-17735D01*
X21492Y-17750D01*
X21507Y-17778D01*
X21507Y-17821D01*
X21492Y-17850D01*
X21478Y-17864D01*
X21450Y-17878D01*
X21335Y-17878D01*
X21792Y-18021D02*
X21621Y-18021D01*
X21707Y-18021D02*
X21707Y-17721D01*
X21678Y-17764D01*
X21650Y-17792D01*
X21621Y-17807D01*
X21892Y-17721D02*
X22092Y-17721D01*
X21964Y-18021D01*
X29107Y-18021D02*
X29007Y-17878D01*
X28935Y-18021D02*
X28935Y-17721D01*
X29050Y-17721D01*
X29078Y-17735D01*
X29092Y-17750D01*
X29107Y-17778D01*
X29107Y-17821D01*
X29092Y-17850D01*
X29078Y-17864D01*
X29050Y-17878D01*
X28935Y-17878D01*
X29392Y-18021D02*
X29221Y-18021D01*
X29307Y-18021D02*
X29307Y-17721D01*
X29278Y-17764D01*
X29250Y-17792D01*
X29221Y-17807D01*
X29564Y-17850D02*
X29535Y-17835D01*
X29521Y-17821D01*
X29507Y-17792D01*
X29507Y-17778D01*
X29521Y-17750D01*
X29535Y-17735D01*
X29564Y-17721D01*
X29621Y-17721D01*
X29650Y-17735D01*
X29664Y-17750D01*
X29678Y-17778D01*
X29678Y-17792D01*
X29664Y-17821D01*
X29650Y-17835D01*
X29621Y-17850D01*
X29564Y-17850D01*
X29535Y-17864D01*
X29521Y-17878D01*
X29507Y-17907D01*
X29507Y-17964D01*
X29521Y-17992D01*
X29535Y-18007D01*
X29564Y-18021D01*
X29621Y-18021D01*
X29650Y-18007D01*
X29664Y-17992D01*
X29678Y-17964D01*
X29678Y-17907D01*
X29664Y-17878D01*
X29650Y-17864D01*
X29621Y-17850D01*
X29321Y-19692D02*
X29178Y-19792D01*
X29321Y-19864D02*
X29021Y-19864D01*
X29021Y-19750D01*
X29035Y-19721D01*
X29050Y-19707D01*
X29078Y-19692D01*
X29121Y-19692D01*
X29150Y-19707D01*
X29164Y-19721D01*
X29178Y-19750D01*
X29178Y-19864D01*
X29321Y-19407D02*
X29321Y-19578D01*
X29321Y-19492D02*
X29021Y-19492D01*
X29064Y-19521D01*
X29092Y-19550D01*
X29107Y-19578D01*
X29321Y-19264D02*
X29321Y-19207D01*
X29307Y-19178D01*
X29292Y-19164D01*
X29250Y-19135D01*
X29192Y-19121D01*
X29078Y-19121D01*
X29050Y-19135D01*
X29035Y-19150D01*
X29021Y-19178D01*
X29021Y-19235D01*
X29035Y-19264D01*
X29050Y-19278D01*
X29078Y-19292D01*
X29150Y-19292D01*
X29178Y-19278D01*
X29192Y-19264D01*
X29207Y-19235D01*
X29207Y-19178D01*
X29192Y-19150D01*
X29178Y-19135D01*
X29150Y-19121D01*
X30321Y-19692D02*
X30178Y-19792D01*
X30321Y-19864D02*
X30021Y-19864D01*
X30021Y-19750D01*
X30035Y-19721D01*
X30050Y-19707D01*
X30078Y-19692D01*
X30121Y-19692D01*
X30150Y-19707D01*
X30164Y-19721D01*
X30178Y-19750D01*
X30178Y-19864D01*
X30050Y-19578D02*
X30035Y-19564D01*
X30021Y-19535D01*
X30021Y-19464D01*
X30035Y-19435D01*
X30050Y-19421D01*
X30078Y-19407D01*
X30107Y-19407D01*
X30150Y-19421D01*
X30321Y-19592D01*
X30321Y-19407D01*
X30021Y-19221D02*
X30021Y-19192D01*
X30035Y-19164D01*
X30050Y-19150D01*
X30078Y-19135D01*
X30135Y-19121D01*
X30207Y-19121D01*
X30264Y-19135D01*
X30292Y-19150D01*
X30307Y-19164D01*
X30321Y-19192D01*
X30321Y-19221D01*
X30307Y-19250D01*
X30292Y-19264D01*
X30264Y-19278D01*
X30207Y-19292D01*
X30135Y-19292D01*
X30078Y-19278D01*
X30050Y-19264D01*
X30035Y-19250D01*
X30021Y-19221D01*
X31321Y-19692D02*
X31178Y-19792D01*
X31321Y-19864D02*
X31021Y-19864D01*
X31021Y-19750D01*
X31035Y-19721D01*
X31050Y-19707D01*
X31078Y-19692D01*
X31121Y-19692D01*
X31150Y-19707D01*
X31164Y-19721D01*
X31178Y-19750D01*
X31178Y-19864D01*
X31050Y-19578D02*
X31035Y-19564D01*
X31021Y-19535D01*
X31021Y-19464D01*
X31035Y-19435D01*
X31050Y-19421D01*
X31078Y-19407D01*
X31107Y-19407D01*
X31150Y-19421D01*
X31321Y-19592D01*
X31321Y-19407D01*
X31321Y-19121D02*
X31321Y-19292D01*
X31321Y-19207D02*
X31021Y-19207D01*
X31064Y-19235D01*
X31092Y-19264D01*
X31107Y-19292D01*
X27907Y-15921D02*
X27807Y-15778D01*
X27735Y-15921D02*
X27735Y-15621D01*
X27850Y-15621D01*
X27878Y-15635D01*
X27892Y-15650D01*
X27907Y-15678D01*
X27907Y-15721D01*
X27892Y-15750D01*
X27878Y-15764D01*
X27850Y-15778D01*
X27735Y-15778D01*
X28021Y-15650D02*
X28035Y-15635D01*
X28064Y-15621D01*
X28135Y-15621D01*
X28164Y-15635D01*
X28178Y-15650D01*
X28192Y-15678D01*
X28192Y-15707D01*
X28178Y-15750D01*
X28007Y-15921D01*
X28192Y-15921D01*
X28307Y-15650D02*
X28321Y-15635D01*
X28350Y-15621D01*
X28421Y-15621D01*
X28450Y-15635D01*
X28464Y-15650D01*
X28478Y-15678D01*
X28478Y-15707D01*
X28464Y-15750D01*
X28292Y-15921D01*
X28478Y-15921D01*
X27107Y-18021D02*
X27007Y-17878D01*
X26935Y-18021D02*
X26935Y-17721D01*
X27050Y-17721D01*
X27078Y-17735D01*
X27092Y-17750D01*
X27107Y-17778D01*
X27107Y-17821D01*
X27092Y-17850D01*
X27078Y-17864D01*
X27050Y-17878D01*
X26935Y-17878D01*
X27221Y-17750D02*
X27235Y-17735D01*
X27264Y-17721D01*
X27335Y-17721D01*
X27364Y-17735D01*
X27378Y-17750D01*
X27392Y-17778D01*
X27392Y-17807D01*
X27378Y-17850D01*
X27207Y-18021D01*
X27392Y-18021D01*
X27492Y-17721D02*
X27678Y-17721D01*
X27578Y-17835D01*
X27621Y-17835D01*
X27650Y-17850D01*
X27664Y-17864D01*
X27678Y-17892D01*
X27678Y-17964D01*
X27664Y-17992D01*
X27650Y-18007D01*
X27621Y-18021D01*
X27535Y-18021D01*
X27507Y-18007D01*
X27492Y-17992D01*
X34707Y-18021D02*
X34607Y-17878D01*
X34535Y-18021D02*
X34535Y-17721D01*
X34650Y-17721D01*
X34678Y-17735D01*
X34692Y-17750D01*
X34707Y-17778D01*
X34707Y-17821D01*
X34692Y-17850D01*
X34678Y-17864D01*
X34650Y-17878D01*
X34535Y-17878D01*
X34821Y-17750D02*
X34835Y-17735D01*
X34864Y-17721D01*
X34935Y-17721D01*
X34964Y-17735D01*
X34978Y-17750D01*
X34992Y-17778D01*
X34992Y-17807D01*
X34978Y-17850D01*
X34807Y-18021D01*
X34992Y-18021D01*
X35250Y-17821D02*
X35250Y-18021D01*
X35178Y-17707D02*
X35107Y-17921D01*
X35292Y-17921D01*
X32521Y-19692D02*
X32378Y-19792D01*
X32521Y-19864D02*
X32221Y-19864D01*
X32221Y-19750D01*
X32235Y-19721D01*
X32250Y-19707D01*
X32278Y-19692D01*
X32321Y-19692D01*
X32350Y-19707D01*
X32364Y-19721D01*
X32378Y-19750D01*
X32378Y-19864D01*
X32250Y-19578D02*
X32235Y-19564D01*
X32221Y-19535D01*
X32221Y-19464D01*
X32235Y-19435D01*
X32250Y-19421D01*
X32278Y-19407D01*
X32307Y-19407D01*
X32350Y-19421D01*
X32521Y-19592D01*
X32521Y-19407D01*
X32221Y-19135D02*
X32221Y-19278D01*
X32364Y-19292D01*
X32350Y-19278D01*
X32335Y-19250D01*
X32335Y-19178D01*
X32350Y-19150D01*
X32364Y-19135D01*
X32392Y-19121D01*
X32464Y-19121D01*
X32492Y-19135D01*
X32507Y-19150D01*
X32521Y-19178D01*
X32521Y-19250D01*
X32507Y-19278D01*
X32492Y-19292D01*
X33521Y-19692D02*
X33378Y-19792D01*
X33521Y-19864D02*
X33221Y-19864D01*
X33221Y-19750D01*
X33235Y-19721D01*
X33250Y-19707D01*
X33278Y-19692D01*
X33321Y-19692D01*
X33350Y-19707D01*
X33364Y-19721D01*
X33378Y-19750D01*
X33378Y-19864D01*
X33250Y-19578D02*
X33235Y-19564D01*
X33221Y-19535D01*
X33221Y-19464D01*
X33235Y-19435D01*
X33250Y-19421D01*
X33278Y-19407D01*
X33307Y-19407D01*
X33350Y-19421D01*
X33521Y-19592D01*
X33521Y-19407D01*
X33221Y-19150D02*
X33221Y-19207D01*
X33235Y-19235D01*
X33250Y-19250D01*
X33292Y-19278D01*
X33350Y-19292D01*
X33464Y-19292D01*
X33492Y-19278D01*
X33507Y-19264D01*
X33521Y-19235D01*
X33521Y-19178D01*
X33507Y-19150D01*
X33492Y-19135D01*
X33464Y-19121D01*
X33392Y-19121D01*
X33364Y-19135D01*
X33350Y-19150D01*
X33335Y-19178D01*
X33335Y-19235D01*
X33350Y-19264D01*
X33364Y-19278D01*
X33392Y-19292D01*
X34521Y-19692D02*
X34378Y-19792D01*
X34521Y-19864D02*
X34221Y-19864D01*
X34221Y-19750D01*
X34235Y-19721D01*
X34250Y-19707D01*
X34278Y-19692D01*
X34321Y-19692D01*
X34350Y-19707D01*
X34364Y-19721D01*
X34378Y-19750D01*
X34378Y-19864D01*
X34250Y-19578D02*
X34235Y-19564D01*
X34221Y-19535D01*
X34221Y-19464D01*
X34235Y-19435D01*
X34250Y-19421D01*
X34278Y-19407D01*
X34307Y-19407D01*
X34350Y-19421D01*
X34521Y-19592D01*
X34521Y-19407D01*
X34221Y-19307D02*
X34221Y-19107D01*
X34521Y-19235D01*
X33507Y-15921D02*
X33407Y-15778D01*
X33335Y-15921D02*
X33335Y-15621D01*
X33450Y-15621D01*
X33478Y-15635D01*
X33492Y-15650D01*
X33507Y-15678D01*
X33507Y-15721D01*
X33492Y-15750D01*
X33478Y-15764D01*
X33450Y-15778D01*
X33335Y-15778D01*
X33621Y-15650D02*
X33635Y-15635D01*
X33664Y-15621D01*
X33735Y-15621D01*
X33764Y-15635D01*
X33778Y-15650D01*
X33792Y-15678D01*
X33792Y-15707D01*
X33778Y-15750D01*
X33607Y-15921D01*
X33792Y-15921D01*
X33964Y-15750D02*
X33935Y-15735D01*
X33921Y-15721D01*
X33907Y-15692D01*
X33907Y-15678D01*
X33921Y-15650D01*
X33935Y-15635D01*
X33964Y-15621D01*
X34021Y-15621D01*
X34050Y-15635D01*
X34064Y-15650D01*
X34078Y-15678D01*
X34078Y-15692D01*
X34064Y-15721D01*
X34050Y-15735D01*
X34021Y-15750D01*
X33964Y-15750D01*
X33935Y-15764D01*
X33921Y-15778D01*
X33907Y-15807D01*
X33907Y-15864D01*
X33921Y-15892D01*
X33935Y-15907D01*
X33964Y-15921D01*
X34021Y-15921D01*
X34050Y-15907D01*
X34064Y-15892D01*
X34078Y-15864D01*
X34078Y-15807D01*
X34064Y-15778D01*
X34050Y-15764D01*
X34021Y-15750D01*
X32707Y-18021D02*
X32607Y-17878D01*
X32535Y-18021D02*
X32535Y-17721D01*
X32650Y-17721D01*
X32678Y-17735D01*
X32692Y-17750D01*
X32707Y-17778D01*
X32707Y-17821D01*
X32692Y-17850D01*
X32678Y-17864D01*
X32650Y-17878D01*
X32535Y-17878D01*
X32821Y-17750D02*
X32835Y-17735D01*
X32864Y-17721D01*
X32935Y-17721D01*
X32964Y-17735D01*
X32978Y-17750D01*
X32992Y-17778D01*
X32992Y-17807D01*
X32978Y-17850D01*
X32807Y-18021D01*
X32992Y-18021D01*
X33135Y-18021D02*
X33192Y-18021D01*
X33221Y-18007D01*
X33235Y-17992D01*
X33264Y-17950D01*
X33278Y-17892D01*
X33278Y-17778D01*
X33264Y-17750D01*
X33250Y-17735D01*
X33221Y-17721D01*
X33164Y-17721D01*
X33135Y-17735D01*
X33121Y-17750D01*
X33107Y-17778D01*
X33107Y-17850D01*
X33121Y-17878D01*
X33135Y-17892D01*
X33164Y-17907D01*
X33221Y-17907D01*
X33250Y-17892D01*
X33264Y-17878D01*
X33278Y-17850D01*
X40307Y-18021D02*
X40207Y-17878D01*
X40135Y-18021D02*
X40135Y-17721D01*
X40250Y-17721D01*
X40278Y-17735D01*
X40292Y-17750D01*
X40307Y-17778D01*
X40307Y-17821D01*
X40292Y-17850D01*
X40278Y-17864D01*
X40250Y-17878D01*
X40135Y-17878D01*
X40407Y-17721D02*
X40592Y-17721D01*
X40492Y-17835D01*
X40535Y-17835D01*
X40564Y-17850D01*
X40578Y-17864D01*
X40592Y-17892D01*
X40592Y-17964D01*
X40578Y-17992D01*
X40564Y-18007D01*
X40535Y-18021D01*
X40450Y-18021D01*
X40421Y-18007D01*
X40407Y-17992D01*
X40778Y-17721D02*
X40807Y-17721D01*
X40835Y-17735D01*
X40850Y-17750D01*
X40864Y-17778D01*
X40878Y-17835D01*
X40878Y-17907D01*
X40864Y-17964D01*
X40850Y-17992D01*
X40835Y-18007D01*
X40807Y-18021D01*
X40778Y-18021D01*
X40750Y-18007D01*
X40735Y-17992D01*
X40721Y-17964D01*
X40707Y-17907D01*
X40707Y-17835D01*
X40721Y-17778D01*
X40735Y-17750D01*
X40750Y-17735D01*
X40778Y-17721D01*
X35721Y-19692D02*
X35578Y-19792D01*
X35721Y-19864D02*
X35421Y-19864D01*
X35421Y-19750D01*
X35435Y-19721D01*
X35450Y-19707D01*
X35478Y-19692D01*
X35521Y-19692D01*
X35550Y-19707D01*
X35564Y-19721D01*
X35578Y-19750D01*
X35578Y-19864D01*
X35421Y-19592D02*
X35421Y-19407D01*
X35535Y-19507D01*
X35535Y-19464D01*
X35550Y-19435D01*
X35564Y-19421D01*
X35592Y-19407D01*
X35664Y-19407D01*
X35692Y-19421D01*
X35707Y-19435D01*
X35721Y-19464D01*
X35721Y-19550D01*
X35707Y-19578D01*
X35692Y-19592D01*
X35721Y-19121D02*
X35721Y-19292D01*
X35721Y-19207D02*
X35421Y-19207D01*
X35464Y-19235D01*
X35492Y-19264D01*
X35507Y-19292D01*
X36721Y-19692D02*
X36578Y-19792D01*
X36721Y-19864D02*
X36421Y-19864D01*
X36421Y-19750D01*
X36435Y-19721D01*
X36450Y-19707D01*
X36478Y-19692D01*
X36521Y-19692D01*
X36550Y-19707D01*
X36564Y-19721D01*
X36578Y-19750D01*
X36578Y-19864D01*
X36421Y-19592D02*
X36421Y-19407D01*
X36535Y-19507D01*
X36535Y-19464D01*
X36550Y-19435D01*
X36564Y-19421D01*
X36592Y-19407D01*
X36664Y-19407D01*
X36692Y-19421D01*
X36707Y-19435D01*
X36721Y-19464D01*
X36721Y-19550D01*
X36707Y-19578D01*
X36692Y-19592D01*
X36450Y-19292D02*
X36435Y-19278D01*
X36421Y-19250D01*
X36421Y-19178D01*
X36435Y-19150D01*
X36450Y-19135D01*
X36478Y-19121D01*
X36507Y-19121D01*
X36550Y-19135D01*
X36721Y-19307D01*
X36721Y-19121D01*
X37721Y-19692D02*
X37578Y-19792D01*
X37721Y-19864D02*
X37421Y-19864D01*
X37421Y-19750D01*
X37435Y-19721D01*
X37450Y-19707D01*
X37478Y-19692D01*
X37521Y-19692D01*
X37550Y-19707D01*
X37564Y-19721D01*
X37578Y-19750D01*
X37578Y-19864D01*
X37421Y-19592D02*
X37421Y-19407D01*
X37535Y-19507D01*
X37535Y-19464D01*
X37550Y-19435D01*
X37564Y-19421D01*
X37592Y-19407D01*
X37664Y-19407D01*
X37692Y-19421D01*
X37707Y-19435D01*
X37721Y-19464D01*
X37721Y-19550D01*
X37707Y-19578D01*
X37692Y-19592D01*
X37421Y-19307D02*
X37421Y-19121D01*
X37535Y-19221D01*
X37535Y-19178D01*
X37550Y-19150D01*
X37564Y-19135D01*
X37592Y-19121D01*
X37664Y-19121D01*
X37692Y-19135D01*
X37707Y-19150D01*
X37721Y-19178D01*
X37721Y-19264D01*
X37707Y-19292D01*
X37692Y-19307D01*
X39107Y-15921D02*
X39007Y-15778D01*
X38935Y-15921D02*
X38935Y-15621D01*
X39050Y-15621D01*
X39078Y-15635D01*
X39092Y-15650D01*
X39107Y-15678D01*
X39107Y-15721D01*
X39092Y-15750D01*
X39078Y-15764D01*
X39050Y-15778D01*
X38935Y-15778D01*
X39207Y-15621D02*
X39392Y-15621D01*
X39292Y-15735D01*
X39335Y-15735D01*
X39364Y-15750D01*
X39378Y-15764D01*
X39392Y-15792D01*
X39392Y-15864D01*
X39378Y-15892D01*
X39364Y-15907D01*
X39335Y-15921D01*
X39250Y-15921D01*
X39221Y-15907D01*
X39207Y-15892D01*
X39650Y-15721D02*
X39650Y-15921D01*
X39578Y-15607D02*
X39507Y-15821D01*
X39692Y-15821D01*
X38307Y-18021D02*
X38207Y-17878D01*
X38135Y-18021D02*
X38135Y-17721D01*
X38250Y-17721D01*
X38278Y-17735D01*
X38292Y-17750D01*
X38307Y-17778D01*
X38307Y-17821D01*
X38292Y-17850D01*
X38278Y-17864D01*
X38250Y-17878D01*
X38135Y-17878D01*
X38407Y-17721D02*
X38592Y-17721D01*
X38492Y-17835D01*
X38535Y-17835D01*
X38564Y-17850D01*
X38578Y-17864D01*
X38592Y-17892D01*
X38592Y-17964D01*
X38578Y-17992D01*
X38564Y-18007D01*
X38535Y-18021D01*
X38450Y-18021D01*
X38421Y-18007D01*
X38407Y-17992D01*
X38864Y-17721D02*
X38721Y-17721D01*
X38707Y-17864D01*
X38721Y-17850D01*
X38750Y-17835D01*
X38821Y-17835D01*
X38850Y-17850D01*
X38864Y-17864D01*
X38878Y-17892D01*
X38878Y-17964D01*
X38864Y-17992D01*
X38850Y-18007D01*
X38821Y-18021D01*
X38750Y-18021D01*
X38721Y-18007D01*
X38707Y-17992D01*
X45907Y-18021D02*
X45807Y-17878D01*
X45735Y-18021D02*
X45735Y-17721D01*
X45850Y-17721D01*
X45878Y-17735D01*
X45892Y-17750D01*
X45907Y-17778D01*
X45907Y-17821D01*
X45892Y-17850D01*
X45878Y-17864D01*
X45850Y-17878D01*
X45735Y-17878D01*
X46007Y-17721D02*
X46192Y-17721D01*
X46092Y-17835D01*
X46135Y-17835D01*
X46164Y-17850D01*
X46178Y-17864D01*
X46192Y-17892D01*
X46192Y-17964D01*
X46178Y-17992D01*
X46164Y-18007D01*
X46135Y-18021D01*
X46050Y-18021D01*
X46021Y-18007D01*
X46007Y-17992D01*
X46450Y-17721D02*
X46392Y-17721D01*
X46364Y-17735D01*
X46350Y-17750D01*
X46321Y-17792D01*
X46307Y-17850D01*
X46307Y-17964D01*
X46321Y-17992D01*
X46335Y-18007D01*
X46364Y-18021D01*
X46421Y-18021D01*
X46450Y-18007D01*
X46464Y-17992D01*
X46478Y-17964D01*
X46478Y-17892D01*
X46464Y-17864D01*
X46450Y-17850D01*
X46421Y-17835D01*
X46364Y-17835D01*
X46335Y-17850D01*
X46321Y-17864D01*
X46307Y-17892D01*
X38921Y-19692D02*
X38778Y-19792D01*
X38921Y-19864D02*
X38621Y-19864D01*
X38621Y-19750D01*
X38635Y-19721D01*
X38650Y-19707D01*
X38678Y-19692D01*
X38721Y-19692D01*
X38750Y-19707D01*
X38764Y-19721D01*
X38778Y-19750D01*
X38778Y-19864D01*
X38621Y-19592D02*
X38621Y-19407D01*
X38735Y-19507D01*
X38735Y-19464D01*
X38750Y-19435D01*
X38764Y-19421D01*
X38792Y-19407D01*
X38864Y-19407D01*
X38892Y-19421D01*
X38907Y-19435D01*
X38921Y-19464D01*
X38921Y-19550D01*
X38907Y-19578D01*
X38892Y-19592D01*
X38621Y-19307D02*
X38621Y-19107D01*
X38921Y-19235D01*
X39921Y-19692D02*
X39778Y-19792D01*
X39921Y-19864D02*
X39621Y-19864D01*
X39621Y-19750D01*
X39635Y-19721D01*
X39650Y-19707D01*
X39678Y-19692D01*
X39721Y-19692D01*
X39750Y-19707D01*
X39764Y-19721D01*
X39778Y-19750D01*
X39778Y-19864D01*
X39621Y-19592D02*
X39621Y-19407D01*
X39735Y-19507D01*
X39735Y-19464D01*
X39750Y-19435D01*
X39764Y-19421D01*
X39792Y-19407D01*
X39864Y-19407D01*
X39892Y-19421D01*
X39907Y-19435D01*
X39921Y-19464D01*
X39921Y-19550D01*
X39907Y-19578D01*
X39892Y-19592D01*
X39750Y-19235D02*
X39735Y-19264D01*
X39721Y-19278D01*
X39692Y-19292D01*
X39678Y-19292D01*
X39650Y-19278D01*
X39635Y-19264D01*
X39621Y-19235D01*
X39621Y-19178D01*
X39635Y-19150D01*
X39650Y-19135D01*
X39678Y-19121D01*
X39692Y-19121D01*
X39721Y-19135D01*
X39735Y-19150D01*
X39750Y-19178D01*
X39750Y-19235D01*
X39764Y-19264D01*
X39778Y-19278D01*
X39807Y-19292D01*
X39864Y-19292D01*
X39892Y-19278D01*
X39907Y-19264D01*
X39921Y-19235D01*
X39921Y-19178D01*
X39907Y-19150D01*
X39892Y-19135D01*
X39864Y-19121D01*
X39807Y-19121D01*
X39778Y-19135D01*
X39764Y-19150D01*
X39750Y-19178D01*
X40921Y-19692D02*
X40778Y-19792D01*
X40921Y-19864D02*
X40621Y-19864D01*
X40621Y-19750D01*
X40635Y-19721D01*
X40650Y-19707D01*
X40678Y-19692D01*
X40721Y-19692D01*
X40750Y-19707D01*
X40764Y-19721D01*
X40778Y-19750D01*
X40778Y-19864D01*
X40621Y-19592D02*
X40621Y-19407D01*
X40735Y-19507D01*
X40735Y-19464D01*
X40750Y-19435D01*
X40764Y-19421D01*
X40792Y-19407D01*
X40864Y-19407D01*
X40892Y-19421D01*
X40907Y-19435D01*
X40921Y-19464D01*
X40921Y-19550D01*
X40907Y-19578D01*
X40892Y-19592D01*
X40921Y-19264D02*
X40921Y-19207D01*
X40907Y-19178D01*
X40892Y-19164D01*
X40850Y-19135D01*
X40792Y-19121D01*
X40678Y-19121D01*
X40650Y-19135D01*
X40635Y-19150D01*
X40621Y-19178D01*
X40621Y-19235D01*
X40635Y-19264D01*
X40650Y-19278D01*
X40678Y-19292D01*
X40750Y-19292D01*
X40778Y-19278D01*
X40792Y-19264D01*
X40807Y-19235D01*
X40807Y-19178D01*
X40792Y-19150D01*
X40778Y-19135D01*
X40750Y-19121D01*
X44707Y-15921D02*
X44607Y-15778D01*
X44535Y-15921D02*
X44535Y-15621D01*
X44650Y-15621D01*
X44678Y-15635D01*
X44692Y-15650D01*
X44707Y-15678D01*
X44707Y-15721D01*
X44692Y-15750D01*
X44678Y-15764D01*
X44650Y-15778D01*
X44535Y-15778D01*
X44964Y-15721D02*
X44964Y-15921D01*
X44892Y-15607D02*
X44821Y-15821D01*
X45007Y-15821D01*
X45178Y-15621D02*
X45207Y-15621D01*
X45235Y-15635D01*
X45250Y-15650D01*
X45264Y-15678D01*
X45278Y-15735D01*
X45278Y-15807D01*
X45264Y-15864D01*
X45250Y-15892D01*
X45235Y-15907D01*
X45207Y-15921D01*
X45178Y-15921D01*
X45150Y-15907D01*
X45135Y-15892D01*
X45121Y-15864D01*
X45107Y-15807D01*
X45107Y-15735D01*
X45121Y-15678D01*
X45135Y-15650D01*
X45150Y-15635D01*
X45178Y-15621D01*
X43907Y-18021D02*
X43807Y-17878D01*
X43735Y-18021D02*
X43735Y-17721D01*
X43850Y-17721D01*
X43878Y-17735D01*
X43892Y-17750D01*
X43907Y-17778D01*
X43907Y-17821D01*
X43892Y-17850D01*
X43878Y-17864D01*
X43850Y-17878D01*
X43735Y-17878D01*
X44164Y-17821D02*
X44164Y-18021D01*
X44092Y-17707D02*
X44021Y-17921D01*
X44207Y-17921D01*
X44478Y-18021D02*
X44307Y-18021D01*
X44392Y-18021D02*
X44392Y-17721D01*
X44364Y-17764D01*
X44335Y-17792D01*
X44307Y-17807D01*
X17721Y-24492D02*
X17578Y-24592D01*
X17721Y-24664D02*
X17421Y-24664D01*
X17421Y-24550D01*
X17435Y-24521D01*
X17450Y-24507D01*
X17478Y-24492D01*
X17521Y-24492D01*
X17550Y-24507D01*
X17564Y-24521D01*
X17578Y-24550D01*
X17578Y-24664D01*
X17521Y-24235D02*
X17721Y-24235D01*
X17407Y-24307D02*
X17621Y-24378D01*
X17621Y-24192D01*
X17450Y-24092D02*
X17435Y-24078D01*
X17421Y-24050D01*
X17421Y-23978D01*
X17435Y-23950D01*
X17450Y-23935D01*
X17478Y-23921D01*
X17507Y-23921D01*
X17550Y-23935D01*
X17721Y-24107D01*
X17721Y-23921D01*
X22371Y-23792D02*
X22228Y-23892D01*
X22371Y-23964D02*
X22071Y-23964D01*
X22071Y-23850D01*
X22085Y-23821D01*
X22100Y-23807D01*
X22128Y-23792D01*
X22171Y-23792D01*
X22200Y-23807D01*
X22214Y-23821D01*
X22228Y-23850D01*
X22228Y-23964D01*
X22171Y-23535D02*
X22371Y-23535D01*
X22057Y-23607D02*
X22271Y-23678D01*
X22271Y-23492D01*
X22071Y-23407D02*
X22071Y-23221D01*
X22185Y-23321D01*
X22185Y-23278D01*
X22200Y-23250D01*
X22214Y-23235D01*
X22242Y-23221D01*
X22314Y-23221D01*
X22342Y-23235D01*
X22357Y-23250D01*
X22371Y-23278D01*
X22371Y-23364D01*
X22357Y-23392D01*
X22342Y-23407D01*
X26121Y-25192D02*
X25978Y-25292D01*
X26121Y-25364D02*
X25821Y-25364D01*
X25821Y-25250D01*
X25835Y-25221D01*
X25850Y-25207D01*
X25878Y-25192D01*
X25921Y-25192D01*
X25950Y-25207D01*
X25964Y-25221D01*
X25978Y-25250D01*
X25978Y-25364D01*
X25921Y-24935D02*
X26121Y-24935D01*
X25807Y-25007D02*
X26021Y-25078D01*
X26021Y-24892D01*
X25921Y-24650D02*
X26121Y-24650D01*
X25807Y-24721D02*
X26021Y-24792D01*
X26021Y-24607D01*
X29321Y-25192D02*
X29178Y-25292D01*
X29321Y-25364D02*
X29021Y-25364D01*
X29021Y-25250D01*
X29035Y-25221D01*
X29050Y-25207D01*
X29078Y-25192D01*
X29121Y-25192D01*
X29150Y-25207D01*
X29164Y-25221D01*
X29178Y-25250D01*
X29178Y-25364D01*
X29121Y-24935D02*
X29321Y-24935D01*
X29007Y-25007D02*
X29221Y-25078D01*
X29221Y-24892D01*
X29021Y-24635D02*
X29021Y-24778D01*
X29164Y-24792D01*
X29150Y-24778D01*
X29135Y-24750D01*
X29135Y-24678D01*
X29150Y-24650D01*
X29164Y-24635D01*
X29192Y-24621D01*
X29264Y-24621D01*
X29292Y-24635D01*
X29307Y-24650D01*
X29321Y-24678D01*
X29321Y-24750D01*
X29307Y-24778D01*
X29292Y-24792D01*
X32721Y-24892D02*
X32578Y-24992D01*
X32721Y-25064D02*
X32421Y-25064D01*
X32421Y-24950D01*
X32435Y-24921D01*
X32450Y-24907D01*
X32478Y-24892D01*
X32521Y-24892D01*
X32550Y-24907D01*
X32564Y-24921D01*
X32578Y-24950D01*
X32578Y-25064D01*
X32521Y-24635D02*
X32721Y-24635D01*
X32407Y-24707D02*
X32621Y-24778D01*
X32621Y-24592D01*
X32421Y-24350D02*
X32421Y-24407D01*
X32435Y-24435D01*
X32450Y-24450D01*
X32492Y-24478D01*
X32550Y-24492D01*
X32664Y-24492D01*
X32692Y-24478D01*
X32707Y-24464D01*
X32721Y-24435D01*
X32721Y-24378D01*
X32707Y-24350D01*
X32692Y-24335D01*
X32664Y-24321D01*
X32592Y-24321D01*
X32564Y-24335D01*
X32550Y-24350D01*
X32535Y-24378D01*
X32535Y-24435D01*
X32550Y-24464D01*
X32564Y-24478D01*
X32592Y-24492D01*
X35721Y-24892D02*
X35578Y-24992D01*
X35721Y-25064D02*
X35421Y-25064D01*
X35421Y-24950D01*
X35435Y-24921D01*
X35450Y-24907D01*
X35478Y-24892D01*
X35521Y-24892D01*
X35550Y-24907D01*
X35564Y-24921D01*
X35578Y-24950D01*
X35578Y-25064D01*
X35521Y-24635D02*
X35721Y-24635D01*
X35407Y-24707D02*
X35621Y-24778D01*
X35621Y-24592D01*
X35421Y-24507D02*
X35421Y-24307D01*
X35721Y-24435D01*
X38521Y-24792D02*
X38378Y-24892D01*
X38521Y-24964D02*
X38221Y-24964D01*
X38221Y-24850D01*
X38235Y-24821D01*
X38250Y-24807D01*
X38278Y-24792D01*
X38321Y-24792D01*
X38350Y-24807D01*
X38364Y-24821D01*
X38378Y-24850D01*
X38378Y-24964D01*
X38321Y-24535D02*
X38521Y-24535D01*
X38207Y-24607D02*
X38421Y-24678D01*
X38421Y-24492D01*
X38350Y-24335D02*
X38335Y-24364D01*
X38321Y-24378D01*
X38292Y-24392D01*
X38278Y-24392D01*
X38250Y-24378D01*
X38235Y-24364D01*
X38221Y-24335D01*
X38221Y-24278D01*
X38235Y-24250D01*
X38250Y-24235D01*
X38278Y-24221D01*
X38292Y-24221D01*
X38321Y-24235D01*
X38335Y-24250D01*
X38350Y-24278D01*
X38350Y-24335D01*
X38364Y-24364D01*
X38378Y-24378D01*
X38407Y-24392D01*
X38464Y-24392D01*
X38492Y-24378D01*
X38507Y-24364D01*
X38521Y-24335D01*
X38521Y-24278D01*
X38507Y-24250D01*
X38492Y-24235D01*
X38464Y-24221D01*
X38407Y-24221D01*
X38378Y-24235D01*
X38364Y-24250D01*
X38350Y-24278D01*
X41989Y-22407D02*
X42003Y-22364D01*
X42018Y-22350D01*
X42046Y-22335D01*
X42089Y-22335D01*
X42118Y-22350D01*
X42132Y-22364D01*
X42146Y-22392D01*
X42146Y-22507D01*
X41846Y-22507D01*
X41846Y-22407D01*
X41860Y-22378D01*
X41875Y-22364D01*
X41903Y-22350D01*
X41932Y-22350D01*
X41960Y-22364D01*
X41975Y-22378D01*
X41989Y-22407D01*
X41989Y-22507D01*
X41846Y-22150D02*
X41846Y-22092D01*
X41860Y-22064D01*
X41889Y-22035D01*
X41946Y-22021D01*
X42046Y-22021D01*
X42103Y-22035D01*
X42132Y-22064D01*
X42146Y-22092D01*
X42146Y-22150D01*
X42132Y-22178D01*
X42103Y-22207D01*
X42046Y-22221D01*
X41946Y-22221D01*
X41889Y-22207D01*
X41860Y-22178D01*
X41846Y-22150D01*
X41846Y-21835D02*
X41846Y-21778D01*
X41860Y-21749D01*
X41889Y-21721D01*
X41946Y-21707D01*
X42046Y-21707D01*
X42103Y-21721D01*
X42132Y-21749D01*
X42146Y-21778D01*
X42146Y-21835D01*
X42132Y-21864D01*
X42103Y-21892D01*
X42046Y-21907D01*
X41946Y-21907D01*
X41889Y-21892D01*
X41860Y-21864D01*
X41846Y-21835D01*
X41846Y-21621D02*
X41846Y-21449D01*
X42146Y-21535D02*
X41846Y-21535D01*
X19371Y-19621D02*
X19371Y-19864D01*
X19385Y-19892D01*
X19400Y-19907D01*
X19428Y-19921D01*
X19485Y-19921D01*
X19514Y-19907D01*
X19528Y-19892D01*
X19542Y-19864D01*
X19542Y-19621D01*
X19842Y-19921D02*
X19671Y-19921D01*
X19757Y-19921D02*
X19757Y-19621D01*
X19728Y-19664D01*
X19700Y-19692D01*
X19671Y-19707D01*
X32371Y-27178D02*
X32614Y-27178D01*
X32642Y-27164D01*
X32657Y-27150D01*
X32671Y-27121D01*
X32671Y-27064D01*
X32657Y-27035D01*
X32642Y-27021D01*
X32614Y-27007D01*
X32371Y-27007D01*
X32371Y-26892D02*
X32371Y-26707D01*
X32485Y-26807D01*
X32485Y-26764D01*
X32500Y-26735D01*
X32514Y-26721D01*
X32542Y-26707D01*
X32614Y-26707D01*
X32642Y-26721D01*
X32657Y-26735D01*
X32671Y-26764D01*
X32671Y-26850D01*
X32657Y-26878D01*
X32642Y-26892D01*
X24171Y-22621D02*
X24171Y-22864D01*
X24185Y-22892D01*
X24200Y-22907D01*
X24228Y-22921D01*
X24285Y-22921D01*
X24314Y-22907D01*
X24328Y-22892D01*
X24342Y-22864D01*
X24342Y-22621D01*
X24614Y-22721D02*
X24614Y-22921D01*
X24542Y-22607D02*
X24471Y-22821D01*
X24657Y-22821D01*
X27371Y-22621D02*
X27371Y-22864D01*
X27385Y-22892D01*
X27400Y-22907D01*
X27428Y-22921D01*
X27485Y-22921D01*
X27514Y-22907D01*
X27528Y-22892D01*
X27542Y-22864D01*
X27542Y-22621D01*
X27814Y-22621D02*
X27757Y-22621D01*
X27728Y-22635D01*
X27714Y-22650D01*
X27685Y-22692D01*
X27671Y-22750D01*
X27671Y-22864D01*
X27685Y-22892D01*
X27700Y-22907D01*
X27728Y-22921D01*
X27785Y-22921D01*
X27814Y-22907D01*
X27828Y-22892D01*
X27842Y-22864D01*
X27842Y-22792D01*
X27828Y-22764D01*
X27814Y-22750D01*
X27785Y-22735D01*
X27728Y-22735D01*
X27700Y-22750D01*
X27685Y-22764D01*
X27671Y-22792D01*
X19271Y-17021D02*
X19271Y-17264D01*
X19285Y-17292D01*
X19300Y-17307D01*
X19328Y-17321D01*
X19385Y-17321D01*
X19414Y-17307D01*
X19428Y-17292D01*
X19442Y-17264D01*
X19442Y-17021D01*
X19557Y-17021D02*
X19757Y-17021D01*
X19628Y-17321D01*
X30571Y-22621D02*
X30571Y-22864D01*
X30585Y-22892D01*
X30600Y-22907D01*
X30628Y-22921D01*
X30685Y-22921D01*
X30714Y-22907D01*
X30728Y-22892D01*
X30742Y-22864D01*
X30742Y-22621D01*
X30928Y-22750D02*
X30900Y-22735D01*
X30885Y-22721D01*
X30871Y-22692D01*
X30871Y-22678D01*
X30885Y-22650D01*
X30900Y-22635D01*
X30928Y-22621D01*
X30985Y-22621D01*
X31014Y-22635D01*
X31028Y-22650D01*
X31042Y-22678D01*
X31042Y-22692D01*
X31028Y-22721D01*
X31014Y-22735D01*
X30985Y-22750D01*
X30928Y-22750D01*
X30900Y-22764D01*
X30885Y-22778D01*
X30871Y-22807D01*
X30871Y-22864D01*
X30885Y-22892D01*
X30900Y-22907D01*
X30928Y-22921D01*
X30985Y-22921D01*
X31014Y-22907D01*
X31028Y-22892D01*
X31042Y-22864D01*
X31042Y-22807D01*
X31028Y-22778D01*
X31014Y-22764D01*
X30985Y-22750D01*
X24871Y-17021D02*
X24871Y-17264D01*
X24885Y-17292D01*
X24900Y-17307D01*
X24928Y-17321D01*
X24985Y-17321D01*
X25014Y-17307D01*
X25028Y-17292D01*
X25042Y-17264D01*
X25042Y-17021D01*
X25200Y-17321D02*
X25257Y-17321D01*
X25285Y-17307D01*
X25300Y-17292D01*
X25328Y-17250D01*
X25342Y-17192D01*
X25342Y-17078D01*
X25328Y-17050D01*
X25314Y-17035D01*
X25285Y-17021D01*
X25228Y-17021D01*
X25200Y-17035D01*
X25185Y-17050D01*
X25171Y-17078D01*
X25171Y-17150D01*
X25185Y-17178D01*
X25200Y-17192D01*
X25228Y-17207D01*
X25285Y-17207D01*
X25314Y-17192D01*
X25328Y-17178D01*
X25342Y-17150D01*
X33628Y-22621D02*
X33628Y-22864D01*
X33642Y-22892D01*
X33657Y-22907D01*
X33685Y-22921D01*
X33742Y-22921D01*
X33771Y-22907D01*
X33785Y-22892D01*
X33800Y-22864D01*
X33800Y-22621D01*
X34100Y-22921D02*
X33928Y-22921D01*
X34014Y-22921D02*
X34014Y-22621D01*
X33985Y-22664D01*
X33957Y-22692D01*
X33928Y-22707D01*
X34285Y-22621D02*
X34314Y-22621D01*
X34342Y-22635D01*
X34357Y-22650D01*
X34371Y-22678D01*
X34385Y-22735D01*
X34385Y-22807D01*
X34371Y-22864D01*
X34357Y-22892D01*
X34342Y-22907D01*
X34314Y-22921D01*
X34285Y-22921D01*
X34257Y-22907D01*
X34242Y-22892D01*
X34228Y-22864D01*
X34214Y-22807D01*
X34214Y-22735D01*
X34228Y-22678D01*
X34242Y-22650D01*
X34257Y-22635D01*
X34285Y-22621D01*
X30328Y-17021D02*
X30328Y-17264D01*
X30342Y-17292D01*
X30357Y-17307D01*
X30385Y-17321D01*
X30442Y-17321D01*
X30471Y-17307D01*
X30485Y-17292D01*
X30500Y-17264D01*
X30500Y-17021D01*
X30800Y-17321D02*
X30628Y-17321D01*
X30714Y-17321D02*
X30714Y-17021D01*
X30685Y-17064D01*
X30657Y-17092D01*
X30628Y-17107D01*
X31085Y-17321D02*
X30914Y-17321D01*
X31000Y-17321D02*
X31000Y-17021D01*
X30971Y-17064D01*
X30942Y-17092D01*
X30914Y-17107D01*
X35928Y-17021D02*
X35928Y-17264D01*
X35942Y-17292D01*
X35957Y-17307D01*
X35985Y-17321D01*
X36042Y-17321D01*
X36071Y-17307D01*
X36085Y-17292D01*
X36100Y-17264D01*
X36100Y-17021D01*
X36400Y-17321D02*
X36228Y-17321D01*
X36314Y-17321D02*
X36314Y-17021D01*
X36285Y-17064D01*
X36257Y-17092D01*
X36228Y-17107D01*
X36500Y-17021D02*
X36685Y-17021D01*
X36585Y-17135D01*
X36628Y-17135D01*
X36657Y-17150D01*
X36671Y-17164D01*
X36685Y-17192D01*
X36685Y-17264D01*
X36671Y-17292D01*
X36657Y-17307D01*
X36628Y-17321D01*
X36542Y-17321D01*
X36514Y-17307D01*
X36500Y-17292D01*
X40028Y-22621D02*
X40028Y-22864D01*
X40042Y-22892D01*
X40057Y-22907D01*
X40085Y-22921D01*
X40142Y-22921D01*
X40171Y-22907D01*
X40185Y-22892D01*
X40200Y-22864D01*
X40200Y-22621D01*
X40500Y-22921D02*
X40328Y-22921D01*
X40414Y-22921D02*
X40414Y-22621D01*
X40385Y-22664D01*
X40357Y-22692D01*
X40328Y-22707D01*
X40757Y-22721D02*
X40757Y-22921D01*
X40685Y-22607D02*
X40614Y-22821D01*
X40800Y-22821D01*
X41528Y-17021D02*
X41528Y-17264D01*
X41542Y-17292D01*
X41557Y-17307D01*
X41585Y-17321D01*
X41642Y-17321D01*
X41671Y-17307D01*
X41685Y-17292D01*
X41700Y-17264D01*
X41700Y-17021D01*
X42000Y-17321D02*
X41828Y-17321D01*
X41914Y-17321D02*
X41914Y-17021D01*
X41885Y-17064D01*
X41857Y-17092D01*
X41828Y-17107D01*
X42271Y-17021D02*
X42128Y-17021D01*
X42114Y-17164D01*
X42128Y-17150D01*
X42157Y-17135D01*
X42228Y-17135D01*
X42257Y-17150D01*
X42271Y-17164D01*
X42285Y-17192D01*
X42285Y-17264D01*
X42271Y-17292D01*
X42257Y-17307D01*
X42228Y-17321D01*
X42157Y-17321D01*
X42128Y-17307D01*
X42114Y-17292D01*
X37471Y-25221D02*
X37471Y-25464D01*
X37485Y-25492D01*
X37500Y-25507D01*
X37528Y-25521D01*
X37585Y-25521D01*
X37614Y-25507D01*
X37628Y-25492D01*
X37642Y-25464D01*
X37642Y-25221D01*
X37771Y-25250D02*
X37785Y-25235D01*
X37814Y-25221D01*
X37885Y-25221D01*
X37914Y-25235D01*
X37928Y-25250D01*
X37942Y-25278D01*
X37942Y-25307D01*
X37928Y-25350D01*
X37757Y-25521D01*
X37942Y-25521D01*
X48621Y-21064D02*
X48321Y-21064D01*
X48321Y-20992D01*
X48335Y-20950D01*
X48364Y-20921D01*
X48392Y-20907D01*
X48450Y-20892D01*
X48492Y-20892D01*
X48550Y-20907D01*
X48578Y-20921D01*
X48607Y-20950D01*
X48621Y-20992D01*
X48621Y-21064D01*
X48621Y-20607D02*
X48621Y-20778D01*
X48621Y-20692D02*
X48321Y-20692D01*
X48364Y-20721D01*
X48392Y-20750D01*
X48407Y-20778D01*
X48321Y-20335D02*
X48321Y-20478D01*
X48464Y-20492D01*
X48450Y-20478D01*
X48435Y-20450D01*
X48435Y-20378D01*
X48450Y-20350D01*
X48464Y-20335D01*
X48492Y-20321D01*
X48564Y-20321D01*
X48592Y-20335D01*
X48607Y-20350D01*
X48621Y-20378D01*
X48621Y-20450D01*
X48607Y-20478D01*
X48592Y-20492D01*
X46921Y-21064D02*
X46621Y-21064D01*
X46621Y-20992D01*
X46635Y-20950D01*
X46664Y-20921D01*
X46692Y-20907D01*
X46750Y-20892D01*
X46792Y-20892D01*
X46850Y-20907D01*
X46878Y-20921D01*
X46907Y-20950D01*
X46921Y-20992D01*
X46921Y-21064D01*
X46921Y-20607D02*
X46921Y-20778D01*
X46921Y-20692D02*
X46621Y-20692D01*
X46664Y-20721D01*
X46692Y-20750D01*
X46707Y-20778D01*
X46621Y-20350D02*
X46621Y-20407D01*
X46635Y-20435D01*
X46650Y-20450D01*
X46692Y-20478D01*
X46750Y-20492D01*
X46864Y-20492D01*
X46892Y-20478D01*
X46907Y-20464D01*
X46921Y-20435D01*
X46921Y-20378D01*
X46907Y-20350D01*
X46892Y-20335D01*
X46864Y-20321D01*
X46792Y-20321D01*
X46764Y-20335D01*
X46750Y-20350D01*
X46735Y-20378D01*
X46735Y-20435D01*
X46750Y-20464D01*
X46764Y-20478D01*
X46792Y-20492D01*
X47721Y-20892D02*
X47578Y-20992D01*
X47721Y-21064D02*
X47421Y-21064D01*
X47421Y-20950D01*
X47435Y-20921D01*
X47450Y-20907D01*
X47478Y-20892D01*
X47521Y-20892D01*
X47550Y-20907D01*
X47564Y-20921D01*
X47578Y-20950D01*
X47578Y-21064D01*
X47521Y-20635D02*
X47721Y-20635D01*
X47407Y-20707D02*
X47621Y-20778D01*
X47621Y-20592D01*
X47721Y-20464D02*
X47721Y-20407D01*
X47707Y-20378D01*
X47692Y-20364D01*
X47650Y-20335D01*
X47592Y-20321D01*
X47478Y-20321D01*
X47450Y-20335D01*
X47435Y-20350D01*
X47421Y-20378D01*
X47421Y-20435D01*
X47435Y-20464D01*
X47450Y-20478D01*
X47478Y-20492D01*
X47550Y-20492D01*
X47578Y-20478D01*
X47592Y-20464D01*
X47607Y-20435D01*
X47607Y-20378D01*
X47592Y-20350D01*
X47578Y-20335D01*
X47550Y-20321D01*
X46021Y-20892D02*
X45878Y-20992D01*
X46021Y-21064D02*
X45721Y-21064D01*
X45721Y-20950D01*
X45735Y-20921D01*
X45750Y-20907D01*
X45778Y-20892D01*
X45821Y-20892D01*
X45850Y-20907D01*
X45864Y-20921D01*
X45878Y-20950D01*
X45878Y-21064D01*
X45721Y-20621D02*
X45721Y-20764D01*
X45864Y-20778D01*
X45850Y-20764D01*
X45835Y-20735D01*
X45835Y-20664D01*
X45850Y-20635D01*
X45864Y-20621D01*
X45892Y-20607D01*
X45964Y-20607D01*
X45992Y-20621D01*
X46007Y-20635D01*
X46021Y-20664D01*
X46021Y-20735D01*
X46007Y-20764D01*
X45992Y-20778D01*
X45721Y-20421D02*
X45721Y-20392D01*
X45735Y-20364D01*
X45750Y-20350D01*
X45778Y-20335D01*
X45835Y-20321D01*
X45907Y-20321D01*
X45964Y-20335D01*
X45992Y-20350D01*
X46007Y-20364D01*
X46021Y-20392D01*
X46021Y-20421D01*
X46007Y-20450D01*
X45992Y-20464D01*
X45964Y-20478D01*
X45907Y-20492D01*
X45835Y-20492D01*
X45778Y-20478D01*
X45750Y-20464D01*
X45735Y-20450D01*
X45721Y-20421D01*
X22392Y-21550D02*
X22407Y-21564D01*
X22421Y-21607D01*
X22421Y-21635D01*
X22407Y-21678D01*
X22378Y-21707D01*
X22350Y-21721D01*
X22292Y-21735D01*
X22250Y-21735D01*
X22192Y-21721D01*
X22164Y-21707D01*
X22135Y-21678D01*
X22121Y-21635D01*
X22121Y-21607D01*
X22135Y-21564D01*
X22150Y-21550D01*
X22121Y-21450D02*
X22121Y-21250D01*
X22421Y-21378D01*
X25592Y-21150D02*
X25607Y-21164D01*
X25621Y-21207D01*
X25621Y-21235D01*
X25607Y-21278D01*
X25578Y-21307D01*
X25550Y-21321D01*
X25492Y-21335D01*
X25450Y-21335D01*
X25392Y-21321D01*
X25364Y-21307D01*
X25335Y-21278D01*
X25321Y-21235D01*
X25321Y-21207D01*
X25335Y-21164D01*
X25350Y-21150D01*
X25450Y-20978D02*
X25435Y-21007D01*
X25421Y-21021D01*
X25392Y-21035D01*
X25378Y-21035D01*
X25350Y-21021D01*
X25335Y-21007D01*
X25321Y-20978D01*
X25321Y-20921D01*
X25335Y-20892D01*
X25350Y-20878D01*
X25378Y-20864D01*
X25392Y-20864D01*
X25421Y-20878D01*
X25435Y-20892D01*
X25450Y-20921D01*
X25450Y-20978D01*
X25464Y-21007D01*
X25478Y-21021D01*
X25507Y-21035D01*
X25564Y-21035D01*
X25592Y-21021D01*
X25607Y-21007D01*
X25621Y-20978D01*
X25621Y-20921D01*
X25607Y-20892D01*
X25592Y-20878D01*
X25564Y-20864D01*
X25507Y-20864D01*
X25478Y-20878D01*
X25464Y-20892D01*
X25450Y-20921D01*
X28792Y-21150D02*
X28807Y-21164D01*
X28821Y-21207D01*
X28821Y-21235D01*
X28807Y-21278D01*
X28778Y-21307D01*
X28750Y-21321D01*
X28692Y-21335D01*
X28650Y-21335D01*
X28592Y-21321D01*
X28564Y-21307D01*
X28535Y-21278D01*
X28521Y-21235D01*
X28521Y-21207D01*
X28535Y-21164D01*
X28550Y-21150D01*
X28821Y-21007D02*
X28821Y-20950D01*
X28807Y-20921D01*
X28792Y-20907D01*
X28750Y-20878D01*
X28692Y-20864D01*
X28578Y-20864D01*
X28550Y-20878D01*
X28535Y-20892D01*
X28521Y-20921D01*
X28521Y-20978D01*
X28535Y-21007D01*
X28550Y-21021D01*
X28578Y-21035D01*
X28650Y-21035D01*
X28678Y-21021D01*
X28692Y-21007D01*
X28707Y-20978D01*
X28707Y-20921D01*
X28692Y-20892D01*
X28678Y-20878D01*
X28650Y-20864D01*
X31992Y-21092D02*
X32007Y-21107D01*
X32021Y-21150D01*
X32021Y-21178D01*
X32007Y-21221D01*
X31978Y-21250D01*
X31950Y-21264D01*
X31892Y-21278D01*
X31850Y-21278D01*
X31792Y-21264D01*
X31764Y-21250D01*
X31735Y-21221D01*
X31721Y-21178D01*
X31721Y-21150D01*
X31735Y-21107D01*
X31750Y-21092D01*
X32021Y-20807D02*
X32021Y-20978D01*
X32021Y-20892D02*
X31721Y-20892D01*
X31764Y-20921D01*
X31792Y-20950D01*
X31807Y-20978D01*
X31721Y-20621D02*
X31721Y-20592D01*
X31735Y-20564D01*
X31750Y-20550D01*
X31778Y-20535D01*
X31835Y-20521D01*
X31907Y-20521D01*
X31964Y-20535D01*
X31992Y-20550D01*
X32007Y-20564D01*
X32021Y-20592D01*
X32021Y-20621D01*
X32007Y-20650D01*
X31992Y-20664D01*
X31964Y-20678D01*
X31907Y-20692D01*
X31835Y-20692D01*
X31778Y-20678D01*
X31750Y-20664D01*
X31735Y-20650D01*
X31721Y-20621D01*
X35192Y-21092D02*
X35207Y-21107D01*
X35221Y-21150D01*
X35221Y-21178D01*
X35207Y-21221D01*
X35178Y-21250D01*
X35150Y-21264D01*
X35092Y-21278D01*
X35050Y-21278D01*
X34992Y-21264D01*
X34964Y-21250D01*
X34935Y-21221D01*
X34921Y-21178D01*
X34921Y-21150D01*
X34935Y-21107D01*
X34950Y-21092D01*
X35221Y-20807D02*
X35221Y-20978D01*
X35221Y-20892D02*
X34921Y-20892D01*
X34964Y-20921D01*
X34992Y-20950D01*
X35007Y-20978D01*
X35221Y-20521D02*
X35221Y-20692D01*
X35221Y-20607D02*
X34921Y-20607D01*
X34964Y-20635D01*
X34992Y-20664D01*
X35007Y-20692D01*
X38392Y-21092D02*
X38407Y-21107D01*
X38421Y-21150D01*
X38421Y-21178D01*
X38407Y-21221D01*
X38378Y-21250D01*
X38350Y-21264D01*
X38292Y-21278D01*
X38250Y-21278D01*
X38192Y-21264D01*
X38164Y-21250D01*
X38135Y-21221D01*
X38121Y-21178D01*
X38121Y-21150D01*
X38135Y-21107D01*
X38150Y-21092D01*
X38421Y-20807D02*
X38421Y-20978D01*
X38421Y-20892D02*
X38121Y-20892D01*
X38164Y-20921D01*
X38192Y-20950D01*
X38207Y-20978D01*
X38150Y-20692D02*
X38135Y-20678D01*
X38121Y-20650D01*
X38121Y-20578D01*
X38135Y-20550D01*
X38150Y-20535D01*
X38178Y-20521D01*
X38207Y-20521D01*
X38250Y-20535D01*
X38421Y-20707D01*
X38421Y-20521D01*
M02*
