G04 (created by PCBNEW (25-Oct-2014 BZR 4029)-stable) date Wed 10 Jun 2015 01:49:49 AM EDT*
%MOIN*%
G04 Gerber Fmt 3.4, Leading zero omitted, Abs format*
%FSLAX34Y34*%
G01*
G70*
G90*
G04 APERTURE LIST*
%ADD10C,0.00590551*%
%ADD11C,0.125984*%
%ADD12C,0.0708661*%
%ADD13R,0.07X0.07*%
%ADD14C,0.07*%
%ADD15R,0.0236X0.0551*%
%ADD16R,0.0197X0.0906*%
%ADD17R,0.0787X0.0984*%
%ADD18C,0.0354*%
%ADD19C,0.15*%
%ADD20R,0.045X0.025*%
%ADD21R,0.0315X0.0394*%
%ADD22R,0.144X0.08*%
%ADD23R,0.04X0.08*%
%ADD24R,0.055X0.035*%
%ADD25R,0.025X0.045*%
%ADD26R,0.1378X0.1378*%
%ADD27C,0.055*%
%ADD28R,0.0551181X0.0826772*%
%ADD29R,0.045X0.02*%
%ADD30R,0.0334646X0.0212598*%
%ADD31R,0.0212598X0.0334646*%
%ADD32R,0.055X0.055*%
G04 APERTURE END LIST*
G54D10*
G54D11*
X17700Y-11200D03*
X13700Y-11200D03*
G54D12*
X16450Y-13700D03*
X15950Y-14700D03*
X15450Y-13700D03*
X14950Y-14700D03*
G54D13*
X20200Y-26000D03*
G54D14*
X20200Y-28000D03*
G54D15*
X36450Y-21750D03*
X36450Y-23850D03*
X36950Y-21750D03*
X37450Y-21750D03*
X37950Y-21750D03*
X36950Y-23850D03*
X37450Y-23850D03*
X37950Y-23850D03*
G54D16*
X44370Y-26442D03*
X44685Y-26442D03*
X45000Y-26442D03*
X45315Y-26442D03*
X45630Y-26442D03*
G54D17*
X43248Y-26481D03*
X43248Y-28646D03*
X46752Y-26481D03*
X46752Y-28646D03*
G54D18*
X44134Y-27465D03*
X45866Y-27465D03*
G54D19*
X11400Y-28400D03*
X11400Y-26400D03*
X11400Y-22400D03*
X11400Y-20400D03*
G54D20*
X48400Y-24006D03*
X48400Y-24793D03*
X46800Y-24006D03*
X46800Y-24793D03*
X47600Y-24793D03*
X47600Y-24006D03*
X46000Y-24006D03*
X46000Y-24793D03*
G54D21*
X13900Y-16633D03*
X13525Y-15767D03*
X14275Y-15767D03*
G54D22*
X14600Y-20700D03*
G54D23*
X14600Y-23300D03*
X15500Y-23300D03*
X13700Y-23300D03*
G54D20*
X17600Y-21593D03*
X17600Y-20806D03*
G54D24*
X21600Y-20707D03*
X21600Y-21692D03*
X21600Y-23492D03*
X21600Y-22507D03*
G54D25*
X35906Y-29000D03*
X36693Y-29000D03*
G54D20*
X42000Y-27606D03*
X42000Y-28393D03*
G54D26*
X14800Y-25359D03*
X14800Y-27721D03*
X16650Y-26540D03*
G54D20*
X17100Y-17393D03*
X17100Y-16606D03*
X15100Y-17393D03*
X15100Y-16606D03*
X22700Y-17393D03*
X22700Y-16606D03*
X20700Y-17393D03*
X20700Y-16606D03*
X28300Y-17393D03*
X28300Y-16606D03*
X26300Y-17393D03*
X26300Y-16606D03*
X33900Y-17393D03*
X33900Y-16606D03*
X31900Y-17393D03*
X31900Y-16606D03*
X39500Y-17393D03*
X39500Y-16606D03*
X37500Y-17393D03*
X37500Y-16606D03*
X45100Y-17393D03*
X45100Y-16606D03*
X43100Y-17393D03*
X43100Y-16606D03*
G54D11*
X23300Y-11200D03*
X19300Y-11200D03*
G54D12*
X22050Y-13700D03*
X21550Y-14700D03*
X21050Y-13700D03*
X20550Y-14700D03*
G54D11*
X28900Y-11200D03*
X24900Y-11200D03*
G54D12*
X27650Y-13700D03*
X27150Y-14700D03*
X26650Y-13700D03*
X26150Y-14700D03*
G54D11*
X34500Y-11200D03*
X30500Y-11200D03*
G54D12*
X33250Y-13700D03*
X32750Y-14700D03*
X32250Y-13700D03*
X31750Y-14700D03*
G54D11*
X40100Y-11200D03*
X36100Y-11200D03*
G54D12*
X38850Y-13700D03*
X38350Y-14700D03*
X37850Y-13700D03*
X37350Y-14700D03*
G54D11*
X45700Y-11200D03*
X41700Y-11200D03*
G54D12*
X44450Y-13700D03*
X43950Y-14700D03*
X43450Y-13700D03*
X42950Y-14700D03*
G54D20*
X16600Y-21593D03*
X16600Y-20806D03*
X16600Y-23593D03*
X16600Y-22806D03*
G54D25*
X43993Y-24800D03*
X43206Y-24800D03*
G54D20*
X18100Y-17393D03*
X18100Y-16606D03*
X22800Y-20206D03*
X22800Y-20993D03*
X23800Y-20993D03*
X23800Y-20206D03*
X24800Y-20206D03*
X24800Y-20993D03*
G54D27*
X17900Y-15800D03*
X15900Y-15800D03*
G54D20*
X16100Y-16606D03*
X16100Y-17393D03*
X23700Y-17393D03*
X23700Y-16606D03*
X26000Y-20206D03*
X26000Y-20993D03*
X27000Y-20993D03*
X27000Y-20206D03*
X28000Y-20206D03*
X28000Y-20993D03*
G54D27*
X23500Y-15800D03*
X21500Y-15800D03*
G54D20*
X21700Y-16606D03*
X21700Y-17393D03*
X29300Y-17393D03*
X29300Y-16606D03*
X29200Y-20206D03*
X29200Y-20993D03*
X30200Y-20993D03*
X30200Y-20206D03*
X31200Y-20206D03*
X31200Y-20993D03*
G54D27*
X29100Y-15800D03*
X27100Y-15800D03*
G54D20*
X27300Y-16606D03*
X27300Y-17393D03*
X34900Y-17393D03*
X34900Y-16606D03*
X32400Y-20206D03*
X32400Y-20993D03*
X33400Y-20993D03*
X33400Y-20206D03*
X34400Y-20206D03*
X34400Y-20993D03*
G54D27*
X34700Y-15800D03*
X32700Y-15800D03*
G54D20*
X32900Y-16606D03*
X32900Y-17393D03*
X40500Y-17393D03*
X40500Y-16606D03*
X35600Y-20206D03*
X35600Y-20993D03*
X36600Y-20993D03*
X36600Y-20206D03*
X37600Y-20206D03*
X37600Y-20993D03*
G54D27*
X40300Y-15800D03*
X38300Y-15800D03*
G54D20*
X38500Y-16606D03*
X38500Y-17393D03*
X46100Y-17393D03*
X46100Y-16606D03*
X38800Y-20206D03*
X38800Y-20993D03*
X39800Y-20993D03*
X39800Y-20206D03*
X40800Y-20206D03*
X40800Y-20993D03*
G54D27*
X45900Y-15800D03*
X43900Y-15800D03*
G54D20*
X44100Y-16606D03*
X44100Y-17393D03*
X17600Y-23593D03*
X17600Y-22806D03*
X22800Y-23206D03*
X22800Y-23993D03*
X26000Y-23206D03*
X26000Y-23993D03*
X29200Y-23206D03*
X29200Y-23993D03*
X32400Y-23206D03*
X32400Y-23993D03*
X35600Y-23206D03*
X35600Y-23993D03*
X38800Y-23206D03*
X38800Y-23993D03*
G54D28*
X44485Y-20208D03*
X44485Y-23791D03*
X42714Y-20208D03*
X42714Y-23791D03*
G54D22*
X19600Y-20700D03*
G54D23*
X19600Y-23300D03*
X20500Y-23300D03*
X18700Y-23300D03*
G54D29*
X33100Y-25500D03*
X33100Y-26000D03*
X33100Y-26500D03*
X33100Y-27000D03*
X33100Y-27500D03*
X33100Y-28000D03*
X33100Y-28500D03*
X35200Y-28500D03*
X35200Y-28000D03*
X35200Y-27500D03*
X35200Y-27000D03*
X35200Y-26500D03*
X35200Y-26000D03*
X35200Y-25500D03*
G54D15*
X23650Y-21750D03*
X23650Y-23850D03*
X24150Y-21750D03*
X24650Y-21750D03*
X25150Y-21750D03*
X24150Y-23850D03*
X24650Y-23850D03*
X25150Y-23850D03*
X26850Y-21750D03*
X26850Y-23850D03*
X27350Y-21750D03*
X27850Y-21750D03*
X28350Y-21750D03*
X27350Y-23850D03*
X27850Y-23850D03*
X28350Y-23850D03*
G54D21*
X19500Y-16633D03*
X19125Y-15767D03*
X19875Y-15767D03*
G54D15*
X30050Y-21750D03*
X30050Y-23850D03*
X30550Y-21750D03*
X31050Y-21750D03*
X31550Y-21750D03*
X30550Y-23850D03*
X31050Y-23850D03*
X31550Y-23850D03*
G54D21*
X25100Y-16633D03*
X24725Y-15767D03*
X25475Y-15767D03*
G54D15*
X33250Y-21750D03*
X33250Y-23850D03*
X33750Y-21750D03*
X34250Y-21750D03*
X34750Y-21750D03*
X33750Y-23850D03*
X34250Y-23850D03*
X34750Y-23850D03*
G54D21*
X30700Y-16633D03*
X30325Y-15767D03*
X31075Y-15767D03*
X36300Y-16633D03*
X35925Y-15767D03*
X36675Y-15767D03*
G54D15*
X39650Y-21750D03*
X39650Y-23850D03*
X40150Y-21750D03*
X40650Y-21750D03*
X41150Y-21750D03*
X40150Y-23850D03*
X40650Y-23850D03*
X41150Y-23850D03*
G54D21*
X41900Y-16633D03*
X41525Y-15767D03*
X42275Y-15767D03*
G54D30*
X37716Y-28102D03*
X37716Y-27787D03*
X37716Y-27472D03*
X37716Y-27157D03*
X37716Y-26842D03*
X37716Y-26527D03*
X37716Y-26212D03*
X37716Y-25897D03*
X37716Y-25897D03*
X37716Y-26212D03*
X37716Y-26527D03*
X37716Y-26842D03*
X37716Y-27157D03*
X37716Y-27472D03*
X37716Y-27787D03*
X37716Y-28102D03*
X37716Y-28102D03*
X37716Y-27787D03*
X37716Y-27472D03*
X37716Y-27157D03*
X37716Y-26842D03*
X37716Y-26527D03*
X37716Y-26212D03*
X37716Y-25897D03*
X37716Y-25897D03*
X37716Y-26212D03*
X37716Y-26527D03*
X37716Y-26842D03*
X37716Y-27157D03*
X37716Y-27472D03*
X37716Y-27787D03*
X37716Y-28102D03*
G54D31*
X38297Y-28683D03*
X38612Y-28683D03*
X38927Y-28683D03*
X39242Y-28683D03*
X39557Y-28683D03*
X39872Y-28683D03*
X40187Y-28683D03*
X40502Y-28683D03*
G54D30*
X41083Y-28102D03*
X41083Y-27787D03*
X41083Y-27472D03*
X41083Y-27157D03*
X41083Y-26842D03*
X41083Y-26527D03*
X41083Y-26212D03*
X41083Y-25897D03*
G54D31*
X40502Y-25316D03*
X40187Y-25316D03*
X39872Y-25316D03*
X39557Y-25316D03*
X39242Y-25316D03*
X38927Y-25316D03*
X38612Y-25316D03*
X38297Y-25316D03*
G54D20*
X48450Y-19206D03*
X48450Y-19993D03*
X46750Y-19206D03*
X46750Y-19993D03*
X47600Y-19206D03*
X47600Y-19993D03*
X45900Y-19206D03*
X45900Y-19993D03*
X22800Y-22493D03*
X22800Y-21706D03*
X26000Y-22493D03*
X26000Y-21706D03*
X29200Y-22493D03*
X29200Y-21706D03*
X32400Y-22493D03*
X32400Y-21706D03*
X35600Y-22493D03*
X35600Y-21706D03*
X38800Y-22493D03*
X38800Y-21706D03*
G54D32*
X48200Y-28700D03*
G54D27*
X48200Y-27700D03*
X48200Y-26700D03*
X48200Y-25700D03*
M02*
