G04 (created by PCBNEW (2013-mar-13)-testing) date Wed 10 Jun 2015 12:09:16 AM EDT*
%MOIN*%
G04 Gerber Fmt 3.4, Leading zero omitted, Abs format*
%FSLAX34Y34*%
G01*
G70*
G90*
G04 APERTURE LIST*
%ADD10C,0.005906*%
%ADD11C,0.007874*%
%ADD12C,0.011811*%
%ADD13C,0.023622*%
%ADD14C,0.005118*%
%ADD15C,0.062992*%
%ADD16C,0.003900*%
%ADD17C,0.005000*%
%ADD18C,0.012000*%
%ADD19C,0.004700*%
G04 APERTURE END LIST*
G54D10*
G54D11*
X76054Y-77245D02*
X76054Y-77113D01*
X76260Y-77057D02*
X76260Y-77245D01*
X75867Y-77245D01*
X75867Y-77057D01*
X76260Y-76888D02*
X75998Y-76888D01*
X76073Y-76888D02*
X76035Y-76870D01*
X76017Y-76851D01*
X75998Y-76813D01*
X75998Y-76776D01*
X76260Y-76645D02*
X75998Y-76645D01*
X75867Y-76645D02*
X75885Y-76663D01*
X75904Y-76645D01*
X75885Y-76626D01*
X75867Y-76645D01*
X75904Y-76645D01*
X76242Y-76288D02*
X76260Y-76326D01*
X76260Y-76401D01*
X76242Y-76438D01*
X76223Y-76457D01*
X76185Y-76476D01*
X76073Y-76476D01*
X76035Y-76457D01*
X76017Y-76438D01*
X75998Y-76401D01*
X75998Y-76326D01*
X76017Y-76288D01*
X75867Y-75876D02*
X76260Y-75745D01*
X75867Y-75613D01*
X76260Y-75314D02*
X76054Y-75314D01*
X76017Y-75332D01*
X75998Y-75370D01*
X75998Y-75445D01*
X76017Y-75482D01*
X76242Y-75314D02*
X76260Y-75351D01*
X76260Y-75445D01*
X76242Y-75482D01*
X76204Y-75501D01*
X76167Y-75501D01*
X76129Y-75482D01*
X76110Y-75445D01*
X76110Y-75351D01*
X76092Y-75314D01*
X75998Y-75126D02*
X76260Y-75126D01*
X76035Y-75126D02*
X76017Y-75107D01*
X75998Y-75070D01*
X75998Y-75014D01*
X76017Y-74976D01*
X76054Y-74957D01*
X76260Y-74957D01*
X76148Y-74489D02*
X76148Y-74301D01*
X76260Y-74526D02*
X75867Y-74395D01*
X76260Y-74264D01*
X76260Y-74076D02*
X76242Y-74114D01*
X76204Y-74132D01*
X75867Y-74132D01*
X76260Y-73926D02*
X75867Y-73926D01*
X76017Y-73926D02*
X75998Y-73889D01*
X75998Y-73814D01*
X76017Y-73776D01*
X76035Y-73757D01*
X76073Y-73739D01*
X76185Y-73739D01*
X76223Y-73757D01*
X76242Y-73776D01*
X76260Y-73814D01*
X76260Y-73889D01*
X76242Y-73926D01*
X76242Y-73420D02*
X76260Y-73458D01*
X76260Y-73532D01*
X76242Y-73570D01*
X76204Y-73589D01*
X76054Y-73589D01*
X76017Y-73570D01*
X75998Y-73532D01*
X75998Y-73458D01*
X76017Y-73420D01*
X76054Y-73401D01*
X76092Y-73401D01*
X76129Y-73589D01*
X76260Y-73233D02*
X75998Y-73233D01*
X76073Y-73233D02*
X76035Y-73214D01*
X76017Y-73195D01*
X75998Y-73158D01*
X75998Y-73120D01*
X75998Y-73045D02*
X75998Y-72895D01*
X75867Y-72989D02*
X76204Y-72989D01*
X76242Y-72970D01*
X76260Y-72933D01*
X76260Y-72895D01*
X76497Y-76776D02*
X76497Y-76513D01*
X76890Y-76776D01*
X76890Y-76513D01*
X76890Y-76195D02*
X76684Y-76195D01*
X76646Y-76213D01*
X76628Y-76251D01*
X76628Y-76326D01*
X76646Y-76363D01*
X76871Y-76195D02*
X76890Y-76232D01*
X76890Y-76326D01*
X76871Y-76363D01*
X76834Y-76382D01*
X76796Y-76382D01*
X76759Y-76363D01*
X76740Y-76326D01*
X76740Y-76232D01*
X76721Y-76195D01*
X76871Y-75838D02*
X76890Y-75876D01*
X76890Y-75951D01*
X76871Y-75988D01*
X76853Y-76007D01*
X76815Y-76026D01*
X76703Y-76026D01*
X76665Y-76007D01*
X76646Y-75988D01*
X76628Y-75951D01*
X76628Y-75876D01*
X76646Y-75838D01*
X76890Y-75670D02*
X76497Y-75670D01*
X76890Y-75501D02*
X76684Y-75501D01*
X76646Y-75520D01*
X76628Y-75557D01*
X76628Y-75613D01*
X76646Y-75651D01*
X76665Y-75670D01*
X76684Y-74882D02*
X76703Y-74826D01*
X76721Y-74807D01*
X76759Y-74789D01*
X76815Y-74789D01*
X76853Y-74807D01*
X76871Y-74826D01*
X76890Y-74864D01*
X76890Y-75014D01*
X76497Y-75014D01*
X76497Y-74882D01*
X76515Y-74845D01*
X76534Y-74826D01*
X76571Y-74807D01*
X76609Y-74807D01*
X76646Y-74826D01*
X76665Y-74845D01*
X76684Y-74882D01*
X76684Y-75014D01*
X76890Y-74451D02*
X76684Y-74451D01*
X76646Y-74470D01*
X76628Y-74507D01*
X76628Y-74582D01*
X76646Y-74620D01*
X76871Y-74451D02*
X76890Y-74489D01*
X76890Y-74582D01*
X76871Y-74620D01*
X76834Y-74639D01*
X76796Y-74639D01*
X76759Y-74620D01*
X76740Y-74582D01*
X76740Y-74489D01*
X76721Y-74451D01*
X76628Y-74264D02*
X76890Y-74264D01*
X76665Y-74264D02*
X76646Y-74245D01*
X76628Y-74207D01*
X76628Y-74151D01*
X76646Y-74114D01*
X76684Y-74095D01*
X76890Y-74095D01*
X76890Y-73907D02*
X76497Y-73907D01*
X76740Y-73870D02*
X76890Y-73757D01*
X76628Y-73757D02*
X76778Y-73907D01*
X76871Y-73607D02*
X76890Y-73570D01*
X76890Y-73495D01*
X76871Y-73458D01*
X76834Y-73439D01*
X76815Y-73439D01*
X76778Y-73458D01*
X76759Y-73495D01*
X76759Y-73551D01*
X76740Y-73589D01*
X76703Y-73607D01*
X76684Y-73607D01*
X76646Y-73589D01*
X76628Y-73551D01*
X76628Y-73495D01*
X76646Y-73458D01*
G54D12*
X61389Y-75407D02*
X61389Y-75688D01*
X60798Y-75688D01*
X60798Y-75210D02*
X61276Y-75210D01*
X61332Y-75182D01*
X61361Y-75154D01*
X61389Y-75098D01*
X61389Y-74985D01*
X61361Y-74929D01*
X61332Y-74901D01*
X61276Y-74873D01*
X60798Y-74873D01*
X60798Y-74648D02*
X61389Y-74254D01*
X60798Y-74254D02*
X61389Y-74648D01*
X62334Y-76588D02*
X62334Y-76870D01*
X61743Y-76870D01*
X62024Y-76392D02*
X62024Y-76195D01*
X62334Y-76110D02*
X62334Y-76392D01*
X61743Y-76392D01*
X61743Y-76110D01*
X62334Y-75857D02*
X61743Y-75857D01*
X61743Y-75717D01*
X61771Y-75632D01*
X61827Y-75576D01*
X61884Y-75548D01*
X61996Y-75520D01*
X62080Y-75520D01*
X62193Y-75548D01*
X62249Y-75576D01*
X62305Y-75632D01*
X62334Y-75717D01*
X62334Y-75857D01*
X62305Y-74845D02*
X62334Y-74760D01*
X62334Y-74620D01*
X62305Y-74564D01*
X62277Y-74535D01*
X62221Y-74507D01*
X62165Y-74507D01*
X62109Y-74535D01*
X62080Y-74564D01*
X62052Y-74620D01*
X62024Y-74732D01*
X61996Y-74789D01*
X61968Y-74817D01*
X61912Y-74845D01*
X61856Y-74845D01*
X61799Y-74817D01*
X61771Y-74789D01*
X61743Y-74732D01*
X61743Y-74592D01*
X61771Y-74507D01*
X61940Y-74254D02*
X62530Y-74254D01*
X61968Y-74254D02*
X61940Y-74198D01*
X61940Y-74086D01*
X61968Y-74029D01*
X61996Y-74001D01*
X62052Y-73973D01*
X62221Y-73973D01*
X62277Y-74001D01*
X62305Y-74029D01*
X62334Y-74086D01*
X62334Y-74198D01*
X62305Y-74254D01*
X62334Y-73636D02*
X62305Y-73692D01*
X62277Y-73720D01*
X62221Y-73748D01*
X62052Y-73748D01*
X61996Y-73720D01*
X61968Y-73692D01*
X61940Y-73636D01*
X61940Y-73551D01*
X61968Y-73495D01*
X61996Y-73467D01*
X62052Y-73439D01*
X62221Y-73439D01*
X62277Y-73467D01*
X62305Y-73495D01*
X62334Y-73551D01*
X62334Y-73636D01*
X61940Y-73270D02*
X61940Y-73045D01*
X61743Y-73186D02*
X62249Y-73186D01*
X62305Y-73158D01*
X62334Y-73101D01*
X62334Y-73045D01*
G54D13*
X59589Y-63667D02*
X60489Y-63667D01*
X60039Y-64116D02*
X60039Y-63217D01*
X77305Y-63667D02*
X78205Y-63667D01*
X77755Y-64116D02*
X77755Y-63217D01*
G54D14*
X74888Y-68639D02*
X74717Y-68639D01*
X74803Y-68639D02*
X74803Y-68339D01*
X74774Y-68382D01*
X74746Y-68411D01*
X74717Y-68425D01*
X75183Y-69412D02*
X75226Y-69427D01*
X75297Y-69427D01*
X75326Y-69412D01*
X75340Y-69398D01*
X75354Y-69369D01*
X75354Y-69341D01*
X75340Y-69312D01*
X75326Y-69298D01*
X75297Y-69284D01*
X75240Y-69269D01*
X75211Y-69255D01*
X75197Y-69241D01*
X75183Y-69212D01*
X75183Y-69184D01*
X75197Y-69155D01*
X75211Y-69141D01*
X75240Y-69127D01*
X75311Y-69127D01*
X75354Y-69141D01*
X75454Y-69127D02*
X75526Y-69427D01*
X75583Y-69212D01*
X75640Y-69427D01*
X75711Y-69127D01*
X75826Y-69427D02*
X75826Y-69127D01*
X75897Y-69127D01*
X75940Y-69141D01*
X75969Y-69169D01*
X75983Y-69198D01*
X75997Y-69255D01*
X75997Y-69298D01*
X75983Y-69355D01*
X75969Y-69384D01*
X75940Y-69412D01*
X75897Y-69427D01*
X75826Y-69427D01*
G54D10*
X72047Y-47637D02*
X72047Y-45669D01*
X72047Y-45669D02*
X65748Y-45669D01*
X72047Y-47637D02*
X65748Y-47637D01*
X65748Y-47637D02*
X65748Y-45669D01*
G54D15*
X71259Y-47047D02*
X71259Y-48425D01*
X68897Y-47047D02*
X68897Y-48425D01*
X66535Y-47047D02*
X66535Y-48425D01*
X66535Y-64173D02*
X66535Y-65551D01*
X68897Y-64173D02*
X68897Y-65551D01*
X71259Y-64173D02*
X71259Y-65551D01*
G54D10*
X64566Y-60629D02*
X73228Y-60629D01*
X73228Y-60629D02*
X73228Y-51968D01*
X73228Y-51968D02*
X64566Y-51968D01*
X64566Y-51968D02*
X64566Y-60629D01*
X77952Y-62204D02*
X77952Y-50393D01*
X77952Y-62204D02*
X75984Y-64173D01*
X61811Y-48425D02*
X75984Y-48425D01*
X59842Y-62204D02*
X59842Y-50393D01*
X75984Y-64173D02*
X61811Y-64173D01*
X61811Y-64173D02*
X59842Y-62204D01*
X77952Y-50393D02*
X75984Y-48425D01*
X59842Y-50393D02*
X61811Y-48425D01*
X77637Y-79527D02*
G75*
G03X77637Y-79527I-1259J0D01*
G74*
G01*
X62677Y-79527D02*
G75*
G03X62677Y-79527I-1259J0D01*
G74*
G01*
X78031Y-70866D02*
G75*
G03X78031Y-70866I-1259J0D01*
G74*
G01*
X62283Y-70866D02*
G75*
G03X62283Y-70866I-1259J0D01*
G74*
G01*
G54D16*
X73323Y-80221D02*
X72923Y-80221D01*
X72923Y-80221D02*
X72923Y-79621D01*
X72923Y-79621D02*
X73323Y-79621D01*
X73920Y-79621D02*
X74320Y-79621D01*
X74320Y-79621D02*
X74320Y-80221D01*
X74320Y-80221D02*
X73920Y-80221D01*
X74306Y-74701D02*
X74306Y-74301D01*
X74306Y-74301D02*
X74906Y-74301D01*
X74906Y-74301D02*
X74906Y-74701D01*
X74906Y-75298D02*
X74906Y-75698D01*
X74906Y-75698D02*
X74306Y-75698D01*
X74306Y-75698D02*
X74306Y-75298D01*
G54D17*
X71597Y-73372D02*
X72497Y-73372D01*
X72595Y-73372D02*
X72595Y-73872D01*
X72497Y-73872D02*
X71597Y-73872D01*
X71498Y-73872D02*
X71498Y-73372D01*
X67266Y-73372D02*
X68166Y-73372D01*
X68264Y-73372D02*
X68264Y-73872D01*
X68166Y-73872D02*
X67266Y-73872D01*
X67168Y-73872D02*
X67168Y-73372D01*
X62935Y-73372D02*
X63835Y-73372D01*
X63934Y-73372D02*
X63934Y-73872D01*
X63835Y-73872D02*
X62935Y-73872D01*
X62837Y-73872D02*
X62837Y-73372D01*
X64081Y-80127D02*
G75*
G03X64081Y-80127I-70J0D01*
G74*
G01*
X64660Y-78977D02*
X64060Y-78977D01*
X64060Y-78977D02*
X64060Y-80077D01*
X64060Y-80077D02*
X64660Y-80077D01*
X65260Y-80077D02*
X65860Y-80077D01*
X65860Y-80077D02*
X65860Y-78977D01*
X65860Y-78977D02*
X65260Y-78977D01*
X64960Y-75290D02*
X64960Y-75210D01*
X65710Y-74690D02*
X65710Y-76490D01*
X65710Y-76490D02*
X65460Y-76490D01*
X64210Y-75850D02*
X65710Y-75850D01*
X64210Y-75980D02*
X65710Y-75980D01*
X64460Y-74690D02*
X64210Y-74690D01*
X64210Y-74690D02*
X64210Y-76490D01*
X64210Y-76490D02*
X64460Y-76490D01*
X65460Y-74690D02*
X65710Y-74690D01*
X64960Y-75540D02*
X65147Y-75290D01*
X65147Y-75290D02*
X64960Y-75290D01*
X64960Y-75290D02*
X64773Y-75290D01*
X64773Y-75290D02*
X64960Y-75540D01*
X64960Y-75540D02*
X65085Y-75540D01*
X65085Y-75540D02*
X65147Y-75478D01*
X64960Y-75540D02*
X64835Y-75540D01*
X64835Y-75540D02*
X64773Y-75602D01*
X64960Y-75540D02*
X64960Y-75977D01*
X72834Y-75290D02*
X72834Y-75210D01*
X73584Y-74690D02*
X73584Y-76490D01*
X73584Y-76490D02*
X73334Y-76490D01*
X72084Y-75850D02*
X73584Y-75850D01*
X72084Y-75980D02*
X73584Y-75980D01*
X72334Y-74690D02*
X72084Y-74690D01*
X72084Y-74690D02*
X72084Y-76490D01*
X72084Y-76490D02*
X72334Y-76490D01*
X73334Y-74690D02*
X73584Y-74690D01*
X72834Y-75540D02*
X73021Y-75290D01*
X73021Y-75290D02*
X72834Y-75290D01*
X72834Y-75290D02*
X72647Y-75290D01*
X72647Y-75290D02*
X72834Y-75540D01*
X72834Y-75540D02*
X72959Y-75540D01*
X72959Y-75540D02*
X73021Y-75478D01*
X72834Y-75540D02*
X72709Y-75540D01*
X72709Y-75540D02*
X72647Y-75602D01*
X72834Y-75540D02*
X72834Y-75977D01*
G54D10*
X62165Y-68976D02*
X62165Y-68858D01*
X62165Y-68858D02*
X62204Y-68976D01*
X62204Y-68976D02*
X62204Y-68818D01*
X62283Y-69055D02*
X62283Y-68740D01*
X62244Y-69055D02*
X62244Y-68779D01*
X62322Y-69133D02*
X62322Y-68661D01*
X62322Y-68661D02*
X62086Y-68897D01*
X62086Y-68897D02*
X62322Y-69133D01*
G54D17*
X62654Y-69147D02*
X61754Y-69147D01*
X61656Y-69147D02*
X61656Y-68647D01*
X61754Y-68647D02*
X62654Y-68647D01*
X62753Y-68647D02*
X62753Y-69147D01*
X73528Y-68897D02*
X73608Y-68897D01*
X74128Y-69647D02*
X72328Y-69647D01*
X72328Y-69647D02*
X72328Y-69397D01*
X72968Y-68147D02*
X72968Y-69647D01*
X72838Y-68147D02*
X72838Y-69647D01*
X74128Y-68397D02*
X74128Y-68147D01*
X74128Y-68147D02*
X72328Y-68147D01*
X72328Y-68147D02*
X72328Y-68397D01*
X74128Y-69397D02*
X74128Y-69647D01*
X73278Y-68897D02*
X73528Y-69084D01*
X73528Y-69084D02*
X73528Y-68897D01*
X73528Y-68897D02*
X73528Y-68710D01*
X73528Y-68710D02*
X73278Y-68897D01*
X73278Y-68897D02*
X73278Y-69022D01*
X73278Y-69022D02*
X73340Y-69084D01*
X73278Y-68897D02*
X73278Y-68772D01*
X73278Y-68772D02*
X73216Y-68710D01*
X73278Y-68897D02*
X72841Y-68897D01*
X69197Y-68897D02*
X69277Y-68897D01*
X69797Y-69647D02*
X67997Y-69647D01*
X67997Y-69647D02*
X67997Y-69397D01*
X68637Y-68147D02*
X68637Y-69647D01*
X68507Y-68147D02*
X68507Y-69647D01*
X69797Y-68397D02*
X69797Y-68147D01*
X69797Y-68147D02*
X67997Y-68147D01*
X67997Y-68147D02*
X67997Y-68397D01*
X69797Y-69397D02*
X69797Y-69647D01*
X68947Y-68897D02*
X69197Y-69084D01*
X69197Y-69084D02*
X69197Y-68897D01*
X69197Y-68897D02*
X69197Y-68710D01*
X69197Y-68710D02*
X68947Y-68897D01*
X68947Y-68897D02*
X68947Y-69022D01*
X68947Y-69022D02*
X69009Y-69084D01*
X68947Y-68897D02*
X68947Y-68772D01*
X68947Y-68772D02*
X68885Y-68710D01*
X68947Y-68897D02*
X68510Y-68897D01*
X64866Y-68897D02*
X64946Y-68897D01*
X65466Y-69647D02*
X63666Y-69647D01*
X63666Y-69647D02*
X63666Y-69397D01*
X64306Y-68147D02*
X64306Y-69647D01*
X64176Y-68147D02*
X64176Y-69647D01*
X65466Y-68397D02*
X65466Y-68147D01*
X65466Y-68147D02*
X63666Y-68147D01*
X63666Y-68147D02*
X63666Y-68397D01*
X65466Y-69397D02*
X65466Y-69647D01*
X64616Y-68897D02*
X64866Y-69084D01*
X64866Y-69084D02*
X64866Y-68897D01*
X64866Y-68897D02*
X64866Y-68710D01*
X64866Y-68710D02*
X64616Y-68897D01*
X64616Y-68897D02*
X64616Y-69022D01*
X64616Y-69022D02*
X64678Y-69084D01*
X64616Y-68897D02*
X64616Y-68772D01*
X64616Y-68772D02*
X64554Y-68710D01*
X64616Y-68897D02*
X64179Y-68897D01*
G54D18*
X62704Y-68035D02*
X61704Y-68035D01*
X61704Y-68035D02*
X61704Y-65035D01*
X61704Y-65035D02*
X62704Y-65035D01*
X62704Y-65035D02*
X62704Y-68035D01*
X61704Y-67035D02*
X62704Y-67035D01*
G54D10*
X66299Y-74346D02*
X71496Y-74346D01*
X71496Y-74346D02*
X71496Y-81437D01*
X71496Y-81437D02*
X66299Y-81437D01*
X66299Y-81437D02*
X66299Y-74346D01*
G54D18*
X75090Y-68929D02*
X75090Y-68929D01*
X76090Y-68929D02*
X75090Y-68929D01*
X75090Y-68929D02*
X75090Y-68929D01*
X75090Y-68929D02*
X75090Y-64929D01*
X75090Y-64929D02*
X76090Y-64929D01*
X76090Y-64929D02*
X76090Y-68929D01*
X76090Y-67929D02*
X75090Y-67929D01*
G54D17*
X63635Y-77502D02*
X63635Y-78402D01*
X63635Y-78501D02*
X63135Y-78501D01*
X63135Y-78402D02*
X63135Y-77502D01*
X63135Y-77404D02*
X63635Y-77404D01*
X63135Y-76827D02*
X63135Y-75927D01*
X63135Y-75829D02*
X63635Y-75829D01*
X63635Y-75927D02*
X63635Y-76827D01*
X63635Y-76926D02*
X63135Y-76926D01*
X74859Y-73872D02*
X73959Y-73872D01*
X73861Y-73872D02*
X73861Y-73372D01*
X73959Y-73372D02*
X74859Y-73372D01*
X74957Y-73372D02*
X74957Y-73872D01*
X74553Y-72103D02*
X74553Y-71203D01*
X74553Y-71105D02*
X75053Y-71105D01*
X75053Y-71203D02*
X75053Y-72103D01*
X75053Y-72201D02*
X74553Y-72201D01*
X70528Y-73872D02*
X69628Y-73872D01*
X69530Y-73872D02*
X69530Y-73372D01*
X69628Y-73372D02*
X70528Y-73372D01*
X70627Y-73372D02*
X70627Y-73872D01*
X70222Y-72103D02*
X70222Y-71203D01*
X70222Y-71105D02*
X70722Y-71105D01*
X70722Y-71203D02*
X70722Y-72103D01*
X70722Y-72201D02*
X70222Y-72201D01*
X66198Y-73872D02*
X65298Y-73872D01*
X65199Y-73872D02*
X65199Y-73372D01*
X65298Y-73372D02*
X66198Y-73372D01*
X66296Y-73372D02*
X66296Y-73872D01*
X65891Y-72103D02*
X65891Y-71203D01*
X65891Y-71105D02*
X66391Y-71105D01*
X66391Y-71203D02*
X66391Y-72103D01*
X66391Y-72201D02*
X65891Y-72201D01*
X74322Y-79396D02*
X74372Y-79396D01*
X74372Y-79396D02*
X74372Y-77296D01*
X72872Y-77296D02*
X72872Y-79396D01*
X72872Y-79396D02*
X74322Y-79396D01*
X73422Y-79396D02*
X73422Y-79196D01*
X73422Y-79196D02*
X73822Y-79196D01*
X73822Y-79196D02*
X73822Y-79396D01*
X72872Y-77296D02*
X74372Y-77296D01*
X74291Y-72303D02*
X72185Y-72303D01*
X72185Y-71003D02*
X74291Y-71003D01*
X74291Y-71003D02*
X74291Y-72303D01*
X72185Y-71003D02*
X72185Y-72303D01*
X72178Y-71453D02*
X72378Y-71453D01*
X72378Y-71453D02*
X72378Y-71853D01*
X72378Y-71853D02*
X72178Y-71853D01*
X69960Y-72303D02*
X67854Y-72303D01*
X67854Y-71003D02*
X69960Y-71003D01*
X69960Y-71003D02*
X69960Y-72303D01*
X67854Y-71003D02*
X67854Y-72303D01*
X67847Y-71453D02*
X68047Y-71453D01*
X68047Y-71453D02*
X68047Y-71853D01*
X68047Y-71853D02*
X67847Y-71853D01*
X65629Y-72303D02*
X63523Y-72303D01*
X63523Y-71003D02*
X65629Y-71003D01*
X65629Y-71003D02*
X65629Y-72303D01*
X63523Y-71003D02*
X63523Y-72303D01*
X63516Y-71453D02*
X63716Y-71453D01*
X63716Y-71453D02*
X63716Y-71853D01*
X63716Y-71853D02*
X63516Y-71853D01*
G54D16*
X71353Y-71355D02*
X71353Y-70955D01*
X71353Y-70955D02*
X71953Y-70955D01*
X71953Y-70955D02*
X71953Y-71355D01*
X71953Y-71951D02*
X71953Y-72351D01*
X71953Y-72351D02*
X71353Y-72351D01*
X71353Y-72351D02*
X71353Y-71951D01*
X67022Y-71355D02*
X67022Y-70955D01*
X67022Y-70955D02*
X67622Y-70955D01*
X67622Y-70955D02*
X67622Y-71355D01*
X67622Y-71951D02*
X67622Y-72351D01*
X67622Y-72351D02*
X67022Y-72351D01*
X67022Y-72351D02*
X67022Y-71951D01*
X62692Y-71355D02*
X62692Y-70955D01*
X62692Y-70955D02*
X63292Y-70955D01*
X63292Y-70955D02*
X63292Y-71355D01*
X63292Y-71951D02*
X63292Y-72351D01*
X63292Y-72351D02*
X62692Y-72351D01*
X62692Y-72351D02*
X62692Y-71951D01*
G54D10*
X72047Y-65354D02*
X74409Y-65354D01*
X74409Y-65354D02*
X74409Y-67716D01*
X74409Y-67716D02*
X72047Y-67716D01*
X72047Y-67716D02*
X72047Y-65354D01*
X67716Y-65354D02*
X70078Y-65354D01*
X70078Y-65354D02*
X70078Y-67716D01*
X70078Y-67716D02*
X67716Y-67716D01*
X67716Y-67716D02*
X67716Y-65354D01*
X63385Y-65354D02*
X65748Y-65354D01*
X65748Y-65354D02*
X65748Y-67716D01*
X65748Y-67716D02*
X63385Y-67716D01*
X63385Y-67716D02*
X63385Y-65354D01*
X74212Y-76082D02*
X75000Y-76082D01*
X75000Y-76082D02*
X75000Y-77066D01*
X75000Y-77066D02*
X74212Y-77066D01*
X74212Y-77066D02*
X74212Y-76082D01*
G54D19*
X64360Y-77802D02*
X65560Y-77802D01*
X65560Y-77802D02*
X65560Y-78102D01*
X65560Y-78102D02*
X64360Y-78102D01*
X64360Y-78102D02*
X64360Y-77802D01*
G54D14*
X68676Y-56434D02*
X68676Y-56134D01*
X68790Y-56134D01*
X68819Y-56149D01*
X68833Y-56163D01*
X68847Y-56192D01*
X68847Y-56234D01*
X68833Y-56263D01*
X68819Y-56277D01*
X68790Y-56292D01*
X68676Y-56292D01*
X68961Y-56163D02*
X68976Y-56149D01*
X69004Y-56134D01*
X69076Y-56134D01*
X69104Y-56149D01*
X69119Y-56163D01*
X69133Y-56192D01*
X69133Y-56220D01*
X69119Y-56263D01*
X68947Y-56434D01*
X69133Y-56434D01*
X73572Y-80618D02*
X73557Y-80633D01*
X73514Y-80647D01*
X73486Y-80647D01*
X73443Y-80633D01*
X73414Y-80604D01*
X73400Y-80576D01*
X73386Y-80518D01*
X73386Y-80476D01*
X73400Y-80418D01*
X73414Y-80390D01*
X73443Y-80361D01*
X73486Y-80347D01*
X73514Y-80347D01*
X73557Y-80361D01*
X73572Y-80376D01*
X73857Y-80647D02*
X73686Y-80647D01*
X73772Y-80647D02*
X73772Y-80347D01*
X73743Y-80390D01*
X73714Y-80418D01*
X73686Y-80433D01*
X75303Y-75050D02*
X75318Y-75064D01*
X75332Y-75107D01*
X75332Y-75135D01*
X75318Y-75178D01*
X75289Y-75207D01*
X75261Y-75221D01*
X75203Y-75235D01*
X75161Y-75235D01*
X75103Y-75221D01*
X75075Y-75207D01*
X75046Y-75178D01*
X75032Y-75135D01*
X75032Y-75107D01*
X75046Y-75064D01*
X75061Y-75050D01*
X75032Y-74950D02*
X75032Y-74764D01*
X75146Y-74864D01*
X75146Y-74821D01*
X75161Y-74792D01*
X75175Y-74778D01*
X75203Y-74764D01*
X75275Y-74764D01*
X75303Y-74778D01*
X75318Y-74792D01*
X75332Y-74821D01*
X75332Y-74907D01*
X75318Y-74935D01*
X75303Y-74950D01*
X71997Y-74221D02*
X71982Y-74235D01*
X71940Y-74249D01*
X71911Y-74249D01*
X71868Y-74235D01*
X71840Y-74207D01*
X71825Y-74178D01*
X71811Y-74121D01*
X71811Y-74078D01*
X71825Y-74021D01*
X71840Y-73992D01*
X71868Y-73964D01*
X71911Y-73949D01*
X71940Y-73949D01*
X71982Y-73964D01*
X71997Y-73978D01*
X72268Y-73949D02*
X72125Y-73949D01*
X72111Y-74092D01*
X72125Y-74078D01*
X72154Y-74064D01*
X72225Y-74064D01*
X72254Y-74078D01*
X72268Y-74092D01*
X72282Y-74121D01*
X72282Y-74192D01*
X72268Y-74221D01*
X72254Y-74235D01*
X72225Y-74249D01*
X72154Y-74249D01*
X72125Y-74235D01*
X72111Y-74221D01*
X67666Y-74221D02*
X67652Y-74235D01*
X67609Y-74249D01*
X67580Y-74249D01*
X67537Y-74235D01*
X67509Y-74207D01*
X67495Y-74178D01*
X67480Y-74121D01*
X67480Y-74078D01*
X67495Y-74021D01*
X67509Y-73992D01*
X67537Y-73964D01*
X67580Y-73949D01*
X67609Y-73949D01*
X67652Y-73964D01*
X67666Y-73978D01*
X67923Y-73949D02*
X67866Y-73949D01*
X67837Y-73964D01*
X67823Y-73978D01*
X67795Y-74021D01*
X67780Y-74078D01*
X67780Y-74192D01*
X67795Y-74221D01*
X67809Y-74235D01*
X67837Y-74249D01*
X67895Y-74249D01*
X67923Y-74235D01*
X67937Y-74221D01*
X67952Y-74192D01*
X67952Y-74121D01*
X67937Y-74092D01*
X67923Y-74078D01*
X67895Y-74064D01*
X67837Y-74064D01*
X67809Y-74078D01*
X67795Y-74092D01*
X67780Y-74121D01*
X63335Y-74221D02*
X63321Y-74235D01*
X63278Y-74249D01*
X63250Y-74249D01*
X63207Y-74235D01*
X63178Y-74207D01*
X63164Y-74178D01*
X63150Y-74121D01*
X63150Y-74078D01*
X63164Y-74021D01*
X63178Y-73992D01*
X63207Y-73964D01*
X63250Y-73949D01*
X63278Y-73949D01*
X63321Y-73964D01*
X63335Y-73978D01*
X63435Y-73949D02*
X63635Y-73949D01*
X63507Y-74249D01*
X64910Y-80520D02*
X64896Y-80534D01*
X64853Y-80549D01*
X64824Y-80549D01*
X64782Y-80534D01*
X64753Y-80506D01*
X64739Y-80477D01*
X64724Y-80420D01*
X64724Y-80377D01*
X64739Y-80320D01*
X64753Y-80291D01*
X64782Y-80263D01*
X64824Y-80249D01*
X64853Y-80249D01*
X64896Y-80263D01*
X64910Y-80277D01*
X65082Y-80377D02*
X65053Y-80363D01*
X65039Y-80349D01*
X65024Y-80320D01*
X65024Y-80306D01*
X65039Y-80277D01*
X65053Y-80263D01*
X65082Y-80249D01*
X65139Y-80249D01*
X65167Y-80263D01*
X65182Y-80277D01*
X65196Y-80306D01*
X65196Y-80320D01*
X65182Y-80349D01*
X65167Y-80363D01*
X65139Y-80377D01*
X65082Y-80377D01*
X65053Y-80391D01*
X65039Y-80406D01*
X65024Y-80434D01*
X65024Y-80491D01*
X65039Y-80520D01*
X65053Y-80534D01*
X65082Y-80549D01*
X65139Y-80549D01*
X65167Y-80534D01*
X65182Y-80520D01*
X65196Y-80491D01*
X65196Y-80434D01*
X65182Y-80406D01*
X65167Y-80391D01*
X65139Y-80377D01*
X64824Y-79891D02*
X64810Y-79877D01*
X64796Y-79848D01*
X64796Y-79777D01*
X64810Y-79748D01*
X64824Y-79734D01*
X64853Y-79720D01*
X64882Y-79720D01*
X64924Y-79734D01*
X65096Y-79906D01*
X65096Y-79720D01*
X64896Y-79463D02*
X65096Y-79463D01*
X64896Y-79591D02*
X65053Y-79591D01*
X65082Y-79577D01*
X65096Y-79548D01*
X65096Y-79506D01*
X65082Y-79477D01*
X65067Y-79463D01*
X64824Y-79334D02*
X64810Y-79320D01*
X64796Y-79291D01*
X64796Y-79220D01*
X64810Y-79191D01*
X64824Y-79177D01*
X64853Y-79163D01*
X64882Y-79163D01*
X64924Y-79177D01*
X65096Y-79348D01*
X65096Y-79163D01*
X64112Y-75811D02*
X63812Y-75811D01*
X63812Y-75740D01*
X63826Y-75697D01*
X63854Y-75669D01*
X63883Y-75654D01*
X63940Y-75640D01*
X63983Y-75640D01*
X64040Y-75654D01*
X64069Y-75669D01*
X64097Y-75697D01*
X64112Y-75740D01*
X64112Y-75811D01*
X64112Y-75354D02*
X64112Y-75526D01*
X64112Y-75440D02*
X63812Y-75440D01*
X63854Y-75469D01*
X63883Y-75497D01*
X63897Y-75526D01*
X74053Y-75811D02*
X73753Y-75811D01*
X73753Y-75740D01*
X73767Y-75697D01*
X73795Y-75669D01*
X73824Y-75654D01*
X73881Y-75640D01*
X73924Y-75640D01*
X73981Y-75654D01*
X74010Y-75669D01*
X74038Y-75697D01*
X74053Y-75740D01*
X74053Y-75811D01*
X73781Y-75526D02*
X73767Y-75511D01*
X73753Y-75483D01*
X73753Y-75411D01*
X73767Y-75383D01*
X73781Y-75369D01*
X73810Y-75354D01*
X73838Y-75354D01*
X73881Y-75369D01*
X74053Y-75540D01*
X74053Y-75354D01*
X71854Y-76969D02*
X71868Y-76926D01*
X71868Y-76854D01*
X71854Y-76826D01*
X71839Y-76811D01*
X71811Y-76797D01*
X71782Y-76797D01*
X71754Y-76811D01*
X71739Y-76826D01*
X71725Y-76854D01*
X71711Y-76911D01*
X71696Y-76940D01*
X71682Y-76954D01*
X71654Y-76969D01*
X71625Y-76969D01*
X71596Y-76954D01*
X71582Y-76940D01*
X71568Y-76911D01*
X71568Y-76840D01*
X71582Y-76797D01*
X71568Y-76711D02*
X71568Y-76540D01*
X71868Y-76626D02*
X71568Y-76626D01*
X71868Y-76440D02*
X71568Y-76440D01*
X71568Y-76326D01*
X71582Y-76297D01*
X71596Y-76283D01*
X71625Y-76269D01*
X71668Y-76269D01*
X71696Y-76283D01*
X71711Y-76297D01*
X71725Y-76326D01*
X71725Y-76440D01*
X71854Y-76154D02*
X71868Y-76111D01*
X71868Y-76040D01*
X71854Y-76011D01*
X71839Y-75997D01*
X71811Y-75983D01*
X71782Y-75983D01*
X71754Y-75997D01*
X71739Y-76011D01*
X71725Y-76040D01*
X71711Y-76097D01*
X71696Y-76126D01*
X71682Y-76140D01*
X71654Y-76154D01*
X71625Y-76154D01*
X71596Y-76140D01*
X71582Y-76126D01*
X71568Y-76097D01*
X71568Y-76026D01*
X71582Y-75983D01*
X71868Y-75697D02*
X71868Y-75869D01*
X71868Y-75783D02*
X71568Y-75783D01*
X71611Y-75811D01*
X71639Y-75840D01*
X71654Y-75869D01*
X71868Y-75569D02*
X71568Y-75569D01*
X71711Y-75569D02*
X71711Y-75397D01*
X71868Y-75397D02*
X71568Y-75397D01*
X71868Y-75097D02*
X71868Y-75269D01*
X71868Y-75183D02*
X71568Y-75183D01*
X71611Y-75211D01*
X71639Y-75240D01*
X71654Y-75269D01*
X71568Y-74911D02*
X71568Y-74883D01*
X71582Y-74854D01*
X71596Y-74840D01*
X71625Y-74826D01*
X71682Y-74811D01*
X71754Y-74811D01*
X71811Y-74826D01*
X71839Y-74840D01*
X71854Y-74854D01*
X71868Y-74883D01*
X71868Y-74911D01*
X71854Y-74940D01*
X71839Y-74954D01*
X71811Y-74969D01*
X71754Y-74983D01*
X71682Y-74983D01*
X71625Y-74969D01*
X71596Y-74954D01*
X71582Y-74940D01*
X71568Y-74911D01*
X71568Y-74626D02*
X71568Y-74597D01*
X71582Y-74569D01*
X71596Y-74554D01*
X71625Y-74540D01*
X71682Y-74526D01*
X71754Y-74526D01*
X71811Y-74540D01*
X71839Y-74554D01*
X71854Y-74569D01*
X71868Y-74597D01*
X71868Y-74626D01*
X71854Y-74654D01*
X71839Y-74669D01*
X71811Y-74683D01*
X71754Y-74697D01*
X71682Y-74697D01*
X71625Y-74683D01*
X71596Y-74669D01*
X71582Y-74654D01*
X71568Y-74626D01*
X71568Y-74397D02*
X71811Y-74397D01*
X71839Y-74383D01*
X71854Y-74369D01*
X71868Y-74340D01*
X71868Y-74283D01*
X71854Y-74254D01*
X71839Y-74240D01*
X71811Y-74226D01*
X71568Y-74226D01*
X61983Y-69623D02*
X61983Y-69323D01*
X62054Y-69323D01*
X62097Y-69338D01*
X62126Y-69366D01*
X62140Y-69395D01*
X62154Y-69452D01*
X62154Y-69495D01*
X62140Y-69552D01*
X62126Y-69581D01*
X62097Y-69609D01*
X62054Y-69623D01*
X61983Y-69623D01*
X62411Y-69423D02*
X62411Y-69623D01*
X62340Y-69309D02*
X62269Y-69523D01*
X62454Y-69523D01*
X73006Y-70057D02*
X73006Y-69757D01*
X73078Y-69757D01*
X73121Y-69771D01*
X73149Y-69800D01*
X73164Y-69828D01*
X73178Y-69885D01*
X73178Y-69928D01*
X73164Y-69985D01*
X73149Y-70014D01*
X73121Y-70043D01*
X73078Y-70057D01*
X73006Y-70057D01*
X73449Y-69757D02*
X73306Y-69757D01*
X73292Y-69900D01*
X73306Y-69885D01*
X73335Y-69871D01*
X73406Y-69871D01*
X73435Y-69885D01*
X73449Y-69900D01*
X73464Y-69928D01*
X73464Y-70000D01*
X73449Y-70028D01*
X73435Y-70043D01*
X73406Y-70057D01*
X73335Y-70057D01*
X73306Y-70043D01*
X73292Y-70028D01*
X68676Y-70057D02*
X68676Y-69757D01*
X68747Y-69757D01*
X68790Y-69771D01*
X68819Y-69800D01*
X68833Y-69828D01*
X68847Y-69885D01*
X68847Y-69928D01*
X68833Y-69985D01*
X68819Y-70014D01*
X68790Y-70043D01*
X68747Y-70057D01*
X68676Y-70057D01*
X69104Y-69757D02*
X69047Y-69757D01*
X69019Y-69771D01*
X69004Y-69785D01*
X68976Y-69828D01*
X68961Y-69885D01*
X68961Y-70000D01*
X68976Y-70028D01*
X68990Y-70043D01*
X69019Y-70057D01*
X69076Y-70057D01*
X69104Y-70043D01*
X69119Y-70028D01*
X69133Y-70000D01*
X69133Y-69928D01*
X69119Y-69900D01*
X69104Y-69885D01*
X69076Y-69871D01*
X69019Y-69871D01*
X68990Y-69885D01*
X68976Y-69900D01*
X68961Y-69928D01*
X64345Y-70057D02*
X64345Y-69757D01*
X64416Y-69757D01*
X64459Y-69771D01*
X64488Y-69800D01*
X64502Y-69828D01*
X64516Y-69885D01*
X64516Y-69928D01*
X64502Y-69985D01*
X64488Y-70014D01*
X64459Y-70043D01*
X64416Y-70057D01*
X64345Y-70057D01*
X64616Y-69757D02*
X64816Y-69757D01*
X64688Y-70057D01*
X61983Y-64899D02*
X61983Y-64599D01*
X62154Y-64899D02*
X62026Y-64728D01*
X62154Y-64599D02*
X61983Y-64770D01*
X62440Y-64899D02*
X62269Y-64899D01*
X62354Y-64899D02*
X62354Y-64599D01*
X62326Y-64642D01*
X62297Y-64670D01*
X62269Y-64685D01*
X63127Y-65852D02*
X62827Y-65852D01*
X62827Y-65738D01*
X62842Y-65709D01*
X62856Y-65695D01*
X62884Y-65681D01*
X62927Y-65681D01*
X62956Y-65695D01*
X62970Y-65709D01*
X62984Y-65738D01*
X62984Y-65852D01*
X62827Y-65581D02*
X63127Y-65509D01*
X62913Y-65452D01*
X63127Y-65395D01*
X62827Y-65324D01*
X63127Y-65038D02*
X62984Y-65138D01*
X63127Y-65209D02*
X62827Y-65209D01*
X62827Y-65095D01*
X62842Y-65067D01*
X62856Y-65052D01*
X62884Y-65038D01*
X62927Y-65038D01*
X62956Y-65052D01*
X62970Y-65067D01*
X62984Y-65095D01*
X62984Y-65209D01*
X66179Y-80831D02*
X65879Y-80831D01*
X65879Y-80717D01*
X65893Y-80688D01*
X65907Y-80674D01*
X65936Y-80660D01*
X65979Y-80660D01*
X66007Y-80674D01*
X66021Y-80688D01*
X66036Y-80717D01*
X66036Y-80831D01*
X66179Y-80374D02*
X66179Y-80545D01*
X66179Y-80460D02*
X65879Y-80460D01*
X65921Y-80488D01*
X65950Y-80517D01*
X65964Y-80545D01*
X75369Y-64801D02*
X75369Y-64501D01*
X75483Y-64501D01*
X75511Y-64515D01*
X75526Y-64529D01*
X75540Y-64558D01*
X75540Y-64601D01*
X75526Y-64629D01*
X75511Y-64643D01*
X75483Y-64658D01*
X75369Y-64658D01*
X75640Y-64501D02*
X75826Y-64501D01*
X75726Y-64615D01*
X75769Y-64615D01*
X75797Y-64629D01*
X75811Y-64643D01*
X75826Y-64672D01*
X75826Y-64743D01*
X75811Y-64772D01*
X75797Y-64786D01*
X75769Y-64801D01*
X75683Y-64801D01*
X75654Y-64786D01*
X75640Y-64772D01*
X63029Y-78002D02*
X62886Y-78102D01*
X63029Y-78174D02*
X62729Y-78174D01*
X62729Y-78059D01*
X62743Y-78031D01*
X62757Y-78017D01*
X62786Y-78002D01*
X62829Y-78002D01*
X62857Y-78017D01*
X62872Y-78031D01*
X62886Y-78059D01*
X62886Y-78174D01*
X63029Y-77717D02*
X63029Y-77888D01*
X63029Y-77802D02*
X62729Y-77802D01*
X62772Y-77831D01*
X62800Y-77859D01*
X62815Y-77888D01*
X63029Y-76427D02*
X62886Y-76527D01*
X63029Y-76599D02*
X62729Y-76599D01*
X62729Y-76485D01*
X62743Y-76456D01*
X62757Y-76442D01*
X62786Y-76427D01*
X62829Y-76427D01*
X62857Y-76442D01*
X62872Y-76456D01*
X62886Y-76485D01*
X62886Y-76599D01*
X62757Y-76313D02*
X62743Y-76299D01*
X62729Y-76270D01*
X62729Y-76199D01*
X62743Y-76170D01*
X62757Y-76156D01*
X62786Y-76142D01*
X62815Y-76142D01*
X62857Y-76156D01*
X63029Y-76327D01*
X63029Y-76142D01*
X75430Y-73672D02*
X75288Y-73772D01*
X75430Y-73843D02*
X75130Y-73843D01*
X75130Y-73729D01*
X75145Y-73700D01*
X75159Y-73686D01*
X75188Y-73672D01*
X75230Y-73672D01*
X75259Y-73686D01*
X75273Y-73700D01*
X75288Y-73729D01*
X75288Y-73843D01*
X75130Y-73572D02*
X75130Y-73372D01*
X75430Y-73500D01*
X74753Y-72675D02*
X74653Y-72532D01*
X74581Y-72675D02*
X74581Y-72375D01*
X74696Y-72375D01*
X74724Y-72389D01*
X74738Y-72403D01*
X74753Y-72432D01*
X74753Y-72475D01*
X74738Y-72503D01*
X74724Y-72517D01*
X74696Y-72532D01*
X74581Y-72532D01*
X74924Y-72503D02*
X74896Y-72489D01*
X74881Y-72475D01*
X74867Y-72446D01*
X74867Y-72432D01*
X74881Y-72403D01*
X74896Y-72389D01*
X74924Y-72375D01*
X74981Y-72375D01*
X75010Y-72389D01*
X75024Y-72403D01*
X75038Y-72432D01*
X75038Y-72446D01*
X75024Y-72475D01*
X75010Y-72489D01*
X74981Y-72503D01*
X74924Y-72503D01*
X74896Y-72517D01*
X74881Y-72532D01*
X74867Y-72560D01*
X74867Y-72617D01*
X74881Y-72646D01*
X74896Y-72660D01*
X74924Y-72675D01*
X74981Y-72675D01*
X75010Y-72660D01*
X75024Y-72646D01*
X75038Y-72617D01*
X75038Y-72560D01*
X75024Y-72532D01*
X75010Y-72517D01*
X74981Y-72503D01*
X70028Y-74249D02*
X69928Y-74107D01*
X69857Y-74249D02*
X69857Y-73949D01*
X69971Y-73949D01*
X70000Y-73964D01*
X70014Y-73978D01*
X70028Y-74007D01*
X70028Y-74049D01*
X70014Y-74078D01*
X70000Y-74092D01*
X69971Y-74107D01*
X69857Y-74107D01*
X70171Y-74249D02*
X70228Y-74249D01*
X70257Y-74235D01*
X70271Y-74221D01*
X70300Y-74178D01*
X70314Y-74121D01*
X70314Y-74007D01*
X70300Y-73978D01*
X70285Y-73964D01*
X70257Y-73949D01*
X70200Y-73949D01*
X70171Y-73964D01*
X70157Y-73978D01*
X70143Y-74007D01*
X70143Y-74078D01*
X70157Y-74107D01*
X70171Y-74121D01*
X70200Y-74135D01*
X70257Y-74135D01*
X70285Y-74121D01*
X70300Y-74107D01*
X70314Y-74078D01*
X70279Y-72675D02*
X70179Y-72532D01*
X70108Y-72675D02*
X70108Y-72375D01*
X70222Y-72375D01*
X70251Y-72389D01*
X70265Y-72403D01*
X70279Y-72432D01*
X70279Y-72475D01*
X70265Y-72503D01*
X70251Y-72517D01*
X70222Y-72532D01*
X70108Y-72532D01*
X70565Y-72675D02*
X70393Y-72675D01*
X70479Y-72675D02*
X70479Y-72375D01*
X70451Y-72417D01*
X70422Y-72446D01*
X70393Y-72460D01*
X70751Y-72375D02*
X70779Y-72375D01*
X70808Y-72389D01*
X70822Y-72403D01*
X70836Y-72432D01*
X70851Y-72489D01*
X70851Y-72560D01*
X70836Y-72617D01*
X70822Y-72646D01*
X70808Y-72660D01*
X70779Y-72675D01*
X70751Y-72675D01*
X70722Y-72660D01*
X70708Y-72646D01*
X70693Y-72617D01*
X70679Y-72560D01*
X70679Y-72489D01*
X70693Y-72432D01*
X70708Y-72403D01*
X70722Y-72389D01*
X70751Y-72375D01*
X65555Y-74249D02*
X65455Y-74107D01*
X65383Y-74249D02*
X65383Y-73949D01*
X65498Y-73949D01*
X65526Y-73964D01*
X65540Y-73978D01*
X65555Y-74007D01*
X65555Y-74049D01*
X65540Y-74078D01*
X65526Y-74092D01*
X65498Y-74107D01*
X65383Y-74107D01*
X65840Y-74249D02*
X65669Y-74249D01*
X65755Y-74249D02*
X65755Y-73949D01*
X65726Y-73992D01*
X65698Y-74021D01*
X65669Y-74035D01*
X66126Y-74249D02*
X65955Y-74249D01*
X66040Y-74249D02*
X66040Y-73949D01*
X66012Y-73992D01*
X65983Y-74021D01*
X65955Y-74035D01*
X65948Y-72675D02*
X65848Y-72532D01*
X65777Y-72675D02*
X65777Y-72375D01*
X65891Y-72375D01*
X65920Y-72389D01*
X65934Y-72403D01*
X65948Y-72432D01*
X65948Y-72475D01*
X65934Y-72503D01*
X65920Y-72517D01*
X65891Y-72532D01*
X65777Y-72532D01*
X66234Y-72675D02*
X66063Y-72675D01*
X66148Y-72675D02*
X66148Y-72375D01*
X66120Y-72417D01*
X66091Y-72446D01*
X66063Y-72460D01*
X66348Y-72403D02*
X66363Y-72389D01*
X66391Y-72375D01*
X66463Y-72375D01*
X66491Y-72389D01*
X66506Y-72403D01*
X66520Y-72432D01*
X66520Y-72460D01*
X66506Y-72503D01*
X66334Y-72675D01*
X66520Y-72675D01*
X72310Y-77001D02*
X72310Y-77243D01*
X72325Y-77272D01*
X72339Y-77286D01*
X72367Y-77301D01*
X72425Y-77301D01*
X72453Y-77286D01*
X72467Y-77272D01*
X72482Y-77243D01*
X72482Y-77001D01*
X72782Y-77301D02*
X72610Y-77301D01*
X72696Y-77301D02*
X72696Y-77001D01*
X72667Y-77043D01*
X72639Y-77072D01*
X72610Y-77086D01*
X72999Y-73162D02*
X72999Y-73405D01*
X73014Y-73433D01*
X73028Y-73448D01*
X73056Y-73462D01*
X73114Y-73462D01*
X73142Y-73448D01*
X73156Y-73433D01*
X73171Y-73405D01*
X73171Y-73162D01*
X73456Y-73162D02*
X73314Y-73162D01*
X73299Y-73305D01*
X73314Y-73291D01*
X73342Y-73276D01*
X73414Y-73276D01*
X73442Y-73291D01*
X73456Y-73305D01*
X73471Y-73333D01*
X73471Y-73405D01*
X73456Y-73433D01*
X73442Y-73448D01*
X73414Y-73462D01*
X73342Y-73462D01*
X73314Y-73448D01*
X73299Y-73433D01*
X68669Y-73162D02*
X68669Y-73405D01*
X68683Y-73433D01*
X68697Y-73448D01*
X68726Y-73462D01*
X68783Y-73462D01*
X68811Y-73448D01*
X68826Y-73433D01*
X68840Y-73405D01*
X68840Y-73162D01*
X69111Y-73162D02*
X69054Y-73162D01*
X69026Y-73176D01*
X69011Y-73191D01*
X68983Y-73233D01*
X68969Y-73291D01*
X68969Y-73405D01*
X68983Y-73433D01*
X68997Y-73448D01*
X69026Y-73462D01*
X69083Y-73462D01*
X69111Y-73448D01*
X69126Y-73433D01*
X69140Y-73405D01*
X69140Y-73333D01*
X69126Y-73305D01*
X69111Y-73291D01*
X69083Y-73276D01*
X69026Y-73276D01*
X68997Y-73291D01*
X68983Y-73305D01*
X68969Y-73333D01*
X64338Y-73162D02*
X64338Y-73405D01*
X64352Y-73433D01*
X64366Y-73448D01*
X64395Y-73462D01*
X64452Y-73462D01*
X64481Y-73448D01*
X64495Y-73433D01*
X64509Y-73405D01*
X64509Y-73162D01*
X64624Y-73162D02*
X64824Y-73162D01*
X64695Y-73462D01*
X71460Y-72744D02*
X71446Y-72759D01*
X71403Y-72773D01*
X71374Y-72773D01*
X71332Y-72759D01*
X71303Y-72730D01*
X71289Y-72702D01*
X71274Y-72644D01*
X71274Y-72602D01*
X71289Y-72544D01*
X71303Y-72516D01*
X71332Y-72487D01*
X71374Y-72473D01*
X71403Y-72473D01*
X71446Y-72487D01*
X71460Y-72502D01*
X71746Y-72773D02*
X71574Y-72773D01*
X71660Y-72773D02*
X71660Y-72473D01*
X71632Y-72516D01*
X71603Y-72544D01*
X71574Y-72559D01*
X71932Y-72473D02*
X71960Y-72473D01*
X71989Y-72487D01*
X72003Y-72502D01*
X72017Y-72530D01*
X72032Y-72587D01*
X72032Y-72659D01*
X72017Y-72716D01*
X72003Y-72744D01*
X71989Y-72759D01*
X71960Y-72773D01*
X71932Y-72773D01*
X71903Y-72759D01*
X71889Y-72744D01*
X71874Y-72716D01*
X71860Y-72659D01*
X71860Y-72587D01*
X71874Y-72530D01*
X71889Y-72502D01*
X71903Y-72487D01*
X71932Y-72473D01*
X67129Y-72744D02*
X67115Y-72759D01*
X67072Y-72773D01*
X67044Y-72773D01*
X67001Y-72759D01*
X66972Y-72730D01*
X66958Y-72702D01*
X66944Y-72644D01*
X66944Y-72602D01*
X66958Y-72544D01*
X66972Y-72516D01*
X67001Y-72487D01*
X67044Y-72473D01*
X67072Y-72473D01*
X67115Y-72487D01*
X67129Y-72502D01*
X67415Y-72773D02*
X67244Y-72773D01*
X67329Y-72773D02*
X67329Y-72473D01*
X67301Y-72516D01*
X67272Y-72544D01*
X67244Y-72559D01*
X67701Y-72773D02*
X67529Y-72773D01*
X67615Y-72773D02*
X67615Y-72473D01*
X67587Y-72516D01*
X67558Y-72544D01*
X67529Y-72559D01*
X62799Y-72744D02*
X62784Y-72759D01*
X62742Y-72773D01*
X62713Y-72773D01*
X62670Y-72759D01*
X62642Y-72730D01*
X62627Y-72702D01*
X62613Y-72644D01*
X62613Y-72602D01*
X62627Y-72544D01*
X62642Y-72516D01*
X62670Y-72487D01*
X62713Y-72473D01*
X62742Y-72473D01*
X62784Y-72487D01*
X62799Y-72502D01*
X63084Y-72773D02*
X62913Y-72773D01*
X62999Y-72773D02*
X62999Y-72473D01*
X62970Y-72516D01*
X62942Y-72544D01*
X62913Y-72559D01*
X63199Y-72502D02*
X63213Y-72487D01*
X63242Y-72473D01*
X63313Y-72473D01*
X63342Y-72487D01*
X63356Y-72502D01*
X63370Y-72530D01*
X63370Y-72559D01*
X63356Y-72602D01*
X63184Y-72773D01*
X63370Y-72773D01*
X72784Y-65096D02*
X72641Y-65096D01*
X72641Y-64796D01*
X72870Y-64824D02*
X72884Y-64810D01*
X72913Y-64796D01*
X72984Y-64796D01*
X73013Y-64810D01*
X73027Y-64824D01*
X73041Y-64853D01*
X73041Y-64882D01*
X73027Y-64924D01*
X72856Y-65096D01*
X73041Y-65096D01*
X72892Y-67064D02*
X72721Y-67064D01*
X72806Y-67064D02*
X72806Y-66764D01*
X72778Y-66807D01*
X72749Y-66836D01*
X72721Y-66850D01*
X73078Y-66764D02*
X73106Y-66764D01*
X73135Y-66779D01*
X73149Y-66793D01*
X73164Y-66821D01*
X73178Y-66879D01*
X73178Y-66950D01*
X73164Y-67007D01*
X73149Y-67036D01*
X73135Y-67050D01*
X73106Y-67064D01*
X73078Y-67064D01*
X73049Y-67050D01*
X73035Y-67036D01*
X73021Y-67007D01*
X73006Y-66950D01*
X73006Y-66879D01*
X73021Y-66821D01*
X73035Y-66793D01*
X73049Y-66779D01*
X73078Y-66764D01*
X73364Y-66764D02*
X73392Y-66764D01*
X73421Y-66779D01*
X73435Y-66793D01*
X73449Y-66821D01*
X73464Y-66879D01*
X73464Y-66950D01*
X73449Y-67007D01*
X73435Y-67036D01*
X73421Y-67050D01*
X73392Y-67064D01*
X73364Y-67064D01*
X73335Y-67050D01*
X73321Y-67036D01*
X73306Y-67007D01*
X73292Y-66950D01*
X73292Y-66879D01*
X73306Y-66821D01*
X73321Y-66793D01*
X73335Y-66779D01*
X73364Y-66764D01*
X73721Y-66864D02*
X73721Y-67064D01*
X73592Y-66864D02*
X73592Y-67021D01*
X73606Y-67050D01*
X73635Y-67064D01*
X73678Y-67064D01*
X73706Y-67050D01*
X73721Y-67036D01*
X68060Y-65096D02*
X67917Y-65096D01*
X67917Y-64796D01*
X68131Y-64796D02*
X68317Y-64796D01*
X68217Y-64910D01*
X68260Y-64910D01*
X68288Y-64924D01*
X68303Y-64939D01*
X68317Y-64967D01*
X68317Y-65039D01*
X68303Y-65067D01*
X68288Y-65082D01*
X68260Y-65096D01*
X68174Y-65096D01*
X68145Y-65082D01*
X68131Y-65067D01*
X68561Y-66671D02*
X68390Y-66671D01*
X68476Y-66671D02*
X68476Y-66371D01*
X68447Y-66414D01*
X68419Y-66442D01*
X68390Y-66456D01*
X68747Y-66371D02*
X68776Y-66371D01*
X68804Y-66385D01*
X68819Y-66399D01*
X68833Y-66428D01*
X68847Y-66485D01*
X68847Y-66556D01*
X68833Y-66614D01*
X68819Y-66642D01*
X68804Y-66656D01*
X68776Y-66671D01*
X68747Y-66671D01*
X68719Y-66656D01*
X68704Y-66642D01*
X68690Y-66614D01*
X68676Y-66556D01*
X68676Y-66485D01*
X68690Y-66428D01*
X68704Y-66399D01*
X68719Y-66385D01*
X68747Y-66371D01*
X69033Y-66371D02*
X69061Y-66371D01*
X69090Y-66385D01*
X69104Y-66399D01*
X69119Y-66428D01*
X69133Y-66485D01*
X69133Y-66556D01*
X69119Y-66614D01*
X69104Y-66642D01*
X69090Y-66656D01*
X69061Y-66671D01*
X69033Y-66671D01*
X69004Y-66656D01*
X68990Y-66642D01*
X68976Y-66614D01*
X68961Y-66556D01*
X68961Y-66485D01*
X68976Y-66428D01*
X68990Y-66399D01*
X69004Y-66385D01*
X69033Y-66371D01*
X69390Y-66471D02*
X69390Y-66671D01*
X69261Y-66471D02*
X69261Y-66628D01*
X69276Y-66656D01*
X69304Y-66671D01*
X69347Y-66671D01*
X69376Y-66656D01*
X69390Y-66642D01*
X63729Y-65096D02*
X63586Y-65096D01*
X63586Y-64796D01*
X63958Y-64896D02*
X63958Y-65096D01*
X63886Y-64782D02*
X63815Y-64996D01*
X64000Y-64996D01*
X64231Y-67064D02*
X64059Y-67064D01*
X64145Y-67064D02*
X64145Y-66764D01*
X64116Y-66807D01*
X64088Y-66836D01*
X64059Y-66850D01*
X64416Y-66764D02*
X64445Y-66764D01*
X64474Y-66779D01*
X64488Y-66793D01*
X64502Y-66821D01*
X64516Y-66879D01*
X64516Y-66950D01*
X64502Y-67007D01*
X64488Y-67036D01*
X64474Y-67050D01*
X64445Y-67064D01*
X64416Y-67064D01*
X64388Y-67050D01*
X64374Y-67036D01*
X64359Y-67007D01*
X64345Y-66950D01*
X64345Y-66879D01*
X64359Y-66821D01*
X64374Y-66793D01*
X64388Y-66779D01*
X64416Y-66764D01*
X64702Y-66764D02*
X64731Y-66764D01*
X64759Y-66779D01*
X64774Y-66793D01*
X64788Y-66821D01*
X64802Y-66879D01*
X64802Y-66950D01*
X64788Y-67007D01*
X64774Y-67036D01*
X64759Y-67050D01*
X64731Y-67064D01*
X64702Y-67064D01*
X64674Y-67050D01*
X64659Y-67036D01*
X64645Y-67007D01*
X64631Y-66950D01*
X64631Y-66879D01*
X64645Y-66821D01*
X64659Y-66793D01*
X64674Y-66779D01*
X64702Y-66764D01*
X65059Y-66864D02*
X65059Y-67064D01*
X64931Y-66864D02*
X64931Y-67021D01*
X64945Y-67050D01*
X64974Y-67064D01*
X65016Y-67064D01*
X65045Y-67050D01*
X65059Y-67036D01*
X74053Y-76624D02*
X74053Y-76767D01*
X73753Y-76767D01*
X74053Y-76367D02*
X74053Y-76539D01*
X74053Y-76453D02*
X73753Y-76453D01*
X73795Y-76481D01*
X73824Y-76510D01*
X73838Y-76539D01*
X64932Y-77267D02*
X64903Y-77252D01*
X64874Y-77224D01*
X64832Y-77181D01*
X64803Y-77167D01*
X64774Y-77167D01*
X64789Y-77238D02*
X64760Y-77224D01*
X64732Y-77195D01*
X64717Y-77138D01*
X64717Y-77038D01*
X64732Y-76981D01*
X64760Y-76952D01*
X64789Y-76938D01*
X64846Y-76938D01*
X64874Y-76952D01*
X64903Y-76981D01*
X64917Y-77038D01*
X64917Y-77138D01*
X64903Y-77195D01*
X64874Y-77224D01*
X64846Y-77238D01*
X64789Y-77238D01*
X65203Y-77238D02*
X65032Y-77238D01*
X65117Y-77238D02*
X65117Y-76938D01*
X65089Y-76981D01*
X65060Y-77009D01*
X65032Y-77024D01*
M02*
