G04 #@! TF.FileFunction,Copper,L4,Bot,Signal*
%FSLAX46Y46*%
G04 Gerber Fmt 4.6, Leading zero omitted, Abs format (unit mm)*
G04 Created by KiCad (PCBNEW 4.0.7) date Sun Apr  1 13:56:06 2018*
%MOMM*%
%LPD*%
G01*
G04 APERTURE LIST*
%ADD10C,0.150000*%
%ADD11R,5.000000X5.000000*%
%ADD12R,0.800000X0.750000*%
%ADD13R,0.750000X0.800000*%
%ADD14R,2.032000X1.727200*%
%ADD15O,2.032000X1.727200*%
%ADD16C,1.800000*%
%ADD17R,0.900000X0.500000*%
%ADD18R,0.500000X0.900000*%
%ADD19R,1.450000X0.450000*%
%ADD20R,0.800100X0.800100*%
%ADD21R,0.600000X1.550000*%
%ADD22C,0.762000*%
%ADD23C,0.200000*%
%ADD24C,1.000000*%
%ADD25C,0.300000*%
G04 APERTURE END LIST*
D10*
D11*
X181000000Y-167500000D03*
X175000000Y-167500000D03*
X169000000Y-167500000D03*
D12*
X179250000Y-181000000D03*
X180750000Y-181000000D03*
D13*
X166000000Y-176750000D03*
X166000000Y-175250000D03*
D14*
X158000000Y-166460000D03*
D15*
X158000000Y-169000000D03*
X158000000Y-171540000D03*
D16*
X173095000Y-196650000D03*
X174365000Y-194110000D03*
X175635000Y-196650000D03*
X176905000Y-194110000D03*
D14*
X192000000Y-173750000D03*
D15*
X192000000Y-171210000D03*
X192000000Y-168670000D03*
X192000000Y-166130000D03*
D17*
X167000000Y-183250000D03*
X167000000Y-184750000D03*
D18*
X169250000Y-182000000D03*
X170750000Y-182000000D03*
D17*
X173000000Y-184750000D03*
X173000000Y-183250000D03*
D18*
X178250000Y-185500000D03*
X176750000Y-185500000D03*
D19*
X182950000Y-173075000D03*
X182950000Y-173725000D03*
X182950000Y-174375000D03*
X182950000Y-175025000D03*
X182950000Y-175675000D03*
X182950000Y-176325000D03*
X182950000Y-176975000D03*
X182950000Y-177625000D03*
X182950000Y-178275000D03*
X182950000Y-178925000D03*
X177050000Y-178925000D03*
X177050000Y-178275000D03*
X177050000Y-177625000D03*
X177050000Y-176975000D03*
X177050000Y-176325000D03*
X177050000Y-175675000D03*
X177050000Y-175025000D03*
X177050000Y-174375000D03*
X177050000Y-173725000D03*
X177050000Y-173075000D03*
D20*
X169050000Y-184999240D03*
X170950000Y-184999240D03*
X170000000Y-186998220D03*
D21*
X168095000Y-173300000D03*
X169365000Y-173300000D03*
X170635000Y-173300000D03*
X171905000Y-173300000D03*
X171905000Y-178700000D03*
X170635000Y-178700000D03*
X169365000Y-178700000D03*
X168095000Y-178700000D03*
D22*
X183500000Y-202250000D03*
X198000000Y-176000000D03*
X195000000Y-176000000D03*
X196500000Y-176000000D03*
X155000000Y-176000000D03*
X152000000Y-176000000D03*
X153500000Y-176000000D03*
X164250000Y-200250000D03*
X185500000Y-173500000D03*
X174750000Y-175500000D03*
X160200000Y-173800000D03*
X164000000Y-168500000D03*
X175000000Y-171000000D03*
X186000000Y-168500000D03*
X190000000Y-172500000D03*
X180000000Y-176000000D03*
X196000000Y-195000000D03*
X196000000Y-191000000D03*
X196000000Y-187000000D03*
X196000000Y-185000000D03*
X196000000Y-189000000D03*
X196000000Y-193000000D03*
X154000000Y-195000000D03*
X154000000Y-189000000D03*
X154000000Y-185000000D03*
X154000000Y-187000000D03*
X154000000Y-191000000D03*
X154000000Y-193000000D03*
X178000000Y-200000000D03*
X176000000Y-200000000D03*
X172000000Y-200000000D03*
X170000000Y-200000000D03*
X174000000Y-200000000D03*
X180000000Y-200000000D03*
X180500000Y-182500000D03*
X167000000Y-182000000D03*
X171000000Y-177250000D03*
X170000000Y-186000000D03*
X181250000Y-173500000D03*
X187500000Y-189000000D03*
X171500000Y-188500000D03*
X187500000Y-177750000D03*
X179000000Y-177500000D03*
X170750000Y-175000000D03*
X180500000Y-186500000D03*
D23*
X169365000Y-173333000D02*
X169365000Y-175115000D01*
X174925360Y-178925360D02*
X177200920Y-178925360D01*
X171750000Y-175750000D02*
X174925360Y-178925360D01*
X170000000Y-175750000D02*
X171750000Y-175750000D01*
X169365000Y-175115000D02*
X170000000Y-175750000D01*
X169365000Y-173333000D02*
X170635000Y-173333000D01*
D24*
X169000000Y-167500000D02*
X165000000Y-167500000D01*
X165000000Y-167500000D02*
X164000000Y-168500000D01*
X175000000Y-167500000D02*
X175000000Y-171000000D01*
X185000000Y-167500000D02*
X181000000Y-167500000D01*
X186000000Y-168500000D02*
X185000000Y-167500000D01*
D23*
X168095000Y-173333000D02*
X168095000Y-172405000D01*
X175875000Y-174375000D02*
X177200920Y-174375000D01*
X173500000Y-172000000D02*
X175875000Y-174375000D01*
X168500000Y-172000000D02*
X173500000Y-172000000D01*
X168095000Y-172405000D02*
X168500000Y-172000000D01*
X177200920Y-173075000D02*
X179425000Y-173075000D01*
X181230000Y-171270000D02*
X192000000Y-171270000D01*
X179425000Y-173075000D02*
X181230000Y-171270000D01*
X177200920Y-173725000D02*
X179775000Y-173725000D01*
X179775000Y-173725000D02*
X181000000Y-172500000D01*
X181000000Y-172500000D02*
X190000000Y-172500000D01*
X177200920Y-175025000D02*
X175525000Y-175025000D01*
X173833000Y-173333000D02*
X171905000Y-173333000D01*
X175525000Y-175025000D02*
X173833000Y-173333000D01*
X178250000Y-185500000D02*
X180934302Y-185500000D01*
X182950000Y-178925000D02*
X184575000Y-178925000D01*
X186431001Y-177068999D02*
X187826881Y-177068999D01*
X184575000Y-178925000D02*
X186431001Y-177068999D01*
X187826881Y-177068999D02*
X188181001Y-177423119D01*
X188181001Y-177423119D02*
X188181001Y-178253301D01*
X188181001Y-178253301D02*
X180934302Y-185500000D01*
D25*
X178425600Y-176324400D02*
X178500000Y-176250000D01*
X178500000Y-176250000D02*
X179750000Y-176250000D01*
X180000000Y-176000000D02*
X179750000Y-176250000D01*
X178425600Y-176324400D02*
X177200920Y-176324400D01*
X180750000Y-181000000D02*
X180750000Y-182250000D01*
X180750000Y-182250000D02*
X180500000Y-182500000D01*
X181000000Y-181000000D02*
X181000000Y-181250000D01*
X167000000Y-183000000D02*
X167000000Y-182000000D01*
X166000000Y-175000000D02*
X166250000Y-175000000D01*
X171905000Y-178155000D02*
X171000000Y-177250000D01*
X171905000Y-178155000D02*
X171905000Y-178667000D01*
X168500000Y-177250000D02*
X171000000Y-177250000D01*
X166250000Y-175000000D02*
X168500000Y-177250000D01*
D23*
X170000000Y-187099820D02*
X170000000Y-186000000D01*
D25*
X182799080Y-173074160D02*
X181675840Y-173074160D01*
X181675840Y-173074160D02*
X181250000Y-173500000D01*
D23*
X171500000Y-188500000D02*
X174500000Y-185500000D01*
X174500000Y-185500000D02*
X176750000Y-185500000D01*
X172100000Y-185000000D02*
X172099240Y-184999240D01*
X172099240Y-184999240D02*
X170950000Y-184999240D01*
X173000000Y-184750000D02*
X172350000Y-184750000D01*
X172350000Y-184750000D02*
X172100000Y-185000000D01*
X170750000Y-183250000D02*
X170950000Y-183450000D01*
X170950000Y-183450000D02*
X170950000Y-184999240D01*
X170750000Y-182000000D02*
X170750000Y-183250000D01*
X170952500Y-184900180D02*
X170952500Y-187587752D01*
X170952500Y-187587752D02*
X170250000Y-188290252D01*
X170250000Y-188290252D02*
X170250000Y-192250000D01*
X170250000Y-192250000D02*
X172110000Y-194110000D01*
X172110000Y-194110000D02*
X174365000Y-194110000D01*
X170635000Y-181635000D02*
X170635000Y-178667000D01*
X167750000Y-184750000D02*
X167999240Y-184999240D01*
X167999240Y-184999240D02*
X169050000Y-184999240D01*
X167000000Y-184750000D02*
X167750000Y-184750000D01*
X169250000Y-183250000D02*
X169050000Y-183450000D01*
X169050000Y-183450000D02*
X169050000Y-184999240D01*
X169250000Y-182000000D02*
X169250000Y-183250000D01*
X169047500Y-184900180D02*
X169047500Y-187547500D01*
X169047500Y-187547500D02*
X169750000Y-188250000D01*
X169750000Y-188250000D02*
X169750000Y-192315698D01*
X169750000Y-192315698D02*
X171944304Y-194510002D01*
X171944304Y-194510002D02*
X173010002Y-194510002D01*
X173010002Y-194510002D02*
X175150000Y-196650000D01*
X169365000Y-181635000D02*
X169365000Y-178667000D01*
X177200920Y-176974640D02*
X178525360Y-176974640D01*
X180000000Y-178250000D02*
X181250000Y-179500000D01*
X181250000Y-179500000D02*
X185750000Y-179500000D01*
X185750000Y-179500000D02*
X187500000Y-177750000D01*
X180000000Y-177500000D02*
X180000000Y-178250000D01*
X179250000Y-176750000D02*
X180000000Y-177500000D01*
X178750000Y-176750000D02*
X179250000Y-176750000D01*
X178525360Y-176974640D02*
X178750000Y-176750000D01*
X178875120Y-177624880D02*
X177200920Y-177624880D01*
X179000000Y-177500000D02*
X178875120Y-177624880D01*
X175275120Y-178275120D02*
X177200920Y-178275120D01*
X172000000Y-175000000D02*
X175275120Y-178275120D01*
X170750000Y-175000000D02*
X172000000Y-175000000D01*
X170750000Y-175000000D02*
X170750000Y-175000000D01*
X182950000Y-178275000D02*
X184659302Y-178275000D01*
X184659302Y-178275000D02*
X186265311Y-176668991D01*
X186265311Y-176668991D02*
X187992571Y-176668991D01*
X187992571Y-176668991D02*
X188581011Y-177257430D01*
X188581011Y-177257430D02*
X188581011Y-178418989D01*
X188581011Y-178418989D02*
X188500000Y-178500000D01*
X188500000Y-178500000D02*
X180500000Y-186500000D01*
G36*
X199324638Y-156358734D02*
X199399211Y-156380682D01*
X199468109Y-156416701D01*
X199528691Y-156465409D01*
X199578659Y-156524960D01*
X199616112Y-156593086D01*
X199639617Y-156667185D01*
X199650000Y-156759749D01*
X199650000Y-182855026D01*
X197752513Y-184752513D01*
X197732028Y-184777452D01*
X197711210Y-184802262D01*
X197710322Y-184803878D01*
X197709156Y-184805297D01*
X197693887Y-184833772D01*
X197678303Y-184862120D01*
X197677747Y-184863873D01*
X197676876Y-184865497D01*
X197667420Y-184896428D01*
X197657648Y-184927231D01*
X197657443Y-184929061D01*
X197656905Y-184930820D01*
X197653639Y-184962974D01*
X197650034Y-184995113D01*
X197650009Y-184998709D01*
X197650002Y-184998778D01*
X197650008Y-184998842D01*
X197650000Y-185000000D01*
X197650000Y-201235599D01*
X195814256Y-201757239D01*
X196041513Y-201613018D01*
X196510171Y-201166721D01*
X196883216Y-200637895D01*
X197146442Y-200046682D01*
X197289820Y-199415601D01*
X197300141Y-198676418D01*
X197174440Y-198041580D01*
X196927825Y-197443248D01*
X196569690Y-196904212D01*
X196113677Y-196445004D01*
X195577154Y-196083114D01*
X194980558Y-195832328D01*
X194346613Y-195702198D01*
X193699465Y-195697680D01*
X193063765Y-195818947D01*
X192463726Y-196061378D01*
X191922202Y-196415741D01*
X191459822Y-196868537D01*
X191094196Y-197402521D01*
X190839251Y-197997351D01*
X190704698Y-198630373D01*
X190695663Y-199277473D01*
X190812488Y-199914004D01*
X191050725Y-200515722D01*
X191401298Y-201059706D01*
X191850856Y-201525236D01*
X192382273Y-201894581D01*
X192975310Y-202153672D01*
X193607376Y-202292641D01*
X193907928Y-202298937D01*
X186136606Y-204507215D01*
X173977689Y-205498931D01*
X161854858Y-204109753D01*
X158708320Y-203159757D01*
X168017503Y-203159757D01*
X168084766Y-203526245D01*
X168221932Y-203872688D01*
X168423778Y-204185891D01*
X168682614Y-204453924D01*
X168988582Y-204666577D01*
X169330027Y-204815750D01*
X169693944Y-204895763D01*
X170066471Y-204903566D01*
X170433420Y-204838863D01*
X170780812Y-204704119D01*
X171095417Y-204504465D01*
X171365250Y-204247506D01*
X171580034Y-203943030D01*
X171731587Y-203602635D01*
X171814138Y-203239285D01*
X171815248Y-203159757D01*
X178177503Y-203159757D01*
X178244766Y-203526245D01*
X178381932Y-203872688D01*
X178583778Y-204185891D01*
X178842614Y-204453924D01*
X179148582Y-204666577D01*
X179490027Y-204815750D01*
X179853944Y-204895763D01*
X180226471Y-204903566D01*
X180593420Y-204838863D01*
X180940812Y-204704119D01*
X181255417Y-204504465D01*
X181525250Y-204247506D01*
X181740034Y-203943030D01*
X181891587Y-203602635D01*
X181974138Y-203239285D01*
X181980081Y-202813695D01*
X181907708Y-202448183D01*
X181849624Y-202307260D01*
X182818105Y-202307260D01*
X182842213Y-202438617D01*
X182891377Y-202562790D01*
X182963722Y-202675048D01*
X183056495Y-202771117D01*
X183166160Y-202847336D01*
X183288541Y-202900803D01*
X183418977Y-202929481D01*
X183552498Y-202932278D01*
X183684020Y-202909087D01*
X183808533Y-202860792D01*
X183921294Y-202789232D01*
X184018008Y-202697132D01*
X184094991Y-202588002D01*
X184149311Y-202465997D01*
X184178899Y-202335765D01*
X184181029Y-202183225D01*
X184155089Y-202052217D01*
X184104197Y-201928743D01*
X184030291Y-201817506D01*
X183936186Y-201722742D01*
X183825467Y-201648061D01*
X183702352Y-201596308D01*
X183571528Y-201569454D01*
X183437981Y-201568521D01*
X183306795Y-201593546D01*
X183182969Y-201643575D01*
X183071218Y-201716703D01*
X182975800Y-201810144D01*
X182900348Y-201920338D01*
X182847736Y-202043090D01*
X182819970Y-202173722D01*
X182818105Y-202307260D01*
X181849624Y-202307260D01*
X181765717Y-202103688D01*
X181559519Y-201793334D01*
X181296965Y-201528942D01*
X180988058Y-201320581D01*
X180644564Y-201176189D01*
X180279565Y-201101266D01*
X179906965Y-201098664D01*
X179540956Y-201168484D01*
X179195478Y-201308066D01*
X178883692Y-201512093D01*
X178617473Y-201772794D01*
X178406961Y-202080239D01*
X178260175Y-202422718D01*
X178182705Y-202787184D01*
X178177503Y-203159757D01*
X171815248Y-203159757D01*
X171820081Y-202813695D01*
X171747708Y-202448183D01*
X171605717Y-202103688D01*
X171399519Y-201793334D01*
X171136965Y-201528942D01*
X170828058Y-201320581D01*
X170484564Y-201176189D01*
X170119565Y-201101266D01*
X169746965Y-201098664D01*
X169380956Y-201168484D01*
X169035478Y-201308066D01*
X168723692Y-201512093D01*
X168457473Y-201772794D01*
X168246961Y-202080239D01*
X168100175Y-202422718D01*
X168022705Y-202787184D01*
X168017503Y-203159757D01*
X158708320Y-203159757D01*
X155853360Y-202297794D01*
X156254398Y-202306194D01*
X156891729Y-202193815D01*
X157495095Y-201959785D01*
X158041513Y-201613018D01*
X158510171Y-201166721D01*
X158883216Y-200637895D01*
X159030424Y-200307260D01*
X163568105Y-200307260D01*
X163592213Y-200438617D01*
X163641377Y-200562790D01*
X163713722Y-200675048D01*
X163806495Y-200771117D01*
X163916160Y-200847336D01*
X164038541Y-200900803D01*
X164168977Y-200929481D01*
X164302498Y-200932278D01*
X164434020Y-200909087D01*
X164558533Y-200860792D01*
X164671294Y-200789232D01*
X164768008Y-200697132D01*
X164844991Y-200588002D01*
X164899311Y-200465997D01*
X164928899Y-200335765D01*
X164931029Y-200183225D01*
X164906088Y-200057260D01*
X169318105Y-200057260D01*
X169342213Y-200188617D01*
X169391377Y-200312790D01*
X169463722Y-200425048D01*
X169556495Y-200521117D01*
X169666160Y-200597336D01*
X169788541Y-200650803D01*
X169918977Y-200679481D01*
X170052498Y-200682278D01*
X170184020Y-200659087D01*
X170308533Y-200610792D01*
X170421294Y-200539232D01*
X170518008Y-200447132D01*
X170594991Y-200338002D01*
X170649311Y-200215997D01*
X170678899Y-200085765D01*
X170679297Y-200057260D01*
X171318105Y-200057260D01*
X171342213Y-200188617D01*
X171391377Y-200312790D01*
X171463722Y-200425048D01*
X171556495Y-200521117D01*
X171666160Y-200597336D01*
X171788541Y-200650803D01*
X171918977Y-200679481D01*
X172052498Y-200682278D01*
X172184020Y-200659087D01*
X172308533Y-200610792D01*
X172421294Y-200539232D01*
X172518008Y-200447132D01*
X172594991Y-200338002D01*
X172649311Y-200215997D01*
X172678899Y-200085765D01*
X172679297Y-200057260D01*
X173318105Y-200057260D01*
X173342213Y-200188617D01*
X173391377Y-200312790D01*
X173463722Y-200425048D01*
X173556495Y-200521117D01*
X173666160Y-200597336D01*
X173788541Y-200650803D01*
X173918977Y-200679481D01*
X174052498Y-200682278D01*
X174184020Y-200659087D01*
X174308533Y-200610792D01*
X174421294Y-200539232D01*
X174518008Y-200447132D01*
X174594991Y-200338002D01*
X174649311Y-200215997D01*
X174678899Y-200085765D01*
X174679297Y-200057260D01*
X175318105Y-200057260D01*
X175342213Y-200188617D01*
X175391377Y-200312790D01*
X175463722Y-200425048D01*
X175556495Y-200521117D01*
X175666160Y-200597336D01*
X175788541Y-200650803D01*
X175918977Y-200679481D01*
X176052498Y-200682278D01*
X176184020Y-200659087D01*
X176308533Y-200610792D01*
X176421294Y-200539232D01*
X176518008Y-200447132D01*
X176594991Y-200338002D01*
X176649311Y-200215997D01*
X176678899Y-200085765D01*
X176679297Y-200057260D01*
X177318105Y-200057260D01*
X177342213Y-200188617D01*
X177391377Y-200312790D01*
X177463722Y-200425048D01*
X177556495Y-200521117D01*
X177666160Y-200597336D01*
X177788541Y-200650803D01*
X177918977Y-200679481D01*
X178052498Y-200682278D01*
X178184020Y-200659087D01*
X178308533Y-200610792D01*
X178421294Y-200539232D01*
X178518008Y-200447132D01*
X178594991Y-200338002D01*
X178649311Y-200215997D01*
X178678899Y-200085765D01*
X178679297Y-200057260D01*
X179318105Y-200057260D01*
X179342213Y-200188617D01*
X179391377Y-200312790D01*
X179463722Y-200425048D01*
X179556495Y-200521117D01*
X179666160Y-200597336D01*
X179788541Y-200650803D01*
X179918977Y-200679481D01*
X180052498Y-200682278D01*
X180184020Y-200659087D01*
X180308533Y-200610792D01*
X180421294Y-200539232D01*
X180518008Y-200447132D01*
X180594991Y-200338002D01*
X180649311Y-200215997D01*
X180678899Y-200085765D01*
X180681029Y-199933225D01*
X180655089Y-199802217D01*
X180604197Y-199678743D01*
X180530291Y-199567506D01*
X180436186Y-199472742D01*
X180325467Y-199398061D01*
X180202352Y-199346308D01*
X180071528Y-199319454D01*
X179937981Y-199318521D01*
X179806795Y-199343546D01*
X179682969Y-199393575D01*
X179571218Y-199466703D01*
X179475800Y-199560144D01*
X179400348Y-199670338D01*
X179347736Y-199793090D01*
X179319970Y-199923722D01*
X179318105Y-200057260D01*
X178679297Y-200057260D01*
X178681029Y-199933225D01*
X178655089Y-199802217D01*
X178604197Y-199678743D01*
X178530291Y-199567506D01*
X178436186Y-199472742D01*
X178325467Y-199398061D01*
X178202352Y-199346308D01*
X178071528Y-199319454D01*
X177937981Y-199318521D01*
X177806795Y-199343546D01*
X177682969Y-199393575D01*
X177571218Y-199466703D01*
X177475800Y-199560144D01*
X177400348Y-199670338D01*
X177347736Y-199793090D01*
X177319970Y-199923722D01*
X177318105Y-200057260D01*
X176679297Y-200057260D01*
X176681029Y-199933225D01*
X176655089Y-199802217D01*
X176604197Y-199678743D01*
X176530291Y-199567506D01*
X176436186Y-199472742D01*
X176325467Y-199398061D01*
X176202352Y-199346308D01*
X176071528Y-199319454D01*
X175937981Y-199318521D01*
X175806795Y-199343546D01*
X175682969Y-199393575D01*
X175571218Y-199466703D01*
X175475800Y-199560144D01*
X175400348Y-199670338D01*
X175347736Y-199793090D01*
X175319970Y-199923722D01*
X175318105Y-200057260D01*
X174679297Y-200057260D01*
X174681029Y-199933225D01*
X174655089Y-199802217D01*
X174604197Y-199678743D01*
X174530291Y-199567506D01*
X174436186Y-199472742D01*
X174325467Y-199398061D01*
X174202352Y-199346308D01*
X174071528Y-199319454D01*
X173937981Y-199318521D01*
X173806795Y-199343546D01*
X173682969Y-199393575D01*
X173571218Y-199466703D01*
X173475800Y-199560144D01*
X173400348Y-199670338D01*
X173347736Y-199793090D01*
X173319970Y-199923722D01*
X173318105Y-200057260D01*
X172679297Y-200057260D01*
X172681029Y-199933225D01*
X172655089Y-199802217D01*
X172604197Y-199678743D01*
X172530291Y-199567506D01*
X172436186Y-199472742D01*
X172325467Y-199398061D01*
X172202352Y-199346308D01*
X172071528Y-199319454D01*
X171937981Y-199318521D01*
X171806795Y-199343546D01*
X171682969Y-199393575D01*
X171571218Y-199466703D01*
X171475800Y-199560144D01*
X171400348Y-199670338D01*
X171347736Y-199793090D01*
X171319970Y-199923722D01*
X171318105Y-200057260D01*
X170679297Y-200057260D01*
X170681029Y-199933225D01*
X170655089Y-199802217D01*
X170604197Y-199678743D01*
X170530291Y-199567506D01*
X170436186Y-199472742D01*
X170325467Y-199398061D01*
X170202352Y-199346308D01*
X170071528Y-199319454D01*
X169937981Y-199318521D01*
X169806795Y-199343546D01*
X169682969Y-199393575D01*
X169571218Y-199466703D01*
X169475800Y-199560144D01*
X169400348Y-199670338D01*
X169347736Y-199793090D01*
X169319970Y-199923722D01*
X169318105Y-200057260D01*
X164906088Y-200057260D01*
X164905089Y-200052217D01*
X164854197Y-199928743D01*
X164780291Y-199817506D01*
X164686186Y-199722742D01*
X164575467Y-199648061D01*
X164452352Y-199596308D01*
X164321528Y-199569454D01*
X164187981Y-199568521D01*
X164056795Y-199593546D01*
X163932969Y-199643575D01*
X163821218Y-199716703D01*
X163725800Y-199810144D01*
X163650348Y-199920338D01*
X163597736Y-200043090D01*
X163569970Y-200173722D01*
X163568105Y-200307260D01*
X159030424Y-200307260D01*
X159146442Y-200046682D01*
X159289820Y-199415601D01*
X159300141Y-198676418D01*
X159174440Y-198041580D01*
X158927825Y-197443248D01*
X158569690Y-196904212D01*
X158113677Y-196445004D01*
X157577154Y-196083114D01*
X156980558Y-195832328D01*
X156346613Y-195702198D01*
X155699465Y-195697680D01*
X155063765Y-195818947D01*
X154463726Y-196061378D01*
X153922202Y-196415741D01*
X153459822Y-196868537D01*
X153094196Y-197402521D01*
X152839251Y-197997351D01*
X152704698Y-198630373D01*
X152695663Y-199277473D01*
X152812488Y-199914004D01*
X153050725Y-200515722D01*
X153401298Y-201059706D01*
X153850856Y-201525236D01*
X154278140Y-201822207D01*
X152350000Y-201240067D01*
X152350000Y-195057260D01*
X153318105Y-195057260D01*
X153342213Y-195188617D01*
X153391377Y-195312790D01*
X153463722Y-195425048D01*
X153556495Y-195521117D01*
X153666160Y-195597336D01*
X153788541Y-195650803D01*
X153918977Y-195679481D01*
X154052498Y-195682278D01*
X154184020Y-195659087D01*
X154308533Y-195610792D01*
X154421294Y-195539232D01*
X154518008Y-195447132D01*
X154594991Y-195338002D01*
X154649311Y-195215997D01*
X154678899Y-195085765D01*
X154681029Y-194933225D01*
X154655089Y-194802217D01*
X154604197Y-194678743D01*
X154530291Y-194567506D01*
X154436186Y-194472742D01*
X154325467Y-194398061D01*
X154202352Y-194346308D01*
X154071528Y-194319454D01*
X153937981Y-194318521D01*
X153806795Y-194343546D01*
X153682969Y-194393575D01*
X153571218Y-194466703D01*
X153475800Y-194560144D01*
X153400348Y-194670338D01*
X153347736Y-194793090D01*
X153319970Y-194923722D01*
X153318105Y-195057260D01*
X152350000Y-195057260D01*
X152350000Y-193057260D01*
X153318105Y-193057260D01*
X153342213Y-193188617D01*
X153391377Y-193312790D01*
X153463722Y-193425048D01*
X153556495Y-193521117D01*
X153666160Y-193597336D01*
X153788541Y-193650803D01*
X153918977Y-193679481D01*
X154052498Y-193682278D01*
X154184020Y-193659087D01*
X154308533Y-193610792D01*
X154421294Y-193539232D01*
X154518008Y-193447132D01*
X154594991Y-193338002D01*
X154649311Y-193215997D01*
X154678899Y-193085765D01*
X154681029Y-192933225D01*
X154655089Y-192802217D01*
X154604197Y-192678743D01*
X154530291Y-192567506D01*
X154436186Y-192472742D01*
X154325467Y-192398061D01*
X154202352Y-192346308D01*
X154071528Y-192319454D01*
X153937981Y-192318521D01*
X153806795Y-192343546D01*
X153682969Y-192393575D01*
X153571218Y-192466703D01*
X153475800Y-192560144D01*
X153400348Y-192670338D01*
X153347736Y-192793090D01*
X153319970Y-192923722D01*
X153318105Y-193057260D01*
X152350000Y-193057260D01*
X152350000Y-191057260D01*
X153318105Y-191057260D01*
X153342213Y-191188617D01*
X153391377Y-191312790D01*
X153463722Y-191425048D01*
X153556495Y-191521117D01*
X153666160Y-191597336D01*
X153788541Y-191650803D01*
X153918977Y-191679481D01*
X154052498Y-191682278D01*
X154184020Y-191659087D01*
X154308533Y-191610792D01*
X154421294Y-191539232D01*
X154518008Y-191447132D01*
X154594991Y-191338002D01*
X154649311Y-191215997D01*
X154678899Y-191085765D01*
X154681029Y-190933225D01*
X154655089Y-190802217D01*
X154604197Y-190678743D01*
X154530291Y-190567506D01*
X154436186Y-190472742D01*
X154325467Y-190398061D01*
X154202352Y-190346308D01*
X154071528Y-190319454D01*
X153937981Y-190318521D01*
X153806795Y-190343546D01*
X153682969Y-190393575D01*
X153571218Y-190466703D01*
X153475800Y-190560144D01*
X153400348Y-190670338D01*
X153347736Y-190793090D01*
X153319970Y-190923722D01*
X153318105Y-191057260D01*
X152350000Y-191057260D01*
X152350000Y-189057260D01*
X153318105Y-189057260D01*
X153342213Y-189188617D01*
X153391377Y-189312790D01*
X153463722Y-189425048D01*
X153556495Y-189521117D01*
X153666160Y-189597336D01*
X153788541Y-189650803D01*
X153918977Y-189679481D01*
X154052498Y-189682278D01*
X154184020Y-189659087D01*
X154308533Y-189610792D01*
X154421294Y-189539232D01*
X154518008Y-189447132D01*
X154594991Y-189338002D01*
X154649311Y-189215997D01*
X154678899Y-189085765D01*
X154681029Y-188933225D01*
X154655089Y-188802217D01*
X154604197Y-188678743D01*
X154530291Y-188567506D01*
X154436186Y-188472742D01*
X154325467Y-188398061D01*
X154202352Y-188346308D01*
X154071528Y-188319454D01*
X153937981Y-188318521D01*
X153806795Y-188343546D01*
X153682969Y-188393575D01*
X153571218Y-188466703D01*
X153475800Y-188560144D01*
X153400348Y-188670338D01*
X153347736Y-188793090D01*
X153319970Y-188923722D01*
X153318105Y-189057260D01*
X152350000Y-189057260D01*
X152350000Y-187057260D01*
X153318105Y-187057260D01*
X153342213Y-187188617D01*
X153391377Y-187312790D01*
X153463722Y-187425048D01*
X153556495Y-187521117D01*
X153666160Y-187597336D01*
X153788541Y-187650803D01*
X153918977Y-187679481D01*
X154052498Y-187682278D01*
X154184020Y-187659087D01*
X154308533Y-187610792D01*
X154421294Y-187539232D01*
X154518008Y-187447132D01*
X154594991Y-187338002D01*
X154649311Y-187215997D01*
X154678899Y-187085765D01*
X154681029Y-186933225D01*
X154655089Y-186802217D01*
X154604197Y-186678743D01*
X154530291Y-186567506D01*
X154436186Y-186472742D01*
X154325467Y-186398061D01*
X154202352Y-186346308D01*
X154071528Y-186319454D01*
X153937981Y-186318521D01*
X153806795Y-186343546D01*
X153682969Y-186393575D01*
X153571218Y-186466703D01*
X153475800Y-186560144D01*
X153400348Y-186670338D01*
X153347736Y-186793090D01*
X153319970Y-186923722D01*
X153318105Y-187057260D01*
X152350000Y-187057260D01*
X152350000Y-185057260D01*
X153318105Y-185057260D01*
X153342213Y-185188617D01*
X153391377Y-185312790D01*
X153463722Y-185425048D01*
X153556495Y-185521117D01*
X153666160Y-185597336D01*
X153788541Y-185650803D01*
X153918977Y-185679481D01*
X154052498Y-185682278D01*
X154184020Y-185659087D01*
X154308533Y-185610792D01*
X154421294Y-185539232D01*
X154518008Y-185447132D01*
X154594991Y-185338002D01*
X154649311Y-185215997D01*
X154678899Y-185085765D01*
X154681029Y-184933225D01*
X154655089Y-184802217D01*
X154604197Y-184678743D01*
X154530291Y-184567506D01*
X154436186Y-184472742D01*
X154325467Y-184398061D01*
X154202352Y-184346308D01*
X154071528Y-184319454D01*
X153937981Y-184318521D01*
X153806795Y-184343546D01*
X153682969Y-184393575D01*
X153571218Y-184466703D01*
X153475800Y-184560144D01*
X153400348Y-184670338D01*
X153347736Y-184793090D01*
X153319970Y-184923722D01*
X153318105Y-185057260D01*
X152350000Y-185057260D01*
X152350000Y-185000000D01*
X152346841Y-184967788D01*
X152344027Y-184935616D01*
X152343513Y-184933849D01*
X152343334Y-184932018D01*
X152333990Y-184901067D01*
X152324970Y-184870022D01*
X152324124Y-184868389D01*
X152323591Y-184866625D01*
X152308422Y-184838096D01*
X152293535Y-184809376D01*
X152292384Y-184807934D01*
X152291522Y-184806313D01*
X152271119Y-184781296D01*
X152250919Y-184755992D01*
X152248396Y-184753435D01*
X152248350Y-184753378D01*
X152248297Y-184753334D01*
X152247487Y-184752513D01*
X150350000Y-182855026D01*
X150350000Y-180277473D01*
X151695663Y-180277473D01*
X151812488Y-180914004D01*
X152050725Y-181515722D01*
X152401298Y-182059706D01*
X152850856Y-182525236D01*
X153382273Y-182894581D01*
X153975310Y-183153672D01*
X154607376Y-183292641D01*
X155254398Y-183306194D01*
X155891729Y-183193815D01*
X156391414Y-183000000D01*
X166248549Y-183000000D01*
X166248549Y-183500000D01*
X166252359Y-183547774D01*
X166277452Y-183628803D01*
X166324126Y-183699634D01*
X166388685Y-183754657D01*
X166466018Y-183789516D01*
X166550000Y-183801451D01*
X167450000Y-183801451D01*
X167497774Y-183797641D01*
X167578803Y-183772548D01*
X167649634Y-183725874D01*
X167704657Y-183661315D01*
X167739516Y-183583982D01*
X167751451Y-183500000D01*
X167751451Y-183000000D01*
X167747641Y-182952226D01*
X167722548Y-182871197D01*
X167675874Y-182800366D01*
X167611315Y-182745343D01*
X167533982Y-182710484D01*
X167450000Y-182698549D01*
X167450000Y-182511895D01*
X167518008Y-182447132D01*
X167594991Y-182338002D01*
X167649311Y-182215997D01*
X167678899Y-182085765D01*
X167681029Y-181933225D01*
X167655089Y-181802217D01*
X167604197Y-181678743D01*
X167530291Y-181567506D01*
X167436186Y-181472742D01*
X167325467Y-181398061D01*
X167202352Y-181346308D01*
X167071528Y-181319454D01*
X166937981Y-181318521D01*
X166806795Y-181343546D01*
X166682969Y-181393575D01*
X166571218Y-181466703D01*
X166475800Y-181560144D01*
X166400348Y-181670338D01*
X166347736Y-181793090D01*
X166319970Y-181923722D01*
X166318105Y-182057260D01*
X166342213Y-182188617D01*
X166391377Y-182312790D01*
X166463722Y-182425048D01*
X166550000Y-182514391D01*
X166550000Y-182698549D01*
X166502226Y-182702359D01*
X166421197Y-182727452D01*
X166350366Y-182774126D01*
X166295343Y-182838685D01*
X166260484Y-182916018D01*
X166248549Y-183000000D01*
X156391414Y-183000000D01*
X156495095Y-182959785D01*
X157041513Y-182613018D01*
X157510171Y-182166721D01*
X157883216Y-181637895D01*
X158146442Y-181046682D01*
X158289820Y-180415601D01*
X158300141Y-179676418D01*
X158174440Y-179041580D01*
X158095477Y-178850000D01*
X167395000Y-178850000D01*
X167395000Y-179514397D01*
X167410372Y-179591676D01*
X167440525Y-179664471D01*
X167484300Y-179729986D01*
X167540015Y-179785701D01*
X167605529Y-179829476D01*
X167678325Y-179859628D01*
X167755604Y-179875000D01*
X167945000Y-179875000D01*
X168045000Y-179775000D01*
X168045000Y-178750000D01*
X167495000Y-178750000D01*
X167395000Y-178850000D01*
X158095477Y-178850000D01*
X157927825Y-178443248D01*
X157569690Y-177904212D01*
X157551211Y-177885603D01*
X167395000Y-177885603D01*
X167395000Y-178550000D01*
X167495000Y-178650000D01*
X168045000Y-178650000D01*
X168045000Y-177625000D01*
X167945000Y-177525000D01*
X167755604Y-177525000D01*
X167678325Y-177540372D01*
X167605529Y-177570524D01*
X167540015Y-177614299D01*
X167484300Y-177670014D01*
X167440525Y-177735529D01*
X167410372Y-177808324D01*
X167395000Y-177885603D01*
X157551211Y-177885603D01*
X157113677Y-177445004D01*
X156577154Y-177083114D01*
X156141544Y-176900000D01*
X165225000Y-176900000D01*
X165225000Y-177189397D01*
X165240372Y-177266676D01*
X165270525Y-177339471D01*
X165314300Y-177404986D01*
X165370015Y-177460701D01*
X165435529Y-177504476D01*
X165508325Y-177534628D01*
X165585604Y-177550000D01*
X165850000Y-177550000D01*
X165950000Y-177450000D01*
X165950000Y-176800000D01*
X166050000Y-176800000D01*
X166050000Y-177450000D01*
X166150000Y-177550000D01*
X166414396Y-177550000D01*
X166491675Y-177534628D01*
X166564471Y-177504476D01*
X166629985Y-177460701D01*
X166685700Y-177404986D01*
X166729475Y-177339471D01*
X166759628Y-177266676D01*
X166775000Y-177189397D01*
X166775000Y-176900000D01*
X166675000Y-176800000D01*
X166050000Y-176800000D01*
X165950000Y-176800000D01*
X165325000Y-176800000D01*
X165225000Y-176900000D01*
X156141544Y-176900000D01*
X155980558Y-176832328D01*
X155346613Y-176702198D01*
X154699465Y-176697680D01*
X154063765Y-176818947D01*
X153463726Y-177061378D01*
X152922202Y-177415741D01*
X152459822Y-177868537D01*
X152094196Y-178402521D01*
X151839251Y-178997351D01*
X151704698Y-179630373D01*
X151695663Y-180277473D01*
X150350000Y-180277473D01*
X150350000Y-176057260D01*
X151318105Y-176057260D01*
X151342213Y-176188617D01*
X151391377Y-176312790D01*
X151463722Y-176425048D01*
X151556495Y-176521117D01*
X151666160Y-176597336D01*
X151788541Y-176650803D01*
X151918977Y-176679481D01*
X152052498Y-176682278D01*
X152184020Y-176659087D01*
X152308533Y-176610792D01*
X152421294Y-176539232D01*
X152518008Y-176447132D01*
X152594991Y-176338002D01*
X152649311Y-176215997D01*
X152678899Y-176085765D01*
X152679297Y-176057260D01*
X152818105Y-176057260D01*
X152842213Y-176188617D01*
X152891377Y-176312790D01*
X152963722Y-176425048D01*
X153056495Y-176521117D01*
X153166160Y-176597336D01*
X153288541Y-176650803D01*
X153418977Y-176679481D01*
X153552498Y-176682278D01*
X153684020Y-176659087D01*
X153808533Y-176610792D01*
X153921294Y-176539232D01*
X154018008Y-176447132D01*
X154094991Y-176338002D01*
X154149311Y-176215997D01*
X154178899Y-176085765D01*
X154179297Y-176057260D01*
X154318105Y-176057260D01*
X154342213Y-176188617D01*
X154391377Y-176312790D01*
X154463722Y-176425048D01*
X154556495Y-176521117D01*
X154666160Y-176597336D01*
X154788541Y-176650803D01*
X154918977Y-176679481D01*
X155052498Y-176682278D01*
X155184020Y-176659087D01*
X155308533Y-176610792D01*
X155421294Y-176539232D01*
X155518008Y-176447132D01*
X155594991Y-176338002D01*
X155607189Y-176310603D01*
X165225000Y-176310603D01*
X165225000Y-176600000D01*
X165325000Y-176700000D01*
X165950000Y-176700000D01*
X165950000Y-176680000D01*
X166050000Y-176680000D01*
X166050000Y-176700000D01*
X166675000Y-176700000D01*
X166775000Y-176600000D01*
X166775000Y-176310603D01*
X166759628Y-176233324D01*
X166729475Y-176160529D01*
X166685700Y-176095014D01*
X166629985Y-176039299D01*
X166564471Y-175995524D01*
X166491675Y-175965372D01*
X166414396Y-175950000D01*
X166393194Y-175950000D01*
X166422774Y-175947641D01*
X166503803Y-175922548D01*
X166523303Y-175909699D01*
X168181802Y-177568198D01*
X168192783Y-177577217D01*
X168145000Y-177625000D01*
X168145000Y-178650000D01*
X168165000Y-178650000D01*
X168165000Y-178750000D01*
X168145000Y-178750000D01*
X168145000Y-179775000D01*
X168245000Y-179875000D01*
X168434396Y-179875000D01*
X168511675Y-179859628D01*
X168584471Y-179829476D01*
X168649985Y-179785701D01*
X168705700Y-179729986D01*
X168749475Y-179664471D01*
X168779628Y-179591676D01*
X168783175Y-179573845D01*
X168792452Y-179603803D01*
X168839126Y-179674634D01*
X168903685Y-179729657D01*
X168965000Y-179757296D01*
X168965000Y-181251340D01*
X168952226Y-181252359D01*
X168871197Y-181277452D01*
X168800366Y-181324126D01*
X168745343Y-181388685D01*
X168710484Y-181466018D01*
X168698549Y-181550000D01*
X168698549Y-182450000D01*
X168702359Y-182497774D01*
X168727452Y-182578803D01*
X168774126Y-182649634D01*
X168838685Y-182704657D01*
X168850000Y-182709757D01*
X168850000Y-183084314D01*
X168767157Y-183167157D01*
X168743677Y-183195742D01*
X168719955Y-183224013D01*
X168718942Y-183225855D01*
X168717606Y-183227482D01*
X168700142Y-183260053D01*
X168682346Y-183292423D01*
X168681710Y-183294429D01*
X168680716Y-183296282D01*
X168669925Y-183331579D01*
X168658741Y-183366835D01*
X168658506Y-183368929D01*
X168657892Y-183370938D01*
X168654159Y-183407687D01*
X168650039Y-183444415D01*
X168650010Y-183448522D01*
X168650002Y-183448604D01*
X168650009Y-183448680D01*
X168650000Y-183450000D01*
X168650000Y-184297739D01*
X168649950Y-184297739D01*
X168602176Y-184301549D01*
X168521147Y-184326642D01*
X168450316Y-184373316D01*
X168395293Y-184437875D01*
X168360434Y-184515208D01*
X168348499Y-184599190D01*
X168348499Y-184599240D01*
X168164925Y-184599240D01*
X168032843Y-184467157D01*
X168004258Y-184443677D01*
X167975987Y-184419955D01*
X167974145Y-184418942D01*
X167972518Y-184417606D01*
X167939947Y-184400142D01*
X167907577Y-184382346D01*
X167905571Y-184381710D01*
X167903718Y-184380716D01*
X167868421Y-184369925D01*
X167833165Y-184358741D01*
X167831071Y-184358506D01*
X167829062Y-184357892D01*
X167792313Y-184354159D01*
X167755585Y-184350039D01*
X167751478Y-184350010D01*
X167751396Y-184350002D01*
X167751320Y-184350009D01*
X167750000Y-184350000D01*
X167708580Y-184350000D01*
X167675874Y-184300366D01*
X167611315Y-184245343D01*
X167533982Y-184210484D01*
X167450000Y-184198549D01*
X166550000Y-184198549D01*
X166502226Y-184202359D01*
X166421197Y-184227452D01*
X166350366Y-184274126D01*
X166295343Y-184338685D01*
X166260484Y-184416018D01*
X166248549Y-184500000D01*
X166248549Y-185000000D01*
X166252359Y-185047774D01*
X166277452Y-185128803D01*
X166324126Y-185199634D01*
X166388685Y-185254657D01*
X166466018Y-185289516D01*
X166550000Y-185301451D01*
X167450000Y-185301451D01*
X167497774Y-185297641D01*
X167578803Y-185272548D01*
X167649634Y-185225874D01*
X167654491Y-185220176D01*
X167716398Y-185282083D01*
X167744958Y-185305542D01*
X167773253Y-185329285D01*
X167775095Y-185330298D01*
X167776722Y-185331634D01*
X167809293Y-185349098D01*
X167841663Y-185366894D01*
X167843669Y-185367530D01*
X167845522Y-185368524D01*
X167880860Y-185379328D01*
X167916075Y-185390499D01*
X167918164Y-185390733D01*
X167920178Y-185391349D01*
X167956977Y-185395087D01*
X167993655Y-185399201D01*
X167997762Y-185399230D01*
X167997844Y-185399238D01*
X167997920Y-185399231D01*
X167999240Y-185399240D01*
X168348499Y-185399240D01*
X168348499Y-185399290D01*
X168352309Y-185447064D01*
X168377402Y-185528093D01*
X168424076Y-185598924D01*
X168488635Y-185653947D01*
X168565968Y-185688806D01*
X168647500Y-185700393D01*
X168647500Y-187547500D01*
X168651107Y-187584284D01*
X168654326Y-187621080D01*
X168654913Y-187623099D01*
X168655118Y-187625194D01*
X168665801Y-187660577D01*
X168676106Y-187696047D01*
X168677074Y-187697915D01*
X168677682Y-187699928D01*
X168695031Y-187732558D01*
X168712032Y-187765355D01*
X168713344Y-187766998D01*
X168714332Y-187768857D01*
X168737702Y-187797511D01*
X168760736Y-187826366D01*
X168763624Y-187829296D01*
X168763672Y-187829354D01*
X168763726Y-187829399D01*
X168764657Y-187830343D01*
X169350000Y-188415686D01*
X169350000Y-192315698D01*
X169353607Y-192352482D01*
X169356826Y-192389278D01*
X169357413Y-192391297D01*
X169357618Y-192393392D01*
X169368301Y-192428775D01*
X169378606Y-192464245D01*
X169379574Y-192466113D01*
X169380182Y-192468126D01*
X169397531Y-192500756D01*
X169414532Y-192533553D01*
X169415844Y-192535196D01*
X169416832Y-192537055D01*
X169440202Y-192565709D01*
X169463236Y-192594564D01*
X169466124Y-192597494D01*
X169466172Y-192597552D01*
X169466226Y-192597597D01*
X169467157Y-192598541D01*
X171661461Y-194792844D01*
X171690016Y-194816300D01*
X171718317Y-194840047D01*
X171720159Y-194841060D01*
X171721786Y-194842396D01*
X171754322Y-194859841D01*
X171786727Y-194877656D01*
X171788737Y-194878294D01*
X171790586Y-194879285D01*
X171825850Y-194890066D01*
X171861139Y-194901261D01*
X171863232Y-194901496D01*
X171865241Y-194902110D01*
X171901951Y-194905839D01*
X171938719Y-194909963D01*
X171942837Y-194909992D01*
X171942908Y-194909999D01*
X171942974Y-194909993D01*
X171944304Y-194910002D01*
X172844316Y-194910002D01*
X173427492Y-195493178D01*
X173221041Y-195450800D01*
X172985715Y-195449157D01*
X172754551Y-195493253D01*
X172536355Y-195581410D01*
X172339437Y-195710270D01*
X172171299Y-195874923D01*
X172038344Y-196069099D01*
X171945637Y-196285401D01*
X171896709Y-196515590D01*
X171893423Y-196750899D01*
X171935905Y-196982365D01*
X172022536Y-197201171D01*
X172150018Y-197398984D01*
X172313493Y-197568267D01*
X172506736Y-197702575D01*
X172722385Y-197796790D01*
X172952228Y-197847324D01*
X173187508Y-197852252D01*
X173419265Y-197811387D01*
X173638671Y-197726285D01*
X173837368Y-197600188D01*
X174007789Y-197437898D01*
X174143442Y-197245598D01*
X174239160Y-197030612D01*
X174291298Y-196801128D01*
X174295051Y-196532334D01*
X174252686Y-196318372D01*
X174439022Y-196504708D01*
X174436709Y-196515590D01*
X174433423Y-196750899D01*
X174475905Y-196982365D01*
X174562536Y-197201171D01*
X174690018Y-197398984D01*
X174853493Y-197568267D01*
X175046736Y-197702575D01*
X175262385Y-197796790D01*
X175492228Y-197847324D01*
X175727508Y-197852252D01*
X175959265Y-197811387D01*
X176178671Y-197726285D01*
X176377368Y-197600188D01*
X176547789Y-197437898D01*
X176683442Y-197245598D01*
X176779160Y-197030612D01*
X176831298Y-196801128D01*
X176835051Y-196532334D01*
X176789342Y-196301484D01*
X176699664Y-196083908D01*
X176569433Y-195887895D01*
X176403610Y-195720911D01*
X176208511Y-195589314D01*
X175991567Y-195498120D01*
X175761041Y-195450800D01*
X175525715Y-195449157D01*
X175294551Y-195493253D01*
X175076355Y-195581410D01*
X174879437Y-195710270D01*
X174827155Y-195761469D01*
X174376236Y-195310550D01*
X174457508Y-195312252D01*
X174689265Y-195271387D01*
X174908671Y-195186285D01*
X175107368Y-195060188D01*
X175277789Y-194897898D01*
X175413442Y-194705598D01*
X175509160Y-194490612D01*
X175561298Y-194261128D01*
X175561999Y-194210899D01*
X175703423Y-194210899D01*
X175745905Y-194442365D01*
X175832536Y-194661171D01*
X175960018Y-194858984D01*
X176123493Y-195028267D01*
X176316736Y-195162575D01*
X176532385Y-195256790D01*
X176762228Y-195307324D01*
X176997508Y-195312252D01*
X177229265Y-195271387D01*
X177448671Y-195186285D01*
X177647368Y-195060188D01*
X177650442Y-195057260D01*
X195318105Y-195057260D01*
X195342213Y-195188617D01*
X195391377Y-195312790D01*
X195463722Y-195425048D01*
X195556495Y-195521117D01*
X195666160Y-195597336D01*
X195788541Y-195650803D01*
X195918977Y-195679481D01*
X196052498Y-195682278D01*
X196184020Y-195659087D01*
X196308533Y-195610792D01*
X196421294Y-195539232D01*
X196518008Y-195447132D01*
X196594991Y-195338002D01*
X196649311Y-195215997D01*
X196678899Y-195085765D01*
X196681029Y-194933225D01*
X196655089Y-194802217D01*
X196604197Y-194678743D01*
X196530291Y-194567506D01*
X196436186Y-194472742D01*
X196325467Y-194398061D01*
X196202352Y-194346308D01*
X196071528Y-194319454D01*
X195937981Y-194318521D01*
X195806795Y-194343546D01*
X195682969Y-194393575D01*
X195571218Y-194466703D01*
X195475800Y-194560144D01*
X195400348Y-194670338D01*
X195347736Y-194793090D01*
X195319970Y-194923722D01*
X195318105Y-195057260D01*
X177650442Y-195057260D01*
X177817789Y-194897898D01*
X177953442Y-194705598D01*
X178049160Y-194490612D01*
X178101298Y-194261128D01*
X178105051Y-193992334D01*
X178059342Y-193761484D01*
X177969664Y-193543908D01*
X177839433Y-193347895D01*
X177673610Y-193180911D01*
X177490292Y-193057260D01*
X195318105Y-193057260D01*
X195342213Y-193188617D01*
X195391377Y-193312790D01*
X195463722Y-193425048D01*
X195556495Y-193521117D01*
X195666160Y-193597336D01*
X195788541Y-193650803D01*
X195918977Y-193679481D01*
X196052498Y-193682278D01*
X196184020Y-193659087D01*
X196308533Y-193610792D01*
X196421294Y-193539232D01*
X196518008Y-193447132D01*
X196594991Y-193338002D01*
X196649311Y-193215997D01*
X196678899Y-193085765D01*
X196681029Y-192933225D01*
X196655089Y-192802217D01*
X196604197Y-192678743D01*
X196530291Y-192567506D01*
X196436186Y-192472742D01*
X196325467Y-192398061D01*
X196202352Y-192346308D01*
X196071528Y-192319454D01*
X195937981Y-192318521D01*
X195806795Y-192343546D01*
X195682969Y-192393575D01*
X195571218Y-192466703D01*
X195475800Y-192560144D01*
X195400348Y-192670338D01*
X195347736Y-192793090D01*
X195319970Y-192923722D01*
X195318105Y-193057260D01*
X177490292Y-193057260D01*
X177478511Y-193049314D01*
X177261567Y-192958120D01*
X177031041Y-192910800D01*
X176795715Y-192909157D01*
X176564551Y-192953253D01*
X176346355Y-193041410D01*
X176149437Y-193170270D01*
X175981299Y-193334923D01*
X175848344Y-193529099D01*
X175755637Y-193745401D01*
X175706709Y-193975590D01*
X175703423Y-194210899D01*
X175561999Y-194210899D01*
X175565051Y-193992334D01*
X175519342Y-193761484D01*
X175429664Y-193543908D01*
X175299433Y-193347895D01*
X175133610Y-193180911D01*
X174938511Y-193049314D01*
X174721567Y-192958120D01*
X174491041Y-192910800D01*
X174255715Y-192909157D01*
X174024551Y-192953253D01*
X173806355Y-193041410D01*
X173609437Y-193170270D01*
X173441299Y-193334923D01*
X173308344Y-193529099D01*
X173230810Y-193710000D01*
X172275686Y-193710000D01*
X170650000Y-192084314D01*
X170650000Y-191057260D01*
X195318105Y-191057260D01*
X195342213Y-191188617D01*
X195391377Y-191312790D01*
X195463722Y-191425048D01*
X195556495Y-191521117D01*
X195666160Y-191597336D01*
X195788541Y-191650803D01*
X195918977Y-191679481D01*
X196052498Y-191682278D01*
X196184020Y-191659087D01*
X196308533Y-191610792D01*
X196421294Y-191539232D01*
X196518008Y-191447132D01*
X196594991Y-191338002D01*
X196649311Y-191215997D01*
X196678899Y-191085765D01*
X196681029Y-190933225D01*
X196655089Y-190802217D01*
X196604197Y-190678743D01*
X196530291Y-190567506D01*
X196436186Y-190472742D01*
X196325467Y-190398061D01*
X196202352Y-190346308D01*
X196071528Y-190319454D01*
X195937981Y-190318521D01*
X195806795Y-190343546D01*
X195682969Y-190393575D01*
X195571218Y-190466703D01*
X195475800Y-190560144D01*
X195400348Y-190670338D01*
X195347736Y-190793090D01*
X195319970Y-190923722D01*
X195318105Y-191057260D01*
X170650000Y-191057260D01*
X170650000Y-188455938D01*
X170873905Y-188232033D01*
X170847736Y-188293090D01*
X170819970Y-188423722D01*
X170818105Y-188557260D01*
X170842213Y-188688617D01*
X170891377Y-188812790D01*
X170963722Y-188925048D01*
X171056495Y-189021117D01*
X171166160Y-189097336D01*
X171288541Y-189150803D01*
X171418977Y-189179481D01*
X171552498Y-189182278D01*
X171684020Y-189159087D01*
X171808533Y-189110792D01*
X171892886Y-189057260D01*
X195318105Y-189057260D01*
X195342213Y-189188617D01*
X195391377Y-189312790D01*
X195463722Y-189425048D01*
X195556495Y-189521117D01*
X195666160Y-189597336D01*
X195788541Y-189650803D01*
X195918977Y-189679481D01*
X196052498Y-189682278D01*
X196184020Y-189659087D01*
X196308533Y-189610792D01*
X196421294Y-189539232D01*
X196518008Y-189447132D01*
X196594991Y-189338002D01*
X196649311Y-189215997D01*
X196678899Y-189085765D01*
X196681029Y-188933225D01*
X196655089Y-188802217D01*
X196604197Y-188678743D01*
X196530291Y-188567506D01*
X196436186Y-188472742D01*
X196325467Y-188398061D01*
X196202352Y-188346308D01*
X196071528Y-188319454D01*
X195937981Y-188318521D01*
X195806795Y-188343546D01*
X195682969Y-188393575D01*
X195571218Y-188466703D01*
X195475800Y-188560144D01*
X195400348Y-188670338D01*
X195347736Y-188793090D01*
X195319970Y-188923722D01*
X195318105Y-189057260D01*
X171892886Y-189057260D01*
X171921294Y-189039232D01*
X172018008Y-188947132D01*
X172094991Y-188838002D01*
X172149311Y-188715997D01*
X172178899Y-188585765D01*
X172181029Y-188433225D01*
X172173002Y-188392684D01*
X174665685Y-185900000D01*
X176198549Y-185900000D01*
X176198549Y-185950000D01*
X176202359Y-185997774D01*
X176227452Y-186078803D01*
X176274126Y-186149634D01*
X176338685Y-186204657D01*
X176416018Y-186239516D01*
X176500000Y-186251451D01*
X177000000Y-186251451D01*
X177047774Y-186247641D01*
X177128803Y-186222548D01*
X177199634Y-186175874D01*
X177254657Y-186111315D01*
X177289516Y-186033982D01*
X177301451Y-185950000D01*
X177301451Y-185050000D01*
X177297641Y-185002226D01*
X177272548Y-184921197D01*
X177225874Y-184850366D01*
X177161315Y-184795343D01*
X177083982Y-184760484D01*
X177000000Y-184748549D01*
X176500000Y-184748549D01*
X176452226Y-184752359D01*
X176371197Y-184777452D01*
X176300366Y-184824126D01*
X176245343Y-184888685D01*
X176210484Y-184966018D01*
X176198549Y-185050000D01*
X176198549Y-185100000D01*
X174500000Y-185100000D01*
X174463216Y-185103607D01*
X174426420Y-185106826D01*
X174424401Y-185107413D01*
X174422306Y-185107618D01*
X174386970Y-185118287D01*
X174351453Y-185128605D01*
X174349581Y-185129576D01*
X174347572Y-185130182D01*
X174315017Y-185147492D01*
X174282145Y-185164531D01*
X174280498Y-185165846D01*
X174278643Y-185166832D01*
X174250047Y-185190155D01*
X174221134Y-185213235D01*
X174218207Y-185216122D01*
X174218146Y-185216172D01*
X174218099Y-185216229D01*
X174217158Y-185217157D01*
X171607480Y-187826834D01*
X171571528Y-187819454D01*
X171437981Y-187818521D01*
X171306795Y-187843546D01*
X171232290Y-187873648D01*
X171235343Y-187870595D01*
X171258823Y-187842010D01*
X171282545Y-187813739D01*
X171283558Y-187811897D01*
X171284894Y-187810270D01*
X171302358Y-187777699D01*
X171320154Y-187745329D01*
X171320790Y-187743323D01*
X171321784Y-187741470D01*
X171332575Y-187706173D01*
X171343759Y-187670917D01*
X171343994Y-187668823D01*
X171344608Y-187666814D01*
X171348341Y-187630065D01*
X171352461Y-187593337D01*
X171352490Y-187589230D01*
X171352498Y-187589148D01*
X171352491Y-187589072D01*
X171352500Y-187587752D01*
X171352500Y-185700546D01*
X171397824Y-185696931D01*
X171478853Y-185671838D01*
X171549684Y-185625164D01*
X171604707Y-185560605D01*
X171639566Y-185483272D01*
X171651501Y-185399290D01*
X171651501Y-185399240D01*
X172089017Y-185399240D01*
X172095811Y-185399978D01*
X172097206Y-185399856D01*
X172098604Y-185399998D01*
X172136146Y-185396449D01*
X172173580Y-185393174D01*
X172174925Y-185392783D01*
X172176324Y-185392651D01*
X172212438Y-185381885D01*
X172248547Y-185371394D01*
X172249792Y-185370749D01*
X172251136Y-185370348D01*
X172284449Y-185352784D01*
X172317855Y-185335468D01*
X172318950Y-185334594D01*
X172320192Y-185333939D01*
X172349489Y-185310215D01*
X172378866Y-185286764D01*
X172380782Y-185284875D01*
X172380861Y-185284811D01*
X172380926Y-185284733D01*
X172382843Y-185282843D01*
X172404086Y-185261599D01*
X172466018Y-185289516D01*
X172550000Y-185301451D01*
X173450000Y-185301451D01*
X173497774Y-185297641D01*
X173578803Y-185272548D01*
X173649634Y-185225874D01*
X173704657Y-185161315D01*
X173739516Y-185083982D01*
X173751451Y-185000000D01*
X173751451Y-184500000D01*
X173747641Y-184452226D01*
X173722548Y-184371197D01*
X173675874Y-184300366D01*
X173611315Y-184245343D01*
X173533982Y-184210484D01*
X173450000Y-184198549D01*
X172550000Y-184198549D01*
X172502226Y-184202359D01*
X172421197Y-184227452D01*
X172350366Y-184274126D01*
X172295343Y-184338685D01*
X172287607Y-184355847D01*
X172276420Y-184356826D01*
X172274401Y-184357413D01*
X172272306Y-184357618D01*
X172236923Y-184368301D01*
X172201453Y-184378606D01*
X172199585Y-184379574D01*
X172197572Y-184380182D01*
X172164963Y-184397521D01*
X172132144Y-184414532D01*
X172130499Y-184415845D01*
X172128643Y-184416832D01*
X172100011Y-184440184D01*
X172071134Y-184463236D01*
X172068209Y-184466121D01*
X172068146Y-184466172D01*
X172068098Y-184466230D01*
X172067157Y-184467158D01*
X171935074Y-184599240D01*
X171651501Y-184599240D01*
X171651501Y-184599190D01*
X171647691Y-184551416D01*
X171622598Y-184470387D01*
X171575924Y-184399556D01*
X171511365Y-184344533D01*
X171434032Y-184309674D01*
X171350050Y-184297739D01*
X171350000Y-184297739D01*
X171350000Y-183450000D01*
X171346393Y-183413216D01*
X171345237Y-183400000D01*
X172150000Y-183400000D01*
X172150000Y-183539397D01*
X172165372Y-183616676D01*
X172195525Y-183689471D01*
X172239300Y-183754986D01*
X172295015Y-183810701D01*
X172360529Y-183854476D01*
X172433325Y-183884628D01*
X172510604Y-183900000D01*
X172850000Y-183900000D01*
X172950000Y-183800000D01*
X172950000Y-183300000D01*
X173050000Y-183300000D01*
X173050000Y-183800000D01*
X173150000Y-183900000D01*
X173489396Y-183900000D01*
X173566675Y-183884628D01*
X173639471Y-183854476D01*
X173704985Y-183810701D01*
X173760700Y-183754986D01*
X173804475Y-183689471D01*
X173834628Y-183616676D01*
X173850000Y-183539397D01*
X173850000Y-183400000D01*
X173750000Y-183300000D01*
X173050000Y-183300000D01*
X172950000Y-183300000D01*
X172250000Y-183300000D01*
X172150000Y-183400000D01*
X171345237Y-183400000D01*
X171343174Y-183376420D01*
X171342587Y-183374401D01*
X171342382Y-183372306D01*
X171331713Y-183336970D01*
X171321395Y-183301453D01*
X171320424Y-183299581D01*
X171319818Y-183297572D01*
X171302508Y-183265017D01*
X171285469Y-183232145D01*
X171284154Y-183230498D01*
X171283168Y-183228643D01*
X171259845Y-183200047D01*
X171236765Y-183171134D01*
X171233873Y-183168201D01*
X171233828Y-183168146D01*
X171233775Y-183168103D01*
X171232843Y-183167157D01*
X171150000Y-183084314D01*
X171150000Y-182960603D01*
X172150000Y-182960603D01*
X172150000Y-183100000D01*
X172250000Y-183200000D01*
X172950000Y-183200000D01*
X172950000Y-182700000D01*
X173050000Y-182700000D01*
X173050000Y-183200000D01*
X173750000Y-183200000D01*
X173850000Y-183100000D01*
X173850000Y-182960603D01*
X173834628Y-182883324D01*
X173804475Y-182810529D01*
X173760700Y-182745014D01*
X173704985Y-182689299D01*
X173639471Y-182645524D01*
X173566675Y-182615372D01*
X173489396Y-182600000D01*
X173150000Y-182600000D01*
X173050000Y-182700000D01*
X172950000Y-182700000D01*
X172850000Y-182600000D01*
X172510604Y-182600000D01*
X172433325Y-182615372D01*
X172360529Y-182645524D01*
X172295015Y-182689299D01*
X172239300Y-182745014D01*
X172195525Y-182810529D01*
X172165372Y-182883324D01*
X172150000Y-182960603D01*
X171150000Y-182960603D01*
X171150000Y-182708580D01*
X171199634Y-182675874D01*
X171254657Y-182611315D01*
X171289516Y-182533982D01*
X171301451Y-182450000D01*
X171301451Y-181550000D01*
X171297641Y-181502226D01*
X171272548Y-181421197D01*
X171225874Y-181350366D01*
X171161315Y-181295343D01*
X171083982Y-181260484D01*
X171035000Y-181253523D01*
X171035000Y-181150000D01*
X178450000Y-181150000D01*
X178450000Y-181414396D01*
X178465372Y-181491675D01*
X178495524Y-181564471D01*
X178539299Y-181629985D01*
X178595014Y-181685700D01*
X178660529Y-181729475D01*
X178733324Y-181759628D01*
X178810603Y-181775000D01*
X179100000Y-181775000D01*
X179200000Y-181675000D01*
X179200000Y-181050000D01*
X178550000Y-181050000D01*
X178450000Y-181150000D01*
X171035000Y-181150000D01*
X171035000Y-180585604D01*
X178450000Y-180585604D01*
X178450000Y-180850000D01*
X178550000Y-180950000D01*
X179200000Y-180950000D01*
X179200000Y-180325000D01*
X179300000Y-180325000D01*
X179300000Y-180950000D01*
X179320000Y-180950000D01*
X179320000Y-181050000D01*
X179300000Y-181050000D01*
X179300000Y-181675000D01*
X179400000Y-181775000D01*
X179689397Y-181775000D01*
X179766676Y-181759628D01*
X179839471Y-181729475D01*
X179904986Y-181685700D01*
X179960701Y-181629985D01*
X180004476Y-181564471D01*
X180034628Y-181491675D01*
X180050000Y-181414396D01*
X180050000Y-181393194D01*
X180052359Y-181422774D01*
X180077452Y-181503803D01*
X180124126Y-181574634D01*
X180188685Y-181629657D01*
X180266018Y-181664516D01*
X180300000Y-181669345D01*
X180300000Y-181846291D01*
X180182969Y-181893575D01*
X180071218Y-181966703D01*
X179975800Y-182060144D01*
X179900348Y-182170338D01*
X179847736Y-182293090D01*
X179819970Y-182423722D01*
X179818105Y-182557260D01*
X179842213Y-182688617D01*
X179891377Y-182812790D01*
X179963722Y-182925048D01*
X180056495Y-183021117D01*
X180166160Y-183097336D01*
X180288541Y-183150803D01*
X180418977Y-183179481D01*
X180552498Y-183182278D01*
X180684020Y-183159087D01*
X180808533Y-183110792D01*
X180921294Y-183039232D01*
X181018008Y-182947132D01*
X181094991Y-182838002D01*
X181149311Y-182715997D01*
X181178899Y-182585765D01*
X181181029Y-182433225D01*
X181173667Y-182396041D01*
X181177614Y-182383131D01*
X181190166Y-182343560D01*
X181190429Y-182341213D01*
X181191122Y-182338947D01*
X181195325Y-182297571D01*
X181199956Y-182256283D01*
X181199988Y-182251656D01*
X181199997Y-182251571D01*
X181199990Y-182251492D01*
X181200000Y-182250000D01*
X181200000Y-181671952D01*
X181278803Y-181647548D01*
X181349634Y-181600874D01*
X181404657Y-181536315D01*
X181439516Y-181458982D01*
X181451451Y-181375000D01*
X181451451Y-180625000D01*
X181447641Y-180577226D01*
X181422548Y-180496197D01*
X181375874Y-180425366D01*
X181311315Y-180370343D01*
X181233982Y-180335484D01*
X181150000Y-180323549D01*
X180350000Y-180323549D01*
X180302226Y-180327359D01*
X180221197Y-180352452D01*
X180150366Y-180399126D01*
X180095343Y-180463685D01*
X180060484Y-180541018D01*
X180050000Y-180614790D01*
X180050000Y-180585604D01*
X180034628Y-180508325D01*
X180004476Y-180435529D01*
X179960701Y-180370015D01*
X179904986Y-180314300D01*
X179839471Y-180270525D01*
X179766676Y-180240372D01*
X179689397Y-180225000D01*
X179400000Y-180225000D01*
X179300000Y-180325000D01*
X179200000Y-180325000D01*
X179100000Y-180225000D01*
X178810603Y-180225000D01*
X178733324Y-180240372D01*
X178660529Y-180270525D01*
X178595014Y-180314300D01*
X178539299Y-180370015D01*
X178495524Y-180435529D01*
X178465372Y-180508325D01*
X178450000Y-180585604D01*
X171035000Y-180585604D01*
X171035000Y-179756468D01*
X171063803Y-179747548D01*
X171134634Y-179700874D01*
X171189657Y-179636315D01*
X171224516Y-179558982D01*
X171236451Y-179475000D01*
X171236451Y-178122847D01*
X171303549Y-178189945D01*
X171303549Y-179475000D01*
X171307359Y-179522774D01*
X171332452Y-179603803D01*
X171379126Y-179674634D01*
X171443685Y-179729657D01*
X171521018Y-179764516D01*
X171605000Y-179776451D01*
X172205000Y-179776451D01*
X172252774Y-179772641D01*
X172333803Y-179747548D01*
X172404634Y-179700874D01*
X172459657Y-179636315D01*
X172494516Y-179558982D01*
X172506451Y-179475000D01*
X172506451Y-177925000D01*
X172502641Y-177877226D01*
X172477548Y-177796197D01*
X172430874Y-177725366D01*
X172366315Y-177670343D01*
X172288982Y-177635484D01*
X172205000Y-177623549D01*
X172009945Y-177623549D01*
X171679495Y-177293099D01*
X171681029Y-177183225D01*
X171655089Y-177052217D01*
X171604197Y-176928743D01*
X171530291Y-176817506D01*
X171436186Y-176722742D01*
X171325467Y-176648061D01*
X171202352Y-176596308D01*
X171071528Y-176569454D01*
X170937981Y-176568521D01*
X170806795Y-176593546D01*
X170682969Y-176643575D01*
X170571218Y-176716703D01*
X170486159Y-176800000D01*
X168686396Y-176800000D01*
X166665472Y-174779076D01*
X166647548Y-174721197D01*
X166600874Y-174650366D01*
X166536315Y-174595343D01*
X166458982Y-174560484D01*
X166375000Y-174548549D01*
X165625000Y-174548549D01*
X165577226Y-174552359D01*
X165496197Y-174577452D01*
X165425366Y-174624126D01*
X165370343Y-174688685D01*
X165335484Y-174766018D01*
X165323549Y-174850000D01*
X165323549Y-175650000D01*
X165327359Y-175697774D01*
X165352452Y-175778803D01*
X165399126Y-175849634D01*
X165463685Y-175904657D01*
X165541018Y-175939516D01*
X165614790Y-175950000D01*
X165585604Y-175950000D01*
X165508325Y-175965372D01*
X165435529Y-175995524D01*
X165370015Y-176039299D01*
X165314300Y-176095014D01*
X165270525Y-176160529D01*
X165240372Y-176233324D01*
X165225000Y-176310603D01*
X155607189Y-176310603D01*
X155649311Y-176215997D01*
X155678899Y-176085765D01*
X155681029Y-175933225D01*
X155655089Y-175802217D01*
X155604197Y-175678743D01*
X155530291Y-175567506D01*
X155436186Y-175472742D01*
X155325467Y-175398061D01*
X155202352Y-175346308D01*
X155071528Y-175319454D01*
X154937981Y-175318521D01*
X154806795Y-175343546D01*
X154682969Y-175393575D01*
X154571218Y-175466703D01*
X154475800Y-175560144D01*
X154400348Y-175670338D01*
X154347736Y-175793090D01*
X154319970Y-175923722D01*
X154318105Y-176057260D01*
X154179297Y-176057260D01*
X154181029Y-175933225D01*
X154155089Y-175802217D01*
X154104197Y-175678743D01*
X154030291Y-175567506D01*
X153936186Y-175472742D01*
X153825467Y-175398061D01*
X153702352Y-175346308D01*
X153571528Y-175319454D01*
X153437981Y-175318521D01*
X153306795Y-175343546D01*
X153182969Y-175393575D01*
X153071218Y-175466703D01*
X152975800Y-175560144D01*
X152900348Y-175670338D01*
X152847736Y-175793090D01*
X152819970Y-175923722D01*
X152818105Y-176057260D01*
X152679297Y-176057260D01*
X152681029Y-175933225D01*
X152655089Y-175802217D01*
X152604197Y-175678743D01*
X152530291Y-175567506D01*
X152436186Y-175472742D01*
X152325467Y-175398061D01*
X152202352Y-175346308D01*
X152071528Y-175319454D01*
X151937981Y-175318521D01*
X151806795Y-175343546D01*
X151682969Y-175393575D01*
X151571218Y-175466703D01*
X151475800Y-175560144D01*
X151400348Y-175670338D01*
X151347736Y-175793090D01*
X151319970Y-175923722D01*
X151318105Y-176057260D01*
X150350000Y-176057260D01*
X150350000Y-173857260D01*
X159518105Y-173857260D01*
X159542213Y-173988617D01*
X159591377Y-174112790D01*
X159663722Y-174225048D01*
X159756495Y-174321117D01*
X159866160Y-174397336D01*
X159988541Y-174450803D01*
X160118977Y-174479481D01*
X160252498Y-174482278D01*
X160384020Y-174459087D01*
X160508533Y-174410792D01*
X160621294Y-174339232D01*
X160718008Y-174247132D01*
X160794991Y-174138002D01*
X160849311Y-174015997D01*
X160878899Y-173885765D01*
X160881029Y-173733225D01*
X160855089Y-173602217D01*
X160804197Y-173478743D01*
X160730291Y-173367506D01*
X160636186Y-173272742D01*
X160525467Y-173198061D01*
X160402352Y-173146308D01*
X160271528Y-173119454D01*
X160137981Y-173118521D01*
X160006795Y-173143546D01*
X159882969Y-173193575D01*
X159771218Y-173266703D01*
X159675800Y-173360144D01*
X159600348Y-173470338D01*
X159547736Y-173593090D01*
X159519970Y-173723722D01*
X159518105Y-173857260D01*
X150350000Y-173857260D01*
X150350000Y-171531877D01*
X156677660Y-171531877D01*
X156698243Y-171758037D01*
X156762361Y-171975892D01*
X156867573Y-172177145D01*
X157009872Y-172354128D01*
X157183836Y-172500102D01*
X157382841Y-172609506D01*
X157599306Y-172678173D01*
X157824986Y-172703487D01*
X157841232Y-172703600D01*
X158158768Y-172703600D01*
X158384779Y-172681439D01*
X158602181Y-172615802D01*
X158772954Y-172525000D01*
X167493549Y-172525000D01*
X167493549Y-174075000D01*
X167497359Y-174122774D01*
X167522452Y-174203803D01*
X167569126Y-174274634D01*
X167633685Y-174329657D01*
X167711018Y-174364516D01*
X167795000Y-174376451D01*
X168395000Y-174376451D01*
X168442774Y-174372641D01*
X168523803Y-174347548D01*
X168594634Y-174300874D01*
X168649657Y-174236315D01*
X168684516Y-174158982D01*
X168696451Y-174075000D01*
X168696451Y-172525000D01*
X168692641Y-172477226D01*
X168668726Y-172400000D01*
X168793973Y-172400000D01*
X168775484Y-172441018D01*
X168763549Y-172525000D01*
X168763549Y-174075000D01*
X168767359Y-174122774D01*
X168792452Y-174203803D01*
X168839126Y-174274634D01*
X168903685Y-174329657D01*
X168965000Y-174357296D01*
X168965000Y-175115000D01*
X168968607Y-175151784D01*
X168971826Y-175188580D01*
X168972413Y-175190599D01*
X168972618Y-175192694D01*
X168983301Y-175228077D01*
X168993606Y-175263547D01*
X168994574Y-175265415D01*
X168995182Y-175267428D01*
X169012531Y-175300058D01*
X169029532Y-175332855D01*
X169030844Y-175334498D01*
X169031832Y-175336357D01*
X169055202Y-175365011D01*
X169078236Y-175393866D01*
X169081124Y-175396796D01*
X169081172Y-175396854D01*
X169081226Y-175396899D01*
X169082157Y-175397843D01*
X169717158Y-176032843D01*
X169745718Y-176056302D01*
X169774013Y-176080045D01*
X169775855Y-176081058D01*
X169777482Y-176082394D01*
X169810053Y-176099858D01*
X169842423Y-176117654D01*
X169844429Y-176118290D01*
X169846282Y-176119284D01*
X169881620Y-176130088D01*
X169916835Y-176141259D01*
X169918924Y-176141493D01*
X169920938Y-176142109D01*
X169957737Y-176145847D01*
X169994415Y-176149961D01*
X169998522Y-176149990D01*
X169998604Y-176149998D01*
X169998680Y-176149991D01*
X170000000Y-176150000D01*
X171584314Y-176150000D01*
X174642517Y-179208203D01*
X174671102Y-179231683D01*
X174699373Y-179255405D01*
X174701215Y-179256418D01*
X174702842Y-179257754D01*
X174735413Y-179275218D01*
X174767783Y-179293014D01*
X174769789Y-179293650D01*
X174771642Y-179294644D01*
X174806939Y-179305435D01*
X174842195Y-179316619D01*
X174844289Y-179316854D01*
X174846298Y-179317468D01*
X174883002Y-179321196D01*
X174919775Y-179325321D01*
X174923893Y-179325350D01*
X174923964Y-179325357D01*
X174924030Y-179325351D01*
X174925360Y-179325360D01*
X176083131Y-179325360D01*
X176099126Y-179349634D01*
X176163685Y-179404657D01*
X176241018Y-179439516D01*
X176325000Y-179451451D01*
X177775000Y-179451451D01*
X177822774Y-179447641D01*
X177903803Y-179422548D01*
X177974634Y-179375874D01*
X178029657Y-179311315D01*
X178064516Y-179233982D01*
X178076451Y-179150000D01*
X178076451Y-178700000D01*
X178072641Y-178652226D01*
X178056805Y-178601089D01*
X178064516Y-178583982D01*
X178076451Y-178500000D01*
X178076451Y-178050000D01*
X178074448Y-178024880D01*
X178561909Y-178024880D01*
X178666160Y-178097336D01*
X178788541Y-178150803D01*
X178918977Y-178179481D01*
X179052498Y-178182278D01*
X179184020Y-178159087D01*
X179308533Y-178110792D01*
X179421294Y-178039232D01*
X179518008Y-177947132D01*
X179594991Y-177838002D01*
X179600000Y-177826752D01*
X179600000Y-178250000D01*
X179603607Y-178286784D01*
X179606826Y-178323580D01*
X179607413Y-178325599D01*
X179607618Y-178327694D01*
X179618301Y-178363077D01*
X179628606Y-178398547D01*
X179629574Y-178400415D01*
X179630182Y-178402428D01*
X179647531Y-178435058D01*
X179664532Y-178467855D01*
X179665844Y-178469498D01*
X179666832Y-178471357D01*
X179690193Y-178500000D01*
X179713236Y-178528866D01*
X179716124Y-178531796D01*
X179716172Y-178531854D01*
X179716226Y-178531899D01*
X179717157Y-178532843D01*
X180967157Y-179782843D01*
X180995742Y-179806323D01*
X181024013Y-179830045D01*
X181025855Y-179831058D01*
X181027482Y-179832394D01*
X181060053Y-179849858D01*
X181092423Y-179867654D01*
X181094429Y-179868290D01*
X181096282Y-179869284D01*
X181131579Y-179880075D01*
X181166835Y-179891259D01*
X181168929Y-179891494D01*
X181170938Y-179892108D01*
X181207687Y-179895841D01*
X181244415Y-179899961D01*
X181248522Y-179899990D01*
X181248604Y-179899998D01*
X181248680Y-179899991D01*
X181250000Y-179900000D01*
X185750000Y-179900000D01*
X185786784Y-179896393D01*
X185823580Y-179893174D01*
X185825599Y-179892587D01*
X185827694Y-179892382D01*
X185863077Y-179881699D01*
X185898547Y-179871394D01*
X185900415Y-179870426D01*
X185902428Y-179869818D01*
X185935058Y-179852469D01*
X185967855Y-179835468D01*
X185969498Y-179834156D01*
X185971357Y-179833168D01*
X186000011Y-179809798D01*
X186028866Y-179786764D01*
X186031796Y-179783876D01*
X186031854Y-179783828D01*
X186031899Y-179783774D01*
X186032843Y-179782843D01*
X187392112Y-178423574D01*
X187418977Y-178429481D01*
X187438721Y-178429895D01*
X180768616Y-185100000D01*
X178801451Y-185100000D01*
X178801451Y-185050000D01*
X178797641Y-185002226D01*
X178772548Y-184921197D01*
X178725874Y-184850366D01*
X178661315Y-184795343D01*
X178583982Y-184760484D01*
X178500000Y-184748549D01*
X178000000Y-184748549D01*
X177952226Y-184752359D01*
X177871197Y-184777452D01*
X177800366Y-184824126D01*
X177745343Y-184888685D01*
X177710484Y-184966018D01*
X177698549Y-185050000D01*
X177698549Y-185950000D01*
X177702359Y-185997774D01*
X177727452Y-186078803D01*
X177774126Y-186149634D01*
X177838685Y-186204657D01*
X177916018Y-186239516D01*
X178000000Y-186251451D01*
X178500000Y-186251451D01*
X178547774Y-186247641D01*
X178628803Y-186222548D01*
X178699634Y-186175874D01*
X178754657Y-186111315D01*
X178789516Y-186033982D01*
X178801451Y-185950000D01*
X178801451Y-185900000D01*
X180173151Y-185900000D01*
X180071218Y-185966703D01*
X179975800Y-186060144D01*
X179900348Y-186170338D01*
X179847736Y-186293090D01*
X179819970Y-186423722D01*
X179818105Y-186557260D01*
X179842213Y-186688617D01*
X179891377Y-186812790D01*
X179963722Y-186925048D01*
X180056495Y-187021117D01*
X180166160Y-187097336D01*
X180288541Y-187150803D01*
X180418977Y-187179481D01*
X180552498Y-187182278D01*
X180684020Y-187159087D01*
X180808533Y-187110792D01*
X180892886Y-187057260D01*
X195318105Y-187057260D01*
X195342213Y-187188617D01*
X195391377Y-187312790D01*
X195463722Y-187425048D01*
X195556495Y-187521117D01*
X195666160Y-187597336D01*
X195788541Y-187650803D01*
X195918977Y-187679481D01*
X196052498Y-187682278D01*
X196184020Y-187659087D01*
X196308533Y-187610792D01*
X196421294Y-187539232D01*
X196518008Y-187447132D01*
X196594991Y-187338002D01*
X196649311Y-187215997D01*
X196678899Y-187085765D01*
X196681029Y-186933225D01*
X196655089Y-186802217D01*
X196604197Y-186678743D01*
X196530291Y-186567506D01*
X196436186Y-186472742D01*
X196325467Y-186398061D01*
X196202352Y-186346308D01*
X196071528Y-186319454D01*
X195937981Y-186318521D01*
X195806795Y-186343546D01*
X195682969Y-186393575D01*
X195571218Y-186466703D01*
X195475800Y-186560144D01*
X195400348Y-186670338D01*
X195347736Y-186793090D01*
X195319970Y-186923722D01*
X195318105Y-187057260D01*
X180892886Y-187057260D01*
X180921294Y-187039232D01*
X181018008Y-186947132D01*
X181094991Y-186838002D01*
X181149311Y-186715997D01*
X181178899Y-186585765D01*
X181181029Y-186433225D01*
X181173002Y-186392684D01*
X182508425Y-185057260D01*
X195318105Y-185057260D01*
X195342213Y-185188617D01*
X195391377Y-185312790D01*
X195463722Y-185425048D01*
X195556495Y-185521117D01*
X195666160Y-185597336D01*
X195788541Y-185650803D01*
X195918977Y-185679481D01*
X196052498Y-185682278D01*
X196184020Y-185659087D01*
X196308533Y-185610792D01*
X196421294Y-185539232D01*
X196518008Y-185447132D01*
X196594991Y-185338002D01*
X196649311Y-185215997D01*
X196678899Y-185085765D01*
X196681029Y-184933225D01*
X196655089Y-184802217D01*
X196604197Y-184678743D01*
X196530291Y-184567506D01*
X196436186Y-184472742D01*
X196325467Y-184398061D01*
X196202352Y-184346308D01*
X196071528Y-184319454D01*
X195937981Y-184318521D01*
X195806795Y-184343546D01*
X195682969Y-184393575D01*
X195571218Y-184466703D01*
X195475800Y-184560144D01*
X195400348Y-184670338D01*
X195347736Y-184793090D01*
X195319970Y-184923722D01*
X195318105Y-185057260D01*
X182508425Y-185057260D01*
X187288212Y-180277473D01*
X191695663Y-180277473D01*
X191812488Y-180914004D01*
X192050725Y-181515722D01*
X192401298Y-182059706D01*
X192850856Y-182525236D01*
X193382273Y-182894581D01*
X193975310Y-183153672D01*
X194607376Y-183292641D01*
X195254398Y-183306194D01*
X195891729Y-183193815D01*
X196495095Y-182959785D01*
X197041513Y-182613018D01*
X197510171Y-182166721D01*
X197883216Y-181637895D01*
X198146442Y-181046682D01*
X198289820Y-180415601D01*
X198300141Y-179676418D01*
X198174440Y-179041580D01*
X197927825Y-178443248D01*
X197569690Y-177904212D01*
X197113677Y-177445004D01*
X196577154Y-177083114D01*
X195980558Y-176832328D01*
X195346613Y-176702198D01*
X194699465Y-176697680D01*
X194063765Y-176818947D01*
X193463726Y-177061378D01*
X192922202Y-177415741D01*
X192459822Y-177868537D01*
X192094196Y-178402521D01*
X191839251Y-178997351D01*
X191704698Y-179630373D01*
X191695663Y-180277473D01*
X187288212Y-180277473D01*
X188782772Y-178782913D01*
X188782843Y-178782843D01*
X188863854Y-178701832D01*
X188887334Y-178673247D01*
X188911056Y-178644976D01*
X188912069Y-178643134D01*
X188913405Y-178641507D01*
X188930869Y-178608936D01*
X188948665Y-178576566D01*
X188949301Y-178574560D01*
X188950295Y-178572707D01*
X188961086Y-178537410D01*
X188972270Y-178502154D01*
X188972505Y-178500060D01*
X188973119Y-178498051D01*
X188976852Y-178461302D01*
X188980972Y-178424574D01*
X188981001Y-178420467D01*
X188981009Y-178420385D01*
X188981002Y-178420309D01*
X188981011Y-178418989D01*
X188981011Y-177257430D01*
X188977405Y-177220654D01*
X188974185Y-177183849D01*
X188973598Y-177181829D01*
X188973393Y-177179736D01*
X188962714Y-177144365D01*
X188952405Y-177108883D01*
X188951437Y-177107015D01*
X188950829Y-177105002D01*
X188933490Y-177072393D01*
X188916479Y-177039574D01*
X188915166Y-177037929D01*
X188914179Y-177036073D01*
X188890827Y-177007441D01*
X188867775Y-176978564D01*
X188864890Y-176975639D01*
X188864839Y-176975576D01*
X188864781Y-176975528D01*
X188863853Y-176974587D01*
X188275413Y-176386148D01*
X188246853Y-176362689D01*
X188218558Y-176338946D01*
X188216716Y-176337933D01*
X188215089Y-176336597D01*
X188182518Y-176319133D01*
X188150148Y-176301337D01*
X188148142Y-176300701D01*
X188146289Y-176299707D01*
X188110992Y-176288916D01*
X188075736Y-176277732D01*
X188073642Y-176277497D01*
X188071633Y-176276883D01*
X188034889Y-176273150D01*
X187998156Y-176269030D01*
X187994048Y-176269001D01*
X187993966Y-176268993D01*
X187993890Y-176269000D01*
X187992571Y-176268991D01*
X186265311Y-176268991D01*
X186228527Y-176272598D01*
X186191731Y-176275817D01*
X186189712Y-176276404D01*
X186187617Y-176276609D01*
X186152281Y-176287278D01*
X186116764Y-176297596D01*
X186114892Y-176298567D01*
X186112883Y-176299173D01*
X186080328Y-176316483D01*
X186047456Y-176333522D01*
X186045809Y-176334837D01*
X186043954Y-176335823D01*
X186015358Y-176359146D01*
X185986445Y-176382226D01*
X185983514Y-176385117D01*
X185983457Y-176385163D01*
X185983414Y-176385216D01*
X185982468Y-176386148D01*
X184493616Y-177875000D01*
X183972898Y-177875000D01*
X183976451Y-177850000D01*
X183976451Y-177400000D01*
X183972641Y-177352226D01*
X183956805Y-177301089D01*
X183964516Y-177283982D01*
X183976451Y-177200000D01*
X183976451Y-176750000D01*
X183972641Y-176702226D01*
X183956805Y-176651089D01*
X183964516Y-176633982D01*
X183976451Y-176550000D01*
X183976451Y-176164235D01*
X183985701Y-176154985D01*
X184029476Y-176089471D01*
X184042817Y-176057260D01*
X194318105Y-176057260D01*
X194342213Y-176188617D01*
X194391377Y-176312790D01*
X194463722Y-176425048D01*
X194556495Y-176521117D01*
X194666160Y-176597336D01*
X194788541Y-176650803D01*
X194918977Y-176679481D01*
X195052498Y-176682278D01*
X195184020Y-176659087D01*
X195308533Y-176610792D01*
X195421294Y-176539232D01*
X195518008Y-176447132D01*
X195594991Y-176338002D01*
X195649311Y-176215997D01*
X195678899Y-176085765D01*
X195679297Y-176057260D01*
X195818105Y-176057260D01*
X195842213Y-176188617D01*
X195891377Y-176312790D01*
X195963722Y-176425048D01*
X196056495Y-176521117D01*
X196166160Y-176597336D01*
X196288541Y-176650803D01*
X196418977Y-176679481D01*
X196552498Y-176682278D01*
X196684020Y-176659087D01*
X196808533Y-176610792D01*
X196921294Y-176539232D01*
X197018008Y-176447132D01*
X197094991Y-176338002D01*
X197149311Y-176215997D01*
X197178899Y-176085765D01*
X197179297Y-176057260D01*
X197318105Y-176057260D01*
X197342213Y-176188617D01*
X197391377Y-176312790D01*
X197463722Y-176425048D01*
X197556495Y-176521117D01*
X197666160Y-176597336D01*
X197788541Y-176650803D01*
X197918977Y-176679481D01*
X198052498Y-176682278D01*
X198184020Y-176659087D01*
X198308533Y-176610792D01*
X198421294Y-176539232D01*
X198518008Y-176447132D01*
X198594991Y-176338002D01*
X198649311Y-176215997D01*
X198678899Y-176085765D01*
X198681029Y-175933225D01*
X198655089Y-175802217D01*
X198604197Y-175678743D01*
X198530291Y-175567506D01*
X198436186Y-175472742D01*
X198325467Y-175398061D01*
X198202352Y-175346308D01*
X198071528Y-175319454D01*
X197937981Y-175318521D01*
X197806795Y-175343546D01*
X197682969Y-175393575D01*
X197571218Y-175466703D01*
X197475800Y-175560144D01*
X197400348Y-175670338D01*
X197347736Y-175793090D01*
X197319970Y-175923722D01*
X197318105Y-176057260D01*
X197179297Y-176057260D01*
X197181029Y-175933225D01*
X197155089Y-175802217D01*
X197104197Y-175678743D01*
X197030291Y-175567506D01*
X196936186Y-175472742D01*
X196825467Y-175398061D01*
X196702352Y-175346308D01*
X196571528Y-175319454D01*
X196437981Y-175318521D01*
X196306795Y-175343546D01*
X196182969Y-175393575D01*
X196071218Y-175466703D01*
X195975800Y-175560144D01*
X195900348Y-175670338D01*
X195847736Y-175793090D01*
X195819970Y-175923722D01*
X195818105Y-176057260D01*
X195679297Y-176057260D01*
X195681029Y-175933225D01*
X195655089Y-175802217D01*
X195604197Y-175678743D01*
X195530291Y-175567506D01*
X195436186Y-175472742D01*
X195325467Y-175398061D01*
X195202352Y-175346308D01*
X195071528Y-175319454D01*
X194937981Y-175318521D01*
X194806795Y-175343546D01*
X194682969Y-175393575D01*
X194571218Y-175466703D01*
X194475800Y-175560144D01*
X194400348Y-175670338D01*
X194347736Y-175793090D01*
X194319970Y-175923722D01*
X194318105Y-176057260D01*
X184042817Y-176057260D01*
X184059628Y-176016675D01*
X184075000Y-175939396D01*
X184075000Y-175825000D01*
X183975000Y-175725000D01*
X183000000Y-175725000D01*
X183000000Y-175745000D01*
X182900000Y-175745000D01*
X182900000Y-175725000D01*
X181925000Y-175725000D01*
X181825000Y-175825000D01*
X181825000Y-175939396D01*
X181840372Y-176016675D01*
X181870524Y-176089471D01*
X181914299Y-176154985D01*
X181923549Y-176164235D01*
X181923549Y-176550000D01*
X181927359Y-176597774D01*
X181943195Y-176648911D01*
X181935484Y-176666018D01*
X181923549Y-176750000D01*
X181923549Y-177200000D01*
X181927359Y-177247774D01*
X181943195Y-177298911D01*
X181935484Y-177316018D01*
X181923549Y-177400000D01*
X181923549Y-177850000D01*
X181927359Y-177897774D01*
X181943195Y-177948911D01*
X181935484Y-177966018D01*
X181923549Y-178050000D01*
X181923549Y-178500000D01*
X181927359Y-178547774D01*
X181943195Y-178598911D01*
X181935484Y-178616018D01*
X181923549Y-178700000D01*
X181923549Y-179100000D01*
X181415686Y-179100000D01*
X180400000Y-178084314D01*
X180400000Y-177500000D01*
X180396393Y-177463216D01*
X180393174Y-177426420D01*
X180392587Y-177424401D01*
X180392382Y-177422306D01*
X180381699Y-177386923D01*
X180371394Y-177351453D01*
X180370426Y-177349585D01*
X180369818Y-177347572D01*
X180352469Y-177314942D01*
X180335468Y-177282145D01*
X180334156Y-177280502D01*
X180333168Y-177278643D01*
X180309798Y-177249989D01*
X180286764Y-177221134D01*
X180283876Y-177218204D01*
X180283828Y-177218146D01*
X180283774Y-177218101D01*
X180282843Y-177217157D01*
X179764285Y-176698599D01*
X179791339Y-176695947D01*
X179832778Y-176692321D01*
X179835050Y-176691661D01*
X179837405Y-176691430D01*
X179877204Y-176679414D01*
X179895068Y-176674224D01*
X179918977Y-176679481D01*
X180052498Y-176682278D01*
X180184020Y-176659087D01*
X180308533Y-176610792D01*
X180421294Y-176539232D01*
X180518008Y-176447132D01*
X180594991Y-176338002D01*
X180649311Y-176215997D01*
X180678899Y-176085765D01*
X180681029Y-175933225D01*
X180655089Y-175802217D01*
X180604197Y-175678743D01*
X180530291Y-175567506D01*
X180436186Y-175472742D01*
X180325467Y-175398061D01*
X180202352Y-175346308D01*
X180071528Y-175319454D01*
X179937981Y-175318521D01*
X179806795Y-175343546D01*
X179682969Y-175393575D01*
X179571218Y-175466703D01*
X179475800Y-175560144D01*
X179400348Y-175670338D01*
X179347736Y-175793090D01*
X179346267Y-175800000D01*
X178500000Y-175800000D01*
X178458615Y-175804058D01*
X178417221Y-175807680D01*
X178414954Y-175808339D01*
X178412595Y-175808570D01*
X178372734Y-175820605D01*
X178332884Y-175832182D01*
X178330787Y-175833269D01*
X178328518Y-175833954D01*
X178291752Y-175853503D01*
X178254912Y-175872599D01*
X178253066Y-175874073D01*
X178252450Y-175874400D01*
X178175000Y-175874400D01*
X178175000Y-175825000D01*
X178075000Y-175725000D01*
X177100000Y-175725000D01*
X177100000Y-175745000D01*
X177000000Y-175745000D01*
X177000000Y-175725000D01*
X176025000Y-175725000D01*
X175925000Y-175825000D01*
X175925000Y-175939396D01*
X175940372Y-176016675D01*
X175970524Y-176089471D01*
X176014299Y-176154985D01*
X176023549Y-176164235D01*
X176023549Y-176550000D01*
X176027359Y-176597774D01*
X176043195Y-176648911D01*
X176035484Y-176666018D01*
X176023549Y-176750000D01*
X176023549Y-177200000D01*
X176027359Y-177247774D01*
X176043195Y-177298911D01*
X176035484Y-177316018D01*
X176023549Y-177400000D01*
X176023549Y-177850000D01*
X176025552Y-177875120D01*
X175440806Y-177875120D01*
X172282843Y-174717157D01*
X172254258Y-174693677D01*
X172225987Y-174669955D01*
X172224145Y-174668942D01*
X172222518Y-174667606D01*
X172189947Y-174650142D01*
X172157577Y-174632346D01*
X172155571Y-174631710D01*
X172153718Y-174630716D01*
X172118421Y-174619925D01*
X172083165Y-174608741D01*
X172081071Y-174608506D01*
X172079062Y-174607892D01*
X172042313Y-174604159D01*
X172005585Y-174600039D01*
X172001478Y-174600010D01*
X172001396Y-174600002D01*
X172001320Y-174600009D01*
X172000000Y-174600000D01*
X171301880Y-174600000D01*
X171280291Y-174567506D01*
X171186186Y-174472742D01*
X171075467Y-174398061D01*
X171001327Y-174366895D01*
X171063803Y-174347548D01*
X171134634Y-174300874D01*
X171189657Y-174236315D01*
X171224516Y-174158982D01*
X171236451Y-174075000D01*
X171236451Y-172525000D01*
X171232641Y-172477226D01*
X171208726Y-172400000D01*
X171333973Y-172400000D01*
X171315484Y-172441018D01*
X171303549Y-172525000D01*
X171303549Y-174075000D01*
X171307359Y-174122774D01*
X171332452Y-174203803D01*
X171379126Y-174274634D01*
X171443685Y-174329657D01*
X171521018Y-174364516D01*
X171605000Y-174376451D01*
X172205000Y-174376451D01*
X172252774Y-174372641D01*
X172333803Y-174347548D01*
X172404634Y-174300874D01*
X172459657Y-174236315D01*
X172494516Y-174158982D01*
X172506451Y-174075000D01*
X172506451Y-173733000D01*
X173667314Y-173733000D01*
X174753292Y-174818977D01*
X174687981Y-174818521D01*
X174556795Y-174843546D01*
X174432969Y-174893575D01*
X174321218Y-174966703D01*
X174225800Y-175060144D01*
X174150348Y-175170338D01*
X174097736Y-175293090D01*
X174069970Y-175423722D01*
X174068105Y-175557260D01*
X174092213Y-175688617D01*
X174141377Y-175812790D01*
X174213722Y-175925048D01*
X174306495Y-176021117D01*
X174416160Y-176097336D01*
X174538541Y-176150803D01*
X174668977Y-176179481D01*
X174802498Y-176182278D01*
X174934020Y-176159087D01*
X175058533Y-176110792D01*
X175171294Y-176039232D01*
X175268008Y-175947132D01*
X175344991Y-175838002D01*
X175399311Y-175715997D01*
X175428899Y-175585765D01*
X175431029Y-175433225D01*
X175426720Y-175411464D01*
X175441835Y-175416259D01*
X175443928Y-175416494D01*
X175445937Y-175417108D01*
X175482647Y-175420837D01*
X175519415Y-175424961D01*
X175523533Y-175424990D01*
X175523604Y-175424997D01*
X175523670Y-175424991D01*
X175525000Y-175425000D01*
X175925000Y-175425000D01*
X175925000Y-175525000D01*
X176025000Y-175625000D01*
X177000000Y-175625000D01*
X177000000Y-175605000D01*
X177100000Y-175605000D01*
X177100000Y-175625000D01*
X178075000Y-175625000D01*
X178175000Y-175525000D01*
X178175000Y-175410604D01*
X178159628Y-175333325D01*
X178129476Y-175260529D01*
X178085701Y-175195015D01*
X178076451Y-175185765D01*
X178076451Y-174800000D01*
X178072641Y-174752226D01*
X178056805Y-174701089D01*
X178064516Y-174683982D01*
X178076451Y-174600000D01*
X178076451Y-174150000D01*
X178074457Y-174125000D01*
X179775000Y-174125000D01*
X179811784Y-174121393D01*
X179848580Y-174118174D01*
X179850599Y-174117587D01*
X179852694Y-174117382D01*
X179888077Y-174106699D01*
X179923547Y-174096394D01*
X179925415Y-174095426D01*
X179927428Y-174094818D01*
X179960058Y-174077469D01*
X179992855Y-174060468D01*
X179994498Y-174059156D01*
X179996357Y-174058168D01*
X180025011Y-174034798D01*
X180053866Y-174011764D01*
X180056796Y-174008876D01*
X180056854Y-174008828D01*
X180056899Y-174008774D01*
X180057843Y-174007843D01*
X180568950Y-173496735D01*
X180568105Y-173557260D01*
X180592213Y-173688617D01*
X180641377Y-173812790D01*
X180713722Y-173925048D01*
X180806495Y-174021117D01*
X180916160Y-174097336D01*
X181038541Y-174150803D01*
X181168977Y-174179481D01*
X181302498Y-174182278D01*
X181434020Y-174159087D01*
X181558533Y-174110792D01*
X181671294Y-174039232D01*
X181768008Y-173947132D01*
X181844991Y-173838002D01*
X181899311Y-173715997D01*
X181923549Y-173609313D01*
X181923549Y-173950000D01*
X181927359Y-173997774D01*
X181943195Y-174048911D01*
X181935484Y-174066018D01*
X181923549Y-174150000D01*
X181923549Y-174600000D01*
X181927359Y-174647774D01*
X181943195Y-174698911D01*
X181935484Y-174716018D01*
X181923549Y-174800000D01*
X181923549Y-175185765D01*
X181914299Y-175195015D01*
X181870524Y-175260529D01*
X181840372Y-175333325D01*
X181825000Y-175410604D01*
X181825000Y-175525000D01*
X181925000Y-175625000D01*
X182900000Y-175625000D01*
X182900000Y-175605000D01*
X183000000Y-175605000D01*
X183000000Y-175625000D01*
X183975000Y-175625000D01*
X184075000Y-175525000D01*
X184075000Y-175410604D01*
X184059628Y-175333325D01*
X184029476Y-175260529D01*
X183985701Y-175195015D01*
X183976451Y-175185765D01*
X183976451Y-174800000D01*
X183972641Y-174752226D01*
X183956805Y-174701089D01*
X183964516Y-174683982D01*
X183976451Y-174600000D01*
X183976451Y-174150000D01*
X183972641Y-174102226D01*
X183956805Y-174051089D01*
X183964516Y-174033982D01*
X183976451Y-173950000D01*
X183976451Y-173500000D01*
X183972641Y-173452226D01*
X183956805Y-173401089D01*
X183964516Y-173383982D01*
X183976451Y-173300000D01*
X183976451Y-172900000D01*
X185173151Y-172900000D01*
X185071218Y-172966703D01*
X184975800Y-173060144D01*
X184900348Y-173170338D01*
X184847736Y-173293090D01*
X184819970Y-173423722D01*
X184818105Y-173557260D01*
X184842213Y-173688617D01*
X184891377Y-173812790D01*
X184963722Y-173925048D01*
X185056495Y-174021117D01*
X185166160Y-174097336D01*
X185288541Y-174150803D01*
X185418977Y-174179481D01*
X185552498Y-174182278D01*
X185684020Y-174159087D01*
X185808533Y-174110792D01*
X185921294Y-174039232D01*
X186018008Y-173947132D01*
X186051256Y-173900000D01*
X190584000Y-173900000D01*
X190584000Y-174652996D01*
X190599372Y-174730275D01*
X190629524Y-174803071D01*
X190673299Y-174868585D01*
X190729014Y-174924300D01*
X190794529Y-174968075D01*
X190867324Y-174998228D01*
X190944603Y-175013600D01*
X191850000Y-175013600D01*
X191950000Y-174913600D01*
X191950000Y-173800000D01*
X192050000Y-173800000D01*
X192050000Y-174913600D01*
X192150000Y-175013600D01*
X193055397Y-175013600D01*
X193132676Y-174998228D01*
X193205471Y-174968075D01*
X193270986Y-174924300D01*
X193326701Y-174868585D01*
X193370476Y-174803071D01*
X193400628Y-174730275D01*
X193416000Y-174652996D01*
X193416000Y-173900000D01*
X193316000Y-173800000D01*
X192050000Y-173800000D01*
X191950000Y-173800000D01*
X190684000Y-173800000D01*
X190584000Y-173900000D01*
X186051256Y-173900000D01*
X186094991Y-173838002D01*
X186149311Y-173715997D01*
X186178899Y-173585765D01*
X186181029Y-173433225D01*
X186155089Y-173302217D01*
X186104197Y-173178743D01*
X186030291Y-173067506D01*
X185936186Y-172972742D01*
X185828342Y-172900000D01*
X189447580Y-172900000D01*
X189463722Y-172925048D01*
X189556495Y-173021117D01*
X189666160Y-173097336D01*
X189788541Y-173150803D01*
X189918977Y-173179481D01*
X190052498Y-173182278D01*
X190184020Y-173159087D01*
X190308533Y-173110792D01*
X190421294Y-173039232D01*
X190518008Y-172947132D01*
X190584000Y-172853583D01*
X190584000Y-173600000D01*
X190684000Y-173700000D01*
X191950000Y-173700000D01*
X191950000Y-172586400D01*
X192050000Y-172586400D01*
X192050000Y-173700000D01*
X193316000Y-173700000D01*
X193416000Y-173600000D01*
X193416000Y-172847004D01*
X193400628Y-172769725D01*
X193370476Y-172696929D01*
X193326701Y-172631415D01*
X193270986Y-172575700D01*
X193205471Y-172531925D01*
X193132676Y-172501772D01*
X193055397Y-172486400D01*
X192150000Y-172486400D01*
X192050000Y-172586400D01*
X191950000Y-172586400D01*
X191850000Y-172486400D01*
X190944603Y-172486400D01*
X190867324Y-172501772D01*
X190794529Y-172531925D01*
X190729014Y-172575700D01*
X190673299Y-172631415D01*
X190666069Y-172642235D01*
X190678899Y-172585765D01*
X190681029Y-172433225D01*
X190655089Y-172302217D01*
X190604197Y-172178743D01*
X190530291Y-172067506D01*
X190436186Y-171972742D01*
X190325467Y-171898061D01*
X190202352Y-171846308D01*
X190071528Y-171819454D01*
X189937981Y-171818521D01*
X189806795Y-171843546D01*
X189682969Y-171893575D01*
X189571218Y-171966703D01*
X189475800Y-172060144D01*
X189448510Y-172100000D01*
X181000000Y-172100000D01*
X180963216Y-172103607D01*
X180961970Y-172103716D01*
X181395685Y-171670000D01*
X190774964Y-171670000D01*
X190867573Y-171847145D01*
X191009872Y-172024128D01*
X191183836Y-172170102D01*
X191382841Y-172279506D01*
X191599306Y-172348173D01*
X191824986Y-172373487D01*
X191841232Y-172373600D01*
X192158768Y-172373600D01*
X192384779Y-172351439D01*
X192602181Y-172285802D01*
X192802694Y-172179187D01*
X192978680Y-172035657D01*
X193123436Y-171860677D01*
X193231448Y-171660913D01*
X193298602Y-171443974D01*
X193322340Y-171218123D01*
X193301757Y-170991963D01*
X193237639Y-170774108D01*
X193132427Y-170572855D01*
X192990128Y-170395872D01*
X192816164Y-170249898D01*
X192617159Y-170140494D01*
X192400694Y-170071827D01*
X192175014Y-170046513D01*
X192158768Y-170046400D01*
X191841232Y-170046400D01*
X191615221Y-170068561D01*
X191397819Y-170134198D01*
X191197306Y-170240813D01*
X191021320Y-170384343D01*
X190876564Y-170559323D01*
X190768552Y-170759087D01*
X190734219Y-170870000D01*
X181230000Y-170870000D01*
X181193171Y-170873611D01*
X181156420Y-170876826D01*
X181154401Y-170877413D01*
X181152306Y-170877618D01*
X181116923Y-170888301D01*
X181081453Y-170898606D01*
X181079585Y-170899574D01*
X181077572Y-170900182D01*
X181044963Y-170917521D01*
X181012144Y-170934532D01*
X181010499Y-170935845D01*
X181008643Y-170936832D01*
X180980011Y-170960184D01*
X180951134Y-170983236D01*
X180948209Y-170986121D01*
X180948146Y-170986172D01*
X180948098Y-170986230D01*
X180947157Y-170987158D01*
X179259314Y-172675000D01*
X178017107Y-172675000D01*
X178000874Y-172650366D01*
X177936315Y-172595343D01*
X177858982Y-172560484D01*
X177775000Y-172548549D01*
X176325000Y-172548549D01*
X176277226Y-172552359D01*
X176196197Y-172577452D01*
X176125366Y-172624126D01*
X176070343Y-172688685D01*
X176035484Y-172766018D01*
X176023549Y-172850000D01*
X176023549Y-173300000D01*
X176027359Y-173347774D01*
X176043195Y-173398911D01*
X176035484Y-173416018D01*
X176023549Y-173500000D01*
X176023549Y-173950000D01*
X176024230Y-173958544D01*
X173782843Y-171717157D01*
X173754258Y-171693677D01*
X173725987Y-171669955D01*
X173724145Y-171668942D01*
X173722518Y-171667606D01*
X173689947Y-171650142D01*
X173657577Y-171632346D01*
X173655571Y-171631710D01*
X173653718Y-171630716D01*
X173618421Y-171619925D01*
X173583165Y-171608741D01*
X173581071Y-171608506D01*
X173579062Y-171607892D01*
X173542313Y-171604159D01*
X173505585Y-171600039D01*
X173501478Y-171600010D01*
X173501396Y-171600002D01*
X173501320Y-171600009D01*
X173500000Y-171600000D01*
X168500000Y-171600000D01*
X168463171Y-171603611D01*
X168426420Y-171606826D01*
X168424401Y-171607413D01*
X168422306Y-171607618D01*
X168386923Y-171618301D01*
X168351453Y-171628606D01*
X168349585Y-171629574D01*
X168347572Y-171630182D01*
X168314963Y-171647521D01*
X168282144Y-171664532D01*
X168280499Y-171665845D01*
X168278643Y-171666832D01*
X168250011Y-171690184D01*
X168221134Y-171713236D01*
X168218209Y-171716121D01*
X168218146Y-171716172D01*
X168218098Y-171716230D01*
X168217157Y-171717158D01*
X167812157Y-172122157D01*
X167788677Y-172150742D01*
X167764955Y-172179013D01*
X167763942Y-172180855D01*
X167762606Y-172182482D01*
X167745142Y-172215053D01*
X167736561Y-172230662D01*
X167666197Y-172252452D01*
X167595366Y-172299126D01*
X167540343Y-172363685D01*
X167505484Y-172441018D01*
X167493549Y-172525000D01*
X158772954Y-172525000D01*
X158802694Y-172509187D01*
X158978680Y-172365657D01*
X159123436Y-172190677D01*
X159231448Y-171990913D01*
X159298602Y-171773974D01*
X159322340Y-171548123D01*
X159301757Y-171321963D01*
X159237639Y-171104108D01*
X159132427Y-170902855D01*
X158990128Y-170725872D01*
X158816164Y-170579898D01*
X158617159Y-170470494D01*
X158400694Y-170401827D01*
X158175014Y-170376513D01*
X158158768Y-170376400D01*
X157841232Y-170376400D01*
X157615221Y-170398561D01*
X157397819Y-170464198D01*
X157197306Y-170570813D01*
X157021320Y-170714343D01*
X156876564Y-170889323D01*
X156768552Y-171089087D01*
X156701398Y-171306026D01*
X156677660Y-171531877D01*
X150350000Y-171531877D01*
X150350000Y-169246900D01*
X156608357Y-169246900D01*
X156661052Y-169437365D01*
X156769177Y-169660445D01*
X156918745Y-169858145D01*
X157104009Y-170022867D01*
X157317848Y-170148280D01*
X157552045Y-170229566D01*
X157797600Y-170263600D01*
X157950000Y-170263600D01*
X157950000Y-169050000D01*
X158050000Y-169050000D01*
X158050000Y-170263600D01*
X158202400Y-170263600D01*
X158447955Y-170229566D01*
X158682152Y-170148280D01*
X158895991Y-170022867D01*
X159081255Y-169858145D01*
X159230823Y-169660445D01*
X159338948Y-169437365D01*
X159391643Y-169246900D01*
X159314925Y-169050000D01*
X158050000Y-169050000D01*
X157950000Y-169050000D01*
X156685075Y-169050000D01*
X156608357Y-169246900D01*
X150350000Y-169246900D01*
X150350000Y-168753100D01*
X156608357Y-168753100D01*
X156685075Y-168950000D01*
X157950000Y-168950000D01*
X157950000Y-167736400D01*
X158050000Y-167736400D01*
X158050000Y-168950000D01*
X159314925Y-168950000D01*
X159391643Y-168753100D01*
X159338948Y-168562635D01*
X159307236Y-168497207D01*
X163200005Y-168497207D01*
X163214699Y-168652647D01*
X163259304Y-168802273D01*
X163332122Y-168940385D01*
X163430379Y-169061723D01*
X163550333Y-169161665D01*
X163687415Y-169236404D01*
X163836404Y-169283094D01*
X163991623Y-169299956D01*
X164147161Y-169286349D01*
X164297094Y-169242789D01*
X164435711Y-169170936D01*
X164557732Y-169073529D01*
X164565685Y-169065685D01*
X165331371Y-168300000D01*
X166198549Y-168300000D01*
X166198549Y-170000000D01*
X166202359Y-170047774D01*
X166227452Y-170128803D01*
X166274126Y-170199634D01*
X166338685Y-170254657D01*
X166416018Y-170289516D01*
X166500000Y-170301451D01*
X171500000Y-170301451D01*
X171547774Y-170297641D01*
X171628803Y-170272548D01*
X171699634Y-170225874D01*
X171754657Y-170161315D01*
X171789516Y-170083982D01*
X171801451Y-170000000D01*
X171801451Y-165000000D01*
X172198549Y-165000000D01*
X172198549Y-170000000D01*
X172202359Y-170047774D01*
X172227452Y-170128803D01*
X172274126Y-170199634D01*
X172338685Y-170254657D01*
X172416018Y-170289516D01*
X172500000Y-170301451D01*
X174200000Y-170301451D01*
X174200000Y-171000000D01*
X174215236Y-171155387D01*
X174260363Y-171304856D01*
X174333663Y-171442713D01*
X174432343Y-171563707D01*
X174552646Y-171663230D01*
X174689988Y-171737491D01*
X174839138Y-171783660D01*
X174994415Y-171799981D01*
X175149905Y-171785830D01*
X175299685Y-171741747D01*
X175438051Y-171669411D01*
X175559731Y-171571578D01*
X175660091Y-171451974D01*
X175735308Y-171315154D01*
X175782518Y-171166329D01*
X175799922Y-171011170D01*
X175800000Y-171000000D01*
X175800000Y-170301451D01*
X177500000Y-170301451D01*
X177547774Y-170297641D01*
X177628803Y-170272548D01*
X177699634Y-170225874D01*
X177754657Y-170161315D01*
X177789516Y-170083982D01*
X177801451Y-170000000D01*
X177801451Y-165000000D01*
X178198549Y-165000000D01*
X178198549Y-170000000D01*
X178202359Y-170047774D01*
X178227452Y-170128803D01*
X178274126Y-170199634D01*
X178338685Y-170254657D01*
X178416018Y-170289516D01*
X178500000Y-170301451D01*
X183500000Y-170301451D01*
X183547774Y-170297641D01*
X183628803Y-170272548D01*
X183699634Y-170225874D01*
X183754657Y-170161315D01*
X183789516Y-170083982D01*
X183801451Y-170000000D01*
X183801451Y-168300000D01*
X184668630Y-168300000D01*
X185434315Y-169065686D01*
X185554964Y-169164787D01*
X185692564Y-169238568D01*
X185841874Y-169284217D01*
X185997207Y-169299995D01*
X186152648Y-169285302D01*
X186302274Y-169240697D01*
X186440385Y-169167878D01*
X186561723Y-169069621D01*
X186661665Y-168949667D01*
X186736404Y-168812585D01*
X186783094Y-168663597D01*
X186783280Y-168661877D01*
X190677660Y-168661877D01*
X190698243Y-168888037D01*
X190762361Y-169105892D01*
X190867573Y-169307145D01*
X191009872Y-169484128D01*
X191183836Y-169630102D01*
X191382841Y-169739506D01*
X191599306Y-169808173D01*
X191824986Y-169833487D01*
X191841232Y-169833600D01*
X192158768Y-169833600D01*
X192384779Y-169811439D01*
X192602181Y-169745802D01*
X192802694Y-169639187D01*
X192978680Y-169495657D01*
X193123436Y-169320677D01*
X193231448Y-169120913D01*
X193298602Y-168903974D01*
X193322340Y-168678123D01*
X193301757Y-168451963D01*
X193237639Y-168234108D01*
X193132427Y-168032855D01*
X192990128Y-167855872D01*
X192816164Y-167709898D01*
X192617159Y-167600494D01*
X192400694Y-167531827D01*
X192175014Y-167506513D01*
X192158768Y-167506400D01*
X191841232Y-167506400D01*
X191615221Y-167528561D01*
X191397819Y-167594198D01*
X191197306Y-167700813D01*
X191021320Y-167844343D01*
X190876564Y-168019323D01*
X190768552Y-168219087D01*
X190701398Y-168436026D01*
X190677660Y-168661877D01*
X186783280Y-168661877D01*
X186799957Y-168508377D01*
X186786349Y-168352839D01*
X186742789Y-168202907D01*
X186670936Y-168064289D01*
X186573529Y-167942268D01*
X186565686Y-167934315D01*
X185565685Y-166934315D01*
X185508631Y-166887450D01*
X185451974Y-166839909D01*
X185448285Y-166837881D01*
X185445037Y-166835213D01*
X185379929Y-166800302D01*
X185315154Y-166764692D01*
X185311145Y-166763420D01*
X185307437Y-166761432D01*
X185236747Y-166739820D01*
X185166329Y-166717482D01*
X185162150Y-166717013D01*
X185158126Y-166715783D01*
X185084602Y-166708315D01*
X185011170Y-166700078D01*
X185002946Y-166700021D01*
X185002793Y-166700005D01*
X185002650Y-166700019D01*
X185000000Y-166700000D01*
X183801451Y-166700000D01*
X183801451Y-166121877D01*
X190677660Y-166121877D01*
X190698243Y-166348037D01*
X190762361Y-166565892D01*
X190867573Y-166767145D01*
X191009872Y-166944128D01*
X191183836Y-167090102D01*
X191382841Y-167199506D01*
X191599306Y-167268173D01*
X191824986Y-167293487D01*
X191841232Y-167293600D01*
X192158768Y-167293600D01*
X192384779Y-167271439D01*
X192602181Y-167205802D01*
X192802694Y-167099187D01*
X192978680Y-166955657D01*
X193123436Y-166780677D01*
X193231448Y-166580913D01*
X193298602Y-166363974D01*
X193322340Y-166138123D01*
X193301757Y-165911963D01*
X193237639Y-165694108D01*
X193132427Y-165492855D01*
X192990128Y-165315872D01*
X192816164Y-165169898D01*
X192617159Y-165060494D01*
X192400694Y-164991827D01*
X192175014Y-164966513D01*
X192158768Y-164966400D01*
X191841232Y-164966400D01*
X191615221Y-164988561D01*
X191397819Y-165054198D01*
X191197306Y-165160813D01*
X191021320Y-165304343D01*
X190876564Y-165479323D01*
X190768552Y-165679087D01*
X190701398Y-165896026D01*
X190677660Y-166121877D01*
X183801451Y-166121877D01*
X183801451Y-165000000D01*
X183797641Y-164952226D01*
X183772548Y-164871197D01*
X183725874Y-164800366D01*
X183661315Y-164745343D01*
X183583982Y-164710484D01*
X183500000Y-164698549D01*
X178500000Y-164698549D01*
X178452226Y-164702359D01*
X178371197Y-164727452D01*
X178300366Y-164774126D01*
X178245343Y-164838685D01*
X178210484Y-164916018D01*
X178198549Y-165000000D01*
X177801451Y-165000000D01*
X177797641Y-164952226D01*
X177772548Y-164871197D01*
X177725874Y-164800366D01*
X177661315Y-164745343D01*
X177583982Y-164710484D01*
X177500000Y-164698549D01*
X172500000Y-164698549D01*
X172452226Y-164702359D01*
X172371197Y-164727452D01*
X172300366Y-164774126D01*
X172245343Y-164838685D01*
X172210484Y-164916018D01*
X172198549Y-165000000D01*
X171801451Y-165000000D01*
X171797641Y-164952226D01*
X171772548Y-164871197D01*
X171725874Y-164800366D01*
X171661315Y-164745343D01*
X171583982Y-164710484D01*
X171500000Y-164698549D01*
X166500000Y-164698549D01*
X166452226Y-164702359D01*
X166371197Y-164727452D01*
X166300366Y-164774126D01*
X166245343Y-164838685D01*
X166210484Y-164916018D01*
X166198549Y-165000000D01*
X166198549Y-166700000D01*
X165000000Y-166700000D01*
X164926539Y-166707203D01*
X164852839Y-166713651D01*
X164848795Y-166714826D01*
X164844613Y-166715236D01*
X164773906Y-166736584D01*
X164702907Y-166757211D01*
X164699173Y-166759147D01*
X164695144Y-166760363D01*
X164629866Y-166795072D01*
X164564289Y-166829064D01*
X164561003Y-166831687D01*
X164557287Y-166833663D01*
X164500019Y-166880369D01*
X164442268Y-166926471D01*
X164436412Y-166932246D01*
X164436293Y-166932343D01*
X164436202Y-166932454D01*
X164434315Y-166934314D01*
X163434315Y-167934315D01*
X163335213Y-168054963D01*
X163261432Y-168192563D01*
X163215783Y-168341874D01*
X163200005Y-168497207D01*
X159307236Y-168497207D01*
X159230823Y-168339555D01*
X159081255Y-168141855D01*
X158895991Y-167977133D01*
X158682152Y-167851720D01*
X158447955Y-167770434D01*
X158202400Y-167736400D01*
X158050000Y-167736400D01*
X157950000Y-167736400D01*
X157797600Y-167736400D01*
X157552045Y-167770434D01*
X157317848Y-167851720D01*
X157104009Y-167977133D01*
X156918745Y-168141855D01*
X156769177Y-168339555D01*
X156661052Y-168562635D01*
X156608357Y-168753100D01*
X150350000Y-168753100D01*
X150350000Y-165596400D01*
X156682549Y-165596400D01*
X156682549Y-167323600D01*
X156686359Y-167371374D01*
X156711452Y-167452403D01*
X156758126Y-167523234D01*
X156822685Y-167578257D01*
X156900018Y-167613116D01*
X156984000Y-167625051D01*
X159016000Y-167625051D01*
X159063774Y-167621241D01*
X159144803Y-167596148D01*
X159215634Y-167549474D01*
X159270657Y-167484915D01*
X159305516Y-167407582D01*
X159317451Y-167323600D01*
X159317451Y-165596400D01*
X159313641Y-165548626D01*
X159288548Y-165467597D01*
X159241874Y-165396766D01*
X159177315Y-165341743D01*
X159099982Y-165306884D01*
X159016000Y-165294949D01*
X156984000Y-165294949D01*
X156936226Y-165298759D01*
X156855197Y-165323852D01*
X156784366Y-165370526D01*
X156729343Y-165435085D01*
X156694484Y-165512418D01*
X156682549Y-165596400D01*
X150350000Y-165596400D01*
X150350000Y-156767123D01*
X150359266Y-156672627D01*
X150381733Y-156598212D01*
X150418229Y-156529572D01*
X150467362Y-156469329D01*
X150527262Y-156419776D01*
X150595641Y-156382804D01*
X150669911Y-156359813D01*
X150747219Y-156351688D01*
X150824638Y-156358734D01*
X150899211Y-156380682D01*
X150968109Y-156416701D01*
X151028691Y-156465409D01*
X151078659Y-156524960D01*
X151116112Y-156593086D01*
X151139617Y-156667185D01*
X151150000Y-156759749D01*
X151150000Y-158000000D01*
X151153159Y-158032216D01*
X151155973Y-158064383D01*
X151156486Y-158066150D01*
X151156666Y-158067982D01*
X151166014Y-158098945D01*
X151175030Y-158129978D01*
X151175876Y-158131611D01*
X151176409Y-158133375D01*
X151191578Y-158161904D01*
X151206465Y-158190624D01*
X151207616Y-158192066D01*
X151208478Y-158193687D01*
X151228881Y-158218704D01*
X151249081Y-158244008D01*
X151251604Y-158246565D01*
X151251650Y-158246622D01*
X151251703Y-158246666D01*
X151252513Y-158247487D01*
X156752513Y-163747488D01*
X156777524Y-163768032D01*
X156802262Y-163788790D01*
X156803874Y-163789676D01*
X156805297Y-163790845D01*
X156833811Y-163806134D01*
X156862120Y-163821697D01*
X156863872Y-163822253D01*
X156865497Y-163823124D01*
X156896428Y-163832580D01*
X156927231Y-163842352D01*
X156929061Y-163842557D01*
X156930820Y-163843095D01*
X156962974Y-163846361D01*
X156995113Y-163849966D01*
X156998709Y-163849991D01*
X156998778Y-163849998D01*
X156998842Y-163849992D01*
X157000000Y-163850000D01*
X193000000Y-163850000D01*
X193032216Y-163846841D01*
X193064383Y-163844027D01*
X193066150Y-163843514D01*
X193067982Y-163843334D01*
X193098945Y-163833986D01*
X193129978Y-163824970D01*
X193131611Y-163824124D01*
X193133375Y-163823591D01*
X193161904Y-163808422D01*
X193190624Y-163793535D01*
X193192066Y-163792384D01*
X193193687Y-163791522D01*
X193218704Y-163771119D01*
X193244008Y-163750919D01*
X193246565Y-163748396D01*
X193246622Y-163748350D01*
X193246666Y-163748297D01*
X193247487Y-163747487D01*
X198747488Y-158247487D01*
X198768032Y-158222476D01*
X198788790Y-158197738D01*
X198789676Y-158196126D01*
X198790845Y-158194703D01*
X198806134Y-158166189D01*
X198821697Y-158137880D01*
X198822253Y-158136128D01*
X198823124Y-158134503D01*
X198832580Y-158103572D01*
X198842352Y-158072769D01*
X198842557Y-158070939D01*
X198843095Y-158069180D01*
X198846361Y-158037026D01*
X198849966Y-158004887D01*
X198849991Y-158001291D01*
X198849998Y-158001222D01*
X198849992Y-158001158D01*
X198850000Y-158000000D01*
X198850000Y-156767123D01*
X198859266Y-156672627D01*
X198881733Y-156598212D01*
X198918229Y-156529572D01*
X198967362Y-156469329D01*
X199027262Y-156419776D01*
X199095641Y-156382804D01*
X199169911Y-156359813D01*
X199247219Y-156351688D01*
X199324638Y-156358734D01*
X199324638Y-156358734D01*
G37*
X199324638Y-156358734D02*
X199399211Y-156380682D01*
X199468109Y-156416701D01*
X199528691Y-156465409D01*
X199578659Y-156524960D01*
X199616112Y-156593086D01*
X199639617Y-156667185D01*
X199650000Y-156759749D01*
X199650000Y-182855026D01*
X197752513Y-184752513D01*
X197732028Y-184777452D01*
X197711210Y-184802262D01*
X197710322Y-184803878D01*
X197709156Y-184805297D01*
X197693887Y-184833772D01*
X197678303Y-184862120D01*
X197677747Y-184863873D01*
X197676876Y-184865497D01*
X197667420Y-184896428D01*
X197657648Y-184927231D01*
X197657443Y-184929061D01*
X197656905Y-184930820D01*
X197653639Y-184962974D01*
X197650034Y-184995113D01*
X197650009Y-184998709D01*
X197650002Y-184998778D01*
X197650008Y-184998842D01*
X197650000Y-185000000D01*
X197650000Y-201235599D01*
X195814256Y-201757239D01*
X196041513Y-201613018D01*
X196510171Y-201166721D01*
X196883216Y-200637895D01*
X197146442Y-200046682D01*
X197289820Y-199415601D01*
X197300141Y-198676418D01*
X197174440Y-198041580D01*
X196927825Y-197443248D01*
X196569690Y-196904212D01*
X196113677Y-196445004D01*
X195577154Y-196083114D01*
X194980558Y-195832328D01*
X194346613Y-195702198D01*
X193699465Y-195697680D01*
X193063765Y-195818947D01*
X192463726Y-196061378D01*
X191922202Y-196415741D01*
X191459822Y-196868537D01*
X191094196Y-197402521D01*
X190839251Y-197997351D01*
X190704698Y-198630373D01*
X190695663Y-199277473D01*
X190812488Y-199914004D01*
X191050725Y-200515722D01*
X191401298Y-201059706D01*
X191850856Y-201525236D01*
X192382273Y-201894581D01*
X192975310Y-202153672D01*
X193607376Y-202292641D01*
X193907928Y-202298937D01*
X186136606Y-204507215D01*
X173977689Y-205498931D01*
X161854858Y-204109753D01*
X158708320Y-203159757D01*
X168017503Y-203159757D01*
X168084766Y-203526245D01*
X168221932Y-203872688D01*
X168423778Y-204185891D01*
X168682614Y-204453924D01*
X168988582Y-204666577D01*
X169330027Y-204815750D01*
X169693944Y-204895763D01*
X170066471Y-204903566D01*
X170433420Y-204838863D01*
X170780812Y-204704119D01*
X171095417Y-204504465D01*
X171365250Y-204247506D01*
X171580034Y-203943030D01*
X171731587Y-203602635D01*
X171814138Y-203239285D01*
X171815248Y-203159757D01*
X178177503Y-203159757D01*
X178244766Y-203526245D01*
X178381932Y-203872688D01*
X178583778Y-204185891D01*
X178842614Y-204453924D01*
X179148582Y-204666577D01*
X179490027Y-204815750D01*
X179853944Y-204895763D01*
X180226471Y-204903566D01*
X180593420Y-204838863D01*
X180940812Y-204704119D01*
X181255417Y-204504465D01*
X181525250Y-204247506D01*
X181740034Y-203943030D01*
X181891587Y-203602635D01*
X181974138Y-203239285D01*
X181980081Y-202813695D01*
X181907708Y-202448183D01*
X181849624Y-202307260D01*
X182818105Y-202307260D01*
X182842213Y-202438617D01*
X182891377Y-202562790D01*
X182963722Y-202675048D01*
X183056495Y-202771117D01*
X183166160Y-202847336D01*
X183288541Y-202900803D01*
X183418977Y-202929481D01*
X183552498Y-202932278D01*
X183684020Y-202909087D01*
X183808533Y-202860792D01*
X183921294Y-202789232D01*
X184018008Y-202697132D01*
X184094991Y-202588002D01*
X184149311Y-202465997D01*
X184178899Y-202335765D01*
X184181029Y-202183225D01*
X184155089Y-202052217D01*
X184104197Y-201928743D01*
X184030291Y-201817506D01*
X183936186Y-201722742D01*
X183825467Y-201648061D01*
X183702352Y-201596308D01*
X183571528Y-201569454D01*
X183437981Y-201568521D01*
X183306795Y-201593546D01*
X183182969Y-201643575D01*
X183071218Y-201716703D01*
X182975800Y-201810144D01*
X182900348Y-201920338D01*
X182847736Y-202043090D01*
X182819970Y-202173722D01*
X182818105Y-202307260D01*
X181849624Y-202307260D01*
X181765717Y-202103688D01*
X181559519Y-201793334D01*
X181296965Y-201528942D01*
X180988058Y-201320581D01*
X180644564Y-201176189D01*
X180279565Y-201101266D01*
X179906965Y-201098664D01*
X179540956Y-201168484D01*
X179195478Y-201308066D01*
X178883692Y-201512093D01*
X178617473Y-201772794D01*
X178406961Y-202080239D01*
X178260175Y-202422718D01*
X178182705Y-202787184D01*
X178177503Y-203159757D01*
X171815248Y-203159757D01*
X171820081Y-202813695D01*
X171747708Y-202448183D01*
X171605717Y-202103688D01*
X171399519Y-201793334D01*
X171136965Y-201528942D01*
X170828058Y-201320581D01*
X170484564Y-201176189D01*
X170119565Y-201101266D01*
X169746965Y-201098664D01*
X169380956Y-201168484D01*
X169035478Y-201308066D01*
X168723692Y-201512093D01*
X168457473Y-201772794D01*
X168246961Y-202080239D01*
X168100175Y-202422718D01*
X168022705Y-202787184D01*
X168017503Y-203159757D01*
X158708320Y-203159757D01*
X155853360Y-202297794D01*
X156254398Y-202306194D01*
X156891729Y-202193815D01*
X157495095Y-201959785D01*
X158041513Y-201613018D01*
X158510171Y-201166721D01*
X158883216Y-200637895D01*
X159030424Y-200307260D01*
X163568105Y-200307260D01*
X163592213Y-200438617D01*
X163641377Y-200562790D01*
X163713722Y-200675048D01*
X163806495Y-200771117D01*
X163916160Y-200847336D01*
X164038541Y-200900803D01*
X164168977Y-200929481D01*
X164302498Y-200932278D01*
X164434020Y-200909087D01*
X164558533Y-200860792D01*
X164671294Y-200789232D01*
X164768008Y-200697132D01*
X164844991Y-200588002D01*
X164899311Y-200465997D01*
X164928899Y-200335765D01*
X164931029Y-200183225D01*
X164906088Y-200057260D01*
X169318105Y-200057260D01*
X169342213Y-200188617D01*
X169391377Y-200312790D01*
X169463722Y-200425048D01*
X169556495Y-200521117D01*
X169666160Y-200597336D01*
X169788541Y-200650803D01*
X169918977Y-200679481D01*
X170052498Y-200682278D01*
X170184020Y-200659087D01*
X170308533Y-200610792D01*
X170421294Y-200539232D01*
X170518008Y-200447132D01*
X170594991Y-200338002D01*
X170649311Y-200215997D01*
X170678899Y-200085765D01*
X170679297Y-200057260D01*
X171318105Y-200057260D01*
X171342213Y-200188617D01*
X171391377Y-200312790D01*
X171463722Y-200425048D01*
X171556495Y-200521117D01*
X171666160Y-200597336D01*
X171788541Y-200650803D01*
X171918977Y-200679481D01*
X172052498Y-200682278D01*
X172184020Y-200659087D01*
X172308533Y-200610792D01*
X172421294Y-200539232D01*
X172518008Y-200447132D01*
X172594991Y-200338002D01*
X172649311Y-200215997D01*
X172678899Y-200085765D01*
X172679297Y-200057260D01*
X173318105Y-200057260D01*
X173342213Y-200188617D01*
X173391377Y-200312790D01*
X173463722Y-200425048D01*
X173556495Y-200521117D01*
X173666160Y-200597336D01*
X173788541Y-200650803D01*
X173918977Y-200679481D01*
X174052498Y-200682278D01*
X174184020Y-200659087D01*
X174308533Y-200610792D01*
X174421294Y-200539232D01*
X174518008Y-200447132D01*
X174594991Y-200338002D01*
X174649311Y-200215997D01*
X174678899Y-200085765D01*
X174679297Y-200057260D01*
X175318105Y-200057260D01*
X175342213Y-200188617D01*
X175391377Y-200312790D01*
X175463722Y-200425048D01*
X175556495Y-200521117D01*
X175666160Y-200597336D01*
X175788541Y-200650803D01*
X175918977Y-200679481D01*
X176052498Y-200682278D01*
X176184020Y-200659087D01*
X176308533Y-200610792D01*
X176421294Y-200539232D01*
X176518008Y-200447132D01*
X176594991Y-200338002D01*
X176649311Y-200215997D01*
X176678899Y-200085765D01*
X176679297Y-200057260D01*
X177318105Y-200057260D01*
X177342213Y-200188617D01*
X177391377Y-200312790D01*
X177463722Y-200425048D01*
X177556495Y-200521117D01*
X177666160Y-200597336D01*
X177788541Y-200650803D01*
X177918977Y-200679481D01*
X178052498Y-200682278D01*
X178184020Y-200659087D01*
X178308533Y-200610792D01*
X178421294Y-200539232D01*
X178518008Y-200447132D01*
X178594991Y-200338002D01*
X178649311Y-200215997D01*
X178678899Y-200085765D01*
X178679297Y-200057260D01*
X179318105Y-200057260D01*
X179342213Y-200188617D01*
X179391377Y-200312790D01*
X179463722Y-200425048D01*
X179556495Y-200521117D01*
X179666160Y-200597336D01*
X179788541Y-200650803D01*
X179918977Y-200679481D01*
X180052498Y-200682278D01*
X180184020Y-200659087D01*
X180308533Y-200610792D01*
X180421294Y-200539232D01*
X180518008Y-200447132D01*
X180594991Y-200338002D01*
X180649311Y-200215997D01*
X180678899Y-200085765D01*
X180681029Y-199933225D01*
X180655089Y-199802217D01*
X180604197Y-199678743D01*
X180530291Y-199567506D01*
X180436186Y-199472742D01*
X180325467Y-199398061D01*
X180202352Y-199346308D01*
X180071528Y-199319454D01*
X179937981Y-199318521D01*
X179806795Y-199343546D01*
X179682969Y-199393575D01*
X179571218Y-199466703D01*
X179475800Y-199560144D01*
X179400348Y-199670338D01*
X179347736Y-199793090D01*
X179319970Y-199923722D01*
X179318105Y-200057260D01*
X178679297Y-200057260D01*
X178681029Y-199933225D01*
X178655089Y-199802217D01*
X178604197Y-199678743D01*
X178530291Y-199567506D01*
X178436186Y-199472742D01*
X178325467Y-199398061D01*
X178202352Y-199346308D01*
X178071528Y-199319454D01*
X177937981Y-199318521D01*
X177806795Y-199343546D01*
X177682969Y-199393575D01*
X177571218Y-199466703D01*
X177475800Y-199560144D01*
X177400348Y-199670338D01*
X177347736Y-199793090D01*
X177319970Y-199923722D01*
X177318105Y-200057260D01*
X176679297Y-200057260D01*
X176681029Y-199933225D01*
X176655089Y-199802217D01*
X176604197Y-199678743D01*
X176530291Y-199567506D01*
X176436186Y-199472742D01*
X176325467Y-199398061D01*
X176202352Y-199346308D01*
X176071528Y-199319454D01*
X175937981Y-199318521D01*
X175806795Y-199343546D01*
X175682969Y-199393575D01*
X175571218Y-199466703D01*
X175475800Y-199560144D01*
X175400348Y-199670338D01*
X175347736Y-199793090D01*
X175319970Y-199923722D01*
X175318105Y-200057260D01*
X174679297Y-200057260D01*
X174681029Y-199933225D01*
X174655089Y-199802217D01*
X174604197Y-199678743D01*
X174530291Y-199567506D01*
X174436186Y-199472742D01*
X174325467Y-199398061D01*
X174202352Y-199346308D01*
X174071528Y-199319454D01*
X173937981Y-199318521D01*
X173806795Y-199343546D01*
X173682969Y-199393575D01*
X173571218Y-199466703D01*
X173475800Y-199560144D01*
X173400348Y-199670338D01*
X173347736Y-199793090D01*
X173319970Y-199923722D01*
X173318105Y-200057260D01*
X172679297Y-200057260D01*
X172681029Y-199933225D01*
X172655089Y-199802217D01*
X172604197Y-199678743D01*
X172530291Y-199567506D01*
X172436186Y-199472742D01*
X172325467Y-199398061D01*
X172202352Y-199346308D01*
X172071528Y-199319454D01*
X171937981Y-199318521D01*
X171806795Y-199343546D01*
X171682969Y-199393575D01*
X171571218Y-199466703D01*
X171475800Y-199560144D01*
X171400348Y-199670338D01*
X171347736Y-199793090D01*
X171319970Y-199923722D01*
X171318105Y-200057260D01*
X170679297Y-200057260D01*
X170681029Y-199933225D01*
X170655089Y-199802217D01*
X170604197Y-199678743D01*
X170530291Y-199567506D01*
X170436186Y-199472742D01*
X170325467Y-199398061D01*
X170202352Y-199346308D01*
X170071528Y-199319454D01*
X169937981Y-199318521D01*
X169806795Y-199343546D01*
X169682969Y-199393575D01*
X169571218Y-199466703D01*
X169475800Y-199560144D01*
X169400348Y-199670338D01*
X169347736Y-199793090D01*
X169319970Y-199923722D01*
X169318105Y-200057260D01*
X164906088Y-200057260D01*
X164905089Y-200052217D01*
X164854197Y-199928743D01*
X164780291Y-199817506D01*
X164686186Y-199722742D01*
X164575467Y-199648061D01*
X164452352Y-199596308D01*
X164321528Y-199569454D01*
X164187981Y-199568521D01*
X164056795Y-199593546D01*
X163932969Y-199643575D01*
X163821218Y-199716703D01*
X163725800Y-199810144D01*
X163650348Y-199920338D01*
X163597736Y-200043090D01*
X163569970Y-200173722D01*
X163568105Y-200307260D01*
X159030424Y-200307260D01*
X159146442Y-200046682D01*
X159289820Y-199415601D01*
X159300141Y-198676418D01*
X159174440Y-198041580D01*
X158927825Y-197443248D01*
X158569690Y-196904212D01*
X158113677Y-196445004D01*
X157577154Y-196083114D01*
X156980558Y-195832328D01*
X156346613Y-195702198D01*
X155699465Y-195697680D01*
X155063765Y-195818947D01*
X154463726Y-196061378D01*
X153922202Y-196415741D01*
X153459822Y-196868537D01*
X153094196Y-197402521D01*
X152839251Y-197997351D01*
X152704698Y-198630373D01*
X152695663Y-199277473D01*
X152812488Y-199914004D01*
X153050725Y-200515722D01*
X153401298Y-201059706D01*
X153850856Y-201525236D01*
X154278140Y-201822207D01*
X152350000Y-201240067D01*
X152350000Y-195057260D01*
X153318105Y-195057260D01*
X153342213Y-195188617D01*
X153391377Y-195312790D01*
X153463722Y-195425048D01*
X153556495Y-195521117D01*
X153666160Y-195597336D01*
X153788541Y-195650803D01*
X153918977Y-195679481D01*
X154052498Y-195682278D01*
X154184020Y-195659087D01*
X154308533Y-195610792D01*
X154421294Y-195539232D01*
X154518008Y-195447132D01*
X154594991Y-195338002D01*
X154649311Y-195215997D01*
X154678899Y-195085765D01*
X154681029Y-194933225D01*
X154655089Y-194802217D01*
X154604197Y-194678743D01*
X154530291Y-194567506D01*
X154436186Y-194472742D01*
X154325467Y-194398061D01*
X154202352Y-194346308D01*
X154071528Y-194319454D01*
X153937981Y-194318521D01*
X153806795Y-194343546D01*
X153682969Y-194393575D01*
X153571218Y-194466703D01*
X153475800Y-194560144D01*
X153400348Y-194670338D01*
X153347736Y-194793090D01*
X153319970Y-194923722D01*
X153318105Y-195057260D01*
X152350000Y-195057260D01*
X152350000Y-193057260D01*
X153318105Y-193057260D01*
X153342213Y-193188617D01*
X153391377Y-193312790D01*
X153463722Y-193425048D01*
X153556495Y-193521117D01*
X153666160Y-193597336D01*
X153788541Y-193650803D01*
X153918977Y-193679481D01*
X154052498Y-193682278D01*
X154184020Y-193659087D01*
X154308533Y-193610792D01*
X154421294Y-193539232D01*
X154518008Y-193447132D01*
X154594991Y-193338002D01*
X154649311Y-193215997D01*
X154678899Y-193085765D01*
X154681029Y-192933225D01*
X154655089Y-192802217D01*
X154604197Y-192678743D01*
X154530291Y-192567506D01*
X154436186Y-192472742D01*
X154325467Y-192398061D01*
X154202352Y-192346308D01*
X154071528Y-192319454D01*
X153937981Y-192318521D01*
X153806795Y-192343546D01*
X153682969Y-192393575D01*
X153571218Y-192466703D01*
X153475800Y-192560144D01*
X153400348Y-192670338D01*
X153347736Y-192793090D01*
X153319970Y-192923722D01*
X153318105Y-193057260D01*
X152350000Y-193057260D01*
X152350000Y-191057260D01*
X153318105Y-191057260D01*
X153342213Y-191188617D01*
X153391377Y-191312790D01*
X153463722Y-191425048D01*
X153556495Y-191521117D01*
X153666160Y-191597336D01*
X153788541Y-191650803D01*
X153918977Y-191679481D01*
X154052498Y-191682278D01*
X154184020Y-191659087D01*
X154308533Y-191610792D01*
X154421294Y-191539232D01*
X154518008Y-191447132D01*
X154594991Y-191338002D01*
X154649311Y-191215997D01*
X154678899Y-191085765D01*
X154681029Y-190933225D01*
X154655089Y-190802217D01*
X154604197Y-190678743D01*
X154530291Y-190567506D01*
X154436186Y-190472742D01*
X154325467Y-190398061D01*
X154202352Y-190346308D01*
X154071528Y-190319454D01*
X153937981Y-190318521D01*
X153806795Y-190343546D01*
X153682969Y-190393575D01*
X153571218Y-190466703D01*
X153475800Y-190560144D01*
X153400348Y-190670338D01*
X153347736Y-190793090D01*
X153319970Y-190923722D01*
X153318105Y-191057260D01*
X152350000Y-191057260D01*
X152350000Y-189057260D01*
X153318105Y-189057260D01*
X153342213Y-189188617D01*
X153391377Y-189312790D01*
X153463722Y-189425048D01*
X153556495Y-189521117D01*
X153666160Y-189597336D01*
X153788541Y-189650803D01*
X153918977Y-189679481D01*
X154052498Y-189682278D01*
X154184020Y-189659087D01*
X154308533Y-189610792D01*
X154421294Y-189539232D01*
X154518008Y-189447132D01*
X154594991Y-189338002D01*
X154649311Y-189215997D01*
X154678899Y-189085765D01*
X154681029Y-188933225D01*
X154655089Y-188802217D01*
X154604197Y-188678743D01*
X154530291Y-188567506D01*
X154436186Y-188472742D01*
X154325467Y-188398061D01*
X154202352Y-188346308D01*
X154071528Y-188319454D01*
X153937981Y-188318521D01*
X153806795Y-188343546D01*
X153682969Y-188393575D01*
X153571218Y-188466703D01*
X153475800Y-188560144D01*
X153400348Y-188670338D01*
X153347736Y-188793090D01*
X153319970Y-188923722D01*
X153318105Y-189057260D01*
X152350000Y-189057260D01*
X152350000Y-187057260D01*
X153318105Y-187057260D01*
X153342213Y-187188617D01*
X153391377Y-187312790D01*
X153463722Y-187425048D01*
X153556495Y-187521117D01*
X153666160Y-187597336D01*
X153788541Y-187650803D01*
X153918977Y-187679481D01*
X154052498Y-187682278D01*
X154184020Y-187659087D01*
X154308533Y-187610792D01*
X154421294Y-187539232D01*
X154518008Y-187447132D01*
X154594991Y-187338002D01*
X154649311Y-187215997D01*
X154678899Y-187085765D01*
X154681029Y-186933225D01*
X154655089Y-186802217D01*
X154604197Y-186678743D01*
X154530291Y-186567506D01*
X154436186Y-186472742D01*
X154325467Y-186398061D01*
X154202352Y-186346308D01*
X154071528Y-186319454D01*
X153937981Y-186318521D01*
X153806795Y-186343546D01*
X153682969Y-186393575D01*
X153571218Y-186466703D01*
X153475800Y-186560144D01*
X153400348Y-186670338D01*
X153347736Y-186793090D01*
X153319970Y-186923722D01*
X153318105Y-187057260D01*
X152350000Y-187057260D01*
X152350000Y-185057260D01*
X153318105Y-185057260D01*
X153342213Y-185188617D01*
X153391377Y-185312790D01*
X153463722Y-185425048D01*
X153556495Y-185521117D01*
X153666160Y-185597336D01*
X153788541Y-185650803D01*
X153918977Y-185679481D01*
X154052498Y-185682278D01*
X154184020Y-185659087D01*
X154308533Y-185610792D01*
X154421294Y-185539232D01*
X154518008Y-185447132D01*
X154594991Y-185338002D01*
X154649311Y-185215997D01*
X154678899Y-185085765D01*
X154681029Y-184933225D01*
X154655089Y-184802217D01*
X154604197Y-184678743D01*
X154530291Y-184567506D01*
X154436186Y-184472742D01*
X154325467Y-184398061D01*
X154202352Y-184346308D01*
X154071528Y-184319454D01*
X153937981Y-184318521D01*
X153806795Y-184343546D01*
X153682969Y-184393575D01*
X153571218Y-184466703D01*
X153475800Y-184560144D01*
X153400348Y-184670338D01*
X153347736Y-184793090D01*
X153319970Y-184923722D01*
X153318105Y-185057260D01*
X152350000Y-185057260D01*
X152350000Y-185000000D01*
X152346841Y-184967788D01*
X152344027Y-184935616D01*
X152343513Y-184933849D01*
X152343334Y-184932018D01*
X152333990Y-184901067D01*
X152324970Y-184870022D01*
X152324124Y-184868389D01*
X152323591Y-184866625D01*
X152308422Y-184838096D01*
X152293535Y-184809376D01*
X152292384Y-184807934D01*
X152291522Y-184806313D01*
X152271119Y-184781296D01*
X152250919Y-184755992D01*
X152248396Y-184753435D01*
X152248350Y-184753378D01*
X152248297Y-184753334D01*
X152247487Y-184752513D01*
X150350000Y-182855026D01*
X150350000Y-180277473D01*
X151695663Y-180277473D01*
X151812488Y-180914004D01*
X152050725Y-181515722D01*
X152401298Y-182059706D01*
X152850856Y-182525236D01*
X153382273Y-182894581D01*
X153975310Y-183153672D01*
X154607376Y-183292641D01*
X155254398Y-183306194D01*
X155891729Y-183193815D01*
X156391414Y-183000000D01*
X166248549Y-183000000D01*
X166248549Y-183500000D01*
X166252359Y-183547774D01*
X166277452Y-183628803D01*
X166324126Y-183699634D01*
X166388685Y-183754657D01*
X166466018Y-183789516D01*
X166550000Y-183801451D01*
X167450000Y-183801451D01*
X167497774Y-183797641D01*
X167578803Y-183772548D01*
X167649634Y-183725874D01*
X167704657Y-183661315D01*
X167739516Y-183583982D01*
X167751451Y-183500000D01*
X167751451Y-183000000D01*
X167747641Y-182952226D01*
X167722548Y-182871197D01*
X167675874Y-182800366D01*
X167611315Y-182745343D01*
X167533982Y-182710484D01*
X167450000Y-182698549D01*
X167450000Y-182511895D01*
X167518008Y-182447132D01*
X167594991Y-182338002D01*
X167649311Y-182215997D01*
X167678899Y-182085765D01*
X167681029Y-181933225D01*
X167655089Y-181802217D01*
X167604197Y-181678743D01*
X167530291Y-181567506D01*
X167436186Y-181472742D01*
X167325467Y-181398061D01*
X167202352Y-181346308D01*
X167071528Y-181319454D01*
X166937981Y-181318521D01*
X166806795Y-181343546D01*
X166682969Y-181393575D01*
X166571218Y-181466703D01*
X166475800Y-181560144D01*
X166400348Y-181670338D01*
X166347736Y-181793090D01*
X166319970Y-181923722D01*
X166318105Y-182057260D01*
X166342213Y-182188617D01*
X166391377Y-182312790D01*
X166463722Y-182425048D01*
X166550000Y-182514391D01*
X166550000Y-182698549D01*
X166502226Y-182702359D01*
X166421197Y-182727452D01*
X166350366Y-182774126D01*
X166295343Y-182838685D01*
X166260484Y-182916018D01*
X166248549Y-183000000D01*
X156391414Y-183000000D01*
X156495095Y-182959785D01*
X157041513Y-182613018D01*
X157510171Y-182166721D01*
X157883216Y-181637895D01*
X158146442Y-181046682D01*
X158289820Y-180415601D01*
X158300141Y-179676418D01*
X158174440Y-179041580D01*
X158095477Y-178850000D01*
X167395000Y-178850000D01*
X167395000Y-179514397D01*
X167410372Y-179591676D01*
X167440525Y-179664471D01*
X167484300Y-179729986D01*
X167540015Y-179785701D01*
X167605529Y-179829476D01*
X167678325Y-179859628D01*
X167755604Y-179875000D01*
X167945000Y-179875000D01*
X168045000Y-179775000D01*
X168045000Y-178750000D01*
X167495000Y-178750000D01*
X167395000Y-178850000D01*
X158095477Y-178850000D01*
X157927825Y-178443248D01*
X157569690Y-177904212D01*
X157551211Y-177885603D01*
X167395000Y-177885603D01*
X167395000Y-178550000D01*
X167495000Y-178650000D01*
X168045000Y-178650000D01*
X168045000Y-177625000D01*
X167945000Y-177525000D01*
X167755604Y-177525000D01*
X167678325Y-177540372D01*
X167605529Y-177570524D01*
X167540015Y-177614299D01*
X167484300Y-177670014D01*
X167440525Y-177735529D01*
X167410372Y-177808324D01*
X167395000Y-177885603D01*
X157551211Y-177885603D01*
X157113677Y-177445004D01*
X156577154Y-177083114D01*
X156141544Y-176900000D01*
X165225000Y-176900000D01*
X165225000Y-177189397D01*
X165240372Y-177266676D01*
X165270525Y-177339471D01*
X165314300Y-177404986D01*
X165370015Y-177460701D01*
X165435529Y-177504476D01*
X165508325Y-177534628D01*
X165585604Y-177550000D01*
X165850000Y-177550000D01*
X165950000Y-177450000D01*
X165950000Y-176800000D01*
X166050000Y-176800000D01*
X166050000Y-177450000D01*
X166150000Y-177550000D01*
X166414396Y-177550000D01*
X166491675Y-177534628D01*
X166564471Y-177504476D01*
X166629985Y-177460701D01*
X166685700Y-177404986D01*
X166729475Y-177339471D01*
X166759628Y-177266676D01*
X166775000Y-177189397D01*
X166775000Y-176900000D01*
X166675000Y-176800000D01*
X166050000Y-176800000D01*
X165950000Y-176800000D01*
X165325000Y-176800000D01*
X165225000Y-176900000D01*
X156141544Y-176900000D01*
X155980558Y-176832328D01*
X155346613Y-176702198D01*
X154699465Y-176697680D01*
X154063765Y-176818947D01*
X153463726Y-177061378D01*
X152922202Y-177415741D01*
X152459822Y-177868537D01*
X152094196Y-178402521D01*
X151839251Y-178997351D01*
X151704698Y-179630373D01*
X151695663Y-180277473D01*
X150350000Y-180277473D01*
X150350000Y-176057260D01*
X151318105Y-176057260D01*
X151342213Y-176188617D01*
X151391377Y-176312790D01*
X151463722Y-176425048D01*
X151556495Y-176521117D01*
X151666160Y-176597336D01*
X151788541Y-176650803D01*
X151918977Y-176679481D01*
X152052498Y-176682278D01*
X152184020Y-176659087D01*
X152308533Y-176610792D01*
X152421294Y-176539232D01*
X152518008Y-176447132D01*
X152594991Y-176338002D01*
X152649311Y-176215997D01*
X152678899Y-176085765D01*
X152679297Y-176057260D01*
X152818105Y-176057260D01*
X152842213Y-176188617D01*
X152891377Y-176312790D01*
X152963722Y-176425048D01*
X153056495Y-176521117D01*
X153166160Y-176597336D01*
X153288541Y-176650803D01*
X153418977Y-176679481D01*
X153552498Y-176682278D01*
X153684020Y-176659087D01*
X153808533Y-176610792D01*
X153921294Y-176539232D01*
X154018008Y-176447132D01*
X154094991Y-176338002D01*
X154149311Y-176215997D01*
X154178899Y-176085765D01*
X154179297Y-176057260D01*
X154318105Y-176057260D01*
X154342213Y-176188617D01*
X154391377Y-176312790D01*
X154463722Y-176425048D01*
X154556495Y-176521117D01*
X154666160Y-176597336D01*
X154788541Y-176650803D01*
X154918977Y-176679481D01*
X155052498Y-176682278D01*
X155184020Y-176659087D01*
X155308533Y-176610792D01*
X155421294Y-176539232D01*
X155518008Y-176447132D01*
X155594991Y-176338002D01*
X155607189Y-176310603D01*
X165225000Y-176310603D01*
X165225000Y-176600000D01*
X165325000Y-176700000D01*
X165950000Y-176700000D01*
X165950000Y-176680000D01*
X166050000Y-176680000D01*
X166050000Y-176700000D01*
X166675000Y-176700000D01*
X166775000Y-176600000D01*
X166775000Y-176310603D01*
X166759628Y-176233324D01*
X166729475Y-176160529D01*
X166685700Y-176095014D01*
X166629985Y-176039299D01*
X166564471Y-175995524D01*
X166491675Y-175965372D01*
X166414396Y-175950000D01*
X166393194Y-175950000D01*
X166422774Y-175947641D01*
X166503803Y-175922548D01*
X166523303Y-175909699D01*
X168181802Y-177568198D01*
X168192783Y-177577217D01*
X168145000Y-177625000D01*
X168145000Y-178650000D01*
X168165000Y-178650000D01*
X168165000Y-178750000D01*
X168145000Y-178750000D01*
X168145000Y-179775000D01*
X168245000Y-179875000D01*
X168434396Y-179875000D01*
X168511675Y-179859628D01*
X168584471Y-179829476D01*
X168649985Y-179785701D01*
X168705700Y-179729986D01*
X168749475Y-179664471D01*
X168779628Y-179591676D01*
X168783175Y-179573845D01*
X168792452Y-179603803D01*
X168839126Y-179674634D01*
X168903685Y-179729657D01*
X168965000Y-179757296D01*
X168965000Y-181251340D01*
X168952226Y-181252359D01*
X168871197Y-181277452D01*
X168800366Y-181324126D01*
X168745343Y-181388685D01*
X168710484Y-181466018D01*
X168698549Y-181550000D01*
X168698549Y-182450000D01*
X168702359Y-182497774D01*
X168727452Y-182578803D01*
X168774126Y-182649634D01*
X168838685Y-182704657D01*
X168850000Y-182709757D01*
X168850000Y-183084314D01*
X168767157Y-183167157D01*
X168743677Y-183195742D01*
X168719955Y-183224013D01*
X168718942Y-183225855D01*
X168717606Y-183227482D01*
X168700142Y-183260053D01*
X168682346Y-183292423D01*
X168681710Y-183294429D01*
X168680716Y-183296282D01*
X168669925Y-183331579D01*
X168658741Y-183366835D01*
X168658506Y-183368929D01*
X168657892Y-183370938D01*
X168654159Y-183407687D01*
X168650039Y-183444415D01*
X168650010Y-183448522D01*
X168650002Y-183448604D01*
X168650009Y-183448680D01*
X168650000Y-183450000D01*
X168650000Y-184297739D01*
X168649950Y-184297739D01*
X168602176Y-184301549D01*
X168521147Y-184326642D01*
X168450316Y-184373316D01*
X168395293Y-184437875D01*
X168360434Y-184515208D01*
X168348499Y-184599190D01*
X168348499Y-184599240D01*
X168164925Y-184599240D01*
X168032843Y-184467157D01*
X168004258Y-184443677D01*
X167975987Y-184419955D01*
X167974145Y-184418942D01*
X167972518Y-184417606D01*
X167939947Y-184400142D01*
X167907577Y-184382346D01*
X167905571Y-184381710D01*
X167903718Y-184380716D01*
X167868421Y-184369925D01*
X167833165Y-184358741D01*
X167831071Y-184358506D01*
X167829062Y-184357892D01*
X167792313Y-184354159D01*
X167755585Y-184350039D01*
X167751478Y-184350010D01*
X167751396Y-184350002D01*
X167751320Y-184350009D01*
X167750000Y-184350000D01*
X167708580Y-184350000D01*
X167675874Y-184300366D01*
X167611315Y-184245343D01*
X167533982Y-184210484D01*
X167450000Y-184198549D01*
X166550000Y-184198549D01*
X166502226Y-184202359D01*
X166421197Y-184227452D01*
X166350366Y-184274126D01*
X166295343Y-184338685D01*
X166260484Y-184416018D01*
X166248549Y-184500000D01*
X166248549Y-185000000D01*
X166252359Y-185047774D01*
X166277452Y-185128803D01*
X166324126Y-185199634D01*
X166388685Y-185254657D01*
X166466018Y-185289516D01*
X166550000Y-185301451D01*
X167450000Y-185301451D01*
X167497774Y-185297641D01*
X167578803Y-185272548D01*
X167649634Y-185225874D01*
X167654491Y-185220176D01*
X167716398Y-185282083D01*
X167744958Y-185305542D01*
X167773253Y-185329285D01*
X167775095Y-185330298D01*
X167776722Y-185331634D01*
X167809293Y-185349098D01*
X167841663Y-185366894D01*
X167843669Y-185367530D01*
X167845522Y-185368524D01*
X167880860Y-185379328D01*
X167916075Y-185390499D01*
X167918164Y-185390733D01*
X167920178Y-185391349D01*
X167956977Y-185395087D01*
X167993655Y-185399201D01*
X167997762Y-185399230D01*
X167997844Y-185399238D01*
X167997920Y-185399231D01*
X167999240Y-185399240D01*
X168348499Y-185399240D01*
X168348499Y-185399290D01*
X168352309Y-185447064D01*
X168377402Y-185528093D01*
X168424076Y-185598924D01*
X168488635Y-185653947D01*
X168565968Y-185688806D01*
X168647500Y-185700393D01*
X168647500Y-187547500D01*
X168651107Y-187584284D01*
X168654326Y-187621080D01*
X168654913Y-187623099D01*
X168655118Y-187625194D01*
X168665801Y-187660577D01*
X168676106Y-187696047D01*
X168677074Y-187697915D01*
X168677682Y-187699928D01*
X168695031Y-187732558D01*
X168712032Y-187765355D01*
X168713344Y-187766998D01*
X168714332Y-187768857D01*
X168737702Y-187797511D01*
X168760736Y-187826366D01*
X168763624Y-187829296D01*
X168763672Y-187829354D01*
X168763726Y-187829399D01*
X168764657Y-187830343D01*
X169350000Y-188415686D01*
X169350000Y-192315698D01*
X169353607Y-192352482D01*
X169356826Y-192389278D01*
X169357413Y-192391297D01*
X169357618Y-192393392D01*
X169368301Y-192428775D01*
X169378606Y-192464245D01*
X169379574Y-192466113D01*
X169380182Y-192468126D01*
X169397531Y-192500756D01*
X169414532Y-192533553D01*
X169415844Y-192535196D01*
X169416832Y-192537055D01*
X169440202Y-192565709D01*
X169463236Y-192594564D01*
X169466124Y-192597494D01*
X169466172Y-192597552D01*
X169466226Y-192597597D01*
X169467157Y-192598541D01*
X171661461Y-194792844D01*
X171690016Y-194816300D01*
X171718317Y-194840047D01*
X171720159Y-194841060D01*
X171721786Y-194842396D01*
X171754322Y-194859841D01*
X171786727Y-194877656D01*
X171788737Y-194878294D01*
X171790586Y-194879285D01*
X171825850Y-194890066D01*
X171861139Y-194901261D01*
X171863232Y-194901496D01*
X171865241Y-194902110D01*
X171901951Y-194905839D01*
X171938719Y-194909963D01*
X171942837Y-194909992D01*
X171942908Y-194909999D01*
X171942974Y-194909993D01*
X171944304Y-194910002D01*
X172844316Y-194910002D01*
X173427492Y-195493178D01*
X173221041Y-195450800D01*
X172985715Y-195449157D01*
X172754551Y-195493253D01*
X172536355Y-195581410D01*
X172339437Y-195710270D01*
X172171299Y-195874923D01*
X172038344Y-196069099D01*
X171945637Y-196285401D01*
X171896709Y-196515590D01*
X171893423Y-196750899D01*
X171935905Y-196982365D01*
X172022536Y-197201171D01*
X172150018Y-197398984D01*
X172313493Y-197568267D01*
X172506736Y-197702575D01*
X172722385Y-197796790D01*
X172952228Y-197847324D01*
X173187508Y-197852252D01*
X173419265Y-197811387D01*
X173638671Y-197726285D01*
X173837368Y-197600188D01*
X174007789Y-197437898D01*
X174143442Y-197245598D01*
X174239160Y-197030612D01*
X174291298Y-196801128D01*
X174295051Y-196532334D01*
X174252686Y-196318372D01*
X174439022Y-196504708D01*
X174436709Y-196515590D01*
X174433423Y-196750899D01*
X174475905Y-196982365D01*
X174562536Y-197201171D01*
X174690018Y-197398984D01*
X174853493Y-197568267D01*
X175046736Y-197702575D01*
X175262385Y-197796790D01*
X175492228Y-197847324D01*
X175727508Y-197852252D01*
X175959265Y-197811387D01*
X176178671Y-197726285D01*
X176377368Y-197600188D01*
X176547789Y-197437898D01*
X176683442Y-197245598D01*
X176779160Y-197030612D01*
X176831298Y-196801128D01*
X176835051Y-196532334D01*
X176789342Y-196301484D01*
X176699664Y-196083908D01*
X176569433Y-195887895D01*
X176403610Y-195720911D01*
X176208511Y-195589314D01*
X175991567Y-195498120D01*
X175761041Y-195450800D01*
X175525715Y-195449157D01*
X175294551Y-195493253D01*
X175076355Y-195581410D01*
X174879437Y-195710270D01*
X174827155Y-195761469D01*
X174376236Y-195310550D01*
X174457508Y-195312252D01*
X174689265Y-195271387D01*
X174908671Y-195186285D01*
X175107368Y-195060188D01*
X175277789Y-194897898D01*
X175413442Y-194705598D01*
X175509160Y-194490612D01*
X175561298Y-194261128D01*
X175561999Y-194210899D01*
X175703423Y-194210899D01*
X175745905Y-194442365D01*
X175832536Y-194661171D01*
X175960018Y-194858984D01*
X176123493Y-195028267D01*
X176316736Y-195162575D01*
X176532385Y-195256790D01*
X176762228Y-195307324D01*
X176997508Y-195312252D01*
X177229265Y-195271387D01*
X177448671Y-195186285D01*
X177647368Y-195060188D01*
X177650442Y-195057260D01*
X195318105Y-195057260D01*
X195342213Y-195188617D01*
X195391377Y-195312790D01*
X195463722Y-195425048D01*
X195556495Y-195521117D01*
X195666160Y-195597336D01*
X195788541Y-195650803D01*
X195918977Y-195679481D01*
X196052498Y-195682278D01*
X196184020Y-195659087D01*
X196308533Y-195610792D01*
X196421294Y-195539232D01*
X196518008Y-195447132D01*
X196594991Y-195338002D01*
X196649311Y-195215997D01*
X196678899Y-195085765D01*
X196681029Y-194933225D01*
X196655089Y-194802217D01*
X196604197Y-194678743D01*
X196530291Y-194567506D01*
X196436186Y-194472742D01*
X196325467Y-194398061D01*
X196202352Y-194346308D01*
X196071528Y-194319454D01*
X195937981Y-194318521D01*
X195806795Y-194343546D01*
X195682969Y-194393575D01*
X195571218Y-194466703D01*
X195475800Y-194560144D01*
X195400348Y-194670338D01*
X195347736Y-194793090D01*
X195319970Y-194923722D01*
X195318105Y-195057260D01*
X177650442Y-195057260D01*
X177817789Y-194897898D01*
X177953442Y-194705598D01*
X178049160Y-194490612D01*
X178101298Y-194261128D01*
X178105051Y-193992334D01*
X178059342Y-193761484D01*
X177969664Y-193543908D01*
X177839433Y-193347895D01*
X177673610Y-193180911D01*
X177490292Y-193057260D01*
X195318105Y-193057260D01*
X195342213Y-193188617D01*
X195391377Y-193312790D01*
X195463722Y-193425048D01*
X195556495Y-193521117D01*
X195666160Y-193597336D01*
X195788541Y-193650803D01*
X195918977Y-193679481D01*
X196052498Y-193682278D01*
X196184020Y-193659087D01*
X196308533Y-193610792D01*
X196421294Y-193539232D01*
X196518008Y-193447132D01*
X196594991Y-193338002D01*
X196649311Y-193215997D01*
X196678899Y-193085765D01*
X196681029Y-192933225D01*
X196655089Y-192802217D01*
X196604197Y-192678743D01*
X196530291Y-192567506D01*
X196436186Y-192472742D01*
X196325467Y-192398061D01*
X196202352Y-192346308D01*
X196071528Y-192319454D01*
X195937981Y-192318521D01*
X195806795Y-192343546D01*
X195682969Y-192393575D01*
X195571218Y-192466703D01*
X195475800Y-192560144D01*
X195400348Y-192670338D01*
X195347736Y-192793090D01*
X195319970Y-192923722D01*
X195318105Y-193057260D01*
X177490292Y-193057260D01*
X177478511Y-193049314D01*
X177261567Y-192958120D01*
X177031041Y-192910800D01*
X176795715Y-192909157D01*
X176564551Y-192953253D01*
X176346355Y-193041410D01*
X176149437Y-193170270D01*
X175981299Y-193334923D01*
X175848344Y-193529099D01*
X175755637Y-193745401D01*
X175706709Y-193975590D01*
X175703423Y-194210899D01*
X175561999Y-194210899D01*
X175565051Y-193992334D01*
X175519342Y-193761484D01*
X175429664Y-193543908D01*
X175299433Y-193347895D01*
X175133610Y-193180911D01*
X174938511Y-193049314D01*
X174721567Y-192958120D01*
X174491041Y-192910800D01*
X174255715Y-192909157D01*
X174024551Y-192953253D01*
X173806355Y-193041410D01*
X173609437Y-193170270D01*
X173441299Y-193334923D01*
X173308344Y-193529099D01*
X173230810Y-193710000D01*
X172275686Y-193710000D01*
X170650000Y-192084314D01*
X170650000Y-191057260D01*
X195318105Y-191057260D01*
X195342213Y-191188617D01*
X195391377Y-191312790D01*
X195463722Y-191425048D01*
X195556495Y-191521117D01*
X195666160Y-191597336D01*
X195788541Y-191650803D01*
X195918977Y-191679481D01*
X196052498Y-191682278D01*
X196184020Y-191659087D01*
X196308533Y-191610792D01*
X196421294Y-191539232D01*
X196518008Y-191447132D01*
X196594991Y-191338002D01*
X196649311Y-191215997D01*
X196678899Y-191085765D01*
X196681029Y-190933225D01*
X196655089Y-190802217D01*
X196604197Y-190678743D01*
X196530291Y-190567506D01*
X196436186Y-190472742D01*
X196325467Y-190398061D01*
X196202352Y-190346308D01*
X196071528Y-190319454D01*
X195937981Y-190318521D01*
X195806795Y-190343546D01*
X195682969Y-190393575D01*
X195571218Y-190466703D01*
X195475800Y-190560144D01*
X195400348Y-190670338D01*
X195347736Y-190793090D01*
X195319970Y-190923722D01*
X195318105Y-191057260D01*
X170650000Y-191057260D01*
X170650000Y-188455938D01*
X170873905Y-188232033D01*
X170847736Y-188293090D01*
X170819970Y-188423722D01*
X170818105Y-188557260D01*
X170842213Y-188688617D01*
X170891377Y-188812790D01*
X170963722Y-188925048D01*
X171056495Y-189021117D01*
X171166160Y-189097336D01*
X171288541Y-189150803D01*
X171418977Y-189179481D01*
X171552498Y-189182278D01*
X171684020Y-189159087D01*
X171808533Y-189110792D01*
X171892886Y-189057260D01*
X195318105Y-189057260D01*
X195342213Y-189188617D01*
X195391377Y-189312790D01*
X195463722Y-189425048D01*
X195556495Y-189521117D01*
X195666160Y-189597336D01*
X195788541Y-189650803D01*
X195918977Y-189679481D01*
X196052498Y-189682278D01*
X196184020Y-189659087D01*
X196308533Y-189610792D01*
X196421294Y-189539232D01*
X196518008Y-189447132D01*
X196594991Y-189338002D01*
X196649311Y-189215997D01*
X196678899Y-189085765D01*
X196681029Y-188933225D01*
X196655089Y-188802217D01*
X196604197Y-188678743D01*
X196530291Y-188567506D01*
X196436186Y-188472742D01*
X196325467Y-188398061D01*
X196202352Y-188346308D01*
X196071528Y-188319454D01*
X195937981Y-188318521D01*
X195806795Y-188343546D01*
X195682969Y-188393575D01*
X195571218Y-188466703D01*
X195475800Y-188560144D01*
X195400348Y-188670338D01*
X195347736Y-188793090D01*
X195319970Y-188923722D01*
X195318105Y-189057260D01*
X171892886Y-189057260D01*
X171921294Y-189039232D01*
X172018008Y-188947132D01*
X172094991Y-188838002D01*
X172149311Y-188715997D01*
X172178899Y-188585765D01*
X172181029Y-188433225D01*
X172173002Y-188392684D01*
X174665685Y-185900000D01*
X176198549Y-185900000D01*
X176198549Y-185950000D01*
X176202359Y-185997774D01*
X176227452Y-186078803D01*
X176274126Y-186149634D01*
X176338685Y-186204657D01*
X176416018Y-186239516D01*
X176500000Y-186251451D01*
X177000000Y-186251451D01*
X177047774Y-186247641D01*
X177128803Y-186222548D01*
X177199634Y-186175874D01*
X177254657Y-186111315D01*
X177289516Y-186033982D01*
X177301451Y-185950000D01*
X177301451Y-185050000D01*
X177297641Y-185002226D01*
X177272548Y-184921197D01*
X177225874Y-184850366D01*
X177161315Y-184795343D01*
X177083982Y-184760484D01*
X177000000Y-184748549D01*
X176500000Y-184748549D01*
X176452226Y-184752359D01*
X176371197Y-184777452D01*
X176300366Y-184824126D01*
X176245343Y-184888685D01*
X176210484Y-184966018D01*
X176198549Y-185050000D01*
X176198549Y-185100000D01*
X174500000Y-185100000D01*
X174463216Y-185103607D01*
X174426420Y-185106826D01*
X174424401Y-185107413D01*
X174422306Y-185107618D01*
X174386970Y-185118287D01*
X174351453Y-185128605D01*
X174349581Y-185129576D01*
X174347572Y-185130182D01*
X174315017Y-185147492D01*
X174282145Y-185164531D01*
X174280498Y-185165846D01*
X174278643Y-185166832D01*
X174250047Y-185190155D01*
X174221134Y-185213235D01*
X174218207Y-185216122D01*
X174218146Y-185216172D01*
X174218099Y-185216229D01*
X174217158Y-185217157D01*
X171607480Y-187826834D01*
X171571528Y-187819454D01*
X171437981Y-187818521D01*
X171306795Y-187843546D01*
X171232290Y-187873648D01*
X171235343Y-187870595D01*
X171258823Y-187842010D01*
X171282545Y-187813739D01*
X171283558Y-187811897D01*
X171284894Y-187810270D01*
X171302358Y-187777699D01*
X171320154Y-187745329D01*
X171320790Y-187743323D01*
X171321784Y-187741470D01*
X171332575Y-187706173D01*
X171343759Y-187670917D01*
X171343994Y-187668823D01*
X171344608Y-187666814D01*
X171348341Y-187630065D01*
X171352461Y-187593337D01*
X171352490Y-187589230D01*
X171352498Y-187589148D01*
X171352491Y-187589072D01*
X171352500Y-187587752D01*
X171352500Y-185700546D01*
X171397824Y-185696931D01*
X171478853Y-185671838D01*
X171549684Y-185625164D01*
X171604707Y-185560605D01*
X171639566Y-185483272D01*
X171651501Y-185399290D01*
X171651501Y-185399240D01*
X172089017Y-185399240D01*
X172095811Y-185399978D01*
X172097206Y-185399856D01*
X172098604Y-185399998D01*
X172136146Y-185396449D01*
X172173580Y-185393174D01*
X172174925Y-185392783D01*
X172176324Y-185392651D01*
X172212438Y-185381885D01*
X172248547Y-185371394D01*
X172249792Y-185370749D01*
X172251136Y-185370348D01*
X172284449Y-185352784D01*
X172317855Y-185335468D01*
X172318950Y-185334594D01*
X172320192Y-185333939D01*
X172349489Y-185310215D01*
X172378866Y-185286764D01*
X172380782Y-185284875D01*
X172380861Y-185284811D01*
X172380926Y-185284733D01*
X172382843Y-185282843D01*
X172404086Y-185261599D01*
X172466018Y-185289516D01*
X172550000Y-185301451D01*
X173450000Y-185301451D01*
X173497774Y-185297641D01*
X173578803Y-185272548D01*
X173649634Y-185225874D01*
X173704657Y-185161315D01*
X173739516Y-185083982D01*
X173751451Y-185000000D01*
X173751451Y-184500000D01*
X173747641Y-184452226D01*
X173722548Y-184371197D01*
X173675874Y-184300366D01*
X173611315Y-184245343D01*
X173533982Y-184210484D01*
X173450000Y-184198549D01*
X172550000Y-184198549D01*
X172502226Y-184202359D01*
X172421197Y-184227452D01*
X172350366Y-184274126D01*
X172295343Y-184338685D01*
X172287607Y-184355847D01*
X172276420Y-184356826D01*
X172274401Y-184357413D01*
X172272306Y-184357618D01*
X172236923Y-184368301D01*
X172201453Y-184378606D01*
X172199585Y-184379574D01*
X172197572Y-184380182D01*
X172164963Y-184397521D01*
X172132144Y-184414532D01*
X172130499Y-184415845D01*
X172128643Y-184416832D01*
X172100011Y-184440184D01*
X172071134Y-184463236D01*
X172068209Y-184466121D01*
X172068146Y-184466172D01*
X172068098Y-184466230D01*
X172067157Y-184467158D01*
X171935074Y-184599240D01*
X171651501Y-184599240D01*
X171651501Y-184599190D01*
X171647691Y-184551416D01*
X171622598Y-184470387D01*
X171575924Y-184399556D01*
X171511365Y-184344533D01*
X171434032Y-184309674D01*
X171350050Y-184297739D01*
X171350000Y-184297739D01*
X171350000Y-183450000D01*
X171346393Y-183413216D01*
X171345237Y-183400000D01*
X172150000Y-183400000D01*
X172150000Y-183539397D01*
X172165372Y-183616676D01*
X172195525Y-183689471D01*
X172239300Y-183754986D01*
X172295015Y-183810701D01*
X172360529Y-183854476D01*
X172433325Y-183884628D01*
X172510604Y-183900000D01*
X172850000Y-183900000D01*
X172950000Y-183800000D01*
X172950000Y-183300000D01*
X173050000Y-183300000D01*
X173050000Y-183800000D01*
X173150000Y-183900000D01*
X173489396Y-183900000D01*
X173566675Y-183884628D01*
X173639471Y-183854476D01*
X173704985Y-183810701D01*
X173760700Y-183754986D01*
X173804475Y-183689471D01*
X173834628Y-183616676D01*
X173850000Y-183539397D01*
X173850000Y-183400000D01*
X173750000Y-183300000D01*
X173050000Y-183300000D01*
X172950000Y-183300000D01*
X172250000Y-183300000D01*
X172150000Y-183400000D01*
X171345237Y-183400000D01*
X171343174Y-183376420D01*
X171342587Y-183374401D01*
X171342382Y-183372306D01*
X171331713Y-183336970D01*
X171321395Y-183301453D01*
X171320424Y-183299581D01*
X171319818Y-183297572D01*
X171302508Y-183265017D01*
X171285469Y-183232145D01*
X171284154Y-183230498D01*
X171283168Y-183228643D01*
X171259845Y-183200047D01*
X171236765Y-183171134D01*
X171233873Y-183168201D01*
X171233828Y-183168146D01*
X171233775Y-183168103D01*
X171232843Y-183167157D01*
X171150000Y-183084314D01*
X171150000Y-182960603D01*
X172150000Y-182960603D01*
X172150000Y-183100000D01*
X172250000Y-183200000D01*
X172950000Y-183200000D01*
X172950000Y-182700000D01*
X173050000Y-182700000D01*
X173050000Y-183200000D01*
X173750000Y-183200000D01*
X173850000Y-183100000D01*
X173850000Y-182960603D01*
X173834628Y-182883324D01*
X173804475Y-182810529D01*
X173760700Y-182745014D01*
X173704985Y-182689299D01*
X173639471Y-182645524D01*
X173566675Y-182615372D01*
X173489396Y-182600000D01*
X173150000Y-182600000D01*
X173050000Y-182700000D01*
X172950000Y-182700000D01*
X172850000Y-182600000D01*
X172510604Y-182600000D01*
X172433325Y-182615372D01*
X172360529Y-182645524D01*
X172295015Y-182689299D01*
X172239300Y-182745014D01*
X172195525Y-182810529D01*
X172165372Y-182883324D01*
X172150000Y-182960603D01*
X171150000Y-182960603D01*
X171150000Y-182708580D01*
X171199634Y-182675874D01*
X171254657Y-182611315D01*
X171289516Y-182533982D01*
X171301451Y-182450000D01*
X171301451Y-181550000D01*
X171297641Y-181502226D01*
X171272548Y-181421197D01*
X171225874Y-181350366D01*
X171161315Y-181295343D01*
X171083982Y-181260484D01*
X171035000Y-181253523D01*
X171035000Y-181150000D01*
X178450000Y-181150000D01*
X178450000Y-181414396D01*
X178465372Y-181491675D01*
X178495524Y-181564471D01*
X178539299Y-181629985D01*
X178595014Y-181685700D01*
X178660529Y-181729475D01*
X178733324Y-181759628D01*
X178810603Y-181775000D01*
X179100000Y-181775000D01*
X179200000Y-181675000D01*
X179200000Y-181050000D01*
X178550000Y-181050000D01*
X178450000Y-181150000D01*
X171035000Y-181150000D01*
X171035000Y-180585604D01*
X178450000Y-180585604D01*
X178450000Y-180850000D01*
X178550000Y-180950000D01*
X179200000Y-180950000D01*
X179200000Y-180325000D01*
X179300000Y-180325000D01*
X179300000Y-180950000D01*
X179320000Y-180950000D01*
X179320000Y-181050000D01*
X179300000Y-181050000D01*
X179300000Y-181675000D01*
X179400000Y-181775000D01*
X179689397Y-181775000D01*
X179766676Y-181759628D01*
X179839471Y-181729475D01*
X179904986Y-181685700D01*
X179960701Y-181629985D01*
X180004476Y-181564471D01*
X180034628Y-181491675D01*
X180050000Y-181414396D01*
X180050000Y-181393194D01*
X180052359Y-181422774D01*
X180077452Y-181503803D01*
X180124126Y-181574634D01*
X180188685Y-181629657D01*
X180266018Y-181664516D01*
X180300000Y-181669345D01*
X180300000Y-181846291D01*
X180182969Y-181893575D01*
X180071218Y-181966703D01*
X179975800Y-182060144D01*
X179900348Y-182170338D01*
X179847736Y-182293090D01*
X179819970Y-182423722D01*
X179818105Y-182557260D01*
X179842213Y-182688617D01*
X179891377Y-182812790D01*
X179963722Y-182925048D01*
X180056495Y-183021117D01*
X180166160Y-183097336D01*
X180288541Y-183150803D01*
X180418977Y-183179481D01*
X180552498Y-183182278D01*
X180684020Y-183159087D01*
X180808533Y-183110792D01*
X180921294Y-183039232D01*
X181018008Y-182947132D01*
X181094991Y-182838002D01*
X181149311Y-182715997D01*
X181178899Y-182585765D01*
X181181029Y-182433225D01*
X181173667Y-182396041D01*
X181177614Y-182383131D01*
X181190166Y-182343560D01*
X181190429Y-182341213D01*
X181191122Y-182338947D01*
X181195325Y-182297571D01*
X181199956Y-182256283D01*
X181199988Y-182251656D01*
X181199997Y-182251571D01*
X181199990Y-182251492D01*
X181200000Y-182250000D01*
X181200000Y-181671952D01*
X181278803Y-181647548D01*
X181349634Y-181600874D01*
X181404657Y-181536315D01*
X181439516Y-181458982D01*
X181451451Y-181375000D01*
X181451451Y-180625000D01*
X181447641Y-180577226D01*
X181422548Y-180496197D01*
X181375874Y-180425366D01*
X181311315Y-180370343D01*
X181233982Y-180335484D01*
X181150000Y-180323549D01*
X180350000Y-180323549D01*
X180302226Y-180327359D01*
X180221197Y-180352452D01*
X180150366Y-180399126D01*
X180095343Y-180463685D01*
X180060484Y-180541018D01*
X180050000Y-180614790D01*
X180050000Y-180585604D01*
X180034628Y-180508325D01*
X180004476Y-180435529D01*
X179960701Y-180370015D01*
X179904986Y-180314300D01*
X179839471Y-180270525D01*
X179766676Y-180240372D01*
X179689397Y-180225000D01*
X179400000Y-180225000D01*
X179300000Y-180325000D01*
X179200000Y-180325000D01*
X179100000Y-180225000D01*
X178810603Y-180225000D01*
X178733324Y-180240372D01*
X178660529Y-180270525D01*
X178595014Y-180314300D01*
X178539299Y-180370015D01*
X178495524Y-180435529D01*
X178465372Y-180508325D01*
X178450000Y-180585604D01*
X171035000Y-180585604D01*
X171035000Y-179756468D01*
X171063803Y-179747548D01*
X171134634Y-179700874D01*
X171189657Y-179636315D01*
X171224516Y-179558982D01*
X171236451Y-179475000D01*
X171236451Y-178122847D01*
X171303549Y-178189945D01*
X171303549Y-179475000D01*
X171307359Y-179522774D01*
X171332452Y-179603803D01*
X171379126Y-179674634D01*
X171443685Y-179729657D01*
X171521018Y-179764516D01*
X171605000Y-179776451D01*
X172205000Y-179776451D01*
X172252774Y-179772641D01*
X172333803Y-179747548D01*
X172404634Y-179700874D01*
X172459657Y-179636315D01*
X172494516Y-179558982D01*
X172506451Y-179475000D01*
X172506451Y-177925000D01*
X172502641Y-177877226D01*
X172477548Y-177796197D01*
X172430874Y-177725366D01*
X172366315Y-177670343D01*
X172288982Y-177635484D01*
X172205000Y-177623549D01*
X172009945Y-177623549D01*
X171679495Y-177293099D01*
X171681029Y-177183225D01*
X171655089Y-177052217D01*
X171604197Y-176928743D01*
X171530291Y-176817506D01*
X171436186Y-176722742D01*
X171325467Y-176648061D01*
X171202352Y-176596308D01*
X171071528Y-176569454D01*
X170937981Y-176568521D01*
X170806795Y-176593546D01*
X170682969Y-176643575D01*
X170571218Y-176716703D01*
X170486159Y-176800000D01*
X168686396Y-176800000D01*
X166665472Y-174779076D01*
X166647548Y-174721197D01*
X166600874Y-174650366D01*
X166536315Y-174595343D01*
X166458982Y-174560484D01*
X166375000Y-174548549D01*
X165625000Y-174548549D01*
X165577226Y-174552359D01*
X165496197Y-174577452D01*
X165425366Y-174624126D01*
X165370343Y-174688685D01*
X165335484Y-174766018D01*
X165323549Y-174850000D01*
X165323549Y-175650000D01*
X165327359Y-175697774D01*
X165352452Y-175778803D01*
X165399126Y-175849634D01*
X165463685Y-175904657D01*
X165541018Y-175939516D01*
X165614790Y-175950000D01*
X165585604Y-175950000D01*
X165508325Y-175965372D01*
X165435529Y-175995524D01*
X165370015Y-176039299D01*
X165314300Y-176095014D01*
X165270525Y-176160529D01*
X165240372Y-176233324D01*
X165225000Y-176310603D01*
X155607189Y-176310603D01*
X155649311Y-176215997D01*
X155678899Y-176085765D01*
X155681029Y-175933225D01*
X155655089Y-175802217D01*
X155604197Y-175678743D01*
X155530291Y-175567506D01*
X155436186Y-175472742D01*
X155325467Y-175398061D01*
X155202352Y-175346308D01*
X155071528Y-175319454D01*
X154937981Y-175318521D01*
X154806795Y-175343546D01*
X154682969Y-175393575D01*
X154571218Y-175466703D01*
X154475800Y-175560144D01*
X154400348Y-175670338D01*
X154347736Y-175793090D01*
X154319970Y-175923722D01*
X154318105Y-176057260D01*
X154179297Y-176057260D01*
X154181029Y-175933225D01*
X154155089Y-175802217D01*
X154104197Y-175678743D01*
X154030291Y-175567506D01*
X153936186Y-175472742D01*
X153825467Y-175398061D01*
X153702352Y-175346308D01*
X153571528Y-175319454D01*
X153437981Y-175318521D01*
X153306795Y-175343546D01*
X153182969Y-175393575D01*
X153071218Y-175466703D01*
X152975800Y-175560144D01*
X152900348Y-175670338D01*
X152847736Y-175793090D01*
X152819970Y-175923722D01*
X152818105Y-176057260D01*
X152679297Y-176057260D01*
X152681029Y-175933225D01*
X152655089Y-175802217D01*
X152604197Y-175678743D01*
X152530291Y-175567506D01*
X152436186Y-175472742D01*
X152325467Y-175398061D01*
X152202352Y-175346308D01*
X152071528Y-175319454D01*
X151937981Y-175318521D01*
X151806795Y-175343546D01*
X151682969Y-175393575D01*
X151571218Y-175466703D01*
X151475800Y-175560144D01*
X151400348Y-175670338D01*
X151347736Y-175793090D01*
X151319970Y-175923722D01*
X151318105Y-176057260D01*
X150350000Y-176057260D01*
X150350000Y-173857260D01*
X159518105Y-173857260D01*
X159542213Y-173988617D01*
X159591377Y-174112790D01*
X159663722Y-174225048D01*
X159756495Y-174321117D01*
X159866160Y-174397336D01*
X159988541Y-174450803D01*
X160118977Y-174479481D01*
X160252498Y-174482278D01*
X160384020Y-174459087D01*
X160508533Y-174410792D01*
X160621294Y-174339232D01*
X160718008Y-174247132D01*
X160794991Y-174138002D01*
X160849311Y-174015997D01*
X160878899Y-173885765D01*
X160881029Y-173733225D01*
X160855089Y-173602217D01*
X160804197Y-173478743D01*
X160730291Y-173367506D01*
X160636186Y-173272742D01*
X160525467Y-173198061D01*
X160402352Y-173146308D01*
X160271528Y-173119454D01*
X160137981Y-173118521D01*
X160006795Y-173143546D01*
X159882969Y-173193575D01*
X159771218Y-173266703D01*
X159675800Y-173360144D01*
X159600348Y-173470338D01*
X159547736Y-173593090D01*
X159519970Y-173723722D01*
X159518105Y-173857260D01*
X150350000Y-173857260D01*
X150350000Y-171531877D01*
X156677660Y-171531877D01*
X156698243Y-171758037D01*
X156762361Y-171975892D01*
X156867573Y-172177145D01*
X157009872Y-172354128D01*
X157183836Y-172500102D01*
X157382841Y-172609506D01*
X157599306Y-172678173D01*
X157824986Y-172703487D01*
X157841232Y-172703600D01*
X158158768Y-172703600D01*
X158384779Y-172681439D01*
X158602181Y-172615802D01*
X158772954Y-172525000D01*
X167493549Y-172525000D01*
X167493549Y-174075000D01*
X167497359Y-174122774D01*
X167522452Y-174203803D01*
X167569126Y-174274634D01*
X167633685Y-174329657D01*
X167711018Y-174364516D01*
X167795000Y-174376451D01*
X168395000Y-174376451D01*
X168442774Y-174372641D01*
X168523803Y-174347548D01*
X168594634Y-174300874D01*
X168649657Y-174236315D01*
X168684516Y-174158982D01*
X168696451Y-174075000D01*
X168696451Y-172525000D01*
X168692641Y-172477226D01*
X168668726Y-172400000D01*
X168793973Y-172400000D01*
X168775484Y-172441018D01*
X168763549Y-172525000D01*
X168763549Y-174075000D01*
X168767359Y-174122774D01*
X168792452Y-174203803D01*
X168839126Y-174274634D01*
X168903685Y-174329657D01*
X168965000Y-174357296D01*
X168965000Y-175115000D01*
X168968607Y-175151784D01*
X168971826Y-175188580D01*
X168972413Y-175190599D01*
X168972618Y-175192694D01*
X168983301Y-175228077D01*
X168993606Y-175263547D01*
X168994574Y-175265415D01*
X168995182Y-175267428D01*
X169012531Y-175300058D01*
X169029532Y-175332855D01*
X169030844Y-175334498D01*
X169031832Y-175336357D01*
X169055202Y-175365011D01*
X169078236Y-175393866D01*
X169081124Y-175396796D01*
X169081172Y-175396854D01*
X169081226Y-175396899D01*
X169082157Y-175397843D01*
X169717158Y-176032843D01*
X169745718Y-176056302D01*
X169774013Y-176080045D01*
X169775855Y-176081058D01*
X169777482Y-176082394D01*
X169810053Y-176099858D01*
X169842423Y-176117654D01*
X169844429Y-176118290D01*
X169846282Y-176119284D01*
X169881620Y-176130088D01*
X169916835Y-176141259D01*
X169918924Y-176141493D01*
X169920938Y-176142109D01*
X169957737Y-176145847D01*
X169994415Y-176149961D01*
X169998522Y-176149990D01*
X169998604Y-176149998D01*
X169998680Y-176149991D01*
X170000000Y-176150000D01*
X171584314Y-176150000D01*
X174642517Y-179208203D01*
X174671102Y-179231683D01*
X174699373Y-179255405D01*
X174701215Y-179256418D01*
X174702842Y-179257754D01*
X174735413Y-179275218D01*
X174767783Y-179293014D01*
X174769789Y-179293650D01*
X174771642Y-179294644D01*
X174806939Y-179305435D01*
X174842195Y-179316619D01*
X174844289Y-179316854D01*
X174846298Y-179317468D01*
X174883002Y-179321196D01*
X174919775Y-179325321D01*
X174923893Y-179325350D01*
X174923964Y-179325357D01*
X174924030Y-179325351D01*
X174925360Y-179325360D01*
X176083131Y-179325360D01*
X176099126Y-179349634D01*
X176163685Y-179404657D01*
X176241018Y-179439516D01*
X176325000Y-179451451D01*
X177775000Y-179451451D01*
X177822774Y-179447641D01*
X177903803Y-179422548D01*
X177974634Y-179375874D01*
X178029657Y-179311315D01*
X178064516Y-179233982D01*
X178076451Y-179150000D01*
X178076451Y-178700000D01*
X178072641Y-178652226D01*
X178056805Y-178601089D01*
X178064516Y-178583982D01*
X178076451Y-178500000D01*
X178076451Y-178050000D01*
X178074448Y-178024880D01*
X178561909Y-178024880D01*
X178666160Y-178097336D01*
X178788541Y-178150803D01*
X178918977Y-178179481D01*
X179052498Y-178182278D01*
X179184020Y-178159087D01*
X179308533Y-178110792D01*
X179421294Y-178039232D01*
X179518008Y-177947132D01*
X179594991Y-177838002D01*
X179600000Y-177826752D01*
X179600000Y-178250000D01*
X179603607Y-178286784D01*
X179606826Y-178323580D01*
X179607413Y-178325599D01*
X179607618Y-178327694D01*
X179618301Y-178363077D01*
X179628606Y-178398547D01*
X179629574Y-178400415D01*
X179630182Y-178402428D01*
X179647531Y-178435058D01*
X179664532Y-178467855D01*
X179665844Y-178469498D01*
X179666832Y-178471357D01*
X179690193Y-178500000D01*
X179713236Y-178528866D01*
X179716124Y-178531796D01*
X179716172Y-178531854D01*
X179716226Y-178531899D01*
X179717157Y-178532843D01*
X180967157Y-179782843D01*
X180995742Y-179806323D01*
X181024013Y-179830045D01*
X181025855Y-179831058D01*
X181027482Y-179832394D01*
X181060053Y-179849858D01*
X181092423Y-179867654D01*
X181094429Y-179868290D01*
X181096282Y-179869284D01*
X181131579Y-179880075D01*
X181166835Y-179891259D01*
X181168929Y-179891494D01*
X181170938Y-179892108D01*
X181207687Y-179895841D01*
X181244415Y-179899961D01*
X181248522Y-179899990D01*
X181248604Y-179899998D01*
X181248680Y-179899991D01*
X181250000Y-179900000D01*
X185750000Y-179900000D01*
X185786784Y-179896393D01*
X185823580Y-179893174D01*
X185825599Y-179892587D01*
X185827694Y-179892382D01*
X185863077Y-179881699D01*
X185898547Y-179871394D01*
X185900415Y-179870426D01*
X185902428Y-179869818D01*
X185935058Y-179852469D01*
X185967855Y-179835468D01*
X185969498Y-179834156D01*
X185971357Y-179833168D01*
X186000011Y-179809798D01*
X186028866Y-179786764D01*
X186031796Y-179783876D01*
X186031854Y-179783828D01*
X186031899Y-179783774D01*
X186032843Y-179782843D01*
X187392112Y-178423574D01*
X187418977Y-178429481D01*
X187438721Y-178429895D01*
X180768616Y-185100000D01*
X178801451Y-185100000D01*
X178801451Y-185050000D01*
X178797641Y-185002226D01*
X178772548Y-184921197D01*
X178725874Y-184850366D01*
X178661315Y-184795343D01*
X178583982Y-184760484D01*
X178500000Y-184748549D01*
X178000000Y-184748549D01*
X177952226Y-184752359D01*
X177871197Y-184777452D01*
X177800366Y-184824126D01*
X177745343Y-184888685D01*
X177710484Y-184966018D01*
X177698549Y-185050000D01*
X177698549Y-185950000D01*
X177702359Y-185997774D01*
X177727452Y-186078803D01*
X177774126Y-186149634D01*
X177838685Y-186204657D01*
X177916018Y-186239516D01*
X178000000Y-186251451D01*
X178500000Y-186251451D01*
X178547774Y-186247641D01*
X178628803Y-186222548D01*
X178699634Y-186175874D01*
X178754657Y-186111315D01*
X178789516Y-186033982D01*
X178801451Y-185950000D01*
X178801451Y-185900000D01*
X180173151Y-185900000D01*
X180071218Y-185966703D01*
X179975800Y-186060144D01*
X179900348Y-186170338D01*
X179847736Y-186293090D01*
X179819970Y-186423722D01*
X179818105Y-186557260D01*
X179842213Y-186688617D01*
X179891377Y-186812790D01*
X179963722Y-186925048D01*
X180056495Y-187021117D01*
X180166160Y-187097336D01*
X180288541Y-187150803D01*
X180418977Y-187179481D01*
X180552498Y-187182278D01*
X180684020Y-187159087D01*
X180808533Y-187110792D01*
X180892886Y-187057260D01*
X195318105Y-187057260D01*
X195342213Y-187188617D01*
X195391377Y-187312790D01*
X195463722Y-187425048D01*
X195556495Y-187521117D01*
X195666160Y-187597336D01*
X195788541Y-187650803D01*
X195918977Y-187679481D01*
X196052498Y-187682278D01*
X196184020Y-187659087D01*
X196308533Y-187610792D01*
X196421294Y-187539232D01*
X196518008Y-187447132D01*
X196594991Y-187338002D01*
X196649311Y-187215997D01*
X196678899Y-187085765D01*
X196681029Y-186933225D01*
X196655089Y-186802217D01*
X196604197Y-186678743D01*
X196530291Y-186567506D01*
X196436186Y-186472742D01*
X196325467Y-186398061D01*
X196202352Y-186346308D01*
X196071528Y-186319454D01*
X195937981Y-186318521D01*
X195806795Y-186343546D01*
X195682969Y-186393575D01*
X195571218Y-186466703D01*
X195475800Y-186560144D01*
X195400348Y-186670338D01*
X195347736Y-186793090D01*
X195319970Y-186923722D01*
X195318105Y-187057260D01*
X180892886Y-187057260D01*
X180921294Y-187039232D01*
X181018008Y-186947132D01*
X181094991Y-186838002D01*
X181149311Y-186715997D01*
X181178899Y-186585765D01*
X181181029Y-186433225D01*
X181173002Y-186392684D01*
X182508425Y-185057260D01*
X195318105Y-185057260D01*
X195342213Y-185188617D01*
X195391377Y-185312790D01*
X195463722Y-185425048D01*
X195556495Y-185521117D01*
X195666160Y-185597336D01*
X195788541Y-185650803D01*
X195918977Y-185679481D01*
X196052498Y-185682278D01*
X196184020Y-185659087D01*
X196308533Y-185610792D01*
X196421294Y-185539232D01*
X196518008Y-185447132D01*
X196594991Y-185338002D01*
X196649311Y-185215997D01*
X196678899Y-185085765D01*
X196681029Y-184933225D01*
X196655089Y-184802217D01*
X196604197Y-184678743D01*
X196530291Y-184567506D01*
X196436186Y-184472742D01*
X196325467Y-184398061D01*
X196202352Y-184346308D01*
X196071528Y-184319454D01*
X195937981Y-184318521D01*
X195806795Y-184343546D01*
X195682969Y-184393575D01*
X195571218Y-184466703D01*
X195475800Y-184560144D01*
X195400348Y-184670338D01*
X195347736Y-184793090D01*
X195319970Y-184923722D01*
X195318105Y-185057260D01*
X182508425Y-185057260D01*
X187288212Y-180277473D01*
X191695663Y-180277473D01*
X191812488Y-180914004D01*
X192050725Y-181515722D01*
X192401298Y-182059706D01*
X192850856Y-182525236D01*
X193382273Y-182894581D01*
X193975310Y-183153672D01*
X194607376Y-183292641D01*
X195254398Y-183306194D01*
X195891729Y-183193815D01*
X196495095Y-182959785D01*
X197041513Y-182613018D01*
X197510171Y-182166721D01*
X197883216Y-181637895D01*
X198146442Y-181046682D01*
X198289820Y-180415601D01*
X198300141Y-179676418D01*
X198174440Y-179041580D01*
X197927825Y-178443248D01*
X197569690Y-177904212D01*
X197113677Y-177445004D01*
X196577154Y-177083114D01*
X195980558Y-176832328D01*
X195346613Y-176702198D01*
X194699465Y-176697680D01*
X194063765Y-176818947D01*
X193463726Y-177061378D01*
X192922202Y-177415741D01*
X192459822Y-177868537D01*
X192094196Y-178402521D01*
X191839251Y-178997351D01*
X191704698Y-179630373D01*
X191695663Y-180277473D01*
X187288212Y-180277473D01*
X188782772Y-178782913D01*
X188782843Y-178782843D01*
X188863854Y-178701832D01*
X188887334Y-178673247D01*
X188911056Y-178644976D01*
X188912069Y-178643134D01*
X188913405Y-178641507D01*
X188930869Y-178608936D01*
X188948665Y-178576566D01*
X188949301Y-178574560D01*
X188950295Y-178572707D01*
X188961086Y-178537410D01*
X188972270Y-178502154D01*
X188972505Y-178500060D01*
X188973119Y-178498051D01*
X188976852Y-178461302D01*
X188980972Y-178424574D01*
X188981001Y-178420467D01*
X188981009Y-178420385D01*
X188981002Y-178420309D01*
X188981011Y-178418989D01*
X188981011Y-177257430D01*
X188977405Y-177220654D01*
X188974185Y-177183849D01*
X188973598Y-177181829D01*
X188973393Y-177179736D01*
X188962714Y-177144365D01*
X188952405Y-177108883D01*
X188951437Y-177107015D01*
X188950829Y-177105002D01*
X188933490Y-177072393D01*
X188916479Y-177039574D01*
X188915166Y-177037929D01*
X188914179Y-177036073D01*
X188890827Y-177007441D01*
X188867775Y-176978564D01*
X188864890Y-176975639D01*
X188864839Y-176975576D01*
X188864781Y-176975528D01*
X188863853Y-176974587D01*
X188275413Y-176386148D01*
X188246853Y-176362689D01*
X188218558Y-176338946D01*
X188216716Y-176337933D01*
X188215089Y-176336597D01*
X188182518Y-176319133D01*
X188150148Y-176301337D01*
X188148142Y-176300701D01*
X188146289Y-176299707D01*
X188110992Y-176288916D01*
X188075736Y-176277732D01*
X188073642Y-176277497D01*
X188071633Y-176276883D01*
X188034889Y-176273150D01*
X187998156Y-176269030D01*
X187994048Y-176269001D01*
X187993966Y-176268993D01*
X187993890Y-176269000D01*
X187992571Y-176268991D01*
X186265311Y-176268991D01*
X186228527Y-176272598D01*
X186191731Y-176275817D01*
X186189712Y-176276404D01*
X186187617Y-176276609D01*
X186152281Y-176287278D01*
X186116764Y-176297596D01*
X186114892Y-176298567D01*
X186112883Y-176299173D01*
X186080328Y-176316483D01*
X186047456Y-176333522D01*
X186045809Y-176334837D01*
X186043954Y-176335823D01*
X186015358Y-176359146D01*
X185986445Y-176382226D01*
X185983514Y-176385117D01*
X185983457Y-176385163D01*
X185983414Y-176385216D01*
X185982468Y-176386148D01*
X184493616Y-177875000D01*
X183972898Y-177875000D01*
X183976451Y-177850000D01*
X183976451Y-177400000D01*
X183972641Y-177352226D01*
X183956805Y-177301089D01*
X183964516Y-177283982D01*
X183976451Y-177200000D01*
X183976451Y-176750000D01*
X183972641Y-176702226D01*
X183956805Y-176651089D01*
X183964516Y-176633982D01*
X183976451Y-176550000D01*
X183976451Y-176164235D01*
X183985701Y-176154985D01*
X184029476Y-176089471D01*
X184042817Y-176057260D01*
X194318105Y-176057260D01*
X194342213Y-176188617D01*
X194391377Y-176312790D01*
X194463722Y-176425048D01*
X194556495Y-176521117D01*
X194666160Y-176597336D01*
X194788541Y-176650803D01*
X194918977Y-176679481D01*
X195052498Y-176682278D01*
X195184020Y-176659087D01*
X195308533Y-176610792D01*
X195421294Y-176539232D01*
X195518008Y-176447132D01*
X195594991Y-176338002D01*
X195649311Y-176215997D01*
X195678899Y-176085765D01*
X195679297Y-176057260D01*
X195818105Y-176057260D01*
X195842213Y-176188617D01*
X195891377Y-176312790D01*
X195963722Y-176425048D01*
X196056495Y-176521117D01*
X196166160Y-176597336D01*
X196288541Y-176650803D01*
X196418977Y-176679481D01*
X196552498Y-176682278D01*
X196684020Y-176659087D01*
X196808533Y-176610792D01*
X196921294Y-176539232D01*
X197018008Y-176447132D01*
X197094991Y-176338002D01*
X197149311Y-176215997D01*
X197178899Y-176085765D01*
X197179297Y-176057260D01*
X197318105Y-176057260D01*
X197342213Y-176188617D01*
X197391377Y-176312790D01*
X197463722Y-176425048D01*
X197556495Y-176521117D01*
X197666160Y-176597336D01*
X197788541Y-176650803D01*
X197918977Y-176679481D01*
X198052498Y-176682278D01*
X198184020Y-176659087D01*
X198308533Y-176610792D01*
X198421294Y-176539232D01*
X198518008Y-176447132D01*
X198594991Y-176338002D01*
X198649311Y-176215997D01*
X198678899Y-176085765D01*
X198681029Y-175933225D01*
X198655089Y-175802217D01*
X198604197Y-175678743D01*
X198530291Y-175567506D01*
X198436186Y-175472742D01*
X198325467Y-175398061D01*
X198202352Y-175346308D01*
X198071528Y-175319454D01*
X197937981Y-175318521D01*
X197806795Y-175343546D01*
X197682969Y-175393575D01*
X197571218Y-175466703D01*
X197475800Y-175560144D01*
X197400348Y-175670338D01*
X197347736Y-175793090D01*
X197319970Y-175923722D01*
X197318105Y-176057260D01*
X197179297Y-176057260D01*
X197181029Y-175933225D01*
X197155089Y-175802217D01*
X197104197Y-175678743D01*
X197030291Y-175567506D01*
X196936186Y-175472742D01*
X196825467Y-175398061D01*
X196702352Y-175346308D01*
X196571528Y-175319454D01*
X196437981Y-175318521D01*
X196306795Y-175343546D01*
X196182969Y-175393575D01*
X196071218Y-175466703D01*
X195975800Y-175560144D01*
X195900348Y-175670338D01*
X195847736Y-175793090D01*
X195819970Y-175923722D01*
X195818105Y-176057260D01*
X195679297Y-176057260D01*
X195681029Y-175933225D01*
X195655089Y-175802217D01*
X195604197Y-175678743D01*
X195530291Y-175567506D01*
X195436186Y-175472742D01*
X195325467Y-175398061D01*
X195202352Y-175346308D01*
X195071528Y-175319454D01*
X194937981Y-175318521D01*
X194806795Y-175343546D01*
X194682969Y-175393575D01*
X194571218Y-175466703D01*
X194475800Y-175560144D01*
X194400348Y-175670338D01*
X194347736Y-175793090D01*
X194319970Y-175923722D01*
X194318105Y-176057260D01*
X184042817Y-176057260D01*
X184059628Y-176016675D01*
X184075000Y-175939396D01*
X184075000Y-175825000D01*
X183975000Y-175725000D01*
X183000000Y-175725000D01*
X183000000Y-175745000D01*
X182900000Y-175745000D01*
X182900000Y-175725000D01*
X181925000Y-175725000D01*
X181825000Y-175825000D01*
X181825000Y-175939396D01*
X181840372Y-176016675D01*
X181870524Y-176089471D01*
X181914299Y-176154985D01*
X181923549Y-176164235D01*
X181923549Y-176550000D01*
X181927359Y-176597774D01*
X181943195Y-176648911D01*
X181935484Y-176666018D01*
X181923549Y-176750000D01*
X181923549Y-177200000D01*
X181927359Y-177247774D01*
X181943195Y-177298911D01*
X181935484Y-177316018D01*
X181923549Y-177400000D01*
X181923549Y-177850000D01*
X181927359Y-177897774D01*
X181943195Y-177948911D01*
X181935484Y-177966018D01*
X181923549Y-178050000D01*
X181923549Y-178500000D01*
X181927359Y-178547774D01*
X181943195Y-178598911D01*
X181935484Y-178616018D01*
X181923549Y-178700000D01*
X181923549Y-179100000D01*
X181415686Y-179100000D01*
X180400000Y-178084314D01*
X180400000Y-177500000D01*
X180396393Y-177463216D01*
X180393174Y-177426420D01*
X180392587Y-177424401D01*
X180392382Y-177422306D01*
X180381699Y-177386923D01*
X180371394Y-177351453D01*
X180370426Y-177349585D01*
X180369818Y-177347572D01*
X180352469Y-177314942D01*
X180335468Y-177282145D01*
X180334156Y-177280502D01*
X180333168Y-177278643D01*
X180309798Y-177249989D01*
X180286764Y-177221134D01*
X180283876Y-177218204D01*
X180283828Y-177218146D01*
X180283774Y-177218101D01*
X180282843Y-177217157D01*
X179764285Y-176698599D01*
X179791339Y-176695947D01*
X179832778Y-176692321D01*
X179835050Y-176691661D01*
X179837405Y-176691430D01*
X179877204Y-176679414D01*
X179895068Y-176674224D01*
X179918977Y-176679481D01*
X180052498Y-176682278D01*
X180184020Y-176659087D01*
X180308533Y-176610792D01*
X180421294Y-176539232D01*
X180518008Y-176447132D01*
X180594991Y-176338002D01*
X180649311Y-176215997D01*
X180678899Y-176085765D01*
X180681029Y-175933225D01*
X180655089Y-175802217D01*
X180604197Y-175678743D01*
X180530291Y-175567506D01*
X180436186Y-175472742D01*
X180325467Y-175398061D01*
X180202352Y-175346308D01*
X180071528Y-175319454D01*
X179937981Y-175318521D01*
X179806795Y-175343546D01*
X179682969Y-175393575D01*
X179571218Y-175466703D01*
X179475800Y-175560144D01*
X179400348Y-175670338D01*
X179347736Y-175793090D01*
X179346267Y-175800000D01*
X178500000Y-175800000D01*
X178458615Y-175804058D01*
X178417221Y-175807680D01*
X178414954Y-175808339D01*
X178412595Y-175808570D01*
X178372734Y-175820605D01*
X178332884Y-175832182D01*
X178330787Y-175833269D01*
X178328518Y-175833954D01*
X178291752Y-175853503D01*
X178254912Y-175872599D01*
X178253066Y-175874073D01*
X178252450Y-175874400D01*
X178175000Y-175874400D01*
X178175000Y-175825000D01*
X178075000Y-175725000D01*
X177100000Y-175725000D01*
X177100000Y-175745000D01*
X177000000Y-175745000D01*
X177000000Y-175725000D01*
X176025000Y-175725000D01*
X175925000Y-175825000D01*
X175925000Y-175939396D01*
X175940372Y-176016675D01*
X175970524Y-176089471D01*
X176014299Y-176154985D01*
X176023549Y-176164235D01*
X176023549Y-176550000D01*
X176027359Y-176597774D01*
X176043195Y-176648911D01*
X176035484Y-176666018D01*
X176023549Y-176750000D01*
X176023549Y-177200000D01*
X176027359Y-177247774D01*
X176043195Y-177298911D01*
X176035484Y-177316018D01*
X176023549Y-177400000D01*
X176023549Y-177850000D01*
X176025552Y-177875120D01*
X175440806Y-177875120D01*
X172282843Y-174717157D01*
X172254258Y-174693677D01*
X172225987Y-174669955D01*
X172224145Y-174668942D01*
X172222518Y-174667606D01*
X172189947Y-174650142D01*
X172157577Y-174632346D01*
X172155571Y-174631710D01*
X172153718Y-174630716D01*
X172118421Y-174619925D01*
X172083165Y-174608741D01*
X172081071Y-174608506D01*
X172079062Y-174607892D01*
X172042313Y-174604159D01*
X172005585Y-174600039D01*
X172001478Y-174600010D01*
X172001396Y-174600002D01*
X172001320Y-174600009D01*
X172000000Y-174600000D01*
X171301880Y-174600000D01*
X171280291Y-174567506D01*
X171186186Y-174472742D01*
X171075467Y-174398061D01*
X171001327Y-174366895D01*
X171063803Y-174347548D01*
X171134634Y-174300874D01*
X171189657Y-174236315D01*
X171224516Y-174158982D01*
X171236451Y-174075000D01*
X171236451Y-172525000D01*
X171232641Y-172477226D01*
X171208726Y-172400000D01*
X171333973Y-172400000D01*
X171315484Y-172441018D01*
X171303549Y-172525000D01*
X171303549Y-174075000D01*
X171307359Y-174122774D01*
X171332452Y-174203803D01*
X171379126Y-174274634D01*
X171443685Y-174329657D01*
X171521018Y-174364516D01*
X171605000Y-174376451D01*
X172205000Y-174376451D01*
X172252774Y-174372641D01*
X172333803Y-174347548D01*
X172404634Y-174300874D01*
X172459657Y-174236315D01*
X172494516Y-174158982D01*
X172506451Y-174075000D01*
X172506451Y-173733000D01*
X173667314Y-173733000D01*
X174753292Y-174818977D01*
X174687981Y-174818521D01*
X174556795Y-174843546D01*
X174432969Y-174893575D01*
X174321218Y-174966703D01*
X174225800Y-175060144D01*
X174150348Y-175170338D01*
X174097736Y-175293090D01*
X174069970Y-175423722D01*
X174068105Y-175557260D01*
X174092213Y-175688617D01*
X174141377Y-175812790D01*
X174213722Y-175925048D01*
X174306495Y-176021117D01*
X174416160Y-176097336D01*
X174538541Y-176150803D01*
X174668977Y-176179481D01*
X174802498Y-176182278D01*
X174934020Y-176159087D01*
X175058533Y-176110792D01*
X175171294Y-176039232D01*
X175268008Y-175947132D01*
X175344991Y-175838002D01*
X175399311Y-175715997D01*
X175428899Y-175585765D01*
X175431029Y-175433225D01*
X175426720Y-175411464D01*
X175441835Y-175416259D01*
X175443928Y-175416494D01*
X175445937Y-175417108D01*
X175482647Y-175420837D01*
X175519415Y-175424961D01*
X175523533Y-175424990D01*
X175523604Y-175424997D01*
X175523670Y-175424991D01*
X175525000Y-175425000D01*
X175925000Y-175425000D01*
X175925000Y-175525000D01*
X176025000Y-175625000D01*
X177000000Y-175625000D01*
X177000000Y-175605000D01*
X177100000Y-175605000D01*
X177100000Y-175625000D01*
X178075000Y-175625000D01*
X178175000Y-175525000D01*
X178175000Y-175410604D01*
X178159628Y-175333325D01*
X178129476Y-175260529D01*
X178085701Y-175195015D01*
X178076451Y-175185765D01*
X178076451Y-174800000D01*
X178072641Y-174752226D01*
X178056805Y-174701089D01*
X178064516Y-174683982D01*
X178076451Y-174600000D01*
X178076451Y-174150000D01*
X178074457Y-174125000D01*
X179775000Y-174125000D01*
X179811784Y-174121393D01*
X179848580Y-174118174D01*
X179850599Y-174117587D01*
X179852694Y-174117382D01*
X179888077Y-174106699D01*
X179923547Y-174096394D01*
X179925415Y-174095426D01*
X179927428Y-174094818D01*
X179960058Y-174077469D01*
X179992855Y-174060468D01*
X179994498Y-174059156D01*
X179996357Y-174058168D01*
X180025011Y-174034798D01*
X180053866Y-174011764D01*
X180056796Y-174008876D01*
X180056854Y-174008828D01*
X180056899Y-174008774D01*
X180057843Y-174007843D01*
X180568950Y-173496735D01*
X180568105Y-173557260D01*
X180592213Y-173688617D01*
X180641377Y-173812790D01*
X180713722Y-173925048D01*
X180806495Y-174021117D01*
X180916160Y-174097336D01*
X181038541Y-174150803D01*
X181168977Y-174179481D01*
X181302498Y-174182278D01*
X181434020Y-174159087D01*
X181558533Y-174110792D01*
X181671294Y-174039232D01*
X181768008Y-173947132D01*
X181844991Y-173838002D01*
X181899311Y-173715997D01*
X181923549Y-173609313D01*
X181923549Y-173950000D01*
X181927359Y-173997774D01*
X181943195Y-174048911D01*
X181935484Y-174066018D01*
X181923549Y-174150000D01*
X181923549Y-174600000D01*
X181927359Y-174647774D01*
X181943195Y-174698911D01*
X181935484Y-174716018D01*
X181923549Y-174800000D01*
X181923549Y-175185765D01*
X181914299Y-175195015D01*
X181870524Y-175260529D01*
X181840372Y-175333325D01*
X181825000Y-175410604D01*
X181825000Y-175525000D01*
X181925000Y-175625000D01*
X182900000Y-175625000D01*
X182900000Y-175605000D01*
X183000000Y-175605000D01*
X183000000Y-175625000D01*
X183975000Y-175625000D01*
X184075000Y-175525000D01*
X184075000Y-175410604D01*
X184059628Y-175333325D01*
X184029476Y-175260529D01*
X183985701Y-175195015D01*
X183976451Y-175185765D01*
X183976451Y-174800000D01*
X183972641Y-174752226D01*
X183956805Y-174701089D01*
X183964516Y-174683982D01*
X183976451Y-174600000D01*
X183976451Y-174150000D01*
X183972641Y-174102226D01*
X183956805Y-174051089D01*
X183964516Y-174033982D01*
X183976451Y-173950000D01*
X183976451Y-173500000D01*
X183972641Y-173452226D01*
X183956805Y-173401089D01*
X183964516Y-173383982D01*
X183976451Y-173300000D01*
X183976451Y-172900000D01*
X185173151Y-172900000D01*
X185071218Y-172966703D01*
X184975800Y-173060144D01*
X184900348Y-173170338D01*
X184847736Y-173293090D01*
X184819970Y-173423722D01*
X184818105Y-173557260D01*
X184842213Y-173688617D01*
X184891377Y-173812790D01*
X184963722Y-173925048D01*
X185056495Y-174021117D01*
X185166160Y-174097336D01*
X185288541Y-174150803D01*
X185418977Y-174179481D01*
X185552498Y-174182278D01*
X185684020Y-174159087D01*
X185808533Y-174110792D01*
X185921294Y-174039232D01*
X186018008Y-173947132D01*
X186051256Y-173900000D01*
X190584000Y-173900000D01*
X190584000Y-174652996D01*
X190599372Y-174730275D01*
X190629524Y-174803071D01*
X190673299Y-174868585D01*
X190729014Y-174924300D01*
X190794529Y-174968075D01*
X190867324Y-174998228D01*
X190944603Y-175013600D01*
X191850000Y-175013600D01*
X191950000Y-174913600D01*
X191950000Y-173800000D01*
X192050000Y-173800000D01*
X192050000Y-174913600D01*
X192150000Y-175013600D01*
X193055397Y-175013600D01*
X193132676Y-174998228D01*
X193205471Y-174968075D01*
X193270986Y-174924300D01*
X193326701Y-174868585D01*
X193370476Y-174803071D01*
X193400628Y-174730275D01*
X193416000Y-174652996D01*
X193416000Y-173900000D01*
X193316000Y-173800000D01*
X192050000Y-173800000D01*
X191950000Y-173800000D01*
X190684000Y-173800000D01*
X190584000Y-173900000D01*
X186051256Y-173900000D01*
X186094991Y-173838002D01*
X186149311Y-173715997D01*
X186178899Y-173585765D01*
X186181029Y-173433225D01*
X186155089Y-173302217D01*
X186104197Y-173178743D01*
X186030291Y-173067506D01*
X185936186Y-172972742D01*
X185828342Y-172900000D01*
X189447580Y-172900000D01*
X189463722Y-172925048D01*
X189556495Y-173021117D01*
X189666160Y-173097336D01*
X189788541Y-173150803D01*
X189918977Y-173179481D01*
X190052498Y-173182278D01*
X190184020Y-173159087D01*
X190308533Y-173110792D01*
X190421294Y-173039232D01*
X190518008Y-172947132D01*
X190584000Y-172853583D01*
X190584000Y-173600000D01*
X190684000Y-173700000D01*
X191950000Y-173700000D01*
X191950000Y-172586400D01*
X192050000Y-172586400D01*
X192050000Y-173700000D01*
X193316000Y-173700000D01*
X193416000Y-173600000D01*
X193416000Y-172847004D01*
X193400628Y-172769725D01*
X193370476Y-172696929D01*
X193326701Y-172631415D01*
X193270986Y-172575700D01*
X193205471Y-172531925D01*
X193132676Y-172501772D01*
X193055397Y-172486400D01*
X192150000Y-172486400D01*
X192050000Y-172586400D01*
X191950000Y-172586400D01*
X191850000Y-172486400D01*
X190944603Y-172486400D01*
X190867324Y-172501772D01*
X190794529Y-172531925D01*
X190729014Y-172575700D01*
X190673299Y-172631415D01*
X190666069Y-172642235D01*
X190678899Y-172585765D01*
X190681029Y-172433225D01*
X190655089Y-172302217D01*
X190604197Y-172178743D01*
X190530291Y-172067506D01*
X190436186Y-171972742D01*
X190325467Y-171898061D01*
X190202352Y-171846308D01*
X190071528Y-171819454D01*
X189937981Y-171818521D01*
X189806795Y-171843546D01*
X189682969Y-171893575D01*
X189571218Y-171966703D01*
X189475800Y-172060144D01*
X189448510Y-172100000D01*
X181000000Y-172100000D01*
X180963216Y-172103607D01*
X180961970Y-172103716D01*
X181395685Y-171670000D01*
X190774964Y-171670000D01*
X190867573Y-171847145D01*
X191009872Y-172024128D01*
X191183836Y-172170102D01*
X191382841Y-172279506D01*
X191599306Y-172348173D01*
X191824986Y-172373487D01*
X191841232Y-172373600D01*
X192158768Y-172373600D01*
X192384779Y-172351439D01*
X192602181Y-172285802D01*
X192802694Y-172179187D01*
X192978680Y-172035657D01*
X193123436Y-171860677D01*
X193231448Y-171660913D01*
X193298602Y-171443974D01*
X193322340Y-171218123D01*
X193301757Y-170991963D01*
X193237639Y-170774108D01*
X193132427Y-170572855D01*
X192990128Y-170395872D01*
X192816164Y-170249898D01*
X192617159Y-170140494D01*
X192400694Y-170071827D01*
X192175014Y-170046513D01*
X192158768Y-170046400D01*
X191841232Y-170046400D01*
X191615221Y-170068561D01*
X191397819Y-170134198D01*
X191197306Y-170240813D01*
X191021320Y-170384343D01*
X190876564Y-170559323D01*
X190768552Y-170759087D01*
X190734219Y-170870000D01*
X181230000Y-170870000D01*
X181193171Y-170873611D01*
X181156420Y-170876826D01*
X181154401Y-170877413D01*
X181152306Y-170877618D01*
X181116923Y-170888301D01*
X181081453Y-170898606D01*
X181079585Y-170899574D01*
X181077572Y-170900182D01*
X181044963Y-170917521D01*
X181012144Y-170934532D01*
X181010499Y-170935845D01*
X181008643Y-170936832D01*
X180980011Y-170960184D01*
X180951134Y-170983236D01*
X180948209Y-170986121D01*
X180948146Y-170986172D01*
X180948098Y-170986230D01*
X180947157Y-170987158D01*
X179259314Y-172675000D01*
X178017107Y-172675000D01*
X178000874Y-172650366D01*
X177936315Y-172595343D01*
X177858982Y-172560484D01*
X177775000Y-172548549D01*
X176325000Y-172548549D01*
X176277226Y-172552359D01*
X176196197Y-172577452D01*
X176125366Y-172624126D01*
X176070343Y-172688685D01*
X176035484Y-172766018D01*
X176023549Y-172850000D01*
X176023549Y-173300000D01*
X176027359Y-173347774D01*
X176043195Y-173398911D01*
X176035484Y-173416018D01*
X176023549Y-173500000D01*
X176023549Y-173950000D01*
X176024230Y-173958544D01*
X173782843Y-171717157D01*
X173754258Y-171693677D01*
X173725987Y-171669955D01*
X173724145Y-171668942D01*
X173722518Y-171667606D01*
X173689947Y-171650142D01*
X173657577Y-171632346D01*
X173655571Y-171631710D01*
X173653718Y-171630716D01*
X173618421Y-171619925D01*
X173583165Y-171608741D01*
X173581071Y-171608506D01*
X173579062Y-171607892D01*
X173542313Y-171604159D01*
X173505585Y-171600039D01*
X173501478Y-171600010D01*
X173501396Y-171600002D01*
X173501320Y-171600009D01*
X173500000Y-171600000D01*
X168500000Y-171600000D01*
X168463171Y-171603611D01*
X168426420Y-171606826D01*
X168424401Y-171607413D01*
X168422306Y-171607618D01*
X168386923Y-171618301D01*
X168351453Y-171628606D01*
X168349585Y-171629574D01*
X168347572Y-171630182D01*
X168314963Y-171647521D01*
X168282144Y-171664532D01*
X168280499Y-171665845D01*
X168278643Y-171666832D01*
X168250011Y-171690184D01*
X168221134Y-171713236D01*
X168218209Y-171716121D01*
X168218146Y-171716172D01*
X168218098Y-171716230D01*
X168217157Y-171717158D01*
X167812157Y-172122157D01*
X167788677Y-172150742D01*
X167764955Y-172179013D01*
X167763942Y-172180855D01*
X167762606Y-172182482D01*
X167745142Y-172215053D01*
X167736561Y-172230662D01*
X167666197Y-172252452D01*
X167595366Y-172299126D01*
X167540343Y-172363685D01*
X167505484Y-172441018D01*
X167493549Y-172525000D01*
X158772954Y-172525000D01*
X158802694Y-172509187D01*
X158978680Y-172365657D01*
X159123436Y-172190677D01*
X159231448Y-171990913D01*
X159298602Y-171773974D01*
X159322340Y-171548123D01*
X159301757Y-171321963D01*
X159237639Y-171104108D01*
X159132427Y-170902855D01*
X158990128Y-170725872D01*
X158816164Y-170579898D01*
X158617159Y-170470494D01*
X158400694Y-170401827D01*
X158175014Y-170376513D01*
X158158768Y-170376400D01*
X157841232Y-170376400D01*
X157615221Y-170398561D01*
X157397819Y-170464198D01*
X157197306Y-170570813D01*
X157021320Y-170714343D01*
X156876564Y-170889323D01*
X156768552Y-171089087D01*
X156701398Y-171306026D01*
X156677660Y-171531877D01*
X150350000Y-171531877D01*
X150350000Y-169246900D01*
X156608357Y-169246900D01*
X156661052Y-169437365D01*
X156769177Y-169660445D01*
X156918745Y-169858145D01*
X157104009Y-170022867D01*
X157317848Y-170148280D01*
X157552045Y-170229566D01*
X157797600Y-170263600D01*
X157950000Y-170263600D01*
X157950000Y-169050000D01*
X158050000Y-169050000D01*
X158050000Y-170263600D01*
X158202400Y-170263600D01*
X158447955Y-170229566D01*
X158682152Y-170148280D01*
X158895991Y-170022867D01*
X159081255Y-169858145D01*
X159230823Y-169660445D01*
X159338948Y-169437365D01*
X159391643Y-169246900D01*
X159314925Y-169050000D01*
X158050000Y-169050000D01*
X157950000Y-169050000D01*
X156685075Y-169050000D01*
X156608357Y-169246900D01*
X150350000Y-169246900D01*
X150350000Y-168753100D01*
X156608357Y-168753100D01*
X156685075Y-168950000D01*
X157950000Y-168950000D01*
X157950000Y-167736400D01*
X158050000Y-167736400D01*
X158050000Y-168950000D01*
X159314925Y-168950000D01*
X159391643Y-168753100D01*
X159338948Y-168562635D01*
X159307236Y-168497207D01*
X163200005Y-168497207D01*
X163214699Y-168652647D01*
X163259304Y-168802273D01*
X163332122Y-168940385D01*
X163430379Y-169061723D01*
X163550333Y-169161665D01*
X163687415Y-169236404D01*
X163836404Y-169283094D01*
X163991623Y-169299956D01*
X164147161Y-169286349D01*
X164297094Y-169242789D01*
X164435711Y-169170936D01*
X164557732Y-169073529D01*
X164565685Y-169065685D01*
X165331371Y-168300000D01*
X166198549Y-168300000D01*
X166198549Y-170000000D01*
X166202359Y-170047774D01*
X166227452Y-170128803D01*
X166274126Y-170199634D01*
X166338685Y-170254657D01*
X166416018Y-170289516D01*
X166500000Y-170301451D01*
X171500000Y-170301451D01*
X171547774Y-170297641D01*
X171628803Y-170272548D01*
X171699634Y-170225874D01*
X171754657Y-170161315D01*
X171789516Y-170083982D01*
X171801451Y-170000000D01*
X171801451Y-165000000D01*
X172198549Y-165000000D01*
X172198549Y-170000000D01*
X172202359Y-170047774D01*
X172227452Y-170128803D01*
X172274126Y-170199634D01*
X172338685Y-170254657D01*
X172416018Y-170289516D01*
X172500000Y-170301451D01*
X174200000Y-170301451D01*
X174200000Y-171000000D01*
X174215236Y-171155387D01*
X174260363Y-171304856D01*
X174333663Y-171442713D01*
X174432343Y-171563707D01*
X174552646Y-171663230D01*
X174689988Y-171737491D01*
X174839138Y-171783660D01*
X174994415Y-171799981D01*
X175149905Y-171785830D01*
X175299685Y-171741747D01*
X175438051Y-171669411D01*
X175559731Y-171571578D01*
X175660091Y-171451974D01*
X175735308Y-171315154D01*
X175782518Y-171166329D01*
X175799922Y-171011170D01*
X175800000Y-171000000D01*
X175800000Y-170301451D01*
X177500000Y-170301451D01*
X177547774Y-170297641D01*
X177628803Y-170272548D01*
X177699634Y-170225874D01*
X177754657Y-170161315D01*
X177789516Y-170083982D01*
X177801451Y-170000000D01*
X177801451Y-165000000D01*
X178198549Y-165000000D01*
X178198549Y-170000000D01*
X178202359Y-170047774D01*
X178227452Y-170128803D01*
X178274126Y-170199634D01*
X178338685Y-170254657D01*
X178416018Y-170289516D01*
X178500000Y-170301451D01*
X183500000Y-170301451D01*
X183547774Y-170297641D01*
X183628803Y-170272548D01*
X183699634Y-170225874D01*
X183754657Y-170161315D01*
X183789516Y-170083982D01*
X183801451Y-170000000D01*
X183801451Y-168300000D01*
X184668630Y-168300000D01*
X185434315Y-169065686D01*
X185554964Y-169164787D01*
X185692564Y-169238568D01*
X185841874Y-169284217D01*
X185997207Y-169299995D01*
X186152648Y-169285302D01*
X186302274Y-169240697D01*
X186440385Y-169167878D01*
X186561723Y-169069621D01*
X186661665Y-168949667D01*
X186736404Y-168812585D01*
X186783094Y-168663597D01*
X186783280Y-168661877D01*
X190677660Y-168661877D01*
X190698243Y-168888037D01*
X190762361Y-169105892D01*
X190867573Y-169307145D01*
X191009872Y-169484128D01*
X191183836Y-169630102D01*
X191382841Y-169739506D01*
X191599306Y-169808173D01*
X191824986Y-169833487D01*
X191841232Y-169833600D01*
X192158768Y-169833600D01*
X192384779Y-169811439D01*
X192602181Y-169745802D01*
X192802694Y-169639187D01*
X192978680Y-169495657D01*
X193123436Y-169320677D01*
X193231448Y-169120913D01*
X193298602Y-168903974D01*
X193322340Y-168678123D01*
X193301757Y-168451963D01*
X193237639Y-168234108D01*
X193132427Y-168032855D01*
X192990128Y-167855872D01*
X192816164Y-167709898D01*
X192617159Y-167600494D01*
X192400694Y-167531827D01*
X192175014Y-167506513D01*
X192158768Y-167506400D01*
X191841232Y-167506400D01*
X191615221Y-167528561D01*
X191397819Y-167594198D01*
X191197306Y-167700813D01*
X191021320Y-167844343D01*
X190876564Y-168019323D01*
X190768552Y-168219087D01*
X190701398Y-168436026D01*
X190677660Y-168661877D01*
X186783280Y-168661877D01*
X186799957Y-168508377D01*
X186786349Y-168352839D01*
X186742789Y-168202907D01*
X186670936Y-168064289D01*
X186573529Y-167942268D01*
X186565686Y-167934315D01*
X185565685Y-166934315D01*
X185508631Y-166887450D01*
X185451974Y-166839909D01*
X185448285Y-166837881D01*
X185445037Y-166835213D01*
X185379929Y-166800302D01*
X185315154Y-166764692D01*
X185311145Y-166763420D01*
X185307437Y-166761432D01*
X185236747Y-166739820D01*
X185166329Y-166717482D01*
X185162150Y-166717013D01*
X185158126Y-166715783D01*
X185084602Y-166708315D01*
X185011170Y-166700078D01*
X185002946Y-166700021D01*
X185002793Y-166700005D01*
X185002650Y-166700019D01*
X185000000Y-166700000D01*
X183801451Y-166700000D01*
X183801451Y-166121877D01*
X190677660Y-166121877D01*
X190698243Y-166348037D01*
X190762361Y-166565892D01*
X190867573Y-166767145D01*
X191009872Y-166944128D01*
X191183836Y-167090102D01*
X191382841Y-167199506D01*
X191599306Y-167268173D01*
X191824986Y-167293487D01*
X191841232Y-167293600D01*
X192158768Y-167293600D01*
X192384779Y-167271439D01*
X192602181Y-167205802D01*
X192802694Y-167099187D01*
X192978680Y-166955657D01*
X193123436Y-166780677D01*
X193231448Y-166580913D01*
X193298602Y-166363974D01*
X193322340Y-166138123D01*
X193301757Y-165911963D01*
X193237639Y-165694108D01*
X193132427Y-165492855D01*
X192990128Y-165315872D01*
X192816164Y-165169898D01*
X192617159Y-165060494D01*
X192400694Y-164991827D01*
X192175014Y-164966513D01*
X192158768Y-164966400D01*
X191841232Y-164966400D01*
X191615221Y-164988561D01*
X191397819Y-165054198D01*
X191197306Y-165160813D01*
X191021320Y-165304343D01*
X190876564Y-165479323D01*
X190768552Y-165679087D01*
X190701398Y-165896026D01*
X190677660Y-166121877D01*
X183801451Y-166121877D01*
X183801451Y-165000000D01*
X183797641Y-164952226D01*
X183772548Y-164871197D01*
X183725874Y-164800366D01*
X183661315Y-164745343D01*
X183583982Y-164710484D01*
X183500000Y-164698549D01*
X178500000Y-164698549D01*
X178452226Y-164702359D01*
X178371197Y-164727452D01*
X178300366Y-164774126D01*
X178245343Y-164838685D01*
X178210484Y-164916018D01*
X178198549Y-165000000D01*
X177801451Y-165000000D01*
X177797641Y-164952226D01*
X177772548Y-164871197D01*
X177725874Y-164800366D01*
X177661315Y-164745343D01*
X177583982Y-164710484D01*
X177500000Y-164698549D01*
X172500000Y-164698549D01*
X172452226Y-164702359D01*
X172371197Y-164727452D01*
X172300366Y-164774126D01*
X172245343Y-164838685D01*
X172210484Y-164916018D01*
X172198549Y-165000000D01*
X171801451Y-165000000D01*
X171797641Y-164952226D01*
X171772548Y-164871197D01*
X171725874Y-164800366D01*
X171661315Y-164745343D01*
X171583982Y-164710484D01*
X171500000Y-164698549D01*
X166500000Y-164698549D01*
X166452226Y-164702359D01*
X166371197Y-164727452D01*
X166300366Y-164774126D01*
X166245343Y-164838685D01*
X166210484Y-164916018D01*
X166198549Y-165000000D01*
X166198549Y-166700000D01*
X165000000Y-166700000D01*
X164926539Y-166707203D01*
X164852839Y-166713651D01*
X164848795Y-166714826D01*
X164844613Y-166715236D01*
X164773906Y-166736584D01*
X164702907Y-166757211D01*
X164699173Y-166759147D01*
X164695144Y-166760363D01*
X164629866Y-166795072D01*
X164564289Y-166829064D01*
X164561003Y-166831687D01*
X164557287Y-166833663D01*
X164500019Y-166880369D01*
X164442268Y-166926471D01*
X164436412Y-166932246D01*
X164436293Y-166932343D01*
X164436202Y-166932454D01*
X164434315Y-166934314D01*
X163434315Y-167934315D01*
X163335213Y-168054963D01*
X163261432Y-168192563D01*
X163215783Y-168341874D01*
X163200005Y-168497207D01*
X159307236Y-168497207D01*
X159230823Y-168339555D01*
X159081255Y-168141855D01*
X158895991Y-167977133D01*
X158682152Y-167851720D01*
X158447955Y-167770434D01*
X158202400Y-167736400D01*
X158050000Y-167736400D01*
X157950000Y-167736400D01*
X157797600Y-167736400D01*
X157552045Y-167770434D01*
X157317848Y-167851720D01*
X157104009Y-167977133D01*
X156918745Y-168141855D01*
X156769177Y-168339555D01*
X156661052Y-168562635D01*
X156608357Y-168753100D01*
X150350000Y-168753100D01*
X150350000Y-165596400D01*
X156682549Y-165596400D01*
X156682549Y-167323600D01*
X156686359Y-167371374D01*
X156711452Y-167452403D01*
X156758126Y-167523234D01*
X156822685Y-167578257D01*
X156900018Y-167613116D01*
X156984000Y-167625051D01*
X159016000Y-167625051D01*
X159063774Y-167621241D01*
X159144803Y-167596148D01*
X159215634Y-167549474D01*
X159270657Y-167484915D01*
X159305516Y-167407582D01*
X159317451Y-167323600D01*
X159317451Y-165596400D01*
X159313641Y-165548626D01*
X159288548Y-165467597D01*
X159241874Y-165396766D01*
X159177315Y-165341743D01*
X159099982Y-165306884D01*
X159016000Y-165294949D01*
X156984000Y-165294949D01*
X156936226Y-165298759D01*
X156855197Y-165323852D01*
X156784366Y-165370526D01*
X156729343Y-165435085D01*
X156694484Y-165512418D01*
X156682549Y-165596400D01*
X150350000Y-165596400D01*
X150350000Y-156767123D01*
X150359266Y-156672627D01*
X150381733Y-156598212D01*
X150418229Y-156529572D01*
X150467362Y-156469329D01*
X150527262Y-156419776D01*
X150595641Y-156382804D01*
X150669911Y-156359813D01*
X150747219Y-156351688D01*
X150824638Y-156358734D01*
X150899211Y-156380682D01*
X150968109Y-156416701D01*
X151028691Y-156465409D01*
X151078659Y-156524960D01*
X151116112Y-156593086D01*
X151139617Y-156667185D01*
X151150000Y-156759749D01*
X151150000Y-158000000D01*
X151153159Y-158032216D01*
X151155973Y-158064383D01*
X151156486Y-158066150D01*
X151156666Y-158067982D01*
X151166014Y-158098945D01*
X151175030Y-158129978D01*
X151175876Y-158131611D01*
X151176409Y-158133375D01*
X151191578Y-158161904D01*
X151206465Y-158190624D01*
X151207616Y-158192066D01*
X151208478Y-158193687D01*
X151228881Y-158218704D01*
X151249081Y-158244008D01*
X151251604Y-158246565D01*
X151251650Y-158246622D01*
X151251703Y-158246666D01*
X151252513Y-158247487D01*
X156752513Y-163747488D01*
X156777524Y-163768032D01*
X156802262Y-163788790D01*
X156803874Y-163789676D01*
X156805297Y-163790845D01*
X156833811Y-163806134D01*
X156862120Y-163821697D01*
X156863872Y-163822253D01*
X156865497Y-163823124D01*
X156896428Y-163832580D01*
X156927231Y-163842352D01*
X156929061Y-163842557D01*
X156930820Y-163843095D01*
X156962974Y-163846361D01*
X156995113Y-163849966D01*
X156998709Y-163849991D01*
X156998778Y-163849998D01*
X156998842Y-163849992D01*
X157000000Y-163850000D01*
X193000000Y-163850000D01*
X193032216Y-163846841D01*
X193064383Y-163844027D01*
X193066150Y-163843514D01*
X193067982Y-163843334D01*
X193098945Y-163833986D01*
X193129978Y-163824970D01*
X193131611Y-163824124D01*
X193133375Y-163823591D01*
X193161904Y-163808422D01*
X193190624Y-163793535D01*
X193192066Y-163792384D01*
X193193687Y-163791522D01*
X193218704Y-163771119D01*
X193244008Y-163750919D01*
X193246565Y-163748396D01*
X193246622Y-163748350D01*
X193246666Y-163748297D01*
X193247487Y-163747487D01*
X198747488Y-158247487D01*
X198768032Y-158222476D01*
X198788790Y-158197738D01*
X198789676Y-158196126D01*
X198790845Y-158194703D01*
X198806134Y-158166189D01*
X198821697Y-158137880D01*
X198822253Y-158136128D01*
X198823124Y-158134503D01*
X198832580Y-158103572D01*
X198842352Y-158072769D01*
X198842557Y-158070939D01*
X198843095Y-158069180D01*
X198846361Y-158037026D01*
X198849966Y-158004887D01*
X198849991Y-158001291D01*
X198849998Y-158001222D01*
X198849992Y-158001158D01*
X198850000Y-158000000D01*
X198850000Y-156767123D01*
X198859266Y-156672627D01*
X198881733Y-156598212D01*
X198918229Y-156529572D01*
X198967362Y-156469329D01*
X199027262Y-156419776D01*
X199095641Y-156382804D01*
X199169911Y-156359813D01*
X199247219Y-156351688D01*
X199324638Y-156358734D01*
M02*
