G04 (created by PCBNEW (2013-mar-13)-testing) date Wed 10 Jun 2015 12:09:16 AM EDT*
%MOIN*%
G04 Gerber Fmt 3.4, Leading zero omitted, Abs format*
%FSLAX34Y34*%
G01*
G70*
G90*
G04 APERTURE LIST*
%ADD10C,0.005906*%
%ADD11R,0.055000X0.055000*%
%ADD12C,0.055000*%
%ADD13C,0.070866*%
%ADD14C,0.030000*%
%ADD15C,0.007874*%
G04 APERTURE END LIST*
G54D10*
G54D11*
X62204Y-67535D03*
G54D12*
X62204Y-66535D03*
X62204Y-65535D03*
G54D13*
X68147Y-75846D03*
X68647Y-74846D03*
X69147Y-75846D03*
X69647Y-74846D03*
G54D11*
X75590Y-68429D03*
G54D12*
X75590Y-67429D03*
X75590Y-66429D03*
X75590Y-65429D03*
G54D14*
X77952Y-69291D03*
X76771Y-69291D03*
X77362Y-69291D03*
X61023Y-69291D03*
X59842Y-69291D03*
X60433Y-69291D03*
X73031Y-68307D03*
X64665Y-78838D03*
X72244Y-79625D03*
X63070Y-68425D03*
X68799Y-69094D03*
X67224Y-68897D03*
X64566Y-66338D03*
X70472Y-69881D03*
X68897Y-67322D03*
X73818Y-69980D03*
X73228Y-66338D03*
X74803Y-67913D03*
X70669Y-70472D03*
X71259Y-69881D03*
X77165Y-76771D03*
X77165Y-75196D03*
X77165Y-73622D03*
X77165Y-72834D03*
X77165Y-74409D03*
X77165Y-75984D03*
X77165Y-77559D03*
X60629Y-76771D03*
X60629Y-74409D03*
X60629Y-72834D03*
X60629Y-73622D03*
X60629Y-75196D03*
X60629Y-75984D03*
X60629Y-77559D03*
X70078Y-80314D03*
X69291Y-80314D03*
X67716Y-80314D03*
X66929Y-80314D03*
X68503Y-80314D03*
X70866Y-80314D03*
X71062Y-71850D03*
X70866Y-69291D03*
X65748Y-71653D03*
X67322Y-69783D03*
X71358Y-68307D03*
X66929Y-73228D03*
X62992Y-68897D03*
X73818Y-74409D03*
G54D10*
G36*
X78602Y-71990D02*
X77855Y-72737D01*
X77825Y-72781D01*
X77814Y-72834D01*
X77814Y-79513D01*
X77703Y-80076D01*
X77480Y-80409D01*
X77480Y-70725D01*
X77372Y-70465D01*
X77173Y-70265D01*
X76913Y-70157D01*
X76631Y-70157D01*
X76370Y-70265D01*
X76171Y-70464D01*
X76063Y-70724D01*
X76062Y-71006D01*
X76170Y-71267D01*
X76369Y-71466D01*
X76630Y-71574D01*
X76911Y-71574D01*
X77172Y-71467D01*
X77372Y-71268D01*
X77480Y-71007D01*
X77480Y-70725D01*
X77480Y-80409D01*
X77433Y-80479D01*
X77433Y-77505D01*
X77433Y-76718D01*
X77433Y-75931D01*
X77433Y-75143D01*
X77433Y-74356D01*
X77433Y-73568D01*
X77433Y-72781D01*
X77392Y-72682D01*
X77317Y-72607D01*
X77218Y-72566D01*
X77112Y-72566D01*
X77013Y-72607D01*
X76938Y-72682D01*
X76897Y-72781D01*
X76897Y-72887D01*
X76937Y-72986D01*
X77013Y-73061D01*
X77111Y-73102D01*
X77218Y-73102D01*
X77317Y-73062D01*
X77392Y-72986D01*
X77433Y-72888D01*
X77433Y-72781D01*
X77433Y-73568D01*
X77392Y-73470D01*
X77317Y-73394D01*
X77218Y-73353D01*
X77112Y-73353D01*
X77013Y-73394D01*
X76938Y-73469D01*
X76897Y-73568D01*
X76897Y-73675D01*
X76937Y-73773D01*
X77013Y-73849D01*
X77111Y-73890D01*
X77218Y-73890D01*
X77317Y-73849D01*
X77392Y-73774D01*
X77433Y-73675D01*
X77433Y-73568D01*
X77433Y-74356D01*
X77392Y-74257D01*
X77317Y-74182D01*
X77218Y-74141D01*
X77112Y-74141D01*
X77013Y-74182D01*
X76938Y-74257D01*
X76897Y-74355D01*
X76897Y-74462D01*
X76937Y-74561D01*
X77013Y-74636D01*
X77111Y-74677D01*
X77218Y-74677D01*
X77317Y-74636D01*
X77392Y-74561D01*
X77433Y-74463D01*
X77433Y-74356D01*
X77433Y-75143D01*
X77392Y-75045D01*
X77317Y-74969D01*
X77218Y-74928D01*
X77112Y-74928D01*
X77013Y-74969D01*
X76938Y-75044D01*
X76897Y-75143D01*
X76897Y-75249D01*
X76937Y-75348D01*
X77013Y-75424D01*
X77111Y-75464D01*
X77218Y-75465D01*
X77317Y-75424D01*
X77392Y-75348D01*
X77433Y-75250D01*
X77433Y-75143D01*
X77433Y-75931D01*
X77392Y-75832D01*
X77317Y-75757D01*
X77218Y-75716D01*
X77112Y-75716D01*
X77013Y-75756D01*
X76938Y-75832D01*
X76897Y-75930D01*
X76897Y-76037D01*
X76937Y-76135D01*
X77013Y-76211D01*
X77111Y-76252D01*
X77218Y-76252D01*
X77317Y-76211D01*
X77392Y-76136D01*
X77433Y-76037D01*
X77433Y-75931D01*
X77433Y-76718D01*
X77392Y-76619D01*
X77317Y-76544D01*
X77218Y-76503D01*
X77112Y-76503D01*
X77013Y-76544D01*
X76938Y-76619D01*
X76897Y-76718D01*
X76897Y-76824D01*
X76937Y-76923D01*
X77013Y-76998D01*
X77111Y-77039D01*
X77218Y-77039D01*
X77317Y-76999D01*
X77392Y-76923D01*
X77433Y-76825D01*
X77433Y-76718D01*
X77433Y-77505D01*
X77392Y-77407D01*
X77317Y-77331D01*
X77218Y-77290D01*
X77112Y-77290D01*
X77013Y-77331D01*
X76938Y-77406D01*
X76897Y-77505D01*
X76897Y-77612D01*
X76937Y-77710D01*
X77013Y-77786D01*
X77111Y-77827D01*
X77218Y-77827D01*
X77317Y-77786D01*
X77392Y-77711D01*
X77433Y-77612D01*
X77433Y-77505D01*
X77433Y-80479D01*
X77392Y-80541D01*
X77086Y-80745D01*
X77086Y-79387D01*
X76979Y-79126D01*
X76779Y-78927D01*
X76519Y-78819D01*
X76237Y-78818D01*
X75983Y-78923D01*
X75983Y-67351D01*
X75983Y-66351D01*
X75983Y-65351D01*
X75924Y-65206D01*
X75813Y-65096D01*
X75669Y-65036D01*
X75512Y-65035D01*
X75368Y-65095D01*
X75257Y-65206D01*
X75197Y-65350D01*
X75197Y-65506D01*
X75257Y-65651D01*
X75367Y-65762D01*
X75512Y-65822D01*
X75668Y-65822D01*
X75812Y-65762D01*
X75923Y-65652D01*
X75983Y-65507D01*
X75983Y-65351D01*
X75983Y-66351D01*
X75924Y-66206D01*
X75813Y-66096D01*
X75669Y-66036D01*
X75512Y-66035D01*
X75368Y-66095D01*
X75257Y-66206D01*
X75197Y-66350D01*
X75197Y-66506D01*
X75257Y-66651D01*
X75367Y-66762D01*
X75512Y-66822D01*
X75668Y-66822D01*
X75812Y-66762D01*
X75923Y-66652D01*
X75983Y-66507D01*
X75983Y-66351D01*
X75983Y-67351D01*
X75924Y-67206D01*
X75813Y-67096D01*
X75669Y-67036D01*
X75512Y-67035D01*
X75368Y-67095D01*
X75257Y-67206D01*
X75197Y-67350D01*
X75197Y-67506D01*
X75257Y-67651D01*
X75367Y-67762D01*
X75512Y-67822D01*
X75668Y-67822D01*
X75812Y-67762D01*
X75923Y-67652D01*
X75983Y-67507D01*
X75983Y-67351D01*
X75983Y-78923D01*
X75983Y-78923D01*
X75983Y-68727D01*
X75983Y-68680D01*
X75983Y-68130D01*
X75965Y-68087D01*
X75932Y-68054D01*
X75889Y-68036D01*
X75842Y-68036D01*
X75292Y-68036D01*
X75248Y-68054D01*
X75215Y-68087D01*
X75197Y-68130D01*
X75197Y-68177D01*
X75197Y-68727D01*
X75215Y-68771D01*
X75248Y-68804D01*
X75292Y-68822D01*
X75339Y-68822D01*
X75889Y-68822D01*
X75932Y-68804D01*
X75965Y-68771D01*
X75983Y-68727D01*
X75983Y-78923D01*
X75977Y-78926D01*
X75777Y-79125D01*
X75669Y-79385D01*
X75669Y-79667D01*
X75776Y-79928D01*
X75976Y-80127D01*
X76236Y-80236D01*
X76518Y-80236D01*
X76778Y-80128D01*
X76978Y-79929D01*
X77086Y-79669D01*
X77086Y-79387D01*
X77086Y-80745D01*
X76926Y-80852D01*
X76364Y-80964D01*
X75071Y-80964D01*
X75071Y-67860D01*
X75030Y-67761D01*
X74955Y-67686D01*
X74856Y-67645D01*
X74750Y-67645D01*
X74651Y-67685D01*
X74575Y-67761D01*
X74535Y-67859D01*
X74534Y-67966D01*
X74575Y-68065D01*
X74651Y-68140D01*
X74749Y-68181D01*
X74856Y-68181D01*
X74954Y-68140D01*
X75030Y-68065D01*
X75071Y-67966D01*
X75071Y-67860D01*
X75071Y-80964D01*
X74087Y-80964D01*
X74087Y-74356D01*
X74087Y-69927D01*
X74046Y-69828D01*
X73970Y-69753D01*
X73872Y-69712D01*
X73765Y-69712D01*
X73667Y-69752D01*
X73591Y-69828D01*
X73550Y-69926D01*
X73550Y-70033D01*
X73591Y-70131D01*
X73666Y-70207D01*
X73765Y-70248D01*
X73871Y-70248D01*
X73970Y-70207D01*
X74046Y-70132D01*
X74086Y-70033D01*
X74087Y-69927D01*
X74087Y-74356D01*
X74046Y-74257D01*
X73970Y-74182D01*
X73872Y-74141D01*
X73765Y-74141D01*
X73667Y-74182D01*
X73591Y-74257D01*
X73550Y-74355D01*
X73550Y-74462D01*
X73591Y-74561D01*
X73666Y-74636D01*
X73765Y-74677D01*
X73871Y-74677D01*
X73970Y-74636D01*
X74046Y-74561D01*
X74086Y-74463D01*
X74087Y-74356D01*
X74087Y-80964D01*
X73496Y-80964D01*
X73496Y-66285D01*
X73455Y-66186D01*
X73380Y-66111D01*
X73281Y-66070D01*
X73175Y-66070D01*
X73076Y-66111D01*
X73001Y-66186D01*
X72960Y-66285D01*
X72960Y-66391D01*
X73000Y-66490D01*
X73076Y-66565D01*
X73174Y-66606D01*
X73281Y-66606D01*
X73380Y-66566D01*
X73455Y-66490D01*
X73496Y-66392D01*
X73496Y-66285D01*
X73496Y-80964D01*
X71645Y-80964D01*
X71645Y-78198D01*
X71626Y-78151D01*
X71626Y-68253D01*
X71585Y-68155D01*
X71510Y-68079D01*
X71411Y-68039D01*
X71305Y-68038D01*
X71206Y-68079D01*
X71131Y-68155D01*
X71090Y-68253D01*
X71090Y-68360D01*
X71130Y-68458D01*
X71206Y-68534D01*
X71304Y-68575D01*
X71411Y-68575D01*
X71509Y-68534D01*
X71585Y-68459D01*
X71626Y-68360D01*
X71626Y-68253D01*
X71626Y-78151D01*
X71532Y-77923D01*
X71527Y-77919D01*
X71527Y-69828D01*
X71487Y-69730D01*
X71411Y-69654D01*
X71313Y-69613D01*
X71206Y-69613D01*
X71134Y-69643D01*
X71134Y-69238D01*
X71093Y-69139D01*
X71018Y-69064D01*
X70919Y-69023D01*
X70813Y-69023D01*
X70714Y-69063D01*
X70638Y-69139D01*
X70598Y-69237D01*
X70597Y-69344D01*
X70638Y-69443D01*
X70714Y-69518D01*
X70812Y-69559D01*
X70919Y-69559D01*
X71017Y-69518D01*
X71093Y-69443D01*
X71134Y-69344D01*
X71134Y-69238D01*
X71134Y-69643D01*
X71108Y-69654D01*
X71032Y-69729D01*
X70991Y-69828D01*
X70991Y-69934D01*
X71032Y-70033D01*
X71107Y-70109D01*
X71206Y-70149D01*
X71312Y-70150D01*
X71411Y-70109D01*
X71487Y-70033D01*
X71527Y-69935D01*
X71527Y-69828D01*
X71527Y-77919D01*
X71331Y-77721D01*
X71331Y-71797D01*
X71290Y-71698D01*
X71215Y-71623D01*
X71116Y-71582D01*
X71009Y-71582D01*
X70937Y-71612D01*
X70937Y-70419D01*
X70896Y-70320D01*
X70821Y-70245D01*
X70740Y-70211D01*
X70740Y-69828D01*
X70699Y-69730D01*
X70624Y-69654D01*
X70526Y-69613D01*
X70419Y-69613D01*
X70320Y-69654D01*
X70245Y-69729D01*
X70204Y-69828D01*
X70204Y-69934D01*
X70245Y-70033D01*
X70320Y-70109D01*
X70418Y-70149D01*
X70525Y-70150D01*
X70624Y-70109D01*
X70699Y-70033D01*
X70740Y-69935D01*
X70740Y-69828D01*
X70740Y-70211D01*
X70722Y-70204D01*
X70616Y-70204D01*
X70517Y-70245D01*
X70442Y-70320D01*
X70401Y-70418D01*
X70401Y-70525D01*
X70441Y-70624D01*
X70517Y-70699D01*
X70615Y-70740D01*
X70722Y-70740D01*
X70820Y-70699D01*
X70896Y-70624D01*
X70937Y-70526D01*
X70937Y-70419D01*
X70937Y-71612D01*
X70911Y-71622D01*
X70835Y-71698D01*
X70794Y-71796D01*
X70794Y-71903D01*
X70835Y-72002D01*
X70910Y-72077D01*
X71009Y-72118D01*
X71116Y-72118D01*
X71214Y-72077D01*
X71290Y-72002D01*
X71331Y-71903D01*
X71331Y-71797D01*
X71331Y-77721D01*
X71321Y-77712D01*
X71047Y-77598D01*
X70749Y-77598D01*
X70474Y-77711D01*
X70263Y-77922D01*
X70149Y-78197D01*
X70149Y-78494D01*
X70263Y-78769D01*
X70473Y-78980D01*
X70748Y-79094D01*
X71045Y-79094D01*
X71320Y-78980D01*
X71531Y-78770D01*
X71645Y-78495D01*
X71645Y-78198D01*
X71645Y-80964D01*
X71134Y-80964D01*
X71134Y-80261D01*
X71093Y-80163D01*
X71018Y-80087D01*
X70919Y-80046D01*
X70813Y-80046D01*
X70714Y-80087D01*
X70638Y-80162D01*
X70598Y-80261D01*
X70597Y-80368D01*
X70638Y-80466D01*
X70714Y-80542D01*
X70812Y-80583D01*
X70919Y-80583D01*
X71017Y-80542D01*
X71093Y-80467D01*
X71134Y-80368D01*
X71134Y-80261D01*
X71134Y-80964D01*
X70346Y-80964D01*
X70346Y-80261D01*
X70306Y-80163D01*
X70230Y-80087D01*
X70132Y-80046D01*
X70120Y-80046D01*
X70120Y-74752D01*
X70048Y-74579D01*
X69915Y-74446D01*
X69742Y-74374D01*
X69554Y-74373D01*
X69380Y-74445D01*
X69247Y-74578D01*
X69175Y-74752D01*
X69175Y-74940D01*
X69246Y-75113D01*
X69379Y-75246D01*
X69553Y-75318D01*
X69741Y-75318D01*
X69914Y-75247D01*
X70047Y-75114D01*
X70119Y-74940D01*
X70120Y-74752D01*
X70120Y-80046D01*
X70025Y-80046D01*
X69927Y-80087D01*
X69851Y-80162D01*
X69810Y-80261D01*
X69810Y-80368D01*
X69851Y-80466D01*
X69926Y-80542D01*
X70025Y-80583D01*
X70131Y-80583D01*
X70230Y-80542D01*
X70305Y-80467D01*
X70346Y-80368D01*
X70346Y-80261D01*
X70346Y-80964D01*
X69620Y-80964D01*
X69620Y-75752D01*
X69548Y-75579D01*
X69415Y-75446D01*
X69242Y-75374D01*
X69165Y-75374D01*
X69165Y-67269D01*
X69125Y-67171D01*
X69049Y-67095D01*
X68951Y-67054D01*
X68844Y-67054D01*
X68745Y-67095D01*
X68670Y-67170D01*
X68629Y-67269D01*
X68629Y-67375D01*
X68670Y-67474D01*
X68745Y-67549D01*
X68844Y-67590D01*
X68950Y-67590D01*
X69049Y-67550D01*
X69124Y-67474D01*
X69165Y-67376D01*
X69165Y-67269D01*
X69165Y-75374D01*
X69120Y-75373D01*
X69120Y-74752D01*
X69048Y-74579D01*
X68915Y-74446D01*
X68742Y-74374D01*
X68554Y-74373D01*
X68380Y-74445D01*
X68247Y-74578D01*
X68175Y-74752D01*
X68175Y-74940D01*
X68246Y-75113D01*
X68379Y-75246D01*
X68553Y-75318D01*
X68741Y-75318D01*
X68914Y-75247D01*
X69047Y-75114D01*
X69119Y-74940D01*
X69120Y-74752D01*
X69120Y-75373D01*
X69054Y-75373D01*
X68880Y-75445D01*
X68747Y-75578D01*
X68675Y-75752D01*
X68675Y-75940D01*
X68746Y-76113D01*
X68879Y-76246D01*
X69053Y-76318D01*
X69241Y-76318D01*
X69414Y-76247D01*
X69547Y-76114D01*
X69619Y-75940D01*
X69620Y-75752D01*
X69620Y-80964D01*
X69559Y-80964D01*
X69559Y-80261D01*
X69518Y-80163D01*
X69443Y-80087D01*
X69344Y-80046D01*
X69238Y-80046D01*
X69139Y-80087D01*
X69064Y-80162D01*
X69023Y-80261D01*
X69023Y-80368D01*
X69063Y-80466D01*
X69139Y-80542D01*
X69237Y-80583D01*
X69344Y-80583D01*
X69443Y-80542D01*
X69518Y-80467D01*
X69559Y-80368D01*
X69559Y-80261D01*
X69559Y-80964D01*
X68772Y-80964D01*
X68772Y-80261D01*
X68731Y-80163D01*
X68656Y-80087D01*
X68620Y-80072D01*
X68620Y-75752D01*
X68548Y-75579D01*
X68415Y-75446D01*
X68242Y-75374D01*
X68054Y-75373D01*
X67880Y-75445D01*
X67747Y-75578D01*
X67675Y-75752D01*
X67675Y-75940D01*
X67746Y-76113D01*
X67879Y-76246D01*
X68053Y-76318D01*
X68241Y-76318D01*
X68414Y-76247D01*
X68547Y-76114D01*
X68619Y-75940D01*
X68620Y-75752D01*
X68620Y-80072D01*
X68557Y-80046D01*
X68450Y-80046D01*
X68352Y-80087D01*
X68276Y-80162D01*
X68235Y-80261D01*
X68235Y-80368D01*
X68276Y-80466D01*
X68351Y-80542D01*
X68450Y-80583D01*
X68557Y-80583D01*
X68655Y-80542D01*
X68731Y-80467D01*
X68772Y-80368D01*
X68772Y-80261D01*
X68772Y-80964D01*
X67984Y-80964D01*
X67984Y-80261D01*
X67943Y-80163D01*
X67868Y-80087D01*
X67770Y-80046D01*
X67663Y-80046D01*
X67645Y-80054D01*
X67645Y-78198D01*
X67590Y-78065D01*
X67590Y-69730D01*
X67550Y-69631D01*
X67492Y-69573D01*
X67492Y-68844D01*
X67451Y-68745D01*
X67376Y-68670D01*
X67277Y-68629D01*
X67171Y-68629D01*
X67072Y-68670D01*
X66997Y-68745D01*
X66956Y-68844D01*
X66956Y-68950D01*
X66996Y-69049D01*
X67072Y-69124D01*
X67170Y-69165D01*
X67277Y-69165D01*
X67376Y-69125D01*
X67451Y-69049D01*
X67492Y-68951D01*
X67492Y-68844D01*
X67492Y-69573D01*
X67474Y-69556D01*
X67376Y-69515D01*
X67269Y-69515D01*
X67171Y-69556D01*
X67095Y-69631D01*
X67054Y-69729D01*
X67054Y-69836D01*
X67095Y-69935D01*
X67170Y-70010D01*
X67269Y-70051D01*
X67375Y-70051D01*
X67474Y-70010D01*
X67549Y-69935D01*
X67590Y-69837D01*
X67590Y-69730D01*
X67590Y-78065D01*
X67532Y-77923D01*
X67321Y-77712D01*
X67197Y-77660D01*
X67197Y-73175D01*
X67156Y-73076D01*
X67081Y-73001D01*
X66982Y-72960D01*
X66876Y-72960D01*
X66777Y-73000D01*
X66701Y-73076D01*
X66661Y-73174D01*
X66660Y-73281D01*
X66701Y-73380D01*
X66777Y-73455D01*
X66875Y-73496D01*
X66982Y-73496D01*
X67080Y-73455D01*
X67156Y-73380D01*
X67197Y-73281D01*
X67197Y-73175D01*
X67197Y-77660D01*
X67047Y-77598D01*
X66749Y-77598D01*
X66474Y-77711D01*
X66263Y-77922D01*
X66149Y-78197D01*
X66149Y-78494D01*
X66263Y-78769D01*
X66473Y-78980D01*
X66748Y-79094D01*
X67045Y-79094D01*
X67320Y-78980D01*
X67531Y-78770D01*
X67645Y-78495D01*
X67645Y-78198D01*
X67645Y-80054D01*
X67564Y-80087D01*
X67489Y-80162D01*
X67448Y-80261D01*
X67448Y-80368D01*
X67489Y-80466D01*
X67564Y-80542D01*
X67662Y-80583D01*
X67769Y-80583D01*
X67868Y-80542D01*
X67943Y-80467D01*
X67984Y-80368D01*
X67984Y-80261D01*
X67984Y-80964D01*
X67197Y-80964D01*
X67197Y-80261D01*
X67156Y-80163D01*
X67081Y-80087D01*
X66982Y-80046D01*
X66876Y-80046D01*
X66777Y-80087D01*
X66701Y-80162D01*
X66661Y-80261D01*
X66660Y-80368D01*
X66701Y-80466D01*
X66777Y-80542D01*
X66875Y-80583D01*
X66982Y-80583D01*
X67080Y-80542D01*
X67156Y-80467D01*
X67197Y-80368D01*
X67197Y-80261D01*
X67197Y-80964D01*
X66016Y-80964D01*
X66016Y-71600D01*
X65975Y-71501D01*
X65900Y-71426D01*
X65801Y-71385D01*
X65694Y-71385D01*
X65596Y-71426D01*
X65520Y-71501D01*
X65479Y-71599D01*
X65479Y-71706D01*
X65520Y-71805D01*
X65595Y-71880D01*
X65694Y-71921D01*
X65801Y-71921D01*
X65899Y-71880D01*
X65975Y-71805D01*
X66016Y-71707D01*
X66016Y-71600D01*
X66016Y-80964D01*
X64835Y-80964D01*
X64835Y-66285D01*
X64794Y-66186D01*
X64718Y-66111D01*
X64620Y-66070D01*
X64513Y-66070D01*
X64415Y-66111D01*
X64339Y-66186D01*
X64298Y-66285D01*
X64298Y-66391D01*
X64339Y-66490D01*
X64414Y-66565D01*
X64513Y-66606D01*
X64620Y-66606D01*
X64718Y-66566D01*
X64794Y-66490D01*
X64834Y-66392D01*
X64835Y-66285D01*
X64835Y-80964D01*
X63260Y-80964D01*
X63260Y-68844D01*
X63219Y-68745D01*
X63144Y-68670D01*
X63045Y-68629D01*
X62939Y-68629D01*
X62840Y-68670D01*
X62764Y-68745D01*
X62724Y-68844D01*
X62723Y-68950D01*
X62764Y-69049D01*
X62840Y-69124D01*
X62938Y-69165D01*
X63045Y-69165D01*
X63143Y-69125D01*
X63219Y-69049D01*
X63260Y-68951D01*
X63260Y-68844D01*
X63260Y-80964D01*
X62637Y-80964D01*
X62637Y-67841D01*
X62637Y-67712D01*
X62637Y-67358D01*
X62637Y-67229D01*
X62613Y-67171D01*
X62597Y-67155D01*
X62597Y-66457D01*
X62597Y-65457D01*
X62538Y-65313D01*
X62427Y-65202D01*
X62283Y-65142D01*
X62126Y-65142D01*
X61982Y-65201D01*
X61871Y-65312D01*
X61811Y-65456D01*
X61811Y-65613D01*
X61871Y-65757D01*
X61981Y-65868D01*
X62126Y-65928D01*
X62282Y-65928D01*
X62427Y-65868D01*
X62537Y-65758D01*
X62597Y-65613D01*
X62597Y-65457D01*
X62597Y-66457D01*
X62538Y-66313D01*
X62427Y-66202D01*
X62283Y-66142D01*
X62126Y-66142D01*
X61982Y-66201D01*
X61871Y-66312D01*
X61811Y-66456D01*
X61811Y-66613D01*
X61871Y-66757D01*
X61981Y-66868D01*
X62126Y-66928D01*
X62282Y-66928D01*
X62427Y-66868D01*
X62537Y-66758D01*
X62597Y-66613D01*
X62597Y-66457D01*
X62597Y-67155D01*
X62568Y-67126D01*
X62511Y-67102D01*
X62448Y-67102D01*
X62381Y-67102D01*
X62342Y-67142D01*
X62342Y-67397D01*
X62597Y-67397D01*
X62637Y-67358D01*
X62637Y-67712D01*
X62597Y-67672D01*
X62342Y-67672D01*
X62342Y-67928D01*
X62381Y-67967D01*
X62448Y-67967D01*
X62511Y-67967D01*
X62568Y-67943D01*
X62613Y-67899D01*
X62637Y-67841D01*
X62637Y-80964D01*
X62126Y-80964D01*
X62126Y-79387D01*
X62067Y-79244D01*
X62067Y-67928D01*
X62067Y-67672D01*
X62067Y-67397D01*
X62067Y-67142D01*
X62027Y-67102D01*
X61961Y-67102D01*
X61898Y-67102D01*
X61840Y-67126D01*
X61796Y-67171D01*
X61772Y-67229D01*
X61772Y-67358D01*
X61811Y-67397D01*
X62067Y-67397D01*
X62067Y-67672D01*
X61811Y-67672D01*
X61772Y-67712D01*
X61772Y-67841D01*
X61796Y-67899D01*
X61840Y-67943D01*
X61898Y-67967D01*
X61961Y-67967D01*
X62027Y-67967D01*
X62067Y-67928D01*
X62067Y-79244D01*
X62018Y-79126D01*
X61819Y-78927D01*
X61732Y-78891D01*
X61732Y-70725D01*
X61624Y-70465D01*
X61425Y-70265D01*
X61165Y-70157D01*
X60883Y-70157D01*
X60622Y-70265D01*
X60423Y-70464D01*
X60315Y-70724D01*
X60314Y-71006D01*
X60422Y-71267D01*
X60621Y-71466D01*
X60882Y-71574D01*
X61163Y-71574D01*
X61424Y-71467D01*
X61624Y-71268D01*
X61732Y-71007D01*
X61732Y-70725D01*
X61732Y-78891D01*
X61558Y-78819D01*
X61276Y-78818D01*
X61016Y-78926D01*
X60898Y-79044D01*
X60898Y-77505D01*
X60898Y-76718D01*
X60898Y-75931D01*
X60898Y-75143D01*
X60898Y-74356D01*
X60898Y-73568D01*
X60898Y-72781D01*
X60857Y-72682D01*
X60781Y-72607D01*
X60683Y-72566D01*
X60576Y-72566D01*
X60478Y-72607D01*
X60402Y-72682D01*
X60361Y-72781D01*
X60361Y-72887D01*
X60402Y-72986D01*
X60477Y-73061D01*
X60576Y-73102D01*
X60683Y-73102D01*
X60781Y-73062D01*
X60857Y-72986D01*
X60897Y-72888D01*
X60898Y-72781D01*
X60898Y-73568D01*
X60857Y-73470D01*
X60781Y-73394D01*
X60683Y-73353D01*
X60576Y-73353D01*
X60478Y-73394D01*
X60402Y-73469D01*
X60361Y-73568D01*
X60361Y-73675D01*
X60402Y-73773D01*
X60477Y-73849D01*
X60576Y-73890D01*
X60683Y-73890D01*
X60781Y-73849D01*
X60857Y-73774D01*
X60897Y-73675D01*
X60898Y-73568D01*
X60898Y-74356D01*
X60857Y-74257D01*
X60781Y-74182D01*
X60683Y-74141D01*
X60576Y-74141D01*
X60478Y-74182D01*
X60402Y-74257D01*
X60361Y-74355D01*
X60361Y-74462D01*
X60402Y-74561D01*
X60477Y-74636D01*
X60576Y-74677D01*
X60683Y-74677D01*
X60781Y-74636D01*
X60857Y-74561D01*
X60897Y-74463D01*
X60898Y-74356D01*
X60898Y-75143D01*
X60857Y-75045D01*
X60781Y-74969D01*
X60683Y-74928D01*
X60576Y-74928D01*
X60478Y-74969D01*
X60402Y-75044D01*
X60361Y-75143D01*
X60361Y-75249D01*
X60402Y-75348D01*
X60477Y-75424D01*
X60576Y-75464D01*
X60683Y-75465D01*
X60781Y-75424D01*
X60857Y-75348D01*
X60897Y-75250D01*
X60898Y-75143D01*
X60898Y-75931D01*
X60857Y-75832D01*
X60781Y-75757D01*
X60683Y-75716D01*
X60576Y-75716D01*
X60478Y-75756D01*
X60402Y-75832D01*
X60361Y-75930D01*
X60361Y-76037D01*
X60402Y-76135D01*
X60477Y-76211D01*
X60576Y-76252D01*
X60683Y-76252D01*
X60781Y-76211D01*
X60857Y-76136D01*
X60897Y-76037D01*
X60898Y-75931D01*
X60898Y-76718D01*
X60857Y-76619D01*
X60781Y-76544D01*
X60683Y-76503D01*
X60576Y-76503D01*
X60478Y-76544D01*
X60402Y-76619D01*
X60361Y-76718D01*
X60361Y-76824D01*
X60402Y-76923D01*
X60477Y-76998D01*
X60576Y-77039D01*
X60683Y-77039D01*
X60781Y-76999D01*
X60857Y-76923D01*
X60897Y-76825D01*
X60898Y-76718D01*
X60898Y-77505D01*
X60857Y-77407D01*
X60781Y-77331D01*
X60683Y-77290D01*
X60576Y-77290D01*
X60478Y-77331D01*
X60402Y-77406D01*
X60361Y-77505D01*
X60361Y-77612D01*
X60402Y-77710D01*
X60477Y-77786D01*
X60576Y-77827D01*
X60683Y-77827D01*
X60781Y-77786D01*
X60857Y-77711D01*
X60897Y-77612D01*
X60898Y-77505D01*
X60898Y-79044D01*
X60816Y-79125D01*
X60708Y-79385D01*
X60708Y-79667D01*
X60816Y-79928D01*
X61015Y-80127D01*
X61275Y-80236D01*
X61557Y-80236D01*
X61818Y-80128D01*
X62017Y-79929D01*
X62125Y-79669D01*
X62126Y-79387D01*
X62126Y-80964D01*
X61430Y-80964D01*
X60868Y-80852D01*
X60403Y-80541D01*
X60092Y-80076D01*
X59980Y-79513D01*
X59980Y-72834D01*
X59971Y-72790D01*
X59969Y-72781D01*
X59969Y-72781D01*
X59939Y-72737D01*
X59192Y-71990D01*
X59192Y-61726D01*
X59207Y-61653D01*
X59240Y-61603D01*
X59291Y-61569D01*
X59350Y-61557D01*
X59409Y-61569D01*
X59459Y-61603D01*
X59493Y-61653D01*
X59507Y-61726D01*
X59507Y-62204D01*
X59518Y-62257D01*
X59548Y-62302D01*
X61713Y-64467D01*
X61758Y-64497D01*
X61811Y-64507D01*
X75984Y-64507D01*
X75984Y-64507D01*
X76036Y-64497D01*
X76081Y-64467D01*
X78247Y-62302D01*
X78247Y-62302D01*
X78276Y-62257D01*
X78287Y-62204D01*
X78287Y-61726D01*
X78301Y-61653D01*
X78335Y-61603D01*
X78385Y-61569D01*
X78444Y-61557D01*
X78504Y-61569D01*
X78554Y-61603D01*
X78587Y-61653D01*
X78602Y-61726D01*
X78602Y-71990D01*
X78602Y-71990D01*
G37*
G54D15*
X78602Y-71990D02*
X77855Y-72737D01*
X77825Y-72781D01*
X77814Y-72834D01*
X77814Y-79513D01*
X77703Y-80076D01*
X77480Y-80409D01*
X77480Y-70725D01*
X77372Y-70465D01*
X77173Y-70265D01*
X76913Y-70157D01*
X76631Y-70157D01*
X76370Y-70265D01*
X76171Y-70464D01*
X76063Y-70724D01*
X76062Y-71006D01*
X76170Y-71267D01*
X76369Y-71466D01*
X76630Y-71574D01*
X76911Y-71574D01*
X77172Y-71467D01*
X77372Y-71268D01*
X77480Y-71007D01*
X77480Y-70725D01*
X77480Y-80409D01*
X77433Y-80479D01*
X77433Y-77505D01*
X77433Y-76718D01*
X77433Y-75931D01*
X77433Y-75143D01*
X77433Y-74356D01*
X77433Y-73568D01*
X77433Y-72781D01*
X77392Y-72682D01*
X77317Y-72607D01*
X77218Y-72566D01*
X77112Y-72566D01*
X77013Y-72607D01*
X76938Y-72682D01*
X76897Y-72781D01*
X76897Y-72887D01*
X76937Y-72986D01*
X77013Y-73061D01*
X77111Y-73102D01*
X77218Y-73102D01*
X77317Y-73062D01*
X77392Y-72986D01*
X77433Y-72888D01*
X77433Y-72781D01*
X77433Y-73568D01*
X77392Y-73470D01*
X77317Y-73394D01*
X77218Y-73353D01*
X77112Y-73353D01*
X77013Y-73394D01*
X76938Y-73469D01*
X76897Y-73568D01*
X76897Y-73675D01*
X76937Y-73773D01*
X77013Y-73849D01*
X77111Y-73890D01*
X77218Y-73890D01*
X77317Y-73849D01*
X77392Y-73774D01*
X77433Y-73675D01*
X77433Y-73568D01*
X77433Y-74356D01*
X77392Y-74257D01*
X77317Y-74182D01*
X77218Y-74141D01*
X77112Y-74141D01*
X77013Y-74182D01*
X76938Y-74257D01*
X76897Y-74355D01*
X76897Y-74462D01*
X76937Y-74561D01*
X77013Y-74636D01*
X77111Y-74677D01*
X77218Y-74677D01*
X77317Y-74636D01*
X77392Y-74561D01*
X77433Y-74463D01*
X77433Y-74356D01*
X77433Y-75143D01*
X77392Y-75045D01*
X77317Y-74969D01*
X77218Y-74928D01*
X77112Y-74928D01*
X77013Y-74969D01*
X76938Y-75044D01*
X76897Y-75143D01*
X76897Y-75249D01*
X76937Y-75348D01*
X77013Y-75424D01*
X77111Y-75464D01*
X77218Y-75465D01*
X77317Y-75424D01*
X77392Y-75348D01*
X77433Y-75250D01*
X77433Y-75143D01*
X77433Y-75931D01*
X77392Y-75832D01*
X77317Y-75757D01*
X77218Y-75716D01*
X77112Y-75716D01*
X77013Y-75756D01*
X76938Y-75832D01*
X76897Y-75930D01*
X76897Y-76037D01*
X76937Y-76135D01*
X77013Y-76211D01*
X77111Y-76252D01*
X77218Y-76252D01*
X77317Y-76211D01*
X77392Y-76136D01*
X77433Y-76037D01*
X77433Y-75931D01*
X77433Y-76718D01*
X77392Y-76619D01*
X77317Y-76544D01*
X77218Y-76503D01*
X77112Y-76503D01*
X77013Y-76544D01*
X76938Y-76619D01*
X76897Y-76718D01*
X76897Y-76824D01*
X76937Y-76923D01*
X77013Y-76998D01*
X77111Y-77039D01*
X77218Y-77039D01*
X77317Y-76999D01*
X77392Y-76923D01*
X77433Y-76825D01*
X77433Y-76718D01*
X77433Y-77505D01*
X77392Y-77407D01*
X77317Y-77331D01*
X77218Y-77290D01*
X77112Y-77290D01*
X77013Y-77331D01*
X76938Y-77406D01*
X76897Y-77505D01*
X76897Y-77612D01*
X76937Y-77710D01*
X77013Y-77786D01*
X77111Y-77827D01*
X77218Y-77827D01*
X77317Y-77786D01*
X77392Y-77711D01*
X77433Y-77612D01*
X77433Y-77505D01*
X77433Y-80479D01*
X77392Y-80541D01*
X77086Y-80745D01*
X77086Y-79387D01*
X76979Y-79126D01*
X76779Y-78927D01*
X76519Y-78819D01*
X76237Y-78818D01*
X75983Y-78923D01*
X75983Y-67351D01*
X75983Y-66351D01*
X75983Y-65351D01*
X75924Y-65206D01*
X75813Y-65096D01*
X75669Y-65036D01*
X75512Y-65035D01*
X75368Y-65095D01*
X75257Y-65206D01*
X75197Y-65350D01*
X75197Y-65506D01*
X75257Y-65651D01*
X75367Y-65762D01*
X75512Y-65822D01*
X75668Y-65822D01*
X75812Y-65762D01*
X75923Y-65652D01*
X75983Y-65507D01*
X75983Y-65351D01*
X75983Y-66351D01*
X75924Y-66206D01*
X75813Y-66096D01*
X75669Y-66036D01*
X75512Y-66035D01*
X75368Y-66095D01*
X75257Y-66206D01*
X75197Y-66350D01*
X75197Y-66506D01*
X75257Y-66651D01*
X75367Y-66762D01*
X75512Y-66822D01*
X75668Y-66822D01*
X75812Y-66762D01*
X75923Y-66652D01*
X75983Y-66507D01*
X75983Y-66351D01*
X75983Y-67351D01*
X75924Y-67206D01*
X75813Y-67096D01*
X75669Y-67036D01*
X75512Y-67035D01*
X75368Y-67095D01*
X75257Y-67206D01*
X75197Y-67350D01*
X75197Y-67506D01*
X75257Y-67651D01*
X75367Y-67762D01*
X75512Y-67822D01*
X75668Y-67822D01*
X75812Y-67762D01*
X75923Y-67652D01*
X75983Y-67507D01*
X75983Y-67351D01*
X75983Y-78923D01*
X75983Y-78923D01*
X75983Y-68727D01*
X75983Y-68680D01*
X75983Y-68130D01*
X75965Y-68087D01*
X75932Y-68054D01*
X75889Y-68036D01*
X75842Y-68036D01*
X75292Y-68036D01*
X75248Y-68054D01*
X75215Y-68087D01*
X75197Y-68130D01*
X75197Y-68177D01*
X75197Y-68727D01*
X75215Y-68771D01*
X75248Y-68804D01*
X75292Y-68822D01*
X75339Y-68822D01*
X75889Y-68822D01*
X75932Y-68804D01*
X75965Y-68771D01*
X75983Y-68727D01*
X75983Y-78923D01*
X75977Y-78926D01*
X75777Y-79125D01*
X75669Y-79385D01*
X75669Y-79667D01*
X75776Y-79928D01*
X75976Y-80127D01*
X76236Y-80236D01*
X76518Y-80236D01*
X76778Y-80128D01*
X76978Y-79929D01*
X77086Y-79669D01*
X77086Y-79387D01*
X77086Y-80745D01*
X76926Y-80852D01*
X76364Y-80964D01*
X75071Y-80964D01*
X75071Y-67860D01*
X75030Y-67761D01*
X74955Y-67686D01*
X74856Y-67645D01*
X74750Y-67645D01*
X74651Y-67685D01*
X74575Y-67761D01*
X74535Y-67859D01*
X74534Y-67966D01*
X74575Y-68065D01*
X74651Y-68140D01*
X74749Y-68181D01*
X74856Y-68181D01*
X74954Y-68140D01*
X75030Y-68065D01*
X75071Y-67966D01*
X75071Y-67860D01*
X75071Y-80964D01*
X74087Y-80964D01*
X74087Y-74356D01*
X74087Y-69927D01*
X74046Y-69828D01*
X73970Y-69753D01*
X73872Y-69712D01*
X73765Y-69712D01*
X73667Y-69752D01*
X73591Y-69828D01*
X73550Y-69926D01*
X73550Y-70033D01*
X73591Y-70131D01*
X73666Y-70207D01*
X73765Y-70248D01*
X73871Y-70248D01*
X73970Y-70207D01*
X74046Y-70132D01*
X74086Y-70033D01*
X74087Y-69927D01*
X74087Y-74356D01*
X74046Y-74257D01*
X73970Y-74182D01*
X73872Y-74141D01*
X73765Y-74141D01*
X73667Y-74182D01*
X73591Y-74257D01*
X73550Y-74355D01*
X73550Y-74462D01*
X73591Y-74561D01*
X73666Y-74636D01*
X73765Y-74677D01*
X73871Y-74677D01*
X73970Y-74636D01*
X74046Y-74561D01*
X74086Y-74463D01*
X74087Y-74356D01*
X74087Y-80964D01*
X73496Y-80964D01*
X73496Y-66285D01*
X73455Y-66186D01*
X73380Y-66111D01*
X73281Y-66070D01*
X73175Y-66070D01*
X73076Y-66111D01*
X73001Y-66186D01*
X72960Y-66285D01*
X72960Y-66391D01*
X73000Y-66490D01*
X73076Y-66565D01*
X73174Y-66606D01*
X73281Y-66606D01*
X73380Y-66566D01*
X73455Y-66490D01*
X73496Y-66392D01*
X73496Y-66285D01*
X73496Y-80964D01*
X71645Y-80964D01*
X71645Y-78198D01*
X71626Y-78151D01*
X71626Y-68253D01*
X71585Y-68155D01*
X71510Y-68079D01*
X71411Y-68039D01*
X71305Y-68038D01*
X71206Y-68079D01*
X71131Y-68155D01*
X71090Y-68253D01*
X71090Y-68360D01*
X71130Y-68458D01*
X71206Y-68534D01*
X71304Y-68575D01*
X71411Y-68575D01*
X71509Y-68534D01*
X71585Y-68459D01*
X71626Y-68360D01*
X71626Y-68253D01*
X71626Y-78151D01*
X71532Y-77923D01*
X71527Y-77919D01*
X71527Y-69828D01*
X71487Y-69730D01*
X71411Y-69654D01*
X71313Y-69613D01*
X71206Y-69613D01*
X71134Y-69643D01*
X71134Y-69238D01*
X71093Y-69139D01*
X71018Y-69064D01*
X70919Y-69023D01*
X70813Y-69023D01*
X70714Y-69063D01*
X70638Y-69139D01*
X70598Y-69237D01*
X70597Y-69344D01*
X70638Y-69443D01*
X70714Y-69518D01*
X70812Y-69559D01*
X70919Y-69559D01*
X71017Y-69518D01*
X71093Y-69443D01*
X71134Y-69344D01*
X71134Y-69238D01*
X71134Y-69643D01*
X71108Y-69654D01*
X71032Y-69729D01*
X70991Y-69828D01*
X70991Y-69934D01*
X71032Y-70033D01*
X71107Y-70109D01*
X71206Y-70149D01*
X71312Y-70150D01*
X71411Y-70109D01*
X71487Y-70033D01*
X71527Y-69935D01*
X71527Y-69828D01*
X71527Y-77919D01*
X71331Y-77721D01*
X71331Y-71797D01*
X71290Y-71698D01*
X71215Y-71623D01*
X71116Y-71582D01*
X71009Y-71582D01*
X70937Y-71612D01*
X70937Y-70419D01*
X70896Y-70320D01*
X70821Y-70245D01*
X70740Y-70211D01*
X70740Y-69828D01*
X70699Y-69730D01*
X70624Y-69654D01*
X70526Y-69613D01*
X70419Y-69613D01*
X70320Y-69654D01*
X70245Y-69729D01*
X70204Y-69828D01*
X70204Y-69934D01*
X70245Y-70033D01*
X70320Y-70109D01*
X70418Y-70149D01*
X70525Y-70150D01*
X70624Y-70109D01*
X70699Y-70033D01*
X70740Y-69935D01*
X70740Y-69828D01*
X70740Y-70211D01*
X70722Y-70204D01*
X70616Y-70204D01*
X70517Y-70245D01*
X70442Y-70320D01*
X70401Y-70418D01*
X70401Y-70525D01*
X70441Y-70624D01*
X70517Y-70699D01*
X70615Y-70740D01*
X70722Y-70740D01*
X70820Y-70699D01*
X70896Y-70624D01*
X70937Y-70526D01*
X70937Y-70419D01*
X70937Y-71612D01*
X70911Y-71622D01*
X70835Y-71698D01*
X70794Y-71796D01*
X70794Y-71903D01*
X70835Y-72002D01*
X70910Y-72077D01*
X71009Y-72118D01*
X71116Y-72118D01*
X71214Y-72077D01*
X71290Y-72002D01*
X71331Y-71903D01*
X71331Y-71797D01*
X71331Y-77721D01*
X71321Y-77712D01*
X71047Y-77598D01*
X70749Y-77598D01*
X70474Y-77711D01*
X70263Y-77922D01*
X70149Y-78197D01*
X70149Y-78494D01*
X70263Y-78769D01*
X70473Y-78980D01*
X70748Y-79094D01*
X71045Y-79094D01*
X71320Y-78980D01*
X71531Y-78770D01*
X71645Y-78495D01*
X71645Y-78198D01*
X71645Y-80964D01*
X71134Y-80964D01*
X71134Y-80261D01*
X71093Y-80163D01*
X71018Y-80087D01*
X70919Y-80046D01*
X70813Y-80046D01*
X70714Y-80087D01*
X70638Y-80162D01*
X70598Y-80261D01*
X70597Y-80368D01*
X70638Y-80466D01*
X70714Y-80542D01*
X70812Y-80583D01*
X70919Y-80583D01*
X71017Y-80542D01*
X71093Y-80467D01*
X71134Y-80368D01*
X71134Y-80261D01*
X71134Y-80964D01*
X70346Y-80964D01*
X70346Y-80261D01*
X70306Y-80163D01*
X70230Y-80087D01*
X70132Y-80046D01*
X70120Y-80046D01*
X70120Y-74752D01*
X70048Y-74579D01*
X69915Y-74446D01*
X69742Y-74374D01*
X69554Y-74373D01*
X69380Y-74445D01*
X69247Y-74578D01*
X69175Y-74752D01*
X69175Y-74940D01*
X69246Y-75113D01*
X69379Y-75246D01*
X69553Y-75318D01*
X69741Y-75318D01*
X69914Y-75247D01*
X70047Y-75114D01*
X70119Y-74940D01*
X70120Y-74752D01*
X70120Y-80046D01*
X70025Y-80046D01*
X69927Y-80087D01*
X69851Y-80162D01*
X69810Y-80261D01*
X69810Y-80368D01*
X69851Y-80466D01*
X69926Y-80542D01*
X70025Y-80583D01*
X70131Y-80583D01*
X70230Y-80542D01*
X70305Y-80467D01*
X70346Y-80368D01*
X70346Y-80261D01*
X70346Y-80964D01*
X69620Y-80964D01*
X69620Y-75752D01*
X69548Y-75579D01*
X69415Y-75446D01*
X69242Y-75374D01*
X69165Y-75374D01*
X69165Y-67269D01*
X69125Y-67171D01*
X69049Y-67095D01*
X68951Y-67054D01*
X68844Y-67054D01*
X68745Y-67095D01*
X68670Y-67170D01*
X68629Y-67269D01*
X68629Y-67375D01*
X68670Y-67474D01*
X68745Y-67549D01*
X68844Y-67590D01*
X68950Y-67590D01*
X69049Y-67550D01*
X69124Y-67474D01*
X69165Y-67376D01*
X69165Y-67269D01*
X69165Y-75374D01*
X69120Y-75373D01*
X69120Y-74752D01*
X69048Y-74579D01*
X68915Y-74446D01*
X68742Y-74374D01*
X68554Y-74373D01*
X68380Y-74445D01*
X68247Y-74578D01*
X68175Y-74752D01*
X68175Y-74940D01*
X68246Y-75113D01*
X68379Y-75246D01*
X68553Y-75318D01*
X68741Y-75318D01*
X68914Y-75247D01*
X69047Y-75114D01*
X69119Y-74940D01*
X69120Y-74752D01*
X69120Y-75373D01*
X69054Y-75373D01*
X68880Y-75445D01*
X68747Y-75578D01*
X68675Y-75752D01*
X68675Y-75940D01*
X68746Y-76113D01*
X68879Y-76246D01*
X69053Y-76318D01*
X69241Y-76318D01*
X69414Y-76247D01*
X69547Y-76114D01*
X69619Y-75940D01*
X69620Y-75752D01*
X69620Y-80964D01*
X69559Y-80964D01*
X69559Y-80261D01*
X69518Y-80163D01*
X69443Y-80087D01*
X69344Y-80046D01*
X69238Y-80046D01*
X69139Y-80087D01*
X69064Y-80162D01*
X69023Y-80261D01*
X69023Y-80368D01*
X69063Y-80466D01*
X69139Y-80542D01*
X69237Y-80583D01*
X69344Y-80583D01*
X69443Y-80542D01*
X69518Y-80467D01*
X69559Y-80368D01*
X69559Y-80261D01*
X69559Y-80964D01*
X68772Y-80964D01*
X68772Y-80261D01*
X68731Y-80163D01*
X68656Y-80087D01*
X68620Y-80072D01*
X68620Y-75752D01*
X68548Y-75579D01*
X68415Y-75446D01*
X68242Y-75374D01*
X68054Y-75373D01*
X67880Y-75445D01*
X67747Y-75578D01*
X67675Y-75752D01*
X67675Y-75940D01*
X67746Y-76113D01*
X67879Y-76246D01*
X68053Y-76318D01*
X68241Y-76318D01*
X68414Y-76247D01*
X68547Y-76114D01*
X68619Y-75940D01*
X68620Y-75752D01*
X68620Y-80072D01*
X68557Y-80046D01*
X68450Y-80046D01*
X68352Y-80087D01*
X68276Y-80162D01*
X68235Y-80261D01*
X68235Y-80368D01*
X68276Y-80466D01*
X68351Y-80542D01*
X68450Y-80583D01*
X68557Y-80583D01*
X68655Y-80542D01*
X68731Y-80467D01*
X68772Y-80368D01*
X68772Y-80261D01*
X68772Y-80964D01*
X67984Y-80964D01*
X67984Y-80261D01*
X67943Y-80163D01*
X67868Y-80087D01*
X67770Y-80046D01*
X67663Y-80046D01*
X67645Y-80054D01*
X67645Y-78198D01*
X67590Y-78065D01*
X67590Y-69730D01*
X67550Y-69631D01*
X67492Y-69573D01*
X67492Y-68844D01*
X67451Y-68745D01*
X67376Y-68670D01*
X67277Y-68629D01*
X67171Y-68629D01*
X67072Y-68670D01*
X66997Y-68745D01*
X66956Y-68844D01*
X66956Y-68950D01*
X66996Y-69049D01*
X67072Y-69124D01*
X67170Y-69165D01*
X67277Y-69165D01*
X67376Y-69125D01*
X67451Y-69049D01*
X67492Y-68951D01*
X67492Y-68844D01*
X67492Y-69573D01*
X67474Y-69556D01*
X67376Y-69515D01*
X67269Y-69515D01*
X67171Y-69556D01*
X67095Y-69631D01*
X67054Y-69729D01*
X67054Y-69836D01*
X67095Y-69935D01*
X67170Y-70010D01*
X67269Y-70051D01*
X67375Y-70051D01*
X67474Y-70010D01*
X67549Y-69935D01*
X67590Y-69837D01*
X67590Y-69730D01*
X67590Y-78065D01*
X67532Y-77923D01*
X67321Y-77712D01*
X67197Y-77660D01*
X67197Y-73175D01*
X67156Y-73076D01*
X67081Y-73001D01*
X66982Y-72960D01*
X66876Y-72960D01*
X66777Y-73000D01*
X66701Y-73076D01*
X66661Y-73174D01*
X66660Y-73281D01*
X66701Y-73380D01*
X66777Y-73455D01*
X66875Y-73496D01*
X66982Y-73496D01*
X67080Y-73455D01*
X67156Y-73380D01*
X67197Y-73281D01*
X67197Y-73175D01*
X67197Y-77660D01*
X67047Y-77598D01*
X66749Y-77598D01*
X66474Y-77711D01*
X66263Y-77922D01*
X66149Y-78197D01*
X66149Y-78494D01*
X66263Y-78769D01*
X66473Y-78980D01*
X66748Y-79094D01*
X67045Y-79094D01*
X67320Y-78980D01*
X67531Y-78770D01*
X67645Y-78495D01*
X67645Y-78198D01*
X67645Y-80054D01*
X67564Y-80087D01*
X67489Y-80162D01*
X67448Y-80261D01*
X67448Y-80368D01*
X67489Y-80466D01*
X67564Y-80542D01*
X67662Y-80583D01*
X67769Y-80583D01*
X67868Y-80542D01*
X67943Y-80467D01*
X67984Y-80368D01*
X67984Y-80261D01*
X67984Y-80964D01*
X67197Y-80964D01*
X67197Y-80261D01*
X67156Y-80163D01*
X67081Y-80087D01*
X66982Y-80046D01*
X66876Y-80046D01*
X66777Y-80087D01*
X66701Y-80162D01*
X66661Y-80261D01*
X66660Y-80368D01*
X66701Y-80466D01*
X66777Y-80542D01*
X66875Y-80583D01*
X66982Y-80583D01*
X67080Y-80542D01*
X67156Y-80467D01*
X67197Y-80368D01*
X67197Y-80261D01*
X67197Y-80964D01*
X66016Y-80964D01*
X66016Y-71600D01*
X65975Y-71501D01*
X65900Y-71426D01*
X65801Y-71385D01*
X65694Y-71385D01*
X65596Y-71426D01*
X65520Y-71501D01*
X65479Y-71599D01*
X65479Y-71706D01*
X65520Y-71805D01*
X65595Y-71880D01*
X65694Y-71921D01*
X65801Y-71921D01*
X65899Y-71880D01*
X65975Y-71805D01*
X66016Y-71707D01*
X66016Y-71600D01*
X66016Y-80964D01*
X64835Y-80964D01*
X64835Y-66285D01*
X64794Y-66186D01*
X64718Y-66111D01*
X64620Y-66070D01*
X64513Y-66070D01*
X64415Y-66111D01*
X64339Y-66186D01*
X64298Y-66285D01*
X64298Y-66391D01*
X64339Y-66490D01*
X64414Y-66565D01*
X64513Y-66606D01*
X64620Y-66606D01*
X64718Y-66566D01*
X64794Y-66490D01*
X64834Y-66392D01*
X64835Y-66285D01*
X64835Y-80964D01*
X63260Y-80964D01*
X63260Y-68844D01*
X63219Y-68745D01*
X63144Y-68670D01*
X63045Y-68629D01*
X62939Y-68629D01*
X62840Y-68670D01*
X62764Y-68745D01*
X62724Y-68844D01*
X62723Y-68950D01*
X62764Y-69049D01*
X62840Y-69124D01*
X62938Y-69165D01*
X63045Y-69165D01*
X63143Y-69125D01*
X63219Y-69049D01*
X63260Y-68951D01*
X63260Y-68844D01*
X63260Y-80964D01*
X62637Y-80964D01*
X62637Y-67841D01*
X62637Y-67712D01*
X62637Y-67358D01*
X62637Y-67229D01*
X62613Y-67171D01*
X62597Y-67155D01*
X62597Y-66457D01*
X62597Y-65457D01*
X62538Y-65313D01*
X62427Y-65202D01*
X62283Y-65142D01*
X62126Y-65142D01*
X61982Y-65201D01*
X61871Y-65312D01*
X61811Y-65456D01*
X61811Y-65613D01*
X61871Y-65757D01*
X61981Y-65868D01*
X62126Y-65928D01*
X62282Y-65928D01*
X62427Y-65868D01*
X62537Y-65758D01*
X62597Y-65613D01*
X62597Y-65457D01*
X62597Y-66457D01*
X62538Y-66313D01*
X62427Y-66202D01*
X62283Y-66142D01*
X62126Y-66142D01*
X61982Y-66201D01*
X61871Y-66312D01*
X61811Y-66456D01*
X61811Y-66613D01*
X61871Y-66757D01*
X61981Y-66868D01*
X62126Y-66928D01*
X62282Y-66928D01*
X62427Y-66868D01*
X62537Y-66758D01*
X62597Y-66613D01*
X62597Y-66457D01*
X62597Y-67155D01*
X62568Y-67126D01*
X62511Y-67102D01*
X62448Y-67102D01*
X62381Y-67102D01*
X62342Y-67142D01*
X62342Y-67397D01*
X62597Y-67397D01*
X62637Y-67358D01*
X62637Y-67712D01*
X62597Y-67672D01*
X62342Y-67672D01*
X62342Y-67928D01*
X62381Y-67967D01*
X62448Y-67967D01*
X62511Y-67967D01*
X62568Y-67943D01*
X62613Y-67899D01*
X62637Y-67841D01*
X62637Y-80964D01*
X62126Y-80964D01*
X62126Y-79387D01*
X62067Y-79244D01*
X62067Y-67928D01*
X62067Y-67672D01*
X62067Y-67397D01*
X62067Y-67142D01*
X62027Y-67102D01*
X61961Y-67102D01*
X61898Y-67102D01*
X61840Y-67126D01*
X61796Y-67171D01*
X61772Y-67229D01*
X61772Y-67358D01*
X61811Y-67397D01*
X62067Y-67397D01*
X62067Y-67672D01*
X61811Y-67672D01*
X61772Y-67712D01*
X61772Y-67841D01*
X61796Y-67899D01*
X61840Y-67943D01*
X61898Y-67967D01*
X61961Y-67967D01*
X62027Y-67967D01*
X62067Y-67928D01*
X62067Y-79244D01*
X62018Y-79126D01*
X61819Y-78927D01*
X61732Y-78891D01*
X61732Y-70725D01*
X61624Y-70465D01*
X61425Y-70265D01*
X61165Y-70157D01*
X60883Y-70157D01*
X60622Y-70265D01*
X60423Y-70464D01*
X60315Y-70724D01*
X60314Y-71006D01*
X60422Y-71267D01*
X60621Y-71466D01*
X60882Y-71574D01*
X61163Y-71574D01*
X61424Y-71467D01*
X61624Y-71268D01*
X61732Y-71007D01*
X61732Y-70725D01*
X61732Y-78891D01*
X61558Y-78819D01*
X61276Y-78818D01*
X61016Y-78926D01*
X60898Y-79044D01*
X60898Y-77505D01*
X60898Y-76718D01*
X60898Y-75931D01*
X60898Y-75143D01*
X60898Y-74356D01*
X60898Y-73568D01*
X60898Y-72781D01*
X60857Y-72682D01*
X60781Y-72607D01*
X60683Y-72566D01*
X60576Y-72566D01*
X60478Y-72607D01*
X60402Y-72682D01*
X60361Y-72781D01*
X60361Y-72887D01*
X60402Y-72986D01*
X60477Y-73061D01*
X60576Y-73102D01*
X60683Y-73102D01*
X60781Y-73062D01*
X60857Y-72986D01*
X60897Y-72888D01*
X60898Y-72781D01*
X60898Y-73568D01*
X60857Y-73470D01*
X60781Y-73394D01*
X60683Y-73353D01*
X60576Y-73353D01*
X60478Y-73394D01*
X60402Y-73469D01*
X60361Y-73568D01*
X60361Y-73675D01*
X60402Y-73773D01*
X60477Y-73849D01*
X60576Y-73890D01*
X60683Y-73890D01*
X60781Y-73849D01*
X60857Y-73774D01*
X60897Y-73675D01*
X60898Y-73568D01*
X60898Y-74356D01*
X60857Y-74257D01*
X60781Y-74182D01*
X60683Y-74141D01*
X60576Y-74141D01*
X60478Y-74182D01*
X60402Y-74257D01*
X60361Y-74355D01*
X60361Y-74462D01*
X60402Y-74561D01*
X60477Y-74636D01*
X60576Y-74677D01*
X60683Y-74677D01*
X60781Y-74636D01*
X60857Y-74561D01*
X60897Y-74463D01*
X60898Y-74356D01*
X60898Y-75143D01*
X60857Y-75045D01*
X60781Y-74969D01*
X60683Y-74928D01*
X60576Y-74928D01*
X60478Y-74969D01*
X60402Y-75044D01*
X60361Y-75143D01*
X60361Y-75249D01*
X60402Y-75348D01*
X60477Y-75424D01*
X60576Y-75464D01*
X60683Y-75465D01*
X60781Y-75424D01*
X60857Y-75348D01*
X60897Y-75250D01*
X60898Y-75143D01*
X60898Y-75931D01*
X60857Y-75832D01*
X60781Y-75757D01*
X60683Y-75716D01*
X60576Y-75716D01*
X60478Y-75756D01*
X60402Y-75832D01*
X60361Y-75930D01*
X60361Y-76037D01*
X60402Y-76135D01*
X60477Y-76211D01*
X60576Y-76252D01*
X60683Y-76252D01*
X60781Y-76211D01*
X60857Y-76136D01*
X60897Y-76037D01*
X60898Y-75931D01*
X60898Y-76718D01*
X60857Y-76619D01*
X60781Y-76544D01*
X60683Y-76503D01*
X60576Y-76503D01*
X60478Y-76544D01*
X60402Y-76619D01*
X60361Y-76718D01*
X60361Y-76824D01*
X60402Y-76923D01*
X60477Y-76998D01*
X60576Y-77039D01*
X60683Y-77039D01*
X60781Y-76999D01*
X60857Y-76923D01*
X60897Y-76825D01*
X60898Y-76718D01*
X60898Y-77505D01*
X60857Y-77407D01*
X60781Y-77331D01*
X60683Y-77290D01*
X60576Y-77290D01*
X60478Y-77331D01*
X60402Y-77406D01*
X60361Y-77505D01*
X60361Y-77612D01*
X60402Y-77710D01*
X60477Y-77786D01*
X60576Y-77827D01*
X60683Y-77827D01*
X60781Y-77786D01*
X60857Y-77711D01*
X60897Y-77612D01*
X60898Y-77505D01*
X60898Y-79044D01*
X60816Y-79125D01*
X60708Y-79385D01*
X60708Y-79667D01*
X60816Y-79928D01*
X61015Y-80127D01*
X61275Y-80236D01*
X61557Y-80236D01*
X61818Y-80128D01*
X62017Y-79929D01*
X62125Y-79669D01*
X62126Y-79387D01*
X62126Y-80964D01*
X61430Y-80964D01*
X60868Y-80852D01*
X60403Y-80541D01*
X60092Y-80076D01*
X59980Y-79513D01*
X59980Y-72834D01*
X59971Y-72790D01*
X59969Y-72781D01*
X59969Y-72781D01*
X59939Y-72737D01*
X59192Y-71990D01*
X59192Y-61726D01*
X59207Y-61653D01*
X59240Y-61603D01*
X59291Y-61569D01*
X59350Y-61557D01*
X59409Y-61569D01*
X59459Y-61603D01*
X59493Y-61653D01*
X59507Y-61726D01*
X59507Y-62204D01*
X59518Y-62257D01*
X59548Y-62302D01*
X61713Y-64467D01*
X61758Y-64497D01*
X61811Y-64507D01*
X75984Y-64507D01*
X75984Y-64507D01*
X76036Y-64497D01*
X76081Y-64467D01*
X78247Y-62302D01*
X78247Y-62302D01*
X78276Y-62257D01*
X78287Y-62204D01*
X78287Y-61726D01*
X78301Y-61653D01*
X78335Y-61603D01*
X78385Y-61569D01*
X78444Y-61557D01*
X78504Y-61569D01*
X78554Y-61603D01*
X78587Y-61653D01*
X78602Y-61726D01*
X78602Y-71990D01*
M02*
