G04 (created by PCBNEW (2013-mar-13)-testing) date Wed 10 Jun 2015 12:09:16 AM EDT*
%MOIN*%
G04 Gerber Fmt 3.4, Leading zero omitted, Abs format*
%FSLAX34Y34*%
G01*
G70*
G90*
G04 APERTURE LIST*
%ADD10C,0.005906*%
%ADD11R,0.055000X0.055000*%
%ADD12C,0.055000*%
%ADD13C,0.070866*%
%ADD14C,0.030000*%
%ADD15C,0.007874*%
G04 APERTURE END LIST*
G54D10*
G54D11*
X62204Y-67535D03*
G54D12*
X62204Y-66535D03*
X62204Y-65535D03*
G54D13*
X68147Y-75846D03*
X68647Y-74846D03*
X69147Y-75846D03*
X69647Y-74846D03*
G54D11*
X75590Y-68429D03*
G54D12*
X75590Y-67429D03*
X75590Y-66429D03*
X75590Y-65429D03*
G54D14*
X77952Y-69291D03*
X76771Y-69291D03*
X77362Y-69291D03*
X61023Y-69291D03*
X59842Y-69291D03*
X60433Y-69291D03*
X73031Y-68307D03*
X64665Y-78838D03*
X72244Y-79625D03*
X63070Y-68425D03*
X68799Y-69094D03*
X67224Y-68897D03*
X64566Y-66338D03*
X70472Y-69881D03*
X68897Y-67322D03*
X73818Y-69980D03*
X73228Y-66338D03*
X74803Y-67913D03*
X70669Y-70472D03*
X71259Y-69881D03*
X77165Y-76771D03*
X77165Y-75196D03*
X77165Y-73622D03*
X77165Y-72834D03*
X77165Y-74409D03*
X77165Y-75984D03*
X77165Y-77559D03*
X60629Y-76771D03*
X60629Y-74409D03*
X60629Y-72834D03*
X60629Y-73622D03*
X60629Y-75196D03*
X60629Y-75984D03*
X60629Y-77559D03*
X70078Y-80314D03*
X69291Y-80314D03*
X67716Y-80314D03*
X66929Y-80314D03*
X68503Y-80314D03*
X70866Y-80314D03*
X71062Y-71850D03*
X70866Y-69291D03*
X65748Y-71653D03*
X67322Y-69783D03*
X71358Y-68307D03*
X66929Y-73228D03*
X62992Y-68897D03*
X73818Y-74409D03*
G54D10*
G36*
X78602Y-71990D02*
X78220Y-72371D01*
X78220Y-69238D01*
X78180Y-69139D01*
X78104Y-69064D01*
X78006Y-69023D01*
X77899Y-69023D01*
X77801Y-69063D01*
X77725Y-69139D01*
X77684Y-69237D01*
X77684Y-69344D01*
X77725Y-69443D01*
X77800Y-69518D01*
X77899Y-69559D01*
X78005Y-69559D01*
X78104Y-69518D01*
X78179Y-69443D01*
X78220Y-69344D01*
X78220Y-69238D01*
X78220Y-72371D01*
X77855Y-72737D01*
X77825Y-72781D01*
X77814Y-72834D01*
X77814Y-79513D01*
X77703Y-80076D01*
X77630Y-80185D01*
X77630Y-69238D01*
X77589Y-69139D01*
X77514Y-69064D01*
X77415Y-69023D01*
X77309Y-69023D01*
X77210Y-69063D01*
X77135Y-69139D01*
X77094Y-69237D01*
X77094Y-69344D01*
X77134Y-69443D01*
X77210Y-69518D01*
X77308Y-69559D01*
X77415Y-69559D01*
X77513Y-69518D01*
X77589Y-69443D01*
X77630Y-69344D01*
X77630Y-69238D01*
X77630Y-80185D01*
X77480Y-80409D01*
X77480Y-70725D01*
X77372Y-70465D01*
X77173Y-70265D01*
X77039Y-70210D01*
X77039Y-69238D01*
X76999Y-69139D01*
X76923Y-69064D01*
X76825Y-69023D01*
X76718Y-69023D01*
X76619Y-69063D01*
X76544Y-69139D01*
X76503Y-69237D01*
X76503Y-69344D01*
X76544Y-69443D01*
X76619Y-69518D01*
X76718Y-69559D01*
X76824Y-69559D01*
X76923Y-69518D01*
X76998Y-69443D01*
X77039Y-69344D01*
X77039Y-69238D01*
X77039Y-70210D01*
X76913Y-70157D01*
X76631Y-70157D01*
X76370Y-70265D01*
X76171Y-70464D01*
X76063Y-70724D01*
X76062Y-71006D01*
X76170Y-71267D01*
X76369Y-71466D01*
X76630Y-71574D01*
X76911Y-71574D01*
X77172Y-71467D01*
X77372Y-71268D01*
X77480Y-71007D01*
X77480Y-70725D01*
X77480Y-80409D01*
X77392Y-80541D01*
X77086Y-80745D01*
X77086Y-79387D01*
X76979Y-79126D01*
X76779Y-78927D01*
X76519Y-78819D01*
X76237Y-78818D01*
X76030Y-78904D01*
X76030Y-66393D01*
X76010Y-66294D01*
X75983Y-66277D01*
X75983Y-65351D01*
X75924Y-65206D01*
X75813Y-65096D01*
X75669Y-65036D01*
X75512Y-65035D01*
X75368Y-65095D01*
X75257Y-65206D01*
X75197Y-65350D01*
X75197Y-65506D01*
X75257Y-65651D01*
X75367Y-65762D01*
X75512Y-65822D01*
X75668Y-65822D01*
X75812Y-65762D01*
X75923Y-65652D01*
X75983Y-65507D01*
X75983Y-65351D01*
X75983Y-66277D01*
X75954Y-66259D01*
X75785Y-66429D01*
X75954Y-66598D01*
X76010Y-66564D01*
X76030Y-66393D01*
X76030Y-78904D01*
X75983Y-78923D01*
X75983Y-67351D01*
X75924Y-67206D01*
X75813Y-67096D01*
X75760Y-67073D01*
X75760Y-66793D01*
X75760Y-66065D01*
X75725Y-66009D01*
X75554Y-65989D01*
X75455Y-66009D01*
X75420Y-66065D01*
X75590Y-66234D01*
X75760Y-66065D01*
X75760Y-66793D01*
X75590Y-66623D01*
X75420Y-66793D01*
X75455Y-66848D01*
X75626Y-66868D01*
X75725Y-66848D01*
X75760Y-66793D01*
X75760Y-67073D01*
X75669Y-67036D01*
X75512Y-67035D01*
X75396Y-67084D01*
X75396Y-66429D01*
X75226Y-66259D01*
X75170Y-66294D01*
X75151Y-66465D01*
X75170Y-66564D01*
X75226Y-66598D01*
X75396Y-66429D01*
X75396Y-67084D01*
X75368Y-67095D01*
X75257Y-67206D01*
X75197Y-67350D01*
X75197Y-67506D01*
X75257Y-67651D01*
X75367Y-67762D01*
X75512Y-67822D01*
X75668Y-67822D01*
X75812Y-67762D01*
X75923Y-67652D01*
X75983Y-67507D01*
X75983Y-67351D01*
X75983Y-78923D01*
X75983Y-78923D01*
X75983Y-68727D01*
X75983Y-68680D01*
X75983Y-68130D01*
X75965Y-68087D01*
X75932Y-68054D01*
X75889Y-68036D01*
X75842Y-68036D01*
X75292Y-68036D01*
X75248Y-68054D01*
X75215Y-68087D01*
X75197Y-68130D01*
X75197Y-68177D01*
X75197Y-68727D01*
X75215Y-68771D01*
X75248Y-68804D01*
X75292Y-68822D01*
X75339Y-68822D01*
X75889Y-68822D01*
X75932Y-68804D01*
X75965Y-68771D01*
X75983Y-68727D01*
X75983Y-78923D01*
X75977Y-78926D01*
X75777Y-79125D01*
X75669Y-79385D01*
X75669Y-79667D01*
X75776Y-79928D01*
X75976Y-80127D01*
X76236Y-80236D01*
X76518Y-80236D01*
X76778Y-80128D01*
X76978Y-79929D01*
X77086Y-79669D01*
X77086Y-79387D01*
X77086Y-80745D01*
X76926Y-80852D01*
X76364Y-80964D01*
X75071Y-80964D01*
X75071Y-67860D01*
X75030Y-67761D01*
X74955Y-67686D01*
X74856Y-67645D01*
X74750Y-67645D01*
X74651Y-67685D01*
X74575Y-67761D01*
X74535Y-67859D01*
X74534Y-67966D01*
X74575Y-68065D01*
X74651Y-68140D01*
X74749Y-68181D01*
X74856Y-68181D01*
X74954Y-68140D01*
X75030Y-68065D01*
X75071Y-67966D01*
X75071Y-67860D01*
X75071Y-80964D01*
X74087Y-80964D01*
X74087Y-74356D01*
X74087Y-69927D01*
X74046Y-69828D01*
X73970Y-69753D01*
X73872Y-69712D01*
X73765Y-69712D01*
X73667Y-69752D01*
X73591Y-69828D01*
X73550Y-69926D01*
X73550Y-70033D01*
X73591Y-70131D01*
X73666Y-70207D01*
X73765Y-70248D01*
X73871Y-70248D01*
X73970Y-70207D01*
X74046Y-70132D01*
X74086Y-70033D01*
X74087Y-69927D01*
X74087Y-74356D01*
X74046Y-74257D01*
X73970Y-74182D01*
X73872Y-74141D01*
X73765Y-74141D01*
X73667Y-74182D01*
X73591Y-74257D01*
X73550Y-74355D01*
X73550Y-74462D01*
X73591Y-74561D01*
X73666Y-74636D01*
X73765Y-74677D01*
X73871Y-74677D01*
X73970Y-74636D01*
X74046Y-74561D01*
X74086Y-74463D01*
X74087Y-74356D01*
X74087Y-80964D01*
X73496Y-80964D01*
X73496Y-66285D01*
X73455Y-66186D01*
X73380Y-66111D01*
X73281Y-66070D01*
X73175Y-66070D01*
X73076Y-66111D01*
X73001Y-66186D01*
X72960Y-66285D01*
X72960Y-66391D01*
X73000Y-66490D01*
X73076Y-66565D01*
X73174Y-66606D01*
X73281Y-66606D01*
X73380Y-66566D01*
X73455Y-66490D01*
X73496Y-66392D01*
X73496Y-66285D01*
X73496Y-80964D01*
X73299Y-80964D01*
X73299Y-68253D01*
X73258Y-68155D01*
X73183Y-68079D01*
X73085Y-68039D01*
X72978Y-68038D01*
X72879Y-68079D01*
X72804Y-68155D01*
X72763Y-68253D01*
X72763Y-68360D01*
X72804Y-68458D01*
X72879Y-68534D01*
X72977Y-68575D01*
X73084Y-68575D01*
X73183Y-68534D01*
X73258Y-68459D01*
X73299Y-68360D01*
X73299Y-68253D01*
X73299Y-80964D01*
X72512Y-80964D01*
X72512Y-79572D01*
X72471Y-79474D01*
X72396Y-79398D01*
X72297Y-79357D01*
X72190Y-79357D01*
X72092Y-79398D01*
X72016Y-79473D01*
X71976Y-79572D01*
X71975Y-79679D01*
X72016Y-79777D01*
X72092Y-79853D01*
X72190Y-79894D01*
X72297Y-79894D01*
X72395Y-79853D01*
X72471Y-79778D01*
X72512Y-79679D01*
X72512Y-79572D01*
X72512Y-80964D01*
X71645Y-80964D01*
X71645Y-78198D01*
X71532Y-77923D01*
X71527Y-77919D01*
X71527Y-69828D01*
X71487Y-69730D01*
X71411Y-69654D01*
X71313Y-69613D01*
X71206Y-69613D01*
X71108Y-69654D01*
X71032Y-69729D01*
X70991Y-69828D01*
X70991Y-69934D01*
X71032Y-70033D01*
X71107Y-70109D01*
X71206Y-70149D01*
X71312Y-70150D01*
X71411Y-70109D01*
X71487Y-70033D01*
X71527Y-69935D01*
X71527Y-69828D01*
X71527Y-77919D01*
X71321Y-77712D01*
X71047Y-77598D01*
X70937Y-77598D01*
X70937Y-70419D01*
X70896Y-70320D01*
X70821Y-70245D01*
X70740Y-70211D01*
X70740Y-69828D01*
X70699Y-69730D01*
X70624Y-69654D01*
X70526Y-69613D01*
X70419Y-69613D01*
X70320Y-69654D01*
X70245Y-69729D01*
X70204Y-69828D01*
X70204Y-69934D01*
X70245Y-70033D01*
X70320Y-70109D01*
X70418Y-70149D01*
X70525Y-70150D01*
X70624Y-70109D01*
X70699Y-70033D01*
X70740Y-69935D01*
X70740Y-69828D01*
X70740Y-70211D01*
X70722Y-70204D01*
X70616Y-70204D01*
X70517Y-70245D01*
X70442Y-70320D01*
X70401Y-70418D01*
X70401Y-70525D01*
X70441Y-70624D01*
X70517Y-70699D01*
X70615Y-70740D01*
X70722Y-70740D01*
X70820Y-70699D01*
X70896Y-70624D01*
X70937Y-70526D01*
X70937Y-70419D01*
X70937Y-77598D01*
X70749Y-77598D01*
X70474Y-77711D01*
X70263Y-77922D01*
X70149Y-78197D01*
X70149Y-78494D01*
X70263Y-78769D01*
X70473Y-78980D01*
X70748Y-79094D01*
X71045Y-79094D01*
X71320Y-78980D01*
X71531Y-78770D01*
X71645Y-78495D01*
X71645Y-78198D01*
X71645Y-80964D01*
X70120Y-80964D01*
X70120Y-74752D01*
X70048Y-74579D01*
X69915Y-74446D01*
X69742Y-74374D01*
X69554Y-74373D01*
X69380Y-74445D01*
X69247Y-74578D01*
X69175Y-74752D01*
X69175Y-74940D01*
X69246Y-75113D01*
X69379Y-75246D01*
X69553Y-75318D01*
X69741Y-75318D01*
X69914Y-75247D01*
X70047Y-75114D01*
X70119Y-74940D01*
X70120Y-74752D01*
X70120Y-80964D01*
X69620Y-80964D01*
X69620Y-75752D01*
X69548Y-75579D01*
X69415Y-75446D01*
X69242Y-75374D01*
X69165Y-75374D01*
X69165Y-67269D01*
X69125Y-67171D01*
X69049Y-67095D01*
X68951Y-67054D01*
X68844Y-67054D01*
X68745Y-67095D01*
X68670Y-67170D01*
X68629Y-67269D01*
X68629Y-67375D01*
X68670Y-67474D01*
X68745Y-67549D01*
X68844Y-67590D01*
X68950Y-67590D01*
X69049Y-67550D01*
X69124Y-67474D01*
X69165Y-67376D01*
X69165Y-67269D01*
X69165Y-75374D01*
X69120Y-75373D01*
X69120Y-74752D01*
X69067Y-74625D01*
X69067Y-69041D01*
X69026Y-68942D01*
X68951Y-68867D01*
X68852Y-68826D01*
X68746Y-68826D01*
X68647Y-68867D01*
X68572Y-68942D01*
X68531Y-69040D01*
X68531Y-69147D01*
X68571Y-69246D01*
X68647Y-69321D01*
X68745Y-69362D01*
X68852Y-69362D01*
X68950Y-69321D01*
X69026Y-69246D01*
X69067Y-69148D01*
X69067Y-69041D01*
X69067Y-74625D01*
X69048Y-74579D01*
X68915Y-74446D01*
X68742Y-74374D01*
X68554Y-74373D01*
X68380Y-74445D01*
X68247Y-74578D01*
X68175Y-74752D01*
X68175Y-74940D01*
X68246Y-75113D01*
X68379Y-75246D01*
X68553Y-75318D01*
X68741Y-75318D01*
X68914Y-75247D01*
X69047Y-75114D01*
X69119Y-74940D01*
X69120Y-74752D01*
X69120Y-75373D01*
X69054Y-75373D01*
X68880Y-75445D01*
X68747Y-75578D01*
X68675Y-75752D01*
X68675Y-75940D01*
X68746Y-76113D01*
X68879Y-76246D01*
X69053Y-76318D01*
X69241Y-76318D01*
X69414Y-76247D01*
X69547Y-76114D01*
X69619Y-75940D01*
X69620Y-75752D01*
X69620Y-80964D01*
X67645Y-80964D01*
X67645Y-78198D01*
X67532Y-77923D01*
X67492Y-77883D01*
X67492Y-68844D01*
X67451Y-68745D01*
X67376Y-68670D01*
X67277Y-68629D01*
X67171Y-68629D01*
X67072Y-68670D01*
X66997Y-68745D01*
X66956Y-68844D01*
X66956Y-68950D01*
X66996Y-69049D01*
X67072Y-69124D01*
X67170Y-69165D01*
X67277Y-69165D01*
X67376Y-69125D01*
X67451Y-69049D01*
X67492Y-68951D01*
X67492Y-68844D01*
X67492Y-77883D01*
X67321Y-77712D01*
X67047Y-77598D01*
X66749Y-77598D01*
X66474Y-77711D01*
X66263Y-77922D01*
X66149Y-78197D01*
X66149Y-78494D01*
X66263Y-78769D01*
X66473Y-78980D01*
X66748Y-79094D01*
X67045Y-79094D01*
X67320Y-78980D01*
X67531Y-78770D01*
X67645Y-78495D01*
X67645Y-78198D01*
X67645Y-80964D01*
X64933Y-80964D01*
X64933Y-78785D01*
X64892Y-78686D01*
X64835Y-78629D01*
X64835Y-66285D01*
X64794Y-66186D01*
X64718Y-66111D01*
X64620Y-66070D01*
X64513Y-66070D01*
X64415Y-66111D01*
X64339Y-66186D01*
X64298Y-66285D01*
X64298Y-66391D01*
X64339Y-66490D01*
X64414Y-66565D01*
X64513Y-66606D01*
X64620Y-66606D01*
X64718Y-66566D01*
X64794Y-66490D01*
X64834Y-66392D01*
X64835Y-66285D01*
X64835Y-78629D01*
X64817Y-78611D01*
X64718Y-78570D01*
X64612Y-78570D01*
X64513Y-78611D01*
X64438Y-78686D01*
X64397Y-78785D01*
X64397Y-78891D01*
X64437Y-78990D01*
X64513Y-79065D01*
X64611Y-79106D01*
X64718Y-79106D01*
X64817Y-79066D01*
X64892Y-78990D01*
X64933Y-78892D01*
X64933Y-78785D01*
X64933Y-80964D01*
X63339Y-80964D01*
X63339Y-68372D01*
X63298Y-68273D01*
X63222Y-68198D01*
X63124Y-68157D01*
X63017Y-68157D01*
X62919Y-68197D01*
X62843Y-68273D01*
X62802Y-68371D01*
X62802Y-68478D01*
X62843Y-68576D01*
X62908Y-68642D01*
X62840Y-68670D01*
X62764Y-68745D01*
X62724Y-68844D01*
X62723Y-68950D01*
X62764Y-69049D01*
X62840Y-69124D01*
X62938Y-69165D01*
X63045Y-69165D01*
X63143Y-69125D01*
X63219Y-69049D01*
X63260Y-68951D01*
X63260Y-68844D01*
X63219Y-68745D01*
X63154Y-68680D01*
X63222Y-68652D01*
X63298Y-68577D01*
X63338Y-68478D01*
X63339Y-68372D01*
X63339Y-80964D01*
X62644Y-80964D01*
X62644Y-65499D01*
X62624Y-65400D01*
X62568Y-65365D01*
X62399Y-65535D01*
X62568Y-65705D01*
X62624Y-65670D01*
X62644Y-65499D01*
X62644Y-80964D01*
X62597Y-80964D01*
X62597Y-66457D01*
X62538Y-66313D01*
X62427Y-66202D01*
X62374Y-66180D01*
X62374Y-65899D01*
X62374Y-65171D01*
X62339Y-65115D01*
X62168Y-65095D01*
X62069Y-65115D01*
X62035Y-65171D01*
X62204Y-65340D01*
X62374Y-65171D01*
X62374Y-65899D01*
X62204Y-65729D01*
X62035Y-65899D01*
X62069Y-65955D01*
X62240Y-65974D01*
X62339Y-65955D01*
X62374Y-65899D01*
X62374Y-66180D01*
X62283Y-66142D01*
X62126Y-66142D01*
X62010Y-66190D01*
X62010Y-65535D01*
X61840Y-65365D01*
X61784Y-65400D01*
X61765Y-65571D01*
X61784Y-65670D01*
X61840Y-65705D01*
X62010Y-65535D01*
X62010Y-66190D01*
X61982Y-66201D01*
X61871Y-66312D01*
X61811Y-66456D01*
X61811Y-66613D01*
X61871Y-66757D01*
X61981Y-66868D01*
X62126Y-66928D01*
X62282Y-66928D01*
X62427Y-66868D01*
X62537Y-66758D01*
X62597Y-66613D01*
X62597Y-66457D01*
X62597Y-80964D01*
X62597Y-80964D01*
X62597Y-67833D01*
X62597Y-67786D01*
X62597Y-67236D01*
X62579Y-67193D01*
X62546Y-67160D01*
X62503Y-67142D01*
X62456Y-67142D01*
X61906Y-67142D01*
X61862Y-67160D01*
X61829Y-67193D01*
X61811Y-67236D01*
X61811Y-67283D01*
X61811Y-67833D01*
X61829Y-67877D01*
X61862Y-67910D01*
X61906Y-67928D01*
X61953Y-67928D01*
X62503Y-67928D01*
X62546Y-67910D01*
X62579Y-67877D01*
X62597Y-67833D01*
X62597Y-80964D01*
X62126Y-80964D01*
X62126Y-79387D01*
X62018Y-79126D01*
X61819Y-78927D01*
X61732Y-78891D01*
X61732Y-70725D01*
X61624Y-70465D01*
X61425Y-70265D01*
X61291Y-70210D01*
X61291Y-69238D01*
X61251Y-69139D01*
X61175Y-69064D01*
X61077Y-69023D01*
X60970Y-69023D01*
X60871Y-69063D01*
X60796Y-69139D01*
X60755Y-69237D01*
X60755Y-69344D01*
X60796Y-69443D01*
X60871Y-69518D01*
X60970Y-69559D01*
X61076Y-69559D01*
X61175Y-69518D01*
X61250Y-69443D01*
X61291Y-69344D01*
X61291Y-69238D01*
X61291Y-70210D01*
X61165Y-70157D01*
X60883Y-70157D01*
X60701Y-70232D01*
X60701Y-69238D01*
X60660Y-69139D01*
X60585Y-69064D01*
X60486Y-69023D01*
X60379Y-69023D01*
X60281Y-69063D01*
X60205Y-69139D01*
X60165Y-69237D01*
X60164Y-69344D01*
X60205Y-69443D01*
X60281Y-69518D01*
X60379Y-69559D01*
X60486Y-69559D01*
X60584Y-69518D01*
X60660Y-69443D01*
X60701Y-69344D01*
X60701Y-69238D01*
X60701Y-70232D01*
X60622Y-70265D01*
X60423Y-70464D01*
X60315Y-70724D01*
X60314Y-71006D01*
X60422Y-71267D01*
X60621Y-71466D01*
X60882Y-71574D01*
X61163Y-71574D01*
X61424Y-71467D01*
X61624Y-71268D01*
X61732Y-71007D01*
X61732Y-70725D01*
X61732Y-78891D01*
X61558Y-78819D01*
X61276Y-78818D01*
X61016Y-78926D01*
X60816Y-79125D01*
X60708Y-79385D01*
X60708Y-79667D01*
X60816Y-79928D01*
X61015Y-80127D01*
X61275Y-80236D01*
X61557Y-80236D01*
X61818Y-80128D01*
X62017Y-79929D01*
X62125Y-79669D01*
X62126Y-79387D01*
X62126Y-80964D01*
X61430Y-80964D01*
X60868Y-80852D01*
X60403Y-80541D01*
X60110Y-80104D01*
X60110Y-69238D01*
X60069Y-69139D01*
X59994Y-69064D01*
X59896Y-69023D01*
X59789Y-69023D01*
X59690Y-69063D01*
X59615Y-69139D01*
X59574Y-69237D01*
X59574Y-69344D01*
X59615Y-69443D01*
X59690Y-69518D01*
X59788Y-69559D01*
X59895Y-69559D01*
X59994Y-69518D01*
X60069Y-69443D01*
X60110Y-69344D01*
X60110Y-69238D01*
X60110Y-80104D01*
X60092Y-80076D01*
X59980Y-79513D01*
X59980Y-72834D01*
X59971Y-72790D01*
X59969Y-72781D01*
X59969Y-72781D01*
X59939Y-72737D01*
X59192Y-71990D01*
X59192Y-61726D01*
X59207Y-61653D01*
X59240Y-61603D01*
X59291Y-61569D01*
X59350Y-61557D01*
X59409Y-61569D01*
X59459Y-61603D01*
X59493Y-61653D01*
X59507Y-61726D01*
X59507Y-62204D01*
X59518Y-62257D01*
X59548Y-62302D01*
X61713Y-64467D01*
X61758Y-64497D01*
X61811Y-64507D01*
X75984Y-64507D01*
X75984Y-64507D01*
X76036Y-64497D01*
X76081Y-64467D01*
X78247Y-62302D01*
X78247Y-62302D01*
X78276Y-62257D01*
X78287Y-62204D01*
X78287Y-61726D01*
X78301Y-61653D01*
X78335Y-61603D01*
X78385Y-61569D01*
X78444Y-61557D01*
X78504Y-61569D01*
X78554Y-61603D01*
X78587Y-61653D01*
X78602Y-61726D01*
X78602Y-71990D01*
X78602Y-71990D01*
G37*
G54D15*
X78602Y-71990D02*
X78220Y-72371D01*
X78220Y-69238D01*
X78180Y-69139D01*
X78104Y-69064D01*
X78006Y-69023D01*
X77899Y-69023D01*
X77801Y-69063D01*
X77725Y-69139D01*
X77684Y-69237D01*
X77684Y-69344D01*
X77725Y-69443D01*
X77800Y-69518D01*
X77899Y-69559D01*
X78005Y-69559D01*
X78104Y-69518D01*
X78179Y-69443D01*
X78220Y-69344D01*
X78220Y-69238D01*
X78220Y-72371D01*
X77855Y-72737D01*
X77825Y-72781D01*
X77814Y-72834D01*
X77814Y-79513D01*
X77703Y-80076D01*
X77630Y-80185D01*
X77630Y-69238D01*
X77589Y-69139D01*
X77514Y-69064D01*
X77415Y-69023D01*
X77309Y-69023D01*
X77210Y-69063D01*
X77135Y-69139D01*
X77094Y-69237D01*
X77094Y-69344D01*
X77134Y-69443D01*
X77210Y-69518D01*
X77308Y-69559D01*
X77415Y-69559D01*
X77513Y-69518D01*
X77589Y-69443D01*
X77630Y-69344D01*
X77630Y-69238D01*
X77630Y-80185D01*
X77480Y-80409D01*
X77480Y-70725D01*
X77372Y-70465D01*
X77173Y-70265D01*
X77039Y-70210D01*
X77039Y-69238D01*
X76999Y-69139D01*
X76923Y-69064D01*
X76825Y-69023D01*
X76718Y-69023D01*
X76619Y-69063D01*
X76544Y-69139D01*
X76503Y-69237D01*
X76503Y-69344D01*
X76544Y-69443D01*
X76619Y-69518D01*
X76718Y-69559D01*
X76824Y-69559D01*
X76923Y-69518D01*
X76998Y-69443D01*
X77039Y-69344D01*
X77039Y-69238D01*
X77039Y-70210D01*
X76913Y-70157D01*
X76631Y-70157D01*
X76370Y-70265D01*
X76171Y-70464D01*
X76063Y-70724D01*
X76062Y-71006D01*
X76170Y-71267D01*
X76369Y-71466D01*
X76630Y-71574D01*
X76911Y-71574D01*
X77172Y-71467D01*
X77372Y-71268D01*
X77480Y-71007D01*
X77480Y-70725D01*
X77480Y-80409D01*
X77392Y-80541D01*
X77086Y-80745D01*
X77086Y-79387D01*
X76979Y-79126D01*
X76779Y-78927D01*
X76519Y-78819D01*
X76237Y-78818D01*
X76030Y-78904D01*
X76030Y-66393D01*
X76010Y-66294D01*
X75983Y-66277D01*
X75983Y-65351D01*
X75924Y-65206D01*
X75813Y-65096D01*
X75669Y-65036D01*
X75512Y-65035D01*
X75368Y-65095D01*
X75257Y-65206D01*
X75197Y-65350D01*
X75197Y-65506D01*
X75257Y-65651D01*
X75367Y-65762D01*
X75512Y-65822D01*
X75668Y-65822D01*
X75812Y-65762D01*
X75923Y-65652D01*
X75983Y-65507D01*
X75983Y-65351D01*
X75983Y-66277D01*
X75954Y-66259D01*
X75785Y-66429D01*
X75954Y-66598D01*
X76010Y-66564D01*
X76030Y-66393D01*
X76030Y-78904D01*
X75983Y-78923D01*
X75983Y-67351D01*
X75924Y-67206D01*
X75813Y-67096D01*
X75760Y-67073D01*
X75760Y-66793D01*
X75760Y-66065D01*
X75725Y-66009D01*
X75554Y-65989D01*
X75455Y-66009D01*
X75420Y-66065D01*
X75590Y-66234D01*
X75760Y-66065D01*
X75760Y-66793D01*
X75590Y-66623D01*
X75420Y-66793D01*
X75455Y-66848D01*
X75626Y-66868D01*
X75725Y-66848D01*
X75760Y-66793D01*
X75760Y-67073D01*
X75669Y-67036D01*
X75512Y-67035D01*
X75396Y-67084D01*
X75396Y-66429D01*
X75226Y-66259D01*
X75170Y-66294D01*
X75151Y-66465D01*
X75170Y-66564D01*
X75226Y-66598D01*
X75396Y-66429D01*
X75396Y-67084D01*
X75368Y-67095D01*
X75257Y-67206D01*
X75197Y-67350D01*
X75197Y-67506D01*
X75257Y-67651D01*
X75367Y-67762D01*
X75512Y-67822D01*
X75668Y-67822D01*
X75812Y-67762D01*
X75923Y-67652D01*
X75983Y-67507D01*
X75983Y-67351D01*
X75983Y-78923D01*
X75983Y-78923D01*
X75983Y-68727D01*
X75983Y-68680D01*
X75983Y-68130D01*
X75965Y-68087D01*
X75932Y-68054D01*
X75889Y-68036D01*
X75842Y-68036D01*
X75292Y-68036D01*
X75248Y-68054D01*
X75215Y-68087D01*
X75197Y-68130D01*
X75197Y-68177D01*
X75197Y-68727D01*
X75215Y-68771D01*
X75248Y-68804D01*
X75292Y-68822D01*
X75339Y-68822D01*
X75889Y-68822D01*
X75932Y-68804D01*
X75965Y-68771D01*
X75983Y-68727D01*
X75983Y-78923D01*
X75977Y-78926D01*
X75777Y-79125D01*
X75669Y-79385D01*
X75669Y-79667D01*
X75776Y-79928D01*
X75976Y-80127D01*
X76236Y-80236D01*
X76518Y-80236D01*
X76778Y-80128D01*
X76978Y-79929D01*
X77086Y-79669D01*
X77086Y-79387D01*
X77086Y-80745D01*
X76926Y-80852D01*
X76364Y-80964D01*
X75071Y-80964D01*
X75071Y-67860D01*
X75030Y-67761D01*
X74955Y-67686D01*
X74856Y-67645D01*
X74750Y-67645D01*
X74651Y-67685D01*
X74575Y-67761D01*
X74535Y-67859D01*
X74534Y-67966D01*
X74575Y-68065D01*
X74651Y-68140D01*
X74749Y-68181D01*
X74856Y-68181D01*
X74954Y-68140D01*
X75030Y-68065D01*
X75071Y-67966D01*
X75071Y-67860D01*
X75071Y-80964D01*
X74087Y-80964D01*
X74087Y-74356D01*
X74087Y-69927D01*
X74046Y-69828D01*
X73970Y-69753D01*
X73872Y-69712D01*
X73765Y-69712D01*
X73667Y-69752D01*
X73591Y-69828D01*
X73550Y-69926D01*
X73550Y-70033D01*
X73591Y-70131D01*
X73666Y-70207D01*
X73765Y-70248D01*
X73871Y-70248D01*
X73970Y-70207D01*
X74046Y-70132D01*
X74086Y-70033D01*
X74087Y-69927D01*
X74087Y-74356D01*
X74046Y-74257D01*
X73970Y-74182D01*
X73872Y-74141D01*
X73765Y-74141D01*
X73667Y-74182D01*
X73591Y-74257D01*
X73550Y-74355D01*
X73550Y-74462D01*
X73591Y-74561D01*
X73666Y-74636D01*
X73765Y-74677D01*
X73871Y-74677D01*
X73970Y-74636D01*
X74046Y-74561D01*
X74086Y-74463D01*
X74087Y-74356D01*
X74087Y-80964D01*
X73496Y-80964D01*
X73496Y-66285D01*
X73455Y-66186D01*
X73380Y-66111D01*
X73281Y-66070D01*
X73175Y-66070D01*
X73076Y-66111D01*
X73001Y-66186D01*
X72960Y-66285D01*
X72960Y-66391D01*
X73000Y-66490D01*
X73076Y-66565D01*
X73174Y-66606D01*
X73281Y-66606D01*
X73380Y-66566D01*
X73455Y-66490D01*
X73496Y-66392D01*
X73496Y-66285D01*
X73496Y-80964D01*
X73299Y-80964D01*
X73299Y-68253D01*
X73258Y-68155D01*
X73183Y-68079D01*
X73085Y-68039D01*
X72978Y-68038D01*
X72879Y-68079D01*
X72804Y-68155D01*
X72763Y-68253D01*
X72763Y-68360D01*
X72804Y-68458D01*
X72879Y-68534D01*
X72977Y-68575D01*
X73084Y-68575D01*
X73183Y-68534D01*
X73258Y-68459D01*
X73299Y-68360D01*
X73299Y-68253D01*
X73299Y-80964D01*
X72512Y-80964D01*
X72512Y-79572D01*
X72471Y-79474D01*
X72396Y-79398D01*
X72297Y-79357D01*
X72190Y-79357D01*
X72092Y-79398D01*
X72016Y-79473D01*
X71976Y-79572D01*
X71975Y-79679D01*
X72016Y-79777D01*
X72092Y-79853D01*
X72190Y-79894D01*
X72297Y-79894D01*
X72395Y-79853D01*
X72471Y-79778D01*
X72512Y-79679D01*
X72512Y-79572D01*
X72512Y-80964D01*
X71645Y-80964D01*
X71645Y-78198D01*
X71532Y-77923D01*
X71527Y-77919D01*
X71527Y-69828D01*
X71487Y-69730D01*
X71411Y-69654D01*
X71313Y-69613D01*
X71206Y-69613D01*
X71108Y-69654D01*
X71032Y-69729D01*
X70991Y-69828D01*
X70991Y-69934D01*
X71032Y-70033D01*
X71107Y-70109D01*
X71206Y-70149D01*
X71312Y-70150D01*
X71411Y-70109D01*
X71487Y-70033D01*
X71527Y-69935D01*
X71527Y-69828D01*
X71527Y-77919D01*
X71321Y-77712D01*
X71047Y-77598D01*
X70937Y-77598D01*
X70937Y-70419D01*
X70896Y-70320D01*
X70821Y-70245D01*
X70740Y-70211D01*
X70740Y-69828D01*
X70699Y-69730D01*
X70624Y-69654D01*
X70526Y-69613D01*
X70419Y-69613D01*
X70320Y-69654D01*
X70245Y-69729D01*
X70204Y-69828D01*
X70204Y-69934D01*
X70245Y-70033D01*
X70320Y-70109D01*
X70418Y-70149D01*
X70525Y-70150D01*
X70624Y-70109D01*
X70699Y-70033D01*
X70740Y-69935D01*
X70740Y-69828D01*
X70740Y-70211D01*
X70722Y-70204D01*
X70616Y-70204D01*
X70517Y-70245D01*
X70442Y-70320D01*
X70401Y-70418D01*
X70401Y-70525D01*
X70441Y-70624D01*
X70517Y-70699D01*
X70615Y-70740D01*
X70722Y-70740D01*
X70820Y-70699D01*
X70896Y-70624D01*
X70937Y-70526D01*
X70937Y-70419D01*
X70937Y-77598D01*
X70749Y-77598D01*
X70474Y-77711D01*
X70263Y-77922D01*
X70149Y-78197D01*
X70149Y-78494D01*
X70263Y-78769D01*
X70473Y-78980D01*
X70748Y-79094D01*
X71045Y-79094D01*
X71320Y-78980D01*
X71531Y-78770D01*
X71645Y-78495D01*
X71645Y-78198D01*
X71645Y-80964D01*
X70120Y-80964D01*
X70120Y-74752D01*
X70048Y-74579D01*
X69915Y-74446D01*
X69742Y-74374D01*
X69554Y-74373D01*
X69380Y-74445D01*
X69247Y-74578D01*
X69175Y-74752D01*
X69175Y-74940D01*
X69246Y-75113D01*
X69379Y-75246D01*
X69553Y-75318D01*
X69741Y-75318D01*
X69914Y-75247D01*
X70047Y-75114D01*
X70119Y-74940D01*
X70120Y-74752D01*
X70120Y-80964D01*
X69620Y-80964D01*
X69620Y-75752D01*
X69548Y-75579D01*
X69415Y-75446D01*
X69242Y-75374D01*
X69165Y-75374D01*
X69165Y-67269D01*
X69125Y-67171D01*
X69049Y-67095D01*
X68951Y-67054D01*
X68844Y-67054D01*
X68745Y-67095D01*
X68670Y-67170D01*
X68629Y-67269D01*
X68629Y-67375D01*
X68670Y-67474D01*
X68745Y-67549D01*
X68844Y-67590D01*
X68950Y-67590D01*
X69049Y-67550D01*
X69124Y-67474D01*
X69165Y-67376D01*
X69165Y-67269D01*
X69165Y-75374D01*
X69120Y-75373D01*
X69120Y-74752D01*
X69067Y-74625D01*
X69067Y-69041D01*
X69026Y-68942D01*
X68951Y-68867D01*
X68852Y-68826D01*
X68746Y-68826D01*
X68647Y-68867D01*
X68572Y-68942D01*
X68531Y-69040D01*
X68531Y-69147D01*
X68571Y-69246D01*
X68647Y-69321D01*
X68745Y-69362D01*
X68852Y-69362D01*
X68950Y-69321D01*
X69026Y-69246D01*
X69067Y-69148D01*
X69067Y-69041D01*
X69067Y-74625D01*
X69048Y-74579D01*
X68915Y-74446D01*
X68742Y-74374D01*
X68554Y-74373D01*
X68380Y-74445D01*
X68247Y-74578D01*
X68175Y-74752D01*
X68175Y-74940D01*
X68246Y-75113D01*
X68379Y-75246D01*
X68553Y-75318D01*
X68741Y-75318D01*
X68914Y-75247D01*
X69047Y-75114D01*
X69119Y-74940D01*
X69120Y-74752D01*
X69120Y-75373D01*
X69054Y-75373D01*
X68880Y-75445D01*
X68747Y-75578D01*
X68675Y-75752D01*
X68675Y-75940D01*
X68746Y-76113D01*
X68879Y-76246D01*
X69053Y-76318D01*
X69241Y-76318D01*
X69414Y-76247D01*
X69547Y-76114D01*
X69619Y-75940D01*
X69620Y-75752D01*
X69620Y-80964D01*
X67645Y-80964D01*
X67645Y-78198D01*
X67532Y-77923D01*
X67492Y-77883D01*
X67492Y-68844D01*
X67451Y-68745D01*
X67376Y-68670D01*
X67277Y-68629D01*
X67171Y-68629D01*
X67072Y-68670D01*
X66997Y-68745D01*
X66956Y-68844D01*
X66956Y-68950D01*
X66996Y-69049D01*
X67072Y-69124D01*
X67170Y-69165D01*
X67277Y-69165D01*
X67376Y-69125D01*
X67451Y-69049D01*
X67492Y-68951D01*
X67492Y-68844D01*
X67492Y-77883D01*
X67321Y-77712D01*
X67047Y-77598D01*
X66749Y-77598D01*
X66474Y-77711D01*
X66263Y-77922D01*
X66149Y-78197D01*
X66149Y-78494D01*
X66263Y-78769D01*
X66473Y-78980D01*
X66748Y-79094D01*
X67045Y-79094D01*
X67320Y-78980D01*
X67531Y-78770D01*
X67645Y-78495D01*
X67645Y-78198D01*
X67645Y-80964D01*
X64933Y-80964D01*
X64933Y-78785D01*
X64892Y-78686D01*
X64835Y-78629D01*
X64835Y-66285D01*
X64794Y-66186D01*
X64718Y-66111D01*
X64620Y-66070D01*
X64513Y-66070D01*
X64415Y-66111D01*
X64339Y-66186D01*
X64298Y-66285D01*
X64298Y-66391D01*
X64339Y-66490D01*
X64414Y-66565D01*
X64513Y-66606D01*
X64620Y-66606D01*
X64718Y-66566D01*
X64794Y-66490D01*
X64834Y-66392D01*
X64835Y-66285D01*
X64835Y-78629D01*
X64817Y-78611D01*
X64718Y-78570D01*
X64612Y-78570D01*
X64513Y-78611D01*
X64438Y-78686D01*
X64397Y-78785D01*
X64397Y-78891D01*
X64437Y-78990D01*
X64513Y-79065D01*
X64611Y-79106D01*
X64718Y-79106D01*
X64817Y-79066D01*
X64892Y-78990D01*
X64933Y-78892D01*
X64933Y-78785D01*
X64933Y-80964D01*
X63339Y-80964D01*
X63339Y-68372D01*
X63298Y-68273D01*
X63222Y-68198D01*
X63124Y-68157D01*
X63017Y-68157D01*
X62919Y-68197D01*
X62843Y-68273D01*
X62802Y-68371D01*
X62802Y-68478D01*
X62843Y-68576D01*
X62908Y-68642D01*
X62840Y-68670D01*
X62764Y-68745D01*
X62724Y-68844D01*
X62723Y-68950D01*
X62764Y-69049D01*
X62840Y-69124D01*
X62938Y-69165D01*
X63045Y-69165D01*
X63143Y-69125D01*
X63219Y-69049D01*
X63260Y-68951D01*
X63260Y-68844D01*
X63219Y-68745D01*
X63154Y-68680D01*
X63222Y-68652D01*
X63298Y-68577D01*
X63338Y-68478D01*
X63339Y-68372D01*
X63339Y-80964D01*
X62644Y-80964D01*
X62644Y-65499D01*
X62624Y-65400D01*
X62568Y-65365D01*
X62399Y-65535D01*
X62568Y-65705D01*
X62624Y-65670D01*
X62644Y-65499D01*
X62644Y-80964D01*
X62597Y-80964D01*
X62597Y-66457D01*
X62538Y-66313D01*
X62427Y-66202D01*
X62374Y-66180D01*
X62374Y-65899D01*
X62374Y-65171D01*
X62339Y-65115D01*
X62168Y-65095D01*
X62069Y-65115D01*
X62035Y-65171D01*
X62204Y-65340D01*
X62374Y-65171D01*
X62374Y-65899D01*
X62204Y-65729D01*
X62035Y-65899D01*
X62069Y-65955D01*
X62240Y-65974D01*
X62339Y-65955D01*
X62374Y-65899D01*
X62374Y-66180D01*
X62283Y-66142D01*
X62126Y-66142D01*
X62010Y-66190D01*
X62010Y-65535D01*
X61840Y-65365D01*
X61784Y-65400D01*
X61765Y-65571D01*
X61784Y-65670D01*
X61840Y-65705D01*
X62010Y-65535D01*
X62010Y-66190D01*
X61982Y-66201D01*
X61871Y-66312D01*
X61811Y-66456D01*
X61811Y-66613D01*
X61871Y-66757D01*
X61981Y-66868D01*
X62126Y-66928D01*
X62282Y-66928D01*
X62427Y-66868D01*
X62537Y-66758D01*
X62597Y-66613D01*
X62597Y-66457D01*
X62597Y-80964D01*
X62597Y-80964D01*
X62597Y-67833D01*
X62597Y-67786D01*
X62597Y-67236D01*
X62579Y-67193D01*
X62546Y-67160D01*
X62503Y-67142D01*
X62456Y-67142D01*
X61906Y-67142D01*
X61862Y-67160D01*
X61829Y-67193D01*
X61811Y-67236D01*
X61811Y-67283D01*
X61811Y-67833D01*
X61829Y-67877D01*
X61862Y-67910D01*
X61906Y-67928D01*
X61953Y-67928D01*
X62503Y-67928D01*
X62546Y-67910D01*
X62579Y-67877D01*
X62597Y-67833D01*
X62597Y-80964D01*
X62126Y-80964D01*
X62126Y-79387D01*
X62018Y-79126D01*
X61819Y-78927D01*
X61732Y-78891D01*
X61732Y-70725D01*
X61624Y-70465D01*
X61425Y-70265D01*
X61291Y-70210D01*
X61291Y-69238D01*
X61251Y-69139D01*
X61175Y-69064D01*
X61077Y-69023D01*
X60970Y-69023D01*
X60871Y-69063D01*
X60796Y-69139D01*
X60755Y-69237D01*
X60755Y-69344D01*
X60796Y-69443D01*
X60871Y-69518D01*
X60970Y-69559D01*
X61076Y-69559D01*
X61175Y-69518D01*
X61250Y-69443D01*
X61291Y-69344D01*
X61291Y-69238D01*
X61291Y-70210D01*
X61165Y-70157D01*
X60883Y-70157D01*
X60701Y-70232D01*
X60701Y-69238D01*
X60660Y-69139D01*
X60585Y-69064D01*
X60486Y-69023D01*
X60379Y-69023D01*
X60281Y-69063D01*
X60205Y-69139D01*
X60165Y-69237D01*
X60164Y-69344D01*
X60205Y-69443D01*
X60281Y-69518D01*
X60379Y-69559D01*
X60486Y-69559D01*
X60584Y-69518D01*
X60660Y-69443D01*
X60701Y-69344D01*
X60701Y-69238D01*
X60701Y-70232D01*
X60622Y-70265D01*
X60423Y-70464D01*
X60315Y-70724D01*
X60314Y-71006D01*
X60422Y-71267D01*
X60621Y-71466D01*
X60882Y-71574D01*
X61163Y-71574D01*
X61424Y-71467D01*
X61624Y-71268D01*
X61732Y-71007D01*
X61732Y-70725D01*
X61732Y-78891D01*
X61558Y-78819D01*
X61276Y-78818D01*
X61016Y-78926D01*
X60816Y-79125D01*
X60708Y-79385D01*
X60708Y-79667D01*
X60816Y-79928D01*
X61015Y-80127D01*
X61275Y-80236D01*
X61557Y-80236D01*
X61818Y-80128D01*
X62017Y-79929D01*
X62125Y-79669D01*
X62126Y-79387D01*
X62126Y-80964D01*
X61430Y-80964D01*
X60868Y-80852D01*
X60403Y-80541D01*
X60110Y-80104D01*
X60110Y-69238D01*
X60069Y-69139D01*
X59994Y-69064D01*
X59896Y-69023D01*
X59789Y-69023D01*
X59690Y-69063D01*
X59615Y-69139D01*
X59574Y-69237D01*
X59574Y-69344D01*
X59615Y-69443D01*
X59690Y-69518D01*
X59788Y-69559D01*
X59895Y-69559D01*
X59994Y-69518D01*
X60069Y-69443D01*
X60110Y-69344D01*
X60110Y-69238D01*
X60110Y-80104D01*
X60092Y-80076D01*
X59980Y-79513D01*
X59980Y-72834D01*
X59971Y-72790D01*
X59969Y-72781D01*
X59969Y-72781D01*
X59939Y-72737D01*
X59192Y-71990D01*
X59192Y-61726D01*
X59207Y-61653D01*
X59240Y-61603D01*
X59291Y-61569D01*
X59350Y-61557D01*
X59409Y-61569D01*
X59459Y-61603D01*
X59493Y-61653D01*
X59507Y-61726D01*
X59507Y-62204D01*
X59518Y-62257D01*
X59548Y-62302D01*
X61713Y-64467D01*
X61758Y-64497D01*
X61811Y-64507D01*
X75984Y-64507D01*
X75984Y-64507D01*
X76036Y-64497D01*
X76081Y-64467D01*
X78247Y-62302D01*
X78247Y-62302D01*
X78276Y-62257D01*
X78287Y-62204D01*
X78287Y-61726D01*
X78301Y-61653D01*
X78335Y-61603D01*
X78385Y-61569D01*
X78444Y-61557D01*
X78504Y-61569D01*
X78554Y-61603D01*
X78587Y-61653D01*
X78602Y-61726D01*
X78602Y-71990D01*
M02*
