G04 (created by PCBNEW (2013-mar-13)-testing) date Wed 10 Jun 2015 12:09:16 AM EDT*
%MOIN*%
G04 Gerber Fmt 3.4, Leading zero omitted, Abs format*
%FSLAX34Y34*%
G01*
G70*
G90*
G04 APERTURE LIST*
%ADD10C,0.005906*%
%ADD11R,0.196850X0.433071*%
%ADD12C,0.118110*%
%ADD13R,0.035000X0.055000*%
%ADD14R,0.055000X0.035000*%
%ADD15R,0.025000X0.045000*%
%ADD16R,0.050000X0.100000*%
%ADD17R,0.086600X0.070900*%
%ADD18R,0.070900X0.086600*%
%ADD19R,0.055000X0.055000*%
%ADD20C,0.055000*%
%ADD21C,0.125984*%
%ADD22C,0.070866*%
%ADD23R,0.045000X0.025000*%
%ADD24R,0.055100X0.023600*%
%ADD25R,0.023600X0.055100*%
%ADD26R,0.157500X0.110200*%
%ADD27R,0.062992X0.224409*%
%ADD28R,0.029528X0.051181*%
%ADD29R,0.036000X0.036000*%
G04 APERTURE END LIST*
G54D10*
G54D11*
X77362Y-66732D03*
X60433Y-66732D03*
G54D12*
X76377Y-79527D03*
X61417Y-79527D03*
X76771Y-70866D03*
X61023Y-70866D03*
G54D13*
X73129Y-79921D03*
X74114Y-79921D03*
G54D14*
X74606Y-74507D03*
X74606Y-75492D03*
G54D15*
X71653Y-73622D03*
X72440Y-73622D03*
X67322Y-73622D03*
X68110Y-73622D03*
X62992Y-73622D03*
X63779Y-73622D03*
G54D16*
X64360Y-79527D03*
X65560Y-79527D03*
G54D17*
X64960Y-74800D03*
X64960Y-76380D03*
X72834Y-74800D03*
X72834Y-76380D03*
G54D15*
X62598Y-68897D03*
X61811Y-68897D03*
G54D18*
X74018Y-68897D03*
X72438Y-68897D03*
X69687Y-68897D03*
X68107Y-68897D03*
X65356Y-68897D03*
X63776Y-68897D03*
G54D19*
X62204Y-67535D03*
G54D20*
X62204Y-66535D03*
X62204Y-65535D03*
G54D21*
X66897Y-78346D03*
X70897Y-78346D03*
G54D22*
X68147Y-75846D03*
X68647Y-74846D03*
X69147Y-75846D03*
X69647Y-74846D03*
G54D19*
X75590Y-68429D03*
G54D20*
X75590Y-67429D03*
X75590Y-66429D03*
X75590Y-65429D03*
G54D23*
X63385Y-77559D03*
X63385Y-78346D03*
X63385Y-76771D03*
X63385Y-75984D03*
G54D15*
X74803Y-73622D03*
X74015Y-73622D03*
G54D23*
X74803Y-72047D03*
X74803Y-71259D03*
G54D15*
X70472Y-73622D03*
X69685Y-73622D03*
G54D23*
X70472Y-72047D03*
X70472Y-71259D03*
G54D15*
X66141Y-73622D03*
X65354Y-73622D03*
G54D23*
X66141Y-72047D03*
X66141Y-71259D03*
G54D24*
X72572Y-79096D03*
X74672Y-79096D03*
X72572Y-78596D03*
X72572Y-78096D03*
X72572Y-77596D03*
X74672Y-78596D03*
X74672Y-78096D03*
X74672Y-77596D03*
G54D25*
X72478Y-70603D03*
X72478Y-72703D03*
X72978Y-70603D03*
X73478Y-70603D03*
X73978Y-70603D03*
X72978Y-72703D03*
X73478Y-72703D03*
X73978Y-72703D03*
G54D26*
X73228Y-71653D03*
G54D25*
X68147Y-70603D03*
X68147Y-72703D03*
X68647Y-70603D03*
X69147Y-70603D03*
X69647Y-70603D03*
X68647Y-72703D03*
X69147Y-72703D03*
X69647Y-72703D03*
G54D26*
X68897Y-71653D03*
G54D25*
X63816Y-70603D03*
X63816Y-72703D03*
X64316Y-70603D03*
X64816Y-70603D03*
X65316Y-70603D03*
X64316Y-72703D03*
X64816Y-72703D03*
X65316Y-72703D03*
G54D26*
X64566Y-71653D03*
G54D14*
X71653Y-71161D03*
X71653Y-72145D03*
X67322Y-71161D03*
X67322Y-72145D03*
X62992Y-71161D03*
X62992Y-72145D03*
G54D27*
X74153Y-66535D03*
X72303Y-66535D03*
X69822Y-66535D03*
X67972Y-66535D03*
X65492Y-66535D03*
X63641Y-66535D03*
G54D28*
X74340Y-76574D03*
X74872Y-76574D03*
G54D29*
X64610Y-77552D03*
X65310Y-77552D03*
X64960Y-78352D03*
M02*
