G04 #@! TF.FileFunction,Soldermask,Bot*
%FSLAX46Y46*%
G04 Gerber Fmt 4.6, Leading zero omitted, Abs format (unit mm)*
G04 Created by KiCad (PCBNEW 4.0.7) date Sun Apr  1 13:56:06 2018*
%MOMM*%
%LPD*%
G01*
G04 APERTURE LIST*
%ADD10C,0.150000*%
%ADD11R,5.000000X5.000000*%
%ADD12C,6.000000*%
%ADD13R,0.800000X0.750000*%
%ADD14R,0.750000X0.800000*%
%ADD15R,2.032000X1.727200*%
%ADD16O,2.032000X1.727200*%
%ADD17C,3.200000*%
%ADD18C,1.800000*%
%ADD19R,0.900000X0.500000*%
%ADD20R,0.500000X0.900000*%
%ADD21R,1.450000X0.450000*%
%ADD22R,0.800100X0.800100*%
%ADD23R,0.600000X1.550000*%
G04 APERTURE END LIST*
D10*
D11*
X181000000Y-167500000D03*
X175000000Y-167500000D03*
X169000000Y-167500000D03*
D12*
X156000000Y-199000000D03*
X194000000Y-199000000D03*
X195000000Y-180000000D03*
X155000000Y-180000000D03*
D13*
X179250000Y-181000000D03*
X180750000Y-181000000D03*
D14*
X166000000Y-176750000D03*
X166000000Y-175250000D03*
D15*
X158000000Y-166460000D03*
D16*
X158000000Y-169000000D03*
X158000000Y-171540000D03*
D17*
X169920000Y-203000000D03*
X180080000Y-203000000D03*
D18*
X173095000Y-196650000D03*
X174365000Y-194110000D03*
X175635000Y-196650000D03*
X176905000Y-194110000D03*
D15*
X192000000Y-173750000D03*
D16*
X192000000Y-171210000D03*
X192000000Y-168670000D03*
X192000000Y-166130000D03*
D19*
X167000000Y-183250000D03*
X167000000Y-184750000D03*
D20*
X169250000Y-182000000D03*
X170750000Y-182000000D03*
D19*
X173000000Y-184750000D03*
X173000000Y-183250000D03*
D20*
X178250000Y-185500000D03*
X176750000Y-185500000D03*
D21*
X182950000Y-173075000D03*
X182950000Y-173725000D03*
X182950000Y-174375000D03*
X182950000Y-175025000D03*
X182950000Y-175675000D03*
X182950000Y-176325000D03*
X182950000Y-176975000D03*
X182950000Y-177625000D03*
X182950000Y-178275000D03*
X182950000Y-178925000D03*
X177050000Y-178925000D03*
X177050000Y-178275000D03*
X177050000Y-177625000D03*
X177050000Y-176975000D03*
X177050000Y-176325000D03*
X177050000Y-175675000D03*
X177050000Y-175025000D03*
X177050000Y-174375000D03*
X177050000Y-173725000D03*
X177050000Y-173075000D03*
D22*
X169050000Y-184999240D03*
X170950000Y-184999240D03*
X170000000Y-186998220D03*
D23*
X168095000Y-173300000D03*
X169365000Y-173300000D03*
X170635000Y-173300000D03*
X171905000Y-173300000D03*
X171905000Y-178700000D03*
X170635000Y-178700000D03*
X169365000Y-178700000D03*
X168095000Y-178700000D03*
M02*
