G04 (created by PCBNEW (2013-mar-13)-testing) date Wed 10 Jun 2015 12:09:16 AM EDT*
%MOIN*%
G04 Gerber Fmt 3.4, Leading zero omitted, Abs format*
%FSLAX34Y34*%
G01*
G70*
G90*
G04 APERTURE LIST*
%ADD10C,0.005906*%
%ADD11R,0.196850X0.433071*%
%ADD12R,0.035000X0.055000*%
%ADD13R,0.055000X0.035000*%
%ADD14R,0.025000X0.045000*%
%ADD15R,0.050000X0.100000*%
%ADD16R,0.086600X0.070900*%
%ADD17R,0.070900X0.086600*%
%ADD18R,0.055000X0.055000*%
%ADD19C,0.055000*%
%ADD20C,0.070866*%
%ADD21R,0.045000X0.025000*%
%ADD22R,0.055100X0.023600*%
%ADD23R,0.023600X0.055100*%
%ADD24R,0.157500X0.110200*%
%ADD25R,0.062992X0.224409*%
%ADD26R,0.029528X0.051181*%
%ADD27R,0.036000X0.036000*%
%ADD28C,0.030000*%
%ADD29C,0.039370*%
%ADD30C,0.011811*%
%ADD31C,0.007874*%
G04 APERTURE END LIST*
G54D10*
G54D11*
X77362Y-66732D03*
X60433Y-66732D03*
G54D12*
X73129Y-79921D03*
X74114Y-79921D03*
G54D13*
X74606Y-74507D03*
X74606Y-75492D03*
G54D14*
X71653Y-73622D03*
X72440Y-73622D03*
X67322Y-73622D03*
X68110Y-73622D03*
X62992Y-73622D03*
X63779Y-73622D03*
G54D15*
X64360Y-79527D03*
X65560Y-79527D03*
G54D16*
X64960Y-74800D03*
X64960Y-76380D03*
X72834Y-74800D03*
X72834Y-76380D03*
G54D14*
X62598Y-68897D03*
X61811Y-68897D03*
G54D17*
X74018Y-68897D03*
X72438Y-68897D03*
X69687Y-68897D03*
X68107Y-68897D03*
X65356Y-68897D03*
X63776Y-68897D03*
G54D18*
X62204Y-67535D03*
G54D19*
X62204Y-66535D03*
X62204Y-65535D03*
G54D20*
X68147Y-75846D03*
X68647Y-74846D03*
X69147Y-75846D03*
X69647Y-74846D03*
G54D18*
X75590Y-68429D03*
G54D19*
X75590Y-67429D03*
X75590Y-66429D03*
X75590Y-65429D03*
G54D21*
X63385Y-77559D03*
X63385Y-78346D03*
X63385Y-76771D03*
X63385Y-75984D03*
G54D14*
X74803Y-73622D03*
X74015Y-73622D03*
G54D21*
X74803Y-72047D03*
X74803Y-71259D03*
G54D14*
X70472Y-73622D03*
X69685Y-73622D03*
G54D21*
X70472Y-72047D03*
X70472Y-71259D03*
G54D14*
X66141Y-73622D03*
X65354Y-73622D03*
G54D21*
X66141Y-72047D03*
X66141Y-71259D03*
G54D22*
X72572Y-79096D03*
X74672Y-79096D03*
X72572Y-78596D03*
X72572Y-78096D03*
X72572Y-77596D03*
X74672Y-78596D03*
X74672Y-78096D03*
X74672Y-77596D03*
G54D23*
X72478Y-70603D03*
X72478Y-72703D03*
X72978Y-70603D03*
X73478Y-70603D03*
X73978Y-70603D03*
X72978Y-72703D03*
X73478Y-72703D03*
X73978Y-72703D03*
G54D24*
X73228Y-71653D03*
G54D23*
X68147Y-70603D03*
X68147Y-72703D03*
X68647Y-70603D03*
X69147Y-70603D03*
X69647Y-70603D03*
X68647Y-72703D03*
X69147Y-72703D03*
X69647Y-72703D03*
G54D24*
X68897Y-71653D03*
G54D23*
X63816Y-70603D03*
X63816Y-72703D03*
X64316Y-70603D03*
X64816Y-70603D03*
X65316Y-70603D03*
X64316Y-72703D03*
X64816Y-72703D03*
X65316Y-72703D03*
G54D24*
X64566Y-71653D03*
G54D13*
X71653Y-71161D03*
X71653Y-72145D03*
X67322Y-71161D03*
X67322Y-72145D03*
X62992Y-71161D03*
X62992Y-72145D03*
G54D25*
X74153Y-66535D03*
X72303Y-66535D03*
X69822Y-66535D03*
X67972Y-66535D03*
X65492Y-66535D03*
X63641Y-66535D03*
G54D26*
X74340Y-76574D03*
X74872Y-76574D03*
G54D27*
X64610Y-77552D03*
X65310Y-77552D03*
X64960Y-78352D03*
G54D28*
X77952Y-69291D03*
X76771Y-69291D03*
X77362Y-69291D03*
X61023Y-69291D03*
X59842Y-69291D03*
X60433Y-69291D03*
X73031Y-68307D03*
X64665Y-78838D03*
X72244Y-79625D03*
X63070Y-68425D03*
X68799Y-69094D03*
X67224Y-68897D03*
X64566Y-66338D03*
X70472Y-69881D03*
X68897Y-67322D03*
X73818Y-69980D03*
X73228Y-66338D03*
X74803Y-67913D03*
X70669Y-70472D03*
X71259Y-69881D03*
X77165Y-76771D03*
X77165Y-75196D03*
X77165Y-73622D03*
X77165Y-72834D03*
X77165Y-74409D03*
X77165Y-75984D03*
X77165Y-77559D03*
X60629Y-76771D03*
X60629Y-74409D03*
X60629Y-72834D03*
X60629Y-73622D03*
X60629Y-75196D03*
X60629Y-75984D03*
X60629Y-77559D03*
X70078Y-80314D03*
X69291Y-80314D03*
X67716Y-80314D03*
X66929Y-80314D03*
X68503Y-80314D03*
X70866Y-80314D03*
X71062Y-71850D03*
X70866Y-69291D03*
X65748Y-71653D03*
X67322Y-69783D03*
X71358Y-68307D03*
X66929Y-73228D03*
X62992Y-68897D03*
X73818Y-74409D03*
G54D29*
X77362Y-66732D02*
X77952Y-67322D01*
X77952Y-67322D02*
X77952Y-69291D01*
X77362Y-66732D02*
X76771Y-67322D01*
X76771Y-67322D02*
X76771Y-69291D01*
X77362Y-66732D02*
X77362Y-69291D01*
X60433Y-66732D02*
X61023Y-67322D01*
X61023Y-67322D02*
X61023Y-69291D01*
X60433Y-66732D02*
X59842Y-67322D01*
X59842Y-67322D02*
X59842Y-69291D01*
X60433Y-66732D02*
X60433Y-69291D01*
X72438Y-68897D02*
X72440Y-68897D01*
X72440Y-68897D02*
X73031Y-68307D01*
X63776Y-68897D02*
X63304Y-68425D01*
X63304Y-68425D02*
X63070Y-68425D01*
X68107Y-68897D02*
X68602Y-68897D01*
X68602Y-68897D02*
X68799Y-69094D01*
G54D30*
X72572Y-78596D02*
X72190Y-78596D01*
X72539Y-79921D02*
X73129Y-79921D01*
X71948Y-79330D02*
X72244Y-79625D01*
X72244Y-79625D02*
X72539Y-79921D01*
X71948Y-78838D02*
X71948Y-79330D01*
X72190Y-78596D02*
X71948Y-78838D01*
G54D29*
X64960Y-78352D02*
X64960Y-78543D01*
X64360Y-79143D02*
X64360Y-79527D01*
X64960Y-78543D02*
X64665Y-78838D01*
X64665Y-78838D02*
X64360Y-79143D01*
X72478Y-70603D02*
X72211Y-70603D01*
X72211Y-70603D02*
X71653Y-71161D01*
X72438Y-70563D02*
X72478Y-70603D01*
X72438Y-68897D02*
X72438Y-70563D01*
X68147Y-70603D02*
X67880Y-70603D01*
X67880Y-70603D02*
X67322Y-71161D01*
X68107Y-70563D02*
X68147Y-70603D01*
X68107Y-68897D02*
X68107Y-70563D01*
X63776Y-68897D02*
X63776Y-70563D01*
X63776Y-70563D02*
X63816Y-70603D01*
X63550Y-70603D02*
X62992Y-71161D01*
X63816Y-70603D02*
X63550Y-70603D01*
G54D31*
X64816Y-70603D02*
X64816Y-70419D01*
X66830Y-68897D02*
X67224Y-68897D01*
X65551Y-70177D02*
X66830Y-68897D01*
X65059Y-70177D02*
X65551Y-70177D01*
X64816Y-70419D02*
X65059Y-70177D01*
G54D29*
X64370Y-66535D02*
X63641Y-66535D01*
X64566Y-66338D02*
X64370Y-66535D01*
G54D31*
X69147Y-70603D02*
X69147Y-70222D01*
X69488Y-69881D02*
X70472Y-69881D01*
X69147Y-70222D02*
X69488Y-69881D01*
G54D29*
X67972Y-66988D02*
X67972Y-66535D01*
X68307Y-67322D02*
X67972Y-66988D01*
X68897Y-67322D02*
X68307Y-67322D01*
G54D31*
X73818Y-69980D02*
X73478Y-70320D01*
X73478Y-70320D02*
X73478Y-70603D01*
G54D29*
X72303Y-66535D02*
X73031Y-66535D01*
X73031Y-66535D02*
X73228Y-66338D01*
G54D31*
X74803Y-66216D02*
X75590Y-65429D01*
X74803Y-67913D02*
X74803Y-66216D01*
X71259Y-69881D02*
X70669Y-70472D01*
X77165Y-77559D02*
X77165Y-76771D01*
X77165Y-75984D02*
X77165Y-75196D01*
X77165Y-74409D02*
X77165Y-73622D01*
X76377Y-72047D02*
X74803Y-72047D01*
X76377Y-72047D02*
X77165Y-72834D01*
X77165Y-73622D02*
X77165Y-72834D01*
X77165Y-75196D02*
X77165Y-74409D01*
X77165Y-76771D02*
X77165Y-75984D01*
X60629Y-77559D02*
X60629Y-76771D01*
X60629Y-75984D02*
X60629Y-75196D01*
X60629Y-74409D02*
X60629Y-75196D01*
X60629Y-73622D02*
X60629Y-72834D01*
X61318Y-72145D02*
X60629Y-72834D01*
X61318Y-72145D02*
X62992Y-72145D01*
X60629Y-74409D02*
X60629Y-73622D01*
X60629Y-76771D02*
X60629Y-75984D01*
X70866Y-80314D02*
X70078Y-80314D01*
X68503Y-80314D02*
X67716Y-80314D01*
X66141Y-79527D02*
X65560Y-79527D01*
X66141Y-79527D02*
X66929Y-80314D01*
X67716Y-80314D02*
X66929Y-80314D01*
X68503Y-80314D02*
X69291Y-80314D01*
X70078Y-80314D02*
X69291Y-80314D01*
X62992Y-68897D02*
X62598Y-68897D01*
G54D30*
X63385Y-78346D02*
X62992Y-78346D01*
X62992Y-76771D02*
X63385Y-76771D01*
X62795Y-76968D02*
X62992Y-76771D01*
X62795Y-78149D02*
X62795Y-76968D01*
X62992Y-78346D02*
X62795Y-78149D01*
X63385Y-78346D02*
X63779Y-78346D01*
X64910Y-77952D02*
X65310Y-77552D01*
X64173Y-77952D02*
X64910Y-77952D01*
X63779Y-78346D02*
X64173Y-77952D01*
X71653Y-73031D02*
X71653Y-73622D01*
X71981Y-72703D02*
X71653Y-73031D01*
X72478Y-72703D02*
X71981Y-72703D01*
X73478Y-73478D02*
X73622Y-73622D01*
X73622Y-73622D02*
X74015Y-73622D01*
X73478Y-72703D02*
X73478Y-73478D01*
X74540Y-70603D02*
X74803Y-70866D01*
X74803Y-70866D02*
X74803Y-71259D01*
X73978Y-70603D02*
X74540Y-70603D01*
G54D29*
X72978Y-69937D02*
X74018Y-68897D01*
X72978Y-70603D02*
X72978Y-69937D01*
X74153Y-68762D02*
X74153Y-66535D01*
X74018Y-68897D02*
X74153Y-68762D01*
G54D30*
X67322Y-73031D02*
X67322Y-73622D01*
X67650Y-72703D02*
X67322Y-73031D01*
X68147Y-72703D02*
X67650Y-72703D01*
X70209Y-70603D02*
X70472Y-70866D01*
X70472Y-70866D02*
X70472Y-71259D01*
X69647Y-70603D02*
X70209Y-70603D01*
G54D29*
X68647Y-69937D02*
X69687Y-68897D01*
X68647Y-70603D02*
X68647Y-69937D01*
X69822Y-68762D02*
X69822Y-66535D01*
X69687Y-68897D02*
X69822Y-68762D01*
G54D30*
X69147Y-73478D02*
X69291Y-73622D01*
X69291Y-73622D02*
X69685Y-73622D01*
X69147Y-72703D02*
X69147Y-73478D01*
X63816Y-72703D02*
X63320Y-72703D01*
X62992Y-73031D02*
X62992Y-73622D01*
X63320Y-72703D02*
X62992Y-73031D01*
X65316Y-70603D02*
X65879Y-70603D01*
X66141Y-70866D02*
X66141Y-71259D01*
X65879Y-70603D02*
X66141Y-70866D01*
G54D29*
X65356Y-68897D02*
X65492Y-68762D01*
X65492Y-68762D02*
X65492Y-66535D01*
X64316Y-70603D02*
X64316Y-69937D01*
X64316Y-69937D02*
X65356Y-68897D01*
G54D30*
X63385Y-77559D02*
X64604Y-77559D01*
X64604Y-77559D02*
X64610Y-77552D01*
G54D29*
X64610Y-77552D02*
X64610Y-76730D01*
X64610Y-76730D02*
X64960Y-76380D01*
X69647Y-74846D02*
X69881Y-75080D01*
X67522Y-76380D02*
X64960Y-76380D01*
X67716Y-76574D02*
X67522Y-76380D01*
X69488Y-76574D02*
X67716Y-76574D01*
X69881Y-76181D02*
X69488Y-76574D01*
X69881Y-75080D02*
X69881Y-76181D01*
G54D30*
X64816Y-72703D02*
X64816Y-73478D01*
X64960Y-73622D02*
X65354Y-73622D01*
X64816Y-73478D02*
X64960Y-73622D01*
X72572Y-79096D02*
X73167Y-79096D01*
X74340Y-76643D02*
X74340Y-76574D01*
X73622Y-77362D02*
X74340Y-76643D01*
X73622Y-78641D02*
X73622Y-77362D01*
X73167Y-79096D02*
X73622Y-78641D01*
X72834Y-76380D02*
X73028Y-76574D01*
X73028Y-76574D02*
X74340Y-76574D01*
X74606Y-74507D02*
X73917Y-74507D01*
X73917Y-74507D02*
X73818Y-74409D01*
X74872Y-76574D02*
X74872Y-76998D01*
X74672Y-77198D02*
X74672Y-77596D01*
X74872Y-76998D02*
X74672Y-77198D01*
X74872Y-76574D02*
X74872Y-76505D01*
X74704Y-74507D02*
X74606Y-74507D01*
X75196Y-75000D02*
X74704Y-74507D01*
X75196Y-76181D02*
X75196Y-75000D01*
X74872Y-76505D02*
X75196Y-76181D01*
G54D10*
G36*
X78602Y-71990D02*
X78464Y-72127D01*
X78464Y-68921D01*
X78464Y-68874D01*
X78464Y-64543D01*
X78446Y-64500D01*
X78413Y-64466D01*
X78369Y-64448D01*
X78322Y-64448D01*
X76354Y-64448D01*
X76311Y-64466D01*
X76277Y-64500D01*
X76259Y-64543D01*
X76259Y-64590D01*
X76259Y-68921D01*
X76277Y-68964D01*
X76311Y-68997D01*
X76354Y-69015D01*
X76401Y-69015D01*
X76456Y-69015D01*
X76456Y-69291D01*
X76480Y-69411D01*
X76548Y-69514D01*
X76651Y-69582D01*
X76771Y-69606D01*
X76892Y-69582D01*
X76994Y-69514D01*
X77062Y-69411D01*
X77066Y-69390D01*
X77071Y-69411D01*
X77139Y-69514D01*
X77241Y-69582D01*
X77362Y-69606D01*
X77482Y-69582D01*
X77584Y-69514D01*
X77653Y-69411D01*
X77657Y-69390D01*
X77661Y-69411D01*
X77730Y-69514D01*
X77832Y-69582D01*
X77952Y-69606D01*
X78073Y-69582D01*
X78175Y-69514D01*
X78243Y-69411D01*
X78267Y-69291D01*
X78267Y-69015D01*
X78369Y-69015D01*
X78413Y-68997D01*
X78446Y-68964D01*
X78464Y-68921D01*
X78464Y-72127D01*
X77855Y-72737D01*
X77825Y-72781D01*
X77814Y-72834D01*
X77814Y-79513D01*
X77703Y-80076D01*
X77480Y-80409D01*
X77480Y-70725D01*
X77372Y-70465D01*
X77173Y-70265D01*
X76913Y-70157D01*
X76631Y-70157D01*
X76370Y-70265D01*
X76171Y-70464D01*
X76063Y-70724D01*
X76062Y-71006D01*
X76170Y-71267D01*
X76369Y-71466D01*
X76630Y-71574D01*
X76911Y-71574D01*
X77172Y-71467D01*
X77372Y-71268D01*
X77480Y-71007D01*
X77480Y-70725D01*
X77480Y-80409D01*
X77392Y-80541D01*
X77086Y-80745D01*
X77086Y-79387D01*
X76979Y-79126D01*
X76779Y-78927D01*
X76519Y-78819D01*
X76237Y-78818D01*
X76030Y-78904D01*
X76030Y-66393D01*
X76010Y-66294D01*
X75983Y-66277D01*
X75983Y-65351D01*
X75924Y-65206D01*
X75813Y-65096D01*
X75669Y-65036D01*
X75512Y-65035D01*
X75368Y-65095D01*
X75257Y-65206D01*
X75197Y-65350D01*
X75197Y-65506D01*
X75224Y-65572D01*
X74691Y-66105D01*
X74657Y-66156D01*
X74645Y-66216D01*
X74645Y-67691D01*
X74575Y-67761D01*
X74535Y-67859D01*
X74534Y-67966D01*
X74575Y-68065D01*
X74651Y-68140D01*
X74749Y-68181D01*
X74856Y-68181D01*
X74954Y-68140D01*
X75030Y-68065D01*
X75071Y-67966D01*
X75071Y-67860D01*
X75030Y-67761D01*
X74960Y-67691D01*
X74960Y-66281D01*
X75447Y-65795D01*
X75512Y-65822D01*
X75668Y-65822D01*
X75812Y-65762D01*
X75923Y-65652D01*
X75983Y-65507D01*
X75983Y-65351D01*
X75983Y-66277D01*
X75954Y-66259D01*
X75785Y-66429D01*
X75954Y-66598D01*
X76010Y-66564D01*
X76030Y-66393D01*
X76030Y-78904D01*
X75983Y-78923D01*
X75983Y-67351D01*
X75924Y-67206D01*
X75813Y-67096D01*
X75760Y-67073D01*
X75760Y-66793D01*
X75760Y-66065D01*
X75725Y-66009D01*
X75554Y-65989D01*
X75455Y-66009D01*
X75420Y-66065D01*
X75590Y-66234D01*
X75760Y-66065D01*
X75760Y-66793D01*
X75590Y-66623D01*
X75420Y-66793D01*
X75455Y-66848D01*
X75626Y-66868D01*
X75725Y-66848D01*
X75760Y-66793D01*
X75760Y-67073D01*
X75669Y-67036D01*
X75512Y-67035D01*
X75396Y-67084D01*
X75396Y-66429D01*
X75226Y-66259D01*
X75170Y-66294D01*
X75151Y-66465D01*
X75170Y-66564D01*
X75226Y-66598D01*
X75396Y-66429D01*
X75396Y-67084D01*
X75368Y-67095D01*
X75257Y-67206D01*
X75197Y-67350D01*
X75197Y-67506D01*
X75257Y-67651D01*
X75367Y-67762D01*
X75512Y-67822D01*
X75668Y-67822D01*
X75812Y-67762D01*
X75923Y-67652D01*
X75983Y-67507D01*
X75983Y-67351D01*
X75983Y-78923D01*
X75983Y-78923D01*
X75983Y-68727D01*
X75983Y-68680D01*
X75983Y-68130D01*
X75965Y-68087D01*
X75932Y-68054D01*
X75889Y-68036D01*
X75842Y-68036D01*
X75292Y-68036D01*
X75248Y-68054D01*
X75215Y-68087D01*
X75197Y-68130D01*
X75197Y-68177D01*
X75197Y-68727D01*
X75215Y-68771D01*
X75248Y-68804D01*
X75292Y-68822D01*
X75339Y-68822D01*
X75889Y-68822D01*
X75932Y-68804D01*
X75965Y-68771D01*
X75983Y-68727D01*
X75983Y-78923D01*
X75977Y-78926D01*
X75777Y-79125D01*
X75669Y-79385D01*
X75669Y-79667D01*
X75776Y-79928D01*
X75976Y-80127D01*
X76236Y-80236D01*
X76518Y-80236D01*
X76778Y-80128D01*
X76978Y-79929D01*
X77086Y-79669D01*
X77086Y-79387D01*
X77086Y-80745D01*
X76926Y-80852D01*
X76364Y-80964D01*
X75374Y-80964D01*
X75374Y-76181D01*
X75374Y-75000D01*
X75360Y-74932D01*
X75360Y-74932D01*
X75322Y-74874D01*
X75185Y-74738D01*
X75185Y-72203D01*
X75185Y-72149D01*
X75185Y-71945D01*
X75185Y-71890D01*
X75161Y-71833D01*
X75146Y-71817D01*
X75146Y-71408D01*
X75146Y-71361D01*
X75146Y-71111D01*
X75128Y-71067D01*
X75095Y-71034D01*
X75051Y-71016D01*
X75004Y-71016D01*
X74980Y-71016D01*
X74980Y-70866D01*
X74966Y-70798D01*
X74928Y-70740D01*
X74665Y-70478D01*
X74608Y-70439D01*
X74540Y-70426D01*
X74214Y-70426D01*
X74214Y-70304D01*
X74196Y-70261D01*
X74163Y-70227D01*
X74119Y-70209D01*
X74072Y-70209D01*
X73965Y-70209D01*
X73970Y-70207D01*
X74046Y-70132D01*
X74086Y-70033D01*
X74087Y-69927D01*
X74046Y-69828D01*
X73970Y-69753D01*
X73872Y-69712D01*
X73765Y-69712D01*
X73667Y-69752D01*
X73591Y-69828D01*
X73550Y-69926D01*
X73550Y-70025D01*
X73366Y-70209D01*
X73366Y-70209D01*
X73336Y-70209D01*
X73293Y-70227D01*
X73293Y-70228D01*
X73293Y-70068D01*
X73912Y-69448D01*
X74396Y-69448D01*
X74439Y-69430D01*
X74472Y-69397D01*
X74490Y-69354D01*
X74490Y-69307D01*
X74490Y-68441D01*
X74472Y-68397D01*
X74468Y-68393D01*
X74468Y-67775D01*
X74491Y-67775D01*
X74535Y-67757D01*
X74568Y-67724D01*
X74586Y-67680D01*
X74586Y-67633D01*
X74586Y-65389D01*
X74568Y-65346D01*
X74535Y-65313D01*
X74491Y-65295D01*
X74445Y-65295D01*
X73815Y-65295D01*
X73771Y-65313D01*
X73738Y-65346D01*
X73720Y-65389D01*
X73720Y-65436D01*
X73720Y-67680D01*
X73738Y-67724D01*
X73771Y-67757D01*
X73815Y-67775D01*
X73838Y-67775D01*
X73838Y-68346D01*
X73640Y-68346D01*
X73596Y-68364D01*
X73563Y-68397D01*
X73545Y-68441D01*
X73545Y-68488D01*
X73545Y-68924D01*
X73543Y-68927D01*
X73543Y-66338D01*
X73519Y-66218D01*
X73451Y-66115D01*
X73348Y-66047D01*
X73228Y-66023D01*
X73107Y-66047D01*
X73005Y-66115D01*
X72901Y-66220D01*
X72736Y-66220D01*
X72736Y-65389D01*
X72718Y-65346D01*
X72685Y-65313D01*
X72641Y-65295D01*
X72594Y-65295D01*
X71964Y-65295D01*
X71921Y-65313D01*
X71888Y-65346D01*
X71870Y-65389D01*
X71870Y-65436D01*
X71870Y-67680D01*
X71888Y-67724D01*
X71921Y-67757D01*
X71964Y-67775D01*
X72011Y-67775D01*
X72641Y-67775D01*
X72685Y-67757D01*
X72718Y-67724D01*
X72736Y-67680D01*
X72736Y-67633D01*
X72736Y-66850D01*
X73031Y-66850D01*
X73031Y-66850D01*
X73152Y-66826D01*
X73254Y-66758D01*
X73451Y-66561D01*
X73519Y-66459D01*
X73543Y-66338D01*
X73543Y-68927D01*
X72755Y-69714D01*
X72753Y-69718D01*
X72753Y-69448D01*
X72816Y-69448D01*
X72859Y-69430D01*
X72892Y-69397D01*
X72910Y-69354D01*
X72910Y-69307D01*
X72910Y-68873D01*
X73254Y-68529D01*
X73322Y-68427D01*
X73346Y-68307D01*
X73322Y-68186D01*
X73254Y-68084D01*
X73152Y-68016D01*
X73031Y-67992D01*
X72910Y-68016D01*
X72808Y-68084D01*
X72546Y-68346D01*
X72060Y-68346D01*
X72016Y-68364D01*
X71983Y-68397D01*
X71965Y-68441D01*
X71965Y-68488D01*
X71965Y-69354D01*
X71983Y-69397D01*
X72016Y-69430D01*
X72060Y-69448D01*
X72107Y-69448D01*
X72123Y-69448D01*
X72123Y-70306D01*
X72090Y-70312D01*
X71988Y-70380D01*
X71527Y-70841D01*
X71527Y-69828D01*
X71487Y-69730D01*
X71411Y-69654D01*
X71313Y-69613D01*
X71206Y-69613D01*
X71108Y-69654D01*
X71032Y-69729D01*
X70991Y-69828D01*
X70991Y-69927D01*
X70714Y-70204D01*
X70616Y-70204D01*
X70517Y-70245D01*
X70442Y-70320D01*
X70401Y-70418D01*
X70401Y-70525D01*
X70414Y-70557D01*
X70335Y-70478D01*
X70277Y-70439D01*
X70209Y-70426D01*
X69883Y-70426D01*
X69883Y-70304D01*
X69865Y-70261D01*
X69832Y-70227D01*
X69789Y-70209D01*
X69742Y-70209D01*
X69506Y-70209D01*
X69462Y-70227D01*
X69429Y-70261D01*
X69411Y-70304D01*
X69411Y-70351D01*
X69411Y-70902D01*
X69429Y-70945D01*
X69366Y-70945D01*
X69383Y-70902D01*
X69383Y-70855D01*
X69383Y-70304D01*
X69365Y-70261D01*
X69348Y-70244D01*
X69553Y-70039D01*
X70250Y-70039D01*
X70320Y-70109D01*
X70418Y-70149D01*
X70525Y-70150D01*
X70624Y-70109D01*
X70699Y-70033D01*
X70740Y-69935D01*
X70740Y-69828D01*
X70699Y-69730D01*
X70624Y-69654D01*
X70526Y-69613D01*
X70419Y-69613D01*
X70320Y-69654D01*
X70250Y-69724D01*
X69488Y-69724D01*
X69488Y-69724D01*
X69427Y-69736D01*
X69376Y-69770D01*
X69036Y-70111D01*
X69002Y-70162D01*
X68991Y-70216D01*
X68991Y-70216D01*
X68962Y-70227D01*
X68962Y-70228D01*
X68962Y-70068D01*
X69581Y-69448D01*
X70065Y-69448D01*
X70109Y-69430D01*
X70142Y-69397D01*
X70160Y-69354D01*
X70160Y-69307D01*
X70160Y-68441D01*
X70142Y-68397D01*
X70137Y-68393D01*
X70137Y-67775D01*
X70161Y-67775D01*
X70204Y-67757D01*
X70237Y-67724D01*
X70255Y-67680D01*
X70255Y-67633D01*
X70255Y-65389D01*
X70237Y-65346D01*
X70204Y-65313D01*
X70161Y-65295D01*
X70114Y-65295D01*
X69484Y-65295D01*
X69440Y-65313D01*
X69407Y-65346D01*
X69389Y-65389D01*
X69389Y-65436D01*
X69389Y-67680D01*
X69407Y-67724D01*
X69440Y-67757D01*
X69484Y-67775D01*
X69507Y-67775D01*
X69507Y-68346D01*
X69309Y-68346D01*
X69266Y-68364D01*
X69233Y-68397D01*
X69215Y-68441D01*
X69215Y-68488D01*
X69215Y-68924D01*
X69212Y-68927D01*
X69212Y-67322D01*
X69188Y-67202D01*
X69120Y-67100D01*
X69018Y-67031D01*
X68897Y-67007D01*
X68437Y-67007D01*
X68405Y-66975D01*
X68405Y-65389D01*
X68387Y-65346D01*
X68354Y-65313D01*
X68310Y-65295D01*
X68263Y-65295D01*
X67633Y-65295D01*
X67590Y-65313D01*
X67557Y-65346D01*
X67539Y-65389D01*
X67539Y-65436D01*
X67539Y-67680D01*
X67557Y-67724D01*
X67590Y-67757D01*
X67633Y-67775D01*
X67680Y-67775D01*
X68310Y-67775D01*
X68354Y-67757D01*
X68387Y-67724D01*
X68405Y-67680D01*
X68405Y-67637D01*
X68897Y-67637D01*
X69018Y-67613D01*
X69120Y-67545D01*
X69188Y-67443D01*
X69212Y-67322D01*
X69212Y-68927D01*
X69102Y-69037D01*
X69090Y-68973D01*
X69021Y-68871D01*
X68825Y-68674D01*
X68722Y-68606D01*
X68602Y-68582D01*
X68580Y-68582D01*
X68580Y-68441D01*
X68562Y-68397D01*
X68529Y-68364D01*
X68485Y-68346D01*
X68438Y-68346D01*
X67729Y-68346D01*
X67686Y-68364D01*
X67653Y-68397D01*
X67635Y-68441D01*
X67635Y-68488D01*
X67635Y-69354D01*
X67653Y-69397D01*
X67686Y-69430D01*
X67729Y-69448D01*
X67776Y-69448D01*
X67792Y-69448D01*
X67792Y-70306D01*
X67760Y-70312D01*
X67657Y-70380D01*
X67492Y-70546D01*
X67492Y-68844D01*
X67451Y-68745D01*
X67376Y-68670D01*
X67277Y-68629D01*
X67171Y-68629D01*
X67072Y-68670D01*
X67002Y-68740D01*
X66830Y-68740D01*
X66770Y-68752D01*
X66719Y-68786D01*
X65485Y-70019D01*
X65059Y-70019D01*
X64998Y-70031D01*
X64947Y-70065D01*
X64947Y-70065D01*
X64803Y-70209D01*
X64675Y-70209D01*
X64632Y-70227D01*
X64631Y-70228D01*
X64631Y-70068D01*
X65251Y-69448D01*
X65734Y-69448D01*
X65778Y-69430D01*
X65811Y-69397D01*
X65829Y-69354D01*
X65829Y-69307D01*
X65829Y-68441D01*
X65811Y-68397D01*
X65807Y-68393D01*
X65807Y-67775D01*
X65830Y-67775D01*
X65873Y-67757D01*
X65907Y-67724D01*
X65925Y-67680D01*
X65925Y-67633D01*
X65925Y-65389D01*
X65907Y-65346D01*
X65873Y-65313D01*
X65830Y-65295D01*
X65783Y-65295D01*
X65153Y-65295D01*
X65110Y-65313D01*
X65077Y-65346D01*
X65059Y-65389D01*
X65059Y-65436D01*
X65059Y-67680D01*
X65077Y-67724D01*
X65110Y-67757D01*
X65153Y-67775D01*
X65177Y-67775D01*
X65177Y-68346D01*
X64978Y-68346D01*
X64935Y-68364D01*
X64902Y-68397D01*
X64884Y-68441D01*
X64884Y-68488D01*
X64884Y-68924D01*
X64881Y-68927D01*
X64881Y-66338D01*
X64857Y-66218D01*
X64789Y-66115D01*
X64687Y-66047D01*
X64566Y-66023D01*
X64446Y-66047D01*
X64344Y-66115D01*
X64239Y-66220D01*
X64074Y-66220D01*
X64074Y-65389D01*
X64056Y-65346D01*
X64023Y-65313D01*
X63980Y-65295D01*
X63933Y-65295D01*
X63303Y-65295D01*
X63259Y-65313D01*
X63226Y-65346D01*
X63208Y-65389D01*
X63208Y-65436D01*
X63208Y-67680D01*
X63226Y-67724D01*
X63259Y-67757D01*
X63303Y-67775D01*
X63350Y-67775D01*
X63980Y-67775D01*
X64023Y-67757D01*
X64056Y-67724D01*
X64074Y-67680D01*
X64074Y-67633D01*
X64074Y-66850D01*
X64370Y-66850D01*
X64370Y-66850D01*
X64490Y-66826D01*
X64592Y-66758D01*
X64789Y-66561D01*
X64857Y-66459D01*
X64881Y-66338D01*
X64881Y-68927D01*
X64094Y-69714D01*
X64091Y-69718D01*
X64091Y-69448D01*
X64154Y-69448D01*
X64198Y-69430D01*
X64231Y-69397D01*
X64249Y-69354D01*
X64249Y-69307D01*
X64249Y-68441D01*
X64231Y-68397D01*
X64198Y-68364D01*
X64154Y-68346D01*
X64107Y-68346D01*
X63671Y-68346D01*
X63527Y-68202D01*
X63425Y-68134D01*
X63304Y-68110D01*
X63070Y-68110D01*
X62950Y-68134D01*
X62848Y-68202D01*
X62779Y-68304D01*
X62755Y-68425D01*
X62779Y-68545D01*
X62812Y-68594D01*
X62790Y-68572D01*
X62746Y-68554D01*
X62699Y-68554D01*
X62644Y-68554D01*
X62644Y-65499D01*
X62624Y-65400D01*
X62568Y-65365D01*
X62399Y-65535D01*
X62568Y-65705D01*
X62624Y-65670D01*
X62644Y-65499D01*
X62644Y-68554D01*
X62597Y-68554D01*
X62597Y-66457D01*
X62538Y-66313D01*
X62427Y-66202D01*
X62374Y-66180D01*
X62374Y-65899D01*
X62374Y-65171D01*
X62339Y-65115D01*
X62168Y-65095D01*
X62069Y-65115D01*
X62035Y-65171D01*
X62204Y-65340D01*
X62374Y-65171D01*
X62374Y-65899D01*
X62204Y-65729D01*
X62035Y-65899D01*
X62069Y-65955D01*
X62240Y-65974D01*
X62339Y-65955D01*
X62374Y-65899D01*
X62374Y-66180D01*
X62283Y-66142D01*
X62126Y-66142D01*
X62010Y-66190D01*
X62010Y-65535D01*
X61840Y-65365D01*
X61784Y-65400D01*
X61765Y-65571D01*
X61784Y-65670D01*
X61840Y-65705D01*
X62010Y-65535D01*
X62010Y-66190D01*
X61982Y-66201D01*
X61871Y-66312D01*
X61811Y-66456D01*
X61811Y-66613D01*
X61871Y-66757D01*
X61981Y-66868D01*
X62126Y-66928D01*
X62282Y-66928D01*
X62427Y-66868D01*
X62537Y-66758D01*
X62597Y-66613D01*
X62597Y-66457D01*
X62597Y-68554D01*
X62597Y-68554D01*
X62597Y-67833D01*
X62597Y-67786D01*
X62597Y-67236D01*
X62579Y-67193D01*
X62546Y-67160D01*
X62503Y-67142D01*
X62456Y-67142D01*
X61906Y-67142D01*
X61862Y-67160D01*
X61829Y-67193D01*
X61811Y-67236D01*
X61811Y-67283D01*
X61811Y-67833D01*
X61829Y-67877D01*
X61862Y-67910D01*
X61906Y-67928D01*
X61953Y-67928D01*
X62503Y-67928D01*
X62546Y-67910D01*
X62579Y-67877D01*
X62597Y-67833D01*
X62597Y-68554D01*
X62449Y-68554D01*
X62406Y-68572D01*
X62373Y-68605D01*
X62355Y-68649D01*
X62355Y-68696D01*
X62355Y-69146D01*
X62373Y-69189D01*
X62406Y-69222D01*
X62449Y-69240D01*
X62496Y-69240D01*
X62746Y-69240D01*
X62790Y-69222D01*
X62823Y-69189D01*
X62841Y-69146D01*
X62841Y-69125D01*
X62938Y-69165D01*
X63045Y-69165D01*
X63143Y-69125D01*
X63219Y-69049D01*
X63260Y-68951D01*
X63260Y-68844D01*
X63247Y-68813D01*
X63304Y-68870D01*
X63304Y-69354D01*
X63322Y-69397D01*
X63355Y-69430D01*
X63398Y-69448D01*
X63445Y-69448D01*
X63461Y-69448D01*
X63461Y-70306D01*
X63429Y-70312D01*
X63327Y-70380D01*
X62839Y-70868D01*
X62693Y-70868D01*
X62650Y-70886D01*
X62616Y-70919D01*
X62599Y-70962D01*
X62599Y-71009D01*
X62599Y-71359D01*
X62616Y-71403D01*
X62650Y-71436D01*
X62693Y-71454D01*
X62740Y-71454D01*
X62882Y-71454D01*
X62992Y-71476D01*
X63101Y-71454D01*
X63290Y-71454D01*
X63334Y-71436D01*
X63367Y-71403D01*
X63385Y-71359D01*
X63385Y-71312D01*
X63385Y-71213D01*
X63625Y-70973D01*
X63632Y-70979D01*
X63666Y-70993D01*
X63645Y-71013D01*
X63621Y-71071D01*
X63621Y-71133D01*
X63621Y-71456D01*
X63661Y-71496D01*
X64409Y-71496D01*
X64409Y-70997D01*
X64458Y-70997D01*
X64501Y-70979D01*
X64535Y-70945D01*
X64553Y-70902D01*
X64553Y-70855D01*
X64553Y-70806D01*
X64580Y-70764D01*
X64580Y-70902D01*
X64598Y-70945D01*
X64632Y-70979D01*
X64675Y-70997D01*
X64722Y-70997D01*
X64724Y-70997D01*
X64724Y-71496D01*
X65472Y-71496D01*
X65511Y-71456D01*
X65511Y-71133D01*
X65511Y-71071D01*
X65487Y-71013D01*
X65467Y-70993D01*
X65501Y-70979D01*
X65535Y-70945D01*
X65553Y-70902D01*
X65553Y-70855D01*
X65553Y-70780D01*
X65805Y-70780D01*
X65964Y-70939D01*
X65964Y-71016D01*
X65893Y-71016D01*
X65849Y-71034D01*
X65816Y-71067D01*
X65798Y-71111D01*
X65798Y-71158D01*
X65798Y-71408D01*
X65816Y-71451D01*
X65849Y-71484D01*
X65893Y-71502D01*
X65940Y-71502D01*
X66390Y-71502D01*
X66433Y-71484D01*
X66466Y-71451D01*
X66484Y-71408D01*
X66484Y-71361D01*
X66484Y-71111D01*
X66466Y-71067D01*
X66433Y-71034D01*
X66390Y-71016D01*
X66343Y-71016D01*
X66318Y-71016D01*
X66318Y-70866D01*
X66305Y-70798D01*
X66267Y-70740D01*
X66004Y-70478D01*
X65946Y-70439D01*
X65879Y-70426D01*
X65553Y-70426D01*
X65553Y-70334D01*
X65611Y-70322D01*
X65611Y-70322D01*
X65662Y-70288D01*
X66895Y-69055D01*
X67002Y-69055D01*
X67072Y-69124D01*
X67170Y-69165D01*
X67277Y-69165D01*
X67376Y-69125D01*
X67451Y-69049D01*
X67492Y-68951D01*
X67492Y-68844D01*
X67492Y-70546D01*
X67170Y-70868D01*
X67024Y-70868D01*
X66980Y-70886D01*
X66947Y-70919D01*
X66929Y-70962D01*
X66929Y-71009D01*
X66929Y-71359D01*
X66947Y-71403D01*
X66980Y-71436D01*
X67024Y-71454D01*
X67071Y-71454D01*
X67212Y-71454D01*
X67322Y-71476D01*
X67432Y-71454D01*
X67621Y-71454D01*
X67664Y-71436D01*
X67697Y-71403D01*
X67715Y-71359D01*
X67715Y-71312D01*
X67715Y-71213D01*
X67956Y-70973D01*
X67962Y-70979D01*
X67996Y-70993D01*
X67976Y-71013D01*
X67952Y-71071D01*
X67952Y-71133D01*
X67952Y-71456D01*
X67992Y-71496D01*
X68740Y-71496D01*
X68740Y-70997D01*
X68789Y-70997D01*
X68832Y-70979D01*
X68865Y-70945D01*
X68883Y-70902D01*
X68883Y-70855D01*
X68883Y-70806D01*
X68911Y-70764D01*
X68911Y-70902D01*
X68929Y-70945D01*
X68962Y-70979D01*
X69006Y-70997D01*
X69053Y-70997D01*
X69055Y-70997D01*
X69055Y-71496D01*
X69803Y-71496D01*
X69842Y-71456D01*
X69842Y-71133D01*
X69842Y-71071D01*
X69818Y-71013D01*
X69798Y-70993D01*
X69832Y-70979D01*
X69865Y-70945D01*
X69883Y-70902D01*
X69883Y-70855D01*
X69883Y-70780D01*
X70136Y-70780D01*
X70295Y-70939D01*
X70295Y-71016D01*
X70223Y-71016D01*
X70180Y-71034D01*
X70147Y-71067D01*
X70129Y-71111D01*
X70129Y-71158D01*
X70129Y-71408D01*
X70147Y-71451D01*
X70180Y-71484D01*
X70223Y-71502D01*
X70270Y-71502D01*
X70720Y-71502D01*
X70764Y-71484D01*
X70797Y-71451D01*
X70815Y-71408D01*
X70815Y-71361D01*
X70815Y-71111D01*
X70797Y-71067D01*
X70764Y-71034D01*
X70720Y-71016D01*
X70673Y-71016D01*
X70649Y-71016D01*
X70649Y-70866D01*
X70636Y-70798D01*
X70597Y-70740D01*
X70584Y-70727D01*
X70615Y-70740D01*
X70722Y-70740D01*
X70820Y-70699D01*
X70896Y-70624D01*
X70937Y-70526D01*
X70937Y-70427D01*
X71214Y-70149D01*
X71312Y-70150D01*
X71411Y-70109D01*
X71487Y-70033D01*
X71527Y-69935D01*
X71527Y-69828D01*
X71527Y-70841D01*
X71501Y-70868D01*
X71355Y-70868D01*
X71311Y-70886D01*
X71278Y-70919D01*
X71260Y-70962D01*
X71260Y-71009D01*
X71260Y-71359D01*
X71278Y-71403D01*
X71311Y-71436D01*
X71355Y-71454D01*
X71402Y-71454D01*
X71543Y-71454D01*
X71653Y-71476D01*
X71763Y-71454D01*
X71952Y-71454D01*
X71995Y-71436D01*
X72028Y-71403D01*
X72046Y-71359D01*
X72046Y-71312D01*
X72046Y-71213D01*
X72287Y-70973D01*
X72293Y-70979D01*
X72327Y-70993D01*
X72307Y-71013D01*
X72283Y-71071D01*
X72283Y-71133D01*
X72283Y-71456D01*
X72322Y-71496D01*
X73070Y-71496D01*
X73070Y-70997D01*
X73119Y-70997D01*
X73163Y-70979D01*
X73196Y-70945D01*
X73214Y-70902D01*
X73214Y-70855D01*
X73214Y-70806D01*
X73242Y-70764D01*
X73242Y-70902D01*
X73260Y-70945D01*
X73293Y-70979D01*
X73336Y-70997D01*
X73383Y-70997D01*
X73385Y-70997D01*
X73385Y-71496D01*
X74133Y-71496D01*
X74173Y-71456D01*
X74173Y-71133D01*
X74173Y-71071D01*
X74149Y-71013D01*
X74129Y-70993D01*
X74163Y-70979D01*
X74196Y-70945D01*
X74214Y-70902D01*
X74214Y-70855D01*
X74214Y-70780D01*
X74467Y-70780D01*
X74625Y-70939D01*
X74625Y-71016D01*
X74554Y-71016D01*
X74511Y-71034D01*
X74478Y-71067D01*
X74460Y-71111D01*
X74460Y-71158D01*
X74460Y-71408D01*
X74478Y-71451D01*
X74511Y-71484D01*
X74554Y-71502D01*
X74601Y-71502D01*
X75051Y-71502D01*
X75095Y-71484D01*
X75128Y-71451D01*
X75146Y-71408D01*
X75146Y-71817D01*
X75117Y-71788D01*
X75059Y-71764D01*
X74996Y-71764D01*
X74955Y-71764D01*
X74915Y-71804D01*
X74915Y-71984D01*
X75146Y-71984D01*
X75185Y-71945D01*
X75185Y-72149D01*
X75146Y-72109D01*
X74915Y-72109D01*
X74915Y-72290D01*
X74955Y-72329D01*
X74996Y-72329D01*
X75059Y-72329D01*
X75117Y-72305D01*
X75161Y-72261D01*
X75185Y-72203D01*
X75185Y-74738D01*
X75085Y-74638D01*
X75085Y-73878D01*
X75085Y-73815D01*
X75085Y-73773D01*
X75085Y-73470D01*
X75085Y-73428D01*
X75085Y-73365D01*
X75061Y-73307D01*
X75017Y-73263D01*
X74959Y-73239D01*
X74905Y-73239D01*
X74865Y-73278D01*
X74865Y-73509D01*
X75046Y-73509D01*
X75085Y-73470D01*
X75085Y-73773D01*
X75046Y-73734D01*
X74865Y-73734D01*
X74865Y-73965D01*
X74905Y-74004D01*
X74959Y-74004D01*
X75017Y-73980D01*
X75061Y-73936D01*
X75085Y-73878D01*
X75085Y-74638D01*
X74999Y-74552D01*
X74999Y-74309D01*
X74981Y-74265D01*
X74948Y-74232D01*
X74904Y-74214D01*
X74857Y-74214D01*
X74740Y-74214D01*
X74740Y-73965D01*
X74740Y-73734D01*
X74740Y-73509D01*
X74740Y-73278D01*
X74701Y-73239D01*
X74690Y-73239D01*
X74690Y-72290D01*
X74690Y-72109D01*
X74690Y-71984D01*
X74690Y-71804D01*
X74651Y-71764D01*
X74609Y-71764D01*
X74546Y-71764D01*
X74488Y-71788D01*
X74444Y-71833D01*
X74420Y-71890D01*
X74420Y-71945D01*
X74460Y-71984D01*
X74690Y-71984D01*
X74690Y-72109D01*
X74460Y-72109D01*
X74420Y-72149D01*
X74420Y-72203D01*
X74444Y-72261D01*
X74488Y-72305D01*
X74546Y-72329D01*
X74609Y-72329D01*
X74651Y-72329D01*
X74690Y-72290D01*
X74690Y-73239D01*
X74646Y-73239D01*
X74588Y-73263D01*
X74544Y-73307D01*
X74520Y-73365D01*
X74520Y-73428D01*
X74520Y-73470D01*
X74560Y-73509D01*
X74740Y-73509D01*
X74740Y-73734D01*
X74560Y-73734D01*
X74520Y-73773D01*
X74520Y-73815D01*
X74520Y-73878D01*
X74544Y-73936D01*
X74588Y-73980D01*
X74646Y-74004D01*
X74701Y-74004D01*
X74740Y-73965D01*
X74740Y-74214D01*
X74307Y-74214D01*
X74264Y-74232D01*
X74258Y-74238D01*
X74258Y-73870D01*
X74258Y-73823D01*
X74258Y-73373D01*
X74253Y-73361D01*
X74253Y-73010D01*
X74253Y-72947D01*
X74253Y-72880D01*
X74214Y-72841D01*
X74037Y-72841D01*
X74037Y-73097D01*
X74076Y-73136D01*
X74127Y-73136D01*
X74185Y-73112D01*
X74229Y-73068D01*
X74253Y-73010D01*
X74253Y-73361D01*
X74240Y-73330D01*
X74207Y-73296D01*
X74164Y-73278D01*
X74117Y-73278D01*
X73867Y-73278D01*
X73823Y-73296D01*
X73790Y-73330D01*
X73772Y-73373D01*
X73772Y-73420D01*
X73772Y-73444D01*
X73695Y-73444D01*
X73655Y-73404D01*
X73655Y-73082D01*
X73663Y-73079D01*
X73696Y-73045D01*
X73707Y-73020D01*
X73726Y-73068D01*
X73771Y-73112D01*
X73829Y-73136D01*
X73879Y-73136D01*
X73919Y-73097D01*
X73919Y-72841D01*
X73860Y-72841D01*
X73860Y-72565D01*
X73919Y-72565D01*
X73919Y-72538D01*
X74037Y-72538D01*
X74037Y-72565D01*
X74214Y-72565D01*
X74253Y-72526D01*
X74253Y-72459D01*
X74253Y-72396D01*
X74229Y-72338D01*
X74185Y-72294D01*
X74154Y-72281D01*
X74173Y-72235D01*
X74173Y-72173D01*
X74173Y-71850D01*
X74133Y-71811D01*
X73385Y-71811D01*
X73385Y-71818D01*
X73070Y-71818D01*
X73070Y-71811D01*
X72322Y-71811D01*
X72283Y-71850D01*
X72283Y-72173D01*
X72283Y-72235D01*
X72307Y-72293D01*
X72327Y-72313D01*
X72293Y-72327D01*
X72260Y-72361D01*
X72242Y-72404D01*
X72242Y-72451D01*
X72242Y-72526D01*
X72086Y-72526D01*
X72086Y-72351D01*
X72086Y-72272D01*
X72086Y-72018D01*
X72086Y-71939D01*
X72062Y-71881D01*
X72017Y-71837D01*
X71959Y-71813D01*
X71897Y-71813D01*
X71830Y-71813D01*
X71791Y-71852D01*
X71791Y-72058D01*
X72046Y-72058D01*
X72086Y-72018D01*
X72086Y-72272D01*
X72046Y-72233D01*
X71791Y-72233D01*
X71791Y-72438D01*
X71830Y-72478D01*
X71897Y-72478D01*
X71959Y-72478D01*
X72017Y-72454D01*
X72062Y-72409D01*
X72086Y-72351D01*
X72086Y-72526D01*
X71981Y-72526D01*
X71913Y-72539D01*
X71856Y-72578D01*
X71528Y-72906D01*
X71516Y-72924D01*
X71516Y-72438D01*
X71516Y-72233D01*
X71516Y-72058D01*
X71516Y-71852D01*
X71476Y-71813D01*
X71409Y-71813D01*
X71347Y-71813D01*
X71289Y-71837D01*
X71245Y-71881D01*
X71221Y-71939D01*
X71221Y-72018D01*
X71260Y-72058D01*
X71516Y-72058D01*
X71516Y-72233D01*
X71260Y-72233D01*
X71221Y-72272D01*
X71221Y-72351D01*
X71245Y-72409D01*
X71289Y-72454D01*
X71347Y-72478D01*
X71409Y-72478D01*
X71476Y-72478D01*
X71516Y-72438D01*
X71516Y-72924D01*
X71489Y-72963D01*
X71476Y-73031D01*
X71476Y-73290D01*
X71461Y-73296D01*
X71428Y-73330D01*
X71410Y-73373D01*
X71410Y-73420D01*
X71410Y-73870D01*
X71428Y-73913D01*
X71461Y-73947D01*
X71505Y-73965D01*
X71552Y-73965D01*
X71802Y-73965D01*
X71845Y-73947D01*
X71878Y-73913D01*
X71896Y-73870D01*
X71896Y-73823D01*
X71896Y-73373D01*
X71878Y-73330D01*
X71845Y-73296D01*
X71830Y-73290D01*
X71830Y-73104D01*
X72054Y-72880D01*
X72242Y-72880D01*
X72242Y-73002D01*
X72260Y-73045D01*
X72293Y-73079D01*
X72336Y-73097D01*
X72383Y-73097D01*
X72619Y-73097D01*
X72663Y-73079D01*
X72696Y-73045D01*
X72707Y-73020D01*
X72726Y-73068D01*
X72771Y-73112D01*
X72829Y-73136D01*
X72879Y-73136D01*
X72919Y-73097D01*
X72919Y-72841D01*
X72860Y-72841D01*
X72860Y-72565D01*
X72919Y-72565D01*
X72919Y-72538D01*
X73037Y-72538D01*
X73037Y-72565D01*
X73096Y-72565D01*
X73096Y-72841D01*
X73037Y-72841D01*
X73037Y-73097D01*
X73076Y-73136D01*
X73127Y-73136D01*
X73185Y-73112D01*
X73229Y-73068D01*
X73249Y-73020D01*
X73260Y-73045D01*
X73293Y-73079D01*
X73301Y-73082D01*
X73301Y-73478D01*
X73314Y-73546D01*
X73353Y-73603D01*
X73496Y-73747D01*
X73554Y-73785D01*
X73554Y-73785D01*
X73622Y-73799D01*
X73772Y-73799D01*
X73772Y-73870D01*
X73790Y-73913D01*
X73823Y-73947D01*
X73867Y-73965D01*
X73914Y-73965D01*
X74164Y-73965D01*
X74207Y-73947D01*
X74240Y-73913D01*
X74258Y-73870D01*
X74258Y-74238D01*
X74231Y-74265D01*
X74213Y-74309D01*
X74213Y-74330D01*
X74076Y-74330D01*
X74046Y-74257D01*
X73970Y-74182D01*
X73872Y-74141D01*
X73765Y-74141D01*
X73667Y-74182D01*
X73591Y-74257D01*
X73550Y-74355D01*
X73550Y-74462D01*
X73591Y-74561D01*
X73666Y-74636D01*
X73765Y-74677D01*
X73871Y-74677D01*
X73874Y-74676D01*
X73917Y-74685D01*
X74213Y-74685D01*
X74213Y-74706D01*
X74231Y-74749D01*
X74264Y-74783D01*
X74307Y-74800D01*
X74354Y-74800D01*
X74747Y-74800D01*
X75019Y-75073D01*
X75019Y-75239D01*
X75014Y-75227D01*
X74970Y-75183D01*
X74912Y-75159D01*
X74849Y-75159D01*
X74783Y-75159D01*
X74743Y-75199D01*
X74743Y-75404D01*
X74771Y-75404D01*
X74771Y-75579D01*
X74743Y-75579D01*
X74743Y-75785D01*
X74783Y-75824D01*
X74849Y-75824D01*
X74912Y-75824D01*
X74970Y-75800D01*
X75014Y-75756D01*
X75019Y-75744D01*
X75019Y-76107D01*
X74926Y-76200D01*
X74700Y-76200D01*
X74657Y-76218D01*
X74624Y-76251D01*
X74606Y-76295D01*
X74588Y-76251D01*
X74555Y-76218D01*
X74511Y-76200D01*
X74468Y-76200D01*
X74468Y-75785D01*
X74468Y-75579D01*
X74468Y-75404D01*
X74468Y-75199D01*
X74429Y-75159D01*
X74362Y-75159D01*
X74299Y-75159D01*
X74242Y-75183D01*
X74197Y-75227D01*
X74173Y-75285D01*
X74173Y-75365D01*
X74213Y-75404D01*
X74468Y-75404D01*
X74468Y-75579D01*
X74213Y-75579D01*
X74173Y-75618D01*
X74173Y-75698D01*
X74197Y-75756D01*
X74242Y-75800D01*
X74299Y-75824D01*
X74362Y-75824D01*
X74429Y-75824D01*
X74468Y-75785D01*
X74468Y-76200D01*
X74464Y-76200D01*
X74169Y-76200D01*
X74126Y-76218D01*
X74092Y-76251D01*
X74074Y-76295D01*
X74074Y-76342D01*
X74074Y-76397D01*
X73425Y-76397D01*
X73425Y-75186D01*
X73425Y-74997D01*
X73425Y-74603D01*
X73425Y-74414D01*
X73401Y-74356D01*
X73356Y-74312D01*
X73298Y-74288D01*
X73236Y-74288D01*
X73031Y-74288D01*
X72992Y-74327D01*
X72992Y-74643D01*
X73385Y-74643D01*
X73425Y-74603D01*
X73425Y-74997D01*
X73385Y-74958D01*
X72992Y-74958D01*
X72992Y-75273D01*
X73031Y-75312D01*
X73236Y-75312D01*
X73298Y-75312D01*
X73356Y-75288D01*
X73401Y-75244D01*
X73425Y-75186D01*
X73425Y-76397D01*
X73385Y-76397D01*
X73385Y-76002D01*
X73367Y-75959D01*
X73334Y-75925D01*
X73291Y-75907D01*
X73244Y-75907D01*
X72723Y-75907D01*
X72723Y-73878D01*
X72723Y-73815D01*
X72723Y-73773D01*
X72723Y-73470D01*
X72723Y-73428D01*
X72723Y-73365D01*
X72699Y-73307D01*
X72655Y-73263D01*
X72597Y-73239D01*
X72542Y-73239D01*
X72503Y-73278D01*
X72503Y-73509D01*
X72684Y-73509D01*
X72723Y-73470D01*
X72723Y-73773D01*
X72684Y-73734D01*
X72503Y-73734D01*
X72503Y-73965D01*
X72542Y-74004D01*
X72597Y-74004D01*
X72655Y-73980D01*
X72699Y-73936D01*
X72723Y-73878D01*
X72723Y-75907D01*
X72677Y-75907D01*
X72677Y-75273D01*
X72677Y-74958D01*
X72677Y-74643D01*
X72677Y-74327D01*
X72637Y-74288D01*
X72432Y-74288D01*
X72378Y-74288D01*
X72378Y-73965D01*
X72378Y-73734D01*
X72378Y-73509D01*
X72378Y-73278D01*
X72339Y-73239D01*
X72284Y-73239D01*
X72226Y-73263D01*
X72182Y-73307D01*
X72158Y-73365D01*
X72158Y-73428D01*
X72158Y-73470D01*
X72197Y-73509D01*
X72378Y-73509D01*
X72378Y-73734D01*
X72197Y-73734D01*
X72158Y-73773D01*
X72158Y-73815D01*
X72158Y-73878D01*
X72182Y-73936D01*
X72226Y-73980D01*
X72284Y-74004D01*
X72339Y-74004D01*
X72378Y-73965D01*
X72378Y-74288D01*
X72370Y-74288D01*
X72312Y-74312D01*
X72268Y-74356D01*
X72244Y-74414D01*
X72244Y-74603D01*
X72283Y-74643D01*
X72677Y-74643D01*
X72677Y-74958D01*
X72283Y-74958D01*
X72244Y-74997D01*
X72244Y-75186D01*
X72268Y-75244D01*
X72312Y-75288D01*
X72370Y-75312D01*
X72432Y-75312D01*
X72637Y-75312D01*
X72677Y-75273D01*
X72677Y-75907D01*
X72378Y-75907D01*
X72334Y-75925D01*
X72301Y-75959D01*
X72283Y-76002D01*
X72283Y-76049D01*
X72283Y-76758D01*
X72301Y-76801D01*
X72334Y-76835D01*
X72378Y-76853D01*
X72425Y-76853D01*
X73291Y-76853D01*
X73334Y-76835D01*
X73367Y-76801D01*
X73385Y-76758D01*
X73385Y-76751D01*
X73981Y-76751D01*
X73496Y-77236D01*
X73458Y-77294D01*
X73444Y-77362D01*
X73444Y-78568D01*
X73093Y-78919D01*
X72950Y-78919D01*
X72947Y-78911D01*
X72914Y-78878D01*
X72871Y-78860D01*
X72824Y-78860D01*
X72273Y-78860D01*
X72229Y-78878D01*
X72196Y-78911D01*
X72178Y-78954D01*
X72178Y-79001D01*
X72178Y-79237D01*
X72196Y-79281D01*
X72229Y-79314D01*
X72273Y-79332D01*
X72320Y-79332D01*
X72871Y-79332D01*
X72914Y-79314D01*
X72947Y-79281D01*
X72950Y-79273D01*
X73167Y-79273D01*
X73235Y-79260D01*
X73235Y-79260D01*
X73292Y-79221D01*
X73747Y-78767D01*
X73785Y-78709D01*
X73785Y-78709D01*
X73799Y-78641D01*
X73799Y-77435D01*
X74285Y-76948D01*
X74511Y-76948D01*
X74555Y-76930D01*
X74588Y-76897D01*
X74606Y-76854D01*
X74606Y-76854D01*
X74624Y-76897D01*
X74657Y-76930D01*
X74679Y-76939D01*
X74546Y-77072D01*
X74508Y-77130D01*
X74494Y-77198D01*
X74494Y-77360D01*
X74373Y-77360D01*
X74329Y-77378D01*
X74296Y-77411D01*
X74278Y-77454D01*
X74278Y-77501D01*
X74278Y-77737D01*
X74296Y-77781D01*
X74329Y-77814D01*
X74355Y-77825D01*
X74307Y-77844D01*
X74263Y-77889D01*
X74239Y-77947D01*
X74239Y-77998D01*
X74278Y-78037D01*
X74534Y-78037D01*
X74534Y-77978D01*
X74809Y-77978D01*
X74809Y-78037D01*
X75065Y-78037D01*
X75105Y-77998D01*
X75105Y-77947D01*
X75081Y-77889D01*
X75036Y-77844D01*
X74988Y-77825D01*
X75014Y-77814D01*
X75047Y-77781D01*
X75065Y-77737D01*
X75065Y-77690D01*
X75065Y-77454D01*
X75047Y-77411D01*
X75014Y-77378D01*
X74971Y-77360D01*
X74924Y-77360D01*
X74849Y-77360D01*
X74849Y-77271D01*
X74997Y-77123D01*
X75035Y-77065D01*
X75049Y-76998D01*
X75049Y-76946D01*
X75086Y-76930D01*
X75119Y-76897D01*
X75137Y-76854D01*
X75137Y-76807D01*
X75137Y-76490D01*
X75322Y-76306D01*
X75360Y-76248D01*
X75374Y-76181D01*
X75374Y-80964D01*
X75105Y-80964D01*
X75105Y-79245D01*
X75105Y-79194D01*
X75105Y-78998D01*
X75105Y-78947D01*
X75081Y-78889D01*
X75038Y-78846D01*
X75081Y-78803D01*
X75105Y-78745D01*
X75105Y-78694D01*
X75105Y-78498D01*
X75105Y-78447D01*
X75081Y-78389D01*
X75038Y-78346D01*
X75081Y-78303D01*
X75105Y-78245D01*
X75105Y-78194D01*
X75065Y-78155D01*
X74809Y-78155D01*
X74809Y-78332D01*
X74823Y-78346D01*
X74809Y-78360D01*
X74809Y-78537D01*
X75065Y-78537D01*
X75105Y-78498D01*
X75105Y-78694D01*
X75065Y-78655D01*
X74809Y-78655D01*
X74809Y-78832D01*
X74823Y-78846D01*
X74809Y-78860D01*
X74809Y-79037D01*
X75065Y-79037D01*
X75105Y-78998D01*
X75105Y-79194D01*
X75065Y-79155D01*
X74809Y-79155D01*
X74809Y-79332D01*
X74849Y-79371D01*
X74916Y-79371D01*
X74978Y-79371D01*
X75036Y-79347D01*
X75081Y-79303D01*
X75105Y-79245D01*
X75105Y-80964D01*
X74534Y-80964D01*
X74534Y-79332D01*
X74534Y-79155D01*
X74534Y-79037D01*
X74534Y-78860D01*
X74520Y-78846D01*
X74534Y-78832D01*
X74534Y-78655D01*
X74534Y-78537D01*
X74534Y-78360D01*
X74520Y-78346D01*
X74534Y-78332D01*
X74534Y-78155D01*
X74278Y-78155D01*
X74239Y-78194D01*
X74239Y-78245D01*
X74263Y-78303D01*
X74305Y-78346D01*
X74263Y-78389D01*
X74239Y-78447D01*
X74239Y-78498D01*
X74278Y-78537D01*
X74534Y-78537D01*
X74534Y-78655D01*
X74278Y-78655D01*
X74239Y-78694D01*
X74239Y-78745D01*
X74263Y-78803D01*
X74305Y-78846D01*
X74263Y-78889D01*
X74239Y-78947D01*
X74239Y-78998D01*
X74278Y-79037D01*
X74534Y-79037D01*
X74534Y-79155D01*
X74278Y-79155D01*
X74239Y-79194D01*
X74239Y-79245D01*
X74263Y-79303D01*
X74307Y-79347D01*
X74365Y-79371D01*
X74427Y-79371D01*
X74494Y-79371D01*
X74534Y-79332D01*
X74534Y-80964D01*
X74446Y-80964D01*
X74446Y-80227D01*
X74446Y-80164D01*
X74446Y-80098D01*
X74446Y-79744D01*
X74446Y-79677D01*
X74446Y-79614D01*
X74422Y-79557D01*
X74378Y-79512D01*
X74320Y-79488D01*
X74241Y-79488D01*
X74201Y-79528D01*
X74201Y-79783D01*
X74407Y-79783D01*
X74446Y-79744D01*
X74446Y-80098D01*
X74407Y-80058D01*
X74201Y-80058D01*
X74201Y-80314D01*
X74241Y-80353D01*
X74320Y-80353D01*
X74378Y-80329D01*
X74422Y-80285D01*
X74446Y-80227D01*
X74446Y-80964D01*
X74026Y-80964D01*
X74026Y-80314D01*
X74026Y-80058D01*
X74026Y-79783D01*
X74026Y-79528D01*
X73987Y-79488D01*
X73907Y-79488D01*
X73849Y-79512D01*
X73805Y-79557D01*
X73781Y-79614D01*
X73781Y-79677D01*
X73781Y-79744D01*
X73821Y-79783D01*
X74026Y-79783D01*
X74026Y-80058D01*
X73821Y-80058D01*
X73781Y-80098D01*
X73781Y-80164D01*
X73781Y-80227D01*
X73805Y-80285D01*
X73849Y-80329D01*
X73907Y-80353D01*
X73987Y-80353D01*
X74026Y-80314D01*
X74026Y-80964D01*
X73423Y-80964D01*
X73423Y-80219D01*
X73423Y-80172D01*
X73423Y-79622D01*
X73405Y-79579D01*
X73371Y-79546D01*
X73328Y-79528D01*
X73281Y-79528D01*
X72931Y-79528D01*
X72888Y-79546D01*
X72854Y-79579D01*
X72836Y-79622D01*
X72836Y-79669D01*
X72836Y-79744D01*
X72612Y-79744D01*
X72512Y-79643D01*
X72512Y-79572D01*
X72471Y-79474D01*
X72396Y-79398D01*
X72297Y-79357D01*
X72226Y-79357D01*
X72125Y-79257D01*
X72125Y-78911D01*
X72226Y-78811D01*
X72229Y-78814D01*
X72273Y-78832D01*
X72320Y-78832D01*
X72871Y-78832D01*
X72914Y-78814D01*
X72947Y-78781D01*
X72965Y-78737D01*
X72965Y-78690D01*
X72965Y-78454D01*
X72947Y-78411D01*
X72914Y-78378D01*
X72888Y-78367D01*
X72936Y-78347D01*
X72981Y-78303D01*
X73005Y-78245D01*
X73005Y-78194D01*
X73005Y-77998D01*
X73005Y-77947D01*
X72981Y-77889D01*
X72938Y-77846D01*
X72981Y-77803D01*
X73005Y-77745D01*
X73005Y-77694D01*
X73005Y-77498D01*
X73005Y-77447D01*
X72981Y-77389D01*
X72936Y-77344D01*
X72878Y-77320D01*
X72816Y-77320D01*
X72749Y-77320D01*
X72709Y-77360D01*
X72709Y-77537D01*
X72965Y-77537D01*
X73005Y-77498D01*
X73005Y-77694D01*
X72965Y-77655D01*
X72709Y-77655D01*
X72709Y-77832D01*
X72723Y-77846D01*
X72709Y-77860D01*
X72709Y-78037D01*
X72965Y-78037D01*
X73005Y-77998D01*
X73005Y-78194D01*
X72965Y-78155D01*
X72709Y-78155D01*
X72709Y-78214D01*
X72434Y-78214D01*
X72434Y-78155D01*
X72434Y-78037D01*
X72434Y-77860D01*
X72420Y-77846D01*
X72434Y-77832D01*
X72434Y-77655D01*
X72434Y-77537D01*
X72434Y-77360D01*
X72394Y-77320D01*
X72327Y-77320D01*
X72265Y-77320D01*
X72207Y-77344D01*
X72163Y-77389D01*
X72139Y-77447D01*
X72139Y-77498D01*
X72178Y-77537D01*
X72434Y-77537D01*
X72434Y-77655D01*
X72178Y-77655D01*
X72139Y-77694D01*
X72139Y-77745D01*
X72163Y-77803D01*
X72205Y-77846D01*
X72163Y-77889D01*
X72139Y-77947D01*
X72139Y-77998D01*
X72178Y-78037D01*
X72434Y-78037D01*
X72434Y-78155D01*
X72178Y-78155D01*
X72139Y-78194D01*
X72139Y-78245D01*
X72163Y-78303D01*
X72207Y-78347D01*
X72255Y-78367D01*
X72229Y-78378D01*
X72196Y-78411D01*
X72193Y-78419D01*
X72190Y-78419D01*
X72123Y-78432D01*
X72065Y-78471D01*
X71823Y-78713D01*
X71785Y-78770D01*
X71771Y-78838D01*
X71771Y-79330D01*
X71785Y-79398D01*
X71823Y-79455D01*
X71975Y-79608D01*
X71975Y-79679D01*
X72016Y-79777D01*
X72092Y-79853D01*
X72190Y-79894D01*
X72261Y-79894D01*
X72414Y-80046D01*
X72471Y-80084D01*
X72471Y-80084D01*
X72539Y-80098D01*
X72836Y-80098D01*
X72836Y-80219D01*
X72854Y-80263D01*
X72888Y-80296D01*
X72931Y-80314D01*
X72978Y-80314D01*
X73328Y-80314D01*
X73371Y-80296D01*
X73405Y-80263D01*
X73423Y-80219D01*
X73423Y-80964D01*
X71645Y-80964D01*
X71645Y-78198D01*
X71532Y-77923D01*
X71321Y-77712D01*
X71047Y-77598D01*
X70854Y-77598D01*
X70854Y-72203D01*
X70854Y-72149D01*
X70854Y-71945D01*
X70854Y-71890D01*
X70830Y-71833D01*
X70786Y-71788D01*
X70728Y-71764D01*
X70666Y-71764D01*
X70624Y-71764D01*
X70584Y-71804D01*
X70584Y-71984D01*
X70815Y-71984D01*
X70854Y-71945D01*
X70854Y-72149D01*
X70815Y-72109D01*
X70584Y-72109D01*
X70584Y-72290D01*
X70624Y-72329D01*
X70666Y-72329D01*
X70728Y-72329D01*
X70786Y-72305D01*
X70830Y-72261D01*
X70854Y-72203D01*
X70854Y-77598D01*
X70754Y-77598D01*
X70754Y-73878D01*
X70754Y-73815D01*
X70754Y-73773D01*
X70754Y-73470D01*
X70754Y-73428D01*
X70754Y-73365D01*
X70730Y-73307D01*
X70686Y-73263D01*
X70628Y-73239D01*
X70574Y-73239D01*
X70534Y-73278D01*
X70534Y-73509D01*
X70715Y-73509D01*
X70754Y-73470D01*
X70754Y-73773D01*
X70715Y-73734D01*
X70534Y-73734D01*
X70534Y-73965D01*
X70574Y-74004D01*
X70628Y-74004D01*
X70686Y-73980D01*
X70730Y-73936D01*
X70754Y-73878D01*
X70754Y-77598D01*
X70749Y-77598D01*
X70474Y-77711D01*
X70409Y-77776D01*
X70409Y-73965D01*
X70409Y-73734D01*
X70409Y-73509D01*
X70409Y-73278D01*
X70370Y-73239D01*
X70359Y-73239D01*
X70359Y-72290D01*
X70359Y-72109D01*
X70359Y-71984D01*
X70359Y-71804D01*
X70320Y-71764D01*
X70278Y-71764D01*
X70216Y-71764D01*
X70158Y-71788D01*
X70113Y-71833D01*
X70089Y-71890D01*
X70089Y-71945D01*
X70129Y-71984D01*
X70359Y-71984D01*
X70359Y-72109D01*
X70129Y-72109D01*
X70089Y-72149D01*
X70089Y-72203D01*
X70113Y-72261D01*
X70158Y-72305D01*
X70216Y-72329D01*
X70278Y-72329D01*
X70320Y-72329D01*
X70359Y-72290D01*
X70359Y-73239D01*
X70316Y-73239D01*
X70258Y-73263D01*
X70213Y-73307D01*
X70189Y-73365D01*
X70189Y-73428D01*
X70189Y-73470D01*
X70229Y-73509D01*
X70409Y-73509D01*
X70409Y-73734D01*
X70229Y-73734D01*
X70189Y-73773D01*
X70189Y-73815D01*
X70189Y-73878D01*
X70213Y-73936D01*
X70258Y-73980D01*
X70316Y-74004D01*
X70370Y-74004D01*
X70409Y-73965D01*
X70409Y-77776D01*
X70263Y-77922D01*
X70196Y-78083D01*
X70196Y-76181D01*
X70196Y-75080D01*
X70172Y-74960D01*
X70120Y-74881D01*
X70120Y-74752D01*
X70048Y-74579D01*
X69928Y-74458D01*
X69928Y-73870D01*
X69928Y-73823D01*
X69928Y-73373D01*
X69923Y-73361D01*
X69923Y-73010D01*
X69923Y-72947D01*
X69923Y-72880D01*
X69883Y-72841D01*
X69706Y-72841D01*
X69706Y-73097D01*
X69746Y-73136D01*
X69796Y-73136D01*
X69854Y-73112D01*
X69899Y-73068D01*
X69923Y-73010D01*
X69923Y-73361D01*
X69910Y-73330D01*
X69876Y-73296D01*
X69833Y-73278D01*
X69786Y-73278D01*
X69536Y-73278D01*
X69493Y-73296D01*
X69459Y-73330D01*
X69441Y-73373D01*
X69441Y-73420D01*
X69441Y-73444D01*
X69364Y-73444D01*
X69324Y-73404D01*
X69324Y-73082D01*
X69332Y-73079D01*
X69365Y-73045D01*
X69376Y-73020D01*
X69396Y-73068D01*
X69440Y-73112D01*
X69498Y-73136D01*
X69549Y-73136D01*
X69588Y-73097D01*
X69588Y-72841D01*
X69529Y-72841D01*
X69529Y-72565D01*
X69588Y-72565D01*
X69588Y-72538D01*
X69706Y-72538D01*
X69706Y-72565D01*
X69883Y-72565D01*
X69923Y-72526D01*
X69923Y-72459D01*
X69923Y-72396D01*
X69899Y-72338D01*
X69854Y-72294D01*
X69823Y-72281D01*
X69842Y-72235D01*
X69842Y-72173D01*
X69842Y-71850D01*
X69803Y-71811D01*
X69055Y-71811D01*
X69055Y-71818D01*
X68740Y-71818D01*
X68740Y-71811D01*
X67992Y-71811D01*
X67952Y-71850D01*
X67952Y-72173D01*
X67952Y-72235D01*
X67976Y-72293D01*
X67996Y-72313D01*
X67962Y-72327D01*
X67929Y-72361D01*
X67911Y-72404D01*
X67911Y-72451D01*
X67911Y-72526D01*
X67755Y-72526D01*
X67755Y-72351D01*
X67755Y-72272D01*
X67755Y-72018D01*
X67755Y-71939D01*
X67731Y-71881D01*
X67687Y-71837D01*
X67629Y-71813D01*
X67566Y-71813D01*
X67499Y-71813D01*
X67460Y-71852D01*
X67460Y-72058D01*
X67715Y-72058D01*
X67755Y-72018D01*
X67755Y-72272D01*
X67715Y-72233D01*
X67460Y-72233D01*
X67460Y-72438D01*
X67499Y-72478D01*
X67566Y-72478D01*
X67629Y-72478D01*
X67687Y-72454D01*
X67731Y-72409D01*
X67755Y-72351D01*
X67755Y-72526D01*
X67650Y-72526D01*
X67582Y-72539D01*
X67525Y-72578D01*
X67197Y-72906D01*
X67185Y-72924D01*
X67185Y-72438D01*
X67185Y-72233D01*
X67185Y-72058D01*
X67185Y-71852D01*
X67145Y-71813D01*
X67079Y-71813D01*
X67016Y-71813D01*
X66958Y-71837D01*
X66914Y-71881D01*
X66890Y-71939D01*
X66890Y-72018D01*
X66929Y-72058D01*
X67185Y-72058D01*
X67185Y-72233D01*
X66929Y-72233D01*
X66890Y-72272D01*
X66890Y-72351D01*
X66914Y-72409D01*
X66958Y-72454D01*
X67016Y-72478D01*
X67079Y-72478D01*
X67145Y-72478D01*
X67185Y-72438D01*
X67185Y-72924D01*
X67159Y-72963D01*
X67145Y-73031D01*
X67145Y-73290D01*
X67130Y-73296D01*
X67097Y-73330D01*
X67079Y-73373D01*
X67079Y-73420D01*
X67079Y-73870D01*
X67097Y-73913D01*
X67130Y-73947D01*
X67174Y-73965D01*
X67221Y-73965D01*
X67471Y-73965D01*
X67514Y-73947D01*
X67547Y-73913D01*
X67565Y-73870D01*
X67565Y-73823D01*
X67565Y-73373D01*
X67547Y-73330D01*
X67514Y-73296D01*
X67500Y-73290D01*
X67500Y-73104D01*
X67724Y-72880D01*
X67911Y-72880D01*
X67911Y-73002D01*
X67929Y-73045D01*
X67962Y-73079D01*
X68006Y-73097D01*
X68053Y-73097D01*
X68289Y-73097D01*
X68332Y-73079D01*
X68365Y-73045D01*
X68376Y-73020D01*
X68396Y-73068D01*
X68440Y-73112D01*
X68498Y-73136D01*
X68549Y-73136D01*
X68588Y-73097D01*
X68588Y-72841D01*
X68529Y-72841D01*
X68529Y-72565D01*
X68588Y-72565D01*
X68588Y-72538D01*
X68706Y-72538D01*
X68706Y-72565D01*
X68765Y-72565D01*
X68765Y-72841D01*
X68706Y-72841D01*
X68706Y-73097D01*
X68746Y-73136D01*
X68796Y-73136D01*
X68854Y-73112D01*
X68899Y-73068D01*
X68918Y-73020D01*
X68929Y-73045D01*
X68962Y-73079D01*
X68970Y-73082D01*
X68970Y-73478D01*
X68983Y-73546D01*
X69022Y-73603D01*
X69166Y-73747D01*
X69223Y-73785D01*
X69223Y-73785D01*
X69291Y-73799D01*
X69441Y-73799D01*
X69441Y-73870D01*
X69459Y-73913D01*
X69493Y-73947D01*
X69536Y-73965D01*
X69583Y-73965D01*
X69833Y-73965D01*
X69876Y-73947D01*
X69910Y-73913D01*
X69928Y-73870D01*
X69928Y-74458D01*
X69915Y-74446D01*
X69742Y-74374D01*
X69554Y-74373D01*
X69380Y-74445D01*
X69247Y-74578D01*
X69175Y-74752D01*
X69175Y-74940D01*
X69246Y-75113D01*
X69379Y-75246D01*
X69553Y-75318D01*
X69566Y-75318D01*
X69566Y-75624D01*
X69548Y-75579D01*
X69415Y-75446D01*
X69242Y-75374D01*
X69120Y-75373D01*
X69120Y-74752D01*
X69048Y-74579D01*
X68915Y-74446D01*
X68742Y-74374D01*
X68554Y-74373D01*
X68392Y-74440D01*
X68392Y-73878D01*
X68392Y-73815D01*
X68392Y-73773D01*
X68392Y-73470D01*
X68392Y-73428D01*
X68392Y-73365D01*
X68368Y-73307D01*
X68324Y-73263D01*
X68266Y-73239D01*
X68212Y-73239D01*
X68172Y-73278D01*
X68172Y-73509D01*
X68353Y-73509D01*
X68392Y-73470D01*
X68392Y-73773D01*
X68353Y-73734D01*
X68172Y-73734D01*
X68172Y-73965D01*
X68212Y-74004D01*
X68266Y-74004D01*
X68324Y-73980D01*
X68368Y-73936D01*
X68392Y-73878D01*
X68392Y-74440D01*
X68380Y-74445D01*
X68247Y-74578D01*
X68175Y-74752D01*
X68175Y-74940D01*
X68246Y-75113D01*
X68379Y-75246D01*
X68553Y-75318D01*
X68741Y-75318D01*
X68914Y-75247D01*
X69047Y-75114D01*
X69119Y-74940D01*
X69120Y-74752D01*
X69120Y-75373D01*
X69054Y-75373D01*
X68880Y-75445D01*
X68747Y-75578D01*
X68675Y-75752D01*
X68675Y-75940D01*
X68746Y-76113D01*
X68879Y-76246D01*
X68911Y-76259D01*
X68047Y-76259D01*
X68047Y-73965D01*
X68047Y-73734D01*
X68047Y-73509D01*
X68047Y-73278D01*
X68008Y-73239D01*
X67953Y-73239D01*
X67896Y-73263D01*
X67851Y-73307D01*
X67827Y-73365D01*
X67827Y-73428D01*
X67827Y-73470D01*
X67867Y-73509D01*
X68047Y-73509D01*
X68047Y-73734D01*
X67867Y-73734D01*
X67827Y-73773D01*
X67827Y-73815D01*
X67827Y-73878D01*
X67851Y-73936D01*
X67896Y-73980D01*
X67953Y-74004D01*
X68008Y-74004D01*
X68047Y-73965D01*
X68047Y-76259D01*
X67846Y-76259D01*
X67744Y-76157D01*
X67642Y-76089D01*
X67522Y-76065D01*
X66524Y-76065D01*
X66524Y-72203D01*
X66524Y-72149D01*
X66524Y-71945D01*
X66524Y-71890D01*
X66500Y-71833D01*
X66455Y-71788D01*
X66398Y-71764D01*
X66335Y-71764D01*
X66293Y-71764D01*
X66254Y-71804D01*
X66254Y-71984D01*
X66484Y-71984D01*
X66524Y-71945D01*
X66524Y-72149D01*
X66484Y-72109D01*
X66254Y-72109D01*
X66254Y-72290D01*
X66293Y-72329D01*
X66335Y-72329D01*
X66398Y-72329D01*
X66455Y-72305D01*
X66500Y-72261D01*
X66524Y-72203D01*
X66524Y-76065D01*
X66424Y-76065D01*
X66424Y-73878D01*
X66424Y-73815D01*
X66424Y-73773D01*
X66424Y-73470D01*
X66424Y-73428D01*
X66424Y-73365D01*
X66400Y-73307D01*
X66355Y-73263D01*
X66298Y-73239D01*
X66243Y-73239D01*
X66204Y-73278D01*
X66204Y-73509D01*
X66384Y-73509D01*
X66424Y-73470D01*
X66424Y-73773D01*
X66384Y-73734D01*
X66204Y-73734D01*
X66204Y-73965D01*
X66243Y-74004D01*
X66298Y-74004D01*
X66355Y-73980D01*
X66400Y-73936D01*
X66424Y-73878D01*
X66424Y-76065D01*
X66079Y-76065D01*
X66079Y-73965D01*
X66079Y-73734D01*
X66079Y-73509D01*
X66079Y-73278D01*
X66039Y-73239D01*
X66029Y-73239D01*
X66029Y-72290D01*
X66029Y-72109D01*
X66029Y-71984D01*
X66029Y-71804D01*
X65989Y-71764D01*
X65948Y-71764D01*
X65885Y-71764D01*
X65827Y-71788D01*
X65783Y-71833D01*
X65759Y-71890D01*
X65759Y-71945D01*
X65798Y-71984D01*
X66029Y-71984D01*
X66029Y-72109D01*
X65798Y-72109D01*
X65759Y-72149D01*
X65759Y-72203D01*
X65783Y-72261D01*
X65827Y-72305D01*
X65885Y-72329D01*
X65948Y-72329D01*
X65989Y-72329D01*
X66029Y-72290D01*
X66029Y-73239D01*
X65985Y-73239D01*
X65927Y-73263D01*
X65883Y-73307D01*
X65859Y-73365D01*
X65859Y-73428D01*
X65859Y-73470D01*
X65898Y-73509D01*
X66079Y-73509D01*
X66079Y-73734D01*
X65898Y-73734D01*
X65859Y-73773D01*
X65859Y-73815D01*
X65859Y-73878D01*
X65883Y-73936D01*
X65927Y-73980D01*
X65985Y-74004D01*
X66039Y-74004D01*
X66079Y-73965D01*
X66079Y-76065D01*
X65597Y-76065D01*
X65597Y-73870D01*
X65597Y-73823D01*
X65597Y-73373D01*
X65592Y-73361D01*
X65592Y-73010D01*
X65592Y-72947D01*
X65592Y-72880D01*
X65553Y-72841D01*
X65375Y-72841D01*
X65375Y-73097D01*
X65415Y-73136D01*
X65466Y-73136D01*
X65524Y-73112D01*
X65568Y-73068D01*
X65592Y-73010D01*
X65592Y-73361D01*
X65579Y-73330D01*
X65546Y-73296D01*
X65502Y-73278D01*
X65455Y-73278D01*
X65205Y-73278D01*
X65162Y-73296D01*
X65129Y-73330D01*
X65111Y-73373D01*
X65111Y-73420D01*
X65111Y-73444D01*
X65034Y-73444D01*
X64994Y-73404D01*
X64994Y-73082D01*
X65001Y-73079D01*
X65035Y-73045D01*
X65045Y-73020D01*
X65065Y-73068D01*
X65109Y-73112D01*
X65167Y-73136D01*
X65218Y-73136D01*
X65257Y-73097D01*
X65257Y-72841D01*
X65198Y-72841D01*
X65198Y-72565D01*
X65257Y-72565D01*
X65257Y-72538D01*
X65375Y-72538D01*
X65375Y-72565D01*
X65553Y-72565D01*
X65592Y-72526D01*
X65592Y-72459D01*
X65592Y-72396D01*
X65568Y-72338D01*
X65524Y-72294D01*
X65492Y-72281D01*
X65511Y-72235D01*
X65511Y-72173D01*
X65511Y-71850D01*
X65472Y-71811D01*
X64724Y-71811D01*
X64724Y-71818D01*
X64409Y-71818D01*
X64409Y-71811D01*
X63661Y-71811D01*
X63621Y-71850D01*
X63621Y-72173D01*
X63621Y-72235D01*
X63645Y-72293D01*
X63666Y-72313D01*
X63632Y-72327D01*
X63598Y-72361D01*
X63580Y-72404D01*
X63580Y-72451D01*
X63580Y-72526D01*
X63424Y-72526D01*
X63424Y-72351D01*
X63424Y-72272D01*
X63424Y-72018D01*
X63424Y-71939D01*
X63400Y-71881D01*
X63356Y-71837D01*
X63298Y-71813D01*
X63235Y-71813D01*
X63168Y-71813D01*
X63129Y-71852D01*
X63129Y-72058D01*
X63385Y-72058D01*
X63424Y-72018D01*
X63424Y-72272D01*
X63385Y-72233D01*
X63129Y-72233D01*
X63129Y-72438D01*
X63168Y-72478D01*
X63235Y-72478D01*
X63298Y-72478D01*
X63356Y-72454D01*
X63400Y-72409D01*
X63424Y-72351D01*
X63424Y-72526D01*
X63320Y-72526D01*
X63252Y-72539D01*
X63194Y-72578D01*
X62866Y-72906D01*
X62854Y-72924D01*
X62854Y-72438D01*
X62854Y-72233D01*
X62854Y-72058D01*
X62854Y-71852D01*
X62815Y-71813D01*
X62748Y-71813D01*
X62685Y-71813D01*
X62627Y-71837D01*
X62583Y-71881D01*
X62559Y-71939D01*
X62559Y-72018D01*
X62599Y-72058D01*
X62854Y-72058D01*
X62854Y-72233D01*
X62599Y-72233D01*
X62559Y-72272D01*
X62559Y-72351D01*
X62583Y-72409D01*
X62627Y-72454D01*
X62685Y-72478D01*
X62748Y-72478D01*
X62815Y-72478D01*
X62854Y-72438D01*
X62854Y-72924D01*
X62828Y-72963D01*
X62814Y-73031D01*
X62814Y-73290D01*
X62800Y-73296D01*
X62766Y-73330D01*
X62749Y-73373D01*
X62749Y-73420D01*
X62749Y-73870D01*
X62766Y-73913D01*
X62800Y-73947D01*
X62843Y-73965D01*
X62890Y-73965D01*
X63140Y-73965D01*
X63184Y-73947D01*
X63217Y-73913D01*
X63235Y-73870D01*
X63235Y-73823D01*
X63235Y-73373D01*
X63217Y-73330D01*
X63184Y-73296D01*
X63169Y-73290D01*
X63169Y-73104D01*
X63393Y-72880D01*
X63580Y-72880D01*
X63580Y-73002D01*
X63598Y-73045D01*
X63632Y-73079D01*
X63675Y-73097D01*
X63722Y-73097D01*
X63958Y-73097D01*
X64001Y-73079D01*
X64035Y-73045D01*
X64045Y-73020D01*
X64065Y-73068D01*
X64109Y-73112D01*
X64167Y-73136D01*
X64218Y-73136D01*
X64257Y-73097D01*
X64257Y-72841D01*
X64198Y-72841D01*
X64198Y-72565D01*
X64257Y-72565D01*
X64257Y-72538D01*
X64375Y-72538D01*
X64375Y-72565D01*
X64434Y-72565D01*
X64434Y-72841D01*
X64375Y-72841D01*
X64375Y-73097D01*
X64415Y-73136D01*
X64466Y-73136D01*
X64524Y-73112D01*
X64568Y-73068D01*
X64588Y-73020D01*
X64598Y-73045D01*
X64632Y-73079D01*
X64639Y-73082D01*
X64639Y-73478D01*
X64653Y-73546D01*
X64691Y-73603D01*
X64835Y-73747D01*
X64892Y-73785D01*
X64892Y-73785D01*
X64960Y-73799D01*
X65111Y-73799D01*
X65111Y-73870D01*
X65129Y-73913D01*
X65162Y-73947D01*
X65205Y-73965D01*
X65252Y-73965D01*
X65502Y-73965D01*
X65546Y-73947D01*
X65579Y-73913D01*
X65597Y-73870D01*
X65597Y-76065D01*
X65551Y-76065D01*
X65551Y-75186D01*
X65551Y-74997D01*
X65551Y-74603D01*
X65551Y-74414D01*
X65527Y-74356D01*
X65482Y-74312D01*
X65424Y-74288D01*
X65362Y-74288D01*
X65157Y-74288D01*
X65118Y-74327D01*
X65118Y-74643D01*
X65511Y-74643D01*
X65551Y-74603D01*
X65551Y-74997D01*
X65511Y-74958D01*
X65118Y-74958D01*
X65118Y-75273D01*
X65157Y-75312D01*
X65362Y-75312D01*
X65424Y-75312D01*
X65482Y-75288D01*
X65527Y-75244D01*
X65551Y-75186D01*
X65551Y-76065D01*
X65511Y-76065D01*
X65511Y-76002D01*
X65493Y-75959D01*
X65460Y-75925D01*
X65417Y-75907D01*
X65370Y-75907D01*
X64803Y-75907D01*
X64803Y-75273D01*
X64803Y-74958D01*
X64803Y-74643D01*
X64803Y-74327D01*
X64763Y-74288D01*
X64558Y-74288D01*
X64496Y-74288D01*
X64438Y-74312D01*
X64394Y-74356D01*
X64370Y-74414D01*
X64370Y-74603D01*
X64409Y-74643D01*
X64803Y-74643D01*
X64803Y-74958D01*
X64409Y-74958D01*
X64370Y-74997D01*
X64370Y-75186D01*
X64394Y-75244D01*
X64438Y-75288D01*
X64496Y-75312D01*
X64558Y-75312D01*
X64763Y-75312D01*
X64803Y-75273D01*
X64803Y-75907D01*
X64504Y-75907D01*
X64460Y-75925D01*
X64427Y-75959D01*
X64409Y-76002D01*
X64409Y-76049D01*
X64409Y-76486D01*
X64387Y-76507D01*
X64319Y-76610D01*
X64295Y-76730D01*
X64295Y-77381D01*
X64062Y-77381D01*
X64062Y-73878D01*
X64062Y-73815D01*
X64062Y-73773D01*
X64062Y-73470D01*
X64062Y-73428D01*
X64062Y-73365D01*
X64038Y-73307D01*
X63993Y-73263D01*
X63935Y-73239D01*
X63881Y-73239D01*
X63842Y-73278D01*
X63842Y-73509D01*
X64022Y-73509D01*
X64062Y-73470D01*
X64062Y-73773D01*
X64022Y-73734D01*
X63842Y-73734D01*
X63842Y-73965D01*
X63881Y-74004D01*
X63935Y-74004D01*
X63993Y-73980D01*
X64038Y-73936D01*
X64062Y-73878D01*
X64062Y-77381D01*
X63768Y-77381D01*
X63768Y-76140D01*
X63768Y-76086D01*
X63768Y-75882D01*
X63768Y-75827D01*
X63744Y-75770D01*
X63717Y-75742D01*
X63717Y-73965D01*
X63717Y-73734D01*
X63717Y-73509D01*
X63717Y-73278D01*
X63677Y-73239D01*
X63623Y-73239D01*
X63565Y-73263D01*
X63521Y-73307D01*
X63497Y-73365D01*
X63497Y-73428D01*
X63497Y-73470D01*
X63536Y-73509D01*
X63717Y-73509D01*
X63717Y-73734D01*
X63536Y-73734D01*
X63497Y-73773D01*
X63497Y-73815D01*
X63497Y-73878D01*
X63521Y-73936D01*
X63565Y-73980D01*
X63623Y-74004D01*
X63677Y-74004D01*
X63717Y-73965D01*
X63717Y-75742D01*
X63700Y-75725D01*
X63642Y-75701D01*
X63579Y-75701D01*
X63537Y-75701D01*
X63498Y-75741D01*
X63498Y-75921D01*
X63728Y-75921D01*
X63768Y-75882D01*
X63768Y-76086D01*
X63728Y-76046D01*
X63498Y-76046D01*
X63498Y-76227D01*
X63537Y-76266D01*
X63579Y-76266D01*
X63642Y-76266D01*
X63700Y-76242D01*
X63744Y-76198D01*
X63768Y-76140D01*
X63768Y-77381D01*
X63717Y-77381D01*
X63710Y-77367D01*
X63677Y-77333D01*
X63634Y-77315D01*
X63587Y-77315D01*
X63137Y-77315D01*
X63093Y-77333D01*
X63060Y-77367D01*
X63042Y-77410D01*
X63042Y-77457D01*
X63042Y-77707D01*
X63060Y-77750D01*
X63093Y-77784D01*
X63137Y-77802D01*
X63184Y-77802D01*
X63634Y-77802D01*
X63677Y-77784D01*
X63710Y-77750D01*
X63717Y-77736D01*
X64312Y-77736D01*
X64312Y-77756D01*
X64320Y-77775D01*
X64173Y-77775D01*
X64105Y-77789D01*
X64047Y-77827D01*
X63713Y-78161D01*
X63710Y-78154D01*
X63677Y-78121D01*
X63634Y-78103D01*
X63587Y-78103D01*
X63137Y-78103D01*
X63093Y-78121D01*
X63060Y-78154D01*
X63057Y-78161D01*
X62972Y-78076D01*
X62972Y-77041D01*
X63057Y-76956D01*
X63060Y-76963D01*
X63093Y-76996D01*
X63137Y-77014D01*
X63184Y-77014D01*
X63634Y-77014D01*
X63677Y-76996D01*
X63710Y-76963D01*
X63728Y-76920D01*
X63728Y-76873D01*
X63728Y-76623D01*
X63710Y-76579D01*
X63677Y-76546D01*
X63634Y-76528D01*
X63587Y-76528D01*
X63273Y-76528D01*
X63273Y-76227D01*
X63273Y-76046D01*
X63273Y-75921D01*
X63273Y-75741D01*
X63233Y-75701D01*
X63192Y-75701D01*
X63129Y-75701D01*
X63071Y-75725D01*
X63027Y-75770D01*
X63003Y-75827D01*
X63003Y-75882D01*
X63042Y-75921D01*
X63273Y-75921D01*
X63273Y-76046D01*
X63042Y-76046D01*
X63003Y-76086D01*
X63003Y-76140D01*
X63027Y-76198D01*
X63071Y-76242D01*
X63129Y-76266D01*
X63192Y-76266D01*
X63233Y-76266D01*
X63273Y-76227D01*
X63273Y-76528D01*
X63137Y-76528D01*
X63093Y-76546D01*
X63060Y-76579D01*
X63054Y-76594D01*
X62992Y-76594D01*
X62924Y-76607D01*
X62866Y-76646D01*
X62670Y-76843D01*
X62631Y-76900D01*
X62618Y-76968D01*
X62618Y-78149D01*
X62631Y-78217D01*
X62670Y-78274D01*
X62866Y-78471D01*
X62924Y-78510D01*
X62924Y-78510D01*
X62992Y-78523D01*
X63054Y-78523D01*
X63060Y-78538D01*
X63093Y-78571D01*
X63137Y-78589D01*
X63184Y-78589D01*
X63634Y-78589D01*
X63677Y-78571D01*
X63710Y-78538D01*
X63717Y-78523D01*
X63779Y-78523D01*
X63847Y-78510D01*
X63847Y-78510D01*
X63904Y-78471D01*
X64246Y-78129D01*
X64670Y-78129D01*
X64662Y-78149D01*
X64662Y-78196D01*
X64662Y-78268D01*
X64645Y-78352D01*
X64645Y-78412D01*
X64442Y-78615D01*
X64442Y-78615D01*
X64149Y-78909D01*
X64087Y-78909D01*
X64043Y-78927D01*
X64010Y-78960D01*
X63992Y-79004D01*
X63992Y-79051D01*
X63992Y-80051D01*
X64010Y-80094D01*
X64043Y-80127D01*
X64087Y-80145D01*
X64134Y-80145D01*
X64634Y-80145D01*
X64677Y-80127D01*
X64710Y-80094D01*
X64728Y-80051D01*
X64728Y-80004D01*
X64728Y-79220D01*
X64888Y-79061D01*
X64888Y-79061D01*
X64888Y-79061D01*
X65183Y-78766D01*
X65183Y-78766D01*
X65251Y-78663D01*
X65275Y-78543D01*
X65275Y-78543D01*
X65275Y-78352D01*
X65258Y-78268D01*
X65258Y-78149D01*
X65240Y-78105D01*
X65207Y-78072D01*
X65164Y-78054D01*
X65117Y-78054D01*
X65059Y-78054D01*
X65263Y-77850D01*
X65514Y-77850D01*
X65557Y-77832D01*
X65590Y-77799D01*
X65608Y-77756D01*
X65608Y-77709D01*
X65608Y-77349D01*
X65590Y-77305D01*
X65557Y-77272D01*
X65514Y-77254D01*
X65467Y-77254D01*
X65107Y-77254D01*
X65063Y-77272D01*
X65030Y-77305D01*
X65012Y-77349D01*
X65012Y-77396D01*
X65012Y-77600D01*
X64908Y-77704D01*
X64908Y-77637D01*
X64925Y-77552D01*
X64925Y-76861D01*
X64933Y-76853D01*
X65417Y-76853D01*
X65460Y-76835D01*
X65493Y-76801D01*
X65511Y-76758D01*
X65511Y-76711D01*
X65511Y-76695D01*
X67391Y-76695D01*
X67493Y-76797D01*
X67596Y-76865D01*
X67716Y-76889D01*
X69488Y-76889D01*
X69488Y-76889D01*
X69608Y-76865D01*
X69710Y-76797D01*
X70104Y-76403D01*
X70104Y-76403D01*
X70172Y-76301D01*
X70196Y-76181D01*
X70196Y-78083D01*
X70149Y-78197D01*
X70149Y-78494D01*
X70263Y-78769D01*
X70473Y-78980D01*
X70748Y-79094D01*
X71045Y-79094D01*
X71320Y-78980D01*
X71531Y-78770D01*
X71645Y-78495D01*
X71645Y-78198D01*
X71645Y-80964D01*
X67645Y-80964D01*
X67645Y-78198D01*
X67532Y-77923D01*
X67321Y-77712D01*
X67047Y-77598D01*
X66749Y-77598D01*
X66474Y-77711D01*
X66263Y-77922D01*
X66149Y-78197D01*
X66149Y-78494D01*
X66263Y-78769D01*
X66473Y-78980D01*
X66748Y-79094D01*
X67045Y-79094D01*
X67320Y-78980D01*
X67531Y-78770D01*
X67645Y-78495D01*
X67645Y-78198D01*
X67645Y-80964D01*
X65968Y-80964D01*
X65968Y-80058D01*
X65968Y-79996D01*
X65968Y-79724D01*
X65968Y-79330D01*
X65968Y-79058D01*
X65968Y-78996D01*
X65944Y-78938D01*
X65899Y-78894D01*
X65841Y-78870D01*
X65725Y-78870D01*
X65685Y-78909D01*
X65685Y-79370D01*
X65928Y-79370D01*
X65968Y-79330D01*
X65968Y-79724D01*
X65928Y-79685D01*
X65685Y-79685D01*
X65685Y-80145D01*
X65725Y-80185D01*
X65841Y-80185D01*
X65899Y-80161D01*
X65944Y-80116D01*
X65968Y-80058D01*
X65968Y-80964D01*
X65435Y-80964D01*
X65435Y-80145D01*
X65435Y-79685D01*
X65435Y-79370D01*
X65435Y-78909D01*
X65396Y-78870D01*
X65279Y-78870D01*
X65221Y-78894D01*
X65177Y-78938D01*
X65153Y-78996D01*
X65153Y-79058D01*
X65153Y-79330D01*
X65192Y-79370D01*
X65435Y-79370D01*
X65435Y-79685D01*
X65192Y-79685D01*
X65153Y-79724D01*
X65153Y-79996D01*
X65153Y-80058D01*
X65177Y-80116D01*
X65221Y-80161D01*
X65279Y-80185D01*
X65396Y-80185D01*
X65435Y-80145D01*
X65435Y-80964D01*
X62126Y-80964D01*
X62126Y-79387D01*
X62093Y-79308D01*
X62093Y-69153D01*
X62093Y-69091D01*
X62093Y-69049D01*
X62093Y-68745D01*
X62093Y-68703D01*
X62093Y-68641D01*
X62069Y-68583D01*
X62025Y-68539D01*
X61967Y-68515D01*
X61912Y-68515D01*
X61873Y-68554D01*
X61873Y-68785D01*
X62054Y-68785D01*
X62093Y-68745D01*
X62093Y-69049D01*
X62054Y-69010D01*
X61873Y-69010D01*
X61873Y-69240D01*
X61912Y-69280D01*
X61967Y-69280D01*
X62025Y-69256D01*
X62069Y-69211D01*
X62093Y-69153D01*
X62093Y-79308D01*
X62018Y-79126D01*
X61819Y-78927D01*
X61748Y-78897D01*
X61748Y-69240D01*
X61748Y-69010D01*
X61686Y-69010D01*
X61686Y-68785D01*
X61748Y-68785D01*
X61748Y-68554D01*
X61709Y-68515D01*
X61654Y-68515D01*
X61596Y-68539D01*
X61552Y-68583D01*
X61535Y-68624D01*
X61535Y-64543D01*
X61517Y-64500D01*
X61484Y-64466D01*
X61440Y-64448D01*
X61393Y-64448D01*
X59425Y-64448D01*
X59381Y-64466D01*
X59348Y-64500D01*
X59330Y-64543D01*
X59330Y-64590D01*
X59330Y-68921D01*
X59348Y-68964D01*
X59381Y-68997D01*
X59425Y-69015D01*
X59472Y-69015D01*
X59527Y-69015D01*
X59527Y-69291D01*
X59551Y-69411D01*
X59619Y-69514D01*
X59721Y-69582D01*
X59842Y-69606D01*
X59963Y-69582D01*
X60065Y-69514D01*
X60133Y-69411D01*
X60137Y-69390D01*
X60142Y-69411D01*
X60210Y-69514D01*
X60312Y-69582D01*
X60433Y-69606D01*
X60553Y-69582D01*
X60655Y-69514D01*
X60724Y-69411D01*
X60728Y-69390D01*
X60732Y-69411D01*
X60800Y-69514D01*
X60903Y-69582D01*
X61023Y-69606D01*
X61144Y-69582D01*
X61246Y-69514D01*
X61314Y-69411D01*
X61338Y-69291D01*
X61338Y-69015D01*
X61440Y-69015D01*
X61484Y-68997D01*
X61517Y-68964D01*
X61528Y-68937D01*
X61528Y-69049D01*
X61528Y-69055D01*
X61528Y-69091D01*
X61528Y-69153D01*
X61552Y-69211D01*
X61596Y-69256D01*
X61654Y-69280D01*
X61709Y-69280D01*
X61748Y-69240D01*
X61748Y-78897D01*
X61732Y-78891D01*
X61732Y-70725D01*
X61624Y-70465D01*
X61425Y-70265D01*
X61165Y-70157D01*
X60883Y-70157D01*
X60622Y-70265D01*
X60423Y-70464D01*
X60315Y-70724D01*
X60314Y-71006D01*
X60422Y-71267D01*
X60621Y-71466D01*
X60882Y-71574D01*
X61163Y-71574D01*
X61424Y-71467D01*
X61624Y-71268D01*
X61732Y-71007D01*
X61732Y-70725D01*
X61732Y-78891D01*
X61558Y-78819D01*
X61276Y-78818D01*
X61016Y-78926D01*
X60816Y-79125D01*
X60708Y-79385D01*
X60708Y-79667D01*
X60816Y-79928D01*
X61015Y-80127D01*
X61275Y-80236D01*
X61557Y-80236D01*
X61818Y-80128D01*
X62017Y-79929D01*
X62125Y-79669D01*
X62126Y-79387D01*
X62126Y-80964D01*
X61430Y-80964D01*
X60868Y-80852D01*
X60403Y-80541D01*
X60092Y-80076D01*
X59980Y-79513D01*
X59980Y-72834D01*
X59971Y-72790D01*
X59969Y-72781D01*
X59969Y-72781D01*
X59939Y-72737D01*
X59192Y-71990D01*
X59192Y-61726D01*
X59207Y-61653D01*
X59240Y-61603D01*
X59291Y-61569D01*
X59350Y-61557D01*
X59409Y-61569D01*
X59459Y-61603D01*
X59493Y-61653D01*
X59507Y-61726D01*
X59507Y-62204D01*
X59518Y-62257D01*
X59548Y-62302D01*
X61713Y-64467D01*
X61758Y-64497D01*
X61811Y-64507D01*
X75984Y-64507D01*
X75984Y-64507D01*
X76036Y-64497D01*
X76081Y-64467D01*
X78247Y-62302D01*
X78247Y-62302D01*
X78276Y-62257D01*
X78287Y-62204D01*
X78287Y-61726D01*
X78301Y-61653D01*
X78335Y-61603D01*
X78385Y-61569D01*
X78444Y-61557D01*
X78504Y-61569D01*
X78554Y-61603D01*
X78587Y-61653D01*
X78602Y-61726D01*
X78602Y-71990D01*
X78602Y-71990D01*
G37*
G54D31*
X78602Y-71990D02*
X78464Y-72127D01*
X78464Y-68921D01*
X78464Y-68874D01*
X78464Y-64543D01*
X78446Y-64500D01*
X78413Y-64466D01*
X78369Y-64448D01*
X78322Y-64448D01*
X76354Y-64448D01*
X76311Y-64466D01*
X76277Y-64500D01*
X76259Y-64543D01*
X76259Y-64590D01*
X76259Y-68921D01*
X76277Y-68964D01*
X76311Y-68997D01*
X76354Y-69015D01*
X76401Y-69015D01*
X76456Y-69015D01*
X76456Y-69291D01*
X76480Y-69411D01*
X76548Y-69514D01*
X76651Y-69582D01*
X76771Y-69606D01*
X76892Y-69582D01*
X76994Y-69514D01*
X77062Y-69411D01*
X77066Y-69390D01*
X77071Y-69411D01*
X77139Y-69514D01*
X77241Y-69582D01*
X77362Y-69606D01*
X77482Y-69582D01*
X77584Y-69514D01*
X77653Y-69411D01*
X77657Y-69390D01*
X77661Y-69411D01*
X77730Y-69514D01*
X77832Y-69582D01*
X77952Y-69606D01*
X78073Y-69582D01*
X78175Y-69514D01*
X78243Y-69411D01*
X78267Y-69291D01*
X78267Y-69015D01*
X78369Y-69015D01*
X78413Y-68997D01*
X78446Y-68964D01*
X78464Y-68921D01*
X78464Y-72127D01*
X77855Y-72737D01*
X77825Y-72781D01*
X77814Y-72834D01*
X77814Y-79513D01*
X77703Y-80076D01*
X77480Y-80409D01*
X77480Y-70725D01*
X77372Y-70465D01*
X77173Y-70265D01*
X76913Y-70157D01*
X76631Y-70157D01*
X76370Y-70265D01*
X76171Y-70464D01*
X76063Y-70724D01*
X76062Y-71006D01*
X76170Y-71267D01*
X76369Y-71466D01*
X76630Y-71574D01*
X76911Y-71574D01*
X77172Y-71467D01*
X77372Y-71268D01*
X77480Y-71007D01*
X77480Y-70725D01*
X77480Y-80409D01*
X77392Y-80541D01*
X77086Y-80745D01*
X77086Y-79387D01*
X76979Y-79126D01*
X76779Y-78927D01*
X76519Y-78819D01*
X76237Y-78818D01*
X76030Y-78904D01*
X76030Y-66393D01*
X76010Y-66294D01*
X75983Y-66277D01*
X75983Y-65351D01*
X75924Y-65206D01*
X75813Y-65096D01*
X75669Y-65036D01*
X75512Y-65035D01*
X75368Y-65095D01*
X75257Y-65206D01*
X75197Y-65350D01*
X75197Y-65506D01*
X75224Y-65572D01*
X74691Y-66105D01*
X74657Y-66156D01*
X74645Y-66216D01*
X74645Y-67691D01*
X74575Y-67761D01*
X74535Y-67859D01*
X74534Y-67966D01*
X74575Y-68065D01*
X74651Y-68140D01*
X74749Y-68181D01*
X74856Y-68181D01*
X74954Y-68140D01*
X75030Y-68065D01*
X75071Y-67966D01*
X75071Y-67860D01*
X75030Y-67761D01*
X74960Y-67691D01*
X74960Y-66281D01*
X75447Y-65795D01*
X75512Y-65822D01*
X75668Y-65822D01*
X75812Y-65762D01*
X75923Y-65652D01*
X75983Y-65507D01*
X75983Y-65351D01*
X75983Y-66277D01*
X75954Y-66259D01*
X75785Y-66429D01*
X75954Y-66598D01*
X76010Y-66564D01*
X76030Y-66393D01*
X76030Y-78904D01*
X75983Y-78923D01*
X75983Y-67351D01*
X75924Y-67206D01*
X75813Y-67096D01*
X75760Y-67073D01*
X75760Y-66793D01*
X75760Y-66065D01*
X75725Y-66009D01*
X75554Y-65989D01*
X75455Y-66009D01*
X75420Y-66065D01*
X75590Y-66234D01*
X75760Y-66065D01*
X75760Y-66793D01*
X75590Y-66623D01*
X75420Y-66793D01*
X75455Y-66848D01*
X75626Y-66868D01*
X75725Y-66848D01*
X75760Y-66793D01*
X75760Y-67073D01*
X75669Y-67036D01*
X75512Y-67035D01*
X75396Y-67084D01*
X75396Y-66429D01*
X75226Y-66259D01*
X75170Y-66294D01*
X75151Y-66465D01*
X75170Y-66564D01*
X75226Y-66598D01*
X75396Y-66429D01*
X75396Y-67084D01*
X75368Y-67095D01*
X75257Y-67206D01*
X75197Y-67350D01*
X75197Y-67506D01*
X75257Y-67651D01*
X75367Y-67762D01*
X75512Y-67822D01*
X75668Y-67822D01*
X75812Y-67762D01*
X75923Y-67652D01*
X75983Y-67507D01*
X75983Y-67351D01*
X75983Y-78923D01*
X75983Y-78923D01*
X75983Y-68727D01*
X75983Y-68680D01*
X75983Y-68130D01*
X75965Y-68087D01*
X75932Y-68054D01*
X75889Y-68036D01*
X75842Y-68036D01*
X75292Y-68036D01*
X75248Y-68054D01*
X75215Y-68087D01*
X75197Y-68130D01*
X75197Y-68177D01*
X75197Y-68727D01*
X75215Y-68771D01*
X75248Y-68804D01*
X75292Y-68822D01*
X75339Y-68822D01*
X75889Y-68822D01*
X75932Y-68804D01*
X75965Y-68771D01*
X75983Y-68727D01*
X75983Y-78923D01*
X75977Y-78926D01*
X75777Y-79125D01*
X75669Y-79385D01*
X75669Y-79667D01*
X75776Y-79928D01*
X75976Y-80127D01*
X76236Y-80236D01*
X76518Y-80236D01*
X76778Y-80128D01*
X76978Y-79929D01*
X77086Y-79669D01*
X77086Y-79387D01*
X77086Y-80745D01*
X76926Y-80852D01*
X76364Y-80964D01*
X75374Y-80964D01*
X75374Y-76181D01*
X75374Y-75000D01*
X75360Y-74932D01*
X75360Y-74932D01*
X75322Y-74874D01*
X75185Y-74738D01*
X75185Y-72203D01*
X75185Y-72149D01*
X75185Y-71945D01*
X75185Y-71890D01*
X75161Y-71833D01*
X75146Y-71817D01*
X75146Y-71408D01*
X75146Y-71361D01*
X75146Y-71111D01*
X75128Y-71067D01*
X75095Y-71034D01*
X75051Y-71016D01*
X75004Y-71016D01*
X74980Y-71016D01*
X74980Y-70866D01*
X74966Y-70798D01*
X74928Y-70740D01*
X74665Y-70478D01*
X74608Y-70439D01*
X74540Y-70426D01*
X74214Y-70426D01*
X74214Y-70304D01*
X74196Y-70261D01*
X74163Y-70227D01*
X74119Y-70209D01*
X74072Y-70209D01*
X73965Y-70209D01*
X73970Y-70207D01*
X74046Y-70132D01*
X74086Y-70033D01*
X74087Y-69927D01*
X74046Y-69828D01*
X73970Y-69753D01*
X73872Y-69712D01*
X73765Y-69712D01*
X73667Y-69752D01*
X73591Y-69828D01*
X73550Y-69926D01*
X73550Y-70025D01*
X73366Y-70209D01*
X73366Y-70209D01*
X73336Y-70209D01*
X73293Y-70227D01*
X73293Y-70228D01*
X73293Y-70068D01*
X73912Y-69448D01*
X74396Y-69448D01*
X74439Y-69430D01*
X74472Y-69397D01*
X74490Y-69354D01*
X74490Y-69307D01*
X74490Y-68441D01*
X74472Y-68397D01*
X74468Y-68393D01*
X74468Y-67775D01*
X74491Y-67775D01*
X74535Y-67757D01*
X74568Y-67724D01*
X74586Y-67680D01*
X74586Y-67633D01*
X74586Y-65389D01*
X74568Y-65346D01*
X74535Y-65313D01*
X74491Y-65295D01*
X74445Y-65295D01*
X73815Y-65295D01*
X73771Y-65313D01*
X73738Y-65346D01*
X73720Y-65389D01*
X73720Y-65436D01*
X73720Y-67680D01*
X73738Y-67724D01*
X73771Y-67757D01*
X73815Y-67775D01*
X73838Y-67775D01*
X73838Y-68346D01*
X73640Y-68346D01*
X73596Y-68364D01*
X73563Y-68397D01*
X73545Y-68441D01*
X73545Y-68488D01*
X73545Y-68924D01*
X73543Y-68927D01*
X73543Y-66338D01*
X73519Y-66218D01*
X73451Y-66115D01*
X73348Y-66047D01*
X73228Y-66023D01*
X73107Y-66047D01*
X73005Y-66115D01*
X72901Y-66220D01*
X72736Y-66220D01*
X72736Y-65389D01*
X72718Y-65346D01*
X72685Y-65313D01*
X72641Y-65295D01*
X72594Y-65295D01*
X71964Y-65295D01*
X71921Y-65313D01*
X71888Y-65346D01*
X71870Y-65389D01*
X71870Y-65436D01*
X71870Y-67680D01*
X71888Y-67724D01*
X71921Y-67757D01*
X71964Y-67775D01*
X72011Y-67775D01*
X72641Y-67775D01*
X72685Y-67757D01*
X72718Y-67724D01*
X72736Y-67680D01*
X72736Y-67633D01*
X72736Y-66850D01*
X73031Y-66850D01*
X73031Y-66850D01*
X73152Y-66826D01*
X73254Y-66758D01*
X73451Y-66561D01*
X73519Y-66459D01*
X73543Y-66338D01*
X73543Y-68927D01*
X72755Y-69714D01*
X72753Y-69718D01*
X72753Y-69448D01*
X72816Y-69448D01*
X72859Y-69430D01*
X72892Y-69397D01*
X72910Y-69354D01*
X72910Y-69307D01*
X72910Y-68873D01*
X73254Y-68529D01*
X73322Y-68427D01*
X73346Y-68307D01*
X73322Y-68186D01*
X73254Y-68084D01*
X73152Y-68016D01*
X73031Y-67992D01*
X72910Y-68016D01*
X72808Y-68084D01*
X72546Y-68346D01*
X72060Y-68346D01*
X72016Y-68364D01*
X71983Y-68397D01*
X71965Y-68441D01*
X71965Y-68488D01*
X71965Y-69354D01*
X71983Y-69397D01*
X72016Y-69430D01*
X72060Y-69448D01*
X72107Y-69448D01*
X72123Y-69448D01*
X72123Y-70306D01*
X72090Y-70312D01*
X71988Y-70380D01*
X71527Y-70841D01*
X71527Y-69828D01*
X71487Y-69730D01*
X71411Y-69654D01*
X71313Y-69613D01*
X71206Y-69613D01*
X71108Y-69654D01*
X71032Y-69729D01*
X70991Y-69828D01*
X70991Y-69927D01*
X70714Y-70204D01*
X70616Y-70204D01*
X70517Y-70245D01*
X70442Y-70320D01*
X70401Y-70418D01*
X70401Y-70525D01*
X70414Y-70557D01*
X70335Y-70478D01*
X70277Y-70439D01*
X70209Y-70426D01*
X69883Y-70426D01*
X69883Y-70304D01*
X69865Y-70261D01*
X69832Y-70227D01*
X69789Y-70209D01*
X69742Y-70209D01*
X69506Y-70209D01*
X69462Y-70227D01*
X69429Y-70261D01*
X69411Y-70304D01*
X69411Y-70351D01*
X69411Y-70902D01*
X69429Y-70945D01*
X69366Y-70945D01*
X69383Y-70902D01*
X69383Y-70855D01*
X69383Y-70304D01*
X69365Y-70261D01*
X69348Y-70244D01*
X69553Y-70039D01*
X70250Y-70039D01*
X70320Y-70109D01*
X70418Y-70149D01*
X70525Y-70150D01*
X70624Y-70109D01*
X70699Y-70033D01*
X70740Y-69935D01*
X70740Y-69828D01*
X70699Y-69730D01*
X70624Y-69654D01*
X70526Y-69613D01*
X70419Y-69613D01*
X70320Y-69654D01*
X70250Y-69724D01*
X69488Y-69724D01*
X69488Y-69724D01*
X69427Y-69736D01*
X69376Y-69770D01*
X69036Y-70111D01*
X69002Y-70162D01*
X68991Y-70216D01*
X68991Y-70216D01*
X68962Y-70227D01*
X68962Y-70228D01*
X68962Y-70068D01*
X69581Y-69448D01*
X70065Y-69448D01*
X70109Y-69430D01*
X70142Y-69397D01*
X70160Y-69354D01*
X70160Y-69307D01*
X70160Y-68441D01*
X70142Y-68397D01*
X70137Y-68393D01*
X70137Y-67775D01*
X70161Y-67775D01*
X70204Y-67757D01*
X70237Y-67724D01*
X70255Y-67680D01*
X70255Y-67633D01*
X70255Y-65389D01*
X70237Y-65346D01*
X70204Y-65313D01*
X70161Y-65295D01*
X70114Y-65295D01*
X69484Y-65295D01*
X69440Y-65313D01*
X69407Y-65346D01*
X69389Y-65389D01*
X69389Y-65436D01*
X69389Y-67680D01*
X69407Y-67724D01*
X69440Y-67757D01*
X69484Y-67775D01*
X69507Y-67775D01*
X69507Y-68346D01*
X69309Y-68346D01*
X69266Y-68364D01*
X69233Y-68397D01*
X69215Y-68441D01*
X69215Y-68488D01*
X69215Y-68924D01*
X69212Y-68927D01*
X69212Y-67322D01*
X69188Y-67202D01*
X69120Y-67100D01*
X69018Y-67031D01*
X68897Y-67007D01*
X68437Y-67007D01*
X68405Y-66975D01*
X68405Y-65389D01*
X68387Y-65346D01*
X68354Y-65313D01*
X68310Y-65295D01*
X68263Y-65295D01*
X67633Y-65295D01*
X67590Y-65313D01*
X67557Y-65346D01*
X67539Y-65389D01*
X67539Y-65436D01*
X67539Y-67680D01*
X67557Y-67724D01*
X67590Y-67757D01*
X67633Y-67775D01*
X67680Y-67775D01*
X68310Y-67775D01*
X68354Y-67757D01*
X68387Y-67724D01*
X68405Y-67680D01*
X68405Y-67637D01*
X68897Y-67637D01*
X69018Y-67613D01*
X69120Y-67545D01*
X69188Y-67443D01*
X69212Y-67322D01*
X69212Y-68927D01*
X69102Y-69037D01*
X69090Y-68973D01*
X69021Y-68871D01*
X68825Y-68674D01*
X68722Y-68606D01*
X68602Y-68582D01*
X68580Y-68582D01*
X68580Y-68441D01*
X68562Y-68397D01*
X68529Y-68364D01*
X68485Y-68346D01*
X68438Y-68346D01*
X67729Y-68346D01*
X67686Y-68364D01*
X67653Y-68397D01*
X67635Y-68441D01*
X67635Y-68488D01*
X67635Y-69354D01*
X67653Y-69397D01*
X67686Y-69430D01*
X67729Y-69448D01*
X67776Y-69448D01*
X67792Y-69448D01*
X67792Y-70306D01*
X67760Y-70312D01*
X67657Y-70380D01*
X67492Y-70546D01*
X67492Y-68844D01*
X67451Y-68745D01*
X67376Y-68670D01*
X67277Y-68629D01*
X67171Y-68629D01*
X67072Y-68670D01*
X67002Y-68740D01*
X66830Y-68740D01*
X66770Y-68752D01*
X66719Y-68786D01*
X65485Y-70019D01*
X65059Y-70019D01*
X64998Y-70031D01*
X64947Y-70065D01*
X64947Y-70065D01*
X64803Y-70209D01*
X64675Y-70209D01*
X64632Y-70227D01*
X64631Y-70228D01*
X64631Y-70068D01*
X65251Y-69448D01*
X65734Y-69448D01*
X65778Y-69430D01*
X65811Y-69397D01*
X65829Y-69354D01*
X65829Y-69307D01*
X65829Y-68441D01*
X65811Y-68397D01*
X65807Y-68393D01*
X65807Y-67775D01*
X65830Y-67775D01*
X65873Y-67757D01*
X65907Y-67724D01*
X65925Y-67680D01*
X65925Y-67633D01*
X65925Y-65389D01*
X65907Y-65346D01*
X65873Y-65313D01*
X65830Y-65295D01*
X65783Y-65295D01*
X65153Y-65295D01*
X65110Y-65313D01*
X65077Y-65346D01*
X65059Y-65389D01*
X65059Y-65436D01*
X65059Y-67680D01*
X65077Y-67724D01*
X65110Y-67757D01*
X65153Y-67775D01*
X65177Y-67775D01*
X65177Y-68346D01*
X64978Y-68346D01*
X64935Y-68364D01*
X64902Y-68397D01*
X64884Y-68441D01*
X64884Y-68488D01*
X64884Y-68924D01*
X64881Y-68927D01*
X64881Y-66338D01*
X64857Y-66218D01*
X64789Y-66115D01*
X64687Y-66047D01*
X64566Y-66023D01*
X64446Y-66047D01*
X64344Y-66115D01*
X64239Y-66220D01*
X64074Y-66220D01*
X64074Y-65389D01*
X64056Y-65346D01*
X64023Y-65313D01*
X63980Y-65295D01*
X63933Y-65295D01*
X63303Y-65295D01*
X63259Y-65313D01*
X63226Y-65346D01*
X63208Y-65389D01*
X63208Y-65436D01*
X63208Y-67680D01*
X63226Y-67724D01*
X63259Y-67757D01*
X63303Y-67775D01*
X63350Y-67775D01*
X63980Y-67775D01*
X64023Y-67757D01*
X64056Y-67724D01*
X64074Y-67680D01*
X64074Y-67633D01*
X64074Y-66850D01*
X64370Y-66850D01*
X64370Y-66850D01*
X64490Y-66826D01*
X64592Y-66758D01*
X64789Y-66561D01*
X64857Y-66459D01*
X64881Y-66338D01*
X64881Y-68927D01*
X64094Y-69714D01*
X64091Y-69718D01*
X64091Y-69448D01*
X64154Y-69448D01*
X64198Y-69430D01*
X64231Y-69397D01*
X64249Y-69354D01*
X64249Y-69307D01*
X64249Y-68441D01*
X64231Y-68397D01*
X64198Y-68364D01*
X64154Y-68346D01*
X64107Y-68346D01*
X63671Y-68346D01*
X63527Y-68202D01*
X63425Y-68134D01*
X63304Y-68110D01*
X63070Y-68110D01*
X62950Y-68134D01*
X62848Y-68202D01*
X62779Y-68304D01*
X62755Y-68425D01*
X62779Y-68545D01*
X62812Y-68594D01*
X62790Y-68572D01*
X62746Y-68554D01*
X62699Y-68554D01*
X62644Y-68554D01*
X62644Y-65499D01*
X62624Y-65400D01*
X62568Y-65365D01*
X62399Y-65535D01*
X62568Y-65705D01*
X62624Y-65670D01*
X62644Y-65499D01*
X62644Y-68554D01*
X62597Y-68554D01*
X62597Y-66457D01*
X62538Y-66313D01*
X62427Y-66202D01*
X62374Y-66180D01*
X62374Y-65899D01*
X62374Y-65171D01*
X62339Y-65115D01*
X62168Y-65095D01*
X62069Y-65115D01*
X62035Y-65171D01*
X62204Y-65340D01*
X62374Y-65171D01*
X62374Y-65899D01*
X62204Y-65729D01*
X62035Y-65899D01*
X62069Y-65955D01*
X62240Y-65974D01*
X62339Y-65955D01*
X62374Y-65899D01*
X62374Y-66180D01*
X62283Y-66142D01*
X62126Y-66142D01*
X62010Y-66190D01*
X62010Y-65535D01*
X61840Y-65365D01*
X61784Y-65400D01*
X61765Y-65571D01*
X61784Y-65670D01*
X61840Y-65705D01*
X62010Y-65535D01*
X62010Y-66190D01*
X61982Y-66201D01*
X61871Y-66312D01*
X61811Y-66456D01*
X61811Y-66613D01*
X61871Y-66757D01*
X61981Y-66868D01*
X62126Y-66928D01*
X62282Y-66928D01*
X62427Y-66868D01*
X62537Y-66758D01*
X62597Y-66613D01*
X62597Y-66457D01*
X62597Y-68554D01*
X62597Y-68554D01*
X62597Y-67833D01*
X62597Y-67786D01*
X62597Y-67236D01*
X62579Y-67193D01*
X62546Y-67160D01*
X62503Y-67142D01*
X62456Y-67142D01*
X61906Y-67142D01*
X61862Y-67160D01*
X61829Y-67193D01*
X61811Y-67236D01*
X61811Y-67283D01*
X61811Y-67833D01*
X61829Y-67877D01*
X61862Y-67910D01*
X61906Y-67928D01*
X61953Y-67928D01*
X62503Y-67928D01*
X62546Y-67910D01*
X62579Y-67877D01*
X62597Y-67833D01*
X62597Y-68554D01*
X62449Y-68554D01*
X62406Y-68572D01*
X62373Y-68605D01*
X62355Y-68649D01*
X62355Y-68696D01*
X62355Y-69146D01*
X62373Y-69189D01*
X62406Y-69222D01*
X62449Y-69240D01*
X62496Y-69240D01*
X62746Y-69240D01*
X62790Y-69222D01*
X62823Y-69189D01*
X62841Y-69146D01*
X62841Y-69125D01*
X62938Y-69165D01*
X63045Y-69165D01*
X63143Y-69125D01*
X63219Y-69049D01*
X63260Y-68951D01*
X63260Y-68844D01*
X63247Y-68813D01*
X63304Y-68870D01*
X63304Y-69354D01*
X63322Y-69397D01*
X63355Y-69430D01*
X63398Y-69448D01*
X63445Y-69448D01*
X63461Y-69448D01*
X63461Y-70306D01*
X63429Y-70312D01*
X63327Y-70380D01*
X62839Y-70868D01*
X62693Y-70868D01*
X62650Y-70886D01*
X62616Y-70919D01*
X62599Y-70962D01*
X62599Y-71009D01*
X62599Y-71359D01*
X62616Y-71403D01*
X62650Y-71436D01*
X62693Y-71454D01*
X62740Y-71454D01*
X62882Y-71454D01*
X62992Y-71476D01*
X63101Y-71454D01*
X63290Y-71454D01*
X63334Y-71436D01*
X63367Y-71403D01*
X63385Y-71359D01*
X63385Y-71312D01*
X63385Y-71213D01*
X63625Y-70973D01*
X63632Y-70979D01*
X63666Y-70993D01*
X63645Y-71013D01*
X63621Y-71071D01*
X63621Y-71133D01*
X63621Y-71456D01*
X63661Y-71496D01*
X64409Y-71496D01*
X64409Y-70997D01*
X64458Y-70997D01*
X64501Y-70979D01*
X64535Y-70945D01*
X64553Y-70902D01*
X64553Y-70855D01*
X64553Y-70806D01*
X64580Y-70764D01*
X64580Y-70902D01*
X64598Y-70945D01*
X64632Y-70979D01*
X64675Y-70997D01*
X64722Y-70997D01*
X64724Y-70997D01*
X64724Y-71496D01*
X65472Y-71496D01*
X65511Y-71456D01*
X65511Y-71133D01*
X65511Y-71071D01*
X65487Y-71013D01*
X65467Y-70993D01*
X65501Y-70979D01*
X65535Y-70945D01*
X65553Y-70902D01*
X65553Y-70855D01*
X65553Y-70780D01*
X65805Y-70780D01*
X65964Y-70939D01*
X65964Y-71016D01*
X65893Y-71016D01*
X65849Y-71034D01*
X65816Y-71067D01*
X65798Y-71111D01*
X65798Y-71158D01*
X65798Y-71408D01*
X65816Y-71451D01*
X65849Y-71484D01*
X65893Y-71502D01*
X65940Y-71502D01*
X66390Y-71502D01*
X66433Y-71484D01*
X66466Y-71451D01*
X66484Y-71408D01*
X66484Y-71361D01*
X66484Y-71111D01*
X66466Y-71067D01*
X66433Y-71034D01*
X66390Y-71016D01*
X66343Y-71016D01*
X66318Y-71016D01*
X66318Y-70866D01*
X66305Y-70798D01*
X66267Y-70740D01*
X66004Y-70478D01*
X65946Y-70439D01*
X65879Y-70426D01*
X65553Y-70426D01*
X65553Y-70334D01*
X65611Y-70322D01*
X65611Y-70322D01*
X65662Y-70288D01*
X66895Y-69055D01*
X67002Y-69055D01*
X67072Y-69124D01*
X67170Y-69165D01*
X67277Y-69165D01*
X67376Y-69125D01*
X67451Y-69049D01*
X67492Y-68951D01*
X67492Y-68844D01*
X67492Y-70546D01*
X67170Y-70868D01*
X67024Y-70868D01*
X66980Y-70886D01*
X66947Y-70919D01*
X66929Y-70962D01*
X66929Y-71009D01*
X66929Y-71359D01*
X66947Y-71403D01*
X66980Y-71436D01*
X67024Y-71454D01*
X67071Y-71454D01*
X67212Y-71454D01*
X67322Y-71476D01*
X67432Y-71454D01*
X67621Y-71454D01*
X67664Y-71436D01*
X67697Y-71403D01*
X67715Y-71359D01*
X67715Y-71312D01*
X67715Y-71213D01*
X67956Y-70973D01*
X67962Y-70979D01*
X67996Y-70993D01*
X67976Y-71013D01*
X67952Y-71071D01*
X67952Y-71133D01*
X67952Y-71456D01*
X67992Y-71496D01*
X68740Y-71496D01*
X68740Y-70997D01*
X68789Y-70997D01*
X68832Y-70979D01*
X68865Y-70945D01*
X68883Y-70902D01*
X68883Y-70855D01*
X68883Y-70806D01*
X68911Y-70764D01*
X68911Y-70902D01*
X68929Y-70945D01*
X68962Y-70979D01*
X69006Y-70997D01*
X69053Y-70997D01*
X69055Y-70997D01*
X69055Y-71496D01*
X69803Y-71496D01*
X69842Y-71456D01*
X69842Y-71133D01*
X69842Y-71071D01*
X69818Y-71013D01*
X69798Y-70993D01*
X69832Y-70979D01*
X69865Y-70945D01*
X69883Y-70902D01*
X69883Y-70855D01*
X69883Y-70780D01*
X70136Y-70780D01*
X70295Y-70939D01*
X70295Y-71016D01*
X70223Y-71016D01*
X70180Y-71034D01*
X70147Y-71067D01*
X70129Y-71111D01*
X70129Y-71158D01*
X70129Y-71408D01*
X70147Y-71451D01*
X70180Y-71484D01*
X70223Y-71502D01*
X70270Y-71502D01*
X70720Y-71502D01*
X70764Y-71484D01*
X70797Y-71451D01*
X70815Y-71408D01*
X70815Y-71361D01*
X70815Y-71111D01*
X70797Y-71067D01*
X70764Y-71034D01*
X70720Y-71016D01*
X70673Y-71016D01*
X70649Y-71016D01*
X70649Y-70866D01*
X70636Y-70798D01*
X70597Y-70740D01*
X70584Y-70727D01*
X70615Y-70740D01*
X70722Y-70740D01*
X70820Y-70699D01*
X70896Y-70624D01*
X70937Y-70526D01*
X70937Y-70427D01*
X71214Y-70149D01*
X71312Y-70150D01*
X71411Y-70109D01*
X71487Y-70033D01*
X71527Y-69935D01*
X71527Y-69828D01*
X71527Y-70841D01*
X71501Y-70868D01*
X71355Y-70868D01*
X71311Y-70886D01*
X71278Y-70919D01*
X71260Y-70962D01*
X71260Y-71009D01*
X71260Y-71359D01*
X71278Y-71403D01*
X71311Y-71436D01*
X71355Y-71454D01*
X71402Y-71454D01*
X71543Y-71454D01*
X71653Y-71476D01*
X71763Y-71454D01*
X71952Y-71454D01*
X71995Y-71436D01*
X72028Y-71403D01*
X72046Y-71359D01*
X72046Y-71312D01*
X72046Y-71213D01*
X72287Y-70973D01*
X72293Y-70979D01*
X72327Y-70993D01*
X72307Y-71013D01*
X72283Y-71071D01*
X72283Y-71133D01*
X72283Y-71456D01*
X72322Y-71496D01*
X73070Y-71496D01*
X73070Y-70997D01*
X73119Y-70997D01*
X73163Y-70979D01*
X73196Y-70945D01*
X73214Y-70902D01*
X73214Y-70855D01*
X73214Y-70806D01*
X73242Y-70764D01*
X73242Y-70902D01*
X73260Y-70945D01*
X73293Y-70979D01*
X73336Y-70997D01*
X73383Y-70997D01*
X73385Y-70997D01*
X73385Y-71496D01*
X74133Y-71496D01*
X74173Y-71456D01*
X74173Y-71133D01*
X74173Y-71071D01*
X74149Y-71013D01*
X74129Y-70993D01*
X74163Y-70979D01*
X74196Y-70945D01*
X74214Y-70902D01*
X74214Y-70855D01*
X74214Y-70780D01*
X74467Y-70780D01*
X74625Y-70939D01*
X74625Y-71016D01*
X74554Y-71016D01*
X74511Y-71034D01*
X74478Y-71067D01*
X74460Y-71111D01*
X74460Y-71158D01*
X74460Y-71408D01*
X74478Y-71451D01*
X74511Y-71484D01*
X74554Y-71502D01*
X74601Y-71502D01*
X75051Y-71502D01*
X75095Y-71484D01*
X75128Y-71451D01*
X75146Y-71408D01*
X75146Y-71817D01*
X75117Y-71788D01*
X75059Y-71764D01*
X74996Y-71764D01*
X74955Y-71764D01*
X74915Y-71804D01*
X74915Y-71984D01*
X75146Y-71984D01*
X75185Y-71945D01*
X75185Y-72149D01*
X75146Y-72109D01*
X74915Y-72109D01*
X74915Y-72290D01*
X74955Y-72329D01*
X74996Y-72329D01*
X75059Y-72329D01*
X75117Y-72305D01*
X75161Y-72261D01*
X75185Y-72203D01*
X75185Y-74738D01*
X75085Y-74638D01*
X75085Y-73878D01*
X75085Y-73815D01*
X75085Y-73773D01*
X75085Y-73470D01*
X75085Y-73428D01*
X75085Y-73365D01*
X75061Y-73307D01*
X75017Y-73263D01*
X74959Y-73239D01*
X74905Y-73239D01*
X74865Y-73278D01*
X74865Y-73509D01*
X75046Y-73509D01*
X75085Y-73470D01*
X75085Y-73773D01*
X75046Y-73734D01*
X74865Y-73734D01*
X74865Y-73965D01*
X74905Y-74004D01*
X74959Y-74004D01*
X75017Y-73980D01*
X75061Y-73936D01*
X75085Y-73878D01*
X75085Y-74638D01*
X74999Y-74552D01*
X74999Y-74309D01*
X74981Y-74265D01*
X74948Y-74232D01*
X74904Y-74214D01*
X74857Y-74214D01*
X74740Y-74214D01*
X74740Y-73965D01*
X74740Y-73734D01*
X74740Y-73509D01*
X74740Y-73278D01*
X74701Y-73239D01*
X74690Y-73239D01*
X74690Y-72290D01*
X74690Y-72109D01*
X74690Y-71984D01*
X74690Y-71804D01*
X74651Y-71764D01*
X74609Y-71764D01*
X74546Y-71764D01*
X74488Y-71788D01*
X74444Y-71833D01*
X74420Y-71890D01*
X74420Y-71945D01*
X74460Y-71984D01*
X74690Y-71984D01*
X74690Y-72109D01*
X74460Y-72109D01*
X74420Y-72149D01*
X74420Y-72203D01*
X74444Y-72261D01*
X74488Y-72305D01*
X74546Y-72329D01*
X74609Y-72329D01*
X74651Y-72329D01*
X74690Y-72290D01*
X74690Y-73239D01*
X74646Y-73239D01*
X74588Y-73263D01*
X74544Y-73307D01*
X74520Y-73365D01*
X74520Y-73428D01*
X74520Y-73470D01*
X74560Y-73509D01*
X74740Y-73509D01*
X74740Y-73734D01*
X74560Y-73734D01*
X74520Y-73773D01*
X74520Y-73815D01*
X74520Y-73878D01*
X74544Y-73936D01*
X74588Y-73980D01*
X74646Y-74004D01*
X74701Y-74004D01*
X74740Y-73965D01*
X74740Y-74214D01*
X74307Y-74214D01*
X74264Y-74232D01*
X74258Y-74238D01*
X74258Y-73870D01*
X74258Y-73823D01*
X74258Y-73373D01*
X74253Y-73361D01*
X74253Y-73010D01*
X74253Y-72947D01*
X74253Y-72880D01*
X74214Y-72841D01*
X74037Y-72841D01*
X74037Y-73097D01*
X74076Y-73136D01*
X74127Y-73136D01*
X74185Y-73112D01*
X74229Y-73068D01*
X74253Y-73010D01*
X74253Y-73361D01*
X74240Y-73330D01*
X74207Y-73296D01*
X74164Y-73278D01*
X74117Y-73278D01*
X73867Y-73278D01*
X73823Y-73296D01*
X73790Y-73330D01*
X73772Y-73373D01*
X73772Y-73420D01*
X73772Y-73444D01*
X73695Y-73444D01*
X73655Y-73404D01*
X73655Y-73082D01*
X73663Y-73079D01*
X73696Y-73045D01*
X73707Y-73020D01*
X73726Y-73068D01*
X73771Y-73112D01*
X73829Y-73136D01*
X73879Y-73136D01*
X73919Y-73097D01*
X73919Y-72841D01*
X73860Y-72841D01*
X73860Y-72565D01*
X73919Y-72565D01*
X73919Y-72538D01*
X74037Y-72538D01*
X74037Y-72565D01*
X74214Y-72565D01*
X74253Y-72526D01*
X74253Y-72459D01*
X74253Y-72396D01*
X74229Y-72338D01*
X74185Y-72294D01*
X74154Y-72281D01*
X74173Y-72235D01*
X74173Y-72173D01*
X74173Y-71850D01*
X74133Y-71811D01*
X73385Y-71811D01*
X73385Y-71818D01*
X73070Y-71818D01*
X73070Y-71811D01*
X72322Y-71811D01*
X72283Y-71850D01*
X72283Y-72173D01*
X72283Y-72235D01*
X72307Y-72293D01*
X72327Y-72313D01*
X72293Y-72327D01*
X72260Y-72361D01*
X72242Y-72404D01*
X72242Y-72451D01*
X72242Y-72526D01*
X72086Y-72526D01*
X72086Y-72351D01*
X72086Y-72272D01*
X72086Y-72018D01*
X72086Y-71939D01*
X72062Y-71881D01*
X72017Y-71837D01*
X71959Y-71813D01*
X71897Y-71813D01*
X71830Y-71813D01*
X71791Y-71852D01*
X71791Y-72058D01*
X72046Y-72058D01*
X72086Y-72018D01*
X72086Y-72272D01*
X72046Y-72233D01*
X71791Y-72233D01*
X71791Y-72438D01*
X71830Y-72478D01*
X71897Y-72478D01*
X71959Y-72478D01*
X72017Y-72454D01*
X72062Y-72409D01*
X72086Y-72351D01*
X72086Y-72526D01*
X71981Y-72526D01*
X71913Y-72539D01*
X71856Y-72578D01*
X71528Y-72906D01*
X71516Y-72924D01*
X71516Y-72438D01*
X71516Y-72233D01*
X71516Y-72058D01*
X71516Y-71852D01*
X71476Y-71813D01*
X71409Y-71813D01*
X71347Y-71813D01*
X71289Y-71837D01*
X71245Y-71881D01*
X71221Y-71939D01*
X71221Y-72018D01*
X71260Y-72058D01*
X71516Y-72058D01*
X71516Y-72233D01*
X71260Y-72233D01*
X71221Y-72272D01*
X71221Y-72351D01*
X71245Y-72409D01*
X71289Y-72454D01*
X71347Y-72478D01*
X71409Y-72478D01*
X71476Y-72478D01*
X71516Y-72438D01*
X71516Y-72924D01*
X71489Y-72963D01*
X71476Y-73031D01*
X71476Y-73290D01*
X71461Y-73296D01*
X71428Y-73330D01*
X71410Y-73373D01*
X71410Y-73420D01*
X71410Y-73870D01*
X71428Y-73913D01*
X71461Y-73947D01*
X71505Y-73965D01*
X71552Y-73965D01*
X71802Y-73965D01*
X71845Y-73947D01*
X71878Y-73913D01*
X71896Y-73870D01*
X71896Y-73823D01*
X71896Y-73373D01*
X71878Y-73330D01*
X71845Y-73296D01*
X71830Y-73290D01*
X71830Y-73104D01*
X72054Y-72880D01*
X72242Y-72880D01*
X72242Y-73002D01*
X72260Y-73045D01*
X72293Y-73079D01*
X72336Y-73097D01*
X72383Y-73097D01*
X72619Y-73097D01*
X72663Y-73079D01*
X72696Y-73045D01*
X72707Y-73020D01*
X72726Y-73068D01*
X72771Y-73112D01*
X72829Y-73136D01*
X72879Y-73136D01*
X72919Y-73097D01*
X72919Y-72841D01*
X72860Y-72841D01*
X72860Y-72565D01*
X72919Y-72565D01*
X72919Y-72538D01*
X73037Y-72538D01*
X73037Y-72565D01*
X73096Y-72565D01*
X73096Y-72841D01*
X73037Y-72841D01*
X73037Y-73097D01*
X73076Y-73136D01*
X73127Y-73136D01*
X73185Y-73112D01*
X73229Y-73068D01*
X73249Y-73020D01*
X73260Y-73045D01*
X73293Y-73079D01*
X73301Y-73082D01*
X73301Y-73478D01*
X73314Y-73546D01*
X73353Y-73603D01*
X73496Y-73747D01*
X73554Y-73785D01*
X73554Y-73785D01*
X73622Y-73799D01*
X73772Y-73799D01*
X73772Y-73870D01*
X73790Y-73913D01*
X73823Y-73947D01*
X73867Y-73965D01*
X73914Y-73965D01*
X74164Y-73965D01*
X74207Y-73947D01*
X74240Y-73913D01*
X74258Y-73870D01*
X74258Y-74238D01*
X74231Y-74265D01*
X74213Y-74309D01*
X74213Y-74330D01*
X74076Y-74330D01*
X74046Y-74257D01*
X73970Y-74182D01*
X73872Y-74141D01*
X73765Y-74141D01*
X73667Y-74182D01*
X73591Y-74257D01*
X73550Y-74355D01*
X73550Y-74462D01*
X73591Y-74561D01*
X73666Y-74636D01*
X73765Y-74677D01*
X73871Y-74677D01*
X73874Y-74676D01*
X73917Y-74685D01*
X74213Y-74685D01*
X74213Y-74706D01*
X74231Y-74749D01*
X74264Y-74783D01*
X74307Y-74800D01*
X74354Y-74800D01*
X74747Y-74800D01*
X75019Y-75073D01*
X75019Y-75239D01*
X75014Y-75227D01*
X74970Y-75183D01*
X74912Y-75159D01*
X74849Y-75159D01*
X74783Y-75159D01*
X74743Y-75199D01*
X74743Y-75404D01*
X74771Y-75404D01*
X74771Y-75579D01*
X74743Y-75579D01*
X74743Y-75785D01*
X74783Y-75824D01*
X74849Y-75824D01*
X74912Y-75824D01*
X74970Y-75800D01*
X75014Y-75756D01*
X75019Y-75744D01*
X75019Y-76107D01*
X74926Y-76200D01*
X74700Y-76200D01*
X74657Y-76218D01*
X74624Y-76251D01*
X74606Y-76295D01*
X74588Y-76251D01*
X74555Y-76218D01*
X74511Y-76200D01*
X74468Y-76200D01*
X74468Y-75785D01*
X74468Y-75579D01*
X74468Y-75404D01*
X74468Y-75199D01*
X74429Y-75159D01*
X74362Y-75159D01*
X74299Y-75159D01*
X74242Y-75183D01*
X74197Y-75227D01*
X74173Y-75285D01*
X74173Y-75365D01*
X74213Y-75404D01*
X74468Y-75404D01*
X74468Y-75579D01*
X74213Y-75579D01*
X74173Y-75618D01*
X74173Y-75698D01*
X74197Y-75756D01*
X74242Y-75800D01*
X74299Y-75824D01*
X74362Y-75824D01*
X74429Y-75824D01*
X74468Y-75785D01*
X74468Y-76200D01*
X74464Y-76200D01*
X74169Y-76200D01*
X74126Y-76218D01*
X74092Y-76251D01*
X74074Y-76295D01*
X74074Y-76342D01*
X74074Y-76397D01*
X73425Y-76397D01*
X73425Y-75186D01*
X73425Y-74997D01*
X73425Y-74603D01*
X73425Y-74414D01*
X73401Y-74356D01*
X73356Y-74312D01*
X73298Y-74288D01*
X73236Y-74288D01*
X73031Y-74288D01*
X72992Y-74327D01*
X72992Y-74643D01*
X73385Y-74643D01*
X73425Y-74603D01*
X73425Y-74997D01*
X73385Y-74958D01*
X72992Y-74958D01*
X72992Y-75273D01*
X73031Y-75312D01*
X73236Y-75312D01*
X73298Y-75312D01*
X73356Y-75288D01*
X73401Y-75244D01*
X73425Y-75186D01*
X73425Y-76397D01*
X73385Y-76397D01*
X73385Y-76002D01*
X73367Y-75959D01*
X73334Y-75925D01*
X73291Y-75907D01*
X73244Y-75907D01*
X72723Y-75907D01*
X72723Y-73878D01*
X72723Y-73815D01*
X72723Y-73773D01*
X72723Y-73470D01*
X72723Y-73428D01*
X72723Y-73365D01*
X72699Y-73307D01*
X72655Y-73263D01*
X72597Y-73239D01*
X72542Y-73239D01*
X72503Y-73278D01*
X72503Y-73509D01*
X72684Y-73509D01*
X72723Y-73470D01*
X72723Y-73773D01*
X72684Y-73734D01*
X72503Y-73734D01*
X72503Y-73965D01*
X72542Y-74004D01*
X72597Y-74004D01*
X72655Y-73980D01*
X72699Y-73936D01*
X72723Y-73878D01*
X72723Y-75907D01*
X72677Y-75907D01*
X72677Y-75273D01*
X72677Y-74958D01*
X72677Y-74643D01*
X72677Y-74327D01*
X72637Y-74288D01*
X72432Y-74288D01*
X72378Y-74288D01*
X72378Y-73965D01*
X72378Y-73734D01*
X72378Y-73509D01*
X72378Y-73278D01*
X72339Y-73239D01*
X72284Y-73239D01*
X72226Y-73263D01*
X72182Y-73307D01*
X72158Y-73365D01*
X72158Y-73428D01*
X72158Y-73470D01*
X72197Y-73509D01*
X72378Y-73509D01*
X72378Y-73734D01*
X72197Y-73734D01*
X72158Y-73773D01*
X72158Y-73815D01*
X72158Y-73878D01*
X72182Y-73936D01*
X72226Y-73980D01*
X72284Y-74004D01*
X72339Y-74004D01*
X72378Y-73965D01*
X72378Y-74288D01*
X72370Y-74288D01*
X72312Y-74312D01*
X72268Y-74356D01*
X72244Y-74414D01*
X72244Y-74603D01*
X72283Y-74643D01*
X72677Y-74643D01*
X72677Y-74958D01*
X72283Y-74958D01*
X72244Y-74997D01*
X72244Y-75186D01*
X72268Y-75244D01*
X72312Y-75288D01*
X72370Y-75312D01*
X72432Y-75312D01*
X72637Y-75312D01*
X72677Y-75273D01*
X72677Y-75907D01*
X72378Y-75907D01*
X72334Y-75925D01*
X72301Y-75959D01*
X72283Y-76002D01*
X72283Y-76049D01*
X72283Y-76758D01*
X72301Y-76801D01*
X72334Y-76835D01*
X72378Y-76853D01*
X72425Y-76853D01*
X73291Y-76853D01*
X73334Y-76835D01*
X73367Y-76801D01*
X73385Y-76758D01*
X73385Y-76751D01*
X73981Y-76751D01*
X73496Y-77236D01*
X73458Y-77294D01*
X73444Y-77362D01*
X73444Y-78568D01*
X73093Y-78919D01*
X72950Y-78919D01*
X72947Y-78911D01*
X72914Y-78878D01*
X72871Y-78860D01*
X72824Y-78860D01*
X72273Y-78860D01*
X72229Y-78878D01*
X72196Y-78911D01*
X72178Y-78954D01*
X72178Y-79001D01*
X72178Y-79237D01*
X72196Y-79281D01*
X72229Y-79314D01*
X72273Y-79332D01*
X72320Y-79332D01*
X72871Y-79332D01*
X72914Y-79314D01*
X72947Y-79281D01*
X72950Y-79273D01*
X73167Y-79273D01*
X73235Y-79260D01*
X73235Y-79260D01*
X73292Y-79221D01*
X73747Y-78767D01*
X73785Y-78709D01*
X73785Y-78709D01*
X73799Y-78641D01*
X73799Y-77435D01*
X74285Y-76948D01*
X74511Y-76948D01*
X74555Y-76930D01*
X74588Y-76897D01*
X74606Y-76854D01*
X74606Y-76854D01*
X74624Y-76897D01*
X74657Y-76930D01*
X74679Y-76939D01*
X74546Y-77072D01*
X74508Y-77130D01*
X74494Y-77198D01*
X74494Y-77360D01*
X74373Y-77360D01*
X74329Y-77378D01*
X74296Y-77411D01*
X74278Y-77454D01*
X74278Y-77501D01*
X74278Y-77737D01*
X74296Y-77781D01*
X74329Y-77814D01*
X74355Y-77825D01*
X74307Y-77844D01*
X74263Y-77889D01*
X74239Y-77947D01*
X74239Y-77998D01*
X74278Y-78037D01*
X74534Y-78037D01*
X74534Y-77978D01*
X74809Y-77978D01*
X74809Y-78037D01*
X75065Y-78037D01*
X75105Y-77998D01*
X75105Y-77947D01*
X75081Y-77889D01*
X75036Y-77844D01*
X74988Y-77825D01*
X75014Y-77814D01*
X75047Y-77781D01*
X75065Y-77737D01*
X75065Y-77690D01*
X75065Y-77454D01*
X75047Y-77411D01*
X75014Y-77378D01*
X74971Y-77360D01*
X74924Y-77360D01*
X74849Y-77360D01*
X74849Y-77271D01*
X74997Y-77123D01*
X75035Y-77065D01*
X75049Y-76998D01*
X75049Y-76946D01*
X75086Y-76930D01*
X75119Y-76897D01*
X75137Y-76854D01*
X75137Y-76807D01*
X75137Y-76490D01*
X75322Y-76306D01*
X75360Y-76248D01*
X75374Y-76181D01*
X75374Y-80964D01*
X75105Y-80964D01*
X75105Y-79245D01*
X75105Y-79194D01*
X75105Y-78998D01*
X75105Y-78947D01*
X75081Y-78889D01*
X75038Y-78846D01*
X75081Y-78803D01*
X75105Y-78745D01*
X75105Y-78694D01*
X75105Y-78498D01*
X75105Y-78447D01*
X75081Y-78389D01*
X75038Y-78346D01*
X75081Y-78303D01*
X75105Y-78245D01*
X75105Y-78194D01*
X75065Y-78155D01*
X74809Y-78155D01*
X74809Y-78332D01*
X74823Y-78346D01*
X74809Y-78360D01*
X74809Y-78537D01*
X75065Y-78537D01*
X75105Y-78498D01*
X75105Y-78694D01*
X75065Y-78655D01*
X74809Y-78655D01*
X74809Y-78832D01*
X74823Y-78846D01*
X74809Y-78860D01*
X74809Y-79037D01*
X75065Y-79037D01*
X75105Y-78998D01*
X75105Y-79194D01*
X75065Y-79155D01*
X74809Y-79155D01*
X74809Y-79332D01*
X74849Y-79371D01*
X74916Y-79371D01*
X74978Y-79371D01*
X75036Y-79347D01*
X75081Y-79303D01*
X75105Y-79245D01*
X75105Y-80964D01*
X74534Y-80964D01*
X74534Y-79332D01*
X74534Y-79155D01*
X74534Y-79037D01*
X74534Y-78860D01*
X74520Y-78846D01*
X74534Y-78832D01*
X74534Y-78655D01*
X74534Y-78537D01*
X74534Y-78360D01*
X74520Y-78346D01*
X74534Y-78332D01*
X74534Y-78155D01*
X74278Y-78155D01*
X74239Y-78194D01*
X74239Y-78245D01*
X74263Y-78303D01*
X74305Y-78346D01*
X74263Y-78389D01*
X74239Y-78447D01*
X74239Y-78498D01*
X74278Y-78537D01*
X74534Y-78537D01*
X74534Y-78655D01*
X74278Y-78655D01*
X74239Y-78694D01*
X74239Y-78745D01*
X74263Y-78803D01*
X74305Y-78846D01*
X74263Y-78889D01*
X74239Y-78947D01*
X74239Y-78998D01*
X74278Y-79037D01*
X74534Y-79037D01*
X74534Y-79155D01*
X74278Y-79155D01*
X74239Y-79194D01*
X74239Y-79245D01*
X74263Y-79303D01*
X74307Y-79347D01*
X74365Y-79371D01*
X74427Y-79371D01*
X74494Y-79371D01*
X74534Y-79332D01*
X74534Y-80964D01*
X74446Y-80964D01*
X74446Y-80227D01*
X74446Y-80164D01*
X74446Y-80098D01*
X74446Y-79744D01*
X74446Y-79677D01*
X74446Y-79614D01*
X74422Y-79557D01*
X74378Y-79512D01*
X74320Y-79488D01*
X74241Y-79488D01*
X74201Y-79528D01*
X74201Y-79783D01*
X74407Y-79783D01*
X74446Y-79744D01*
X74446Y-80098D01*
X74407Y-80058D01*
X74201Y-80058D01*
X74201Y-80314D01*
X74241Y-80353D01*
X74320Y-80353D01*
X74378Y-80329D01*
X74422Y-80285D01*
X74446Y-80227D01*
X74446Y-80964D01*
X74026Y-80964D01*
X74026Y-80314D01*
X74026Y-80058D01*
X74026Y-79783D01*
X74026Y-79528D01*
X73987Y-79488D01*
X73907Y-79488D01*
X73849Y-79512D01*
X73805Y-79557D01*
X73781Y-79614D01*
X73781Y-79677D01*
X73781Y-79744D01*
X73821Y-79783D01*
X74026Y-79783D01*
X74026Y-80058D01*
X73821Y-80058D01*
X73781Y-80098D01*
X73781Y-80164D01*
X73781Y-80227D01*
X73805Y-80285D01*
X73849Y-80329D01*
X73907Y-80353D01*
X73987Y-80353D01*
X74026Y-80314D01*
X74026Y-80964D01*
X73423Y-80964D01*
X73423Y-80219D01*
X73423Y-80172D01*
X73423Y-79622D01*
X73405Y-79579D01*
X73371Y-79546D01*
X73328Y-79528D01*
X73281Y-79528D01*
X72931Y-79528D01*
X72888Y-79546D01*
X72854Y-79579D01*
X72836Y-79622D01*
X72836Y-79669D01*
X72836Y-79744D01*
X72612Y-79744D01*
X72512Y-79643D01*
X72512Y-79572D01*
X72471Y-79474D01*
X72396Y-79398D01*
X72297Y-79357D01*
X72226Y-79357D01*
X72125Y-79257D01*
X72125Y-78911D01*
X72226Y-78811D01*
X72229Y-78814D01*
X72273Y-78832D01*
X72320Y-78832D01*
X72871Y-78832D01*
X72914Y-78814D01*
X72947Y-78781D01*
X72965Y-78737D01*
X72965Y-78690D01*
X72965Y-78454D01*
X72947Y-78411D01*
X72914Y-78378D01*
X72888Y-78367D01*
X72936Y-78347D01*
X72981Y-78303D01*
X73005Y-78245D01*
X73005Y-78194D01*
X73005Y-77998D01*
X73005Y-77947D01*
X72981Y-77889D01*
X72938Y-77846D01*
X72981Y-77803D01*
X73005Y-77745D01*
X73005Y-77694D01*
X73005Y-77498D01*
X73005Y-77447D01*
X72981Y-77389D01*
X72936Y-77344D01*
X72878Y-77320D01*
X72816Y-77320D01*
X72749Y-77320D01*
X72709Y-77360D01*
X72709Y-77537D01*
X72965Y-77537D01*
X73005Y-77498D01*
X73005Y-77694D01*
X72965Y-77655D01*
X72709Y-77655D01*
X72709Y-77832D01*
X72723Y-77846D01*
X72709Y-77860D01*
X72709Y-78037D01*
X72965Y-78037D01*
X73005Y-77998D01*
X73005Y-78194D01*
X72965Y-78155D01*
X72709Y-78155D01*
X72709Y-78214D01*
X72434Y-78214D01*
X72434Y-78155D01*
X72434Y-78037D01*
X72434Y-77860D01*
X72420Y-77846D01*
X72434Y-77832D01*
X72434Y-77655D01*
X72434Y-77537D01*
X72434Y-77360D01*
X72394Y-77320D01*
X72327Y-77320D01*
X72265Y-77320D01*
X72207Y-77344D01*
X72163Y-77389D01*
X72139Y-77447D01*
X72139Y-77498D01*
X72178Y-77537D01*
X72434Y-77537D01*
X72434Y-77655D01*
X72178Y-77655D01*
X72139Y-77694D01*
X72139Y-77745D01*
X72163Y-77803D01*
X72205Y-77846D01*
X72163Y-77889D01*
X72139Y-77947D01*
X72139Y-77998D01*
X72178Y-78037D01*
X72434Y-78037D01*
X72434Y-78155D01*
X72178Y-78155D01*
X72139Y-78194D01*
X72139Y-78245D01*
X72163Y-78303D01*
X72207Y-78347D01*
X72255Y-78367D01*
X72229Y-78378D01*
X72196Y-78411D01*
X72193Y-78419D01*
X72190Y-78419D01*
X72123Y-78432D01*
X72065Y-78471D01*
X71823Y-78713D01*
X71785Y-78770D01*
X71771Y-78838D01*
X71771Y-79330D01*
X71785Y-79398D01*
X71823Y-79455D01*
X71975Y-79608D01*
X71975Y-79679D01*
X72016Y-79777D01*
X72092Y-79853D01*
X72190Y-79894D01*
X72261Y-79894D01*
X72414Y-80046D01*
X72471Y-80084D01*
X72471Y-80084D01*
X72539Y-80098D01*
X72836Y-80098D01*
X72836Y-80219D01*
X72854Y-80263D01*
X72888Y-80296D01*
X72931Y-80314D01*
X72978Y-80314D01*
X73328Y-80314D01*
X73371Y-80296D01*
X73405Y-80263D01*
X73423Y-80219D01*
X73423Y-80964D01*
X71645Y-80964D01*
X71645Y-78198D01*
X71532Y-77923D01*
X71321Y-77712D01*
X71047Y-77598D01*
X70854Y-77598D01*
X70854Y-72203D01*
X70854Y-72149D01*
X70854Y-71945D01*
X70854Y-71890D01*
X70830Y-71833D01*
X70786Y-71788D01*
X70728Y-71764D01*
X70666Y-71764D01*
X70624Y-71764D01*
X70584Y-71804D01*
X70584Y-71984D01*
X70815Y-71984D01*
X70854Y-71945D01*
X70854Y-72149D01*
X70815Y-72109D01*
X70584Y-72109D01*
X70584Y-72290D01*
X70624Y-72329D01*
X70666Y-72329D01*
X70728Y-72329D01*
X70786Y-72305D01*
X70830Y-72261D01*
X70854Y-72203D01*
X70854Y-77598D01*
X70754Y-77598D01*
X70754Y-73878D01*
X70754Y-73815D01*
X70754Y-73773D01*
X70754Y-73470D01*
X70754Y-73428D01*
X70754Y-73365D01*
X70730Y-73307D01*
X70686Y-73263D01*
X70628Y-73239D01*
X70574Y-73239D01*
X70534Y-73278D01*
X70534Y-73509D01*
X70715Y-73509D01*
X70754Y-73470D01*
X70754Y-73773D01*
X70715Y-73734D01*
X70534Y-73734D01*
X70534Y-73965D01*
X70574Y-74004D01*
X70628Y-74004D01*
X70686Y-73980D01*
X70730Y-73936D01*
X70754Y-73878D01*
X70754Y-77598D01*
X70749Y-77598D01*
X70474Y-77711D01*
X70409Y-77776D01*
X70409Y-73965D01*
X70409Y-73734D01*
X70409Y-73509D01*
X70409Y-73278D01*
X70370Y-73239D01*
X70359Y-73239D01*
X70359Y-72290D01*
X70359Y-72109D01*
X70359Y-71984D01*
X70359Y-71804D01*
X70320Y-71764D01*
X70278Y-71764D01*
X70216Y-71764D01*
X70158Y-71788D01*
X70113Y-71833D01*
X70089Y-71890D01*
X70089Y-71945D01*
X70129Y-71984D01*
X70359Y-71984D01*
X70359Y-72109D01*
X70129Y-72109D01*
X70089Y-72149D01*
X70089Y-72203D01*
X70113Y-72261D01*
X70158Y-72305D01*
X70216Y-72329D01*
X70278Y-72329D01*
X70320Y-72329D01*
X70359Y-72290D01*
X70359Y-73239D01*
X70316Y-73239D01*
X70258Y-73263D01*
X70213Y-73307D01*
X70189Y-73365D01*
X70189Y-73428D01*
X70189Y-73470D01*
X70229Y-73509D01*
X70409Y-73509D01*
X70409Y-73734D01*
X70229Y-73734D01*
X70189Y-73773D01*
X70189Y-73815D01*
X70189Y-73878D01*
X70213Y-73936D01*
X70258Y-73980D01*
X70316Y-74004D01*
X70370Y-74004D01*
X70409Y-73965D01*
X70409Y-77776D01*
X70263Y-77922D01*
X70196Y-78083D01*
X70196Y-76181D01*
X70196Y-75080D01*
X70172Y-74960D01*
X70120Y-74881D01*
X70120Y-74752D01*
X70048Y-74579D01*
X69928Y-74458D01*
X69928Y-73870D01*
X69928Y-73823D01*
X69928Y-73373D01*
X69923Y-73361D01*
X69923Y-73010D01*
X69923Y-72947D01*
X69923Y-72880D01*
X69883Y-72841D01*
X69706Y-72841D01*
X69706Y-73097D01*
X69746Y-73136D01*
X69796Y-73136D01*
X69854Y-73112D01*
X69899Y-73068D01*
X69923Y-73010D01*
X69923Y-73361D01*
X69910Y-73330D01*
X69876Y-73296D01*
X69833Y-73278D01*
X69786Y-73278D01*
X69536Y-73278D01*
X69493Y-73296D01*
X69459Y-73330D01*
X69441Y-73373D01*
X69441Y-73420D01*
X69441Y-73444D01*
X69364Y-73444D01*
X69324Y-73404D01*
X69324Y-73082D01*
X69332Y-73079D01*
X69365Y-73045D01*
X69376Y-73020D01*
X69396Y-73068D01*
X69440Y-73112D01*
X69498Y-73136D01*
X69549Y-73136D01*
X69588Y-73097D01*
X69588Y-72841D01*
X69529Y-72841D01*
X69529Y-72565D01*
X69588Y-72565D01*
X69588Y-72538D01*
X69706Y-72538D01*
X69706Y-72565D01*
X69883Y-72565D01*
X69923Y-72526D01*
X69923Y-72459D01*
X69923Y-72396D01*
X69899Y-72338D01*
X69854Y-72294D01*
X69823Y-72281D01*
X69842Y-72235D01*
X69842Y-72173D01*
X69842Y-71850D01*
X69803Y-71811D01*
X69055Y-71811D01*
X69055Y-71818D01*
X68740Y-71818D01*
X68740Y-71811D01*
X67992Y-71811D01*
X67952Y-71850D01*
X67952Y-72173D01*
X67952Y-72235D01*
X67976Y-72293D01*
X67996Y-72313D01*
X67962Y-72327D01*
X67929Y-72361D01*
X67911Y-72404D01*
X67911Y-72451D01*
X67911Y-72526D01*
X67755Y-72526D01*
X67755Y-72351D01*
X67755Y-72272D01*
X67755Y-72018D01*
X67755Y-71939D01*
X67731Y-71881D01*
X67687Y-71837D01*
X67629Y-71813D01*
X67566Y-71813D01*
X67499Y-71813D01*
X67460Y-71852D01*
X67460Y-72058D01*
X67715Y-72058D01*
X67755Y-72018D01*
X67755Y-72272D01*
X67715Y-72233D01*
X67460Y-72233D01*
X67460Y-72438D01*
X67499Y-72478D01*
X67566Y-72478D01*
X67629Y-72478D01*
X67687Y-72454D01*
X67731Y-72409D01*
X67755Y-72351D01*
X67755Y-72526D01*
X67650Y-72526D01*
X67582Y-72539D01*
X67525Y-72578D01*
X67197Y-72906D01*
X67185Y-72924D01*
X67185Y-72438D01*
X67185Y-72233D01*
X67185Y-72058D01*
X67185Y-71852D01*
X67145Y-71813D01*
X67079Y-71813D01*
X67016Y-71813D01*
X66958Y-71837D01*
X66914Y-71881D01*
X66890Y-71939D01*
X66890Y-72018D01*
X66929Y-72058D01*
X67185Y-72058D01*
X67185Y-72233D01*
X66929Y-72233D01*
X66890Y-72272D01*
X66890Y-72351D01*
X66914Y-72409D01*
X66958Y-72454D01*
X67016Y-72478D01*
X67079Y-72478D01*
X67145Y-72478D01*
X67185Y-72438D01*
X67185Y-72924D01*
X67159Y-72963D01*
X67145Y-73031D01*
X67145Y-73290D01*
X67130Y-73296D01*
X67097Y-73330D01*
X67079Y-73373D01*
X67079Y-73420D01*
X67079Y-73870D01*
X67097Y-73913D01*
X67130Y-73947D01*
X67174Y-73965D01*
X67221Y-73965D01*
X67471Y-73965D01*
X67514Y-73947D01*
X67547Y-73913D01*
X67565Y-73870D01*
X67565Y-73823D01*
X67565Y-73373D01*
X67547Y-73330D01*
X67514Y-73296D01*
X67500Y-73290D01*
X67500Y-73104D01*
X67724Y-72880D01*
X67911Y-72880D01*
X67911Y-73002D01*
X67929Y-73045D01*
X67962Y-73079D01*
X68006Y-73097D01*
X68053Y-73097D01*
X68289Y-73097D01*
X68332Y-73079D01*
X68365Y-73045D01*
X68376Y-73020D01*
X68396Y-73068D01*
X68440Y-73112D01*
X68498Y-73136D01*
X68549Y-73136D01*
X68588Y-73097D01*
X68588Y-72841D01*
X68529Y-72841D01*
X68529Y-72565D01*
X68588Y-72565D01*
X68588Y-72538D01*
X68706Y-72538D01*
X68706Y-72565D01*
X68765Y-72565D01*
X68765Y-72841D01*
X68706Y-72841D01*
X68706Y-73097D01*
X68746Y-73136D01*
X68796Y-73136D01*
X68854Y-73112D01*
X68899Y-73068D01*
X68918Y-73020D01*
X68929Y-73045D01*
X68962Y-73079D01*
X68970Y-73082D01*
X68970Y-73478D01*
X68983Y-73546D01*
X69022Y-73603D01*
X69166Y-73747D01*
X69223Y-73785D01*
X69223Y-73785D01*
X69291Y-73799D01*
X69441Y-73799D01*
X69441Y-73870D01*
X69459Y-73913D01*
X69493Y-73947D01*
X69536Y-73965D01*
X69583Y-73965D01*
X69833Y-73965D01*
X69876Y-73947D01*
X69910Y-73913D01*
X69928Y-73870D01*
X69928Y-74458D01*
X69915Y-74446D01*
X69742Y-74374D01*
X69554Y-74373D01*
X69380Y-74445D01*
X69247Y-74578D01*
X69175Y-74752D01*
X69175Y-74940D01*
X69246Y-75113D01*
X69379Y-75246D01*
X69553Y-75318D01*
X69566Y-75318D01*
X69566Y-75624D01*
X69548Y-75579D01*
X69415Y-75446D01*
X69242Y-75374D01*
X69120Y-75373D01*
X69120Y-74752D01*
X69048Y-74579D01*
X68915Y-74446D01*
X68742Y-74374D01*
X68554Y-74373D01*
X68392Y-74440D01*
X68392Y-73878D01*
X68392Y-73815D01*
X68392Y-73773D01*
X68392Y-73470D01*
X68392Y-73428D01*
X68392Y-73365D01*
X68368Y-73307D01*
X68324Y-73263D01*
X68266Y-73239D01*
X68212Y-73239D01*
X68172Y-73278D01*
X68172Y-73509D01*
X68353Y-73509D01*
X68392Y-73470D01*
X68392Y-73773D01*
X68353Y-73734D01*
X68172Y-73734D01*
X68172Y-73965D01*
X68212Y-74004D01*
X68266Y-74004D01*
X68324Y-73980D01*
X68368Y-73936D01*
X68392Y-73878D01*
X68392Y-74440D01*
X68380Y-74445D01*
X68247Y-74578D01*
X68175Y-74752D01*
X68175Y-74940D01*
X68246Y-75113D01*
X68379Y-75246D01*
X68553Y-75318D01*
X68741Y-75318D01*
X68914Y-75247D01*
X69047Y-75114D01*
X69119Y-74940D01*
X69120Y-74752D01*
X69120Y-75373D01*
X69054Y-75373D01*
X68880Y-75445D01*
X68747Y-75578D01*
X68675Y-75752D01*
X68675Y-75940D01*
X68746Y-76113D01*
X68879Y-76246D01*
X68911Y-76259D01*
X68047Y-76259D01*
X68047Y-73965D01*
X68047Y-73734D01*
X68047Y-73509D01*
X68047Y-73278D01*
X68008Y-73239D01*
X67953Y-73239D01*
X67896Y-73263D01*
X67851Y-73307D01*
X67827Y-73365D01*
X67827Y-73428D01*
X67827Y-73470D01*
X67867Y-73509D01*
X68047Y-73509D01*
X68047Y-73734D01*
X67867Y-73734D01*
X67827Y-73773D01*
X67827Y-73815D01*
X67827Y-73878D01*
X67851Y-73936D01*
X67896Y-73980D01*
X67953Y-74004D01*
X68008Y-74004D01*
X68047Y-73965D01*
X68047Y-76259D01*
X67846Y-76259D01*
X67744Y-76157D01*
X67642Y-76089D01*
X67522Y-76065D01*
X66524Y-76065D01*
X66524Y-72203D01*
X66524Y-72149D01*
X66524Y-71945D01*
X66524Y-71890D01*
X66500Y-71833D01*
X66455Y-71788D01*
X66398Y-71764D01*
X66335Y-71764D01*
X66293Y-71764D01*
X66254Y-71804D01*
X66254Y-71984D01*
X66484Y-71984D01*
X66524Y-71945D01*
X66524Y-72149D01*
X66484Y-72109D01*
X66254Y-72109D01*
X66254Y-72290D01*
X66293Y-72329D01*
X66335Y-72329D01*
X66398Y-72329D01*
X66455Y-72305D01*
X66500Y-72261D01*
X66524Y-72203D01*
X66524Y-76065D01*
X66424Y-76065D01*
X66424Y-73878D01*
X66424Y-73815D01*
X66424Y-73773D01*
X66424Y-73470D01*
X66424Y-73428D01*
X66424Y-73365D01*
X66400Y-73307D01*
X66355Y-73263D01*
X66298Y-73239D01*
X66243Y-73239D01*
X66204Y-73278D01*
X66204Y-73509D01*
X66384Y-73509D01*
X66424Y-73470D01*
X66424Y-73773D01*
X66384Y-73734D01*
X66204Y-73734D01*
X66204Y-73965D01*
X66243Y-74004D01*
X66298Y-74004D01*
X66355Y-73980D01*
X66400Y-73936D01*
X66424Y-73878D01*
X66424Y-76065D01*
X66079Y-76065D01*
X66079Y-73965D01*
X66079Y-73734D01*
X66079Y-73509D01*
X66079Y-73278D01*
X66039Y-73239D01*
X66029Y-73239D01*
X66029Y-72290D01*
X66029Y-72109D01*
X66029Y-71984D01*
X66029Y-71804D01*
X65989Y-71764D01*
X65948Y-71764D01*
X65885Y-71764D01*
X65827Y-71788D01*
X65783Y-71833D01*
X65759Y-71890D01*
X65759Y-71945D01*
X65798Y-71984D01*
X66029Y-71984D01*
X66029Y-72109D01*
X65798Y-72109D01*
X65759Y-72149D01*
X65759Y-72203D01*
X65783Y-72261D01*
X65827Y-72305D01*
X65885Y-72329D01*
X65948Y-72329D01*
X65989Y-72329D01*
X66029Y-72290D01*
X66029Y-73239D01*
X65985Y-73239D01*
X65927Y-73263D01*
X65883Y-73307D01*
X65859Y-73365D01*
X65859Y-73428D01*
X65859Y-73470D01*
X65898Y-73509D01*
X66079Y-73509D01*
X66079Y-73734D01*
X65898Y-73734D01*
X65859Y-73773D01*
X65859Y-73815D01*
X65859Y-73878D01*
X65883Y-73936D01*
X65927Y-73980D01*
X65985Y-74004D01*
X66039Y-74004D01*
X66079Y-73965D01*
X66079Y-76065D01*
X65597Y-76065D01*
X65597Y-73870D01*
X65597Y-73823D01*
X65597Y-73373D01*
X65592Y-73361D01*
X65592Y-73010D01*
X65592Y-72947D01*
X65592Y-72880D01*
X65553Y-72841D01*
X65375Y-72841D01*
X65375Y-73097D01*
X65415Y-73136D01*
X65466Y-73136D01*
X65524Y-73112D01*
X65568Y-73068D01*
X65592Y-73010D01*
X65592Y-73361D01*
X65579Y-73330D01*
X65546Y-73296D01*
X65502Y-73278D01*
X65455Y-73278D01*
X65205Y-73278D01*
X65162Y-73296D01*
X65129Y-73330D01*
X65111Y-73373D01*
X65111Y-73420D01*
X65111Y-73444D01*
X65034Y-73444D01*
X64994Y-73404D01*
X64994Y-73082D01*
X65001Y-73079D01*
X65035Y-73045D01*
X65045Y-73020D01*
X65065Y-73068D01*
X65109Y-73112D01*
X65167Y-73136D01*
X65218Y-73136D01*
X65257Y-73097D01*
X65257Y-72841D01*
X65198Y-72841D01*
X65198Y-72565D01*
X65257Y-72565D01*
X65257Y-72538D01*
X65375Y-72538D01*
X65375Y-72565D01*
X65553Y-72565D01*
X65592Y-72526D01*
X65592Y-72459D01*
X65592Y-72396D01*
X65568Y-72338D01*
X65524Y-72294D01*
X65492Y-72281D01*
X65511Y-72235D01*
X65511Y-72173D01*
X65511Y-71850D01*
X65472Y-71811D01*
X64724Y-71811D01*
X64724Y-71818D01*
X64409Y-71818D01*
X64409Y-71811D01*
X63661Y-71811D01*
X63621Y-71850D01*
X63621Y-72173D01*
X63621Y-72235D01*
X63645Y-72293D01*
X63666Y-72313D01*
X63632Y-72327D01*
X63598Y-72361D01*
X63580Y-72404D01*
X63580Y-72451D01*
X63580Y-72526D01*
X63424Y-72526D01*
X63424Y-72351D01*
X63424Y-72272D01*
X63424Y-72018D01*
X63424Y-71939D01*
X63400Y-71881D01*
X63356Y-71837D01*
X63298Y-71813D01*
X63235Y-71813D01*
X63168Y-71813D01*
X63129Y-71852D01*
X63129Y-72058D01*
X63385Y-72058D01*
X63424Y-72018D01*
X63424Y-72272D01*
X63385Y-72233D01*
X63129Y-72233D01*
X63129Y-72438D01*
X63168Y-72478D01*
X63235Y-72478D01*
X63298Y-72478D01*
X63356Y-72454D01*
X63400Y-72409D01*
X63424Y-72351D01*
X63424Y-72526D01*
X63320Y-72526D01*
X63252Y-72539D01*
X63194Y-72578D01*
X62866Y-72906D01*
X62854Y-72924D01*
X62854Y-72438D01*
X62854Y-72233D01*
X62854Y-72058D01*
X62854Y-71852D01*
X62815Y-71813D01*
X62748Y-71813D01*
X62685Y-71813D01*
X62627Y-71837D01*
X62583Y-71881D01*
X62559Y-71939D01*
X62559Y-72018D01*
X62599Y-72058D01*
X62854Y-72058D01*
X62854Y-72233D01*
X62599Y-72233D01*
X62559Y-72272D01*
X62559Y-72351D01*
X62583Y-72409D01*
X62627Y-72454D01*
X62685Y-72478D01*
X62748Y-72478D01*
X62815Y-72478D01*
X62854Y-72438D01*
X62854Y-72924D01*
X62828Y-72963D01*
X62814Y-73031D01*
X62814Y-73290D01*
X62800Y-73296D01*
X62766Y-73330D01*
X62749Y-73373D01*
X62749Y-73420D01*
X62749Y-73870D01*
X62766Y-73913D01*
X62800Y-73947D01*
X62843Y-73965D01*
X62890Y-73965D01*
X63140Y-73965D01*
X63184Y-73947D01*
X63217Y-73913D01*
X63235Y-73870D01*
X63235Y-73823D01*
X63235Y-73373D01*
X63217Y-73330D01*
X63184Y-73296D01*
X63169Y-73290D01*
X63169Y-73104D01*
X63393Y-72880D01*
X63580Y-72880D01*
X63580Y-73002D01*
X63598Y-73045D01*
X63632Y-73079D01*
X63675Y-73097D01*
X63722Y-73097D01*
X63958Y-73097D01*
X64001Y-73079D01*
X64035Y-73045D01*
X64045Y-73020D01*
X64065Y-73068D01*
X64109Y-73112D01*
X64167Y-73136D01*
X64218Y-73136D01*
X64257Y-73097D01*
X64257Y-72841D01*
X64198Y-72841D01*
X64198Y-72565D01*
X64257Y-72565D01*
X64257Y-72538D01*
X64375Y-72538D01*
X64375Y-72565D01*
X64434Y-72565D01*
X64434Y-72841D01*
X64375Y-72841D01*
X64375Y-73097D01*
X64415Y-73136D01*
X64466Y-73136D01*
X64524Y-73112D01*
X64568Y-73068D01*
X64588Y-73020D01*
X64598Y-73045D01*
X64632Y-73079D01*
X64639Y-73082D01*
X64639Y-73478D01*
X64653Y-73546D01*
X64691Y-73603D01*
X64835Y-73747D01*
X64892Y-73785D01*
X64892Y-73785D01*
X64960Y-73799D01*
X65111Y-73799D01*
X65111Y-73870D01*
X65129Y-73913D01*
X65162Y-73947D01*
X65205Y-73965D01*
X65252Y-73965D01*
X65502Y-73965D01*
X65546Y-73947D01*
X65579Y-73913D01*
X65597Y-73870D01*
X65597Y-76065D01*
X65551Y-76065D01*
X65551Y-75186D01*
X65551Y-74997D01*
X65551Y-74603D01*
X65551Y-74414D01*
X65527Y-74356D01*
X65482Y-74312D01*
X65424Y-74288D01*
X65362Y-74288D01*
X65157Y-74288D01*
X65118Y-74327D01*
X65118Y-74643D01*
X65511Y-74643D01*
X65551Y-74603D01*
X65551Y-74997D01*
X65511Y-74958D01*
X65118Y-74958D01*
X65118Y-75273D01*
X65157Y-75312D01*
X65362Y-75312D01*
X65424Y-75312D01*
X65482Y-75288D01*
X65527Y-75244D01*
X65551Y-75186D01*
X65551Y-76065D01*
X65511Y-76065D01*
X65511Y-76002D01*
X65493Y-75959D01*
X65460Y-75925D01*
X65417Y-75907D01*
X65370Y-75907D01*
X64803Y-75907D01*
X64803Y-75273D01*
X64803Y-74958D01*
X64803Y-74643D01*
X64803Y-74327D01*
X64763Y-74288D01*
X64558Y-74288D01*
X64496Y-74288D01*
X64438Y-74312D01*
X64394Y-74356D01*
X64370Y-74414D01*
X64370Y-74603D01*
X64409Y-74643D01*
X64803Y-74643D01*
X64803Y-74958D01*
X64409Y-74958D01*
X64370Y-74997D01*
X64370Y-75186D01*
X64394Y-75244D01*
X64438Y-75288D01*
X64496Y-75312D01*
X64558Y-75312D01*
X64763Y-75312D01*
X64803Y-75273D01*
X64803Y-75907D01*
X64504Y-75907D01*
X64460Y-75925D01*
X64427Y-75959D01*
X64409Y-76002D01*
X64409Y-76049D01*
X64409Y-76486D01*
X64387Y-76507D01*
X64319Y-76610D01*
X64295Y-76730D01*
X64295Y-77381D01*
X64062Y-77381D01*
X64062Y-73878D01*
X64062Y-73815D01*
X64062Y-73773D01*
X64062Y-73470D01*
X64062Y-73428D01*
X64062Y-73365D01*
X64038Y-73307D01*
X63993Y-73263D01*
X63935Y-73239D01*
X63881Y-73239D01*
X63842Y-73278D01*
X63842Y-73509D01*
X64022Y-73509D01*
X64062Y-73470D01*
X64062Y-73773D01*
X64022Y-73734D01*
X63842Y-73734D01*
X63842Y-73965D01*
X63881Y-74004D01*
X63935Y-74004D01*
X63993Y-73980D01*
X64038Y-73936D01*
X64062Y-73878D01*
X64062Y-77381D01*
X63768Y-77381D01*
X63768Y-76140D01*
X63768Y-76086D01*
X63768Y-75882D01*
X63768Y-75827D01*
X63744Y-75770D01*
X63717Y-75742D01*
X63717Y-73965D01*
X63717Y-73734D01*
X63717Y-73509D01*
X63717Y-73278D01*
X63677Y-73239D01*
X63623Y-73239D01*
X63565Y-73263D01*
X63521Y-73307D01*
X63497Y-73365D01*
X63497Y-73428D01*
X63497Y-73470D01*
X63536Y-73509D01*
X63717Y-73509D01*
X63717Y-73734D01*
X63536Y-73734D01*
X63497Y-73773D01*
X63497Y-73815D01*
X63497Y-73878D01*
X63521Y-73936D01*
X63565Y-73980D01*
X63623Y-74004D01*
X63677Y-74004D01*
X63717Y-73965D01*
X63717Y-75742D01*
X63700Y-75725D01*
X63642Y-75701D01*
X63579Y-75701D01*
X63537Y-75701D01*
X63498Y-75741D01*
X63498Y-75921D01*
X63728Y-75921D01*
X63768Y-75882D01*
X63768Y-76086D01*
X63728Y-76046D01*
X63498Y-76046D01*
X63498Y-76227D01*
X63537Y-76266D01*
X63579Y-76266D01*
X63642Y-76266D01*
X63700Y-76242D01*
X63744Y-76198D01*
X63768Y-76140D01*
X63768Y-77381D01*
X63717Y-77381D01*
X63710Y-77367D01*
X63677Y-77333D01*
X63634Y-77315D01*
X63587Y-77315D01*
X63137Y-77315D01*
X63093Y-77333D01*
X63060Y-77367D01*
X63042Y-77410D01*
X63042Y-77457D01*
X63042Y-77707D01*
X63060Y-77750D01*
X63093Y-77784D01*
X63137Y-77802D01*
X63184Y-77802D01*
X63634Y-77802D01*
X63677Y-77784D01*
X63710Y-77750D01*
X63717Y-77736D01*
X64312Y-77736D01*
X64312Y-77756D01*
X64320Y-77775D01*
X64173Y-77775D01*
X64105Y-77789D01*
X64047Y-77827D01*
X63713Y-78161D01*
X63710Y-78154D01*
X63677Y-78121D01*
X63634Y-78103D01*
X63587Y-78103D01*
X63137Y-78103D01*
X63093Y-78121D01*
X63060Y-78154D01*
X63057Y-78161D01*
X62972Y-78076D01*
X62972Y-77041D01*
X63057Y-76956D01*
X63060Y-76963D01*
X63093Y-76996D01*
X63137Y-77014D01*
X63184Y-77014D01*
X63634Y-77014D01*
X63677Y-76996D01*
X63710Y-76963D01*
X63728Y-76920D01*
X63728Y-76873D01*
X63728Y-76623D01*
X63710Y-76579D01*
X63677Y-76546D01*
X63634Y-76528D01*
X63587Y-76528D01*
X63273Y-76528D01*
X63273Y-76227D01*
X63273Y-76046D01*
X63273Y-75921D01*
X63273Y-75741D01*
X63233Y-75701D01*
X63192Y-75701D01*
X63129Y-75701D01*
X63071Y-75725D01*
X63027Y-75770D01*
X63003Y-75827D01*
X63003Y-75882D01*
X63042Y-75921D01*
X63273Y-75921D01*
X63273Y-76046D01*
X63042Y-76046D01*
X63003Y-76086D01*
X63003Y-76140D01*
X63027Y-76198D01*
X63071Y-76242D01*
X63129Y-76266D01*
X63192Y-76266D01*
X63233Y-76266D01*
X63273Y-76227D01*
X63273Y-76528D01*
X63137Y-76528D01*
X63093Y-76546D01*
X63060Y-76579D01*
X63054Y-76594D01*
X62992Y-76594D01*
X62924Y-76607D01*
X62866Y-76646D01*
X62670Y-76843D01*
X62631Y-76900D01*
X62618Y-76968D01*
X62618Y-78149D01*
X62631Y-78217D01*
X62670Y-78274D01*
X62866Y-78471D01*
X62924Y-78510D01*
X62924Y-78510D01*
X62992Y-78523D01*
X63054Y-78523D01*
X63060Y-78538D01*
X63093Y-78571D01*
X63137Y-78589D01*
X63184Y-78589D01*
X63634Y-78589D01*
X63677Y-78571D01*
X63710Y-78538D01*
X63717Y-78523D01*
X63779Y-78523D01*
X63847Y-78510D01*
X63847Y-78510D01*
X63904Y-78471D01*
X64246Y-78129D01*
X64670Y-78129D01*
X64662Y-78149D01*
X64662Y-78196D01*
X64662Y-78268D01*
X64645Y-78352D01*
X64645Y-78412D01*
X64442Y-78615D01*
X64442Y-78615D01*
X64149Y-78909D01*
X64087Y-78909D01*
X64043Y-78927D01*
X64010Y-78960D01*
X63992Y-79004D01*
X63992Y-79051D01*
X63992Y-80051D01*
X64010Y-80094D01*
X64043Y-80127D01*
X64087Y-80145D01*
X64134Y-80145D01*
X64634Y-80145D01*
X64677Y-80127D01*
X64710Y-80094D01*
X64728Y-80051D01*
X64728Y-80004D01*
X64728Y-79220D01*
X64888Y-79061D01*
X64888Y-79061D01*
X64888Y-79061D01*
X65183Y-78766D01*
X65183Y-78766D01*
X65251Y-78663D01*
X65275Y-78543D01*
X65275Y-78543D01*
X65275Y-78352D01*
X65258Y-78268D01*
X65258Y-78149D01*
X65240Y-78105D01*
X65207Y-78072D01*
X65164Y-78054D01*
X65117Y-78054D01*
X65059Y-78054D01*
X65263Y-77850D01*
X65514Y-77850D01*
X65557Y-77832D01*
X65590Y-77799D01*
X65608Y-77756D01*
X65608Y-77709D01*
X65608Y-77349D01*
X65590Y-77305D01*
X65557Y-77272D01*
X65514Y-77254D01*
X65467Y-77254D01*
X65107Y-77254D01*
X65063Y-77272D01*
X65030Y-77305D01*
X65012Y-77349D01*
X65012Y-77396D01*
X65012Y-77600D01*
X64908Y-77704D01*
X64908Y-77637D01*
X64925Y-77552D01*
X64925Y-76861D01*
X64933Y-76853D01*
X65417Y-76853D01*
X65460Y-76835D01*
X65493Y-76801D01*
X65511Y-76758D01*
X65511Y-76711D01*
X65511Y-76695D01*
X67391Y-76695D01*
X67493Y-76797D01*
X67596Y-76865D01*
X67716Y-76889D01*
X69488Y-76889D01*
X69488Y-76889D01*
X69608Y-76865D01*
X69710Y-76797D01*
X70104Y-76403D01*
X70104Y-76403D01*
X70172Y-76301D01*
X70196Y-76181D01*
X70196Y-78083D01*
X70149Y-78197D01*
X70149Y-78494D01*
X70263Y-78769D01*
X70473Y-78980D01*
X70748Y-79094D01*
X71045Y-79094D01*
X71320Y-78980D01*
X71531Y-78770D01*
X71645Y-78495D01*
X71645Y-78198D01*
X71645Y-80964D01*
X67645Y-80964D01*
X67645Y-78198D01*
X67532Y-77923D01*
X67321Y-77712D01*
X67047Y-77598D01*
X66749Y-77598D01*
X66474Y-77711D01*
X66263Y-77922D01*
X66149Y-78197D01*
X66149Y-78494D01*
X66263Y-78769D01*
X66473Y-78980D01*
X66748Y-79094D01*
X67045Y-79094D01*
X67320Y-78980D01*
X67531Y-78770D01*
X67645Y-78495D01*
X67645Y-78198D01*
X67645Y-80964D01*
X65968Y-80964D01*
X65968Y-80058D01*
X65968Y-79996D01*
X65968Y-79724D01*
X65968Y-79330D01*
X65968Y-79058D01*
X65968Y-78996D01*
X65944Y-78938D01*
X65899Y-78894D01*
X65841Y-78870D01*
X65725Y-78870D01*
X65685Y-78909D01*
X65685Y-79370D01*
X65928Y-79370D01*
X65968Y-79330D01*
X65968Y-79724D01*
X65928Y-79685D01*
X65685Y-79685D01*
X65685Y-80145D01*
X65725Y-80185D01*
X65841Y-80185D01*
X65899Y-80161D01*
X65944Y-80116D01*
X65968Y-80058D01*
X65968Y-80964D01*
X65435Y-80964D01*
X65435Y-80145D01*
X65435Y-79685D01*
X65435Y-79370D01*
X65435Y-78909D01*
X65396Y-78870D01*
X65279Y-78870D01*
X65221Y-78894D01*
X65177Y-78938D01*
X65153Y-78996D01*
X65153Y-79058D01*
X65153Y-79330D01*
X65192Y-79370D01*
X65435Y-79370D01*
X65435Y-79685D01*
X65192Y-79685D01*
X65153Y-79724D01*
X65153Y-79996D01*
X65153Y-80058D01*
X65177Y-80116D01*
X65221Y-80161D01*
X65279Y-80185D01*
X65396Y-80185D01*
X65435Y-80145D01*
X65435Y-80964D01*
X62126Y-80964D01*
X62126Y-79387D01*
X62093Y-79308D01*
X62093Y-69153D01*
X62093Y-69091D01*
X62093Y-69049D01*
X62093Y-68745D01*
X62093Y-68703D01*
X62093Y-68641D01*
X62069Y-68583D01*
X62025Y-68539D01*
X61967Y-68515D01*
X61912Y-68515D01*
X61873Y-68554D01*
X61873Y-68785D01*
X62054Y-68785D01*
X62093Y-68745D01*
X62093Y-69049D01*
X62054Y-69010D01*
X61873Y-69010D01*
X61873Y-69240D01*
X61912Y-69280D01*
X61967Y-69280D01*
X62025Y-69256D01*
X62069Y-69211D01*
X62093Y-69153D01*
X62093Y-79308D01*
X62018Y-79126D01*
X61819Y-78927D01*
X61748Y-78897D01*
X61748Y-69240D01*
X61748Y-69010D01*
X61686Y-69010D01*
X61686Y-68785D01*
X61748Y-68785D01*
X61748Y-68554D01*
X61709Y-68515D01*
X61654Y-68515D01*
X61596Y-68539D01*
X61552Y-68583D01*
X61535Y-68624D01*
X61535Y-64543D01*
X61517Y-64500D01*
X61484Y-64466D01*
X61440Y-64448D01*
X61393Y-64448D01*
X59425Y-64448D01*
X59381Y-64466D01*
X59348Y-64500D01*
X59330Y-64543D01*
X59330Y-64590D01*
X59330Y-68921D01*
X59348Y-68964D01*
X59381Y-68997D01*
X59425Y-69015D01*
X59472Y-69015D01*
X59527Y-69015D01*
X59527Y-69291D01*
X59551Y-69411D01*
X59619Y-69514D01*
X59721Y-69582D01*
X59842Y-69606D01*
X59963Y-69582D01*
X60065Y-69514D01*
X60133Y-69411D01*
X60137Y-69390D01*
X60142Y-69411D01*
X60210Y-69514D01*
X60312Y-69582D01*
X60433Y-69606D01*
X60553Y-69582D01*
X60655Y-69514D01*
X60724Y-69411D01*
X60728Y-69390D01*
X60732Y-69411D01*
X60800Y-69514D01*
X60903Y-69582D01*
X61023Y-69606D01*
X61144Y-69582D01*
X61246Y-69514D01*
X61314Y-69411D01*
X61338Y-69291D01*
X61338Y-69015D01*
X61440Y-69015D01*
X61484Y-68997D01*
X61517Y-68964D01*
X61528Y-68937D01*
X61528Y-69049D01*
X61528Y-69055D01*
X61528Y-69091D01*
X61528Y-69153D01*
X61552Y-69211D01*
X61596Y-69256D01*
X61654Y-69280D01*
X61709Y-69280D01*
X61748Y-69240D01*
X61748Y-78897D01*
X61732Y-78891D01*
X61732Y-70725D01*
X61624Y-70465D01*
X61425Y-70265D01*
X61165Y-70157D01*
X60883Y-70157D01*
X60622Y-70265D01*
X60423Y-70464D01*
X60315Y-70724D01*
X60314Y-71006D01*
X60422Y-71267D01*
X60621Y-71466D01*
X60882Y-71574D01*
X61163Y-71574D01*
X61424Y-71467D01*
X61624Y-71268D01*
X61732Y-71007D01*
X61732Y-70725D01*
X61732Y-78891D01*
X61558Y-78819D01*
X61276Y-78818D01*
X61016Y-78926D01*
X60816Y-79125D01*
X60708Y-79385D01*
X60708Y-79667D01*
X60816Y-79928D01*
X61015Y-80127D01*
X61275Y-80236D01*
X61557Y-80236D01*
X61818Y-80128D01*
X62017Y-79929D01*
X62125Y-79669D01*
X62126Y-79387D01*
X62126Y-80964D01*
X61430Y-80964D01*
X60868Y-80852D01*
X60403Y-80541D01*
X60092Y-80076D01*
X59980Y-79513D01*
X59980Y-72834D01*
X59971Y-72790D01*
X59969Y-72781D01*
X59969Y-72781D01*
X59939Y-72737D01*
X59192Y-71990D01*
X59192Y-61726D01*
X59207Y-61653D01*
X59240Y-61603D01*
X59291Y-61569D01*
X59350Y-61557D01*
X59409Y-61569D01*
X59459Y-61603D01*
X59493Y-61653D01*
X59507Y-61726D01*
X59507Y-62204D01*
X59518Y-62257D01*
X59548Y-62302D01*
X61713Y-64467D01*
X61758Y-64497D01*
X61811Y-64507D01*
X75984Y-64507D01*
X75984Y-64507D01*
X76036Y-64497D01*
X76081Y-64467D01*
X78247Y-62302D01*
X78247Y-62302D01*
X78276Y-62257D01*
X78287Y-62204D01*
X78287Y-61726D01*
X78301Y-61653D01*
X78335Y-61603D01*
X78385Y-61569D01*
X78444Y-61557D01*
X78504Y-61569D01*
X78554Y-61603D01*
X78587Y-61653D01*
X78602Y-61726D01*
X78602Y-71990D01*
M02*
