M48
;DRILL file {Pcbnew (2013-mar-13)-testing} date Wed 10 Jun 2015 12:09:18 AM EDT
;FORMAT={-:-/ absolute / inch / decimal}
FMAT,2
INCH,TZ
T1C0.015
T2C0.032
T3C0.035
%
G90
G05
M72
T1
X5.9843Y-6.9291
X6.0433Y-6.9291
X6.063Y-7.2835
X6.063Y-7.3622
X6.063Y-7.4409
X6.063Y-7.5197
X6.063Y-7.5984
X6.063Y-7.6772
X6.063Y-7.7559
X6.1024Y-6.9291
X6.2992Y-6.8898
X6.3071Y-6.8425
X6.4567Y-6.6339
X6.4665Y-7.8839
X6.5748Y-7.1654
X6.6929Y-7.3228
X6.6929Y-8.0315
X6.7224Y-6.8898
X6.7323Y-6.9783
X6.7717Y-8.0315
X6.8504Y-8.0315
X6.8799Y-6.9094
X6.8898Y-6.7323
X6.9291Y-8.0315
X7.0079Y-8.0315
X7.0472Y-6.9882
X7.0669Y-7.0472
X7.0866Y-6.9291
X7.0866Y-8.0315
X7.1063Y-7.185
X7.126Y-6.9882
X7.1358Y-6.8307
X7.2244Y-7.9626
X7.3031Y-6.8307
X7.3228Y-6.6339
X7.3819Y-6.998
X7.3819Y-7.4409
X7.4803Y-6.7913
X7.6772Y-6.9291
X7.7165Y-7.2835
X7.7165Y-7.3622
X7.7165Y-7.4409
X7.7165Y-7.5197
X7.7165Y-7.5984
X7.7165Y-7.6772
X7.7165Y-7.7559
X7.7362Y-6.9291
X7.7953Y-6.9291
T2
X6.2205Y-6.5535
X6.2205Y-6.6535
X6.2205Y-6.7535
X7.5591Y-6.5429
X7.5591Y-6.6429
X7.5591Y-6.7429
X7.5591Y-6.8429
T3
X6.8148Y-7.5846
X6.8648Y-7.4846
X6.9148Y-7.5846
X6.9648Y-7.4846
T0
M30
