G04 #@! TF.FileFunction,Soldermask,Top*
%FSLAX46Y46*%
G04 Gerber Fmt 4.6, Leading zero omitted, Abs format (unit mm)*
G04 Created by KiCad (PCBNEW 4.0.7) date Sun Apr  1 13:56:06 2018*
%MOMM*%
%LPD*%
G01*
G04 APERTURE LIST*
%ADD10C,0.150000*%
%ADD11R,5.000000X11.000000*%
%ADD12C,6.000000*%
%ADD13R,0.800000X0.750000*%
%ADD14R,1.250000X1.000000*%
%ADD15R,1.000000X2.500000*%
%ADD16R,2.301240X2.499360*%
%ADD17R,0.797560X0.797560*%
%ADD18R,2.499360X2.301240*%
%ADD19R,2.032000X1.727200*%
%ADD20O,2.032000X1.727200*%
%ADD21R,0.750000X1.300000*%
%ADD22R,1.600000X5.700000*%
%ADD23C,3.200000*%
%ADD24C,1.800000*%
%ADD25R,0.800100X0.800100*%
%ADD26R,0.900000X0.500000*%
%ADD27R,0.500000X0.900000*%
%ADD28R,2.000000X1.600000*%
%ADD29R,1.550000X0.600000*%
%ADD30R,0.600000X1.550000*%
%ADD31R,1.175000X1.175000*%
G04 APERTURE END LIST*
D10*
D11*
X196500000Y-169500000D03*
X153500000Y-169500000D03*
D12*
X156000000Y-199000000D03*
X194000000Y-199000000D03*
X195000000Y-180000000D03*
X155000000Y-180000000D03*
D13*
X186250000Y-203000000D03*
X187750000Y-203000000D03*
D14*
X189500000Y-189500000D03*
X189500000Y-191500000D03*
D13*
X182250000Y-187000000D03*
X183750000Y-187000000D03*
X171500000Y-184800000D03*
X170000000Y-184800000D03*
X160250000Y-187000000D03*
X161750000Y-187000000D03*
D15*
X163500000Y-202000000D03*
X166500000Y-202000000D03*
D14*
X182000000Y-181000000D03*
X182000000Y-183000000D03*
X171000000Y-181000000D03*
X171000000Y-183000000D03*
X160000000Y-181000000D03*
X160000000Y-183000000D03*
D16*
X165000000Y-194148840D03*
X165000000Y-189851160D03*
X185000000Y-194148840D03*
X185000000Y-189851160D03*
D17*
X170498600Y-188500000D03*
X169000000Y-188500000D03*
D18*
X183851160Y-175000000D03*
X188148840Y-175000000D03*
X172851160Y-175000000D03*
X177148840Y-175000000D03*
X161851160Y-175000000D03*
X166148840Y-175000000D03*
D19*
X158000000Y-166460000D03*
D20*
X158000000Y-169000000D03*
X158000000Y-171540000D03*
D21*
X188825000Y-194500000D03*
X190175000Y-194500000D03*
D22*
X188350000Y-169000000D03*
X183650000Y-169000000D03*
X177350000Y-169000000D03*
X172650000Y-169000000D03*
X166350000Y-169000000D03*
X161650000Y-169000000D03*
D23*
X169920000Y-203000000D03*
X180080000Y-203000000D03*
D24*
X173095000Y-196650000D03*
X174365000Y-194110000D03*
X175635000Y-196650000D03*
X176905000Y-194110000D03*
D19*
X192000000Y-173750000D03*
D20*
X192000000Y-171210000D03*
X192000000Y-168670000D03*
X192000000Y-166130000D03*
D25*
X165950000Y-196999240D03*
X164050000Y-196999240D03*
X165000000Y-198998220D03*
D26*
X161000000Y-197250000D03*
X161000000Y-198750000D03*
X161000000Y-194750000D03*
X161000000Y-193250000D03*
D27*
X189750000Y-187000000D03*
X188250000Y-187000000D03*
D26*
X190000000Y-182750000D03*
X190000000Y-181250000D03*
X179000000Y-184250000D03*
X179000000Y-185750000D03*
X179000000Y-182750000D03*
X179000000Y-181250000D03*
D27*
X166250000Y-187000000D03*
X164750000Y-187000000D03*
D26*
X168000000Y-182750000D03*
X168000000Y-181250000D03*
X190500000Y-177250000D03*
X190500000Y-178750000D03*
X180500000Y-177250000D03*
X180500000Y-178750000D03*
X169000000Y-177250000D03*
X169000000Y-178750000D03*
D28*
X175300000Y-188500000D03*
X180700000Y-188500000D03*
D29*
X189700000Y-200905000D03*
X189700000Y-199635000D03*
X189700000Y-198365000D03*
X189700000Y-197095000D03*
X184300000Y-197095000D03*
X184300000Y-198365000D03*
X184300000Y-199635000D03*
X184300000Y-200905000D03*
D30*
X184095000Y-184700000D03*
X185365000Y-184700000D03*
X186635000Y-184700000D03*
X187905000Y-184700000D03*
X187905000Y-179300000D03*
X186635000Y-179300000D03*
X185365000Y-179300000D03*
X184095000Y-179300000D03*
D31*
X186587500Y-181412500D03*
X185412500Y-181412500D03*
X186587500Y-182587500D03*
X185412500Y-182587500D03*
D30*
X173095000Y-184700000D03*
X174365000Y-184700000D03*
X175635000Y-184700000D03*
X176905000Y-184700000D03*
X176905000Y-179300000D03*
X175635000Y-179300000D03*
X174365000Y-179300000D03*
X173095000Y-179300000D03*
D31*
X175587500Y-181412500D03*
X174412500Y-181412500D03*
X175587500Y-182587500D03*
X174412500Y-182587500D03*
D30*
X162095000Y-184700000D03*
X163365000Y-184700000D03*
X164635000Y-184700000D03*
X165905000Y-184700000D03*
X165905000Y-179300000D03*
X164635000Y-179300000D03*
X163365000Y-179300000D03*
X162095000Y-179300000D03*
D31*
X164587500Y-181412500D03*
X163412500Y-181412500D03*
X164587500Y-182587500D03*
X163412500Y-182587500D03*
M02*
