G04 (created by PCBNEW (2013-mar-13)-testing) date Wed 10 Jun 2015 12:09:16 AM EDT*
%MOIN*%
G04 Gerber Fmt 3.4, Leading zero omitted, Abs format*
%FSLAX34Y34*%
G01*
G70*
G90*
G04 APERTURE LIST*
%ADD10C,0.005906*%
%ADD11R,0.196850X0.196850*%
%ADD12R,0.025000X0.045000*%
%ADD13R,0.045000X0.025000*%
%ADD14R,0.055000X0.055000*%
%ADD15C,0.055000*%
%ADD16C,0.070866*%
%ADD17R,0.050000X0.015000*%
%ADD18R,0.031500X0.039400*%
%ADD19R,0.023600X0.055100*%
%ADD20C,0.030000*%
%ADD21C,0.007874*%
%ADD22C,0.039370*%
%ADD23C,0.011811*%
G04 APERTURE END LIST*
G54D10*
G54D11*
X71259Y-65944D03*
X68897Y-65944D03*
X66535Y-65944D03*
G54D12*
X70472Y-71259D03*
X71259Y-71259D03*
G54D13*
X65354Y-69685D03*
X65354Y-68897D03*
G54D14*
X62204Y-67535D03*
G54D15*
X62204Y-66535D03*
X62204Y-65535D03*
G54D16*
X68147Y-75846D03*
X68647Y-74846D03*
X69147Y-75846D03*
X69647Y-74846D03*
G54D14*
X75590Y-68429D03*
G54D15*
X75590Y-67429D03*
X75590Y-66429D03*
X75590Y-65429D03*
G54D13*
X65748Y-72047D03*
X65748Y-72834D03*
G54D12*
X66535Y-71653D03*
X67322Y-71653D03*
G54D13*
X68110Y-72834D03*
X68110Y-72047D03*
X63779Y-69685D03*
X63779Y-68897D03*
G54D17*
X69764Y-68139D03*
X69764Y-68395D03*
X69764Y-68651D03*
X69764Y-68907D03*
X71968Y-70443D03*
X71968Y-70187D03*
X71968Y-68139D03*
X71968Y-68395D03*
X71968Y-68651D03*
X71968Y-68907D03*
X71968Y-69163D03*
X71968Y-69419D03*
X71968Y-69675D03*
X71968Y-69931D03*
X69764Y-70443D03*
X69764Y-70187D03*
X69764Y-69931D03*
X69764Y-69675D03*
X69764Y-69419D03*
X69764Y-69163D03*
G54D18*
X66929Y-73661D03*
X67304Y-72795D03*
X66554Y-72795D03*
G54D19*
X66179Y-70341D03*
X66179Y-68241D03*
X66679Y-70341D03*
X67179Y-70341D03*
X67679Y-70341D03*
X66679Y-68241D03*
X67179Y-68241D03*
X67679Y-68241D03*
G54D20*
X77952Y-69291D03*
X76771Y-69291D03*
X77362Y-69291D03*
X61023Y-69291D03*
X59842Y-69291D03*
X60433Y-69291D03*
X73031Y-68307D03*
X64665Y-78838D03*
X72244Y-79625D03*
X63070Y-68425D03*
X68799Y-69094D03*
X67224Y-68897D03*
X64566Y-66338D03*
X70472Y-69881D03*
X68897Y-67322D03*
X73818Y-69980D03*
X73228Y-66338D03*
X74803Y-67913D03*
X70669Y-70472D03*
X71259Y-69881D03*
X77165Y-76771D03*
X77165Y-75196D03*
X77165Y-73622D03*
X77165Y-72834D03*
X77165Y-74409D03*
X77165Y-75984D03*
X77165Y-77559D03*
X60629Y-76771D03*
X60629Y-74409D03*
X60629Y-72834D03*
X60629Y-73622D03*
X60629Y-75196D03*
X60629Y-75984D03*
X60629Y-77559D03*
X70078Y-80314D03*
X69291Y-80314D03*
X67716Y-80314D03*
X66929Y-80314D03*
X68503Y-80314D03*
X70866Y-80314D03*
X71062Y-71850D03*
X70866Y-69291D03*
X65748Y-71653D03*
X67322Y-69783D03*
X71358Y-68307D03*
X66929Y-73228D03*
X62992Y-68897D03*
X73818Y-74409D03*
G54D21*
X66679Y-68241D02*
X66679Y-68942D01*
X68868Y-70443D02*
X69764Y-70443D01*
X67618Y-69192D02*
X68868Y-70443D01*
X66929Y-69192D02*
X67618Y-69192D01*
X66679Y-68942D02*
X66929Y-69192D01*
X66679Y-68241D02*
X67179Y-68241D01*
X69005Y-70187D02*
X69764Y-70187D01*
X67716Y-68897D02*
X69005Y-70187D01*
X67224Y-68897D02*
X67716Y-68897D01*
X67224Y-68897D02*
X67224Y-68897D01*
G54D22*
X66535Y-65944D02*
X64960Y-65944D01*
X64960Y-65944D02*
X64566Y-66338D01*
G54D21*
X70423Y-69931D02*
X69764Y-69931D01*
X70472Y-69881D02*
X70423Y-69931D01*
G54D22*
X68897Y-65944D02*
X68897Y-67322D01*
G54D21*
X69764Y-69675D02*
X70285Y-69675D01*
X70866Y-70177D02*
X71358Y-70669D01*
X71358Y-70669D02*
X73129Y-70669D01*
X73129Y-70669D02*
X73818Y-69980D01*
X70866Y-69881D02*
X70866Y-70177D01*
X70570Y-69586D02*
X70866Y-69881D01*
X70374Y-69586D02*
X70570Y-69586D01*
X70285Y-69675D02*
X70374Y-69586D01*
G54D22*
X72834Y-65944D02*
X71259Y-65944D01*
X73228Y-66338D02*
X72834Y-65944D01*
G54D21*
X66179Y-68241D02*
X66179Y-67875D01*
X69242Y-68651D02*
X69764Y-68651D01*
X68307Y-67716D02*
X69242Y-68651D01*
X66338Y-67716D02*
X68307Y-67716D01*
X66179Y-67875D02*
X66338Y-67716D01*
X69764Y-68139D02*
X70639Y-68139D01*
X71350Y-67429D02*
X75590Y-67429D01*
X70639Y-68139D02*
X71350Y-67429D01*
X71259Y-67913D02*
X74803Y-67913D01*
X70777Y-68395D02*
X71259Y-67913D01*
X69764Y-68395D02*
X70777Y-68395D01*
X69764Y-68907D02*
X69104Y-68907D01*
X68438Y-68241D02*
X67679Y-68241D01*
X69104Y-68907D02*
X68438Y-68241D01*
X71968Y-70443D02*
X71624Y-70443D01*
X68700Y-70669D02*
X67421Y-69389D01*
X67421Y-69389D02*
X66633Y-69389D01*
X66633Y-69389D02*
X65551Y-68307D01*
X65551Y-68307D02*
X65157Y-68307D01*
X65157Y-68307D02*
X64566Y-68897D01*
X64566Y-68897D02*
X64566Y-69291D01*
X64566Y-69291D02*
X64173Y-69685D01*
X64173Y-69685D02*
X63779Y-69685D01*
X70472Y-70669D02*
X68700Y-70669D01*
X70669Y-70472D02*
X70472Y-70669D01*
X71259Y-70078D02*
X71259Y-69881D01*
X71624Y-70443D02*
X71259Y-70078D01*
G54D23*
X71259Y-71259D02*
X71259Y-71358D01*
X71062Y-71555D02*
X71062Y-71850D01*
X71259Y-71358D02*
X71062Y-71555D01*
X70246Y-69419D02*
X70275Y-69389D01*
X70275Y-69389D02*
X70767Y-69389D01*
X70866Y-69291D02*
X70767Y-69389D01*
X70246Y-69419D02*
X69764Y-69419D01*
X65748Y-72047D02*
X65748Y-71653D01*
X65354Y-68897D02*
X65452Y-68897D01*
X67679Y-70139D02*
X67322Y-69783D01*
X67679Y-70139D02*
X67679Y-70341D01*
X66338Y-69783D02*
X67322Y-69783D01*
X65452Y-68897D02*
X66338Y-69783D01*
X71968Y-68139D02*
X71525Y-68139D01*
X71525Y-68139D02*
X71358Y-68307D01*
G54D21*
X66929Y-73661D02*
X66929Y-73228D01*
X63779Y-68897D02*
X62992Y-68897D01*
X65748Y-72834D02*
X65787Y-72795D01*
X65787Y-72795D02*
X66554Y-72795D01*
X66535Y-71653D02*
X66679Y-71509D01*
X66679Y-71509D02*
X66679Y-70341D01*
X66554Y-72795D02*
X66554Y-71672D01*
X66554Y-71672D02*
X66535Y-71653D01*
X69147Y-75846D02*
X68956Y-75846D01*
X66554Y-73863D02*
X66554Y-72795D01*
X67694Y-75003D02*
X66554Y-73863D01*
X68114Y-75003D02*
X67694Y-75003D01*
X68956Y-75846D02*
X68114Y-75003D01*
X67304Y-72795D02*
X68070Y-72795D01*
X68070Y-72795D02*
X68110Y-72834D01*
X67322Y-71653D02*
X67179Y-71509D01*
X67179Y-71509D02*
X67179Y-70341D01*
X67304Y-72795D02*
X67304Y-71672D01*
X67304Y-71672D02*
X67322Y-71653D01*
X68647Y-74846D02*
X67759Y-74846D01*
X67304Y-74390D02*
X67304Y-72795D01*
X67759Y-74846D02*
X67304Y-74390D01*
G54D10*
G36*
X78602Y-71990D02*
X78220Y-72371D01*
X78220Y-69238D01*
X78180Y-69139D01*
X78104Y-69064D01*
X78006Y-69023D01*
X77899Y-69023D01*
X77801Y-69063D01*
X77725Y-69139D01*
X77684Y-69237D01*
X77684Y-69344D01*
X77725Y-69443D01*
X77800Y-69518D01*
X77899Y-69559D01*
X78005Y-69559D01*
X78104Y-69518D01*
X78179Y-69443D01*
X78220Y-69344D01*
X78220Y-69238D01*
X78220Y-72371D01*
X77855Y-72737D01*
X77825Y-72781D01*
X77814Y-72834D01*
X77814Y-79513D01*
X77703Y-80076D01*
X77630Y-80185D01*
X77630Y-69238D01*
X77589Y-69139D01*
X77514Y-69064D01*
X77415Y-69023D01*
X77309Y-69023D01*
X77210Y-69063D01*
X77135Y-69139D01*
X77094Y-69237D01*
X77094Y-69344D01*
X77134Y-69443D01*
X77210Y-69518D01*
X77308Y-69559D01*
X77415Y-69559D01*
X77513Y-69518D01*
X77589Y-69443D01*
X77630Y-69344D01*
X77630Y-69238D01*
X77630Y-80185D01*
X77480Y-80409D01*
X77480Y-70725D01*
X77372Y-70465D01*
X77173Y-70265D01*
X77039Y-70210D01*
X77039Y-69238D01*
X76999Y-69139D01*
X76923Y-69064D01*
X76825Y-69023D01*
X76718Y-69023D01*
X76619Y-69063D01*
X76544Y-69139D01*
X76503Y-69237D01*
X76503Y-69344D01*
X76544Y-69443D01*
X76619Y-69518D01*
X76718Y-69559D01*
X76824Y-69559D01*
X76923Y-69518D01*
X76998Y-69443D01*
X77039Y-69344D01*
X77039Y-69238D01*
X77039Y-70210D01*
X76913Y-70157D01*
X76631Y-70157D01*
X76370Y-70265D01*
X76171Y-70464D01*
X76063Y-70724D01*
X76062Y-71006D01*
X76170Y-71267D01*
X76369Y-71466D01*
X76630Y-71574D01*
X76911Y-71574D01*
X77172Y-71467D01*
X77372Y-71268D01*
X77480Y-71007D01*
X77480Y-70725D01*
X77480Y-80409D01*
X77433Y-80479D01*
X77433Y-77505D01*
X77433Y-76718D01*
X77433Y-75931D01*
X77433Y-75143D01*
X77433Y-74356D01*
X77433Y-73568D01*
X77433Y-72781D01*
X77392Y-72682D01*
X77317Y-72607D01*
X77218Y-72566D01*
X77112Y-72566D01*
X77013Y-72607D01*
X76938Y-72682D01*
X76897Y-72781D01*
X76897Y-72887D01*
X76937Y-72986D01*
X77013Y-73061D01*
X77111Y-73102D01*
X77218Y-73102D01*
X77317Y-73062D01*
X77392Y-72986D01*
X77433Y-72888D01*
X77433Y-72781D01*
X77433Y-73568D01*
X77392Y-73470D01*
X77317Y-73394D01*
X77218Y-73353D01*
X77112Y-73353D01*
X77013Y-73394D01*
X76938Y-73469D01*
X76897Y-73568D01*
X76897Y-73675D01*
X76937Y-73773D01*
X77013Y-73849D01*
X77111Y-73890D01*
X77218Y-73890D01*
X77317Y-73849D01*
X77392Y-73774D01*
X77433Y-73675D01*
X77433Y-73568D01*
X77433Y-74356D01*
X77392Y-74257D01*
X77317Y-74182D01*
X77218Y-74141D01*
X77112Y-74141D01*
X77013Y-74182D01*
X76938Y-74257D01*
X76897Y-74355D01*
X76897Y-74462D01*
X76937Y-74561D01*
X77013Y-74636D01*
X77111Y-74677D01*
X77218Y-74677D01*
X77317Y-74636D01*
X77392Y-74561D01*
X77433Y-74463D01*
X77433Y-74356D01*
X77433Y-75143D01*
X77392Y-75045D01*
X77317Y-74969D01*
X77218Y-74928D01*
X77112Y-74928D01*
X77013Y-74969D01*
X76938Y-75044D01*
X76897Y-75143D01*
X76897Y-75249D01*
X76937Y-75348D01*
X77013Y-75424D01*
X77111Y-75464D01*
X77218Y-75465D01*
X77317Y-75424D01*
X77392Y-75348D01*
X77433Y-75250D01*
X77433Y-75143D01*
X77433Y-75931D01*
X77392Y-75832D01*
X77317Y-75757D01*
X77218Y-75716D01*
X77112Y-75716D01*
X77013Y-75756D01*
X76938Y-75832D01*
X76897Y-75930D01*
X76897Y-76037D01*
X76937Y-76135D01*
X77013Y-76211D01*
X77111Y-76252D01*
X77218Y-76252D01*
X77317Y-76211D01*
X77392Y-76136D01*
X77433Y-76037D01*
X77433Y-75931D01*
X77433Y-76718D01*
X77392Y-76619D01*
X77317Y-76544D01*
X77218Y-76503D01*
X77112Y-76503D01*
X77013Y-76544D01*
X76938Y-76619D01*
X76897Y-76718D01*
X76897Y-76824D01*
X76937Y-76923D01*
X77013Y-76998D01*
X77111Y-77039D01*
X77218Y-77039D01*
X77317Y-76999D01*
X77392Y-76923D01*
X77433Y-76825D01*
X77433Y-76718D01*
X77433Y-77505D01*
X77392Y-77407D01*
X77317Y-77331D01*
X77218Y-77290D01*
X77112Y-77290D01*
X77013Y-77331D01*
X76938Y-77406D01*
X76897Y-77505D01*
X76897Y-77612D01*
X76937Y-77710D01*
X77013Y-77786D01*
X77111Y-77827D01*
X77218Y-77827D01*
X77317Y-77786D01*
X77392Y-77711D01*
X77433Y-77612D01*
X77433Y-77505D01*
X77433Y-80479D01*
X77392Y-80541D01*
X77086Y-80745D01*
X77086Y-79387D01*
X76979Y-79126D01*
X76779Y-78927D01*
X76519Y-78819D01*
X76237Y-78818D01*
X76023Y-78907D01*
X76023Y-68735D01*
X76023Y-68488D01*
X76023Y-68370D01*
X76023Y-68122D01*
X75999Y-68064D01*
X75983Y-68049D01*
X75983Y-67351D01*
X75983Y-66351D01*
X75983Y-65351D01*
X75924Y-65206D01*
X75813Y-65096D01*
X75669Y-65036D01*
X75512Y-65035D01*
X75368Y-65095D01*
X75257Y-65206D01*
X75197Y-65350D01*
X75197Y-65506D01*
X75257Y-65651D01*
X75367Y-65762D01*
X75512Y-65822D01*
X75668Y-65822D01*
X75812Y-65762D01*
X75923Y-65652D01*
X75983Y-65507D01*
X75983Y-65351D01*
X75983Y-66351D01*
X75924Y-66206D01*
X75813Y-66096D01*
X75669Y-66036D01*
X75512Y-66035D01*
X75368Y-66095D01*
X75257Y-66206D01*
X75197Y-66350D01*
X75197Y-66506D01*
X75257Y-66651D01*
X75367Y-66762D01*
X75512Y-66822D01*
X75668Y-66822D01*
X75812Y-66762D01*
X75923Y-66652D01*
X75983Y-66507D01*
X75983Y-66351D01*
X75983Y-67351D01*
X75924Y-67206D01*
X75813Y-67096D01*
X75669Y-67036D01*
X75512Y-67035D01*
X75368Y-67095D01*
X75257Y-67206D01*
X75230Y-67271D01*
X73543Y-67271D01*
X73543Y-66338D01*
X73519Y-66218D01*
X73451Y-66115D01*
X73057Y-65722D01*
X72955Y-65653D01*
X72834Y-65629D01*
X72362Y-65629D01*
X72362Y-64937D01*
X72344Y-64893D01*
X72310Y-64860D01*
X72267Y-64842D01*
X72220Y-64842D01*
X70252Y-64842D01*
X70208Y-64860D01*
X70175Y-64893D01*
X70157Y-64937D01*
X70157Y-64984D01*
X70157Y-66952D01*
X70175Y-66996D01*
X70208Y-67029D01*
X70252Y-67047D01*
X70299Y-67047D01*
X72267Y-67047D01*
X72310Y-67029D01*
X72344Y-66996D01*
X72362Y-66952D01*
X72362Y-66905D01*
X72362Y-66259D01*
X72704Y-66259D01*
X73005Y-66561D01*
X73107Y-66629D01*
X73228Y-66653D01*
X73348Y-66629D01*
X73451Y-66561D01*
X73519Y-66459D01*
X73543Y-66338D01*
X73543Y-67271D01*
X71350Y-67271D01*
X71290Y-67283D01*
X71239Y-67317D01*
X71239Y-67317D01*
X70574Y-67982D01*
X70098Y-67982D01*
X70081Y-67964D01*
X70037Y-67946D01*
X70000Y-67946D01*
X70000Y-66952D01*
X70000Y-66905D01*
X70000Y-64937D01*
X69982Y-64893D01*
X69948Y-64860D01*
X69905Y-64842D01*
X69858Y-64842D01*
X67889Y-64842D01*
X67846Y-64860D01*
X67813Y-64893D01*
X67795Y-64937D01*
X67795Y-64984D01*
X67795Y-66952D01*
X67813Y-66996D01*
X67846Y-67029D01*
X67889Y-67047D01*
X67936Y-67047D01*
X68582Y-67047D01*
X68582Y-67322D01*
X68606Y-67443D01*
X68674Y-67545D01*
X68777Y-67613D01*
X68897Y-67637D01*
X69018Y-67613D01*
X69120Y-67545D01*
X69188Y-67443D01*
X69212Y-67322D01*
X69212Y-67047D01*
X69905Y-67047D01*
X69948Y-67029D01*
X69982Y-66996D01*
X70000Y-66952D01*
X70000Y-67946D01*
X69990Y-67946D01*
X69490Y-67946D01*
X69447Y-67964D01*
X69414Y-67997D01*
X69396Y-68041D01*
X69396Y-68088D01*
X69396Y-68238D01*
X69408Y-68267D01*
X69396Y-68297D01*
X69396Y-68344D01*
X69396Y-68494D01*
X69307Y-68494D01*
X68418Y-67605D01*
X68367Y-67571D01*
X68307Y-67559D01*
X67637Y-67559D01*
X67637Y-66952D01*
X67637Y-66905D01*
X67637Y-64937D01*
X67619Y-64893D01*
X67586Y-64860D01*
X67543Y-64842D01*
X67496Y-64842D01*
X65527Y-64842D01*
X65484Y-64860D01*
X65451Y-64893D01*
X65433Y-64937D01*
X65433Y-64984D01*
X65433Y-65629D01*
X64960Y-65629D01*
X64840Y-65653D01*
X64737Y-65722D01*
X64344Y-66115D01*
X64275Y-66218D01*
X64251Y-66338D01*
X64275Y-66459D01*
X64344Y-66561D01*
X64446Y-66629D01*
X64566Y-66653D01*
X64687Y-66629D01*
X64789Y-66561D01*
X65091Y-66259D01*
X65433Y-66259D01*
X65433Y-66952D01*
X65451Y-66996D01*
X65484Y-67029D01*
X65527Y-67047D01*
X65574Y-67047D01*
X67543Y-67047D01*
X67586Y-67029D01*
X67619Y-66996D01*
X67637Y-66952D01*
X67637Y-67559D01*
X66338Y-67559D01*
X66278Y-67571D01*
X66227Y-67605D01*
X66227Y-67605D01*
X66067Y-67764D01*
X66033Y-67815D01*
X66026Y-67852D01*
X65994Y-67865D01*
X65961Y-67898D01*
X65943Y-67942D01*
X65943Y-67989D01*
X65943Y-68476D01*
X65662Y-68195D01*
X65611Y-68161D01*
X65551Y-68149D01*
X65157Y-68149D01*
X65097Y-68161D01*
X65046Y-68195D01*
X65046Y-68195D01*
X64455Y-68786D01*
X64421Y-68837D01*
X64409Y-68897D01*
X64409Y-69226D01*
X64122Y-69512D01*
X64122Y-69046D01*
X64122Y-68999D01*
X64122Y-68749D01*
X64104Y-68705D01*
X64071Y-68672D01*
X64028Y-68654D01*
X63981Y-68654D01*
X63531Y-68654D01*
X63487Y-68672D01*
X63454Y-68705D01*
X63440Y-68740D01*
X63213Y-68740D01*
X63154Y-68680D01*
X63222Y-68652D01*
X63298Y-68577D01*
X63338Y-68478D01*
X63339Y-68372D01*
X63298Y-68273D01*
X63222Y-68198D01*
X63124Y-68157D01*
X63017Y-68157D01*
X62919Y-68197D01*
X62843Y-68273D01*
X62802Y-68371D01*
X62802Y-68478D01*
X62843Y-68576D01*
X62908Y-68642D01*
X62840Y-68670D01*
X62764Y-68745D01*
X62724Y-68844D01*
X62723Y-68950D01*
X62764Y-69049D01*
X62840Y-69124D01*
X62938Y-69165D01*
X63045Y-69165D01*
X63143Y-69125D01*
X63213Y-69055D01*
X63440Y-69055D01*
X63454Y-69089D01*
X63487Y-69122D01*
X63531Y-69140D01*
X63578Y-69140D01*
X64028Y-69140D01*
X64071Y-69122D01*
X64104Y-69089D01*
X64122Y-69046D01*
X64122Y-69512D01*
X64115Y-69519D01*
X64104Y-69493D01*
X64071Y-69459D01*
X64028Y-69441D01*
X63981Y-69441D01*
X63531Y-69441D01*
X63487Y-69459D01*
X63454Y-69493D01*
X63436Y-69536D01*
X63436Y-69583D01*
X63436Y-69833D01*
X63454Y-69876D01*
X63487Y-69910D01*
X63531Y-69928D01*
X63578Y-69928D01*
X64028Y-69928D01*
X64071Y-69910D01*
X64104Y-69876D01*
X64118Y-69842D01*
X64173Y-69842D01*
X64233Y-69830D01*
X64233Y-69830D01*
X64284Y-69796D01*
X64678Y-69402D01*
X64678Y-69402D01*
X64678Y-69402D01*
X64712Y-69351D01*
X64724Y-69291D01*
X64724Y-69291D01*
X64724Y-69291D01*
X64724Y-68962D01*
X65222Y-68464D01*
X65485Y-68464D01*
X66522Y-69501D01*
X66573Y-69535D01*
X66573Y-69535D01*
X66633Y-69547D01*
X67192Y-69547D01*
X67171Y-69556D01*
X67120Y-69606D01*
X66411Y-69606D01*
X65697Y-68891D01*
X65697Y-68749D01*
X65679Y-68705D01*
X65646Y-68672D01*
X65602Y-68654D01*
X65555Y-68654D01*
X65105Y-68654D01*
X65062Y-68672D01*
X65029Y-68705D01*
X65011Y-68749D01*
X65011Y-68796D01*
X65011Y-69046D01*
X65029Y-69089D01*
X65062Y-69122D01*
X65105Y-69140D01*
X65152Y-69140D01*
X65445Y-69140D01*
X66213Y-69908D01*
X66227Y-69918D01*
X66198Y-69947D01*
X66198Y-70321D01*
X66206Y-70321D01*
X66206Y-70361D01*
X66198Y-70361D01*
X66198Y-70734D01*
X66238Y-70774D01*
X66328Y-70774D01*
X66386Y-70750D01*
X66430Y-70706D01*
X66450Y-70658D01*
X66461Y-70683D01*
X66494Y-70716D01*
X66521Y-70728D01*
X66521Y-71310D01*
X66386Y-71310D01*
X66343Y-71328D01*
X66310Y-71361D01*
X66292Y-71405D01*
X66292Y-71452D01*
X66292Y-71902D01*
X66310Y-71945D01*
X66343Y-71978D01*
X66386Y-71996D01*
X66396Y-71996D01*
X66396Y-72480D01*
X66373Y-72480D01*
X66329Y-72498D01*
X66296Y-72531D01*
X66278Y-72574D01*
X66278Y-72621D01*
X66278Y-72637D01*
X66159Y-72637D01*
X66159Y-70734D01*
X66159Y-70361D01*
X66159Y-70321D01*
X66159Y-69947D01*
X66120Y-69908D01*
X66029Y-69908D01*
X65971Y-69932D01*
X65927Y-69976D01*
X65903Y-70034D01*
X65903Y-70097D01*
X65903Y-70282D01*
X65943Y-70321D01*
X66159Y-70321D01*
X66159Y-70361D01*
X65943Y-70361D01*
X65903Y-70400D01*
X65903Y-70585D01*
X65903Y-70648D01*
X65927Y-70706D01*
X65971Y-70750D01*
X66029Y-70774D01*
X66120Y-70774D01*
X66159Y-70734D01*
X66159Y-72637D01*
X66091Y-72637D01*
X66091Y-72195D01*
X66091Y-72148D01*
X66091Y-71898D01*
X66073Y-71855D01*
X66039Y-71822D01*
X65996Y-71804D01*
X65975Y-71804D01*
X66016Y-71707D01*
X66016Y-71600D01*
X65975Y-71501D01*
X65900Y-71426D01*
X65801Y-71385D01*
X65736Y-71385D01*
X65736Y-69841D01*
X65736Y-69744D01*
X65736Y-69625D01*
X65736Y-69528D01*
X65712Y-69470D01*
X65668Y-69426D01*
X65610Y-69402D01*
X65548Y-69402D01*
X65413Y-69402D01*
X65374Y-69441D01*
X65374Y-69665D01*
X65697Y-69665D01*
X65736Y-69625D01*
X65736Y-69744D01*
X65697Y-69704D01*
X65374Y-69704D01*
X65374Y-69928D01*
X65413Y-69967D01*
X65548Y-69967D01*
X65610Y-69967D01*
X65668Y-69943D01*
X65712Y-69899D01*
X65736Y-69841D01*
X65736Y-71385D01*
X65694Y-71385D01*
X65596Y-71426D01*
X65520Y-71501D01*
X65479Y-71599D01*
X65479Y-71706D01*
X65520Y-71804D01*
X65499Y-71804D01*
X65456Y-71822D01*
X65422Y-71855D01*
X65404Y-71898D01*
X65404Y-71945D01*
X65404Y-72195D01*
X65422Y-72239D01*
X65456Y-72272D01*
X65499Y-72290D01*
X65546Y-72290D01*
X65996Y-72290D01*
X66039Y-72272D01*
X66073Y-72239D01*
X66091Y-72195D01*
X66091Y-72637D01*
X66068Y-72637D01*
X66039Y-72609D01*
X65996Y-72591D01*
X65949Y-72591D01*
X65499Y-72591D01*
X65456Y-72609D01*
X65422Y-72642D01*
X65404Y-72686D01*
X65404Y-72733D01*
X65404Y-72983D01*
X65422Y-73026D01*
X65456Y-73059D01*
X65499Y-73077D01*
X65546Y-73077D01*
X65996Y-73077D01*
X66039Y-73059D01*
X66073Y-73026D01*
X66091Y-72983D01*
X66091Y-72952D01*
X66278Y-72952D01*
X66278Y-73015D01*
X66296Y-73059D01*
X66329Y-73092D01*
X66373Y-73110D01*
X66396Y-73110D01*
X66396Y-73863D01*
X66408Y-73923D01*
X66442Y-73974D01*
X67583Y-75115D01*
X67583Y-75115D01*
X67583Y-75115D01*
X67608Y-75132D01*
X67634Y-75149D01*
X67634Y-75149D01*
X67694Y-75161D01*
X67694Y-75161D01*
X67694Y-75161D01*
X68048Y-75161D01*
X68275Y-75388D01*
X68242Y-75374D01*
X68054Y-75373D01*
X67880Y-75445D01*
X67747Y-75578D01*
X67675Y-75752D01*
X67675Y-75940D01*
X67746Y-76113D01*
X67879Y-76246D01*
X68053Y-76318D01*
X68241Y-76318D01*
X68414Y-76247D01*
X68547Y-76114D01*
X68619Y-75940D01*
X68620Y-75752D01*
X68605Y-75718D01*
X68675Y-75787D01*
X68675Y-75940D01*
X68746Y-76113D01*
X68879Y-76246D01*
X69053Y-76318D01*
X69241Y-76318D01*
X69414Y-76247D01*
X69547Y-76114D01*
X69619Y-75940D01*
X69620Y-75752D01*
X69548Y-75579D01*
X69415Y-75446D01*
X69242Y-75374D01*
X69054Y-75373D01*
X68880Y-75445D01*
X68829Y-75496D01*
X68651Y-75318D01*
X68741Y-75318D01*
X68914Y-75247D01*
X69047Y-75114D01*
X69119Y-74940D01*
X69120Y-74752D01*
X69048Y-74579D01*
X68915Y-74446D01*
X68742Y-74374D01*
X68554Y-74373D01*
X68492Y-74399D01*
X68492Y-72203D01*
X68492Y-72106D01*
X68492Y-71988D01*
X68492Y-71890D01*
X68468Y-71833D01*
X68424Y-71788D01*
X68366Y-71764D01*
X68303Y-71764D01*
X68169Y-71764D01*
X68129Y-71804D01*
X68129Y-72027D01*
X68453Y-72027D01*
X68492Y-71988D01*
X68492Y-72106D01*
X68453Y-72066D01*
X68129Y-72066D01*
X68129Y-72290D01*
X68169Y-72329D01*
X68303Y-72329D01*
X68366Y-72329D01*
X68424Y-72305D01*
X68468Y-72261D01*
X68492Y-72203D01*
X68492Y-74399D01*
X68380Y-74445D01*
X68247Y-74578D01*
X68201Y-74688D01*
X67825Y-74688D01*
X67461Y-74325D01*
X67461Y-73110D01*
X67485Y-73110D01*
X67528Y-73092D01*
X67561Y-73059D01*
X67579Y-73015D01*
X67579Y-72968D01*
X67579Y-72952D01*
X67767Y-72952D01*
X67767Y-72983D01*
X67785Y-73026D01*
X67818Y-73059D01*
X67861Y-73077D01*
X67908Y-73077D01*
X68358Y-73077D01*
X68402Y-73059D01*
X68435Y-73026D01*
X68453Y-72983D01*
X68453Y-72936D01*
X68453Y-72686D01*
X68435Y-72642D01*
X68402Y-72609D01*
X68358Y-72591D01*
X68311Y-72591D01*
X68090Y-72591D01*
X68090Y-72290D01*
X68090Y-72066D01*
X68090Y-72027D01*
X68090Y-71804D01*
X68051Y-71764D01*
X67916Y-71764D01*
X67853Y-71764D01*
X67796Y-71788D01*
X67751Y-71833D01*
X67727Y-71890D01*
X67727Y-71988D01*
X67767Y-72027D01*
X68090Y-72027D01*
X68090Y-72066D01*
X67767Y-72066D01*
X67727Y-72106D01*
X67727Y-72203D01*
X67751Y-72261D01*
X67796Y-72305D01*
X67853Y-72329D01*
X67916Y-72329D01*
X68051Y-72329D01*
X68090Y-72290D01*
X68090Y-72591D01*
X67861Y-72591D01*
X67818Y-72609D01*
X67789Y-72637D01*
X67579Y-72637D01*
X67579Y-72574D01*
X67561Y-72531D01*
X67528Y-72498D01*
X67485Y-72480D01*
X67461Y-72480D01*
X67461Y-71996D01*
X67471Y-71996D01*
X67514Y-71978D01*
X67547Y-71945D01*
X67565Y-71902D01*
X67565Y-71855D01*
X67565Y-71405D01*
X67547Y-71361D01*
X67514Y-71328D01*
X67471Y-71310D01*
X67424Y-71310D01*
X67336Y-71310D01*
X67336Y-70728D01*
X67364Y-70716D01*
X67397Y-70683D01*
X67415Y-70640D01*
X67415Y-70593D01*
X67415Y-70126D01*
X67443Y-70154D01*
X67443Y-70640D01*
X67461Y-70683D01*
X67494Y-70716D01*
X67537Y-70734D01*
X67584Y-70734D01*
X67820Y-70734D01*
X67864Y-70716D01*
X67897Y-70683D01*
X67915Y-70640D01*
X67915Y-70593D01*
X67915Y-70106D01*
X68589Y-70780D01*
X68640Y-70814D01*
X68640Y-70814D01*
X68700Y-70826D01*
X70472Y-70826D01*
X70532Y-70814D01*
X70532Y-70814D01*
X70583Y-70780D01*
X70623Y-70740D01*
X70722Y-70740D01*
X70820Y-70699D01*
X70896Y-70624D01*
X70937Y-70526D01*
X70937Y-70471D01*
X71246Y-70780D01*
X71298Y-70814D01*
X71298Y-70814D01*
X71358Y-70826D01*
X73129Y-70826D01*
X73190Y-70814D01*
X73190Y-70814D01*
X73241Y-70780D01*
X73773Y-70248D01*
X73871Y-70248D01*
X73970Y-70207D01*
X74046Y-70132D01*
X74086Y-70033D01*
X74087Y-69927D01*
X74046Y-69828D01*
X73970Y-69753D01*
X73872Y-69712D01*
X73765Y-69712D01*
X73667Y-69752D01*
X73591Y-69828D01*
X73550Y-69926D01*
X73550Y-70025D01*
X73064Y-70511D01*
X72336Y-70511D01*
X72336Y-70494D01*
X72336Y-70344D01*
X72323Y-70315D01*
X72336Y-70285D01*
X72336Y-70238D01*
X72336Y-70088D01*
X72324Y-70059D01*
X72336Y-70029D01*
X72336Y-69982D01*
X72336Y-69832D01*
X72324Y-69803D01*
X72336Y-69773D01*
X72336Y-69726D01*
X72336Y-69576D01*
X72324Y-69547D01*
X72336Y-69517D01*
X72336Y-69470D01*
X72336Y-69343D01*
X72351Y-69327D01*
X72375Y-69269D01*
X72375Y-69222D01*
X72336Y-69183D01*
X71987Y-69183D01*
X71987Y-69190D01*
X71948Y-69190D01*
X71948Y-69183D01*
X71600Y-69183D01*
X71560Y-69222D01*
X71560Y-69269D01*
X71584Y-69327D01*
X71600Y-69343D01*
X71600Y-69367D01*
X71600Y-69517D01*
X71612Y-69547D01*
X71600Y-69576D01*
X71600Y-69623D01*
X71600Y-69773D01*
X71612Y-69803D01*
X71600Y-69832D01*
X71600Y-69879D01*
X71600Y-70029D01*
X71612Y-70059D01*
X71600Y-70088D01*
X71600Y-70135D01*
X71600Y-70196D01*
X71462Y-70058D01*
X71487Y-70033D01*
X71527Y-69935D01*
X71527Y-69828D01*
X71487Y-69730D01*
X71411Y-69654D01*
X71313Y-69613D01*
X71206Y-69613D01*
X71108Y-69654D01*
X71032Y-69729D01*
X71001Y-69805D01*
X70977Y-69770D01*
X70772Y-69565D01*
X70810Y-69558D01*
X70812Y-69559D01*
X70919Y-69559D01*
X71017Y-69518D01*
X71093Y-69443D01*
X71134Y-69344D01*
X71134Y-69238D01*
X71093Y-69139D01*
X71018Y-69064D01*
X70919Y-69023D01*
X70813Y-69023D01*
X70714Y-69063D01*
X70638Y-69139D01*
X70608Y-69212D01*
X70275Y-69212D01*
X70207Y-69226D01*
X70184Y-69241D01*
X70171Y-69241D01*
X70171Y-69222D01*
X70132Y-69182D01*
X69783Y-69182D01*
X69783Y-69190D01*
X69744Y-69190D01*
X69744Y-69182D01*
X69396Y-69182D01*
X69356Y-69222D01*
X69356Y-69269D01*
X69380Y-69327D01*
X69396Y-69342D01*
X69396Y-69367D01*
X69396Y-69517D01*
X69408Y-69547D01*
X69396Y-69576D01*
X69396Y-69623D01*
X69396Y-69773D01*
X69408Y-69803D01*
X69396Y-69832D01*
X69396Y-69879D01*
X69396Y-70029D01*
X69396Y-70029D01*
X69071Y-70029D01*
X67827Y-68786D01*
X67776Y-68752D01*
X67716Y-68740D01*
X67446Y-68740D01*
X67376Y-68670D01*
X67290Y-68634D01*
X67320Y-68634D01*
X67364Y-68616D01*
X67397Y-68583D01*
X67415Y-68540D01*
X67415Y-68493D01*
X67415Y-67942D01*
X67397Y-67898D01*
X67372Y-67874D01*
X67485Y-67874D01*
X67461Y-67898D01*
X67443Y-67942D01*
X67443Y-67989D01*
X67443Y-68540D01*
X67461Y-68583D01*
X67494Y-68616D01*
X67537Y-68634D01*
X67584Y-68634D01*
X67820Y-68634D01*
X67864Y-68616D01*
X67897Y-68583D01*
X67915Y-68540D01*
X67915Y-68493D01*
X67915Y-68398D01*
X68372Y-68398D01*
X68800Y-68826D01*
X68746Y-68826D01*
X68647Y-68867D01*
X68572Y-68942D01*
X68531Y-69040D01*
X68531Y-69147D01*
X68571Y-69246D01*
X68647Y-69321D01*
X68745Y-69362D01*
X68852Y-69362D01*
X68950Y-69321D01*
X69026Y-69246D01*
X69067Y-69148D01*
X69067Y-69057D01*
X69104Y-69064D01*
X69356Y-69064D01*
X69356Y-69104D01*
X69396Y-69143D01*
X69744Y-69143D01*
X69744Y-69135D01*
X69783Y-69135D01*
X69783Y-69143D01*
X70132Y-69143D01*
X70171Y-69104D01*
X70171Y-69056D01*
X70147Y-68998D01*
X70132Y-68983D01*
X70132Y-68958D01*
X70132Y-68808D01*
X70120Y-68779D01*
X70132Y-68750D01*
X70132Y-68703D01*
X70132Y-68553D01*
X70777Y-68553D01*
X70837Y-68541D01*
X70837Y-68541D01*
X70888Y-68507D01*
X71090Y-68305D01*
X71090Y-68360D01*
X71130Y-68458D01*
X71206Y-68534D01*
X71304Y-68575D01*
X71411Y-68575D01*
X71509Y-68534D01*
X71585Y-68459D01*
X71600Y-68423D01*
X71600Y-68493D01*
X71612Y-68523D01*
X71600Y-68552D01*
X71600Y-68599D01*
X71600Y-68749D01*
X71612Y-68779D01*
X71600Y-68808D01*
X71600Y-68855D01*
X71600Y-68983D01*
X71584Y-68999D01*
X71560Y-69057D01*
X71560Y-69104D01*
X71600Y-69143D01*
X71948Y-69143D01*
X71948Y-69135D01*
X71987Y-69135D01*
X71987Y-69143D01*
X72336Y-69143D01*
X72375Y-69104D01*
X72375Y-69057D01*
X72351Y-68999D01*
X72336Y-68983D01*
X72336Y-68958D01*
X72336Y-68808D01*
X72324Y-68779D01*
X72336Y-68749D01*
X72336Y-68702D01*
X72336Y-68552D01*
X72324Y-68523D01*
X72336Y-68493D01*
X72336Y-68446D01*
X72336Y-68296D01*
X72324Y-68267D01*
X72336Y-68237D01*
X72336Y-68190D01*
X72336Y-68070D01*
X72901Y-68070D01*
X72879Y-68079D01*
X72804Y-68155D01*
X72763Y-68253D01*
X72763Y-68360D01*
X72804Y-68458D01*
X72879Y-68534D01*
X72977Y-68575D01*
X73084Y-68575D01*
X73183Y-68534D01*
X73258Y-68459D01*
X73299Y-68360D01*
X73299Y-68253D01*
X73258Y-68155D01*
X73183Y-68079D01*
X73161Y-68070D01*
X74581Y-68070D01*
X74651Y-68140D01*
X74749Y-68181D01*
X74856Y-68181D01*
X74954Y-68140D01*
X75030Y-68065D01*
X75071Y-67966D01*
X75071Y-67860D01*
X75030Y-67761D01*
X74955Y-67686D01*
X74856Y-67645D01*
X74750Y-67645D01*
X74651Y-67685D01*
X74581Y-67755D01*
X71259Y-67755D01*
X71259Y-67755D01*
X71242Y-67759D01*
X71415Y-67586D01*
X75230Y-67586D01*
X75257Y-67651D01*
X75367Y-67762D01*
X75512Y-67822D01*
X75668Y-67822D01*
X75812Y-67762D01*
X75923Y-67652D01*
X75983Y-67507D01*
X75983Y-67351D01*
X75983Y-68049D01*
X75954Y-68020D01*
X75896Y-67996D01*
X75834Y-67996D01*
X75649Y-67996D01*
X75610Y-68036D01*
X75610Y-68409D01*
X75983Y-68409D01*
X76023Y-68370D01*
X76023Y-68488D01*
X75983Y-68448D01*
X75610Y-68448D01*
X75610Y-68822D01*
X75649Y-68861D01*
X75834Y-68861D01*
X75896Y-68861D01*
X75954Y-68837D01*
X75999Y-68793D01*
X76023Y-68735D01*
X76023Y-78907D01*
X75977Y-78926D01*
X75777Y-79125D01*
X75669Y-79385D01*
X75669Y-79667D01*
X75776Y-79928D01*
X75976Y-80127D01*
X76236Y-80236D01*
X76518Y-80236D01*
X76778Y-80128D01*
X76978Y-79929D01*
X77086Y-79669D01*
X77086Y-79387D01*
X77086Y-80745D01*
X76926Y-80852D01*
X76364Y-80964D01*
X75570Y-80964D01*
X75570Y-68822D01*
X75570Y-68448D01*
X75570Y-68409D01*
X75570Y-68036D01*
X75531Y-67996D01*
X75346Y-67996D01*
X75284Y-67996D01*
X75226Y-68020D01*
X75182Y-68064D01*
X75158Y-68122D01*
X75158Y-68370D01*
X75197Y-68409D01*
X75570Y-68409D01*
X75570Y-68448D01*
X75197Y-68448D01*
X75158Y-68488D01*
X75158Y-68735D01*
X75182Y-68793D01*
X75226Y-68837D01*
X75284Y-68861D01*
X75346Y-68861D01*
X75531Y-68861D01*
X75570Y-68822D01*
X75570Y-80964D01*
X72512Y-80964D01*
X72512Y-79572D01*
X72471Y-79474D01*
X72396Y-79398D01*
X72297Y-79357D01*
X72190Y-79357D01*
X72092Y-79398D01*
X72016Y-79473D01*
X71976Y-79572D01*
X71975Y-79679D01*
X72016Y-79777D01*
X72092Y-79853D01*
X72190Y-79894D01*
X72297Y-79894D01*
X72395Y-79853D01*
X72471Y-79778D01*
X72512Y-79679D01*
X72512Y-79572D01*
X72512Y-80964D01*
X71645Y-80964D01*
X71645Y-78198D01*
X71532Y-77923D01*
X71502Y-77894D01*
X71502Y-71508D01*
X71502Y-71461D01*
X71502Y-71011D01*
X71484Y-70967D01*
X71451Y-70934D01*
X71408Y-70916D01*
X71361Y-70916D01*
X71111Y-70916D01*
X71067Y-70934D01*
X71034Y-70967D01*
X71016Y-71011D01*
X71016Y-71058D01*
X71016Y-71350D01*
X70937Y-71429D01*
X70899Y-71487D01*
X70885Y-71555D01*
X70885Y-71648D01*
X70835Y-71698D01*
X70794Y-71796D01*
X70794Y-71903D01*
X70835Y-72002D01*
X70910Y-72077D01*
X71009Y-72118D01*
X71116Y-72118D01*
X71214Y-72077D01*
X71290Y-72002D01*
X71331Y-71903D01*
X71331Y-71797D01*
X71290Y-71698D01*
X71240Y-71648D01*
X71240Y-71628D01*
X71265Y-71602D01*
X71408Y-71602D01*
X71451Y-71584D01*
X71484Y-71551D01*
X71502Y-71508D01*
X71502Y-77894D01*
X71321Y-77712D01*
X71047Y-77598D01*
X70754Y-77598D01*
X70754Y-71516D01*
X70754Y-71453D01*
X70754Y-71318D01*
X70754Y-71200D01*
X70754Y-71066D01*
X70754Y-71003D01*
X70730Y-70945D01*
X70686Y-70901D01*
X70628Y-70877D01*
X70531Y-70877D01*
X70492Y-70916D01*
X70492Y-71240D01*
X70715Y-71240D01*
X70754Y-71200D01*
X70754Y-71318D01*
X70715Y-71279D01*
X70492Y-71279D01*
X70492Y-71602D01*
X70531Y-71642D01*
X70628Y-71642D01*
X70686Y-71618D01*
X70730Y-71574D01*
X70754Y-71516D01*
X70754Y-77598D01*
X70749Y-77598D01*
X70474Y-77711D01*
X70452Y-77733D01*
X70452Y-71602D01*
X70452Y-71279D01*
X70452Y-71240D01*
X70452Y-70916D01*
X70413Y-70877D01*
X70316Y-70877D01*
X70258Y-70901D01*
X70213Y-70945D01*
X70189Y-71003D01*
X70189Y-71066D01*
X70189Y-71200D01*
X70229Y-71240D01*
X70452Y-71240D01*
X70452Y-71279D01*
X70229Y-71279D01*
X70189Y-71318D01*
X70189Y-71453D01*
X70189Y-71516D01*
X70213Y-71574D01*
X70258Y-71618D01*
X70316Y-71642D01*
X70413Y-71642D01*
X70452Y-71602D01*
X70452Y-77733D01*
X70263Y-77922D01*
X70149Y-78197D01*
X70149Y-78494D01*
X70263Y-78769D01*
X70473Y-78980D01*
X70748Y-79094D01*
X71045Y-79094D01*
X71320Y-78980D01*
X71531Y-78770D01*
X71645Y-78495D01*
X71645Y-78198D01*
X71645Y-80964D01*
X71134Y-80964D01*
X71134Y-80261D01*
X71093Y-80163D01*
X71018Y-80087D01*
X70919Y-80046D01*
X70813Y-80046D01*
X70714Y-80087D01*
X70638Y-80162D01*
X70598Y-80261D01*
X70597Y-80368D01*
X70638Y-80466D01*
X70714Y-80542D01*
X70812Y-80583D01*
X70919Y-80583D01*
X71017Y-80542D01*
X71093Y-80467D01*
X71134Y-80368D01*
X71134Y-80261D01*
X71134Y-80964D01*
X70346Y-80964D01*
X70346Y-80261D01*
X70306Y-80163D01*
X70230Y-80087D01*
X70132Y-80046D01*
X70120Y-80046D01*
X70120Y-74752D01*
X70048Y-74579D01*
X69915Y-74446D01*
X69742Y-74374D01*
X69554Y-74373D01*
X69380Y-74445D01*
X69247Y-74578D01*
X69175Y-74752D01*
X69175Y-74940D01*
X69246Y-75113D01*
X69379Y-75246D01*
X69553Y-75318D01*
X69741Y-75318D01*
X69914Y-75247D01*
X70047Y-75114D01*
X70119Y-74940D01*
X70120Y-74752D01*
X70120Y-80046D01*
X70025Y-80046D01*
X69927Y-80087D01*
X69851Y-80162D01*
X69810Y-80261D01*
X69810Y-80368D01*
X69851Y-80466D01*
X69926Y-80542D01*
X70025Y-80583D01*
X70131Y-80583D01*
X70230Y-80542D01*
X70305Y-80467D01*
X70346Y-80368D01*
X70346Y-80261D01*
X70346Y-80964D01*
X69559Y-80964D01*
X69559Y-80261D01*
X69518Y-80163D01*
X69443Y-80087D01*
X69344Y-80046D01*
X69238Y-80046D01*
X69139Y-80087D01*
X69064Y-80162D01*
X69023Y-80261D01*
X69023Y-80368D01*
X69063Y-80466D01*
X69139Y-80542D01*
X69237Y-80583D01*
X69344Y-80583D01*
X69443Y-80542D01*
X69518Y-80467D01*
X69559Y-80368D01*
X69559Y-80261D01*
X69559Y-80964D01*
X68772Y-80964D01*
X68772Y-80261D01*
X68731Y-80163D01*
X68656Y-80087D01*
X68557Y-80046D01*
X68450Y-80046D01*
X68352Y-80087D01*
X68276Y-80162D01*
X68235Y-80261D01*
X68235Y-80368D01*
X68276Y-80466D01*
X68351Y-80542D01*
X68450Y-80583D01*
X68557Y-80583D01*
X68655Y-80542D01*
X68731Y-80467D01*
X68772Y-80368D01*
X68772Y-80261D01*
X68772Y-80964D01*
X67984Y-80964D01*
X67984Y-80261D01*
X67943Y-80163D01*
X67868Y-80087D01*
X67770Y-80046D01*
X67663Y-80046D01*
X67645Y-80054D01*
X67645Y-78198D01*
X67532Y-77923D01*
X67321Y-77712D01*
X67047Y-77598D01*
X66749Y-77598D01*
X66474Y-77711D01*
X66263Y-77922D01*
X66149Y-78197D01*
X66149Y-78494D01*
X66263Y-78769D01*
X66473Y-78980D01*
X66748Y-79094D01*
X67045Y-79094D01*
X67320Y-78980D01*
X67531Y-78770D01*
X67645Y-78495D01*
X67645Y-78198D01*
X67645Y-80054D01*
X67564Y-80087D01*
X67489Y-80162D01*
X67448Y-80261D01*
X67448Y-80368D01*
X67489Y-80466D01*
X67564Y-80542D01*
X67662Y-80583D01*
X67769Y-80583D01*
X67868Y-80542D01*
X67943Y-80467D01*
X67984Y-80368D01*
X67984Y-80261D01*
X67984Y-80964D01*
X67197Y-80964D01*
X67197Y-80261D01*
X67156Y-80163D01*
X67081Y-80087D01*
X66982Y-80046D01*
X66876Y-80046D01*
X66777Y-80087D01*
X66701Y-80162D01*
X66661Y-80261D01*
X66660Y-80368D01*
X66701Y-80466D01*
X66777Y-80542D01*
X66875Y-80583D01*
X66982Y-80583D01*
X67080Y-80542D01*
X67156Y-80467D01*
X67197Y-80368D01*
X67197Y-80261D01*
X67197Y-80964D01*
X65334Y-80964D01*
X65334Y-69928D01*
X65334Y-69704D01*
X65334Y-69665D01*
X65334Y-69441D01*
X65295Y-69402D01*
X65160Y-69402D01*
X65098Y-69402D01*
X65040Y-69426D01*
X64995Y-69470D01*
X64971Y-69528D01*
X64971Y-69625D01*
X65011Y-69665D01*
X65334Y-69665D01*
X65334Y-69704D01*
X65011Y-69704D01*
X64971Y-69744D01*
X64971Y-69841D01*
X64995Y-69899D01*
X65040Y-69943D01*
X65098Y-69967D01*
X65160Y-69967D01*
X65295Y-69967D01*
X65334Y-69928D01*
X65334Y-80964D01*
X64933Y-80964D01*
X64933Y-78785D01*
X64892Y-78686D01*
X64817Y-78611D01*
X64718Y-78570D01*
X64612Y-78570D01*
X64513Y-78611D01*
X64438Y-78686D01*
X64397Y-78785D01*
X64397Y-78891D01*
X64437Y-78990D01*
X64513Y-79065D01*
X64611Y-79106D01*
X64718Y-79106D01*
X64817Y-79066D01*
X64892Y-78990D01*
X64933Y-78892D01*
X64933Y-78785D01*
X64933Y-80964D01*
X62637Y-80964D01*
X62637Y-66619D01*
X62636Y-66447D01*
X62597Y-66353D01*
X62597Y-65457D01*
X62538Y-65313D01*
X62427Y-65202D01*
X62283Y-65142D01*
X62126Y-65142D01*
X61982Y-65201D01*
X61871Y-65312D01*
X61811Y-65456D01*
X61811Y-65613D01*
X61871Y-65757D01*
X61981Y-65868D01*
X62126Y-65928D01*
X62282Y-65928D01*
X62427Y-65868D01*
X62537Y-65758D01*
X62597Y-65613D01*
X62597Y-65457D01*
X62597Y-66353D01*
X62572Y-66292D01*
X62502Y-66265D01*
X62474Y-66293D01*
X62474Y-66237D01*
X62447Y-66167D01*
X62288Y-66102D01*
X62116Y-66103D01*
X61961Y-66167D01*
X61935Y-66237D01*
X62204Y-66507D01*
X62474Y-66237D01*
X62474Y-66293D01*
X62232Y-66535D01*
X62502Y-66805D01*
X62572Y-66778D01*
X62637Y-66619D01*
X62637Y-80964D01*
X62597Y-80964D01*
X62597Y-67833D01*
X62597Y-67786D01*
X62597Y-67236D01*
X62579Y-67193D01*
X62546Y-67160D01*
X62503Y-67142D01*
X62474Y-67142D01*
X62474Y-66832D01*
X62204Y-66563D01*
X62176Y-66591D01*
X62176Y-66535D01*
X61907Y-66265D01*
X61836Y-66292D01*
X61771Y-66451D01*
X61772Y-66623D01*
X61836Y-66778D01*
X61907Y-66805D01*
X62176Y-66535D01*
X62176Y-66591D01*
X61935Y-66832D01*
X61961Y-66903D01*
X62121Y-66968D01*
X62293Y-66967D01*
X62447Y-66903D01*
X62474Y-66832D01*
X62474Y-67142D01*
X62456Y-67142D01*
X61906Y-67142D01*
X61862Y-67160D01*
X61829Y-67193D01*
X61811Y-67236D01*
X61811Y-67283D01*
X61811Y-67833D01*
X61829Y-67877D01*
X61862Y-67910D01*
X61906Y-67928D01*
X61953Y-67928D01*
X62503Y-67928D01*
X62546Y-67910D01*
X62579Y-67877D01*
X62597Y-67833D01*
X62597Y-80964D01*
X62126Y-80964D01*
X62126Y-79387D01*
X62018Y-79126D01*
X61819Y-78927D01*
X61732Y-78891D01*
X61732Y-70725D01*
X61624Y-70465D01*
X61425Y-70265D01*
X61291Y-70210D01*
X61291Y-69238D01*
X61251Y-69139D01*
X61175Y-69064D01*
X61077Y-69023D01*
X60970Y-69023D01*
X60871Y-69063D01*
X60796Y-69139D01*
X60755Y-69237D01*
X60755Y-69344D01*
X60796Y-69443D01*
X60871Y-69518D01*
X60970Y-69559D01*
X61076Y-69559D01*
X61175Y-69518D01*
X61250Y-69443D01*
X61291Y-69344D01*
X61291Y-69238D01*
X61291Y-70210D01*
X61165Y-70157D01*
X60883Y-70157D01*
X60701Y-70232D01*
X60701Y-69238D01*
X60660Y-69139D01*
X60585Y-69064D01*
X60486Y-69023D01*
X60379Y-69023D01*
X60281Y-69063D01*
X60205Y-69139D01*
X60165Y-69237D01*
X60164Y-69344D01*
X60205Y-69443D01*
X60281Y-69518D01*
X60379Y-69559D01*
X60486Y-69559D01*
X60584Y-69518D01*
X60660Y-69443D01*
X60701Y-69344D01*
X60701Y-69238D01*
X60701Y-70232D01*
X60622Y-70265D01*
X60423Y-70464D01*
X60315Y-70724D01*
X60314Y-71006D01*
X60422Y-71267D01*
X60621Y-71466D01*
X60882Y-71574D01*
X61163Y-71574D01*
X61424Y-71467D01*
X61624Y-71268D01*
X61732Y-71007D01*
X61732Y-70725D01*
X61732Y-78891D01*
X61558Y-78819D01*
X61276Y-78818D01*
X61016Y-78926D01*
X60898Y-79044D01*
X60898Y-77505D01*
X60898Y-76718D01*
X60898Y-75931D01*
X60898Y-75143D01*
X60898Y-74356D01*
X60898Y-73568D01*
X60898Y-72781D01*
X60857Y-72682D01*
X60781Y-72607D01*
X60683Y-72566D01*
X60576Y-72566D01*
X60478Y-72607D01*
X60402Y-72682D01*
X60361Y-72781D01*
X60361Y-72887D01*
X60402Y-72986D01*
X60477Y-73061D01*
X60576Y-73102D01*
X60683Y-73102D01*
X60781Y-73062D01*
X60857Y-72986D01*
X60897Y-72888D01*
X60898Y-72781D01*
X60898Y-73568D01*
X60857Y-73470D01*
X60781Y-73394D01*
X60683Y-73353D01*
X60576Y-73353D01*
X60478Y-73394D01*
X60402Y-73469D01*
X60361Y-73568D01*
X60361Y-73675D01*
X60402Y-73773D01*
X60477Y-73849D01*
X60576Y-73890D01*
X60683Y-73890D01*
X60781Y-73849D01*
X60857Y-73774D01*
X60897Y-73675D01*
X60898Y-73568D01*
X60898Y-74356D01*
X60857Y-74257D01*
X60781Y-74182D01*
X60683Y-74141D01*
X60576Y-74141D01*
X60478Y-74182D01*
X60402Y-74257D01*
X60361Y-74355D01*
X60361Y-74462D01*
X60402Y-74561D01*
X60477Y-74636D01*
X60576Y-74677D01*
X60683Y-74677D01*
X60781Y-74636D01*
X60857Y-74561D01*
X60897Y-74463D01*
X60898Y-74356D01*
X60898Y-75143D01*
X60857Y-75045D01*
X60781Y-74969D01*
X60683Y-74928D01*
X60576Y-74928D01*
X60478Y-74969D01*
X60402Y-75044D01*
X60361Y-75143D01*
X60361Y-75249D01*
X60402Y-75348D01*
X60477Y-75424D01*
X60576Y-75464D01*
X60683Y-75465D01*
X60781Y-75424D01*
X60857Y-75348D01*
X60897Y-75250D01*
X60898Y-75143D01*
X60898Y-75931D01*
X60857Y-75832D01*
X60781Y-75757D01*
X60683Y-75716D01*
X60576Y-75716D01*
X60478Y-75756D01*
X60402Y-75832D01*
X60361Y-75930D01*
X60361Y-76037D01*
X60402Y-76135D01*
X60477Y-76211D01*
X60576Y-76252D01*
X60683Y-76252D01*
X60781Y-76211D01*
X60857Y-76136D01*
X60897Y-76037D01*
X60898Y-75931D01*
X60898Y-76718D01*
X60857Y-76619D01*
X60781Y-76544D01*
X60683Y-76503D01*
X60576Y-76503D01*
X60478Y-76544D01*
X60402Y-76619D01*
X60361Y-76718D01*
X60361Y-76824D01*
X60402Y-76923D01*
X60477Y-76998D01*
X60576Y-77039D01*
X60683Y-77039D01*
X60781Y-76999D01*
X60857Y-76923D01*
X60897Y-76825D01*
X60898Y-76718D01*
X60898Y-77505D01*
X60857Y-77407D01*
X60781Y-77331D01*
X60683Y-77290D01*
X60576Y-77290D01*
X60478Y-77331D01*
X60402Y-77406D01*
X60361Y-77505D01*
X60361Y-77612D01*
X60402Y-77710D01*
X60477Y-77786D01*
X60576Y-77827D01*
X60683Y-77827D01*
X60781Y-77786D01*
X60857Y-77711D01*
X60897Y-77612D01*
X60898Y-77505D01*
X60898Y-79044D01*
X60816Y-79125D01*
X60708Y-79385D01*
X60708Y-79667D01*
X60816Y-79928D01*
X61015Y-80127D01*
X61275Y-80236D01*
X61557Y-80236D01*
X61818Y-80128D01*
X62017Y-79929D01*
X62125Y-79669D01*
X62126Y-79387D01*
X62126Y-80964D01*
X61430Y-80964D01*
X60868Y-80852D01*
X60403Y-80541D01*
X60110Y-80104D01*
X60110Y-69238D01*
X60069Y-69139D01*
X59994Y-69064D01*
X59896Y-69023D01*
X59789Y-69023D01*
X59690Y-69063D01*
X59615Y-69139D01*
X59574Y-69237D01*
X59574Y-69344D01*
X59615Y-69443D01*
X59690Y-69518D01*
X59788Y-69559D01*
X59895Y-69559D01*
X59994Y-69518D01*
X60069Y-69443D01*
X60110Y-69344D01*
X60110Y-69238D01*
X60110Y-80104D01*
X60092Y-80076D01*
X59980Y-79513D01*
X59980Y-72834D01*
X59971Y-72790D01*
X59969Y-72781D01*
X59969Y-72781D01*
X59939Y-72737D01*
X59192Y-71990D01*
X59192Y-61726D01*
X59207Y-61653D01*
X59240Y-61603D01*
X59291Y-61569D01*
X59350Y-61557D01*
X59409Y-61569D01*
X59459Y-61603D01*
X59493Y-61653D01*
X59507Y-61726D01*
X59507Y-62204D01*
X59518Y-62257D01*
X59548Y-62302D01*
X61713Y-64467D01*
X61758Y-64497D01*
X61811Y-64507D01*
X75984Y-64507D01*
X75984Y-64507D01*
X76036Y-64497D01*
X76081Y-64467D01*
X78247Y-62302D01*
X78247Y-62302D01*
X78276Y-62257D01*
X78287Y-62204D01*
X78287Y-61726D01*
X78301Y-61653D01*
X78335Y-61603D01*
X78385Y-61569D01*
X78444Y-61557D01*
X78504Y-61569D01*
X78554Y-61603D01*
X78587Y-61653D01*
X78602Y-61726D01*
X78602Y-71990D01*
X78602Y-71990D01*
G37*
G54D21*
X78602Y-71990D02*
X78220Y-72371D01*
X78220Y-69238D01*
X78180Y-69139D01*
X78104Y-69064D01*
X78006Y-69023D01*
X77899Y-69023D01*
X77801Y-69063D01*
X77725Y-69139D01*
X77684Y-69237D01*
X77684Y-69344D01*
X77725Y-69443D01*
X77800Y-69518D01*
X77899Y-69559D01*
X78005Y-69559D01*
X78104Y-69518D01*
X78179Y-69443D01*
X78220Y-69344D01*
X78220Y-69238D01*
X78220Y-72371D01*
X77855Y-72737D01*
X77825Y-72781D01*
X77814Y-72834D01*
X77814Y-79513D01*
X77703Y-80076D01*
X77630Y-80185D01*
X77630Y-69238D01*
X77589Y-69139D01*
X77514Y-69064D01*
X77415Y-69023D01*
X77309Y-69023D01*
X77210Y-69063D01*
X77135Y-69139D01*
X77094Y-69237D01*
X77094Y-69344D01*
X77134Y-69443D01*
X77210Y-69518D01*
X77308Y-69559D01*
X77415Y-69559D01*
X77513Y-69518D01*
X77589Y-69443D01*
X77630Y-69344D01*
X77630Y-69238D01*
X77630Y-80185D01*
X77480Y-80409D01*
X77480Y-70725D01*
X77372Y-70465D01*
X77173Y-70265D01*
X77039Y-70210D01*
X77039Y-69238D01*
X76999Y-69139D01*
X76923Y-69064D01*
X76825Y-69023D01*
X76718Y-69023D01*
X76619Y-69063D01*
X76544Y-69139D01*
X76503Y-69237D01*
X76503Y-69344D01*
X76544Y-69443D01*
X76619Y-69518D01*
X76718Y-69559D01*
X76824Y-69559D01*
X76923Y-69518D01*
X76998Y-69443D01*
X77039Y-69344D01*
X77039Y-69238D01*
X77039Y-70210D01*
X76913Y-70157D01*
X76631Y-70157D01*
X76370Y-70265D01*
X76171Y-70464D01*
X76063Y-70724D01*
X76062Y-71006D01*
X76170Y-71267D01*
X76369Y-71466D01*
X76630Y-71574D01*
X76911Y-71574D01*
X77172Y-71467D01*
X77372Y-71268D01*
X77480Y-71007D01*
X77480Y-70725D01*
X77480Y-80409D01*
X77433Y-80479D01*
X77433Y-77505D01*
X77433Y-76718D01*
X77433Y-75931D01*
X77433Y-75143D01*
X77433Y-74356D01*
X77433Y-73568D01*
X77433Y-72781D01*
X77392Y-72682D01*
X77317Y-72607D01*
X77218Y-72566D01*
X77112Y-72566D01*
X77013Y-72607D01*
X76938Y-72682D01*
X76897Y-72781D01*
X76897Y-72887D01*
X76937Y-72986D01*
X77013Y-73061D01*
X77111Y-73102D01*
X77218Y-73102D01*
X77317Y-73062D01*
X77392Y-72986D01*
X77433Y-72888D01*
X77433Y-72781D01*
X77433Y-73568D01*
X77392Y-73470D01*
X77317Y-73394D01*
X77218Y-73353D01*
X77112Y-73353D01*
X77013Y-73394D01*
X76938Y-73469D01*
X76897Y-73568D01*
X76897Y-73675D01*
X76937Y-73773D01*
X77013Y-73849D01*
X77111Y-73890D01*
X77218Y-73890D01*
X77317Y-73849D01*
X77392Y-73774D01*
X77433Y-73675D01*
X77433Y-73568D01*
X77433Y-74356D01*
X77392Y-74257D01*
X77317Y-74182D01*
X77218Y-74141D01*
X77112Y-74141D01*
X77013Y-74182D01*
X76938Y-74257D01*
X76897Y-74355D01*
X76897Y-74462D01*
X76937Y-74561D01*
X77013Y-74636D01*
X77111Y-74677D01*
X77218Y-74677D01*
X77317Y-74636D01*
X77392Y-74561D01*
X77433Y-74463D01*
X77433Y-74356D01*
X77433Y-75143D01*
X77392Y-75045D01*
X77317Y-74969D01*
X77218Y-74928D01*
X77112Y-74928D01*
X77013Y-74969D01*
X76938Y-75044D01*
X76897Y-75143D01*
X76897Y-75249D01*
X76937Y-75348D01*
X77013Y-75424D01*
X77111Y-75464D01*
X77218Y-75465D01*
X77317Y-75424D01*
X77392Y-75348D01*
X77433Y-75250D01*
X77433Y-75143D01*
X77433Y-75931D01*
X77392Y-75832D01*
X77317Y-75757D01*
X77218Y-75716D01*
X77112Y-75716D01*
X77013Y-75756D01*
X76938Y-75832D01*
X76897Y-75930D01*
X76897Y-76037D01*
X76937Y-76135D01*
X77013Y-76211D01*
X77111Y-76252D01*
X77218Y-76252D01*
X77317Y-76211D01*
X77392Y-76136D01*
X77433Y-76037D01*
X77433Y-75931D01*
X77433Y-76718D01*
X77392Y-76619D01*
X77317Y-76544D01*
X77218Y-76503D01*
X77112Y-76503D01*
X77013Y-76544D01*
X76938Y-76619D01*
X76897Y-76718D01*
X76897Y-76824D01*
X76937Y-76923D01*
X77013Y-76998D01*
X77111Y-77039D01*
X77218Y-77039D01*
X77317Y-76999D01*
X77392Y-76923D01*
X77433Y-76825D01*
X77433Y-76718D01*
X77433Y-77505D01*
X77392Y-77407D01*
X77317Y-77331D01*
X77218Y-77290D01*
X77112Y-77290D01*
X77013Y-77331D01*
X76938Y-77406D01*
X76897Y-77505D01*
X76897Y-77612D01*
X76937Y-77710D01*
X77013Y-77786D01*
X77111Y-77827D01*
X77218Y-77827D01*
X77317Y-77786D01*
X77392Y-77711D01*
X77433Y-77612D01*
X77433Y-77505D01*
X77433Y-80479D01*
X77392Y-80541D01*
X77086Y-80745D01*
X77086Y-79387D01*
X76979Y-79126D01*
X76779Y-78927D01*
X76519Y-78819D01*
X76237Y-78818D01*
X76023Y-78907D01*
X76023Y-68735D01*
X76023Y-68488D01*
X76023Y-68370D01*
X76023Y-68122D01*
X75999Y-68064D01*
X75983Y-68049D01*
X75983Y-67351D01*
X75983Y-66351D01*
X75983Y-65351D01*
X75924Y-65206D01*
X75813Y-65096D01*
X75669Y-65036D01*
X75512Y-65035D01*
X75368Y-65095D01*
X75257Y-65206D01*
X75197Y-65350D01*
X75197Y-65506D01*
X75257Y-65651D01*
X75367Y-65762D01*
X75512Y-65822D01*
X75668Y-65822D01*
X75812Y-65762D01*
X75923Y-65652D01*
X75983Y-65507D01*
X75983Y-65351D01*
X75983Y-66351D01*
X75924Y-66206D01*
X75813Y-66096D01*
X75669Y-66036D01*
X75512Y-66035D01*
X75368Y-66095D01*
X75257Y-66206D01*
X75197Y-66350D01*
X75197Y-66506D01*
X75257Y-66651D01*
X75367Y-66762D01*
X75512Y-66822D01*
X75668Y-66822D01*
X75812Y-66762D01*
X75923Y-66652D01*
X75983Y-66507D01*
X75983Y-66351D01*
X75983Y-67351D01*
X75924Y-67206D01*
X75813Y-67096D01*
X75669Y-67036D01*
X75512Y-67035D01*
X75368Y-67095D01*
X75257Y-67206D01*
X75230Y-67271D01*
X73543Y-67271D01*
X73543Y-66338D01*
X73519Y-66218D01*
X73451Y-66115D01*
X73057Y-65722D01*
X72955Y-65653D01*
X72834Y-65629D01*
X72362Y-65629D01*
X72362Y-64937D01*
X72344Y-64893D01*
X72310Y-64860D01*
X72267Y-64842D01*
X72220Y-64842D01*
X70252Y-64842D01*
X70208Y-64860D01*
X70175Y-64893D01*
X70157Y-64937D01*
X70157Y-64984D01*
X70157Y-66952D01*
X70175Y-66996D01*
X70208Y-67029D01*
X70252Y-67047D01*
X70299Y-67047D01*
X72267Y-67047D01*
X72310Y-67029D01*
X72344Y-66996D01*
X72362Y-66952D01*
X72362Y-66905D01*
X72362Y-66259D01*
X72704Y-66259D01*
X73005Y-66561D01*
X73107Y-66629D01*
X73228Y-66653D01*
X73348Y-66629D01*
X73451Y-66561D01*
X73519Y-66459D01*
X73543Y-66338D01*
X73543Y-67271D01*
X71350Y-67271D01*
X71290Y-67283D01*
X71239Y-67317D01*
X71239Y-67317D01*
X70574Y-67982D01*
X70098Y-67982D01*
X70081Y-67964D01*
X70037Y-67946D01*
X70000Y-67946D01*
X70000Y-66952D01*
X70000Y-66905D01*
X70000Y-64937D01*
X69982Y-64893D01*
X69948Y-64860D01*
X69905Y-64842D01*
X69858Y-64842D01*
X67889Y-64842D01*
X67846Y-64860D01*
X67813Y-64893D01*
X67795Y-64937D01*
X67795Y-64984D01*
X67795Y-66952D01*
X67813Y-66996D01*
X67846Y-67029D01*
X67889Y-67047D01*
X67936Y-67047D01*
X68582Y-67047D01*
X68582Y-67322D01*
X68606Y-67443D01*
X68674Y-67545D01*
X68777Y-67613D01*
X68897Y-67637D01*
X69018Y-67613D01*
X69120Y-67545D01*
X69188Y-67443D01*
X69212Y-67322D01*
X69212Y-67047D01*
X69905Y-67047D01*
X69948Y-67029D01*
X69982Y-66996D01*
X70000Y-66952D01*
X70000Y-67946D01*
X69990Y-67946D01*
X69490Y-67946D01*
X69447Y-67964D01*
X69414Y-67997D01*
X69396Y-68041D01*
X69396Y-68088D01*
X69396Y-68238D01*
X69408Y-68267D01*
X69396Y-68297D01*
X69396Y-68344D01*
X69396Y-68494D01*
X69307Y-68494D01*
X68418Y-67605D01*
X68367Y-67571D01*
X68307Y-67559D01*
X67637Y-67559D01*
X67637Y-66952D01*
X67637Y-66905D01*
X67637Y-64937D01*
X67619Y-64893D01*
X67586Y-64860D01*
X67543Y-64842D01*
X67496Y-64842D01*
X65527Y-64842D01*
X65484Y-64860D01*
X65451Y-64893D01*
X65433Y-64937D01*
X65433Y-64984D01*
X65433Y-65629D01*
X64960Y-65629D01*
X64840Y-65653D01*
X64737Y-65722D01*
X64344Y-66115D01*
X64275Y-66218D01*
X64251Y-66338D01*
X64275Y-66459D01*
X64344Y-66561D01*
X64446Y-66629D01*
X64566Y-66653D01*
X64687Y-66629D01*
X64789Y-66561D01*
X65091Y-66259D01*
X65433Y-66259D01*
X65433Y-66952D01*
X65451Y-66996D01*
X65484Y-67029D01*
X65527Y-67047D01*
X65574Y-67047D01*
X67543Y-67047D01*
X67586Y-67029D01*
X67619Y-66996D01*
X67637Y-66952D01*
X67637Y-67559D01*
X66338Y-67559D01*
X66278Y-67571D01*
X66227Y-67605D01*
X66227Y-67605D01*
X66067Y-67764D01*
X66033Y-67815D01*
X66026Y-67852D01*
X65994Y-67865D01*
X65961Y-67898D01*
X65943Y-67942D01*
X65943Y-67989D01*
X65943Y-68476D01*
X65662Y-68195D01*
X65611Y-68161D01*
X65551Y-68149D01*
X65157Y-68149D01*
X65097Y-68161D01*
X65046Y-68195D01*
X65046Y-68195D01*
X64455Y-68786D01*
X64421Y-68837D01*
X64409Y-68897D01*
X64409Y-69226D01*
X64122Y-69512D01*
X64122Y-69046D01*
X64122Y-68999D01*
X64122Y-68749D01*
X64104Y-68705D01*
X64071Y-68672D01*
X64028Y-68654D01*
X63981Y-68654D01*
X63531Y-68654D01*
X63487Y-68672D01*
X63454Y-68705D01*
X63440Y-68740D01*
X63213Y-68740D01*
X63154Y-68680D01*
X63222Y-68652D01*
X63298Y-68577D01*
X63338Y-68478D01*
X63339Y-68372D01*
X63298Y-68273D01*
X63222Y-68198D01*
X63124Y-68157D01*
X63017Y-68157D01*
X62919Y-68197D01*
X62843Y-68273D01*
X62802Y-68371D01*
X62802Y-68478D01*
X62843Y-68576D01*
X62908Y-68642D01*
X62840Y-68670D01*
X62764Y-68745D01*
X62724Y-68844D01*
X62723Y-68950D01*
X62764Y-69049D01*
X62840Y-69124D01*
X62938Y-69165D01*
X63045Y-69165D01*
X63143Y-69125D01*
X63213Y-69055D01*
X63440Y-69055D01*
X63454Y-69089D01*
X63487Y-69122D01*
X63531Y-69140D01*
X63578Y-69140D01*
X64028Y-69140D01*
X64071Y-69122D01*
X64104Y-69089D01*
X64122Y-69046D01*
X64122Y-69512D01*
X64115Y-69519D01*
X64104Y-69493D01*
X64071Y-69459D01*
X64028Y-69441D01*
X63981Y-69441D01*
X63531Y-69441D01*
X63487Y-69459D01*
X63454Y-69493D01*
X63436Y-69536D01*
X63436Y-69583D01*
X63436Y-69833D01*
X63454Y-69876D01*
X63487Y-69910D01*
X63531Y-69928D01*
X63578Y-69928D01*
X64028Y-69928D01*
X64071Y-69910D01*
X64104Y-69876D01*
X64118Y-69842D01*
X64173Y-69842D01*
X64233Y-69830D01*
X64233Y-69830D01*
X64284Y-69796D01*
X64678Y-69402D01*
X64678Y-69402D01*
X64678Y-69402D01*
X64712Y-69351D01*
X64724Y-69291D01*
X64724Y-69291D01*
X64724Y-69291D01*
X64724Y-68962D01*
X65222Y-68464D01*
X65485Y-68464D01*
X66522Y-69501D01*
X66573Y-69535D01*
X66573Y-69535D01*
X66633Y-69547D01*
X67192Y-69547D01*
X67171Y-69556D01*
X67120Y-69606D01*
X66411Y-69606D01*
X65697Y-68891D01*
X65697Y-68749D01*
X65679Y-68705D01*
X65646Y-68672D01*
X65602Y-68654D01*
X65555Y-68654D01*
X65105Y-68654D01*
X65062Y-68672D01*
X65029Y-68705D01*
X65011Y-68749D01*
X65011Y-68796D01*
X65011Y-69046D01*
X65029Y-69089D01*
X65062Y-69122D01*
X65105Y-69140D01*
X65152Y-69140D01*
X65445Y-69140D01*
X66213Y-69908D01*
X66227Y-69918D01*
X66198Y-69947D01*
X66198Y-70321D01*
X66206Y-70321D01*
X66206Y-70361D01*
X66198Y-70361D01*
X66198Y-70734D01*
X66238Y-70774D01*
X66328Y-70774D01*
X66386Y-70750D01*
X66430Y-70706D01*
X66450Y-70658D01*
X66461Y-70683D01*
X66494Y-70716D01*
X66521Y-70728D01*
X66521Y-71310D01*
X66386Y-71310D01*
X66343Y-71328D01*
X66310Y-71361D01*
X66292Y-71405D01*
X66292Y-71452D01*
X66292Y-71902D01*
X66310Y-71945D01*
X66343Y-71978D01*
X66386Y-71996D01*
X66396Y-71996D01*
X66396Y-72480D01*
X66373Y-72480D01*
X66329Y-72498D01*
X66296Y-72531D01*
X66278Y-72574D01*
X66278Y-72621D01*
X66278Y-72637D01*
X66159Y-72637D01*
X66159Y-70734D01*
X66159Y-70361D01*
X66159Y-70321D01*
X66159Y-69947D01*
X66120Y-69908D01*
X66029Y-69908D01*
X65971Y-69932D01*
X65927Y-69976D01*
X65903Y-70034D01*
X65903Y-70097D01*
X65903Y-70282D01*
X65943Y-70321D01*
X66159Y-70321D01*
X66159Y-70361D01*
X65943Y-70361D01*
X65903Y-70400D01*
X65903Y-70585D01*
X65903Y-70648D01*
X65927Y-70706D01*
X65971Y-70750D01*
X66029Y-70774D01*
X66120Y-70774D01*
X66159Y-70734D01*
X66159Y-72637D01*
X66091Y-72637D01*
X66091Y-72195D01*
X66091Y-72148D01*
X66091Y-71898D01*
X66073Y-71855D01*
X66039Y-71822D01*
X65996Y-71804D01*
X65975Y-71804D01*
X66016Y-71707D01*
X66016Y-71600D01*
X65975Y-71501D01*
X65900Y-71426D01*
X65801Y-71385D01*
X65736Y-71385D01*
X65736Y-69841D01*
X65736Y-69744D01*
X65736Y-69625D01*
X65736Y-69528D01*
X65712Y-69470D01*
X65668Y-69426D01*
X65610Y-69402D01*
X65548Y-69402D01*
X65413Y-69402D01*
X65374Y-69441D01*
X65374Y-69665D01*
X65697Y-69665D01*
X65736Y-69625D01*
X65736Y-69744D01*
X65697Y-69704D01*
X65374Y-69704D01*
X65374Y-69928D01*
X65413Y-69967D01*
X65548Y-69967D01*
X65610Y-69967D01*
X65668Y-69943D01*
X65712Y-69899D01*
X65736Y-69841D01*
X65736Y-71385D01*
X65694Y-71385D01*
X65596Y-71426D01*
X65520Y-71501D01*
X65479Y-71599D01*
X65479Y-71706D01*
X65520Y-71804D01*
X65499Y-71804D01*
X65456Y-71822D01*
X65422Y-71855D01*
X65404Y-71898D01*
X65404Y-71945D01*
X65404Y-72195D01*
X65422Y-72239D01*
X65456Y-72272D01*
X65499Y-72290D01*
X65546Y-72290D01*
X65996Y-72290D01*
X66039Y-72272D01*
X66073Y-72239D01*
X66091Y-72195D01*
X66091Y-72637D01*
X66068Y-72637D01*
X66039Y-72609D01*
X65996Y-72591D01*
X65949Y-72591D01*
X65499Y-72591D01*
X65456Y-72609D01*
X65422Y-72642D01*
X65404Y-72686D01*
X65404Y-72733D01*
X65404Y-72983D01*
X65422Y-73026D01*
X65456Y-73059D01*
X65499Y-73077D01*
X65546Y-73077D01*
X65996Y-73077D01*
X66039Y-73059D01*
X66073Y-73026D01*
X66091Y-72983D01*
X66091Y-72952D01*
X66278Y-72952D01*
X66278Y-73015D01*
X66296Y-73059D01*
X66329Y-73092D01*
X66373Y-73110D01*
X66396Y-73110D01*
X66396Y-73863D01*
X66408Y-73923D01*
X66442Y-73974D01*
X67583Y-75115D01*
X67583Y-75115D01*
X67583Y-75115D01*
X67608Y-75132D01*
X67634Y-75149D01*
X67634Y-75149D01*
X67694Y-75161D01*
X67694Y-75161D01*
X67694Y-75161D01*
X68048Y-75161D01*
X68275Y-75388D01*
X68242Y-75374D01*
X68054Y-75373D01*
X67880Y-75445D01*
X67747Y-75578D01*
X67675Y-75752D01*
X67675Y-75940D01*
X67746Y-76113D01*
X67879Y-76246D01*
X68053Y-76318D01*
X68241Y-76318D01*
X68414Y-76247D01*
X68547Y-76114D01*
X68619Y-75940D01*
X68620Y-75752D01*
X68605Y-75718D01*
X68675Y-75787D01*
X68675Y-75940D01*
X68746Y-76113D01*
X68879Y-76246D01*
X69053Y-76318D01*
X69241Y-76318D01*
X69414Y-76247D01*
X69547Y-76114D01*
X69619Y-75940D01*
X69620Y-75752D01*
X69548Y-75579D01*
X69415Y-75446D01*
X69242Y-75374D01*
X69054Y-75373D01*
X68880Y-75445D01*
X68829Y-75496D01*
X68651Y-75318D01*
X68741Y-75318D01*
X68914Y-75247D01*
X69047Y-75114D01*
X69119Y-74940D01*
X69120Y-74752D01*
X69048Y-74579D01*
X68915Y-74446D01*
X68742Y-74374D01*
X68554Y-74373D01*
X68492Y-74399D01*
X68492Y-72203D01*
X68492Y-72106D01*
X68492Y-71988D01*
X68492Y-71890D01*
X68468Y-71833D01*
X68424Y-71788D01*
X68366Y-71764D01*
X68303Y-71764D01*
X68169Y-71764D01*
X68129Y-71804D01*
X68129Y-72027D01*
X68453Y-72027D01*
X68492Y-71988D01*
X68492Y-72106D01*
X68453Y-72066D01*
X68129Y-72066D01*
X68129Y-72290D01*
X68169Y-72329D01*
X68303Y-72329D01*
X68366Y-72329D01*
X68424Y-72305D01*
X68468Y-72261D01*
X68492Y-72203D01*
X68492Y-74399D01*
X68380Y-74445D01*
X68247Y-74578D01*
X68201Y-74688D01*
X67825Y-74688D01*
X67461Y-74325D01*
X67461Y-73110D01*
X67485Y-73110D01*
X67528Y-73092D01*
X67561Y-73059D01*
X67579Y-73015D01*
X67579Y-72968D01*
X67579Y-72952D01*
X67767Y-72952D01*
X67767Y-72983D01*
X67785Y-73026D01*
X67818Y-73059D01*
X67861Y-73077D01*
X67908Y-73077D01*
X68358Y-73077D01*
X68402Y-73059D01*
X68435Y-73026D01*
X68453Y-72983D01*
X68453Y-72936D01*
X68453Y-72686D01*
X68435Y-72642D01*
X68402Y-72609D01*
X68358Y-72591D01*
X68311Y-72591D01*
X68090Y-72591D01*
X68090Y-72290D01*
X68090Y-72066D01*
X68090Y-72027D01*
X68090Y-71804D01*
X68051Y-71764D01*
X67916Y-71764D01*
X67853Y-71764D01*
X67796Y-71788D01*
X67751Y-71833D01*
X67727Y-71890D01*
X67727Y-71988D01*
X67767Y-72027D01*
X68090Y-72027D01*
X68090Y-72066D01*
X67767Y-72066D01*
X67727Y-72106D01*
X67727Y-72203D01*
X67751Y-72261D01*
X67796Y-72305D01*
X67853Y-72329D01*
X67916Y-72329D01*
X68051Y-72329D01*
X68090Y-72290D01*
X68090Y-72591D01*
X67861Y-72591D01*
X67818Y-72609D01*
X67789Y-72637D01*
X67579Y-72637D01*
X67579Y-72574D01*
X67561Y-72531D01*
X67528Y-72498D01*
X67485Y-72480D01*
X67461Y-72480D01*
X67461Y-71996D01*
X67471Y-71996D01*
X67514Y-71978D01*
X67547Y-71945D01*
X67565Y-71902D01*
X67565Y-71855D01*
X67565Y-71405D01*
X67547Y-71361D01*
X67514Y-71328D01*
X67471Y-71310D01*
X67424Y-71310D01*
X67336Y-71310D01*
X67336Y-70728D01*
X67364Y-70716D01*
X67397Y-70683D01*
X67415Y-70640D01*
X67415Y-70593D01*
X67415Y-70126D01*
X67443Y-70154D01*
X67443Y-70640D01*
X67461Y-70683D01*
X67494Y-70716D01*
X67537Y-70734D01*
X67584Y-70734D01*
X67820Y-70734D01*
X67864Y-70716D01*
X67897Y-70683D01*
X67915Y-70640D01*
X67915Y-70593D01*
X67915Y-70106D01*
X68589Y-70780D01*
X68640Y-70814D01*
X68640Y-70814D01*
X68700Y-70826D01*
X70472Y-70826D01*
X70532Y-70814D01*
X70532Y-70814D01*
X70583Y-70780D01*
X70623Y-70740D01*
X70722Y-70740D01*
X70820Y-70699D01*
X70896Y-70624D01*
X70937Y-70526D01*
X70937Y-70471D01*
X71246Y-70780D01*
X71298Y-70814D01*
X71298Y-70814D01*
X71358Y-70826D01*
X73129Y-70826D01*
X73190Y-70814D01*
X73190Y-70814D01*
X73241Y-70780D01*
X73773Y-70248D01*
X73871Y-70248D01*
X73970Y-70207D01*
X74046Y-70132D01*
X74086Y-70033D01*
X74087Y-69927D01*
X74046Y-69828D01*
X73970Y-69753D01*
X73872Y-69712D01*
X73765Y-69712D01*
X73667Y-69752D01*
X73591Y-69828D01*
X73550Y-69926D01*
X73550Y-70025D01*
X73064Y-70511D01*
X72336Y-70511D01*
X72336Y-70494D01*
X72336Y-70344D01*
X72323Y-70315D01*
X72336Y-70285D01*
X72336Y-70238D01*
X72336Y-70088D01*
X72324Y-70059D01*
X72336Y-70029D01*
X72336Y-69982D01*
X72336Y-69832D01*
X72324Y-69803D01*
X72336Y-69773D01*
X72336Y-69726D01*
X72336Y-69576D01*
X72324Y-69547D01*
X72336Y-69517D01*
X72336Y-69470D01*
X72336Y-69343D01*
X72351Y-69327D01*
X72375Y-69269D01*
X72375Y-69222D01*
X72336Y-69183D01*
X71987Y-69183D01*
X71987Y-69190D01*
X71948Y-69190D01*
X71948Y-69183D01*
X71600Y-69183D01*
X71560Y-69222D01*
X71560Y-69269D01*
X71584Y-69327D01*
X71600Y-69343D01*
X71600Y-69367D01*
X71600Y-69517D01*
X71612Y-69547D01*
X71600Y-69576D01*
X71600Y-69623D01*
X71600Y-69773D01*
X71612Y-69803D01*
X71600Y-69832D01*
X71600Y-69879D01*
X71600Y-70029D01*
X71612Y-70059D01*
X71600Y-70088D01*
X71600Y-70135D01*
X71600Y-70196D01*
X71462Y-70058D01*
X71487Y-70033D01*
X71527Y-69935D01*
X71527Y-69828D01*
X71487Y-69730D01*
X71411Y-69654D01*
X71313Y-69613D01*
X71206Y-69613D01*
X71108Y-69654D01*
X71032Y-69729D01*
X71001Y-69805D01*
X70977Y-69770D01*
X70772Y-69565D01*
X70810Y-69558D01*
X70812Y-69559D01*
X70919Y-69559D01*
X71017Y-69518D01*
X71093Y-69443D01*
X71134Y-69344D01*
X71134Y-69238D01*
X71093Y-69139D01*
X71018Y-69064D01*
X70919Y-69023D01*
X70813Y-69023D01*
X70714Y-69063D01*
X70638Y-69139D01*
X70608Y-69212D01*
X70275Y-69212D01*
X70207Y-69226D01*
X70184Y-69241D01*
X70171Y-69241D01*
X70171Y-69222D01*
X70132Y-69182D01*
X69783Y-69182D01*
X69783Y-69190D01*
X69744Y-69190D01*
X69744Y-69182D01*
X69396Y-69182D01*
X69356Y-69222D01*
X69356Y-69269D01*
X69380Y-69327D01*
X69396Y-69342D01*
X69396Y-69367D01*
X69396Y-69517D01*
X69408Y-69547D01*
X69396Y-69576D01*
X69396Y-69623D01*
X69396Y-69773D01*
X69408Y-69803D01*
X69396Y-69832D01*
X69396Y-69879D01*
X69396Y-70029D01*
X69396Y-70029D01*
X69071Y-70029D01*
X67827Y-68786D01*
X67776Y-68752D01*
X67716Y-68740D01*
X67446Y-68740D01*
X67376Y-68670D01*
X67290Y-68634D01*
X67320Y-68634D01*
X67364Y-68616D01*
X67397Y-68583D01*
X67415Y-68540D01*
X67415Y-68493D01*
X67415Y-67942D01*
X67397Y-67898D01*
X67372Y-67874D01*
X67485Y-67874D01*
X67461Y-67898D01*
X67443Y-67942D01*
X67443Y-67989D01*
X67443Y-68540D01*
X67461Y-68583D01*
X67494Y-68616D01*
X67537Y-68634D01*
X67584Y-68634D01*
X67820Y-68634D01*
X67864Y-68616D01*
X67897Y-68583D01*
X67915Y-68540D01*
X67915Y-68493D01*
X67915Y-68398D01*
X68372Y-68398D01*
X68800Y-68826D01*
X68746Y-68826D01*
X68647Y-68867D01*
X68572Y-68942D01*
X68531Y-69040D01*
X68531Y-69147D01*
X68571Y-69246D01*
X68647Y-69321D01*
X68745Y-69362D01*
X68852Y-69362D01*
X68950Y-69321D01*
X69026Y-69246D01*
X69067Y-69148D01*
X69067Y-69057D01*
X69104Y-69064D01*
X69356Y-69064D01*
X69356Y-69104D01*
X69396Y-69143D01*
X69744Y-69143D01*
X69744Y-69135D01*
X69783Y-69135D01*
X69783Y-69143D01*
X70132Y-69143D01*
X70171Y-69104D01*
X70171Y-69056D01*
X70147Y-68998D01*
X70132Y-68983D01*
X70132Y-68958D01*
X70132Y-68808D01*
X70120Y-68779D01*
X70132Y-68750D01*
X70132Y-68703D01*
X70132Y-68553D01*
X70777Y-68553D01*
X70837Y-68541D01*
X70837Y-68541D01*
X70888Y-68507D01*
X71090Y-68305D01*
X71090Y-68360D01*
X71130Y-68458D01*
X71206Y-68534D01*
X71304Y-68575D01*
X71411Y-68575D01*
X71509Y-68534D01*
X71585Y-68459D01*
X71600Y-68423D01*
X71600Y-68493D01*
X71612Y-68523D01*
X71600Y-68552D01*
X71600Y-68599D01*
X71600Y-68749D01*
X71612Y-68779D01*
X71600Y-68808D01*
X71600Y-68855D01*
X71600Y-68983D01*
X71584Y-68999D01*
X71560Y-69057D01*
X71560Y-69104D01*
X71600Y-69143D01*
X71948Y-69143D01*
X71948Y-69135D01*
X71987Y-69135D01*
X71987Y-69143D01*
X72336Y-69143D01*
X72375Y-69104D01*
X72375Y-69057D01*
X72351Y-68999D01*
X72336Y-68983D01*
X72336Y-68958D01*
X72336Y-68808D01*
X72324Y-68779D01*
X72336Y-68749D01*
X72336Y-68702D01*
X72336Y-68552D01*
X72324Y-68523D01*
X72336Y-68493D01*
X72336Y-68446D01*
X72336Y-68296D01*
X72324Y-68267D01*
X72336Y-68237D01*
X72336Y-68190D01*
X72336Y-68070D01*
X72901Y-68070D01*
X72879Y-68079D01*
X72804Y-68155D01*
X72763Y-68253D01*
X72763Y-68360D01*
X72804Y-68458D01*
X72879Y-68534D01*
X72977Y-68575D01*
X73084Y-68575D01*
X73183Y-68534D01*
X73258Y-68459D01*
X73299Y-68360D01*
X73299Y-68253D01*
X73258Y-68155D01*
X73183Y-68079D01*
X73161Y-68070D01*
X74581Y-68070D01*
X74651Y-68140D01*
X74749Y-68181D01*
X74856Y-68181D01*
X74954Y-68140D01*
X75030Y-68065D01*
X75071Y-67966D01*
X75071Y-67860D01*
X75030Y-67761D01*
X74955Y-67686D01*
X74856Y-67645D01*
X74750Y-67645D01*
X74651Y-67685D01*
X74581Y-67755D01*
X71259Y-67755D01*
X71259Y-67755D01*
X71242Y-67759D01*
X71415Y-67586D01*
X75230Y-67586D01*
X75257Y-67651D01*
X75367Y-67762D01*
X75512Y-67822D01*
X75668Y-67822D01*
X75812Y-67762D01*
X75923Y-67652D01*
X75983Y-67507D01*
X75983Y-67351D01*
X75983Y-68049D01*
X75954Y-68020D01*
X75896Y-67996D01*
X75834Y-67996D01*
X75649Y-67996D01*
X75610Y-68036D01*
X75610Y-68409D01*
X75983Y-68409D01*
X76023Y-68370D01*
X76023Y-68488D01*
X75983Y-68448D01*
X75610Y-68448D01*
X75610Y-68822D01*
X75649Y-68861D01*
X75834Y-68861D01*
X75896Y-68861D01*
X75954Y-68837D01*
X75999Y-68793D01*
X76023Y-68735D01*
X76023Y-78907D01*
X75977Y-78926D01*
X75777Y-79125D01*
X75669Y-79385D01*
X75669Y-79667D01*
X75776Y-79928D01*
X75976Y-80127D01*
X76236Y-80236D01*
X76518Y-80236D01*
X76778Y-80128D01*
X76978Y-79929D01*
X77086Y-79669D01*
X77086Y-79387D01*
X77086Y-80745D01*
X76926Y-80852D01*
X76364Y-80964D01*
X75570Y-80964D01*
X75570Y-68822D01*
X75570Y-68448D01*
X75570Y-68409D01*
X75570Y-68036D01*
X75531Y-67996D01*
X75346Y-67996D01*
X75284Y-67996D01*
X75226Y-68020D01*
X75182Y-68064D01*
X75158Y-68122D01*
X75158Y-68370D01*
X75197Y-68409D01*
X75570Y-68409D01*
X75570Y-68448D01*
X75197Y-68448D01*
X75158Y-68488D01*
X75158Y-68735D01*
X75182Y-68793D01*
X75226Y-68837D01*
X75284Y-68861D01*
X75346Y-68861D01*
X75531Y-68861D01*
X75570Y-68822D01*
X75570Y-80964D01*
X72512Y-80964D01*
X72512Y-79572D01*
X72471Y-79474D01*
X72396Y-79398D01*
X72297Y-79357D01*
X72190Y-79357D01*
X72092Y-79398D01*
X72016Y-79473D01*
X71976Y-79572D01*
X71975Y-79679D01*
X72016Y-79777D01*
X72092Y-79853D01*
X72190Y-79894D01*
X72297Y-79894D01*
X72395Y-79853D01*
X72471Y-79778D01*
X72512Y-79679D01*
X72512Y-79572D01*
X72512Y-80964D01*
X71645Y-80964D01*
X71645Y-78198D01*
X71532Y-77923D01*
X71502Y-77894D01*
X71502Y-71508D01*
X71502Y-71461D01*
X71502Y-71011D01*
X71484Y-70967D01*
X71451Y-70934D01*
X71408Y-70916D01*
X71361Y-70916D01*
X71111Y-70916D01*
X71067Y-70934D01*
X71034Y-70967D01*
X71016Y-71011D01*
X71016Y-71058D01*
X71016Y-71350D01*
X70937Y-71429D01*
X70899Y-71487D01*
X70885Y-71555D01*
X70885Y-71648D01*
X70835Y-71698D01*
X70794Y-71796D01*
X70794Y-71903D01*
X70835Y-72002D01*
X70910Y-72077D01*
X71009Y-72118D01*
X71116Y-72118D01*
X71214Y-72077D01*
X71290Y-72002D01*
X71331Y-71903D01*
X71331Y-71797D01*
X71290Y-71698D01*
X71240Y-71648D01*
X71240Y-71628D01*
X71265Y-71602D01*
X71408Y-71602D01*
X71451Y-71584D01*
X71484Y-71551D01*
X71502Y-71508D01*
X71502Y-77894D01*
X71321Y-77712D01*
X71047Y-77598D01*
X70754Y-77598D01*
X70754Y-71516D01*
X70754Y-71453D01*
X70754Y-71318D01*
X70754Y-71200D01*
X70754Y-71066D01*
X70754Y-71003D01*
X70730Y-70945D01*
X70686Y-70901D01*
X70628Y-70877D01*
X70531Y-70877D01*
X70492Y-70916D01*
X70492Y-71240D01*
X70715Y-71240D01*
X70754Y-71200D01*
X70754Y-71318D01*
X70715Y-71279D01*
X70492Y-71279D01*
X70492Y-71602D01*
X70531Y-71642D01*
X70628Y-71642D01*
X70686Y-71618D01*
X70730Y-71574D01*
X70754Y-71516D01*
X70754Y-77598D01*
X70749Y-77598D01*
X70474Y-77711D01*
X70452Y-77733D01*
X70452Y-71602D01*
X70452Y-71279D01*
X70452Y-71240D01*
X70452Y-70916D01*
X70413Y-70877D01*
X70316Y-70877D01*
X70258Y-70901D01*
X70213Y-70945D01*
X70189Y-71003D01*
X70189Y-71066D01*
X70189Y-71200D01*
X70229Y-71240D01*
X70452Y-71240D01*
X70452Y-71279D01*
X70229Y-71279D01*
X70189Y-71318D01*
X70189Y-71453D01*
X70189Y-71516D01*
X70213Y-71574D01*
X70258Y-71618D01*
X70316Y-71642D01*
X70413Y-71642D01*
X70452Y-71602D01*
X70452Y-77733D01*
X70263Y-77922D01*
X70149Y-78197D01*
X70149Y-78494D01*
X70263Y-78769D01*
X70473Y-78980D01*
X70748Y-79094D01*
X71045Y-79094D01*
X71320Y-78980D01*
X71531Y-78770D01*
X71645Y-78495D01*
X71645Y-78198D01*
X71645Y-80964D01*
X71134Y-80964D01*
X71134Y-80261D01*
X71093Y-80163D01*
X71018Y-80087D01*
X70919Y-80046D01*
X70813Y-80046D01*
X70714Y-80087D01*
X70638Y-80162D01*
X70598Y-80261D01*
X70597Y-80368D01*
X70638Y-80466D01*
X70714Y-80542D01*
X70812Y-80583D01*
X70919Y-80583D01*
X71017Y-80542D01*
X71093Y-80467D01*
X71134Y-80368D01*
X71134Y-80261D01*
X71134Y-80964D01*
X70346Y-80964D01*
X70346Y-80261D01*
X70306Y-80163D01*
X70230Y-80087D01*
X70132Y-80046D01*
X70120Y-80046D01*
X70120Y-74752D01*
X70048Y-74579D01*
X69915Y-74446D01*
X69742Y-74374D01*
X69554Y-74373D01*
X69380Y-74445D01*
X69247Y-74578D01*
X69175Y-74752D01*
X69175Y-74940D01*
X69246Y-75113D01*
X69379Y-75246D01*
X69553Y-75318D01*
X69741Y-75318D01*
X69914Y-75247D01*
X70047Y-75114D01*
X70119Y-74940D01*
X70120Y-74752D01*
X70120Y-80046D01*
X70025Y-80046D01*
X69927Y-80087D01*
X69851Y-80162D01*
X69810Y-80261D01*
X69810Y-80368D01*
X69851Y-80466D01*
X69926Y-80542D01*
X70025Y-80583D01*
X70131Y-80583D01*
X70230Y-80542D01*
X70305Y-80467D01*
X70346Y-80368D01*
X70346Y-80261D01*
X70346Y-80964D01*
X69559Y-80964D01*
X69559Y-80261D01*
X69518Y-80163D01*
X69443Y-80087D01*
X69344Y-80046D01*
X69238Y-80046D01*
X69139Y-80087D01*
X69064Y-80162D01*
X69023Y-80261D01*
X69023Y-80368D01*
X69063Y-80466D01*
X69139Y-80542D01*
X69237Y-80583D01*
X69344Y-80583D01*
X69443Y-80542D01*
X69518Y-80467D01*
X69559Y-80368D01*
X69559Y-80261D01*
X69559Y-80964D01*
X68772Y-80964D01*
X68772Y-80261D01*
X68731Y-80163D01*
X68656Y-80087D01*
X68557Y-80046D01*
X68450Y-80046D01*
X68352Y-80087D01*
X68276Y-80162D01*
X68235Y-80261D01*
X68235Y-80368D01*
X68276Y-80466D01*
X68351Y-80542D01*
X68450Y-80583D01*
X68557Y-80583D01*
X68655Y-80542D01*
X68731Y-80467D01*
X68772Y-80368D01*
X68772Y-80261D01*
X68772Y-80964D01*
X67984Y-80964D01*
X67984Y-80261D01*
X67943Y-80163D01*
X67868Y-80087D01*
X67770Y-80046D01*
X67663Y-80046D01*
X67645Y-80054D01*
X67645Y-78198D01*
X67532Y-77923D01*
X67321Y-77712D01*
X67047Y-77598D01*
X66749Y-77598D01*
X66474Y-77711D01*
X66263Y-77922D01*
X66149Y-78197D01*
X66149Y-78494D01*
X66263Y-78769D01*
X66473Y-78980D01*
X66748Y-79094D01*
X67045Y-79094D01*
X67320Y-78980D01*
X67531Y-78770D01*
X67645Y-78495D01*
X67645Y-78198D01*
X67645Y-80054D01*
X67564Y-80087D01*
X67489Y-80162D01*
X67448Y-80261D01*
X67448Y-80368D01*
X67489Y-80466D01*
X67564Y-80542D01*
X67662Y-80583D01*
X67769Y-80583D01*
X67868Y-80542D01*
X67943Y-80467D01*
X67984Y-80368D01*
X67984Y-80261D01*
X67984Y-80964D01*
X67197Y-80964D01*
X67197Y-80261D01*
X67156Y-80163D01*
X67081Y-80087D01*
X66982Y-80046D01*
X66876Y-80046D01*
X66777Y-80087D01*
X66701Y-80162D01*
X66661Y-80261D01*
X66660Y-80368D01*
X66701Y-80466D01*
X66777Y-80542D01*
X66875Y-80583D01*
X66982Y-80583D01*
X67080Y-80542D01*
X67156Y-80467D01*
X67197Y-80368D01*
X67197Y-80261D01*
X67197Y-80964D01*
X65334Y-80964D01*
X65334Y-69928D01*
X65334Y-69704D01*
X65334Y-69665D01*
X65334Y-69441D01*
X65295Y-69402D01*
X65160Y-69402D01*
X65098Y-69402D01*
X65040Y-69426D01*
X64995Y-69470D01*
X64971Y-69528D01*
X64971Y-69625D01*
X65011Y-69665D01*
X65334Y-69665D01*
X65334Y-69704D01*
X65011Y-69704D01*
X64971Y-69744D01*
X64971Y-69841D01*
X64995Y-69899D01*
X65040Y-69943D01*
X65098Y-69967D01*
X65160Y-69967D01*
X65295Y-69967D01*
X65334Y-69928D01*
X65334Y-80964D01*
X64933Y-80964D01*
X64933Y-78785D01*
X64892Y-78686D01*
X64817Y-78611D01*
X64718Y-78570D01*
X64612Y-78570D01*
X64513Y-78611D01*
X64438Y-78686D01*
X64397Y-78785D01*
X64397Y-78891D01*
X64437Y-78990D01*
X64513Y-79065D01*
X64611Y-79106D01*
X64718Y-79106D01*
X64817Y-79066D01*
X64892Y-78990D01*
X64933Y-78892D01*
X64933Y-78785D01*
X64933Y-80964D01*
X62637Y-80964D01*
X62637Y-66619D01*
X62636Y-66447D01*
X62597Y-66353D01*
X62597Y-65457D01*
X62538Y-65313D01*
X62427Y-65202D01*
X62283Y-65142D01*
X62126Y-65142D01*
X61982Y-65201D01*
X61871Y-65312D01*
X61811Y-65456D01*
X61811Y-65613D01*
X61871Y-65757D01*
X61981Y-65868D01*
X62126Y-65928D01*
X62282Y-65928D01*
X62427Y-65868D01*
X62537Y-65758D01*
X62597Y-65613D01*
X62597Y-65457D01*
X62597Y-66353D01*
X62572Y-66292D01*
X62502Y-66265D01*
X62474Y-66293D01*
X62474Y-66237D01*
X62447Y-66167D01*
X62288Y-66102D01*
X62116Y-66103D01*
X61961Y-66167D01*
X61935Y-66237D01*
X62204Y-66507D01*
X62474Y-66237D01*
X62474Y-66293D01*
X62232Y-66535D01*
X62502Y-66805D01*
X62572Y-66778D01*
X62637Y-66619D01*
X62637Y-80964D01*
X62597Y-80964D01*
X62597Y-67833D01*
X62597Y-67786D01*
X62597Y-67236D01*
X62579Y-67193D01*
X62546Y-67160D01*
X62503Y-67142D01*
X62474Y-67142D01*
X62474Y-66832D01*
X62204Y-66563D01*
X62176Y-66591D01*
X62176Y-66535D01*
X61907Y-66265D01*
X61836Y-66292D01*
X61771Y-66451D01*
X61772Y-66623D01*
X61836Y-66778D01*
X61907Y-66805D01*
X62176Y-66535D01*
X62176Y-66591D01*
X61935Y-66832D01*
X61961Y-66903D01*
X62121Y-66968D01*
X62293Y-66967D01*
X62447Y-66903D01*
X62474Y-66832D01*
X62474Y-67142D01*
X62456Y-67142D01*
X61906Y-67142D01*
X61862Y-67160D01*
X61829Y-67193D01*
X61811Y-67236D01*
X61811Y-67283D01*
X61811Y-67833D01*
X61829Y-67877D01*
X61862Y-67910D01*
X61906Y-67928D01*
X61953Y-67928D01*
X62503Y-67928D01*
X62546Y-67910D01*
X62579Y-67877D01*
X62597Y-67833D01*
X62597Y-80964D01*
X62126Y-80964D01*
X62126Y-79387D01*
X62018Y-79126D01*
X61819Y-78927D01*
X61732Y-78891D01*
X61732Y-70725D01*
X61624Y-70465D01*
X61425Y-70265D01*
X61291Y-70210D01*
X61291Y-69238D01*
X61251Y-69139D01*
X61175Y-69064D01*
X61077Y-69023D01*
X60970Y-69023D01*
X60871Y-69063D01*
X60796Y-69139D01*
X60755Y-69237D01*
X60755Y-69344D01*
X60796Y-69443D01*
X60871Y-69518D01*
X60970Y-69559D01*
X61076Y-69559D01*
X61175Y-69518D01*
X61250Y-69443D01*
X61291Y-69344D01*
X61291Y-69238D01*
X61291Y-70210D01*
X61165Y-70157D01*
X60883Y-70157D01*
X60701Y-70232D01*
X60701Y-69238D01*
X60660Y-69139D01*
X60585Y-69064D01*
X60486Y-69023D01*
X60379Y-69023D01*
X60281Y-69063D01*
X60205Y-69139D01*
X60165Y-69237D01*
X60164Y-69344D01*
X60205Y-69443D01*
X60281Y-69518D01*
X60379Y-69559D01*
X60486Y-69559D01*
X60584Y-69518D01*
X60660Y-69443D01*
X60701Y-69344D01*
X60701Y-69238D01*
X60701Y-70232D01*
X60622Y-70265D01*
X60423Y-70464D01*
X60315Y-70724D01*
X60314Y-71006D01*
X60422Y-71267D01*
X60621Y-71466D01*
X60882Y-71574D01*
X61163Y-71574D01*
X61424Y-71467D01*
X61624Y-71268D01*
X61732Y-71007D01*
X61732Y-70725D01*
X61732Y-78891D01*
X61558Y-78819D01*
X61276Y-78818D01*
X61016Y-78926D01*
X60898Y-79044D01*
X60898Y-77505D01*
X60898Y-76718D01*
X60898Y-75931D01*
X60898Y-75143D01*
X60898Y-74356D01*
X60898Y-73568D01*
X60898Y-72781D01*
X60857Y-72682D01*
X60781Y-72607D01*
X60683Y-72566D01*
X60576Y-72566D01*
X60478Y-72607D01*
X60402Y-72682D01*
X60361Y-72781D01*
X60361Y-72887D01*
X60402Y-72986D01*
X60477Y-73061D01*
X60576Y-73102D01*
X60683Y-73102D01*
X60781Y-73062D01*
X60857Y-72986D01*
X60897Y-72888D01*
X60898Y-72781D01*
X60898Y-73568D01*
X60857Y-73470D01*
X60781Y-73394D01*
X60683Y-73353D01*
X60576Y-73353D01*
X60478Y-73394D01*
X60402Y-73469D01*
X60361Y-73568D01*
X60361Y-73675D01*
X60402Y-73773D01*
X60477Y-73849D01*
X60576Y-73890D01*
X60683Y-73890D01*
X60781Y-73849D01*
X60857Y-73774D01*
X60897Y-73675D01*
X60898Y-73568D01*
X60898Y-74356D01*
X60857Y-74257D01*
X60781Y-74182D01*
X60683Y-74141D01*
X60576Y-74141D01*
X60478Y-74182D01*
X60402Y-74257D01*
X60361Y-74355D01*
X60361Y-74462D01*
X60402Y-74561D01*
X60477Y-74636D01*
X60576Y-74677D01*
X60683Y-74677D01*
X60781Y-74636D01*
X60857Y-74561D01*
X60897Y-74463D01*
X60898Y-74356D01*
X60898Y-75143D01*
X60857Y-75045D01*
X60781Y-74969D01*
X60683Y-74928D01*
X60576Y-74928D01*
X60478Y-74969D01*
X60402Y-75044D01*
X60361Y-75143D01*
X60361Y-75249D01*
X60402Y-75348D01*
X60477Y-75424D01*
X60576Y-75464D01*
X60683Y-75465D01*
X60781Y-75424D01*
X60857Y-75348D01*
X60897Y-75250D01*
X60898Y-75143D01*
X60898Y-75931D01*
X60857Y-75832D01*
X60781Y-75757D01*
X60683Y-75716D01*
X60576Y-75716D01*
X60478Y-75756D01*
X60402Y-75832D01*
X60361Y-75930D01*
X60361Y-76037D01*
X60402Y-76135D01*
X60477Y-76211D01*
X60576Y-76252D01*
X60683Y-76252D01*
X60781Y-76211D01*
X60857Y-76136D01*
X60897Y-76037D01*
X60898Y-75931D01*
X60898Y-76718D01*
X60857Y-76619D01*
X60781Y-76544D01*
X60683Y-76503D01*
X60576Y-76503D01*
X60478Y-76544D01*
X60402Y-76619D01*
X60361Y-76718D01*
X60361Y-76824D01*
X60402Y-76923D01*
X60477Y-76998D01*
X60576Y-77039D01*
X60683Y-77039D01*
X60781Y-76999D01*
X60857Y-76923D01*
X60897Y-76825D01*
X60898Y-76718D01*
X60898Y-77505D01*
X60857Y-77407D01*
X60781Y-77331D01*
X60683Y-77290D01*
X60576Y-77290D01*
X60478Y-77331D01*
X60402Y-77406D01*
X60361Y-77505D01*
X60361Y-77612D01*
X60402Y-77710D01*
X60477Y-77786D01*
X60576Y-77827D01*
X60683Y-77827D01*
X60781Y-77786D01*
X60857Y-77711D01*
X60897Y-77612D01*
X60898Y-77505D01*
X60898Y-79044D01*
X60816Y-79125D01*
X60708Y-79385D01*
X60708Y-79667D01*
X60816Y-79928D01*
X61015Y-80127D01*
X61275Y-80236D01*
X61557Y-80236D01*
X61818Y-80128D01*
X62017Y-79929D01*
X62125Y-79669D01*
X62126Y-79387D01*
X62126Y-80964D01*
X61430Y-80964D01*
X60868Y-80852D01*
X60403Y-80541D01*
X60110Y-80104D01*
X60110Y-69238D01*
X60069Y-69139D01*
X59994Y-69064D01*
X59896Y-69023D01*
X59789Y-69023D01*
X59690Y-69063D01*
X59615Y-69139D01*
X59574Y-69237D01*
X59574Y-69344D01*
X59615Y-69443D01*
X59690Y-69518D01*
X59788Y-69559D01*
X59895Y-69559D01*
X59994Y-69518D01*
X60069Y-69443D01*
X60110Y-69344D01*
X60110Y-69238D01*
X60110Y-80104D01*
X60092Y-80076D01*
X59980Y-79513D01*
X59980Y-72834D01*
X59971Y-72790D01*
X59969Y-72781D01*
X59969Y-72781D01*
X59939Y-72737D01*
X59192Y-71990D01*
X59192Y-61726D01*
X59207Y-61653D01*
X59240Y-61603D01*
X59291Y-61569D01*
X59350Y-61557D01*
X59409Y-61569D01*
X59459Y-61603D01*
X59493Y-61653D01*
X59507Y-61726D01*
X59507Y-62204D01*
X59518Y-62257D01*
X59548Y-62302D01*
X61713Y-64467D01*
X61758Y-64497D01*
X61811Y-64507D01*
X75984Y-64507D01*
X75984Y-64507D01*
X76036Y-64497D01*
X76081Y-64467D01*
X78247Y-62302D01*
X78247Y-62302D01*
X78276Y-62257D01*
X78287Y-62204D01*
X78287Y-61726D01*
X78301Y-61653D01*
X78335Y-61603D01*
X78385Y-61569D01*
X78444Y-61557D01*
X78504Y-61569D01*
X78554Y-61603D01*
X78587Y-61653D01*
X78602Y-61726D01*
X78602Y-71990D01*
M02*
