G04 #@! TF.FileFunction,Legend,Bot*
%FSLAX46Y46*%
G04 Gerber Fmt 4.6, Leading zero omitted, Abs format (unit mm)*
G04 Created by KiCad (PCBNEW 4.0.7) date Sun Apr  1 13:56:06 2018*
%MOMM*%
%LPD*%
G01*
G04 APERTURE LIST*
%ADD10C,0.150000*%
%ADD11C,0.130000*%
G04 APERTURE END LIST*
D10*
X179650000Y-181600000D02*
X180350000Y-181600000D01*
X180350000Y-180400000D02*
X179650000Y-180400000D01*
X166600000Y-176350000D02*
X166600000Y-175650000D01*
X165400000Y-175650000D02*
X165400000Y-176350000D01*
X167675000Y-184500000D02*
X167675000Y-183500000D01*
X166325000Y-183500000D02*
X166325000Y-184500000D01*
X170500000Y-181325000D02*
X169500000Y-181325000D01*
X169500000Y-182675000D02*
X170500000Y-182675000D01*
X172325000Y-183500000D02*
X172325000Y-184500000D01*
X173675000Y-184500000D02*
X173675000Y-183500000D01*
X177000000Y-186175000D02*
X178000000Y-186175000D01*
X178000000Y-184825000D02*
X177000000Y-184825000D01*
X182225000Y-179375000D02*
X177775000Y-179375000D01*
X183750000Y-172625000D02*
X177775000Y-172625000D01*
X171299160Y-186650240D02*
X171250900Y-186650240D01*
X168500180Y-185949200D02*
X168500180Y-186650240D01*
X168500180Y-186650240D02*
X168749100Y-186650240D01*
X171299160Y-186650240D02*
X171499820Y-186650240D01*
X171499820Y-186650240D02*
X171499820Y-185949200D01*
X167425000Y-173925000D02*
X167570000Y-173925000D01*
X167425000Y-178075000D02*
X167570000Y-178075000D01*
X172575000Y-178075000D02*
X172430000Y-178075000D01*
X172575000Y-173925000D02*
X172430000Y-173925000D01*
X167425000Y-173925000D02*
X167425000Y-178075000D01*
X172575000Y-173925000D02*
X172575000Y-178075000D01*
X167570000Y-173925000D02*
X167570000Y-172525000D01*
D11*
X180127000Y-182772143D02*
X180163286Y-182808429D01*
X180272143Y-182844714D01*
X180344714Y-182844714D01*
X180453571Y-182808429D01*
X180526143Y-182735857D01*
X180562428Y-182663286D01*
X180598714Y-182518143D01*
X180598714Y-182409286D01*
X180562428Y-182264143D01*
X180526143Y-182191571D01*
X180453571Y-182119000D01*
X180344714Y-182082714D01*
X180272143Y-182082714D01*
X180163286Y-182119000D01*
X180127000Y-182155286D01*
X179836714Y-182155286D02*
X179800428Y-182119000D01*
X179727857Y-182082714D01*
X179546428Y-182082714D01*
X179473857Y-182119000D01*
X179437571Y-182155286D01*
X179401286Y-182227857D01*
X179401286Y-182300429D01*
X179437571Y-182409286D01*
X179873000Y-182844714D01*
X179401286Y-182844714D01*
X164377000Y-176272143D02*
X164413286Y-176308429D01*
X164522143Y-176344714D01*
X164594714Y-176344714D01*
X164703571Y-176308429D01*
X164776143Y-176235857D01*
X164812428Y-176163286D01*
X164848714Y-176018143D01*
X164848714Y-175909286D01*
X164812428Y-175764143D01*
X164776143Y-175691571D01*
X164703571Y-175619000D01*
X164594714Y-175582714D01*
X164522143Y-175582714D01*
X164413286Y-175619000D01*
X164377000Y-175655286D01*
X164014143Y-176344714D02*
X163869000Y-176344714D01*
X163796428Y-176308429D01*
X163760143Y-176272143D01*
X163687571Y-176163286D01*
X163651286Y-176018143D01*
X163651286Y-175727857D01*
X163687571Y-175655286D01*
X163723857Y-175619000D01*
X163796428Y-175582714D01*
X163941571Y-175582714D01*
X164014143Y-175619000D01*
X164050428Y-175655286D01*
X164086714Y-175727857D01*
X164086714Y-175909286D01*
X164050428Y-175981857D01*
X164014143Y-176018143D01*
X163941571Y-176054429D01*
X163796428Y-176054429D01*
X163723857Y-176018143D01*
X163687571Y-175981857D01*
X163651286Y-175909286D01*
X165377000Y-184344714D02*
X165631000Y-183981857D01*
X165812428Y-184344714D02*
X165812428Y-183582714D01*
X165522143Y-183582714D01*
X165449571Y-183619000D01*
X165413286Y-183655286D01*
X165377000Y-183727857D01*
X165377000Y-183836714D01*
X165413286Y-183909286D01*
X165449571Y-183945571D01*
X165522143Y-183981857D01*
X165812428Y-183981857D01*
X165123000Y-183582714D02*
X164651286Y-183582714D01*
X164905286Y-183873000D01*
X164796428Y-183873000D01*
X164723857Y-183909286D01*
X164687571Y-183945571D01*
X164651286Y-184018143D01*
X164651286Y-184199571D01*
X164687571Y-184272143D01*
X164723857Y-184308429D01*
X164796428Y-184344714D01*
X165014143Y-184344714D01*
X165086714Y-184308429D01*
X165123000Y-184272143D01*
X170127000Y-180844714D02*
X170381000Y-180481857D01*
X170562428Y-180844714D02*
X170562428Y-180082714D01*
X170272143Y-180082714D01*
X170199571Y-180119000D01*
X170163286Y-180155286D01*
X170127000Y-180227857D01*
X170127000Y-180336714D01*
X170163286Y-180409286D01*
X170199571Y-180445571D01*
X170272143Y-180481857D01*
X170562428Y-180481857D01*
X169473857Y-180336714D02*
X169473857Y-180844714D01*
X169655286Y-180046429D02*
X169836714Y-180590714D01*
X169365000Y-180590714D01*
X174877000Y-184344714D02*
X175131000Y-183981857D01*
X175312428Y-184344714D02*
X175312428Y-183582714D01*
X175022143Y-183582714D01*
X174949571Y-183619000D01*
X174913286Y-183655286D01*
X174877000Y-183727857D01*
X174877000Y-183836714D01*
X174913286Y-183909286D01*
X174949571Y-183945571D01*
X175022143Y-183981857D01*
X175312428Y-183981857D01*
X174187571Y-183582714D02*
X174550428Y-183582714D01*
X174586714Y-183945571D01*
X174550428Y-183909286D01*
X174477857Y-183873000D01*
X174296428Y-183873000D01*
X174223857Y-183909286D01*
X174187571Y-183945571D01*
X174151286Y-184018143D01*
X174151286Y-184199571D01*
X174187571Y-184272143D01*
X174223857Y-184308429D01*
X174296428Y-184344714D01*
X174477857Y-184344714D01*
X174550428Y-184308429D01*
X174586714Y-184272143D01*
X177627000Y-184344714D02*
X177881000Y-183981857D01*
X178062428Y-184344714D02*
X178062428Y-183582714D01*
X177772143Y-183582714D01*
X177699571Y-183619000D01*
X177663286Y-183655286D01*
X177627000Y-183727857D01*
X177627000Y-183836714D01*
X177663286Y-183909286D01*
X177699571Y-183945571D01*
X177772143Y-183981857D01*
X178062428Y-183981857D01*
X176973857Y-183582714D02*
X177119000Y-183582714D01*
X177191571Y-183619000D01*
X177227857Y-183655286D01*
X177300428Y-183764143D01*
X177336714Y-183909286D01*
X177336714Y-184199571D01*
X177300428Y-184272143D01*
X177264143Y-184308429D01*
X177191571Y-184344714D01*
X177046428Y-184344714D01*
X176973857Y-184308429D01*
X176937571Y-184272143D01*
X176901286Y-184199571D01*
X176901286Y-184018143D01*
X176937571Y-183945571D01*
X176973857Y-183909286D01*
X177046428Y-183873000D01*
X177191571Y-183873000D01*
X177264143Y-183909286D01*
X177300428Y-183945571D01*
X177336714Y-184018143D01*
X183580571Y-171332714D02*
X183580571Y-171949571D01*
X183544286Y-172022143D01*
X183508000Y-172058429D01*
X183435429Y-172094714D01*
X183290286Y-172094714D01*
X183217714Y-172058429D01*
X183181429Y-172022143D01*
X183145143Y-171949571D01*
X183145143Y-171332714D01*
X182818571Y-171405286D02*
X182782285Y-171369000D01*
X182709714Y-171332714D01*
X182528285Y-171332714D01*
X182455714Y-171369000D01*
X182419428Y-171405286D01*
X182383143Y-171477857D01*
X182383143Y-171550429D01*
X182419428Y-171659286D01*
X182854857Y-172094714D01*
X182383143Y-172094714D01*
X170580571Y-187832714D02*
X170580571Y-188449571D01*
X170544286Y-188522143D01*
X170508000Y-188558429D01*
X170435429Y-188594714D01*
X170290286Y-188594714D01*
X170217714Y-188558429D01*
X170181429Y-188522143D01*
X170145143Y-188449571D01*
X170145143Y-187832714D01*
X169854857Y-187832714D02*
X169383143Y-187832714D01*
X169637143Y-188123000D01*
X169528285Y-188123000D01*
X169455714Y-188159286D01*
X169419428Y-188195571D01*
X169383143Y-188268143D01*
X169383143Y-188449571D01*
X169419428Y-188522143D01*
X169455714Y-188558429D01*
X169528285Y-188594714D01*
X169746000Y-188594714D01*
X169818571Y-188558429D01*
X169854857Y-188522143D01*
X167080571Y-172832714D02*
X167080571Y-173449571D01*
X167044286Y-173522143D01*
X167008000Y-173558429D01*
X166935429Y-173594714D01*
X166790286Y-173594714D01*
X166717714Y-173558429D01*
X166681429Y-173522143D01*
X166645143Y-173449571D01*
X166645143Y-172832714D01*
X165955714Y-173086714D02*
X165955714Y-173594714D01*
X166137143Y-172796429D02*
X166318571Y-173340714D01*
X165846857Y-173340714D01*
M02*
